<svg xmlns="http://www.w3.org/2000/svg" viewBox="0 0 841.89 293.33"><defs><style>.cls-1,.cls-10,.cls-11,.cls-12,.cls-3,.cls-4,.cls-5,.cls-6,.cls-7,.cls-8,.cls-9{fill:none;}.cls-1,.cls-3,.cls-4,.cls-5,.cls-6,.cls-7,.cls-8{stroke:#231f20;}.cls-1,.cls-10,.cls-11,.cls-3,.cls-4,.cls-5,.cls-6,.cls-7,.cls-8,.cls-9{stroke-miterlimit:10;}.cls-1{stroke-width:4px;}.cls-15,.cls-2{fill:#231f20;}.cls-3,.cls-4,.cls-5,.cls-6,.cls-7,.cls-8{stroke-width:2px;}.cls-10,.cls-11,.cls-12,.cls-4,.cls-5,.cls-6,.cls-7,.cls-8{stroke-linecap:round;}.cls-5{stroke-dasharray:13.12 13.12;}.cls-6{stroke-dasharray:11.11 11.11;}.cls-7{stroke-dasharray:13.49 13.49;}.cls-8{stroke-dasharray:7.12 7.12;}.cls-9{stroke:#000;}.cls-12,.cls-9{stroke-width:3px;}.cls-10,.cls-11{stroke:#e94e4e;stroke-width:8px;}.cls-11{stroke-dasharray:2 19.98;}.cls-12{stroke:#4db96c;stroke-linejoin:round;}.cls-13{fill:#2e90c8;}.cls-14{fill:#fcfcfc;}.cls-15{font-size:10.48px;font-family:Cambria;}.cls-16{letter-spacing:-0.04em;}.cls-17{letter-spacing:-0.02em;}.cls-18{letter-spacing:-0.01em;}.cls-19{letter-spacing:0em;}.cls-20{letter-spacing:-0.01em;}.cls-21{letter-spacing:-0.01em;}.cls-22{letter-spacing:-0.02em;}.cls-23{letter-spacing:-0.01em;}.cls-24{letter-spacing:-0.02em;}</style></defs><g id="Layer_1" data-name="Layer 1"><g id="Layer_4" data-name="Layer 4"><line class="cls-1" x1="175.56" y1="136.36" x2="175.56" y2="105.4"/><polygon class="cls-2" points="180.54 106.86 175.56 98.22 170.57 106.86 180.54 106.86"/><line class="cls-1" x1="175.44" y1="152.55" x2="175.44" y2="183.5"/><polygon class="cls-2" points="170.46 182.05 175.44 190.68 180.43 182.05 170.46 182.05"/><line class="cls-3" x1="308.58" y1="93.81" x2="308.58" y2="137.58"/><polygon class="cls-2" points="306.09 94.54 308.58 90.22 311.07 94.54 306.09 94.54"/><polygon class="cls-2" points="306.09 136.85 308.58 141.16 311.07 136.85 306.09 136.85"/><line class="cls-3" x1="329.82" y1="199.9" x2="458.19" y2="199.9"/><polygon class="cls-2" points="330.55 202.4 326.23 199.9 330.55 197.41 330.55 202.4"/><polygon class="cls-2" points="457.46 202.4 461.78 199.9 457.46 197.41 457.46 202.4"/><line class="cls-3" x1="514.03" y1="199.9" x2="642.4" y2="199.9"/><polygon class="cls-2" points="514.76 202.4 510.45 199.9 514.76 197.41 514.76 202.4"/><polygon class="cls-2" points="641.67 202.4 645.99 199.9 641.67 197.41 641.67 202.4"/><line class="cls-3" x1="465.37" y1="65.07" x2="506.86" y2="65.07"/><polygon class="cls-2" points="466.1 67.57 461.78 65.07 466.1 62.58 466.1 67.57"/><polygon class="cls-2" points="506.13 67.57 510.45 65.07 506.13 62.58 506.13 67.57"/><line class="cls-3" x1="218.4" y1="180.3" x2="235.82" y2="180.3"/><polygon class="cls-2" points="214.67 182.79 218.85 180.3 214.67 177.8 214.67 182.79"/><polygon class="cls-2" points="239.56 182.79 235.37 180.3 239.56 177.8 239.56 182.79"/><line class="cls-3" x1="239.56" y1="180.3" x2="284.33" y2="180.3"/><line class="cls-4" x1="461.78" y1="67.07" x2="461.78" y2="73.07"/><line class="cls-5" x1="461.78" y1="86.2" x2="461.78" y2="184.62"/><line class="cls-4" x1="461.78" y1="191.19" x2="461.78" y2="197.19"/><line class="cls-4" x1="310.67" y1="91.22" x2="316.67" y2="91.22"/><line class="cls-6" x1="327.78" y1="91.22" x2="433.33" y2="91.22"/><line class="cls-4" x1="438.89" y1="91.22" x2="444.89" y2="91.22"/><line class="cls-4" x1="510.45" y1="67.38" x2="510.45" y2="73.38"/><line class="cls-5" x1="510.45" y1="86.5" x2="510.45" y2="184.93"/><line class="cls-4" x1="510.45" y1="191.49" x2="510.45" y2="197.49"/><line class="cls-4" x1="645.99" y1="144.72" x2="645.99" y2="150.72"/><line class="cls-7" x1="645.99" y1="164.21" x2="645.99" y2="184.44"/><line class="cls-4" x1="645.99" y1="191.19" x2="645.99" y2="197.19"/><line class="cls-4" x1="324.22" y1="144.05" x2="324.22" y2="150.05"/><line class="cls-7" x1="324.22" y1="163.54" x2="324.22" y2="183.77"/><line class="cls-4" x1="324.22" y1="190.52" x2="324.22" y2="196.52"/><line class="cls-4" x1="234.89" y1="148.33" x2="234.89" y2="152.33"/><line class="cls-8" x1="234.89" y1="159.45" x2="234.89" y2="170.13"/><line class="cls-4" x1="234.89" y1="173.69" x2="234.89" y2="177.69"/><line class="cls-4" x1="219.33" y1="148.33" x2="219.33" y2="152.33"/><line class="cls-8" x1="219.33" y1="159.45" x2="219.33" y2="170.13"/><line class="cls-4" x1="219.33" y1="173.69" x2="219.33" y2="177.69"/></g><path class="cls-9" d="M42.62,136.17s240.6,16.66,280.3,7.94c3.21-.71,132.15-57.13,148.74-57.72s27.26-.59,40.89,3S621,144,639.37,144.25s101.33,15.27,147,26.11"/><path class="cls-10" d="M42.62,136.17l1,.07"/><path class="cls-11" d="M63.56,137.55c59.4,3.81,226.83,13.71,259.36,6.56,3.21-.71,132.15-57.13,148.74-57.72s27.26-.59,40.89,3S621,144,639.37,144.25c17,.2,89.39,13.12,136.24,23.64"/><path class="cls-10" d="M785.36,170.13l1,.23"/><polygon class="cls-12" points="114.44 32.89 128.67 40.89 316.22 36.89 334.44 29.78 114.44 32.89"/><polygon class="cls-12" points="261.48 231.91 257.02 223.91 198.32 227.91 192.61 235.02 261.48 231.91"/><polygon class="cls-12" points="490.25 126.33 486.19 130.17 487.37 181.65 490.85 186.71 490.25 126.33"/><polygon class="cls-12" points="414.48 29.78 402.44 40.89 371.78 40.89 358 35.33 392.67 29.78 414.48 29.78"/><circle class="cls-13" cx="227.72" cy="228.72" r="5.28"/><circle class="cls-13" cx="222.44" cy="32.72" r="5.28"/><circle class="cls-13" cx="386.24" cy="32.72" r="5.28"/><circle class="cls-13" cx="488.52" cy="153.61" r="5.28"/><path id="nissan1" class="cls-14" d="M66.36,126s-8.71,12.52-.37,28.66c0,0,2.76,2.39,5.54,2.33s58.35,0,59.69-.22,9.57-2.4,11.41-8.57-.12-16.81-1-17.49l-.92-.68s-3.7-7.25-9.59-5.83-36.72,0-40-.1S68.52,122.88,66.36,126Z"/><path id="nissan2" d="M114.26,155.65a5.57,5.57,0,0,1-.76.41,1,1,0,0,1-.65,0c-.08,0-.08-.35-.06-.53a1.07,1.07,0,0,1,.16-.37c-5,.14-10.13,0-15.26-.12l.3.93c.25-.32.48-.43.79-.18a.38.38,0,0,0,.26,0,2.68,2.68,0,0,0,.69-.17,3.09,3.09,0,0,1,2.2,0c.36.08.67.28,1.06.12a.4.4,0,0,1,.36.15c.12.3.35.24.57.24,2-.08,4.1-.19,6.15-.21a15.58,15.58,0,0,1,2.54.3c.21,0,.46.15.36.46-.26,0-.52-.07-.78-.07-2.84,0-5.69.09-8.53.15-1.12,0-2.24.07-3.37.07H84.74c-1.33,0-2.67,0-4,0-1.75,0-3.5.08-5.25.09-1,0-2-.1-3.07-.11a11,11,0,0,1-3.73-.73,19.5,19.5,0,0,1-2.44-1.27.79.79,0,0,1-.47-.71.69.69,0,0,0-.15-.31,25.18,25.18,0,0,1-2.71-6.55,22.47,22.47,0,0,1-.44-3.19,35.3,35.3,0,0,1-.19-5.63A24.52,24.52,0,0,1,65.68,127c.2-.36.26-.8.68-1a14.16,14.16,0,0,1,4.11-1.67,32.65,32.65,0,0,1,6.24-.38c1.31,0,2.62.08,3.93.12.24,0,.49-.1.73-.07,2.41.35,4.83-.08,7.25,0,2.76.11,5.52.16,8.28.23.26,0,.51-.06.76-.07,1.17,0,2.35-.13,3.52-.14.51,0,1,.16,1.53.18s1.09,0,1.63,0l7.16.08c.27,0,.54,0,.81.07-.13-.51-.26-1-.38-1.48s.14-.61.54-.59A3,3,0,0,1,115,124a.54.54,0,0,0,.37.24c.82,0,1.65.08,2.48,0,.59,0,1.18-.17,1.77-.22s1,0,1.56,0,1.32,0,2-.08a46,46,0,0,1,7,.11,17.65,17.65,0,0,1,4.32.71,12,12,0,0,1,3.11,1.58.44.44,0,0,0,.2.11c1.16.17,1.7,1.07,2.27,1.94a6.28,6.28,0,0,0,.38.52,13.57,13.57,0,0,1,1.95,3.51,9.25,9.25,0,0,1,.28,1.39.7.7,0,0,0,.08.2h.1c0-.33-.08-.65-.09-1a2.74,2.74,0,0,1,0-.81c0-.14.26-.23.39-.35a4.57,4.57,0,0,1,.29.36c.1.15.14.35.27.44a.73.73,0,0,1,.33.69c0,2.12-.07,4.24-.1,6.35.67.19.87.41.84.88s-.25.6-.85.72v4.14a1.62,1.62,0,0,1,1.47.66,1.19,1.19,0,0,1,.17.81,1.22,1.22,0,0,1-.77,1.05,10.48,10.48,0,0,1-1.35.3.58.58,0,0,1,0,.29c-.07.14-.21.32-.32.33a.47.47,0,0,1-.35-.29,11,11,0,0,1,0-1.28,2,2,0,0,0,0-.59c-.07.34-.17.67-.22,1a8.73,8.73,0,0,1-1.56,3.35c-.64,1-1.41,1.86-2.12,2.78-.06.07-.11.16-.19.19a25.24,25.24,0,0,1-5.65,2.37c-.44.1-.9.12-1.35.18-.16,0-.33.07-.49.1a3.48,3.48,0,0,1-.64.14c-2.08,0-4.16.08-6.24.08-1,0-1.93-.12-2.9-.15-.62,0-1.24,0-1.86,0-.47,0-.93-.12-1.39-.16s-.73,0-1.1,0c-.8,0-1.6,0-2.4-.09-.44,0-.49-.13-.39-.57l.06-.21Zm-4-5.67a10.47,10.47,0,0,0,4.24,1.2c1.57.15,3.13.23,4.69.39a2.21,2.21,0,0,0,2-.84,5.87,5.87,0,0,0,1.34-3c.29-1.72.49-3.46.72-5.2a11.33,11.33,0,0,0,.2-2.31c-.13-1.76-.34-3.51-.61-5.25a15,15,0,0,0-1.58-4.9,1.36,1.36,0,0,0-1.32-.79c-1.06,0-2.12.11-3.18.2s-2,.21-3,.34c-.77.11-1.54.23-2.3.39a1.19,1.19,0,0,0-1,1.14,3.5,3.5,0,0,0,0,1.12c.28,1.14.62,2.27,1,3.4a.37.37,0,0,0,.2.24,2.43,2.43,0,0,1,1.49,1.45,7,7,0,0,1,0,5.64,2.29,2.29,0,0,1-1.23,1.39,1.12,1.12,0,0,0-.71.83c-.05.19-.12.37-.16.56C110.82,147.32,110.54,148.63,110.26,150Zm16-20.45c0,.11.07.27.16.33.49.33.71,1,1.38,1.11a.27.27,0,0,1,.14.12c.46.72.92,1.44,1.37,2.16a.37.37,0,0,1,.08.26c-.12.48.22.82.38,1.21a21.5,21.5,0,0,1,.87,2.06,15,15,0,0,1,0,6.83,5,5,0,0,1-.74,2.3,13.57,13.57,0,0,0-.78,2,16.08,16.08,0,0,1-1.16,1.83c0,.08-.16.18-.23.17-.29,0-.41.16-.57.33s-.48.47-.71.72a1.78,1.78,0,0,0-.17.27l.09.07a5.25,5.25,0,0,0,2-1.55,16.3,16.3,0,0,1,1.2-1.57c.08-.09.26-.1.4-.15,0,.15,0,.29,0,.43a.61.61,0,0,1-.11.21c-.62.76-1.19,1.57-1.87,2.27a20.24,20.24,0,0,1-1.87,1.55c.25-.09.49-.18.74-.25a17.33,17.33,0,0,0,3.76-1.55,14.07,14.07,0,0,1,4.7-1.76,3.54,3.54,0,0,0,2.3-1.41c.61-.83,1.15-1.72,1.68-2.61a1.08,1.08,0,0,0,0-.65c0-.38-.18-.76-.19-1.14,0-1.83,0-3.66,0-5.48a5,5,0,0,1,.2-1,1,1,0,0,0-.09-.85c-.35-.51-.66-1.05-1-1.58a4.33,4.33,0,0,0-3-2.25,15.87,15.87,0,0,1-4.72-1.84,25.92,25.92,0,0,0-2.93-1.23c-.61-.24-1.23-.44-1.85-.66a11.78,11.78,0,0,1,2.85,2.21,5.87,5.87,0,0,1,1.74,3.16A17.35,17.35,0,0,0,126.25,129.53ZM87.35,149a6.4,6.4,0,0,0,.1-.94c0-.5-.11-1-.12-1.51-.11-3.41-.16-6.83.06-10.24,0-.43,0-.87.08-1.31a2.07,2.07,0,0,1-2.32-2.79l-7.47.41c0,.23,0,.43,0,.64,0,1.67.07,3.35.06,5,0,3,0,6.07-.07,9.11a.76.76,0,0,0,.22.57,2.14,2.14,0,0,0,1,.43A69.1,69.1,0,0,1,87.35,149Zm1.46-9.53a91,91,0,0,1,11.2,0c0-.14,0-.25,0-.35,0-1.88,0-3.76.16-5.64a4.75,4.75,0,0,0-.41-2.19l-.56,0c-1.16.09-2.32.2-3.49.27l-6.56.38c-.41,0-.45.08-.31.47a2.06,2.06,0,0,1,0,1.3,2.86,2.86,0,0,0-.12.82c0,1.21,0,2.41.06,3.62C88.82,138.57,88.81,139,88.81,139.44Zm-.07,2.07v4.55c0,.8,0,1.61,0,2.41,0,.25,0,.58.38.59,1.61,0,3.22,0,4.82.11s3.34.28,5,.43l.88.09.07-.11a1.9,1.9,0,0,1-.94-1.89,2,2,0,0,1,1.22-1.67l-.17-4.51Zm-24-9.92a7.48,7.48,0,0,1,.91.28c.12,0,.19.21.29.32-.14.08-.27.22-.4.22-.41,0-.82,0-1.25-.09,0,0,0,.07-.07.12A5.65,5.65,0,0,0,64,133a20.63,20.63,0,0,0-.84,4.86,30.89,30.89,0,0,0,.3,7.68,9.76,9.76,0,0,0,.84,3c.43,0,.84-.1,1.25-.1.14,0,.29.15.43.23-.12.12-.21.3-.35.36a4.38,4.38,0,0,1-.81.19l.47.53.46-.13-.1-.28c.11,0,.2.09.22.07.32-.23.47,0,.68.18a3,3,0,0,0,.7.47c.67.27,1.35.51,2,.74s1.35.4,2,.6a15.75,15.75,0,0,1-4.12-11,15.24,15.24,0,0,1,4.16-11l-1.15.27a8.34,8.34,0,0,0-3.92,1.68.39.39,0,0,1-.38,0C65.36,131.06,65.28,131.06,64.78,131.59Zm7,7.79h.1c0-.11,0-.23,0-.35.12-.74.22-1.48.36-2.21a.84.84,0,0,1,.91-.68c.61,0,1.23,0,1.86,0l.2-.49v2.56c0,1.28,0,2.57,0,3.85,0,1,.09,2,.13,3,0,0-.06.09-.11.18l-.18-.44c-.73-.06-1.4-.09-2.07-.16a.88.88,0,0,1-.81-.78c-.11-.53-.18-1.07-.25-1.6a6.09,6.09,0,0,1,0-.74h-.12c0,.48,0,.95,0,1.42,0,.2,0,.48-.37.46-.05,0-.17.19-.16.3a1.56,1.56,0,0,0,.12.56,13.8,13.8,0,0,0,2.52,4.26c.17.18.31.39.61.3a.34.34,0,0,1,.25.13,6.4,6.4,0,0,0,1.9,1.25c0-.34.07-.62.08-.9a1,1,0,0,0,0-.54c-.09-.13-.31-.16-.48-.23l.65-.31v-1.34c0-2.51,0-5,0-7.52,0-2.18.05-4.36.05-6.54,0-.69-.11-1.38-.17-2.07l-.14-.09c-.61.42-1.21.85-1.82,1.26a.36.36,0,0,1-.25.08c-.25-.06-.38.08-.52.24a10.09,10.09,0,0,0-2.73,4.85c-.06.22,0,.33.21.39a.47.47,0,0,1,.38.59C71.77,138.52,71.78,139,71.75,139.38Zm35.74-8.93-.34.05c-.86.12-1.71.26-2.57.36s-1.68.14-2.52.21c-.1,0-.26.07-.28.14a4.92,4.92,0,0,0-.26,1.17c0,1.72,0,3.45,0,5.17v1.74a6.5,6.5,0,0,0,.95.12c1.58,0,3.16,0,4.75-.09h.28Zm.05,11.11h-.44c-1.58,0-3.17-.08-4.75-.1a5.87,5.87,0,0,0-.85.15c0,1.38,0,2.71,0,4,0,.19,0,.32.23.42a2,2,0,0,1,.32,3.47,1.2,1.2,0,0,0-.22.23,1.39,1.39,0,0,0,.33.1,19.73,19.73,0,0,1,4.06.37c.41.08.82.12,1.18.17ZM77.21,129.82l-.07.06a2.36,2.36,0,0,1,.26.59,1,1,0,0,0,.95.86,4.13,4.13,0,0,0,.93.08c1.23,0,2.46-.09,3.69-.18s2.62-.23,3.94-.35l0-.11a2.25,2.25,0,0,0-.36-.06l-7.55.22c-.09,0-.26-.1-.26-.15a.41.41,0,0,1,.16-.3,1.68,1.68,0,0,1,.63-.17c1.58-.09,3.16-.17,4.74-.23.81,0,1.63,0,2.34,0l.8-.72c-.37,0-.64.08-.91.08q-3.63,0-7.25,0a.91.91,0,0,1-.63-.36c-.07-.1.08-.42.21-.56.33-.36.72-.67,1.08-1a1.08,1.08,0,0,0-1-.27,1.41,1.41,0,0,1-.61,0c-.14,0-.26-.17-.39-.26.09-.11.16-.26.27-.32a3.45,3.45,0,0,1,.57-.18,2.82,2.82,0,0,0-.26-.55c-.25-.33-.11-.54.15-.75s.38-.34.62-.56h-.58c-1.71,0-3.42.13-5.13.07-1.5,0-2.73.65-4.09,1.16.33.23.26.39,0,.48a2.25,2.25,0,0,1-.76.16,1.16,1.16,0,0,0-1.27.91,4.94,4.94,0,0,1-.41.79,4.58,4.58,0,0,0,.88-.27,9,9,0,0,1,6.78-.25,5.72,5.72,0,0,1,3,2.31Zm.17,21.34c.11.44-.3.55-.58.76a8.18,8.18,0,0,1-3.71,1.7,6.35,6.35,0,0,1-2.77-.14c-.87-.26-1.78-.44-2.67-.66a3.69,3.69,0,0,1-.56-.19l-.08.08c.3.45.58.92.91,1.34a1.06,1.06,0,0,0,.56.24c.3.07.62.07.92.15s.45.22.25.52c.79.35,1.54.7,2.3,1a1.57,1.57,0,0,0,.53.11l6.3.16h.44c-.26-.3-.63-.54-.71-.86s.13-.71.22-1.07a5.81,5.81,0,0,1-.61-.22.34.34,0,0,1-.15-.27.32.32,0,0,1,.22-.22,3.22,3.22,0,0,1,.93,0,.67.67,0,0,0,.7-.19c-.34-.41-.67-.8-1-1.22-.09-.12-.18-.37-.12-.46a.78.78,0,0,1,.48-.31,9.47,9.47,0,0,1,1.19,0l6.15.07h.84c-.12-.41-.81-.21-.65-.71H83.24c-.58,0-1.16,0-1.75-.07s-1.14-.07-1.7-.15-1.12-.21-1.67-.31v-.13c.76-.05,1.51-.13,2.27-.15a36,36,0,0,1,6.14.28c.26,0,.45,0,.37-.29l-9.17-.56c-.18.53-.36,1-.51,1.5C77.21,151,77.33,151.07,77.38,151.16ZM120.5,128.7l0,.12c.61-.08.86.32,1.07.74a21.37,21.37,0,0,1,1,2.1A25.76,25.76,0,0,1,123.61,146a12.82,12.82,0,0,1-2.18,5.19c-.23.31-.48.6-.75.93a1.27,1.27,0,0,0,1.15-.12c.71-.62,1.38-1.29,2.06-1.94a1.93,1.93,0,0,0,.41-.54c.36-.78.69-1.57,1-2.36a1,1,0,0,0,.13-.47c-.09-1.38-.19-2.76-.3-4.13s-.21-2.72-.35-4.07a23.46,23.46,0,0,0-1.26-6.54c-.37-.9-.71-1.81-1.08-2.71-.08-.18-.27-.41-.43-.44C121.53,128.74,121,128.74,120.5,128.7Zm22.19,10.5.1,0-.4-3.7-.52.25c.16-.24.44-.47.41-.66a5.47,5.47,0,0,0-.49-2.28c-.33-.52-.57-1.11-.93-1.61-.84-1.16-1.73-2.29-2.61-3.45l.27-.31c-.21-.07-.39-.1-.55-.17a1.74,1.74,0,0,1-.45-.29,1,1,0,0,0-.94-.3,3,3,0,0,1-1.07-.07c-.37-.09-.44-.31-.31-.7l-1.39-.51a4.54,4.54,0,0,1,.62.72c.27.46.49,1,.74,1.44a.3.3,0,0,0,.17.14,4.56,4.56,0,0,1,2.16,1.67,28.31,28.31,0,0,1,2.51,3.29c-.68.41-1.28,0-1.95-.08l.14.23c.67,1.09,1.33,2.18,2,3.26a.5.5,0,0,0,.25.2,2.84,2.84,0,0,1,1.86,1.82C142.42,138.46,142.56,138.83,142.69,139.2ZM140,148.35l-.67.86c-.46.6-.9,1.21-1.38,1.79a23,23,0,0,1-1.6,1.68,25.76,25.76,0,0,0-1.83,1.94c-.23.34-.49.66-.73,1l0,0,1.47-.66c-.23-.36-.19-.55.16-.65a9.19,9.19,0,0,1,1.07-.15,5.09,5.09,0,0,0,.95-.24,6.19,6.19,0,0,0,.78-.45,4.71,4.71,0,0,1,.37-.78c1-1.48,2.07-2.95,3.1-4.42a1.19,1.19,0,0,0,.18-.42c.19-1,.34-2.07.55-3.1a10,10,0,0,0,.22-3.2,5,5,0,0,1-.13.5,4.9,4.9,0,0,1-.53,1.4,3.15,3.15,0,0,1-1.54,1.13.64.64,0,0,0-.31.3c-.43.74-.84,1.5-1.28,2.22-.25.42-.57.79-.87,1.21C138.69,148.34,139.29,147.75,140,148.35Zm-17.29,5.18c0,.45-.07.54-.53.55h-.77c.14.52,0,.67-.49.7s-1,.07-1.44.08-1.08,0-1.69,0a10.29,10.29,0,0,1,.54,1,.41.41,0,0,0,.44.28c1.15,0,2.3,0,3.45,0l4.35.05c.33,0,.65,0,1,0l1.65-.06c.65,0,1.29,0,1.94,0a4,4,0,0,0,2.1-1,2.1,2.1,0,0,0,.87-1.31c-.81.09-1.62.18-2.42.29-1.21.17-2.4.37-3.6.52-1,.13-2,.21-3.06.29-.12,0-.26-.17-.39-.25.1-.12.17-.29.29-.34a5.18,5.18,0,0,1,.79-.17l-1.58-.79a.24.24,0,0,0-.14,0Zm1.72-27.11v-.1a2.67,2.67,0,0,1,.67-.14c.87,0,1.74,0,2.6.13a16.4,16.4,0,0,0,1.68.29,14.08,14.08,0,0,1,3,.33l1.73.39a2.19,2.19,0,0,0-1-1.48,1.32,1.32,0,0,1-.37-.29,2,2,0,0,0-1.3-.67,6,6,0,0,0-2.46,0,3.79,3.79,0,0,1-.89,0c-.45,0-.9-.08-1.35-.08-1.41,0-2.82,0-4.23,0s-2.56,0-3.84,0a.39.39,0,0,0-.28.09c-.22.35-.42.71-.58,1l4,.26-.39.62c1.2,0,1.3.07,1.3.59l1.08.29c.07,0,.17.06.22,0l1.69-.87Zm-51.38,5.66a1.27,1.27,0,0,0-1.53.17,7.7,7.7,0,0,0-1.12,1.42A10.82,10.82,0,0,0,69.18,137a3.21,3.21,0,0,0,0,1.51,6.61,6.61,0,0,1,0,3.53,3.44,3.44,0,0,0-.08,1.68A10.45,10.45,0,0,0,71,148.14a2.91,2.91,0,0,0,.67.64,1,1,0,0,0,1.32-.06,12.4,12.4,0,0,1-2.85-8.31A11.81,11.81,0,0,1,73.06,132.08Zm24.15-7.38H85.87c.08.49-.19.63-.55.67s-.45,0-.66,0a1.38,1.38,0,0,0-.42.21c-.15.11-.29.32-.45.33-.93.07-1.86.12-2.79.14-.37,0-.46-.24-.28-.53l-.43-.58c-.27.16-.56.32-.84.51s-.28.41,0,.59c.44.33.91.63,1.37.93,0,0,.12,0,.18,0a13.2,13.2,0,0,1,1.37-.26c2.05-.18,4.1-.36,6.16-.49,2.48-.15,5-.26,7.45-.36.84,0,1,.13,1.15-.85A1.34,1.34,0,0,1,97.21,124.7ZM96.84,155a.32.32,0,0,0-.14,0,52.93,52.93,0,0,1-7.34-.26c-1.92-.13-3.83-.3-5.74-.47a19,19,0,0,1-2.39-.28,1.67,1.67,0,0,0-1.84,1,.52.52,0,0,0,.08.45,7.52,7.52,0,0,0,.86.49c.15-.25.38-.47.33-.6-.16-.45.16-.45.39-.45.76,0,1.53,0,2.29,0a1.29,1.29,0,0,1,.77.22,1.61,1.61,0,0,0,1,.38c.36.05.85,0,.81.61a85,85,0,0,1,11.29.21Zm1-2.91c.32.58.61,1.1.88,1.62a.44.44,0,0,0,.45.27l8.06.06h.15l0-.86c-1.23-.07-1.35-.15-1.21-.71A42.09,42.09,0,0,0,97.79,152.12Zm8.39-23.63c-.05-.17-.19-.39-.13-.52s.32-.19.49-.22a6.25,6.25,0,0,1,.75,0l.08-1h-.43l-7.9.15a.36.36,0,0,0-.26.09c-.34.56-.67,1.12-1,1.7A46,46,0,0,0,106.18,128.49Zm4.41,7.11h0c0,.12,0,.25,0,.37.07,1,.15,2,.21,3,0,.2,0,.38.24.46.09,0,.16.25.16.39,0,1.05,0,2.1,0,3.15,0,.24-.06.42-.34.48a.29.29,0,0,0-.17.2l-.24,2.21c.18-.46.35-.93.54-1.37a.53.53,0,0,1,.28-.27,2.13,2.13,0,0,0,1.2-1.06,5.76,5.76,0,0,0,0-5.44,2.4,2.4,0,0,0-1-1,1.33,1.33,0,0,1-.7-.76C110.71,135.88,110.65,135.74,110.59,135.6ZM84.64,152.09a1,1,0,0,0,.72.89,6.41,6.41,0,0,0,2,.4c.64,0,1.27.18,1.92.21,1.56.08,3.13.11,4.7.17.29,0,.59.05.91.08l-.5-1.61Zm.07-23.52,9.66.19.5-1.69c-.59,0-1.11,0-1.63,0q-3.57.24-7.13.51C85.44,127.63,84.73,127.68,84.71,128.57Zm13-2.71a94.92,94.92,0,0,1,15.46.07,4.49,4.49,0,0,1-.41-.82c-.08-.3-.2-.37-.48-.34-.52,0-1,.08-1.56.08l-6.84-.07c-.13,0-.29,0-.37,0-.48.38-.51.39-1,.11a2.15,2.15,0,0,1-.5.29,3.9,3.9,0,0,1-2.22,0,7,7,0,0,0-1-.15c-.22,0-.43,0-.72,0Zm33.42,26.6c.06.15.09.26.13.36.21.51.21.49.73.37a21.11,21.11,0,0,1,2.24-.44,4.13,4.13,0,0,0,3.12-2.36c-.77.22-1.53.41-2.28.64-.36.12-.54.05-.51-.37l-1.56.44c.16.21.44.43.41.59s-.33.35-.54.48a1.31,1.31,0,0,1-.49.12ZM131,128.4c.73.12,1.38.22,2,.36a.52.52,0,0,1,.36.33c0,.16-.15.33-.25.48s-.09.06-.18.12l1.35.43c0-.08,0-.18,0-.18,1.16-.26,2.15.34,3.31.69-.55-.63-1-1.2-1.52-1.71a2.33,2.33,0,0,0-.94-.51c-.5-.16-1-.22-1.54-.35s-1.15-.31-1.73-.44a.51.51,0,0,0-.44.08A3.49,3.49,0,0,0,131,128.4Zm8.93,8.56c0,.29,0,.54,0,.8,0,1,.07,2,.07,3.07,0,.87-.05,1.73-.09,2.6,0,.54,0,.58.5.35a6.24,6.24,0,0,0,.84-.47,1.51,1.51,0,0,0,.54-1.65c-.1.11-.19.22-.29.31a.51.51,0,0,1-.77,0,2,2,0,0,1,0-3c.29-.3.54-.27.84,0l.32.29A2.27,2.27,0,0,0,139.93,137Zm-14.11,5h.1c0-.88.13-1.76.09-2.64s-.2-1.85-.32-2.78a17.13,17.13,0,0,1-.16-3.92.66.66,0,0,0-.13-.36c-.42-.66-.86-1.29-1.25-2a4.6,4.6,0,0,1-.31-.95l-.2.11,0-.4-.55-.12C125.21,133,125.67,137.44,125.82,141.92Zm4-4.45H128.3v2.39h1.88Zm0,5.94.32-2.38h-1.73l-.13,2.38Zm-55.13,7c-.33-.29-.66-.56-1-.86a.34.34,0,0,0-.52-.06,1.43,1.43,0,0,1-.79.24,8.4,8.4,0,0,1-1.23-.26c.39.54.81,1.11,1.22,1.7a.39.39,0,0,0,.59.13Zm0-19.93c-.68-.29-1.3-.56-1.93-.81a.41.41,0,0,0-.35.13c-.19.23-.34.5-.52.75s-.51.65-.8,1a4.9,4.9,0,0,1,1.25-.34,4.59,4.59,0,0,1,1.19.32Zm14.18-.94.72.48-.2.17a11,11,0,0,1,1.38-.23c1.71-.07,3.42-.13,5.13-.16,1.27,0,2.54,0,3.81.06.21,0,.39,0,.36-.32Zm-14.6,9.69.35-2.33H73.43a.55.55,0,0,0-.57.44c-.11.48-.16,1-.24,1.5A2,2,0,0,1,74.29,139.19Zm53,7.72h1.12c.05,0,.13-.09.16-.15.31-.76.63-1.52,1-2.32l-1.58.09Zm-54.61-4.78c0,.54.1,1,.11,1.52,0,.29.14.38.41.36a7.85,7.85,0,0,1,1,0c.28,0,.38-.12.36-.36-.06-.65-.13-1.3-.21-2A1.9,1.9,0,0,1,72.72,142.13Zm55.3-5.77,1.48.07-.93-2.4-1.37-.11Zm-3.15-6.7-.07.07a6.11,6.11,0,0,0,.43,1c.41.62.86,1.21,1.3,1.82.06.07.14.17.22.18.36.05.73.07,1.16.11A9.15,9.15,0,0,0,124.87,129.66ZM87,134a1.08,1.08,0,0,0,1-1,1,1,0,0,0-1-.94,1.09,1.09,0,0,0-1.06,1A1,1,0,0,0,87,134Zm13,13.88a1,1,0,0,0,1.94,0,.91.91,0,0,0-1-1A.93.93,0,0,0,100,147.86ZM88.78,151.3c0,.25.21.15.36.15l7.2-.11c1.24,0,2.49,0,3.84,0-.15-.08-.24-.18-.34-.18-.61,0-1.22,0-1.83,0l-8.44-.32a.55.55,0,0,0-.3.09C89.12,151,89,151.15,88.78,151.3Zm36-.23.11.08a9.81,9.81,0,0,0,3.08-3.19,4.58,4.58,0,0,1-.92.15c-.33,0-.46.18-.61.43a5.64,5.64,0,0,1-.56.88A11.84,11.84,0,0,0,124.74,151.07Zm-15-24.34.08,1.28c.87-.09,1.71-.19,2.55-.26.29,0,.42-.19.55-.54Zm0,27.31,3.2-.28c-.15-.41-.31-.65-.71-.63a2.94,2.94,0,0,1-.66,0l-1.83-.27Zm20.53-26.54c-1.23,0-2.42-.66-3.65,0,1,.25,2,.44,2.94.62C130.07,128.15,130.33,128,130.36,127.5Zm-3.65,25.89v.13c1.22.42,2.4-.1,3.65-.14l-.19-.71Zm-3.65-6.63c.9-2,1-8.37.27-11.06,0,.34.07.68.11,1a21.41,21.41,0,0,1,.27,4.38c-.13,1.21-.25,2.42-.38,3.63C123.26,145.37,123.16,146,123.06,146.76Zm-27.8,9.74a78.16,78.16,0,0,0-10.54,0ZM117.4,156a1.13,1.13,0,0,1,0-.12c-.3-.67-.74-1.08-1.54-.85-.08,0-.2,0-.24.09-.18.3-.34.61-.49.88ZM66.52,129.56a35.36,35.36,0,0,1,5-1.09C69.62,127.94,68.06,128.72,66.52,129.56Zm58,4.07,1,9.23A43,43,0,0,0,124.53,133.63Zm-9.13-8.71c0,.63.23.92.83.94.19,0,.46.11.56,0a8,8,0,0,0,.71-1ZM66.14,151c1.19,1.06,3.7,1.82,4.61,1.49Zm16-22.38h1.35l.37-1.12c-.74-.22-1.14.54-1.82.51ZM82,152.8c.3.09.66.1.81.28s.62.25,1,.34l-.47-1.3c-.32,0-.63.12-1,.15S82,152.45,82,152.8Zm16.65-1.88v-.16l-8.16-.24v.14Zm-4.76-26.5v-.08H85.42v.08Zm15.72,11.11h-.09c0,1.13,0,2.25,0,3.38,0,.51,0,.52.56.45-.12-1.11-.24-2.23-.37-3.35A4.1,4.1,0,0,0,109.65,135.53ZM66.9,154a13.57,13.57,0,0,0-1.82-3.1c.35.92.72,1.82,1.08,2.74C66.32,154.08,66.41,154.14,66.9,154Zm60.26-17.73-.84-2.7-.12,0,.25,2.67ZM95.1,128.72h.55l.75-1.82h-.66ZM96.41,154c-.21-.5-.42-1-.59-1.45a.47.47,0,0,0-.63-.32c.13.42.27.82.38,1.23C95.75,154.07,95.62,154,96.41,154Zm30.67-9.41c-.29.06-.65-.18-.7.22-.09.7-.11,1.41-.15,2.11l.2,0ZM73.37,128v0l1,.89c.66.64,1,.73,1.74.4Zm37.33-3.43v-.1h-6.22v.1Zm-43.76,2.33-.09-.15c-.21.1-.54.14-.61.3-.35.78-.63,1.59-1,2.49C66.1,128.73,66.27,127.65,66.94,126.88ZM98,130.18v-.08H91.14v.08ZM73.23,152.9l0,0,2.8-1.38a1,1,0,0,0-1.22.12C74.34,152.13,73.77,152.5,73.23,152.9Zm23.26-24.2c.33.09.47,0,.57-.25a6.76,6.76,0,0,1,.47-.93c.14-.24.31-.45.47-.68l-.08-.12c-.2.08-.5.11-.59.26C97,127.53,96.77,128.11,96.49,128.7Zm8.24,27.72v.1l6.39-.14v-.17ZM74,140.1a1.08,1.08,0,0,0-1-.66.8.8,0,0,0-.67.66Zm35.69,5a6.3,6.3,0,0,0,.1-3.57h-.1ZM80,130.49l0,0h5.81v-.15Zm5.56,20v-.1l-1.67-.1c-.56,0-1.12-.05-1.67-.05H80.54v.11ZM74,140.83H72.24a.86.86,0,0,0,1,.57A.91.91,0,0,0,74,140.83Zm22.5,11.31c.44.66.4,1.63,1.39,1.85l-1-1.85Zm35.83-22.34-.06.13,4.19,1.43.05-.14Zm-6.43-1.08,3.18,2.75A9.75,9.75,0,0,0,125.91,128.72Zm10.94,20.94,0-.14-4.49,1.33,0,.11Zm-19.08-20.58a17.74,17.74,0,0,0-4.62.52l2.34-.24Zm15.49-4.39,0,.15,3,1.11.05-.14ZM68.5,139.15v2.46A3.84,3.84,0,0,0,68.5,139.15Zm20.72,10.79-.08.11c.11.09.21.25.32.26.79,0,1.58,0,2.37,0v-.11ZM76.31,124.28v0h3.44v0Zm16,6.31a7.22,7.22,0,0,0-3.17.23ZM127,151.32l-2.14,1.18.07.12A5,5,0,0,0,127,151.32ZM137.38,131l.05-.14-2.07-.7-.05.12Zm-24.3-7.81c.14.9.36,1.25.77,1.18C113.5,124.09,113.54,123.55,113.08,123.23Zm-47.63,5-.1,0-.94,2,.14.07ZM110,149.4l.11,0,.48-2.49-.1,0Zm-41.67-4.15-.11,0,1,2.6.09,0Zm-2.94,7.45.1,0-.91-2-.13.06Zm59.29-3.23.12.06.78-1.83-.12,0Zm2.85-10.7c.09-.33-.07-.32-.28-.33s-.51,0-.52.33Zm-12-14.24v.07h2.06v-.07Zm-1.11.57c-.32-.5-.4-.54-.78-.42C113.73,125.1,113.73,125.1,114.37,125.1ZM123,151.88c.7,0,.77,0,.92-.71Zm-7.47,4.41v.05h2v-.05Zm-5.82-24.72-.17,0,.47,1.63.1,0Zm-41.35,3.49.1.05.79-2-.09,0Zm59,2.48c0-.31-.13-.32-.32-.29s-.48-.11-.44.29ZM112,126.62c.74.39,1.07.43,1.23.16Zm-1.12,14.14h0v1.46h0Zm9.55-16.29v-.17l-1.84.14v0Zm-37.72,1.26v-.11l-1.42.1h1.42Zm-13.52-.17,0,.1L70.9,125l0-.1Zm74.46,15.73h-.05v2.4h.05Zm-22.06-13.75,0,.09,1.69.27,0-.1Zm-2.71,28.89v0l1.53.08v-.12ZM137,150.17l0-.09-1.72.47,0,.09Zm-10.32-7.82c.71,0,.71,0,.71-.3C127.16,142.25,126.8,141.89,126.65,142.35ZM117,151.71v.08l1.92.11v-.07ZM70.86,156l0-.11-1.42-.54,0,.09Zm-3.28-17.07.08,0,.28-1.89h-.09Zm6.34,1.6v-.06H72.29v.06ZM71,139h-.06v2.15H71Zm10.61,16.16v.06h1.36v-.06Zm20.8-25.29,0,.07,1.77-.18v-.07Zm24.38,11.31.86,0C127.19,140.85,126.89,140.87,126.74,141.16Zm11.49-10.25.08-.07-.82-1-.09.07Zm4.4,15.07-.1,0-.28,1.52.08,0Zm-57.5,7.25,0,.11,1.31.37,0-.07Zm-14.59-13h-.07l.11,1.7h.06Zm56.24-.21.75-.12v-.11C127,139.68,126.94,139.68,126.78,140ZM91.12,129.08v0h1.72v0Zm35.48,14.31,0,.14c.46.1.53.08.62-.21ZM110.19,131c-.34.27-.34.37-.07.78Z"/></g><g id="Layer_5" data-name="Layer 5"><text class="cls-15" transform="translate(131 73.25)"><tspan class="cls-16">A</tspan><tspan class="cls-17" x="6.1" y="0">v</tspan><tspan x="11.18" y="0">oidance di</tspan><tspan class="cls-18" x="57.18" y="0">r</tspan><tspan class="cls-19" x="61.36" y="0">ection</tspan></text><text class="cls-15" transform="translate(166.33 94.04)">Left</text><text class="cls-15" transform="translate(159.13 204.07)">Ri<tspan class="cls-20" x="9.42" y="0">g</tspan><tspan x="14.52" y="0">ht</tspan></text><text class="cls-15" transform="translate(243.53 177.52)">Distance delta</text><text class="cls-15" transform="translate(244.81 123.23)">La<tspan class="cls-21" x="10.74" y="0">t</tspan><tspan x="14.19" y="0">e</tspan><tspan class="cls-22" x="19.3" y="0">r</tspan><tspan x="23.46" y="0">al of</tspan><tspan class="cls-23" x="42.46" y="0">f</tspan><tspan x="45.55" y="0">set</tspan></text><text class="cls-15" transform="translate(470.47 47.66)"><tspan class="cls-16">A</tspan><tspan class="cls-17" x="6.1" y="0">v</tspan><tspan x="11.18" y="0">oid </tspan><tspan x="-0.27" y="12.57">length</tspan></text><text class="cls-15" transform="translate(360.64 195)">De<tspan class="cls-21" x="12.04" y="0">t</tspan><tspan x="15.5" y="0">our length</tspan></text><text class="cls-15" transform="translate(545.38 195)"><tspan class="cls-24">R</tspan><tspan x="6.32" y="0">eturn length</tspan></text></g></svg>
