<svg xmlns="http://www.w3.org/2000/svg" viewBox="0 0 580 340"><defs><style>.a{fill:#1a2b3c;}.b{fill:#32aec5;}</style></defs><path class="a" d="M175.4,218.22a1.25,1.25,0,0,1-1.25-1.25V176.5a1.25,1.25,0,0,1,2.5,0V217A1.25,1.25,0,0,1,175.4,218.22Z"/><path class="a" d="M171,216.75a4.42,4.42,0,1,0,4.42-4.42A4.42,4.42,0,0,0,171,216.75Z"/><path class="a" d="M313.29,218.22A1.25,1.25,0,0,1,312,217V176.5a1.25,1.25,0,0,1,2.5,0V217A1.25,1.25,0,0,1,313.29,218.22Z"/><path class="a" d="M308.87,216.75a4.42,4.42,0,1,0,4.42-4.42A4.42,4.42,0,0,0,308.87,216.75Z"/><path class="a" d="M453.74,219.11a1.25,1.25,0,0,1-1.25-1.25V177.39a1.25,1.25,0,0,1,2.5,0v40.47A1.25,1.25,0,0,1,453.74,219.11Z"/><path class="a" d="M449.32,217.64a4.42,4.42,0,1,0,4.42-4.42A4.42,4.42,0,0,0,449.32,217.64Z"/><path class="b" d="M199.67,193.31H93a13.27,13.27,0,0,1-13.25-13.25V77A13.26,13.26,0,0,1,93,63.7H199.67A13.26,13.26,0,0,1,212.92,77V180.06A13.27,13.27,0,0,1,199.67,193.31ZM93,66.2A10.76,10.76,0,0,0,82.26,77V180.06A10.77,10.77,0,0,0,93,190.81H199.67a10.77,10.77,0,0,0,10.75-10.75V77A10.76,10.76,0,0,0,199.67,66.2Z"/><path class="b" d="M125.19,80.12h-2.13a1.77,1.77,0,0,0-.17-.59,1.43,1.43,0,0,0-.35-.45,1.61,1.61,0,0,0-.51-.29,2,2,0,0,0-.66-.1,1.86,1.86,0,0,0-1.09.31,1.93,1.93,0,0,0-.7.9,3.57,3.57,0,0,0-.25,1.42,3.68,3.68,0,0,0,.25,1.46,2,2,0,0,0,.7.88,1.92,1.92,0,0,0,1.08.3,2.2,2.2,0,0,0,.64-.09,1.42,1.42,0,0,0,.5-.27,1.22,1.22,0,0,0,.36-.42,1.44,1.44,0,0,0,.2-.56h2.13a3,3,0,0,1-.33,1.14,3.61,3.61,0,0,1-.77,1,3.42,3.42,0,0,1-1.18.73,4.34,4.34,0,0,1-1.59.28,4.25,4.25,0,0,1-2.12-.53,3.62,3.62,0,0,1-1.48-1.52,5.09,5.09,0,0,1-.54-2.44,5,5,0,0,1,.55-2.44,3.74,3.74,0,0,1,1.48-1.52,4.26,4.26,0,0,1,2.11-.52,4.6,4.6,0,0,1,1.46.22,3.5,3.5,0,0,1,1.19.64,3.36,3.36,0,0,1,.83,1A3.76,3.76,0,0,1,125.19,80.12Z"/><path class="b" d="M128.07,85.69H125.8L128.74,77h2.81l2.95,8.73h-2.27l-2-6.53h-.07Zm-.31-3.44h4.74v1.6h-4.74Z"/><path class="b" d="M142.87,77v8.73h-1.79l-3.48-5h0v5h-2.11V77h1.81l3.44,5h.07V77Z"/><path class="b" d="M148.85,82v3.74h-2.08V79.14h2v1.2h.07a1.87,1.87,0,0,1,.74-.94,2.23,2.23,0,0,1,1.25-.34,2.32,2.32,0,0,1,1.2.3,2.11,2.11,0,0,1,.79.86,2.67,2.67,0,0,1,.28,1.29v4.18H151V81.92a1.26,1.26,0,0,0-.27-.85,1,1,0,0,0-.78-.31,1.11,1.11,0,0,0-.58.15,1,1,0,0,0-.38.4A1.55,1.55,0,0,0,148.85,82Z"/><path class="b" d="M157.43,85.81a3.56,3.56,0,0,1-1.77-.42,2.88,2.88,0,0,1-1.13-1.19,4.12,4.12,0,0,1,0-3.54,2.86,2.86,0,0,1,1.13-1.18,4,4,0,0,1,3.55,0,2.86,2.86,0,0,1,1.13,1.18,4.12,4.12,0,0,1,0,3.54,2.88,2.88,0,0,1-1.13,1.19A3.58,3.58,0,0,1,157.43,85.81Zm0-1.57a.92.92,0,0,0,.63-.23,1.43,1.43,0,0,0,.4-.64,3.29,3.29,0,0,0,0-1.9,1.33,1.33,0,0,0-.4-.64.88.88,0,0,0-.63-.23,1,1,0,0,0-.66.23,1.41,1.41,0,0,0-.4.64,3.29,3.29,0,0,0,0,1.9,1.53,1.53,0,0,0,.4.64A1,1,0,0,0,157.45,84.24Z"/><path class="b" d="M164.2,85.78a2.39,2.39,0,0,1-1.31-.38,2.52,2.52,0,0,1-.95-1.12,4.29,4.29,0,0,1-.35-1.86,4.35,4.35,0,0,1,.36-1.9,2.65,2.65,0,0,1,1-1.11,2.44,2.44,0,0,1,1.28-.35,2,2,0,0,1,.89.17,1.85,1.85,0,0,1,.6.46,2,2,0,0,1,.36.57h.05V77h2.08v8.73h-2.06V84.62H166a1.93,1.93,0,0,1-.37.57,1.82,1.82,0,0,1-.61.43A2.06,2.06,0,0,1,164.2,85.78Zm.73-1.62a1,1,0,0,0,.64-.22,1.33,1.33,0,0,0,.42-.61,2.78,2.78,0,0,0,.14-.92,2.58,2.58,0,0,0-.14-.92,1.34,1.34,0,0,0-.41-.6,1,1,0,0,0-.65-.21,1,1,0,0,0-.66.22,1.34,1.34,0,0,0-.41.6,2.76,2.76,0,0,0-.14.91,2.53,2.53,0,0,0,.15.92,1.23,1.23,0,0,0,.4.61A1,1,0,0,0,164.93,84.16Z"/><path class="b" d="M172.55,85.81a3.67,3.67,0,0,1-1.77-.41,2.72,2.72,0,0,1-1.14-1.16,3.79,3.79,0,0,1-.4-1.8,3.74,3.74,0,0,1,.4-1.78,2.92,2.92,0,0,1,1.13-1.18,3.37,3.37,0,0,1,1.72-.42,3.68,3.68,0,0,1,1.27.21,2.83,2.83,0,0,1,1,.65,2.79,2.79,0,0,1,.65,1,3.93,3.93,0,0,1,.24,1.43v.52H170V81.71h3.75a1.3,1.3,0,0,0-.16-.6,1,1,0,0,0-.42-.4,1.32,1.32,0,0,0-1.24,0,1.18,1.18,0,0,0-.44.42,1.31,1.31,0,0,0-.17.6V83a1.54,1.54,0,0,0,.16.7,1.13,1.13,0,0,0,.45.47,1.36,1.36,0,0,0,.69.17,1.59,1.59,0,0,0,.5-.08,1.09,1.09,0,0,0,.39-.23.88.88,0,0,0,.24-.36l1.91,0a2.27,2.27,0,0,1-.52,1.12,2.7,2.7,0,0,1-1.05.74A4.15,4.15,0,0,1,172.55,85.81Z"/><path class="b" d="M117,137.75h-1.78a1.53,1.53,0,0,0-.14-.5,1.3,1.3,0,0,0-.72-.61,1.63,1.63,0,0,0-.55-.09,1.6,1.6,0,0,0-.91.26,1.67,1.67,0,0,0-.59.75,3.22,3.22,0,0,0-.2,1.19,3.09,3.09,0,0,0,.21,1.21,1.54,1.54,0,0,0,.58.73,1.58,1.58,0,0,0,.9.25,1.79,1.79,0,0,0,.53-.07,1.4,1.4,0,0,0,.42-.22,1.15,1.15,0,0,0,.31-.35,1.74,1.74,0,0,0,.16-.47H117a2.79,2.79,0,0,1-.28.95,3.07,3.07,0,0,1-1.63,1.47,3.64,3.64,0,0,1-1.33.22,3.56,3.56,0,0,1-1.76-.43,3.14,3.14,0,0,1-1.23-1.27,4.83,4.83,0,0,1,0-4.07,3.23,3.23,0,0,1,1.24-1.27,3.69,3.69,0,0,1,1.75-.43,4.06,4.06,0,0,1,1.23.18,3,3,0,0,1,1,.54,2.75,2.75,0,0,1,.7.85A3.47,3.47,0,0,1,117,137.75Z"/><path class="b" d="M119.34,142.38h-1.89l2.45-7.27h2.34l2.46,7.27h-1.89l-1.71-5.44H121Zm-.25-2.86h4v1.34h-4Z"/><path class="b" d="M131.67,135.11v7.27h-1.49l-2.89-4.19h-.05v4.19h-1.76v-7.27H127l2.86,4.19h.06v-4.19Z"/><path class="b" d="M137.47,142.49a2.9,2.9,0,0,1-1.48-.36,2.42,2.42,0,0,1-.94-1,3.44,3.44,0,0,1,0-2.94,2.45,2.45,0,0,1,.95-1,3,3,0,0,1,1.47-.35,3.05,3.05,0,0,1,1.32.27,2.13,2.13,0,0,1,.88.77,2.28,2.28,0,0,1,.33,1.17h-1.62a1.08,1.08,0,0,0-.28-.65.9.9,0,0,0-1.14-.07,1.07,1.07,0,0,0-.35.49,2.62,2.62,0,0,0,0,1.63,1,1,0,0,0,.35.5.88.88,0,0,0,.53.17.85.85,0,0,0,.43-.1.84.84,0,0,0,.31-.31,1.13,1.13,0,0,0,.15-.48H140a2.32,2.32,0,0,1-.33,1.17,2.15,2.15,0,0,1-.87.79A3,3,0,0,1,137.47,142.49Z"/><path class="b" d="M143.44,142.49a2.86,2.86,0,0,1-1.47-.36,2.36,2.36,0,0,1-.95-1,3.19,3.19,0,0,1-.33-1.48,3.12,3.12,0,0,1,.33-1.47,2.45,2.45,0,0,1,.95-1,3,3,0,0,1,1.47-.35,3,3,0,0,1,1.48.35,2.42,2.42,0,0,1,.94,1,3,3,0,0,1,.34,1.47,3.08,3.08,0,0,1-.34,1.48,2.34,2.34,0,0,1-.94,1A2.9,2.9,0,0,1,143.44,142.49Zm0-1.31a.76.76,0,0,0,.53-.2,1.05,1.05,0,0,0,.33-.53,2.39,2.39,0,0,0,.12-.79,2.34,2.34,0,0,0-.12-.79,1.13,1.13,0,0,0-.33-.54.8.8,0,0,0-.53-.19.83.83,0,0,0-.54.19,1.22,1.22,0,0,0-.34.54,2.34,2.34,0,0,0-.12.79,2.39,2.39,0,0,0,.12.79,1.13,1.13,0,0,0,.34.53A.78.78,0,0,0,143.45,141.18Z"/><path class="b" d="M148.82,139.27v3.11h-1.73v-5.45h1.65v1h.06a1.57,1.57,0,0,1,.62-.79,2.06,2.06,0,0,1,2,0,1.81,1.81,0,0,1,.66.71,2.32,2.32,0,0,1,.23,1.08v3.47h-1.74v-3.13a1,1,0,0,0-.22-.71.84.84,0,0,0-.65-.26,1,1,0,0,0-.48.12.75.75,0,0,0-.32.34A1.22,1.22,0,0,0,148.82,139.27Z"/><path class="b" d="M156.51,136.93v1.28h-3.44v-1.28Zm-2.72-1.31h1.74v5a.53.53,0,0,0,.05.26.24.24,0,0,0,.15.13.55.55,0,0,0,.24,0h.21l.17,0,.26,1.26-.35.08a2.63,2.63,0,0,1-.54.07,2.6,2.6,0,0,1-1.05-.14,1.37,1.37,0,0,1-.66-.54,1.63,1.63,0,0,1-.22-.92Z"/><path class="b" d="M157.4,142.38v-5.45h1.68v1h.06a1.43,1.43,0,0,1,.49-.8,1.19,1.19,0,0,1,.78-.27l.25,0,.24,0v1.51a1.68,1.68,0,0,0-.33-.07l-.35,0a1.16,1.16,0,0,0-.56.14,1.09,1.09,0,0,0-.39.38,1.15,1.15,0,0,0-.14.57v3Z"/><path class="b" d="M163.87,142.49a2.86,2.86,0,0,1-1.47-.36,2.3,2.3,0,0,1-1-1,3.2,3.2,0,0,1-.34-1.48,3.13,3.13,0,0,1,.34-1.47,2.38,2.38,0,0,1,1-1,3,3,0,0,1,1.47-.35,3,3,0,0,1,1.48.35,2.42,2.42,0,0,1,.94,1,3,3,0,0,1,.34,1.47,3.08,3.08,0,0,1-.34,1.48,2.34,2.34,0,0,1-.94,1A2.9,2.9,0,0,1,163.87,142.49Zm0-1.31a.76.76,0,0,0,.53-.2,1.12,1.12,0,0,0,.33-.53,2.39,2.39,0,0,0,.12-.79,2.34,2.34,0,0,0-.12-.79,1.21,1.21,0,0,0-.33-.54.8.8,0,0,0-.53-.19.83.83,0,0,0-.54.19,1.22,1.22,0,0,0-.34.54,2.34,2.34,0,0,0-.12.79,2.39,2.39,0,0,0,.12.79,1.13,1.13,0,0,0,.34.53A.78.78,0,0,0,163.88,141.18Z"/><path class="b" d="M169.25,135.11v7.27h-1.73v-7.27Z"/><path class="b" d="M172.09,135.11v7.27h-1.74v-7.27Z"/><path class="b" d="M175.74,142.49a3.07,3.07,0,0,1-1.47-.34,2.36,2.36,0,0,1-1-1,3.19,3.19,0,0,1-.33-1.5,3,3,0,0,1,.34-1.48,2.42,2.42,0,0,1,.94-1,2.83,2.83,0,0,1,1.43-.35,3,3,0,0,1,1.06.18,2.25,2.25,0,0,1,.84.54,2.54,2.54,0,0,1,.55.87,3.38,3.38,0,0,1,.19,1.19v.44h-4.74v-1h3.12a.93.93,0,0,0-.13-.5,1,1,0,0,0-.35-.34,1,1,0,0,0-.51-.12,1,1,0,0,0-.52.13,1,1,0,0,0-.36.35,1.08,1.08,0,0,0-.15.5v1a1.25,1.25,0,0,0,.14.59.9.9,0,0,0,.37.38,1,1,0,0,0,.57.14,1.33,1.33,0,0,0,.42-.06.89.89,0,0,0,.33-.19.79.79,0,0,0,.2-.3l1.59,0a1.9,1.9,0,0,1-.43.93,2.26,2.26,0,0,1-.88.62A3.46,3.46,0,0,1,175.74,142.49Z"/><path class="b" d="M179.22,142.38v-5.45h1.69v1H181a1.47,1.47,0,0,1,.48-.8,1.24,1.24,0,0,1,.79-.27l.25,0,.23,0v1.51a1.73,1.73,0,0,0-.32-.07l-.36,0a1.12,1.12,0,0,0-.55.14,1,1,0,0,0-.39.38,1,1,0,0,0-.14.57v3Z"/><path class="b" d="M112.81,166.59H111a1.87,1.87,0,0,0-.15-.49,1.2,1.2,0,0,0-.29-.38,1.37,1.37,0,0,0-.43-.24,1.8,1.8,0,0,0-.54-.08,1.57,1.57,0,0,0-.91.26,1.6,1.6,0,0,0-.59.75,3,3,0,0,0-.2,1.19,3.29,3.29,0,0,0,.2,1.21,1.61,1.61,0,0,0,.59.73,1.56,1.56,0,0,0,.9.25,2.19,2.19,0,0,0,.53-.07,1.4,1.4,0,0,0,.42-.22,1.4,1.4,0,0,0,.47-.83h1.77a2.64,2.64,0,0,1-.28,1,3,3,0,0,1-.63.85,2.91,2.91,0,0,1-1,.61,3.67,3.67,0,0,1-1.33.23,3.57,3.57,0,0,1-1.77-.43,3.2,3.2,0,0,1-1.23-1.27,4.78,4.78,0,0,1,0-4.07,3.16,3.16,0,0,1,1.24-1.27,3.52,3.52,0,0,1,1.75-.43,4,4,0,0,1,1.22.18,2.94,2.94,0,0,1,1,.53,2.91,2.91,0,0,1,.69.86A3.07,3.07,0,0,1,112.81,166.59Z"/><path class="b" d="M115.21,171.23h-1.89l2.45-7.27h2.34l2.46,7.27h-1.89L117,165.79h-.06Zm-.26-2.86h4v1.33h-4Z"/><path class="b" d="M127.54,164v7.27h-1.49l-2.9-4.2h0v4.2h-1.76V164h1.51l2.86,4.19h.06V164Z"/><path class="b" d="M133.87,165.78v1.28h-3.44v-1.28Zm-2.72-1.31h1.74v5.05a.47.47,0,0,0,.05.25.26.26,0,0,0,.15.14.61.61,0,0,0,.24,0,.82.82,0,0,0,.21,0l.17,0,.26,1.25-.35.09a2.63,2.63,0,0,1-.54.07,2.55,2.55,0,0,1-1-.14,1.44,1.44,0,0,1-.67-.54,1.74,1.74,0,0,1-.22-.92Z"/><path class="b" d="M134.76,171.23v-5.45h1.69v1h.05a1.43,1.43,0,0,1,.49-.8,1.21,1.21,0,0,1,.78-.27l.25,0a.85.85,0,0,1,.24.05v1.51a1.18,1.18,0,0,0-.32-.07l-.36,0a1.16,1.16,0,0,0-.56.14,1,1,0,0,0-.38.38,1,1,0,0,0-.14.57v3Z"/><path class="b" d="M140.3,171.32a2.22,2.22,0,0,1-.92-.17,1.51,1.51,0,0,1-.64-.53,1.9,1.9,0,0,1-.07-1.67,1.28,1.28,0,0,1,.44-.51,2,2,0,0,1,.64-.29,4,4,0,0,1,.79-.14l.75-.09a1.08,1.08,0,0,0,.41-.14.28.28,0,0,0,.13-.26h0a.5.5,0,0,0-.19-.43.79.79,0,0,0-.51-.15.92.92,0,0,0-.55.15.68.68,0,0,0-.27.42l-1.6-.06a1.9,1.9,0,0,1,.37-.89,2,2,0,0,1,.82-.62,3.11,3.11,0,0,1,1.25-.22,3.66,3.66,0,0,1,1,.12,2.59,2.59,0,0,1,.77.35,1.81,1.81,0,0,1,.5.57,1.65,1.65,0,0,1,.18.77v3.71h-1.63v-.76h0a1.6,1.6,0,0,1-.38.47,1.55,1.55,0,0,1-.52.29A2.5,2.5,0,0,1,140.3,171.32Zm.54-1.13a1,1,0,0,0,.5-.12.9.9,0,0,0,.36-.31.82.82,0,0,0,.14-.47v-.52l-.18.08-.23.06-.26,0-.25,0a1.83,1.83,0,0,0-.41.12.67.67,0,0,0-.27.22.54.54,0,0,0,.11.72A.81.81,0,0,0,140.84,170.19Z"/><path class="b" d="M146.36,168.12v3.11h-1.74v-5.45h1.65v1h.06A1.53,1.53,0,0,1,147,166a1.86,1.86,0,0,1,1-.28,1.9,1.9,0,0,1,1,.25,1.77,1.77,0,0,1,.66.72,2.31,2.31,0,0,1,.23,1.07v3.48h-1.73V168.1a1,1,0,0,0-.23-.71.84.84,0,0,0-.65-.26,1,1,0,0,0-.48.12.81.81,0,0,0-.32.34A1.19,1.19,0,0,0,146.36,168.12Z"/><path class="b" d="M155.72,167.44l-1.59,0a.59.59,0,0,0-.14-.3.67.67,0,0,0-.28-.21,1,1,0,0,0-.41-.07,1,1,0,0,0-.51.12.36.36,0,0,0-.21.32.35.35,0,0,0,.13.28,1.1,1.1,0,0,0,.48.19l1.05.2a2.42,2.42,0,0,1,1.22.52,1.24,1.24,0,0,1,.4.95,1.53,1.53,0,0,1-.33,1,2.18,2.18,0,0,1-.9.65,3.51,3.51,0,0,1-1.3.22,3.12,3.12,0,0,1-1.84-.48,1.76,1.76,0,0,1-.77-1.29l1.72,0a.61.61,0,0,0,.29.45,1,1,0,0,0,.61.16,1.08,1.08,0,0,0,.54-.12.39.39,0,0,0,.21-.33.33.33,0,0,0-.16-.3,1.56,1.56,0,0,0-.5-.18l-1-.18a2.2,2.2,0,0,1-1.22-.55,1.39,1.39,0,0,1-.4-1,1.47,1.47,0,0,1,.29-.93,1.9,1.9,0,0,1,.84-.6,3.55,3.55,0,0,1,1.28-.2,2.93,2.93,0,0,1,1.75.46A1.66,1.66,0,0,1,155.72,167.44Z"/><path class="b" d="M159.26,171.33a2.87,2.87,0,0,1-1.48-.35,2.45,2.45,0,0,1-.95-1,3.44,3.44,0,0,1,0-2.94,2.45,2.45,0,0,1,.95-1,2.86,2.86,0,0,1,1.47-.35,3,3,0,0,1,1.32.27,2.07,2.07,0,0,1,.88.77,2.15,2.15,0,0,1,.34,1.17h-1.62a1.12,1.12,0,0,0-.29-.66.9.9,0,0,0-1.13-.06,1,1,0,0,0-.35.49,2.62,2.62,0,0,0,0,1.63,1,1,0,0,0,.35.5.88.88,0,0,0,.53.17,1,1,0,0,0,.43-.1.81.81,0,0,0,.3-.31,1.13,1.13,0,0,0,.16-.49h1.62a2.37,2.37,0,0,1-.34,1.18,2,2,0,0,1-.87.79A3,3,0,0,1,159.26,171.33Z"/><path class="b" d="M165.23,171.33a3,3,0,0,1-1.47-.34,2.23,2.23,0,0,1-1-1,3.19,3.19,0,0,1-.33-1.5,3,3,0,0,1,.34-1.48,2.31,2.31,0,0,1,.94-1,2.73,2.73,0,0,1,1.43-.35,3,3,0,0,1,1.06.18,2.45,2.45,0,0,1,.84.53,2.51,2.51,0,0,1,.54.88,3.37,3.37,0,0,1,.2,1.19v.43h-4.74v-1h3.12a.92.92,0,0,0-.13-.49.88.88,0,0,0-.35-.34,1.07,1.07,0,0,0-.51-.12,1,1,0,0,0-.88.48,1.08,1.08,0,0,0-.15.5v1a1.31,1.31,0,0,0,.13.58,1,1,0,0,0,.38.39,1.15,1.15,0,0,0,.57.14,1.33,1.33,0,0,0,.42-.06,1.19,1.19,0,0,0,.33-.19,1,1,0,0,0,.2-.31l1.59,0a1.9,1.9,0,0,1-.43.93,2.26,2.26,0,0,1-.88.62A3.47,3.47,0,0,1,165.23,171.33Z"/><path class="b" d="M169.58,165.14a.92.92,0,0,1-.63-.24.79.79,0,0,1-.26-.59.77.77,0,0,1,.26-.58.88.88,0,0,1,.63-.25.85.85,0,0,1,.63.25.77.77,0,0,1,.26.58.79.79,0,0,1-.26.59A.88.88,0,0,1,169.58,165.14Zm-.87,6.09v-5.45h1.74v5.45Z"/><path class="b" d="M176.84,165.78,175,171.23h-2l-1.87-5.45h1.83l1,3.75H174l1-3.75Z"/><path class="b" d="M179.88,171.33a3,3,0,0,1-1.48-.34,2.26,2.26,0,0,1-1-1,3.19,3.19,0,0,1-.33-1.5,3.14,3.14,0,0,1,.33-1.48,2.37,2.37,0,0,1,.94-1,2.76,2.76,0,0,1,1.43-.35,3,3,0,0,1,1.07.18,2.32,2.32,0,0,1,.83.53,2.4,2.4,0,0,1,.55.88,3.38,3.38,0,0,1,.19,1.19v.43h-4.74v-1h3.13a.93.93,0,0,0-.48-.83,1.07,1.07,0,0,0-.51-.12,1,1,0,0,0-.52.13,1,1,0,0,0-.51.85v1a1.18,1.18,0,0,0,.13.58.93.93,0,0,0,.37.39,1.16,1.16,0,0,0,.58.14,1.42,1.42,0,0,0,.42-.06,1.13,1.13,0,0,0,.32-.19.72.72,0,0,0,.2-.31l1.6,0a1.92,1.92,0,0,1-.44.93,2.19,2.19,0,0,1-.88.62A3.45,3.45,0,0,1,179.88,171.33Z"/><path class="b" d="M183.36,171.23v-5.45H185v1h.06a1.43,1.43,0,0,1,.49-.8,1.19,1.19,0,0,1,.78-.27l.25,0a1,1,0,0,1,.24.05v1.51a1.26,1.26,0,0,0-.33-.07l-.36,0a1.12,1.12,0,0,0-.55.14,1,1,0,0,0-.39.38,1.15,1.15,0,0,0-.14.57v3Z"/><path class="b" d="M135.2,112.53v-7.27H137v2.92h2.87v-2.92h1.75v7.27h-1.75v-2.92H137v2.92Z"/><path class="b" d="M145.22,112.64a2.92,2.92,0,0,1-1.48-.36,2.34,2.34,0,0,1-.94-1,3.19,3.19,0,0,1-.34-1.47,3.14,3.14,0,0,1,.34-1.48,2.42,2.42,0,0,1,.94-1,3.3,3.3,0,0,1,3,0,2.42,2.42,0,0,1,.94,1,3,3,0,0,1,.34,1.48,3.07,3.07,0,0,1-.34,1.47,2.34,2.34,0,0,1-.94,1A2.92,2.92,0,0,1,145.22,112.64Zm0-1.31a.8.8,0,0,0,.53-.19,1.21,1.21,0,0,0,.33-.54,2.34,2.34,0,0,0,.12-.79,2.39,2.39,0,0,0-.12-.79,1.12,1.12,0,0,0-.33-.53.76.76,0,0,0-.53-.2.78.78,0,0,0-.54.2,1.13,1.13,0,0,0-.34.53,2.39,2.39,0,0,0-.12.79,2.34,2.34,0,0,0,.12.79,1.22,1.22,0,0,0,.34.54A.83.83,0,0,0,145.23,111.33Z"/><path class="b" d="M153.63,108.75l-1.59,0a.68.68,0,0,0-.14-.31.94.94,0,0,0-.29-.21,1,1,0,0,0-.4-.07,1.08,1.08,0,0,0-.52.12.34.34,0,0,0-.2.33.31.31,0,0,0,.13.27,1.05,1.05,0,0,0,.47.19l1.06.2a2.47,2.47,0,0,1,1.21.52,1.22,1.22,0,0,1,.4,1,1.5,1.5,0,0,1-.33,1,2.13,2.13,0,0,1-.89.65,3.54,3.54,0,0,1-1.3.23,3.15,3.15,0,0,1-1.85-.48,1.78,1.78,0,0,1-.76-1.29l1.71-.05a.7.7,0,0,0,.3.46,1.3,1.3,0,0,0,1.15,0A.37.37,0,0,0,152,111a.38.38,0,0,0-.16-.3,1.44,1.44,0,0,0-.5-.17l-1-.18a2.28,2.28,0,0,1-1.22-.56,1.38,1.38,0,0,1-.4-1,1.49,1.49,0,0,1,.3-.94,1.81,1.81,0,0,1,.83-.6,3.84,3.84,0,0,1,1.29-.2,2.9,2.9,0,0,1,1.74.46A1.69,1.69,0,0,1,153.63,108.75Z"/><path class="b" d="M157.7,107.08v1.28h-3.45v-1.28ZM155,105.77h1.73v5a.63.63,0,0,0,0,.26.4.4,0,0,0,.15.14.86.86,0,0,0,.24,0l.21,0,.17,0,.26,1.26-.35.09a3.54,3.54,0,0,1-.53.06,2.6,2.6,0,0,1-1-.14,1.37,1.37,0,0,1-.66-.54A1.55,1.55,0,0,1,155,111Z"/><path class="b" d="M191.82,119.71h-91a6.44,6.44,0,0,1-6.44-6.43V102.91a6.45,6.45,0,0,1,6.44-6.44h91a6.45,6.45,0,0,1,6.44,6.44v10.37A6.44,6.44,0,0,1,191.82,119.71ZM100.86,99a4,4,0,0,0-3.94,3.94v10.37a3.94,3.94,0,0,0,3.94,3.93h91a3.94,3.94,0,0,0,3.94-3.93V102.91A4,4,0,0,0,191.82,99Z"/><path class="b" d="M191.82,149.34h-91a6.44,6.44,0,0,1-6.44-6.43V132.54a6.45,6.45,0,0,1,6.44-6.44h91a6.45,6.45,0,0,1,6.44,6.44v10.37A6.44,6.44,0,0,1,191.82,149.34Zm-91-20.74a4,4,0,0,0-3.94,3.94v10.37a3.94,3.94,0,0,0,3.94,3.93h91a3.94,3.94,0,0,0,3.94-3.93V132.54a4,4,0,0,0-3.94-3.94Z"/><path class="b" d="M191.82,177.79h-91a6.45,6.45,0,0,1-6.44-6.44V161a6.44,6.44,0,0,1,6.44-6.43h91a6.44,6.44,0,0,1,6.44,6.43v10.37A6.45,6.45,0,0,1,191.82,177.79Zm-91-20.74A3.94,3.94,0,0,0,96.92,161v10.37a4,4,0,0,0,3.94,3.94h91a4,4,0,0,0,3.94-3.94V161a3.94,3.94,0,0,0-3.94-3.93Z"/><path class="b" d="M147.4,128.27a1.25,1.25,0,0,1-1.25-1.25V118.8a1.25,1.25,0,1,1,2.5,0V127A1.25,1.25,0,0,1,147.4,128.27Z"/><path class="b" d="M146.37,156.86a1.25,1.25,0,0,1-1.25-1.25v-6.5a1.25,1.25,0,0,1,2.5,0v6.5A1.25,1.25,0,0,1,146.37,156.86Z"/><path class="b" d="M344.26,193.31H237.6a13.27,13.27,0,0,1-13.25-13.25V77A13.26,13.26,0,0,1,237.6,63.7H344.26A13.26,13.26,0,0,1,357.51,77V180.06A13.27,13.27,0,0,1,344.26,193.31ZM237.6,66.2A10.76,10.76,0,0,0,226.85,77V180.06a10.77,10.77,0,0,0,10.75,10.75H344.26A10.77,10.77,0,0,0,355,180.06V77A10.76,10.76,0,0,0,344.26,66.2Z"/><path class="b" d="M269.79,80.12h-2.13a1.77,1.77,0,0,0-.18-.59,1.3,1.3,0,0,0-.35-.45,1.42,1.42,0,0,0-.51-.29,2,2,0,0,0-.66-.1,1.89,1.89,0,0,0-1.09.31,2,2,0,0,0-.7.9,3.57,3.57,0,0,0-.25,1.42,3.86,3.86,0,0,0,.25,1.46A1.84,1.84,0,0,0,266,84a2.15,2.15,0,0,0,.64-.09,1.56,1.56,0,0,0,.51-.27,1.48,1.48,0,0,0,.36-.42,1.85,1.85,0,0,0,.2-.56h2.13a3.18,3.18,0,0,1-.34,1.14,3.5,3.5,0,0,1-1.95,1.76,4.34,4.34,0,0,1-1.59.28,4.25,4.25,0,0,1-2.12-.53,3.68,3.68,0,0,1-1.48-1.52,5.09,5.09,0,0,1-.54-2.44,5,5,0,0,1,.55-2.44,3.76,3.76,0,0,1,1.49-1.52,4.19,4.19,0,0,1,2.1-.52,4.52,4.52,0,0,1,1.46.22,3.5,3.5,0,0,1,1.19.64,3.22,3.22,0,0,1,.83,1A3.76,3.76,0,0,1,269.79,80.12Z"/><path class="b" d="M272.66,85.69h-2.27L273.34,77h2.8l2.95,8.73h-2.27l-2.05-6.53h-.07Zm-.3-3.44h4.73v1.6h-4.73Z"/><path class="b" d="M287.46,77v8.73h-1.79l-3.47-5h-.06v5H280V77h1.82l3.43,5h.07V77Z"/><path class="b" d="M293.44,82v3.74h-2.08V79.14h2v1.2h.08a1.82,1.82,0,0,1,.74-.94,2.21,2.21,0,0,1,1.25-.34,2.32,2.32,0,0,1,1.2.3,2.26,2.26,0,0,1,.79.86,2.79,2.79,0,0,1,.28,1.29v4.18h-2.09V81.92a1.21,1.21,0,0,0-.27-.85,1,1,0,0,0-.78-.31,1.08,1.08,0,0,0-.57.15.94.94,0,0,0-.39.4A1.55,1.55,0,0,0,293.44,82Z"/><path class="b" d="M302,85.81a3.51,3.51,0,0,1-1.77-.42,2.84,2.84,0,0,1-1.14-1.19,4.12,4.12,0,0,1,0-3.54,2.82,2.82,0,0,1,1.14-1.18,3.94,3.94,0,0,1,3.54,0,2.94,2.94,0,0,1,1.14,1.18,4.21,4.21,0,0,1,0,3.54,3,3,0,0,1-1.14,1.19A3.54,3.54,0,0,1,302,85.81Zm0-1.57a1,1,0,0,0,.64-.23,1.51,1.51,0,0,0,.39-.64,3.29,3.29,0,0,0,0-1.9,1.4,1.4,0,0,0-.39-.64,1,1,0,0,0-1.29,0,1.34,1.34,0,0,0-.41.64,3.29,3.29,0,0,0,0,1.9,1.45,1.45,0,0,0,.41.64A1,1,0,0,0,302,84.24Z"/><path class="b" d="M308.8,85.78a2.4,2.4,0,0,1-1.32-.38,2.58,2.58,0,0,1-1-1.12,4.44,4.44,0,0,1-.35-1.86,4.2,4.2,0,0,1,.37-1.9,2.52,2.52,0,0,1,1-1.11,2.4,2.4,0,0,1,1.28-.35,2,2,0,0,1,.88.17,1.85,1.85,0,0,1,.6.46,2.22,2.22,0,0,1,.37.57h0V77h2.08v8.73H310.7V84.62h-.06a2,2,0,0,1-.38.57,1.72,1.72,0,0,1-.61.43A2,2,0,0,1,308.8,85.78Zm.72-1.62a1,1,0,0,0,.65-.22,1.32,1.32,0,0,0,.41-.61,2.53,2.53,0,0,0,.15-.92,2.57,2.57,0,0,0-.15-.92,1.26,1.26,0,0,0-.41-.6,1,1,0,0,0-.65-.21,1,1,0,0,0-.66.22,1.25,1.25,0,0,0-.4.6,3.06,3.06,0,0,0,0,1.83,1.25,1.25,0,0,0,.41.61A1,1,0,0,0,309.52,84.16Z"/><path class="b" d="M317.14,85.81a3.67,3.67,0,0,1-1.77-.41,2.83,2.83,0,0,1-1.14-1.16,3.79,3.79,0,0,1-.4-1.8,3.74,3.74,0,0,1,.4-1.78,3,3,0,0,1,1.13-1.18,3.4,3.4,0,0,1,1.72-.42,3.78,3.78,0,0,1,1.28.21A2.78,2.78,0,0,1,320,81a3.93,3.93,0,0,1,.24,1.43v.52h-5.69V81.71h3.75a1.1,1.1,0,0,0-.16-.6,1,1,0,0,0-.42-.4,1.2,1.2,0,0,0-.61-.15,1.23,1.23,0,0,0-.63.16,1.09,1.09,0,0,0-.43.42,1.11,1.11,0,0,0-.17.6V83a1.54,1.54,0,0,0,.15.7,1.2,1.2,0,0,0,.45.47,1.36,1.36,0,0,0,.69.17,1.54,1.54,0,0,0,.5-.08,1.09,1.09,0,0,0,.39-.23.88.88,0,0,0,.24-.36l1.92,0a2.46,2.46,0,0,1-.52,1.12,2.66,2.66,0,0,1-1.06.74A4.12,4.12,0,0,1,317.14,85.81Z"/><path class="b" d="M261.54,137.75h-1.78a1.53,1.53,0,0,0-.14-.5,1.19,1.19,0,0,0-.29-.37,1.14,1.14,0,0,0-.43-.24,1.72,1.72,0,0,0-1.46.17,1.59,1.59,0,0,0-.58.75,3,3,0,0,0-.21,1.19,3.09,3.09,0,0,0,.21,1.21,1.5,1.5,0,0,0,.59.73,1.55,1.55,0,0,0,.89.25,1.74,1.74,0,0,0,.53-.07,1.59,1.59,0,0,0,.43-.22,1.27,1.27,0,0,0,.3-.35,1.45,1.45,0,0,0,.16-.47h1.78a2.59,2.59,0,0,1-.28.95,2.88,2.88,0,0,1-.64.85,3.15,3.15,0,0,1-1,.62,3.67,3.67,0,0,1-1.33.22,3.57,3.57,0,0,1-1.77-.43,3.14,3.14,0,0,1-1.23-1.27,4.26,4.26,0,0,1-.45-2,4.16,4.16,0,0,1,.46-2,3.16,3.16,0,0,1,1.24-1.27,3.63,3.63,0,0,1,1.75-.43,4,4,0,0,1,1.22.18,3.17,3.17,0,0,1,1,.54,2.87,2.87,0,0,1,.69.85A3.07,3.07,0,0,1,261.54,137.75Z"/><path class="b" d="M263.93,142.38H262l2.46-7.27h2.34l2.45,7.27H267.4l-1.71-5.44h-.05Zm-.25-2.86h3.95v1.34h-3.95Z"/><path class="b" d="M276.27,135.11v7.27h-1.5l-2.89-4.19h-.05v4.19h-1.75v-7.27h1.51l2.86,4.19h.06v-4.19Z"/><path class="b" d="M282.06,142.49a2.86,2.86,0,0,1-1.47-.36,2.38,2.38,0,0,1-.95-1,3.44,3.44,0,0,1,0-2.94,2.45,2.45,0,0,1,.95-1,3,3,0,0,1,1.47-.35,3.05,3.05,0,0,1,1.32.27,2.07,2.07,0,0,1,.88.77,2.39,2.39,0,0,1,.34,1.17H283a1,1,0,0,0-.28-.65.89.89,0,0,0-1.13-.07,1.09,1.09,0,0,0-.36.49,2.83,2.83,0,0,0,0,1.63,1.06,1.06,0,0,0,.36.5.86.86,0,0,0,.53.17.82.82,0,0,0,.42-.1.77.77,0,0,0,.31-.31,1.13,1.13,0,0,0,.15-.48h1.63a2.33,2.33,0,0,1-.34,1.17,2.15,2.15,0,0,1-.87.79A3,3,0,0,1,282.06,142.49Z"/><path class="b" d="M288,142.49a2.86,2.86,0,0,1-1.47-.36,2.36,2.36,0,0,1-.95-1,3.19,3.19,0,0,1-.33-1.48,3.12,3.12,0,0,1,.33-1.47,2.45,2.45,0,0,1,.95-1,3.28,3.28,0,0,1,2.95,0,2.45,2.45,0,0,1,.95,1,3.12,3.12,0,0,1,.33,1.47,3.19,3.19,0,0,1-.33,1.48,2.36,2.36,0,0,1-.95,1A2.87,2.87,0,0,1,288,142.49Zm0-1.31a.76.76,0,0,0,.53-.2,1.13,1.13,0,0,0,.34-.53,2.69,2.69,0,0,0,.11-.79,2.64,2.64,0,0,0-.11-.79,1.22,1.22,0,0,0-.34-.54.8.8,0,0,0-.53-.19.85.85,0,0,0-.54.19,1.22,1.22,0,0,0-.34.54,2.64,2.64,0,0,0-.11.79,2.69,2.69,0,0,0,.11.79,1.13,1.13,0,0,0,.34.53A.8.8,0,0,0,288,141.18Z"/><path class="b" d="M293.42,139.27v3.11h-1.74v-5.45h1.65v1h.06a1.57,1.57,0,0,1,.62-.79,1.86,1.86,0,0,1,1-.28,1.79,1.79,0,0,1,1.66,1,2.2,2.2,0,0,1,.23,1.08v3.47h-1.73v-3.13a1,1,0,0,0-.23-.71.84.84,0,0,0-.65-.26,1,1,0,0,0-.48.12.81.81,0,0,0-.32.34A1.22,1.22,0,0,0,293.42,139.27Z"/><path class="b" d="M301.1,136.93v1.28h-3.44v-1.28Zm-2.72-1.31h1.74v5a.53.53,0,0,0,.05.26.24.24,0,0,0,.15.13.61.61,0,0,0,.24,0h.21l.17,0,.26,1.26-.35.08a2.63,2.63,0,0,1-.54.07,2.57,2.57,0,0,1-1-.14,1.44,1.44,0,0,1-.67-.54,1.72,1.72,0,0,1-.22-.92Z"/><path class="b" d="M302,142.38v-5.45h1.69v1h.05a1.43,1.43,0,0,1,.49-.8,1.21,1.21,0,0,1,.78-.27l.25,0,.24,0v1.51a1.73,1.73,0,0,0-.32-.07l-.36,0a1.16,1.16,0,0,0-.56.14,1,1,0,0,0-.38.38,1,1,0,0,0-.14.57v3Z"/><path class="b" d="M308.46,142.49a2.86,2.86,0,0,1-1.47-.36,2.36,2.36,0,0,1-.95-1,3.19,3.19,0,0,1-.33-1.48,3.12,3.12,0,0,1,.33-1.47,2.45,2.45,0,0,1,.95-1,3.28,3.28,0,0,1,2.95,0,2.45,2.45,0,0,1,.95,1,3.12,3.12,0,0,1,.33,1.47,3.19,3.19,0,0,1-.33,1.48,2.36,2.36,0,0,1-.95,1A2.87,2.87,0,0,1,308.46,142.49Zm0-1.31a.76.76,0,0,0,.53-.2,1.05,1.05,0,0,0,.33-.53,2.39,2.39,0,0,0,.12-.79,2.34,2.34,0,0,0-.12-.79,1.13,1.13,0,0,0-.33-.54.8.8,0,0,0-.53-.19.85.85,0,0,0-.54.19,1.22,1.22,0,0,0-.34.54,2.36,2.36,0,0,0-.11.79,2.4,2.4,0,0,0,.11.79,1.13,1.13,0,0,0,.34.53A.8.8,0,0,0,308.47,141.18Z"/><path class="b" d="M313.85,135.11v7.27h-1.74v-7.27Z"/><path class="b" d="M316.68,135.11v7.27H315v-7.27Z"/><path class="b" d="M320.33,142.49a3.07,3.07,0,0,1-1.47-.34,2.34,2.34,0,0,1-.95-1,3.19,3.19,0,0,1-.34-1.5,3.14,3.14,0,0,1,.34-1.48,2.42,2.42,0,0,1,.94-1,2.83,2.83,0,0,1,1.43-.35,3.08,3.08,0,0,1,1.07.18,2.21,2.21,0,0,1,.83.54,2.28,2.28,0,0,1,.55.87,3.38,3.38,0,0,1,.19,1.19v.44h-4.74v-1h3.13a1.16,1.16,0,0,0-.13-.5,1.14,1.14,0,0,0-.35-.34,1.07,1.07,0,0,0-.51-.12,1,1,0,0,0-.53.13,1,1,0,0,0-.36.35,1,1,0,0,0-.14.5v1a1.25,1.25,0,0,0,.13.59,1,1,0,0,0,.37.38,1.06,1.06,0,0,0,.58.14,1.42,1.42,0,0,0,.42-.06.94.94,0,0,0,.32-.19.69.69,0,0,0,.2-.3l1.6,0a2,2,0,0,1-.44.93,2.19,2.19,0,0,1-.88.62A3.46,3.46,0,0,1,320.33,142.49Z"/><path class="b" d="M323.81,142.38v-5.45h1.69v1h.06a1.47,1.47,0,0,1,.48-.8,1.24,1.24,0,0,1,.79-.27l.25,0,.24,0v1.51a2.09,2.09,0,0,0-.33-.07l-.36,0a1.12,1.12,0,0,0-.55.14,1,1,0,0,0-.39.38,1.15,1.15,0,0,0-.14.57v3Z"/><path class="b" d="M257.41,166.59h-1.78a1.34,1.34,0,0,0-.15-.49,1.2,1.2,0,0,0-.29-.38,1.44,1.44,0,0,0-.42-.24,1.92,1.92,0,0,0-.55-.08,1.54,1.54,0,0,0-1.5,1,3.22,3.22,0,0,0-.2,1.19,3.09,3.09,0,0,0,.21,1.21,1.51,1.51,0,0,0,1.48,1,2.19,2.19,0,0,0,.53-.07,1.4,1.4,0,0,0,.42-.22,1.16,1.16,0,0,0,.3-.36,1.31,1.31,0,0,0,.17-.47h1.78a3.09,3.09,0,0,1-.28,1,3.22,3.22,0,0,1-.64.85,2.91,2.91,0,0,1-1,.61,3.63,3.63,0,0,1-1.33.23,3.56,3.56,0,0,1-1.76-.43,3.14,3.14,0,0,1-1.23-1.27,4.83,4.83,0,0,1,0-4.07,3.16,3.16,0,0,1,1.24-1.27,3.55,3.55,0,0,1,1.75-.43,4.06,4.06,0,0,1,1.23.18,3,3,0,0,1,1,.53,2.79,2.79,0,0,1,.7.86A3.48,3.48,0,0,1,257.41,166.59Z"/><path class="b" d="M259.8,171.23h-1.89l2.45-7.27h2.34l2.46,7.27h-1.89l-1.71-5.44h-.06Zm-.25-2.86h3.95v1.33h-3.95Z"/><path class="b" d="M272.13,164v7.27h-1.49l-2.89-4.2h-.05v4.2h-1.76V164h1.51l2.87,4.19h.06V164Z"/><path class="b" d="M278.46,165.78v1.28H275v-1.28Zm-2.72-1.31h1.74v5.05a.58.58,0,0,0,0,.25.33.33,0,0,0,.15.14.61.61,0,0,0,.24,0,.75.75,0,0,0,.21,0l.17,0,.26,1.25-.35.09a2.63,2.63,0,0,1-.54.07,2.57,2.57,0,0,1-1-.14,1.44,1.44,0,0,1-.67-.54,1.74,1.74,0,0,1-.22-.92Z"/><path class="b" d="M279.35,171.23v-5.45H281v1h0a1.48,1.48,0,0,1,.49-.8,1.24,1.24,0,0,1,.79-.27l.24,0a.85.85,0,0,1,.24.05v1.51a1.18,1.18,0,0,0-.32-.07l-.36,0a1.1,1.1,0,0,0-.55.14,1,1,0,0,0-.39.38,1,1,0,0,0-.14.57v3Z"/><path class="b" d="M284.89,171.32a2.25,2.25,0,0,1-.92-.17,1.51,1.51,0,0,1-.64-.53,1.9,1.9,0,0,1-.07-1.67,1.36,1.36,0,0,1,.44-.51,1.93,1.93,0,0,1,.65-.29,3.73,3.73,0,0,1,.78-.14l.75-.09a1,1,0,0,0,.41-.14.28.28,0,0,0,.13-.26h0a.5.5,0,0,0-.19-.43.76.76,0,0,0-.5-.15,1,1,0,0,0-.56.15.68.68,0,0,0-.27.42l-1.6-.06a1.9,1.9,0,0,1,.37-.89,2,2,0,0,1,.82-.62,3.11,3.11,0,0,1,1.25-.22,3.6,3.6,0,0,1,1,.12,2.48,2.48,0,0,1,.77.35,1.59,1.59,0,0,1,.5.57,1.65,1.65,0,0,1,.18.77v3.71h-1.63v-.76h0a1.57,1.57,0,0,1-.37.47,1.6,1.6,0,0,1-.53.29A2.4,2.4,0,0,1,284.89,171.32Zm.54-1.13a1.07,1.07,0,0,0,.51-.12.9.9,0,0,0,.36-.31.81.81,0,0,0,.13-.47v-.52l-.18.08-.23.06-.25,0-.25,0a1.77,1.77,0,0,0-.42.12.64.64,0,0,0-.26.22.51.51,0,0,0-.09.3.5.5,0,0,0,.19.42A.84.84,0,0,0,285.43,170.19Z"/><path class="b" d="M291,168.12v3.11h-1.74v-5.45h1.65v1h.06a1.58,1.58,0,0,1,.62-.79,1.86,1.86,0,0,1,1-.28,1.88,1.88,0,0,1,1,.25,1.64,1.64,0,0,1,.66.72,2.31,2.31,0,0,1,.24,1.07v3.48h-1.74V168.1a1,1,0,0,0-.23-.71.84.84,0,0,0-.64-.26,1,1,0,0,0-.49.12.88.88,0,0,0-.32.34A1.19,1.19,0,0,0,291,168.12Z"/><path class="b" d="M300.32,167.44l-1.6,0a.58.58,0,0,0-.13-.3.78.78,0,0,0-.29-.21,1.18,1.18,0,0,0-.92.05.36.36,0,0,0-.21.32.35.35,0,0,0,.13.28,1.1,1.1,0,0,0,.48.19l1.05.2a2.38,2.38,0,0,1,1.22.52,1.21,1.21,0,0,1,.4.95,1.53,1.53,0,0,1-.33,1,2.18,2.18,0,0,1-.9.65,3.51,3.51,0,0,1-1.3.22,3.12,3.12,0,0,1-1.84-.48,1.8,1.8,0,0,1-.77-1.29l1.72,0a.64.64,0,0,0,.29.45,1,1,0,0,0,.61.16,1.08,1.08,0,0,0,.54-.12.42.42,0,0,0,.22-.33.36.36,0,0,0-.17-.3,1.47,1.47,0,0,0-.5-.18l-.95-.18a2.24,2.24,0,0,1-1.22-.55,1.39,1.39,0,0,1-.4-1,1.54,1.54,0,0,1,.29-.93,1.9,1.9,0,0,1,.84-.6,3.55,3.55,0,0,1,1.28-.2,2.93,2.93,0,0,1,1.75.46A1.67,1.67,0,0,1,300.32,167.44Z"/><path class="b" d="M303.85,171.33a2.9,2.9,0,0,1-1.48-.35,2.45,2.45,0,0,1-.95-1,3.39,3.39,0,0,1,0-2.94,2.42,2.42,0,0,1,.94-1,2.92,2.92,0,0,1,1.48-.35,3.05,3.05,0,0,1,1.32.27,2.19,2.19,0,0,1,.88.77,2.23,2.23,0,0,1,.33,1.17h-1.62a1.11,1.11,0,0,0-.28-.66.85.85,0,0,0-.61-.23.82.82,0,0,0-.53.17,1,1,0,0,0-.35.49,2.62,2.62,0,0,0,0,1.63,1,1,0,0,0,.35.5.88.88,0,0,0,.53.17,1,1,0,0,0,.43-.1.84.84,0,0,0,.31-.31,1.13,1.13,0,0,0,.15-.49h1.62a2.36,2.36,0,0,1-.33,1.18,2.15,2.15,0,0,1-.87.79A3.07,3.07,0,0,1,303.85,171.33Z"/><path class="b" d="M309.82,171.33a3,3,0,0,1-1.47-.34,2.2,2.2,0,0,1-1-1,3.08,3.08,0,0,1-.34-1.5,3.14,3.14,0,0,1,.34-1.48,2.31,2.31,0,0,1,.94-1,2.73,2.73,0,0,1,1.43-.35,3.08,3.08,0,0,1,1.07.18,2.32,2.32,0,0,1,.83.53,2.53,2.53,0,0,1,.55.88,3.38,3.38,0,0,1,.19,1.19v.43h-4.74v-1h3.13a1.15,1.15,0,0,0-.13-.49,1,1,0,0,0-.35-.34,1.07,1.07,0,0,0-.51-.12,1,1,0,0,0-.53.13,1,1,0,0,0-.36.35,1,1,0,0,0-.14.5v1a1.18,1.18,0,0,0,.13.58.87.87,0,0,0,.37.39,1.16,1.16,0,0,0,.58.14,1.31,1.31,0,0,0,.41-.06,1.06,1.06,0,0,0,.33-.19.72.72,0,0,0,.2-.31l1.59,0a1.9,1.9,0,0,1-.43.93,2.19,2.19,0,0,1-.88.62A3.47,3.47,0,0,1,309.82,171.33Z"/><path class="b" d="M314.17,165.14a.88.88,0,0,1-.62-.24.76.76,0,0,1-.27-.59.74.74,0,0,1,.27-.58.91.91,0,0,1,1.25,0,.74.74,0,0,1,.27.58.76.76,0,0,1-.27.59A.88.88,0,0,1,314.17,165.14Zm-.87,6.09v-5.45H315v5.45Z"/><path class="b" d="M321.43,165.78l-1.87,5.45h-2l-1.87-5.45h1.83l1,3.75h0l1-3.75Z"/><path class="b" d="M324.47,171.33A3,3,0,0,1,323,171a2.26,2.26,0,0,1-.95-1,3.19,3.19,0,0,1-.33-1.5,3.14,3.14,0,0,1,.33-1.48,2.43,2.43,0,0,1,.94-1,2.78,2.78,0,0,1,1.43-.35,3,3,0,0,1,1.07.18,2.32,2.32,0,0,1,.83.53,2.4,2.4,0,0,1,.55.88,3.37,3.37,0,0,1,.2,1.19v.43h-4.74v-1h3.12a1,1,0,0,0-.13-.49,1,1,0,0,0-.35-.34,1.07,1.07,0,0,0-.51-.12,1,1,0,0,0-.52.13,1,1,0,0,0-.51.85v1a1.18,1.18,0,0,0,.13.58.93.93,0,0,0,.37.39,1.21,1.21,0,0,0,.58.14,1.42,1.42,0,0,0,.42-.06,1.13,1.13,0,0,0,.32-.19.72.72,0,0,0,.2-.31l1.6,0a1.92,1.92,0,0,1-.44.93,2.16,2.16,0,0,1-.87.62A3.54,3.54,0,0,1,324.47,171.33Z"/><path class="b" d="M328,171.23v-5.45h1.68v1h.06a1.43,1.43,0,0,1,.49-.8,1.19,1.19,0,0,1,.78-.27l.25,0a.85.85,0,0,1,.24.05v1.51a1.17,1.17,0,0,0-.33-.07l-.35,0a1.16,1.16,0,0,0-.56.14,1.09,1.09,0,0,0-.39.38,1.15,1.15,0,0,0-.14.57v3Z"/><path class="b" d="M279.79,112.53v-7.27h1.76v2.92h2.86v-2.92h1.76v7.27h-1.76v-2.92h-2.86v2.92Z"/><path class="b" d="M289.81,112.64a2.86,2.86,0,0,1-1.47-.36,2.36,2.36,0,0,1-.95-1,3.18,3.18,0,0,1-.33-1.47,3.14,3.14,0,0,1,.33-1.48,2.45,2.45,0,0,1,.95-1,3.28,3.28,0,0,1,3,0,2.45,2.45,0,0,1,.95,1,3.14,3.14,0,0,1,.33,1.48,3.18,3.18,0,0,1-.33,1.47,2.36,2.36,0,0,1-.95,1A2.87,2.87,0,0,1,289.81,112.64Zm0-1.31a.8.8,0,0,0,.53-.19,1.13,1.13,0,0,0,.33-.54,2.34,2.34,0,0,0,.12-.79,2.39,2.39,0,0,0-.12-.79,1.05,1.05,0,0,0-.33-.53.76.76,0,0,0-.53-.2.8.8,0,0,0-.54.2,1.13,1.13,0,0,0-.34.53,2.4,2.4,0,0,0-.11.79,2.36,2.36,0,0,0,.11.79,1.22,1.22,0,0,0,.34.54A.85.85,0,0,0,289.82,111.33Z"/><path class="b" d="M298.22,108.75l-1.59,0a.59.59,0,0,0-.14-.31,1,1,0,0,0-.28-.21,1.07,1.07,0,0,0-.41-.07,1,1,0,0,0-.51.12.37.37,0,0,0-.21.33.34.34,0,0,0,.13.27,1.1,1.1,0,0,0,.48.19l1.05.2a2.43,2.43,0,0,1,1.21.52,1.26,1.26,0,0,1,.41,1,1.62,1.62,0,0,1-.33,1,2.1,2.1,0,0,1-.9.65,3.51,3.51,0,0,1-1.3.23,3.12,3.12,0,0,1-1.84-.48,1.76,1.76,0,0,1-.77-1.29l1.71-.05a.7.7,0,0,0,.3.46,1.13,1.13,0,0,0,.61.15,1.08,1.08,0,0,0,.54-.12.37.37,0,0,0,.21-.33.35.35,0,0,0-.16-.3,1.37,1.37,0,0,0-.5-.17l-.95-.18a2.21,2.21,0,0,1-1.22-.56,1.34,1.34,0,0,1-.4-1,1.43,1.43,0,0,1,.29-.94,1.79,1.79,0,0,1,.84-.6,3.78,3.78,0,0,1,1.28-.2,2.93,2.93,0,0,1,1.75.46A1.68,1.68,0,0,1,298.22,108.75Z"/><path class="b" d="M302.29,107.08v1.28h-3.44v-1.28Zm-2.72-1.31h1.73v5a.5.5,0,0,0,.06.26.29.29,0,0,0,.15.14.73.73,0,0,0,.23,0l.22,0,.16,0,.27,1.26-.35.09a3.69,3.69,0,0,1-.54.06,2.6,2.6,0,0,1-1.05-.14,1.37,1.37,0,0,1-.66-.54,1.63,1.63,0,0,1-.22-.92Z"/><path class="b" d="M336.41,119.71h-91a6.44,6.44,0,0,1-6.44-6.43V102.91a6.45,6.45,0,0,1,6.44-6.44h91a6.45,6.45,0,0,1,6.44,6.44v10.37A6.44,6.44,0,0,1,336.41,119.71ZM245.45,99a4,4,0,0,0-3.94,3.94v10.37a3.94,3.94,0,0,0,3.94,3.93h91a3.94,3.94,0,0,0,3.94-3.93V102.91A4,4,0,0,0,336.41,99Z"/><path class="b" d="M336.41,149.34h-91a6.44,6.44,0,0,1-6.44-6.43V132.54a6.45,6.45,0,0,1,6.44-6.44h91a6.45,6.45,0,0,1,6.44,6.44v10.37A6.44,6.44,0,0,1,336.41,149.34Zm-91-20.74a4,4,0,0,0-3.94,3.94v10.37a3.94,3.94,0,0,0,3.94,3.93h91a3.94,3.94,0,0,0,3.94-3.93V132.54a4,4,0,0,0-3.94-3.94Z"/><path class="b" d="M336.41,177.79h-91a6.45,6.45,0,0,1-6.44-6.44V161a6.44,6.44,0,0,1,6.44-6.43h91a6.44,6.44,0,0,1,6.44,6.43v10.37A6.45,6.45,0,0,1,336.41,177.79Zm-91-20.74a3.94,3.94,0,0,0-3.94,3.93v10.37a4,4,0,0,0,3.94,3.94h91a4,4,0,0,0,3.94-3.94V161a3.94,3.94,0,0,0-3.94-3.93Z"/><path class="b" d="M292,128.27a1.24,1.24,0,0,1-1.25-1.25V118.8a1.25,1.25,0,0,1,2.5,0V127A1.25,1.25,0,0,1,292,128.27Z"/><path class="b" d="M293.18,156.86a1.25,1.25,0,0,1-1.25-1.25v-7.33a1.25,1.25,0,0,1,2.5,0v7.33A1.25,1.25,0,0,1,293.18,156.86Z"/><path class="b" d="M488.86,193.31H382.19a13.27,13.27,0,0,1-13.25-13.25V77A13.26,13.26,0,0,1,382.19,63.7H488.86A13.27,13.27,0,0,1,502.11,77V180.06A13.27,13.27,0,0,1,488.86,193.31ZM382.19,66.2A10.76,10.76,0,0,0,371.44,77V180.06a10.77,10.77,0,0,0,10.75,10.75H488.86a10.77,10.77,0,0,0,10.75-10.75V77A10.77,10.77,0,0,0,488.86,66.2Z"/><path class="b" d="M414.38,80.12h-2.13a1.77,1.77,0,0,0-.18-.59,1.19,1.19,0,0,0-.35-.45,1.42,1.42,0,0,0-.51-.29,1.93,1.93,0,0,0-.65-.1,1.9,1.9,0,0,0-1.1.31,2,2,0,0,0-.7.9,3.77,3.77,0,0,0-.24,1.42,3.88,3.88,0,0,0,.24,1.46,2,2,0,0,0,.71.88,1.89,1.89,0,0,0,1.07.3,2.11,2.11,0,0,0,.64-.09,1.56,1.56,0,0,0,.51-.27,1.48,1.48,0,0,0,.36-.42,1.62,1.62,0,0,0,.2-.56h2.13a3.18,3.18,0,0,1-.34,1.14,3.57,3.57,0,0,1-.76,1,3.52,3.52,0,0,1-1.18.73,4.43,4.43,0,0,1-1.6.28,4.25,4.25,0,0,1-2.12-.53,3.74,3.74,0,0,1-1.48-1.52,5.73,5.73,0,0,1,0-4.88,3.83,3.83,0,0,1,1.49-1.52,4.25,4.25,0,0,1,2.1-.52,4.62,4.62,0,0,1,1.47.22,3.45,3.45,0,0,1,1.18.64,3.22,3.22,0,0,1,.83,1A3.58,3.58,0,0,1,414.38,80.12Z"/><path class="b" d="M417.25,85.69H415L417.93,77h2.81l2.94,8.73h-2.27l-2.05-6.53h-.06Zm-.3-3.44h4.74v1.6H417Z"/><path class="b" d="M432.05,77v8.73h-1.79l-3.47-5h-.06v5h-2.11V77h1.82l3.43,5H430V77Z"/><path class="b" d="M438,82v3.74H436V79.14h2v1.2H438a1.82,1.82,0,0,1,.74-.94,2.23,2.23,0,0,1,1.25-.34,2.32,2.32,0,0,1,1.2.3,2.18,2.18,0,0,1,.79.86,2.79,2.79,0,0,1,.28,1.29v4.18h-2.08V81.92a1.21,1.21,0,0,0-.28-.85,1,1,0,0,0-.77-.31,1.11,1.11,0,0,0-.58.15.92.92,0,0,0-.38.4A1.41,1.41,0,0,0,438,82Z"/><path class="b" d="M446.62,85.81a3.51,3.51,0,0,1-1.77-.42,3,3,0,0,1-1.14-1.19,4.12,4.12,0,0,1,0-3.54,2.94,2.94,0,0,1,1.14-1.18,3.94,3.94,0,0,1,3.54,0,2.94,2.94,0,0,1,1.14,1.18,4.12,4.12,0,0,1,0,3.54,3,3,0,0,1-1.14,1.19A3.51,3.51,0,0,1,446.62,85.81Zm0-1.57a1,1,0,0,0,.64-.23,1.63,1.63,0,0,0,.4-.64,3.54,3.54,0,0,0,0-1.9,1.5,1.5,0,0,0-.4-.64,1,1,0,0,0-1.29,0,1.42,1.42,0,0,0-.41.64,3.54,3.54,0,0,0,0,1.9A1.54,1.54,0,0,0,446,84,1,1,0,0,0,446.63,84.24Z"/><path class="b" d="M453.39,85.78a2.42,2.42,0,0,1-1.32-.38,2.65,2.65,0,0,1-.95-1.12,4.44,4.44,0,0,1-.35-1.86,4.2,4.2,0,0,1,.37-1.9,2.52,2.52,0,0,1,1-1.11,2.4,2.4,0,0,1,1.28-.35,2,2,0,0,1,.88.17,1.79,1.79,0,0,1,.61.46,2,2,0,0,1,.36.57h0V77h2.09v8.73h-2.07V84.62h-.06a2,2,0,0,1-1,1A2.1,2.1,0,0,1,453.39,85.78Zm.72-1.62a1,1,0,0,0,.65-.22,1.25,1.25,0,0,0,.41-.61,2.53,2.53,0,0,0,.15-.92,2.82,2.82,0,0,0-.14-.92,1.35,1.35,0,0,0-.42-.6,1,1,0,0,0-.65-.21,1,1,0,0,0-.65.22,1.26,1.26,0,0,0-.41.6,3.06,3.06,0,0,0,0,1.83,1.25,1.25,0,0,0,.41.61A1,1,0,0,0,454.11,84.16Z"/><path class="b" d="M461.74,85.81A3.69,3.69,0,0,1,460,85.4a2.83,2.83,0,0,1-1.14-1.16,3.92,3.92,0,0,1-.4-1.8,3.86,3.86,0,0,1,.4-1.78A3,3,0,0,1,460,79.48a3.4,3.4,0,0,1,1.72-.42,3.74,3.74,0,0,1,1.28.21,2.71,2.71,0,0,1,1,.65,2.94,2.94,0,0,1,.66,1,4.16,4.16,0,0,1,.23,1.43v.52h-5.69V81.71h3.75a1.1,1.1,0,0,0-.16-.6,1.05,1.05,0,0,0-.41-.4,1.26,1.26,0,0,0-.62-.15,1.17,1.17,0,0,0-.62.16,1.17,1.17,0,0,0-.61,1V83a1.42,1.42,0,0,0,.16.7,1.11,1.11,0,0,0,.44.47,1.41,1.41,0,0,0,.69.17,1.6,1.6,0,0,0,.51-.08,1,1,0,0,0,.38-.23,1,1,0,0,0,.25-.36l1.91,0a2.37,2.37,0,0,1-.52,1.12,2.66,2.66,0,0,1-1.06.74A4.06,4.06,0,0,1,461.74,85.81Z"/><path class="b" d="M406.13,137.75h-1.77a1.83,1.83,0,0,0-.15-.5,1.22,1.22,0,0,0-.72-.61,1.53,1.53,0,0,0-.54-.09,1.57,1.57,0,0,0-.91.26,1.6,1.6,0,0,0-.59.75,3,3,0,0,0-.2,1.19,3.1,3.1,0,0,0,.2,1.21,1.53,1.53,0,0,0,1.49,1,1.79,1.79,0,0,0,.53-.07,1.4,1.4,0,0,0,.42-.22,1.27,1.27,0,0,0,.3-.35,1.47,1.47,0,0,0,.17-.47h1.77a2.59,2.59,0,0,1-.28.95,2.85,2.85,0,0,1-.63.85,3.09,3.09,0,0,1-1,.62,3.67,3.67,0,0,1-1.33.22,3.57,3.57,0,0,1-1.77-.43,3.14,3.14,0,0,1-1.23-1.27,4.26,4.26,0,0,1-.45-2,4.16,4.16,0,0,1,.46-2,3.23,3.23,0,0,1,1.24-1.27,3.63,3.63,0,0,1,1.75-.43,4,4,0,0,1,1.22.18,3.06,3.06,0,0,1,1,.54,2.87,2.87,0,0,1,.69.85A3.07,3.07,0,0,1,406.13,137.75Z"/><path class="b" d="M408.53,142.38h-1.89l2.45-7.27h2.34l2.45,7.27H412l-1.7-5.44h-.06Zm-.26-2.86h4v1.34h-4Z"/><path class="b" d="M420.86,135.11v7.27h-1.49l-2.9-4.19h0v4.19h-1.76v-7.27h1.51L419,139.3h.06v-4.19Z"/><path class="b" d="M426.66,142.49a2.87,2.87,0,0,1-1.48-.36,2.45,2.45,0,0,1-.95-1,3.44,3.44,0,0,1,0-2.94,2.45,2.45,0,0,1,.95-1,3.31,3.31,0,0,1,2.79-.08,2.07,2.07,0,0,1,.88.77,2.2,2.2,0,0,1,.34,1.17h-1.62a1.09,1.09,0,0,0-.29-.65.78.78,0,0,0-.6-.24.82.82,0,0,0-.53.17,1.07,1.07,0,0,0-.35.49,2.62,2.62,0,0,0,0,1.63,1,1,0,0,0,.35.5.94.94,0,0,0,1,.07.81.81,0,0,0,.3-.31,1.29,1.29,0,0,0,.16-.48h1.62a2.33,2.33,0,0,1-.34,1.17,2,2,0,0,1-.87.79A3,3,0,0,1,426.66,142.49Z"/><path class="b" d="M432.63,142.49a2.87,2.87,0,0,1-1.48-.36,2.36,2.36,0,0,1-.95-1,3.19,3.19,0,0,1-.33-1.48,3.12,3.12,0,0,1,.33-1.47,2.45,2.45,0,0,1,.95-1,3.28,3.28,0,0,1,3,0,2.45,2.45,0,0,1,.95,1,3.12,3.12,0,0,1,.33,1.47,3.19,3.19,0,0,1-.33,1.48,2.36,2.36,0,0,1-.95,1A2.86,2.86,0,0,1,432.63,142.49Zm0-1.31a.78.78,0,0,0,.53-.2,1.21,1.21,0,0,0,.33-.53,2.69,2.69,0,0,0,.11-.79,2.64,2.64,0,0,0-.11-.79,1.31,1.31,0,0,0-.33-.54.82.82,0,0,0-.53-.19.85.85,0,0,0-.55.19,1.22,1.22,0,0,0-.34.54,2.64,2.64,0,0,0-.11.79,2.69,2.69,0,0,0,.11.79,1.13,1.13,0,0,0,.34.53A.81.81,0,0,0,432.64,141.18Z"/><path class="b" d="M438,139.27v3.11h-1.74v-5.45h1.65v1H438a1.55,1.55,0,0,1,.61-.79,1.86,1.86,0,0,1,1-.28,1.8,1.8,0,0,1,1,.26,1.68,1.68,0,0,1,.66.71,2.32,2.32,0,0,1,.24,1.08v3.47H439.8v-3.13a1,1,0,0,0-.23-.71.84.84,0,0,0-.64-.26,1,1,0,0,0-.49.12.88.88,0,0,0-.32.34A1.22,1.22,0,0,0,438,139.27Z"/><path class="b" d="M445.69,136.93v1.28h-3.44v-1.28ZM443,135.62h1.74v5a.67.67,0,0,0,.05.26.31.31,0,0,0,.15.13.61.61,0,0,0,.24,0h.21l.17,0,.26,1.26-.35.08a3,3,0,0,1-1.58-.07,1.37,1.37,0,0,1-.66-.54,1.63,1.63,0,0,1-.23-.92Z"/><path class="b" d="M446.58,142.38v-5.45h1.69v1h.06a1.47,1.47,0,0,1,.48-.8,1.24,1.24,0,0,1,.79-.27l.25,0,.23,0v1.51a1.73,1.73,0,0,0-.32-.07l-.36,0a1.12,1.12,0,0,0-.55.14,1,1,0,0,0-.39.38,1,1,0,0,0-.14.57v3Z"/><path class="b" d="M453.06,142.49a2.87,2.87,0,0,1-1.48-.36,2.36,2.36,0,0,1-.95-1,3.19,3.19,0,0,1-.33-1.48,3.12,3.12,0,0,1,.33-1.47,2.45,2.45,0,0,1,.95-1,3.28,3.28,0,0,1,2.95,0,2.45,2.45,0,0,1,1,1,3.12,3.12,0,0,1,.33,1.47,3.19,3.19,0,0,1-.33,1.48,2.36,2.36,0,0,1-1,1A2.86,2.86,0,0,1,453.06,142.49Zm0-1.31a.79.79,0,0,0,.53-.2,1.21,1.21,0,0,0,.33-.53,2.69,2.69,0,0,0,.11-.79,2.64,2.64,0,0,0-.11-.79,1.31,1.31,0,0,0-.33-.54.84.84,0,0,0-.53-.19.85.85,0,0,0-.55.19,1.22,1.22,0,0,0-.34.54,2.64,2.64,0,0,0-.11.79,2.69,2.69,0,0,0,.11.79,1.13,1.13,0,0,0,.34.53A.81.81,0,0,0,453.07,141.18Z"/><path class="b" d="M458.44,135.11v7.27H456.7v-7.27Z"/><path class="b" d="M461.28,135.11v7.27h-1.74v-7.27Z"/><path class="b" d="M464.93,142.49a3.11,3.11,0,0,1-1.48-.34,2.34,2.34,0,0,1-.95-1,3.19,3.19,0,0,1-.33-1.5,3.14,3.14,0,0,1,.33-1.48,2.49,2.49,0,0,1,.94-1,2.86,2.86,0,0,1,1.43-.35,3,3,0,0,1,1.07.18,2.21,2.21,0,0,1,.83.54,2.28,2.28,0,0,1,.55.87,3.37,3.37,0,0,1,.2,1.19v.44h-4.74v-1h3.12a.93.93,0,0,0-.48-.84,1.07,1.07,0,0,0-.51-.12,1,1,0,0,0-.52.13,1,1,0,0,0-.51.85v1a1.25,1.25,0,0,0,.13.59,1,1,0,0,0,.37.38,1.09,1.09,0,0,0,.58.14,1.42,1.42,0,0,0,.42-.06.94.94,0,0,0,.32-.19.69.69,0,0,0,.2-.3l1.6,0a1.92,1.92,0,0,1-.44.93,2.13,2.13,0,0,1-.88.62A3.44,3.44,0,0,1,464.93,142.49Z"/><path class="b" d="M468.41,142.38v-5.45h1.68v1h.06a1.43,1.43,0,0,1,.49-.8,1.19,1.19,0,0,1,.78-.27l.25,0,.24,0v1.51a1.87,1.87,0,0,0-.33-.07l-.35,0a1.16,1.16,0,0,0-.56.14,1.09,1.09,0,0,0-.39.38,1.15,1.15,0,0,0-.14.57v3Z"/><path class="b" d="M402,166.59h-1.78a1.55,1.55,0,0,0-.14-.49,1.37,1.37,0,0,0-.29-.38,1.64,1.64,0,0,0-.43-.24,1.92,1.92,0,0,0-.55-.08,1.62,1.62,0,0,0-.91.26,1.59,1.59,0,0,0-.58.75,3,3,0,0,0-.21,1.19,3.09,3.09,0,0,0,.21,1.21,1.51,1.51,0,0,0,1.48,1,2.13,2.13,0,0,0,.53-.07,1.59,1.59,0,0,0,.43-.22,1.32,1.32,0,0,0,.46-.83H402a2.85,2.85,0,0,1-.28,1,3.22,3.22,0,0,1-.64.85,3,3,0,0,1-1,.61,3.67,3.67,0,0,1-1.33.23,3.57,3.57,0,0,1-1.77-.43,3.14,3.14,0,0,1-1.23-1.27,4.26,4.26,0,0,1-.45-2,4.13,4.13,0,0,1,.46-2,3,3,0,0,1,1.24-1.27,3.52,3.52,0,0,1,1.75-.43A4,4,0,0,1,400,164a3.14,3.14,0,0,1,1,.53,2.91,2.91,0,0,1,.69.86A3.07,3.07,0,0,1,402,166.59Z"/><path class="b" d="M404.39,171.23H402.5L405,164h2.34l2.45,7.27h-1.89l-1.71-5.44h0Zm-.25-2.86h3.95v1.33h-3.95Z"/><path class="b" d="M416.72,164v7.27h-1.49l-2.89-4.2h0v4.2h-1.76V164h1.52l2.86,4.19H415V164Z"/><path class="b" d="M423.06,165.78v1.28h-3.45v-1.28Zm-2.72-1.31h1.73v5.05a.58.58,0,0,0,.05.25.31.31,0,0,0,.16.14.53.53,0,0,0,.23,0,.75.75,0,0,0,.21,0l.17,0,.26,1.25-.34.09a2.73,2.73,0,0,1-.54.07,2.6,2.6,0,0,1-1-.14,1.37,1.37,0,0,1-.66-.54,1.57,1.57,0,0,1-.22-.92Z"/><path class="b" d="M423.94,171.23v-5.45h1.69v1h.06a1.47,1.47,0,0,1,.48-.8,1.24,1.24,0,0,1,.79-.27l.25,0a.86.86,0,0,1,.23.05v1.51a1.18,1.18,0,0,0-.32-.07l-.36,0a1.12,1.12,0,0,0-.55.14,1,1,0,0,0-.39.38,1.15,1.15,0,0,0-.14.57v3Z"/><path class="b" d="M429.49,171.32a2.27,2.27,0,0,1-.93-.17,1.43,1.43,0,0,1-.63-.53,1.59,1.59,0,0,1-.24-.9,1.79,1.79,0,0,1,.16-.77,1.46,1.46,0,0,1,.44-.51,2,2,0,0,1,.65-.29,3.73,3.73,0,0,1,.78-.14l.75-.09a1,1,0,0,0,.41-.14.28.28,0,0,0,.13-.26h0a.52.52,0,0,0-.18-.43.81.81,0,0,0-.51-.15,1,1,0,0,0-.56.15.66.66,0,0,0-.26.42l-1.6-.06a1.89,1.89,0,0,1,.36-.89,2,2,0,0,1,.82-.62,3.14,3.14,0,0,1,1.25-.22,3.6,3.6,0,0,1,1,.12,2.48,2.48,0,0,1,.77.35,1.72,1.72,0,0,1,.51.57,1.65,1.65,0,0,1,.18.77v3.71h-1.64v-.76h0a1.57,1.57,0,0,1-.37.47,1.6,1.6,0,0,1-.53.29A2.38,2.38,0,0,1,429.49,171.32Zm.53-1.13a1.07,1.07,0,0,0,.51-.12.9.9,0,0,0,.36-.31.81.81,0,0,0,.13-.47v-.52a1.38,1.38,0,0,1-.17.08l-.23.06-.26,0-.25,0a1.93,1.93,0,0,0-.42.12.71.71,0,0,0-.26.22.51.51,0,0,0-.09.3.5.5,0,0,0,.19.42A.84.84,0,0,0,430,170.19Z"/><path class="b" d="M435.54,168.12v3.11h-1.73v-5.45h1.65v1h.06a1.51,1.51,0,0,1,.61-.79,1.89,1.89,0,0,1,1.05-.28,1.87,1.87,0,0,1,1,.25,1.73,1.73,0,0,1,.67.72,2.44,2.44,0,0,1,.23,1.07v3.48h-1.74V168.1a1,1,0,0,0-.23-.71.82.82,0,0,0-.64-.26.92.92,0,0,0-.48.12.75.75,0,0,0-.32.34A1.07,1.07,0,0,0,435.54,168.12Z"/><path class="b" d="M444.91,167.44l-1.59,0a.69.69,0,0,0-.14-.3.7.7,0,0,0-.29-.21,1,1,0,0,0-.4-.07,1.08,1.08,0,0,0-.52.12.34.34,0,0,0-.2.32.33.33,0,0,0,.13.28,1.05,1.05,0,0,0,.47.19l1.06.2a2.39,2.39,0,0,1,1.21.52,1.21,1.21,0,0,1,.4.95,1.53,1.53,0,0,1-.33,1,2.22,2.22,0,0,1-.89.65,3.55,3.55,0,0,1-1.3.22,3.15,3.15,0,0,1-1.85-.48,1.78,1.78,0,0,1-.76-1.29l1.71,0a.66.66,0,0,0,.3.45,1,1,0,0,0,.6.16,1.09,1.09,0,0,0,.55-.12.39.39,0,0,0,.21-.33.35.35,0,0,0-.16-.3,1.66,1.66,0,0,0-.5-.18l-1-.18a2.27,2.27,0,0,1-1.22-.55,1.39,1.39,0,0,1-.4-1,1.48,1.48,0,0,1,.3-.93,1.81,1.81,0,0,1,.83-.6,3.61,3.61,0,0,1,1.29-.2,2.9,2.9,0,0,1,1.74.46A1.67,1.67,0,0,1,444.91,167.44Z"/><path class="b" d="M448.44,171.33A2.9,2.9,0,0,1,447,171a2.42,2.42,0,0,1-.94-1,3.44,3.44,0,0,1,0-2.94,2.45,2.45,0,0,1,1-1,2.86,2.86,0,0,1,1.47-.35,3.05,3.05,0,0,1,1.32.27,2.13,2.13,0,0,1,.88.77,2.23,2.23,0,0,1,.33,1.17h-1.62a1.11,1.11,0,0,0-.28-.66.85.85,0,0,0-.61-.23.79.79,0,0,0-.52.17,1,1,0,0,0-.36.49,2.83,2.83,0,0,0,0,1.63,1.06,1.06,0,0,0,.36.5.85.85,0,0,0,.52.17,1,1,0,0,0,.43-.1.77.77,0,0,0,.31-.31,1.13,1.13,0,0,0,.15-.49H451a2.26,2.26,0,0,1-.33,1.18,2.15,2.15,0,0,1-.87.79A3,3,0,0,1,448.44,171.33Z"/><path class="b" d="M454.42,171.33a3,3,0,0,1-1.48-.34,2.26,2.26,0,0,1-.95-1,3.19,3.19,0,0,1-.33-1.5,3.14,3.14,0,0,1,.33-1.48,2.37,2.37,0,0,1,.94-1,2.76,2.76,0,0,1,1.43-.35,3,3,0,0,1,1.07.18,2.32,2.32,0,0,1,.83.53,2.4,2.4,0,0,1,.55.88,3.38,3.38,0,0,1,.19,1.19v.43h-4.74v-1h3.13a1,1,0,0,0-.13-.49,1,1,0,0,0-.35-.34,1.07,1.07,0,0,0-.51-.12,1,1,0,0,0-.52.13,1,1,0,0,0-.51.85v1a1.18,1.18,0,0,0,.13.58.93.93,0,0,0,.37.39,1.18,1.18,0,0,0,.58.14,1.42,1.42,0,0,0,.42-.06,1.13,1.13,0,0,0,.32-.19.72.72,0,0,0,.2-.31l1.6,0a1.92,1.92,0,0,1-.44.93,2.19,2.19,0,0,1-.88.62A3.45,3.45,0,0,1,454.42,171.33Z"/><path class="b" d="M458.77,165.14a.88.88,0,0,1-.63-.24.76.76,0,0,1-.27-.59.74.74,0,0,1,.27-.58.85.85,0,0,1,.63-.25.88.88,0,0,1,.63.25.77.77,0,0,1,.26.58.79.79,0,0,1-.26.59A.92.92,0,0,1,458.77,165.14Zm-.87,6.09v-5.45h1.73v5.45Z"/><path class="b" d="M466,165.78l-1.87,5.45h-2l-1.86-5.45h1.82l1,3.75h.06l1-3.75Z"/><path class="b" d="M469.06,171.33a3,3,0,0,1-1.48-.34,2.26,2.26,0,0,1-.95-1,3.19,3.19,0,0,1-.33-1.5,3,3,0,0,1,.34-1.48,2.31,2.31,0,0,1,.94-1,2.73,2.73,0,0,1,1.43-.35,3,3,0,0,1,1.06.18,2.45,2.45,0,0,1,.84.53,2.51,2.51,0,0,1,.54.88,3.37,3.37,0,0,1,.2,1.19v.43h-4.74v-1H470a.92.92,0,0,0-.13-.49.88.88,0,0,0-.35-.34A1.07,1.07,0,0,0,469,167a1,1,0,0,0-.52.13,1,1,0,0,0-.37.35,1.2,1.2,0,0,0-.14.5v1a1.31,1.31,0,0,0,.13.58,1,1,0,0,0,.38.39,1.15,1.15,0,0,0,.57.14,1.33,1.33,0,0,0,.42-.06,1,1,0,0,0,.32-.19.85.85,0,0,0,.21-.31l1.59,0a1.9,1.9,0,0,1-.43.93,2.26,2.26,0,0,1-.88.62A3.47,3.47,0,0,1,469.06,171.33Z"/><path class="b" d="M472.54,171.23v-5.45h1.69v1h0a1.48,1.48,0,0,1,.49-.8,1.24,1.24,0,0,1,.79-.27l.24,0a.85.85,0,0,1,.24.05v1.51a1.18,1.18,0,0,0-.32-.07l-.36,0a1.16,1.16,0,0,0-.56.14,1,1,0,0,0-.38.38,1,1,0,0,0-.14.57v3Z"/><path class="b" d="M424.38,112.53v-7.27h1.76v2.92H429v-2.92h1.76v7.27H429v-2.92h-2.86v2.92Z"/><path class="b" d="M434.41,112.64a2.87,2.87,0,0,1-1.48-.36,2.36,2.36,0,0,1-.95-1,3.18,3.18,0,0,1-.33-1.47,3.14,3.14,0,0,1,.33-1.48,2.45,2.45,0,0,1,.95-1,3.28,3.28,0,0,1,2.95,0,2.45,2.45,0,0,1,.95,1,3.14,3.14,0,0,1,.33,1.48,3.18,3.18,0,0,1-.33,1.47,2.36,2.36,0,0,1-.95,1A2.86,2.86,0,0,1,434.41,112.64Zm0-1.31a.79.79,0,0,0,.52-.19,1.22,1.22,0,0,0,.34-.54,2.64,2.64,0,0,0,.11-.79,2.69,2.69,0,0,0-.11-.79,1.13,1.13,0,0,0-.34-.53.75.75,0,0,0-.52-.2.81.81,0,0,0-.55.2,1.13,1.13,0,0,0-.34.53,2.69,2.69,0,0,0-.11.79,2.64,2.64,0,0,0,.11.79,1.22,1.22,0,0,0,.34.54A.85.85,0,0,0,434.42,111.33Z"/><path class="b" d="M442.82,108.75l-1.6,0a.66.66,0,0,0-.13-.31,1.08,1.08,0,0,0-.29-.21,1,1,0,0,0-.41-.07,1,1,0,0,0-.51.12.37.37,0,0,0-.21.33.34.34,0,0,0,.13.27,1.1,1.1,0,0,0,.48.19l1.05.2a2.51,2.51,0,0,1,1.22.52,1.25,1.25,0,0,1,.4,1,1.5,1.5,0,0,1-.33,1,2.1,2.1,0,0,1-.9.65,3.51,3.51,0,0,1-1.3.23,3.12,3.12,0,0,1-1.84-.48,1.8,1.8,0,0,1-.77-1.29l1.72-.05a.65.65,0,0,0,.29.46,1.13,1.13,0,0,0,.61.15,1.08,1.08,0,0,0,.54-.12.4.4,0,0,0,.22-.33.39.39,0,0,0-.17-.3,1.37,1.37,0,0,0-.5-.17l-.95-.18a2.21,2.21,0,0,1-1.22-.56,1.38,1.38,0,0,1-.4-1,1.48,1.48,0,0,1,.29-.94,1.9,1.9,0,0,1,.84-.6,3.78,3.78,0,0,1,1.28-.2,2.93,2.93,0,0,1,1.75.46A1.72,1.72,0,0,1,442.82,108.75Z"/><path class="b" d="M446.88,107.08v1.28h-3.44v-1.28Zm-2.72-1.31h1.74v5a.5.5,0,0,0,.05.26.29.29,0,0,0,.15.14.8.8,0,0,0,.24,0l.21,0,.17,0,.26,1.26-.35.09a3.69,3.69,0,0,1-.54.06,2.57,2.57,0,0,1-1-.14,1.39,1.39,0,0,1-.67-.54,1.72,1.72,0,0,1-.22-.92Z"/><path class="b" d="M481,119.71H390a6.43,6.43,0,0,1-6.43-6.43V102.91A6.44,6.44,0,0,1,390,96.47h91a6.45,6.45,0,0,1,6.43,6.44v10.37A6.44,6.44,0,0,1,481,119.71ZM390,99a3.94,3.94,0,0,0-3.93,3.94v10.37a3.93,3.93,0,0,0,3.93,3.93h91a3.93,3.93,0,0,0,3.93-3.93V102.91A3.94,3.94,0,0,0,481,99Z"/><path class="b" d="M481,149.34H390a6.43,6.43,0,0,1-6.43-6.43V132.54A6.44,6.44,0,0,1,390,126.1h91a6.45,6.45,0,0,1,6.43,6.44v10.37A6.44,6.44,0,0,1,481,149.34ZM390,128.6a3.94,3.94,0,0,0-3.93,3.94v10.37a3.93,3.93,0,0,0,3.93,3.93h91a3.93,3.93,0,0,0,3.93-3.93V132.54A3.94,3.94,0,0,0,481,128.6Z"/><path class="b" d="M481,177.79H390a6.44,6.44,0,0,1-6.43-6.44V161a6.43,6.43,0,0,1,6.43-6.43h91a6.44,6.44,0,0,1,6.43,6.43v10.37A6.45,6.45,0,0,1,481,177.79Zm-91-20.74a3.93,3.93,0,0,0-3.93,3.93v10.37a3.94,3.94,0,0,0,3.93,3.94h91a3.94,3.94,0,0,0,3.93-3.94V161a3.93,3.93,0,0,0-3.93-3.93Z"/><path class="b" d="M437.25,128.27A1.25,1.25,0,0,1,436,127V118.8a1.25,1.25,0,1,1,2.5,0V127A1.25,1.25,0,0,1,437.25,128.27Z"/><path class="b" d="M437.25,156.27A1.25,1.25,0,0,1,436,155v-5.7a1.25,1.25,0,1,1,2.5,0V155A1.25,1.25,0,0,1,437.25,156.27Z"/><path class="b" d="M463,260.57c-9.55,0-14.11-12.62-18.52-24.83-4.11-11.39-8.37-23.17-16.16-23.17s-12,11.78-16.15,23.17c-4.41,12.21-9,24.83-18.51,24.83S379.58,248,375.18,235.74c-4.12-11.39-8.37-23.17-16.16-23.17s-12,11.78-16.16,23.17c-4.41,12.21-9,24.83-18.51,24.83s-14.1-12.62-18.51-24.83c-4.11-11.39-8.37-23.17-16.16-23.17s-12,11.78-16.15,23.17c-4.41,12.21-9,24.83-18.51,24.83s-14.1-12.62-18.51-24.83c-4.11-11.39-8.36-23.17-16.15-23.17s-12,11.78-16.16,23.17c-4.41,12.21-9,24.83-18.51,24.83s-14.1-12.62-18.51-24.83c-4.11-11.39-8.36-23.17-16.15-23.17S139,224.35,134.87,235.74c-4.41,12.21-9,24.83-18.51,24.83s-14.1-12.62-18.5-24.83c-4.12-11.39-8.37-23.17-16.16-23.17a1.25,1.25,0,1,1,0-2.5c9.54,0,14.1,12.62,18.51,24.82,4.11,11.39,8.36,23.18,16.15,23.18s12-11.79,16.16-23.18c4.41-12.2,9-24.82,18.51-24.82s14.1,12.62,18.51,24.82c4.11,11.39,8.36,23.18,16.15,23.18s12.05-11.79,16.16-23.18c4.41-12.2,9-24.82,18.51-24.82s14.1,12.62,18.51,24.82c4.11,11.39,8.36,23.18,16.15,23.18s12-11.79,16.16-23.18c4.4-12.2,9-24.82,18.5-24.82s14.11,12.62,18.51,24.82c4.12,11.39,8.37,23.18,16.16,23.18s12-11.79,16.16-23.18c4.41-12.2,9-24.82,18.51-24.82s14.1,12.62,18.51,24.82c4.11,11.39,8.37,23.18,16.16,23.18s12-11.79,16.15-23.18c4.41-12.2,9-24.82,18.51-24.82s14.11,12.62,18.52,24.82c4.11,11.39,8.37,23.18,16.16,23.18s12-11.79,16.16-23.18c4.41-12.2,9-24.82,18.51-24.82a1.25,1.25,0,0,1,0,2.5c-7.79,0-12.05,11.78-16.16,23.17C477.13,248,472.57,260.57,463,260.57Z"/><path class="a" d="M497.7,260.57c-9.55,0-14.1-12.62-18.51-24.83-4.11-11.39-8.37-23.17-16.15-23.17S451,224.35,446.88,235.74c-4.41,12.21-9,24.83-18.51,24.83s-14.1-12.62-18.51-24.83c-4.11-11.39-8.37-23.17-16.16-23.17s-12,11.78-16.15,23.17c-4.41,12.21-9,24.83-18.51,24.83s-14.1-12.62-18.51-24.83c-4.11-11.39-8.37-23.17-16.15-23.17s-12.05,11.78-16.16,23.17c-4.41,12.21-9,24.83-18.51,24.83S275.61,248,271.2,235.74c-4.11-11.39-8.36-23.17-16.15-23.17S243,224.35,238.89,235.74c-4.41,12.21-9,24.83-18.51,24.83s-14.1-12.62-18.51-24.83c-4.11-11.39-8.37-23.17-16.16-23.17s-12,11.78-16.16,23.17c-4.4,12.21-9,24.83-18.51,24.83s-14.1-12.62-18.51-24.83c-4.11-11.39-8.37-23.17-16.16-23.17s-12,11.78-16.16,23.17c-4.41,12.21-9,24.83-18.51,24.83a1.25,1.25,0,1,1,0-2.5c7.79,0,12-11.79,16.16-23.18,4.41-12.2,9-24.82,18.51-24.82s14.11,12.62,18.51,24.82c4.12,11.39,8.37,23.18,16.16,23.18s12.05-11.79,16.16-23.18c4.41-12.2,9-24.82,18.51-24.82s14.1,12.62,18.51,24.82c4.12,11.39,8.37,23.18,16.16,23.18s12-11.79,16.16-23.18c4.41-12.2,9-24.82,18.51-24.82s14.1,12.62,18.51,24.82c4.11,11.39,8.36,23.18,16.15,23.18s12.05-11.79,16.16-23.18c4.41-12.2,9-24.82,18.51-24.82s14.1,12.62,18.5,24.82c4.12,11.39,8.37,23.18,16.16,23.18s12-11.79,16.16-23.18c4.4-12.2,9-24.82,18.5-24.82s14.11,12.62,18.51,24.82c4.12,11.39,8.37,23.18,16.16,23.18s12-11.78,16.16-23.18c4.4-12.2,9-24.82,18.51-24.82s14.1,12.62,18.5,24.82c4.12,11.39,8.37,23.18,16.16,23.18a1.25,1.25,0,0,1,0,2.5Z"/><path class="b" d="M81.59,225.77a1.25,1.25,0,0,1-1.25-1.25V211.39a1.25,1.25,0,0,1,2.5,0v13.13A1.25,1.25,0,0,1,81.59,225.77Z"/><path class="a" d="M81.07,260.57a1.25,1.25,0,0,1-1.25-1.25V246.19a1.25,1.25,0,0,1,2.5,0v13.13A1.25,1.25,0,0,1,81.07,260.57Z"/><path class="b" d="M87,246.41H75.44a1.25,1.25,0,0,1-1.25-1.25V225.28A1.25,1.25,0,0,1,75.44,224H87a1.25,1.25,0,0,1,1.25,1.25v19.88A1.25,1.25,0,0,1,87,246.41Zm-10.31-2.5h9.06V226.53H76.69Z"/><path class="b" d="M498.92,225.77a1.25,1.25,0,0,1-1.25-1.25V211.39a1.25,1.25,0,1,1,2.5,0v13.13A1.25,1.25,0,0,1,498.92,225.77Z"/><path class="a" d="M498.4,260.57a1.25,1.25,0,0,1-1.25-1.25V246.19a1.25,1.25,0,1,1,2.5,0v13.13A1.25,1.25,0,0,1,498.4,260.57Z"/><path class="b" d="M504.33,246.41H492.77a1.25,1.25,0,0,1-1.25-1.25V225.28a1.25,1.25,0,0,1,1.25-1.25h11.56a1.25,1.25,0,0,1,1.25,1.25v19.88A1.25,1.25,0,0,1,504.33,246.41ZM494,243.91h9.06V226.53H494Z"/><path class="b" d="M62.45,237.88v-7.27h3a3.12,3.12,0,0,1,1.41.29,2.14,2.14,0,0,1,.92.84,2.52,2.52,0,0,1,.32,1.29,2.37,2.37,0,0,1-.33,1.28,2.06,2.06,0,0,1-.94.8,3.33,3.33,0,0,1-1.44.28H63.5V234h1.58a1.83,1.83,0,0,0,.66-.1.84.84,0,0,0,.41-.32,1,1,0,0,0,.14-.55,1.06,1.06,0,0,0-.14-.56.8.8,0,0,0-.41-.33,1.62,1.62,0,0,0-.66-.12h-.87v5.86Zm4.1-3.32,1.81,3.32H66.44l-1.78-3.32Z"/><path class="b" d="M68.7,237v-.86h3.69V237H71.06v3.51H70V237Z"/><path class="b" d="M508,238.72v-7.27h3a3.19,3.19,0,0,1,1.41.29,2.15,2.15,0,0,1,.92.84,2.72,2.72,0,0,1,0,2.58,2.15,2.15,0,0,1-.93.8,3.56,3.56,0,0,1-1.44.27H509v-1.38h1.57a1.84,1.84,0,0,0,.67-.11.8.8,0,0,0,.4-.32.92.92,0,0,0,.14-.55,1,1,0,0,0-.14-.56.82.82,0,0,0-.4-.33,1.71,1.71,0,0,0-.67-.11h-.87v5.85Zm4.09-3.32,1.81,3.32H512l-1.77-3.32Z"/><path class="b" d="M514.22,237.87V237h3.69v.85h-1.32v3.51h-1v-3.51Z"/><path class="b" d="M127,251.78a1.25,1.25,0,0,1-1.25-1.25V177.39a1.25,1.25,0,0,1,2.5,0v73.14A1.25,1.25,0,0,1,127,251.78Z"/><path class="b" d="M122.54,250.31a4.42,4.42,0,1,0,4.42-4.42A4.41,4.41,0,0,0,122.54,250.31Z"/><path class="b" d="M265.85,251.78a1.25,1.25,0,0,1-1.25-1.25V177.39a1.25,1.25,0,0,1,2.5,0v73.14A1.25,1.25,0,0,1,265.85,251.78Z"/><path class="b" d="M261.43,250.31a4.42,4.42,0,1,0,4.42-4.42A4.41,4.41,0,0,0,261.43,250.31Z"/><path class="b" d="M405,252.22a1.25,1.25,0,0,1-1.25-1.25V177.83a1.25,1.25,0,1,1,2.5,0V251A1.25,1.25,0,0,1,405,252.22Z"/><path class="b" d="M400.54,250.75a4.42,4.42,0,1,0,4.42-4.42A4.42,4.42,0,0,0,400.54,250.75Z"/><path class="a" d="M69.17,267.67H67.39a1.53,1.53,0,0,0-.14-.5,1.19,1.19,0,0,0-.29-.37,1.14,1.14,0,0,0-.43-.24,1.72,1.72,0,0,0-1.46.17,1.59,1.59,0,0,0-.58.75,3,3,0,0,0-.21,1.19,3.09,3.09,0,0,0,.21,1.21,1.53,1.53,0,0,0,1.48,1,1.74,1.74,0,0,0,.53-.07,1.59,1.59,0,0,0,.43-.22,1.27,1.27,0,0,0,.3-.35,1.45,1.45,0,0,0,.16-.47h1.78a2.59,2.59,0,0,1-.28.95,2.88,2.88,0,0,1-.64.85,3.15,3.15,0,0,1-1,.62,3.67,3.67,0,0,1-1.33.22,3.57,3.57,0,0,1-1.77-.43,3.14,3.14,0,0,1-1.23-1.27,4.26,4.26,0,0,1-.45-2,4.16,4.16,0,0,1,.46-2,3.16,3.16,0,0,1,1.24-1.27,3.63,3.63,0,0,1,1.75-.43,4,4,0,0,1,1.22.18,3.17,3.17,0,0,1,1,.54,2.87,2.87,0,0,1,.69.85A3.07,3.07,0,0,1,69.17,267.67Z"/><path class="a" d="M71.56,272.3H69.67L72.13,265h2.34l2.45,7.27H75l-1.71-5.44h0Zm-.25-2.86h4v1.34h-4Z"/><path class="a" d="M83.9,265v7.27H82.4l-2.89-4.19h-.05v4.19H77.71V265h1.51l2.86,4.19h.06V265Z"/><path class="a" d="M88.88,265v7.27H87.15V265Z"/><path class="a" d="M92.53,272.41a2.86,2.86,0,0,1-1.47-.36,2.36,2.36,0,0,1-1-1,3.19,3.19,0,0,1-.33-1.48,3.12,3.12,0,0,1,.33-1.47,2.45,2.45,0,0,1,1-1,3,3,0,0,1,1.47-.35,3,3,0,0,1,1.48.35,2.51,2.51,0,0,1,.95,1,3.12,3.12,0,0,1,.33,1.47,3.19,3.19,0,0,1-.33,1.48,2.42,2.42,0,0,1-.95,1A2.9,2.9,0,0,1,92.53,272.41Zm0-1.31a.76.76,0,0,0,.53-.2,1.05,1.05,0,0,0,.33-.53,2.39,2.39,0,0,0,.12-.79,2.34,2.34,0,0,0-.12-.79,1.13,1.13,0,0,0-.33-.54.8.8,0,0,0-.53-.19.85.85,0,0,0-.54.19,1.22,1.22,0,0,0-.34.54,2.34,2.34,0,0,0-.12.79,2.39,2.39,0,0,0,.12.79,1.13,1.13,0,0,0,.34.53A.8.8,0,0,0,92.54,271.1Z"/><path class="a" d="M97.08,272.3l-1.42-5.45H97.4l.74,3.49h0l.79-3.49h1.7l.81,3.47h0l.71-3.47H104l-1.43,5.45h-1.85l-.86-3.18h-.06l-.85,3.18Z"/><path class="b" d="M67,202.13H65.18a1.61,1.61,0,0,0-.14-.5,1.16,1.16,0,0,0-.29-.37,1.14,1.14,0,0,0-.43-.24,1.57,1.57,0,0,0-.54-.09,1.63,1.63,0,0,0-.92.26,1.69,1.69,0,0,0-.58.75,3.53,3.53,0,0,0,0,2.4,1.5,1.5,0,0,0,1.48,1,1.81,1.81,0,0,0,.54-.07,1.3,1.3,0,0,0,.42-.22,1.14,1.14,0,0,0,.3-.35,1.45,1.45,0,0,0,.16-.47H67a2.59,2.59,0,0,1-.28.95A3.06,3.06,0,0,1,66,206a3,3,0,0,1-1,.61,3.67,3.67,0,0,1-1.33.23,3.57,3.57,0,0,1-1.77-.44,3.08,3.08,0,0,1-1.23-1.27,4.23,4.23,0,0,1-.45-2,4.16,4.16,0,0,1,.46-2A3.13,3.13,0,0,1,62,199.83a3.53,3.53,0,0,1,1.75-.44,3.67,3.67,0,0,1,1.22.19,3.14,3.14,0,0,1,1,.53,2.79,2.79,0,0,1,.69.86A3,3,0,0,1,67,202.13Z"/><path class="b" d="M69.35,206.77H67.46l2.46-7.28h2.34l2.45,7.28H72.82l-1.71-5.44h0Zm-.25-2.87h4v1.34h-4Z"/><path class="b" d="M81.69,199.49v7.28h-1.5l-2.89-4.2h0v4.2H75.5v-7.28H77l2.86,4.19h.06v-4.19Z"/><path class="b" d="M86.68,203.66v3.11H84.94v-7.28h1.68v2.82h.06a1.59,1.59,0,0,1,.6-.79,1.92,1.92,0,0,1,1-.28,2,2,0,0,1,1,.25,1.77,1.77,0,0,1,.66.72,2.32,2.32,0,0,1,.23,1.08v3.48H88.48v-3.14a1,1,0,0,0-.23-.71.84.84,0,0,0-.65-.26,1,1,0,0,0-.48.12.9.9,0,0,0-.33.34A1.27,1.27,0,0,0,86.68,203.66Z"/><path class="b" d="M92.16,200.68a.93.93,0,0,1-.63-.25.79.79,0,0,1,0-1.17.92.92,0,0,1,.63-.24.88.88,0,0,1,.63.24.79.79,0,0,1,0,1.17A.89.89,0,0,1,92.16,200.68Zm-.87,6.09v-5.46H93v5.46Z"/><path class="b" d="M96.67,208.93a3.74,3.74,0,0,1-1.33-.22,2.16,2.16,0,0,1-.87-.59,1.67,1.67,0,0,1-.38-.86l1.64-.09a.68.68,0,0,0,.18.29.76.76,0,0,0,.33.19,1.35,1.35,0,0,0,.48.07,1.18,1.18,0,0,0,.72-.21.87.87,0,0,0,.29-.74v-1h-.06a1.42,1.42,0,0,1-.32.46,1.56,1.56,0,0,1-.52.31,2.16,2.16,0,0,1-.71.11,2.13,2.13,0,0,1-1.09-.28,2,2,0,0,1-.79-.86,3.37,3.37,0,0,1-.3-1.52,3.43,3.43,0,0,1,.31-1.57,2.08,2.08,0,0,1,.8-.92,2,2,0,0,1,1.06-.3,1.65,1.65,0,0,1,.74.15,1.52,1.52,0,0,1,.51.38,1.75,1.75,0,0,1,.3.48h0v-.94h1.73v5.48a2,2,0,0,1-.35,1.17,2.25,2.25,0,0,1-1,.72A4,4,0,0,1,96.67,208.93Zm.06-3.5a.84.84,0,0,0,.53-.17,1,1,0,0,0,.35-.48,2.11,2.11,0,0,0,.12-.75,2.16,2.16,0,0,0-.12-.76,1.09,1.09,0,0,0-.34-.5.89.89,0,0,0-.54-.17.9.9,0,0,0-.55.17,1.14,1.14,0,0,0-.34.5,2.2,2.2,0,0,0-.12.76,2.11,2.11,0,0,0,.12.75,1,1,0,0,0,.34.48A.9.9,0,0,0,96.73,205.43Z"/><path class="b" d="M102.28,203.66v3.11h-1.74v-7.28h1.68v2.82h.06a1.66,1.66,0,0,1,.61-.79,1.86,1.86,0,0,1,1-.28,2,2,0,0,1,1,.25,1.64,1.64,0,0,1,.66.72,2.32,2.32,0,0,1,.24,1.08v3.48h-1.74v-3.14a1,1,0,0,0-.23-.71.83.83,0,0,0-.65-.26,1,1,0,0,0-.48.12.87.87,0,0,0-.32.34A1.13,1.13,0,0,0,102.28,203.66Z"/><path class="a" d="M483.84,267.67h-1.78a1.33,1.33,0,0,0-.15-.5,1.06,1.06,0,0,0-.29-.37,1.1,1.1,0,0,0-.42-.24,1.63,1.63,0,0,0-.55-.09,1.6,1.6,0,0,0-.91.26,1.67,1.67,0,0,0-.59.75,3.22,3.22,0,0,0-.2,1.19,3.09,3.09,0,0,0,.21,1.21,1.59,1.59,0,0,0,.58.73,1.56,1.56,0,0,0,.9.25,1.79,1.79,0,0,0,.53-.07,1.4,1.4,0,0,0,.42-.22,1.15,1.15,0,0,0,.31-.35,1.74,1.74,0,0,0,.16-.47h1.78a2.79,2.79,0,0,1-.28.95,3.07,3.07,0,0,1-1.63,1.47,3.64,3.64,0,0,1-1.33.22,3.56,3.56,0,0,1-1.76-.43,3.14,3.14,0,0,1-1.23-1.27,4.83,4.83,0,0,1,0-4.07,3.23,3.23,0,0,1,1.24-1.27,3.66,3.66,0,0,1,1.75-.43,4.06,4.06,0,0,1,1.23.18,3,3,0,0,1,1,.54,2.75,2.75,0,0,1,.7.85A3.47,3.47,0,0,1,483.84,267.67Z"/><path class="a" d="M486.23,272.3h-1.89l2.45-7.27h2.34l2.46,7.27H489.7L488,266.86h-.06Zm-.25-2.86h3.95v1.34H486Z"/><path class="a" d="M498.56,265v7.27h-1.49l-2.89-4.19h-.05v4.19h-1.76V265h1.52l2.86,4.19h.06V265Z"/><path class="a" d="M503.55,265v7.27h-1.73V265Z"/><path class="a" d="M507.2,272.41a2.9,2.9,0,0,1-1.48-.36,2.42,2.42,0,0,1-1-1,3.19,3.19,0,0,1-.33-1.48,3.12,3.12,0,0,1,.33-1.47,2.51,2.51,0,0,1,1-1,3,3,0,0,1,1.48-.35,3,3,0,0,1,1.47.35,2.45,2.45,0,0,1,.95,1,3.12,3.12,0,0,1,.33,1.47,3.19,3.19,0,0,1-.33,1.48,2.36,2.36,0,0,1-.95,1A2.86,2.86,0,0,1,507.2,272.41Zm0-1.31a.78.78,0,0,0,.53-.2,1.21,1.21,0,0,0,.33-.53,2.39,2.39,0,0,0,.12-.79,2.34,2.34,0,0,0-.12-.79,1.31,1.31,0,0,0-.33-.54.82.82,0,0,0-.53-.19.85.85,0,0,0-.55.19,1.21,1.21,0,0,0-.33.54,2.34,2.34,0,0,0-.12.79,2.39,2.39,0,0,0,.12.79,1.12,1.12,0,0,0,.33.53A.81.81,0,0,0,507.21,271.1Z"/><path class="a" d="M511.75,272.3l-1.42-5.45h1.74l.74,3.49h0l.79-3.49h1.7l.81,3.47h.05l.71-3.47h1.74l-1.42,5.45h-1.86l-.85-3.18h-.06l-.85,3.18Z"/><path class="b" d="M481.63,202.13h-1.78a1.61,1.61,0,0,0-.14-.5,1.19,1.19,0,0,0-.3-.37A1.1,1.1,0,0,0,479,201a1.63,1.63,0,0,0-.55-.09,1.6,1.6,0,0,0-.91.26,1.78,1.78,0,0,0-.59.75,3.26,3.26,0,0,0-.2,1.19,3.05,3.05,0,0,0,.21,1.21,1.62,1.62,0,0,0,.58.74,1.68,1.68,0,0,0,.9.24,1.79,1.79,0,0,0,.53-.07,1.2,1.2,0,0,0,.42-.22,1,1,0,0,0,.31-.35,1.45,1.45,0,0,0,.16-.47h1.78a2.79,2.79,0,0,1-.28.95,3.26,3.26,0,0,1-.64.86,3.13,3.13,0,0,1-1,.61,3.67,3.67,0,0,1-1.33.23,3.57,3.57,0,0,1-1.77-.44,3.08,3.08,0,0,1-1.23-1.27,4.83,4.83,0,0,1,0-4.07,3.16,3.16,0,0,1,1.25-1.26,3.53,3.53,0,0,1,1.75-.44,3.71,3.71,0,0,1,1.22.19,3,3,0,0,1,1,.53,2.68,2.68,0,0,1,.7.86A3.42,3.42,0,0,1,481.63,202.13Z"/><path class="b" d="M484,206.77h-1.89l2.45-7.28h2.35l2.45,7.28h-1.89l-1.71-5.44h0Zm-.25-2.87h4v1.34h-4Z"/><path class="b" d="M496.35,199.49v7.28h-1.49l-2.89-4.2h-.05v4.2h-1.76v-7.28h1.52l2.86,4.19h.06v-4.19Z"/><path class="b" d="M501.34,203.66v3.11h-1.73v-7.28h1.68v2.82h.06a1.59,1.59,0,0,1,.6-.79,1.89,1.89,0,0,1,1-.28,2,2,0,0,1,1,.25,1.77,1.77,0,0,1,.66.72,2.45,2.45,0,0,1,.23,1.08v3.48h-1.74v-3.14a1,1,0,0,0-.22-.71.84.84,0,0,0-.65-.26,1,1,0,0,0-.49.12,1,1,0,0,0-.32.34A1.13,1.13,0,0,0,501.34,203.66Z"/><path class="b" d="M506.83,200.68a.93.93,0,0,1-.63-.25.79.79,0,0,1,0-1.17.92.92,0,0,1,.63-.24.9.9,0,0,1,.63.24.79.79,0,0,1,0,1.17A.91.91,0,0,1,506.83,200.68Zm-.87,6.09v-5.46h1.74v5.46Z"/><path class="b" d="M511.34,208.93a3.74,3.74,0,0,1-1.33-.22,2.16,2.16,0,0,1-.87-.59,1.67,1.67,0,0,1-.38-.86l1.64-.09a.66.66,0,0,0,.17.29.89.89,0,0,0,.33.19,1.43,1.43,0,0,0,.48.07,1.19,1.19,0,0,0,.73-.21.86.86,0,0,0,.28-.74v-1h-.06a1.38,1.38,0,0,1-.31.46,1.56,1.56,0,0,1-.52.31,2.2,2.2,0,0,1-.71.11,2.13,2.13,0,0,1-1.09-.28,2,2,0,0,1-.8-.86,3.52,3.52,0,0,1-.29-1.52,3.57,3.57,0,0,1,.3-1.57,2.15,2.15,0,0,1,.8-.92,2,2,0,0,1,1.07-.3,1.68,1.68,0,0,1,.74.15,1.47,1.47,0,0,1,.5.38,1.57,1.57,0,0,1,.31.48h0v-.94h1.73v5.48a2,2,0,0,1-.35,1.17,2.23,2.23,0,0,1-1,.72A3.94,3.94,0,0,1,511.34,208.93Zm.05-3.5a.89.89,0,0,0,.54-.17,1,1,0,0,0,.35-.48,2.11,2.11,0,0,0,.12-.75,2.16,2.16,0,0,0-.12-.76,1.1,1.1,0,0,0-.35-.5.89.89,0,0,0-.54-.17.87.87,0,0,0-.54.17,1.06,1.06,0,0,0-.34.5,2.2,2.2,0,0,0-.12.76,2.11,2.11,0,0,0,.12.75,1,1,0,0,0,.34.48A.87.87,0,0,0,511.39,205.43Z"/><path class="b" d="M517,203.66v3.11h-1.74v-7.28h1.68v2.82H517a1.55,1.55,0,0,1,.61-.79,1.86,1.86,0,0,1,1-.28,2,2,0,0,1,1,.25,1.77,1.77,0,0,1,.66.72,2.2,2.2,0,0,1,.23,1.08v3.48h-1.73v-3.14a1,1,0,0,0-.23-.71.84.84,0,0,0-.65-.26,1,1,0,0,0-.48.12.81.81,0,0,0-.32.34A1.13,1.13,0,0,0,517,203.66Z"/></svg>