<svg id="Layer_1" data-name="Layer 1" xmlns="http://www.w3.org/2000/svg" xmlns:xlink="http://www.w3.org/1999/xlink" viewBox="0 0 283.46 283.46"><defs><style>.cls-1,.cls-3,.cls-4,.cls-6{fill:none;}.cls-2{fill:#7f7f7f;fill-rule:evenodd;}.cls-3{stroke:#7f7f7f;stroke-miterlimit:10;stroke-dasharray:1 1;}.cls-4{stroke:#f2f2f2;}.cls-4,.cls-6{stroke-linejoin:round;stroke-width:0.75px;}.cls-5{fill:#33aec5;}.cls-6{stroke:#33aec5;}.cls-7{fill:#ed7d30;}.cls-8{clip-path:url(#clip-path);}.cls-9{fill:#595959;}</style><clipPath id="clip-path"><rect id="SVGID" class="cls-1" x="-14.93" y="-15.59" width="347.67" height="229.63"/></clipPath></defs><polygon class="cls-2" points="64.66 86.28 137.37 109.36 92.44 48.92 137.37 109.36 137.37 34.65 137.37 109.36 182.29 48.92 137.37 109.36 210.07 86.28 137.37 109.36 210.07 132.45 137.37 109.36 182.29 169.8 137.37 109.36 137.37 184.08 137.37 109.36 92.44 169.8 137.37 109.36 64.66 132.45 137.37 109.36 64.66 86.28"/><polygon class="cls-3" points="64.66 86.28 137.37 109.36 92.44 48.92 137.37 109.36 137.37 34.65 137.37 109.36 182.29 48.92 137.37 109.36 210.07 86.28 137.37 109.36 210.07 132.45 137.37 109.36 182.29 169.8 137.37 109.36 137.37 184.08 137.37 109.36 92.44 169.8 137.37 109.36 64.66 132.45 137.37 109.36 64.66 86.28"/><path class="cls-4" d="M94.75,50.92l42.87-14M68.24,87.35,94.75,50.92M68.24,132.43V87.35M94.75,169,68.24,132.43m69.38,50.43L94.75,169m85.73,0-42.86,13.9M207,132.43,180.48,169M207,87.35v45.08M180.48,50.92,207,87.35M137.62,37l42.86,14m-81.4,5.84,38.54-12.48M75.13,89.66l24-32.9m-24,73.45V89.66m24,73.36-24-32.81m62.49,45.39L99.08,163m77.08,0L137.62,175.6m62.49-45.39-24,32.81m24-73.36v40.55m-24-73.45,24,32.9M137.62,44.28l38.54,12.48M103.3,62.69l34.32-11.17M82.07,91.88,103.3,62.69M82.07,127.9v-36m21.23,65.2L82.07,127.9m55.55,40.35L103.3,157.08m68.63,0-34.31,11.17m55.54-40.35-21.23,29.18m21.23-65.2v36M171.93,62.69l21.23,29.19M137.62,51.52l34.31,11.17m-64.3,5.94,30-9.76M89,94.09l18.62-25.46M89,125.69V94.09m18.62,57.16L89,125.69M137.62,161l-30-9.76m60,0-30,9.76m48.6-35.32L167.6,151.25m18.62-57.16v31.6M167.6,68.63l18.62,25.46m-48.6-35.22,30,9.76m-55.74,5.84,25.76-8.35M96,96.4l15.9-21.93m-15.9,49V96.4m15.9,48.91L96,123.47m41.66,30.19-25.76-8.35m51.52,0-25.76,8.35m41.66-30.19-15.9,21.84m15.9-48.91v27.07m-15.9-49,15.9,21.93M137.62,66.12l25.76,8.35m-47.2,5.93,21.44-6.94M102.9,98.62,116.18,80.4M102.9,121.16V98.62m13.28,40.75L102.9,121.16m34.72,25.26-21.44-7m42.87,0-21.43,7m34.71-25.26-13.28,18.21m13.28-40.75v22.54M159.05,80.4l13.28,18.22M137.62,73.46l21.43,6.94m-38.54,5.94,17.11-5.63m-27.78,20.22,10.67-14.59m-10.67,32.6v-18m10.67,32.61-10.67-14.6m27.78,20.13-17.11-5.53m34.21,0-17.1,5.53m27.77-20.13-10.67,14.6m10.67-32.61v18m-10.67-32.6,10.67,14.59M137.62,80.71l17.1,5.63m-30,5.84,12.88-4.13m-20.83,15.1,7.95-11m-7.95,24.45V103.15m7.95,24.45-7.95-11m20.83,15.19-12.88-4.22m25.76,0-12.88,4.22m20.83-15.19-7.95,11m7.95-24.45v13.48M150.5,92.18l7.95,11m-20.83-15.1,12.88,4.13m-21.44,5.93,8.56-2.81m-13.89,10.06,5.33-7.25m-5.33,16.31v-9.06m5.33,16.4-5.33-7.34m13.89,10.06-8.56-2.72m17.11,0-8.55,2.72m13.88-10.06-5.33,7.34m5.33-16.4v9.06m-5.33-16.31,5.33,7.25M137.62,95.3l8.55,2.81m-12.88,5.94,4.33-1.41m-7,5,2.62-3.62m-2.62,8.15v-4.53m2.62,8.16-2.62-3.63m7,5-4.33-1.4m8.65,0-4.32,1.4m6.94-5-2.62,3.63m2.62-8.16v4.53m-2.62-8.15,2.62,3.62m-6.94-5,4.32,1.41"/><polygon class="cls-5" points="137.59 75.68 142.62 85.75 132.56 85.75 137.59 75.68"/><polygon class="cls-6" points="137.59 75.68 142.62 85.75 132.56 85.75 137.59 75.68"/><polygon class="cls-5" points="171.91 57.67 176.94 67.73 166.87 67.73 171.91 57.67"/><polygon class="cls-6" points="171.91 57.67 176.94 67.73 166.87 67.73 171.91 57.67"/><polygon class="cls-5" points="193.14 86.85 198.17 96.92 188.11 96.92 193.14 86.85"/><polygon class="cls-6" points="193.14 86.85 198.17 96.92 188.11 96.92 193.14 86.85"/><polygon class="cls-5" points="206.92 127.41 211.95 137.47 201.89 137.47 206.92 127.41"/><polygon class="cls-6" points="206.92 127.41 211.95 137.47 201.89 137.47 206.92 127.41"/><polygon class="cls-5" points="180.46 163.93 185.49 174 175.43 174 180.46 163.93"/><polygon class="cls-6" points="180.46 163.93 185.49 174 175.43 174 180.46 163.93"/><polygon class="cls-5" points="137.59 163.23 142.62 173.29 132.56 173.29 137.59 163.23"/><polygon class="cls-6" points="137.59 163.23 142.62 173.29 132.56 173.29 137.59 163.23"/><polygon class="cls-5" points="129.04 116.74 134.07 126.8 124.01 126.8 129.04 116.74"/><polygon class="cls-6" points="129.04 116.74 134.07 126.8 124.01 126.8 129.04 116.74"/><polygon class="cls-5" points="82.05 122.88 87.08 132.94 77.01 132.94 82.05 122.88"/><polygon class="cls-6" points="82.05 122.88 87.08 132.94 77.01 132.94 82.05 122.88"/><polygon class="cls-5" points="123.7 100.34 128.74 110.4 118.67 110.4 123.7 100.34"/><polygon class="cls-6" points="123.7 100.34 128.74 110.4 118.67 110.4 123.7 100.34"/><polygon class="cls-5" points="120.48 81.32 125.52 91.38 115.45 91.38 120.48 81.32"/><polygon class="cls-6" points="120.48 81.32 125.52 91.38 115.45 91.38 120.48 81.32"/><rect class="cls-7" x="133.36" y="91.08" width="8.35" height="8.35"/><rect class="cls-7" x="176.23" y="46.7" width="8.35" height="8.35"/><rect class="cls-7" x="202.7" y="83.13" width="8.35" height="8.35"/><rect class="cls-7" x="147.25" y="110.2" width="8.35" height="8.35"/><rect class="cls-7" x="167.68" y="152.86" width="8.35" height="8.35"/><rect class="cls-7" x="133.36" y="120.26" width="8.35" height="8.35"/><rect class="cls-7" x="90.5" y="164.74" width="8.35" height="8.35"/><rect class="cls-7" x="119.48" y="110.2" width="8.35" height="8.35"/><rect class="cls-7" x="64.03" y="83.13" width="8.35" height="8.35"/><rect class="cls-7" x="90.5" y="46.7" width="8.35" height="8.35"/><g class="cls-8"><path class="cls-9" d="M107.3,30.81a3,3,0,0,0,0,.35.52.52,0,0,0,.08.2.37.37,0,0,0,.13.12,1,1,0,0,0,.27.08v.18h-1.62v-.18a.84.84,0,0,0,.31-.13.38.38,0,0,0,.1-.2,3.81,3.81,0,0,0,0-.41V27.63a1.79,1.79,0,0,0,0-.37.48.48,0,0,0-.06-.18.36.36,0,0,0-.11-.1,1.82,1.82,0,0,0-.24-.09v-.18H108a2.06,2.06,0,0,1,1.28.33,1.21,1.21,0,0,1,.42,1,1.73,1.73,0,0,1-.13.69,1.34,1.34,0,0,1-.37.5,1.65,1.65,0,0,1-.58.28,3.13,3.13,0,0,1-.7.08h-.63Zm0-1.53h.43a1.75,1.75,0,0,0,.69-.11.8.8,0,0,0,.41-.36,1.31,1.31,0,0,0,.14-.67,1.41,1.41,0,0,0-.08-.53,1,1,0,0,0-.24-.34.89.89,0,0,0-.35-.18,2.14,2.14,0,0,0-.45-.05h-.55Zm4.1-.45h.06a3.58,3.58,0,0,1,.37-.39,2,2,0,0,1,.37-.22,1.35,1.35,0,0,1,.46-.07,2.42,2.42,0,0,1,.39,0V29h-.42a.76.76,0,0,0-.19-.29.37.37,0,0,0-.27-.09.42.42,0,0,0-.26.08,1,1,0,0,0-.26.22.9.9,0,0,0-.16.28.85.85,0,0,0,0,.3v1.29a1.57,1.57,0,0,0,0,.46.31.31,0,0,0,.14.19.7.7,0,0,0,.28.09v.18h-1.49v-.18l.2-.07a.52.52,0,0,0,.11-.1.38.38,0,0,0,.06-.18,1.74,1.74,0,0,0,0-.38v-1.6c0-.16,0-.29,0-.38a.61.61,0,0,0,0-.23.29.29,0,0,0-.14-.13,1,1,0,0,0-.25-.07v-.2l.86,0h.22Zm3.74,3a1.46,1.46,0,0,1-1.17-.45,2,2,0,0,1-.41-1.34,2.26,2.26,0,0,1,.21-1,1.55,1.55,0,0,1,.58-.63,1.8,1.8,0,0,1,.84-.2,1.5,1.5,0,0,1,1.2.46,1.9,1.9,0,0,1,.4,1.31,2.33,2.33,0,0,1-.2,1,1.33,1.33,0,0,1-.57.62A1.79,1.79,0,0,1,115.14,31.8Zm-.88-1.86a2.31,2.31,0,0,0,.24,1.16.75.75,0,0,0,.69.41.7.7,0,0,0,.42-.12.87.87,0,0,0,.28-.32,1.37,1.37,0,0,0,.16-.47,3.43,3.43,0,0,0,0-.56,2.88,2.88,0,0,0-.12-.9,1.06,1.06,0,0,0-.33-.52.68.68,0,0,0-.47-.17.75.75,0,0,0-.68.39A2.06,2.06,0,0,0,114.26,29.94Zm4.75-.32.48-.61a1.45,1.45,0,0,0,.12-.19.49.49,0,0,0,0-.2.2.2,0,0,0-.06-.14.42.42,0,0,0-.2-.08v-.18h1.21v.18a.84.84,0,0,0-.29.16,2.81,2.81,0,0,0-.35.38l-.77.93L120,31a2.57,2.57,0,0,0,.33.37.82.82,0,0,0,.29.18v.18h-1.49v-.18c.21,0,.31-.1.31-.23a.32.32,0,0,0,0-.14.47.47,0,0,0-.09-.17l-.54-.74-.56.74a.65.65,0,0,0-.1.15.33.33,0,0,0,0,.15.22.22,0,0,0,.07.16.34.34,0,0,0,.22.08v.18h-1.23v-.18a.91.91,0,0,0,.22-.11,1.4,1.4,0,0,0,.2-.17l.26-.31.77-.95L117.84,29a2.23,2.23,0,0,0-.25-.32l-.18-.16-.16-.07v-.18h1.44v.18c-.19,0-.29.11-.29.23a.35.35,0,0,0,0,.17,1.45,1.45,0,0,0,.12.19Zm2.15,1.94.21-.07.1-.1a.52.52,0,0,0,.07-.18,3.18,3.18,0,0,0,0-.38v-1.6c0-.16,0-.29,0-.38a.46.46,0,0,0,0-.23.27.27,0,0,0-.13-.13,1.05,1.05,0,0,0-.26-.07v-.2l.86,0h.22v2.63a2.15,2.15,0,0,0,0,.44.31.31,0,0,0,.12.19.7.7,0,0,0,.27.11v.18h-1.45Zm1.06-4.78v.71h-.68v-.71Zm2,2h0a4.26,4.26,0,0,1,.37-.33,1.06,1.06,0,0,1,.27-.18,1,1,0,0,1,.25-.1,1,1,0,0,1,.24,0,1,1,0,0,1,.6.17.91.91,0,0,1,.32.52,3.62,3.62,0,0,1,.45-.41,1.41,1.41,0,0,1,.35-.21,1.22,1.22,0,0,1,.38-.07,1.33,1.33,0,0,1,.43.07.73.73,0,0,1,.3.22,1,1,0,0,1,.18.38,2.41,2.41,0,0,1,.06.6v1.39a1.85,1.85,0,0,0,0,.39.43.43,0,0,0,.05.16.29.29,0,0,0,.11.11l.23.08v.18h-1.45v-.18l.21-.07a.32.32,0,0,0,.1-.1.52.52,0,0,0,.07-.18,1.84,1.84,0,0,0,0-.37v-1c0-.21,0-.38,0-.52a2,2,0,0,0,0-.32.85.85,0,0,0-.09-.19.69.69,0,0,0-.11-.13.53.53,0,0,0-.15-.08.65.65,0,0,0-.22,0,.67.67,0,0,0-.28.06,1.32,1.32,0,0,0-.27.2.77.77,0,0,0-.29.62v1.34a3,3,0,0,0,0,.39.3.3,0,0,0,.06.16.26.26,0,0,0,.1.11l.24.08v.18h-1.45v-.18l.2-.07a.36.36,0,0,0,.11-.1.52.52,0,0,0,.07-.18,3.12,3.12,0,0,0,0-.37v-1c0-.22,0-.4,0-.53a1.22,1.22,0,0,0-.06-.33.51.51,0,0,0-.09-.21l-.13-.12-.15-.06-.19,0a.68.68,0,0,0-.28.07,1.17,1.17,0,0,0-.27.2.9.9,0,0,0-.21.27.6.6,0,0,0-.07.3v1.38a2.73,2.73,0,0,0,0,.32.69.69,0,0,0,0,.18.21.21,0,0,0,.06.1l.1.07.21.07v.18h-1.45v-.18l.2-.07a.52.52,0,0,0,.11-.1.38.38,0,0,0,.06-.18,1.74,1.74,0,0,0,0-.38v-1.6c0-.16,0-.29,0-.38a.61.61,0,0,0,0-.23.29.29,0,0,0-.14-.13,1,1,0,0,0-.25-.07v-.2l.86,0h.22Zm5.34,2.77.2-.07a.36.36,0,0,0,.11-.1.38.38,0,0,0,.06-.18,1.74,1.74,0,0,0,0-.38v-1.6c0-.16,0-.29,0-.38a.46.46,0,0,0-.05-.23.29.29,0,0,0-.14-.13,1,1,0,0,0-.25-.07v-.2l.86,0h.22v2.63a2.15,2.15,0,0,0,0,.44.36.36,0,0,0,.11.19.88.88,0,0,0,.27.11v.18h-1.44Zm1.05-4.78v.71h-.67v-.71Zm.83,1.62a.81.81,0,0,0,.3-.1.52.52,0,0,0,.17-.19,1,1,0,0,0,.11-.29c0-.12.05-.29.07-.51h.53v.91h1.19v.37h-1.19v1.64a4.24,4.24,0,0,0,0,.57.71.71,0,0,0,.11.33.42.42,0,0,0,.18.17.54.54,0,0,0,.27.06.63.63,0,0,0,.27-.06,1.35,1.35,0,0,0,.26-.18l.16.2a2.1,2.1,0,0,1-.49.37,1.21,1.21,0,0,1-.49.11.88.88,0,0,1-.71-.28,1.4,1.4,0,0,1-.23-.88V28.59h-.54Zm4.33,3.65a5.38,5.38,0,0,1-.4.74,1.2,1.2,0,0,1-.42.42,1,1,0,0,1-.55.15,2.68,2.68,0,0,1-.45,0v-.73h.33a.35.35,0,0,0,.11.21.25.25,0,0,0,.19.06.53.53,0,0,0,.19,0,.77.77,0,0,0,.19-.15,2.38,2.38,0,0,0,.22-.32c.08-.14.18-.32.28-.54l-1-2.77a3.61,3.61,0,0,0-.16-.38.53.53,0,0,0-.13-.16.51.51,0,0,0-.21-.09v-.18h1.5v.18a1,1,0,0,0-.25.08.32.32,0,0,0-.1.1.35.35,0,0,0,0,.16.71.71,0,0,0,0,.2,1.77,1.77,0,0,0,.08.25l.65,1.85.74-1.77.1-.27a1,1,0,0,0,0-.23.3.3,0,0,0-.09-.24.6.6,0,0,0-.3-.13v-.18h1.38v.18a.56.56,0,0,0-.22.09.79.79,0,0,0-.15.19,2.47,2.47,0,0,0-.19.37Zm6.34-4.31c0-.24,0-.4,0-.5a.75.75,0,0,0,0-.23.49.49,0,0,0-.06-.16l-.12-.09a1.26,1.26,0,0,0-.26-.06v-.19l.89,0h.22v4.27c0,.19,0,.33,0,.41a.83.83,0,0,0,.05.2.26.26,0,0,0,.12.11.75.75,0,0,0,.27.09v.19l-.86,0h-.23l0-.6-.06,0a2.51,2.51,0,0,1-.4.37,1.65,1.65,0,0,1-.37.2,1.19,1.19,0,0,1-1.34-.39A2.22,2.22,0,0,1,139.6,30a2.31,2.31,0,0,1,.21-1,1.55,1.55,0,0,1,.58-.63,1.69,1.69,0,0,1,.82-.2,2,2,0,0,1,.44,0,1.71,1.71,0,0,1,.41.12Zm0,1.82a2.77,2.77,0,0,0,0-.46.92.92,0,0,0-.08-.29.67.67,0,0,0-.17-.2.51.51,0,0,0-.23-.12.85.85,0,0,0-.29,0,.8.8,0,0,0-.72.38,1.93,1.93,0,0,0-.25,1.09A2.18,2.18,0,0,0,140.5,31a.65.65,0,0,0,.61.37,1,1,0,0,0,.27,0,1,1,0,0,0,.21-.09,1,1,0,0,0,.21-.16l.16-.2a1.18,1.18,0,0,0,.07-.2,1.26,1.26,0,0,0,0-.3Zm4.67,1.56a2.79,2.79,0,0,1-.43.38,1.58,1.58,0,0,1-1,.3,1.43,1.43,0,0,1-1.15-.45,2,2,0,0,1-.39-1.35,2.3,2.3,0,0,1,.2-1,1.46,1.46,0,0,1,.56-.64,1.52,1.52,0,0,1,.84-.23,1.56,1.56,0,0,1,.64.12,1,1,0,0,1,.42.32,1.61,1.61,0,0,1,.24.51,3.45,3.45,0,0,1,.1.82h-2.32V30a2.5,2.5,0,0,0,.09.73.94.94,0,0,0,.32.47,1,1,0,0,0,.58.17,1.2,1.2,0,0,0,.55-.12,1.51,1.51,0,0,0,.48-.36Zm-.62-1.5A2.28,2.28,0,0,0,146,29a.75.75,0,0,0-.23-.39.58.58,0,0,0-.4-.13.72.72,0,0,0-.61.3,1.69,1.69,0,0,0-.27.87Zm1.17-1.22a.81.81,0,0,0,.3-.1.47.47,0,0,0,.18-.19,1.39,1.39,0,0,0,.1-.29c0-.12,0-.29.08-.51h.52v.91h1.19v.37h-1.19v1.64a4.24,4.24,0,0,0,0,.57.85.85,0,0,0,.11.33.48.48,0,0,0,.18.17.54.54,0,0,0,.27.06.67.67,0,0,0,.28-.06,1.3,1.3,0,0,0,.25-.18l.17.2a2.13,2.13,0,0,1-.5.37,1.2,1.2,0,0,1-.48.11.85.85,0,0,1-.71-.28,1.34,1.34,0,0,1-.23-.88V28.59h-.55ZM153,31.12a3.35,3.35,0,0,1-.43.38,1.4,1.4,0,0,1-.44.22,1.69,1.69,0,0,1-1.66-.37A2,2,0,0,1,150,30a2.3,2.3,0,0,1,.2-1,1.6,1.6,0,0,1,2-.75.91.91,0,0,1,.42.32,1.43,1.43,0,0,1,.25.51,3.52,3.52,0,0,1,.09.82h-2.32V30a2.18,2.18,0,0,0,.1.73.88.88,0,0,0,.32.47,1,1,0,0,0,.58.17,1.19,1.19,0,0,0,.54-.12,1.41,1.41,0,0,0,.48-.36Zm-.62-1.5a2.69,2.69,0,0,0-.1-.65.83.83,0,0,0-.23-.39.59.59,0,0,0-.41-.13.71.71,0,0,0-.6.3,1.69,1.69,0,0,0-.27.87Zm4.13-1.32v.78H156a1.55,1.55,0,0,0-.16-.38.57.57,0,0,0-.21-.2.85.85,0,0,0-.3-.05.68.68,0,0,0-.46.16,1.21,1.21,0,0,0-.32.51,2.83,2.83,0,0,0-.11.83,3.32,3.32,0,0,0,0,.57,1.49,1.49,0,0,0,.15.45.78.78,0,0,0,.29.28.81.81,0,0,0,.43.11,1.29,1.29,0,0,0,.48-.1,1.67,1.67,0,0,0,.45-.35l.21.24a2.4,2.4,0,0,1-.33.32,1.61,1.61,0,0,1-.31.19,2,2,0,0,1-.32.11,1.9,1.9,0,0,1-.35,0,1.26,1.26,0,0,1-1.06-.46,2.08,2.08,0,0,1-.37-1.34,2.26,2.26,0,0,1,.2-1,1.53,1.53,0,0,1,.58-.65,1.56,1.56,0,0,1,.86-.23,4.86,4.86,0,0,1,.56,0A4.64,4.64,0,0,1,156.47,28.3Zm.37.1a.7.7,0,0,0,.29-.1.47.47,0,0,0,.18-.19.76.76,0,0,0,.1-.29c0-.12.05-.29.08-.51H158v.91h1.2v.37H158v1.64a4.24,4.24,0,0,0,0,.57.85.85,0,0,0,.11.33.5.5,0,0,0,.19.17.53.53,0,0,0,.26.06.67.67,0,0,0,.28-.06,1.35,1.35,0,0,0,.26-.18l.16.2a2.1,2.1,0,0,1-.49.37,1.21,1.21,0,0,1-.49.11.86.86,0,0,1-.71-.28,1.4,1.4,0,0,1-.23-.88V28.59h-.54Zm2.72,3.16.21-.07.1-.1a.52.52,0,0,0,.07-.18,3.18,3.18,0,0,0,0-.38v-1.6c0-.16,0-.29,0-.38a.46.46,0,0,0,0-.23.27.27,0,0,0-.13-.13,1.05,1.05,0,0,0-.26-.07v-.2l.86,0h.22v2.63a2.15,2.15,0,0,0,0,.44.31.31,0,0,0,.12.19.7.7,0,0,0,.27.11v.18h-1.45Zm1.06-4.78v.71h-.68v-.71Zm2.64,5a1.49,1.49,0,0,1-1.17-.45,2,2,0,0,1-.4-1.34,2.26,2.26,0,0,1,.21-1,1.48,1.48,0,0,1,.58-.63,1.8,1.8,0,0,1,.84-.2,1.5,1.5,0,0,1,1.2.46,1.9,1.9,0,0,1,.4,1.31,2.47,2.47,0,0,1-.2,1,1.35,1.35,0,0,1-.58.62A1.74,1.74,0,0,1,163.26,31.8Zm-.87-1.86a2.31,2.31,0,0,0,.24,1.16.79.79,0,0,0,1.11.29,1,1,0,0,0,.28-.32,1.63,1.63,0,0,0,.16-.47,3.43,3.43,0,0,0,0-.56,2.88,2.88,0,0,0-.12-.9,1.06,1.06,0,0,0-.33-.52.7.7,0,0,0-.47-.17.76.76,0,0,0-.69.39A2.17,2.17,0,0,0,162.39,29.94Zm6.89,1.8h-1.45v-.18l.2-.07a.36.36,0,0,0,.11-.1.52.52,0,0,0,.07-.18,3.12,3.12,0,0,0,0-.37v-1c0-.17,0-.33,0-.47a1.44,1.44,0,0,0-.05-.34.71.71,0,0,0-.08-.21.49.49,0,0,0-.12-.13.75.75,0,0,0-.15-.09.78.78,0,0,0-.24,0,.66.66,0,0,0-.27.06,1.43,1.43,0,0,0-.51.47.83.83,0,0,0-.07.32v1.37a2.15,2.15,0,0,0,0,.44.36.36,0,0,0,.11.19.88.88,0,0,0,.27.11v.18h-1.44v-.18l.2-.07a.36.36,0,0,0,.11-.1.38.38,0,0,0,.06-.18,1.74,1.74,0,0,0,0-.38v-1.6c0-.16,0-.29,0-.38a.46.46,0,0,0-.05-.23.26.26,0,0,0-.14-.13,1,1,0,0,0-.25-.07v-.2l.86,0h.23l0,.6h.05a4,4,0,0,1,.44-.39,1.24,1.24,0,0,1,.34-.18.86.86,0,0,1,.36-.07,1.23,1.23,0,0,1,.35.05.82.82,0,0,1,.28.14.68.68,0,0,1,.2.24,1,1,0,0,1,.11.34,2.35,2.35,0,0,1,0,.5v1.39a3,3,0,0,0,0,.37.56.56,0,0,0,.05.18.27.27,0,0,0,.11.1.75.75,0,0,0,.24.09Z"/></g><g class="cls-8"><path class="cls-9" d="M188.82,48.79v1.26a3.18,3.18,0,0,0,0,.38.93.93,0,0,0,.06.18.35.35,0,0,0,.11.1,1,1,0,0,0,.24.09V51H187.7V50.8a.71.71,0,0,0,.3-.13.36.36,0,0,0,.11-.21,3.45,3.45,0,0,0,0-.4V46.87a3,3,0,0,0,0-.37.38.38,0,0,0-.06-.18.35.35,0,0,0-.11-.1,1,1,0,0,0-.24-.09V46h1.82a2.15,2.15,0,0,1,1.29.31,1.13,1.13,0,0,1,.43,1,1.3,1.3,0,0,1-.28.85,1.79,1.79,0,0,1-.83.56v0a1,1,0,0,1,.38.26,2.39,2.39,0,0,1,.36.53l.33.61a4.3,4.3,0,0,0,.25.4.64.64,0,0,0,.21.22.66.66,0,0,0,.28.1V51h-1l-.27-.42-.24-.46-.33-.61q-.15-.29-.24-.42a.75.75,0,0,0-.17-.18.53.53,0,0,0-.17-.08l-.27,0Zm.54-2.52-.54,0v2.19h.42a2.4,2.4,0,0,0,.52,0,1.12,1.12,0,0,0,.37-.17,1,1,0,0,0,.27-.36,1.42,1.42,0,0,0,.1-.57,1.25,1.25,0,0,0-.12-.58.76.76,0,0,0-.36-.35,1.38,1.38,0,0,0-.66-.13Zm5.1,4.18h-.05a2.24,2.24,0,0,1-.6.46,1.39,1.39,0,0,1-.6.14,1.15,1.15,0,0,1-.5-.11.69.69,0,0,1-.32-.31.84.84,0,0,1-.12-.45.91.91,0,0,1,.53-.83,3.7,3.7,0,0,1,1.6-.34v-.24a2,2,0,0,0-.07-.61.65.65,0,0,0-.23-.32.78.78,0,0,0-.43-.1.69.69,0,0,0-.46.15.9.9,0,0,0-.26.45h-.49v-.48c.24-.12.44-.21.59-.27s.32-.1.47-.14a2.61,2.61,0,0,1,.48,0,1.23,1.23,0,0,1,.59.12.72.72,0,0,1,.33.36,1.69,1.69,0,0,1,.11.72v1.28a3.89,3.89,0,0,0,0,.39,1.23,1.23,0,0,0,0,.2.5.5,0,0,0,.05.16.33.33,0,0,0,.11.09,1,1,0,0,0,.24.09V51h-1Zm-.06-1.15a2.49,2.49,0,0,0-1.12.2.66.66,0,0,0-.29.91.46.46,0,0,0,.22.17,1,1,0,0,0,.76-.08.87.87,0,0,0,.32-.31.75.75,0,0,0,.11-.37ZM199.55,51h-1.46V50.8l.21-.08a.31.31,0,0,0,.11-.09.54.54,0,0,0,.06-.18,1.81,1.81,0,0,0,0-.38v-1c0-.17,0-.33,0-.47a2.08,2.08,0,0,0,0-.34.93.93,0,0,0-.08-.22.68.68,0,0,0-.12-.12.51.51,0,0,0-.16-.09.71.71,0,0,0-.23,0,.6.6,0,0,0-.27.06,1.29,1.29,0,0,0-.29.19,1.27,1.27,0,0,0-.22.28.64.64,0,0,0-.07.31v1.38a2.15,2.15,0,0,0,0,.44.4.4,0,0,0,.11.19.88.88,0,0,0,.27.11V51H196V50.8l.2-.08a.22.22,0,0,0,.1-.09.38.38,0,0,0,.07-.18,1.74,1.74,0,0,0,0-.38V48.46c0-.15,0-.28,0-.38a.71.71,0,0,0,0-.23.35.35,0,0,0-.14-.13,1.64,1.64,0,0,0-.25-.07v-.19l.86,0H197l0,.6.05,0a4.16,4.16,0,0,1,.44-.4l.34-.18a1.15,1.15,0,0,1,.37-.06,1.25,1.25,0,0,1,.35,0,.69.69,0,0,1,.28.15.9.9,0,0,1,.2.23,1.13,1.13,0,0,1,.11.34,2.51,2.51,0,0,1,0,.51v1.39a3.56,3.56,0,0,0,0,.37.38.38,0,0,0,.06.17.27.27,0,0,0,.1.11,1,1,0,0,0,.25.09Zm3.92-3.15-.68,0,0,0a.71.71,0,0,1,.18.32,1.42,1.42,0,0,1,.07.42,1.2,1.2,0,0,1-.37.93,1.93,1.93,0,0,1-1.58.25.56.56,0,0,0-.28.42.28.28,0,0,0,.05.2.29.29,0,0,0,.18.1,1.64,1.64,0,0,0,.37,0h.89a1.41,1.41,0,0,1,.63.12.71.71,0,0,1,.35.33,1,1,0,0,1,.11.48,1,1,0,0,1-.2.61,1.35,1.35,0,0,1-.57.43,2.39,2.39,0,0,1-.88.15,4.61,4.61,0,0,1-.68-.05,1.85,1.85,0,0,1-.53-.15.93.93,0,0,1-.34-.27.75.75,0,0,1-.12-.43.6.6,0,0,1,.16-.42,1.32,1.32,0,0,1,.44-.34.53.53,0,0,1-.38-.52.69.69,0,0,1,.12-.39,1.81,1.81,0,0,1,.42-.4,1,1,0,0,1-.41-.42,1.32,1.32,0,0,1-.13-.6,1.37,1.37,0,0,1,.1-.56,1.1,1.1,0,0,1,.29-.38,1.32,1.32,0,0,1,.44-.23,2,2,0,0,1,.55-.08,1.93,1.93,0,0,1,.53.07h1.3Zm-1.93,3.23L201,51a.88.88,0,0,0-.28.3.6.6,0,0,0-.1.35.53.53,0,0,0,.27.49,2,2,0,0,0,1.37.07.77.77,0,0,0,.36-.26.58.58,0,0,0,.13-.38.64.64,0,0,0,0-.2.38.38,0,0,0-.09-.18.53.53,0,0,0-.21-.12,1.08,1.08,0,0,0-.35,0Zm-.62-2.48a1.22,1.22,0,0,0,.18.71.64.64,0,0,0,.55.25.79.79,0,0,0,.32-.07.58.58,0,0,0,.21-.2.69.69,0,0,0,.12-.29,1.27,1.27,0,0,0,0-.34,1.47,1.47,0,0,0-.09-.55.61.61,0,0,0-.25-.31.67.67,0,0,0-.37-.11.63.63,0,0,0-.53.24A1.05,1.05,0,0,0,200.92,48.58Zm5.92,1.77a2.85,2.85,0,0,1-.43.39,1.64,1.64,0,0,1-.95.3,1.41,1.41,0,0,1-1.15-.46,2,2,0,0,1-.39-1.34,2.27,2.27,0,0,1,.2-1,1.49,1.49,0,0,1,.56-.65,1.7,1.7,0,0,1,1.48-.11,1.11,1.11,0,0,1,.41.32,1.48,1.48,0,0,1,.25.52,3.49,3.49,0,0,1,.09.81h-2.32v.07a2.52,2.52,0,0,0,.1.73,1,1,0,0,0,.32.47,1,1,0,0,0,.58.16,1.26,1.26,0,0,0,.55-.11,1.55,1.55,0,0,0,.48-.37Zm-.62-1.49a2.54,2.54,0,0,0-.1-.65.83.83,0,0,0-.23-.39.59.59,0,0,0-.41-.13.71.71,0,0,0-.6.3,1.66,1.66,0,0,0-.27.87Z"/></g><g class="cls-8"><path class="cls-9" d="M214.39,86.73V88a3.25,3.25,0,0,0,0,.39.52.52,0,0,0,.07.18.27.27,0,0,0,.11.1l.24.09v.18h-1.56v-.18a.82.82,0,0,0,.31-.14.34.34,0,0,0,.1-.2,3.66,3.66,0,0,0,0-.41V84.81a1.74,1.74,0,0,0,0-.37.38.38,0,0,0-.06-.18.29.29,0,0,0-.11-.11l-.24-.08v-.18h1.82a2.15,2.15,0,0,1,1.29.31,1.11,1.11,0,0,1,.43,1,1.33,1.33,0,0,1-.28.86,1.71,1.71,0,0,1-.83.55v0a.94.94,0,0,1,.38.27,2.39,2.39,0,0,1,.36.53l.33.6a3.55,3.55,0,0,0,.25.41,1,1,0,0,0,.21.21.66.66,0,0,0,.28.11v.18h-1a4.28,4.28,0,0,1-.26-.42c-.09-.15-.17-.31-.25-.46l-.33-.62a2.62,2.62,0,0,0-.24-.41.83.83,0,0,0-.17-.19.51.51,0,0,0-.17-.07l-.27,0Zm.54-2.52h-.54v2.19h.42a2.49,2.49,0,0,0,.52,0,.91.91,0,0,0,.37-.18.86.86,0,0,0,.27-.36,1.34,1.34,0,0,0,.1-.56,1.22,1.22,0,0,0-.12-.58.78.78,0,0,0-.36-.36,1.5,1.5,0,0,0-.66-.12Zm5.92,4.08a4.6,4.6,0,0,1-.43.39,2,2,0,0,1-.44.22,1.66,1.66,0,0,1-.51.07,1.43,1.43,0,0,1-1.15-.45,2,2,0,0,1-.39-1.34,2.27,2.27,0,0,1,.2-1,1.49,1.49,0,0,1,.56-.65,1.7,1.7,0,0,1,1.48-.11,1,1,0,0,1,.41.32,1.48,1.48,0,0,1,.25.52,3.42,3.42,0,0,1,.09.81H218.6v.07a2.52,2.52,0,0,0,.1.73.88.88,0,0,0,.9.63,1.33,1.33,0,0,0,.54-.11,1.62,1.62,0,0,0,.49-.37Zm-.62-1.5a2.69,2.69,0,0,0-.1-.65.79.79,0,0,0-.23-.38.6.6,0,0,0-.41-.14.7.7,0,0,0-.6.31,1.65,1.65,0,0,0-.27.86ZM224,86.2h-.36a1,1,0,0,0-.19-.35.64.64,0,0,0-.25-.18,1.11,1.11,0,0,0-.34,0,.75.75,0,0,0-.47.14.45.45,0,0,0-.18.38.61.61,0,0,0,.07.28.72.72,0,0,0,.22.2,3.47,3.47,0,0,0,.52.26,3.74,3.74,0,0,1,.58.3,1.06,1.06,0,0,1,.32.31.77.77,0,0,1,.12.43,1,1,0,0,1-.1.49.83.83,0,0,1-.28.33,1.3,1.3,0,0,1-.43.18,2.36,2.36,0,0,1-.54,0,3.86,3.86,0,0,1-.6,0,4.78,4.78,0,0,1-.57-.12V88h.36a.93.93,0,0,0,.29.49.87.87,0,0,0,.54.15l.26,0a.6.6,0,0,0,.23-.1.52.52,0,0,0,.16-.17.58.58,0,0,0,.06-.28.56.56,0,0,0-.08-.3.7.7,0,0,0-.23-.22,4.71,4.71,0,0,0-.54-.26,5.37,5.37,0,0,1-.54-.27,1.08,1.08,0,0,1-.32-.32.75.75,0,0,1-.11-.43.85.85,0,0,1,.16-.52,1,1,0,0,1,.47-.34,2,2,0,0,1,.73-.12l.47,0,.57.1ZM226.35,89a1.49,1.49,0,0,1-1.17-.45,2,2,0,0,1-.4-1.33,2.28,2.28,0,0,1,.21-1,1.48,1.48,0,0,1,.58-.63,1.8,1.8,0,0,1,.84-.2,1.5,1.5,0,0,1,1.2.46,1.93,1.93,0,0,1,.4,1.32,2.31,2.31,0,0,1-.2,1,1.46,1.46,0,0,1-.57.63A1.8,1.8,0,0,1,226.35,89Zm-.87-1.86a2.32,2.32,0,0,0,.24,1.17.75.75,0,0,0,.69.4.74.74,0,0,0,.42-.12.8.8,0,0,0,.28-.32,1.53,1.53,0,0,0,.16-.47,3.33,3.33,0,0,0,0-.56,2.88,2.88,0,0,0-.12-.9,1.11,1.11,0,0,0-.33-.52.77.77,0,0,0-1.15.22A2.09,2.09,0,0,0,225.48,87.11Zm4.26.88a2.27,2.27,0,0,0,0,.45.33.33,0,0,0,.11.18.83.83,0,0,0,.28.12v.18h-1.47v-.18a1.28,1.28,0,0,0,.26-.1.31.31,0,0,0,.1-.13.74.74,0,0,0,0-.19c0-.09,0-.19,0-.33V84.91c0-.24,0-.4,0-.49a.78.78,0,0,0,0-.24A.26.26,0,0,0,229,84a.27.27,0,0,0-.12-.09,1,1,0,0,0-.26-.07v-.19l.89,0h.22Zm1-2.6h1.05v1.88a5.21,5.21,0,0,0,0,.65,1.28,1.28,0,0,0,.1.34.72.72,0,0,0,.19.2.64.64,0,0,0,.34.07.86.86,0,0,0,.27,0,1.05,1.05,0,0,0,.28-.2.92.92,0,0,0,.23-.27.66.66,0,0,0,.07-.32V86.31c0-.14,0-.24,0-.32a.71.71,0,0,0,0-.17.35.35,0,0,0-.16-.18l-.21-.07v-.18h1v2.52c0,.19,0,.33,0,.41a.83.83,0,0,0,0,.2.28.28,0,0,0,.12.12.79.79,0,0,0,.27.08v.2l-.84,0h-.23l0-.6-.06,0a2.43,2.43,0,0,1-.58.49,1.21,1.21,0,0,1-.56.15,1,1,0,0,1-.55-.13.79.79,0,0,1-.33-.39,2.12,2.12,0,0,1-.11-.75V86.31a2.08,2.08,0,0,0,0-.42.48.48,0,0,0-.09-.19.86.86,0,0,0-.3-.13Zm4,.19a.82.82,0,0,0,.3-.11.45.45,0,0,0,.17-.19.88.88,0,0,0,.11-.29c0-.11,0-.28.07-.51H236v.91h1.19v.38H236v1.64a4.17,4.17,0,0,0,0,.56.72.72,0,0,0,.11.34.48.48,0,0,0,.18.17.68.68,0,0,0,.27,0,.63.63,0,0,0,.27-.06,1,1,0,0,0,.26-.18l.16.2a2.1,2.1,0,0,1-.49.37,1.06,1.06,0,0,1-.49.11.86.86,0,0,1-.71-.28,1.38,1.38,0,0,1-.23-.88v-2h-.54Zm2.73,3.16.21-.08a.28.28,0,0,0,.1-.09.52.52,0,0,0,.07-.18,3.32,3.32,0,0,0,0-.38V86.4c0-.16,0-.28,0-.38a.49.49,0,0,0,0-.23.27.27,0,0,0-.13-.13,1.05,1.05,0,0,0-.26-.07v-.2l.86,0h.22V88a2.27,2.27,0,0,0,0,.45.33.33,0,0,0,.11.18.83.83,0,0,0,.28.12v.18h-1.45Zm1-4.79v.71h-.67V84Zm2.65,5a1.49,1.49,0,0,1-1.17-.45,1.92,1.92,0,0,1-.4-1.33,2.28,2.28,0,0,1,.21-1,1.48,1.48,0,0,1,.58-.63,1.8,1.8,0,0,1,.84-.2,1.48,1.48,0,0,1,1.19.46,1.88,1.88,0,0,1,.41,1.32,2.46,2.46,0,0,1-.2,1,1.42,1.42,0,0,1-.58.63A1.76,1.76,0,0,1,241.22,89Zm-.88-1.86a2.31,2.31,0,0,0,.25,1.17.75.75,0,0,0,.69.4.74.74,0,0,0,.42-.12.88.88,0,0,0,.28-.32,1.85,1.85,0,0,0,.16-.47,3.36,3.36,0,0,0,0-.56,2.88,2.88,0,0,0-.12-.9,1.1,1.1,0,0,0-.32-.52.75.75,0,0,0-.47-.17.76.76,0,0,0-.69.39A2.09,2.09,0,0,0,240.34,87.11Zm6.9,1.81h-1.45v-.18l.2-.08a.31.31,0,0,0,.11-.09.38.38,0,0,0,.06-.19,1.64,1.64,0,0,0,0-.37V87c0-.17,0-.32,0-.46a1.54,1.54,0,0,0,0-.35A.71.71,0,0,0,246,86a.49.49,0,0,0-.12-.13.6.6,0,0,0-.16-.08.67.67,0,0,0-.23,0,.86.86,0,0,0-.27,0,1.13,1.13,0,0,0-.28.2,1,1,0,0,0-.23.28.62.62,0,0,0-.07.31V88a2.27,2.27,0,0,0,0,.45.33.33,0,0,0,.11.18.86.86,0,0,0,.27.12v.18h-1.44v-.18a1.14,1.14,0,0,0,.2-.08.31.31,0,0,0,.11-.09.38.38,0,0,0,.06-.18,1.81,1.81,0,0,0,0-.38V86.4c0-.16,0-.28,0-.38a.66.66,0,0,0,0-.23.29.29,0,0,0-.14-.13,1,1,0,0,0-.25-.07v-.2l.86,0h.22l0,.6.06,0a2.82,2.82,0,0,1,.44-.4,1.24,1.24,0,0,1,.34-.18,1,1,0,0,1,.36-.07,1.23,1.23,0,0,1,.35,0,.82.82,0,0,1,.28.14.91.91,0,0,1,.2.24,1,1,0,0,1,.11.34,2.39,2.39,0,0,1,0,.51V88a2.86,2.86,0,0,0,0,.37.39.39,0,0,0,0,.18.29.29,0,0,0,.11.11l.24.09Z"/></g><g class="cls-8"><path class="cls-9" d="M213.29,131.72l-1.18,4.11h-.59l-1.08-4a3.58,3.58,0,0,0-.12-.41,1.53,1.53,0,0,0-.11-.25.51.51,0,0,0-.12-.13.51.51,0,0,0-.18-.08v-.18h1.57V131a.64.64,0,0,0-.32.13.33.33,0,0,0-.09.25,1.18,1.18,0,0,0,0,.3c0,.12,0,.26.09.41l.74,2.91,1.19-4.18h.62l1,4.18.87-2.81a3.24,3.24,0,0,0,.16-.73.5.5,0,0,0-.1-.33.56.56,0,0,0-.31-.13v-.18h1.45V131a.75.75,0,0,0-.18.08.51.51,0,0,0-.12.13.86.86,0,0,0-.13.24,4,4,0,0,0-.17.45l-1.34,4h-.53Zm5.45,4.15a1.46,1.46,0,0,1-1.17-.45,2,2,0,0,1-.41-1.34,2.28,2.28,0,0,1,.21-1,1.46,1.46,0,0,1,.58-.62,1.69,1.69,0,0,1,.84-.21,1.54,1.54,0,0,1,1.2.46,2,2,0,0,1,.4,1.32,2.28,2.28,0,0,1-.2,1,1.4,1.4,0,0,1-.57.63A1.79,1.79,0,0,1,218.74,135.87Zm-.88-1.87a2.32,2.32,0,0,0,.24,1.17.76.76,0,0,0,.69.41.7.7,0,0,0,.42-.12.83.83,0,0,0,.28-.33,1.3,1.3,0,0,0,.16-.47,3.21,3.21,0,0,0,0-.55,2.8,2.8,0,0,0-.12-.9,1.1,1.1,0,0,0-.33-.53.77.77,0,0,0-1.15.22A2.11,2.11,0,0,0,217.86,134Zm4.28-1.1h.05a2.36,2.36,0,0,1,.37-.39,1.22,1.22,0,0,1,.38-.22,1.25,1.25,0,0,1,.45-.08l.39,0v.85h-.42a.86.86,0,0,0-.19-.29.37.37,0,0,0-.27-.09.52.52,0,0,0-.26.08,1,1,0,0,0-.25.22.87.87,0,0,0-.17.28,1,1,0,0,0-.05.31v1.29a2.19,2.19,0,0,0,0,.46.34.34,0,0,0,.14.19.91.91,0,0,0,.28.09v.18h-1.49v-.18l.2-.08a.24.24,0,0,0,.11-.09.52.52,0,0,0,.07-.18,3.18,3.18,0,0,0,0-.38v-1.61c0-.16,0-.28,0-.38a.52.52,0,0,0-.05-.23.29.29,0,0,0-.14-.13,1,1,0,0,0-.25-.07v-.19l.86,0h.23Zm3.11.86h.12a.6.6,0,0,0,.2,0,1,1,0,0,0,.2-.11,4.1,4.1,0,0,0,.31-.27l.26-.27a.62.62,0,0,0,.12-.2.41.41,0,0,0,0-.16.24.24,0,0,0-.07-.17.41.41,0,0,0-.22-.08v-.18h1.58v.18a1.07,1.07,0,0,0-.36.15,2.12,2.12,0,0,0-.39.31l-.85.8,1.06,1.39a1.63,1.63,0,0,0,.34.35.81.81,0,0,0,.32.16v.18h-1.41v-.18a.39.39,0,0,0,.14,0,.14.14,0,0,0,0-.11.22.22,0,0,0,0-.11.75.75,0,0,0-.08-.14c0-.07-.12-.17-.23-.32l-.44-.59-.17-.22a.42.42,0,0,0-.12-.08l-.16,0h-.2v.89a2.22,2.22,0,0,0,0,.44.4.4,0,0,0,.11.19.88.88,0,0,0,.27.11v.18H224.2v-.18a.78.78,0,0,0,.25-.1.33.33,0,0,0,.11-.13.69.69,0,0,0,0-.19,2.92,2.92,0,0,0,0-.32v-3.58a.88.88,0,0,0,0-.24.42.42,0,0,0-.07-.15.2.2,0,0,0-.11-.09l-.26-.07v-.19l.89,0h.22Zm5.42-.67h-.36a1.15,1.15,0,0,0-.19-.35.59.59,0,0,0-.25-.17.86.86,0,0,0-.34-.06.73.73,0,0,0-.47.14.45.45,0,0,0-.18.38.58.58,0,0,0,.07.28.89.89,0,0,0,.22.21,5.34,5.34,0,0,0,.52.25,4.28,4.28,0,0,1,.58.3,1.08,1.08,0,0,1,.32.32.75.75,0,0,1,.12.43,1.22,1.22,0,0,1-.1.49.87.87,0,0,1-.28.32,1.39,1.39,0,0,1-.43.18,2.38,2.38,0,0,1-.55.06,4,4,0,0,1-.6-.05,5.05,5.05,0,0,1-.56-.12v-.77h.36a.87.87,0,0,0,.29.49.81.81,0,0,0,.54.16,1.15,1.15,0,0,0,.26,0,.92.92,0,0,0,.23-.09.52.52,0,0,0,.15-.18.68.68,0,0,0,0-.58.81.81,0,0,0-.23-.22,4.71,4.71,0,0,0-.54-.26,2.69,2.69,0,0,1-.54-.27,1.08,1.08,0,0,1-.32-.32.74.74,0,0,1-.12-.42.88.88,0,0,1,.17-.53,1,1,0,0,1,.47-.34,2,2,0,0,1,.73-.12,3.59,3.59,0,0,1,.47,0,4.06,4.06,0,0,1,.57.09Zm2.45,2.54.21-.08a.28.28,0,0,0,.1-.09.52.52,0,0,0,.07-.18,3.18,3.18,0,0,0,0-.38v-2a.7.7,0,0,0-.06-.23.27.27,0,0,0-.13-.13,1.05,1.05,0,0,0-.26-.07v-.19l.86,0h.23v2.64a2.22,2.22,0,0,0,0,.44.33.33,0,0,0,.11.19.7.7,0,0,0,.27.11v.18h-1.45Zm1.06-4.79v.72h-.68v-.72Zm4.63,5h-1.45v-.18l.21-.08a.28.28,0,0,0,.1-.09.52.52,0,0,0,.07-.18,3.32,3.32,0,0,0,0-.38v-1c0-.18,0-.33,0-.47a2.43,2.43,0,0,0-.05-.35.69.69,0,0,0-.09-.21.49.49,0,0,0-.12-.13.53.53,0,0,0-.15-.08.75.75,0,0,0-.23,0,.67.67,0,0,0-.28.06,1,1,0,0,0-.28.19,1.35,1.35,0,0,0-.23.28.74.74,0,0,0-.07.31v1.38a2.22,2.22,0,0,0,0,.44.35.35,0,0,0,.12.19.7.7,0,0,0,.27.11v.18h-1.45v-.18l.21-.08a.28.28,0,0,0,.1-.09.52.52,0,0,0,.07-.18,3.18,3.18,0,0,0,0-.38v-1.61c0-.16,0-.28,0-.38a.52.52,0,0,0-.05-.23.27.27,0,0,0-.13-.13,1.05,1.05,0,0,0-.26-.07v-.19l.86,0h.23l0,.6.05,0a3.36,3.36,0,0,1,.44-.4,1.24,1.24,0,0,1,.34-.18,1,1,0,0,1,.36-.06,1.37,1.37,0,0,1,.36,0,.87.87,0,0,1,.27.14.91.91,0,0,1,.2.24,1.5,1.5,0,0,1,.12.34,3.4,3.4,0,0,1,0,.51v1.39a3.56,3.56,0,0,0,0,.37.58.58,0,0,0,.05.17.38.38,0,0,0,.11.11,1,1,0,0,0,.24.09Zm2-3.34a.7.7,0,0,0,.3-.1.54.54,0,0,0,.18-.19,1.1,1.1,0,0,0,.1-.29c0-.12.05-.29.08-.52H242v.92h1.19v.37H242v1.64a4.24,4.24,0,0,0,0,.57.85.85,0,0,0,.11.33.5.5,0,0,0,.19.17.63.63,0,0,0,.26,0,.67.67,0,0,0,.28-.06,1.23,1.23,0,0,0,.25-.17l.17.19a1.88,1.88,0,0,1-.5.37,1,1,0,0,1-.48.12.9.9,0,0,1-.71-.28,1.44,1.44,0,0,1-.23-.89v-2h-.55Zm3.82.39h0a3.45,3.45,0,0,1,.45-.41,1.15,1.15,0,0,1,.33-.17,1,1,0,0,1,.36-.06,1.37,1.37,0,0,1,.36,0,.94.94,0,0,1,.28.15.65.65,0,0,1,.19.24,1,1,0,0,1,.11.34,2.35,2.35,0,0,1,0,.5v1.39a2,2,0,0,0,0,.43.32.32,0,0,0,.1.18.65.65,0,0,0,.29.13v.18h-1.46v-.18l.21-.08a.31.31,0,0,0,.11-.09.54.54,0,0,0,.06-.18,1.81,1.81,0,0,0,0-.38v-1a4.53,4.53,0,0,0,0-.75.66.66,0,0,0-.2-.39.58.58,0,0,0-.41-.13.75.75,0,0,0-.26.05,1.14,1.14,0,0,0-.27.18,1,1,0,0,0-.24.28.61.61,0,0,0-.08.3v1.41a2.61,2.61,0,0,0,0,.35.3.3,0,0,0,0,.18.25.25,0,0,0,.11.12,1.1,1.1,0,0,0,.23.09v.18h-1.46v-.18a1,1,0,0,0,.24-.09.24.24,0,0,0,.1-.1.38.38,0,0,0,.06-.18,3,3,0,0,0,0-.37V131.8c0-.23,0-.4,0-.49a.88.88,0,0,0,0-.24.3.3,0,0,0-.06-.15.27.27,0,0,0-.12-.09l-.26-.07v-.19l.89,0h.22Zm6.09,2.32a2.85,2.85,0,0,1-.43.39,1.81,1.81,0,0,1-.44.22,1.72,1.72,0,0,1-.52.08,1.39,1.39,0,0,1-1.14-.46,2,2,0,0,1-.39-1.34,2.27,2.27,0,0,1,.2-1,1.49,1.49,0,0,1,.56-.65,1.55,1.55,0,0,1,.84-.23,1.48,1.48,0,0,1,.63.12,1.07,1.07,0,0,1,.42.32,1.32,1.32,0,0,1,.24.52,3.43,3.43,0,0,1,.1.81H248.5v.07a2.22,2.22,0,0,0,.1.73.86.86,0,0,0,.32.46.89.89,0,0,0,.58.17,1.33,1.33,0,0,0,.54-.11,1.72,1.72,0,0,0,.48-.37Zm-.62-1.49a3.07,3.07,0,0,0-.1-.65.83.83,0,0,0-.23-.39.62.62,0,0,0-.41-.14.72.72,0,0,0-.6.31,1.57,1.57,0,0,0-.27.87Zm5.49-1.89c0-.23,0-.4,0-.49a.88.88,0,0,0,0-.24.3.3,0,0,0-.06-.15.27.27,0,0,0-.12-.09l-.26-.07v-.19l.9,0h.21v4.27c0,.19,0,.33,0,.41a.72.72,0,0,0,.05.2.34.34,0,0,0,.12.12,1,1,0,0,0,.28.09v.19l-.87,0h-.22l0-.6h-.06a3.17,3.17,0,0,1-.4.37,1.55,1.55,0,0,1-.36.19,1.16,1.16,0,0,1-.42.08,1.09,1.09,0,0,1-.93-.46,2.27,2.27,0,0,1-.33-1.33,2.14,2.14,0,0,1,.22-1,1.46,1.46,0,0,1,.57-.63,1.61,1.61,0,0,1,.82-.21,2.87,2.87,0,0,1,.44,0,2.41,2.41,0,0,1,.41.13Zm0,1.82a2.86,2.86,0,0,0,0-.46.82.82,0,0,0-.08-.29.65.65,0,0,0-.17-.2.94.94,0,0,0-.22-.12,1.32,1.32,0,0,0-.3,0,.8.8,0,0,0-.72.38,2,2,0,0,0-.25,1.08,2.25,2.25,0,0,0,.21,1.08.65.65,0,0,0,.61.36,1.06,1.06,0,0,0,.27,0l.21-.09a1,1,0,0,0,.21-.17,2,2,0,0,0,.16-.19.65.65,0,0,0,.07-.21,1.12,1.12,0,0,0,0-.29Zm3.86,1.66h-.05a2.26,2.26,0,0,1-.61.46,1.36,1.36,0,0,1-.6.14,1.1,1.1,0,0,1-.49-.11.82.82,0,0,1-.33-.31.94.94,0,0,1-.11-.45.91.91,0,0,1,.53-.83,3.7,3.7,0,0,1,1.6-.34v-.24a2,2,0,0,0-.08-.61.52.52,0,0,0-.23-.32.72.72,0,0,0-.42-.11.63.63,0,0,0-.46.16.91.91,0,0,0-.27.45h-.48v-.48c.24-.12.43-.21.59-.27a4.19,4.19,0,0,1,.47-.14,2.61,2.61,0,0,1,.48-.05,1.26,1.26,0,0,1,.59.12.8.8,0,0,1,.33.35,1.89,1.89,0,0,1,.11.73v1.66a1.25,1.25,0,0,0,0,.21.49.49,0,0,0,.06.16.25.25,0,0,0,.11.09.91.91,0,0,0,.23.09v.18h-1Zm-.06-1.15a2.49,2.49,0,0,0-1.12.2.61.61,0,0,0-.37.58.54.54,0,0,0,.08.33.46.46,0,0,0,.21.16.75.75,0,0,0,.31,0,.9.9,0,0,0,.46-.12.92.92,0,0,0,.31-.31.7.7,0,0,0,.12-.37ZM262,132.9h0a2,2,0,0,1,.38-.39,1.17,1.17,0,0,1,.37-.22,1.29,1.29,0,0,1,.45-.08l.39,0v.85h-.41a1,1,0,0,0-.19-.29.41.41,0,0,0-.28-.09.56.56,0,0,0-.26.08,1,1,0,0,0-.25.22,1.1,1.1,0,0,0-.17.28,1,1,0,0,0,0,.31v1.29a1.66,1.66,0,0,0,0,.46.33.33,0,0,0,.13.19,1,1,0,0,0,.28.09v.18H261v-.18l.2-.08a.28.28,0,0,0,.1-.09.52.52,0,0,0,.07-.18,3.18,3.18,0,0,0,0-.38v-1.61c0-.16,0-.28,0-.38a.52.52,0,0,0-.05-.23.27.27,0,0,0-.13-.13,1.05,1.05,0,0,0-.26-.07v-.19l.86,0H262Zm3.11.86h.12a.56.56,0,0,0,.2,0,.81.81,0,0,0,.2-.11,2.76,2.76,0,0,0,.31-.27,3,3,0,0,0,.26-.27.62.62,0,0,0,.12-.2.41.41,0,0,0,0-.16.21.21,0,0,0-.07-.17.38.38,0,0,0-.22-.08v-.18h1.59v.18a.92.92,0,0,0-.36.15,2.55,2.55,0,0,0-.4.31l-.85.8,1.07,1.39a1.62,1.62,0,0,0,.33.35.84.84,0,0,0,.33.16v.18h-1.42v-.18a.39.39,0,0,0,.14,0,.14.14,0,0,0,.05-.11.43.43,0,0,0,0-.11,1,1,0,0,0-.09-.14c0-.07-.11-.17-.22-.32l-.44-.59-.18-.22a.38.38,0,0,0-.11-.08l-.16,0h-.21v.89a2.22,2.22,0,0,0,0,.44.4.4,0,0,0,.11.19.88.88,0,0,0,.27.11v.18H264v-.18a1,1,0,0,0,.26-.1.31.31,0,0,0,.1-.13.64.64,0,0,0,.05-.19c0-.08,0-.19,0-.32V131.8c0-.23,0-.4,0-.49a.88.88,0,0,0,0-.24.42.42,0,0,0-.06-.15.27.27,0,0,0-.12-.09l-.26-.07v-.19l.89,0h.22Z"/></g><g class="cls-8"><path class="cls-9" d="M188.72,169.65l-1.18,4.12h-.6l-1.07-4a3.05,3.05,0,0,0-.12-.41,1.22,1.22,0,0,0-.11-.25.58.58,0,0,0-.12-.14.9.9,0,0,0-.19-.08v-.18h1.58v.18a.64.64,0,0,0-.32.14.32.32,0,0,0-.09.24,1.89,1.89,0,0,0,0,.31l.1.4.74,2.91,1.18-4.18h.62l1,4.19.86-2.81a2.84,2.84,0,0,0,.16-.73.5.5,0,0,0-.09-.33.56.56,0,0,0-.31-.14v-.18h1.45v.18L192,169l-.12.12a1.72,1.72,0,0,0-.14.25c0,.11-.1.26-.16.44l-1.35,4h-.52Zm5.44,4.15a1.49,1.49,0,0,1-1.17-.45,1.92,1.92,0,0,1-.4-1.33,2.28,2.28,0,0,1,.21-1,1.48,1.48,0,0,1,.58-.63,1.8,1.8,0,0,1,.84-.2,1.5,1.5,0,0,1,1.2.46,1.91,1.91,0,0,1,.4,1.32,2.46,2.46,0,0,1-.2,1,1.42,1.42,0,0,1-.58.63A1.84,1.84,0,0,1,194.16,173.8Zm-.87-1.86a2.37,2.37,0,0,0,.24,1.17.75.75,0,0,0,.69.4.74.74,0,0,0,.42-.12.88.88,0,0,0,.28-.32,1.53,1.53,0,0,0,.16-.47,3.33,3.33,0,0,0,0-.56,2.88,2.88,0,0,0-.12-.9,1.06,1.06,0,0,0-.33-.52.75.75,0,0,0-.47-.17.76.76,0,0,0-.69.39A2.17,2.17,0,0,0,193.29,171.94Zm4.27-1.11h.05a3.38,3.38,0,0,1,.38-.38,1.29,1.29,0,0,1,.37-.22,1.14,1.14,0,0,1,.46-.08l.39,0V171h-.42a.86.86,0,0,0-.19-.29.37.37,0,0,0-.27-.09.42.42,0,0,0-.26.08,1,1,0,0,0-.26.22.89.89,0,0,0-.21.58v1.29a1.7,1.7,0,0,0,0,.47.32.32,0,0,0,.14.18.7.7,0,0,0,.28.09v.18h-1.49v-.18l.2-.07a.52.52,0,0,0,.11-.1.34.34,0,0,0,.06-.18,1.68,1.68,0,0,0,0-.38v-1.6c0-.16,0-.29,0-.38a.66.66,0,0,0-.05-.23.29.29,0,0,0-.14-.13,1,1,0,0,0-.25-.07v-.19l.86,0h.22Zm3.12.86h.11l.2,0a.92.92,0,0,0,.21-.12l.31-.26.26-.27a1.57,1.57,0,0,0,.12-.21.39.39,0,0,0,0-.15.24.24,0,0,0-.06-.17.5.5,0,0,0-.23-.09v-.18h1.59v.18a1.07,1.07,0,0,0-.36.15,2.64,2.64,0,0,0-.39.31l-.85.81,1.06,1.38a2,2,0,0,0,.33.36.71.71,0,0,0,.33.15v.18h-1.42v-.18a.27.27,0,0,0,.15,0,.11.11,0,0,0,0-.1.2.2,0,0,0,0-.11.56.56,0,0,0-.08-.15l-.23-.32-.44-.59a1.93,1.93,0,0,0-.18-.22A.41.41,0,0,0,201,172l-.16,0h-.2v.88a2.15,2.15,0,0,0,0,.44.28.28,0,0,0,.11.19.7.7,0,0,0,.27.11v.18h-1.46v-.18a.67.67,0,0,0,.25-.1.32.32,0,0,0,.11-.12.78.78,0,0,0,0-.19,3.12,3.12,0,0,0,0-.33v-3.57q0-.15,0-.24a.48.48,0,0,0-.07-.16.31.31,0,0,0-.11-.08.84.84,0,0,0-.26-.07v-.19l.89,0h.22Zm5.41-.66h-.35a1.15,1.15,0,0,0-.19-.35.83.83,0,0,0-.25-.18,1.16,1.16,0,0,0-.34-.05.73.73,0,0,0-.47.14.45.45,0,0,0-.18.38.51.51,0,0,0,.07.28.72.72,0,0,0,.22.2,3.47,3.47,0,0,0,.52.26,2.79,2.79,0,0,1,.58.3,1.18,1.18,0,0,1,.32.31.77.77,0,0,1,.11.43,1,1,0,0,1-.1.49.74.74,0,0,1-.28.33,1.33,1.33,0,0,1-.42.18,2.39,2.39,0,0,1-.55.05,4,4,0,0,1-.6,0,5.78,5.78,0,0,1-.57-.12v-.77H204a1,1,0,0,0,.3.49.87.87,0,0,0,.54.15,1.15,1.15,0,0,0,.26,0,.43.43,0,0,0,.22-.09.44.44,0,0,0,.16-.17.61.61,0,0,0,.06-.28.53.53,0,0,0-.07-.3.7.7,0,0,0-.23-.22,3.68,3.68,0,0,0-.55-.26,3.57,3.57,0,0,1-.53-.28.87.87,0,0,1-.32-.31.75.75,0,0,1-.12-.43.85.85,0,0,1,.17-.52.94.94,0,0,1,.47-.34,2,2,0,0,1,.72-.12l.47,0a5.78,5.78,0,0,1,.57.1Zm2.46,2.53.21-.07a.47.47,0,0,0,.1-.1.45.45,0,0,0,.07-.18,3,3,0,0,0,0-.38v-1.6c0-.16,0-.29,0-.38a.49.49,0,0,0-.05-.23.27.27,0,0,0-.13-.13,1.05,1.05,0,0,0-.26-.07v-.2l.86,0h.22v2.63a2.15,2.15,0,0,0,0,.44.29.29,0,0,0,.12.19.7.7,0,0,0,.27.11v.18h-1.45Zm1.06-4.78v.71h-.68v-.71Zm4.63,5h-1.45v-.18l.2-.07a.36.36,0,0,0,.11-.1.45.45,0,0,0,.07-.18,3,3,0,0,0,0-.37v-1c0-.17,0-.33,0-.47a2.27,2.27,0,0,0-.05-.34,1.09,1.09,0,0,0-.09-.21.49.49,0,0,0-.12-.13.53.53,0,0,0-.15-.08.75.75,0,0,0-.24,0,.66.66,0,0,0-.27.06,1.35,1.35,0,0,0-.28.2.84.84,0,0,0-.23.28.74.74,0,0,0-.07.31v1.37a2.15,2.15,0,0,0,0,.44.32.32,0,0,0,.11.19.85.85,0,0,0,.28.11v.18h-1.45v-.18l.21-.07a.47.47,0,0,0,.1-.1.45.45,0,0,0,.07-.18,3,3,0,0,0,0-.38v-1.6c0-.16,0-.29,0-.38a.49.49,0,0,0,0-.23.27.27,0,0,0-.13-.13,1.05,1.05,0,0,0-.26-.07v-.2l.86,0h.23l0,.6h0a4,4,0,0,1,.44-.39,1.24,1.24,0,0,1,.34-.18.86.86,0,0,1,.36-.07,1.36,1.36,0,0,1,.36.05.87.87,0,0,1,.27.14.68.68,0,0,1,.2.24,1.35,1.35,0,0,1,.12.34,3.43,3.43,0,0,1,0,.5v1.39a2.86,2.86,0,0,0,0,.37.56.56,0,0,0,0,.18.22.22,0,0,0,.11.1.75.75,0,0,0,.24.09Zm3.18-2.94h0a2.73,2.73,0,0,1,.43-.39,1.29,1.29,0,0,1,.35-.18,1,1,0,0,1,.4-.07,1.13,1.13,0,0,1,.67.2,1.29,1.29,0,0,1,.44.61,2.77,2.77,0,0,1,.15,1,2.59,2.59,0,0,1-.18,1,1.31,1.31,0,0,1-.54.62,1.61,1.61,0,0,1-.84.21,2.1,2.1,0,0,1-.51-.05,2.35,2.35,0,0,1-.51-.17l-.26.22-.25-.06v-4c0-.24,0-.4,0-.49a.78.78,0,0,0,0-.24.49.49,0,0,0-.06-.16.36.36,0,0,0-.12-.08.77.77,0,0,0-.26-.07v-.19l.89,0h.22Zm0,1.62a2.64,2.64,0,0,0,0,.45.77.77,0,0,0,.08.28.67.67,0,0,0,.18.2.79.79,0,0,0,.26.13,1.58,1.58,0,0,0,.32,0,.74.74,0,0,0,.67-.36,2.07,2.07,0,0,0,.23-1.08A2.28,2.28,0,0,0,219,171a.69.69,0,0,0-.63-.37.87.87,0,0,0-.35.07,1,1,0,0,0-.3.2,1,1,0,0,0-.21.27.6.6,0,0,0-.07.3Zm4.2-1.59h0a2.7,2.7,0,0,1,.37-.38,1.22,1.22,0,0,1,.38-.22,1.06,1.06,0,0,1,.45-.08l.39,0V171h-.42a.86.86,0,0,0-.19-.29.37.37,0,0,0-.27-.09.44.44,0,0,0-.26.08.84.84,0,0,0-.25.22,1,1,0,0,0-.17.28.9.9,0,0,0,0,.3v1.29a2.23,2.23,0,0,0,0,.47.32.32,0,0,0,.14.18.7.7,0,0,0,.28.09v.18h-1.49v-.18l.21-.07a.47.47,0,0,0,.1-.1.45.45,0,0,0,.07-.18,3,3,0,0,0,0-.38v-1.6c0-.16,0-.29,0-.38a.49.49,0,0,0,0-.23.27.27,0,0,0-.13-.13,1.2,1.2,0,0,0-.26-.07v-.19l.86,0h.23Zm2.13,2.73.2-.07a.47.47,0,0,0,.1-.1.45.45,0,0,0,.07-.18,1.85,1.85,0,0,0,0-.38v-2a.64.64,0,0,0-.06-.23.27.27,0,0,0-.13-.13,1.05,1.05,0,0,0-.26-.07v-.2l.86,0h.23v2.63a2.15,2.15,0,0,0,0,.44.28.28,0,0,0,.11.19.7.7,0,0,0,.27.11v.18h-1.44Zm1.05-4.78v.71h-.68v-.71Zm4.35,1.81-.68,0,0,0a.67.67,0,0,1,.18.31,1.18,1.18,0,0,1,.07.43,1.15,1.15,0,0,1-.37.92,1.54,1.54,0,0,1-1.05.33,1.64,1.64,0,0,1-.53-.08.56.56,0,0,0-.28.42.41.41,0,0,0,.05.21.39.39,0,0,0,.18.1,1.74,1.74,0,0,0,.38,0h.88a1.49,1.49,0,0,1,.64.12.78.78,0,0,1,.35.32,1.06,1.06,0,0,1,.1.48,1,1,0,0,1-.19.62,1.34,1.34,0,0,1-.58.42,2.35,2.35,0,0,1-.88.15,4.88,4.88,0,0,1-.68,0,1.78,1.78,0,0,1-.52-.15.79.79,0,0,1-.34-.28.73.73,0,0,1-.12-.43.68.68,0,0,1,.15-.42,1.27,1.27,0,0,1,.44-.33.64.64,0,0,1-.27-.21.51.51,0,0,1-.1-.32.64.64,0,0,1,.12-.38,1.73,1.73,0,0,1,.41-.4,1.15,1.15,0,0,1-.4-.42,1.41,1.41,0,0,1,0-1.16,1,1,0,0,1,.29-.39,1.23,1.23,0,0,1,.44-.23,1.93,1.93,0,0,1,.55-.07,2.31,2.31,0,0,1,.52.06h1.31Zm-1.94,3.24a4.22,4.22,0,0,1-.53,0,1.28,1.28,0,0,0-.28.3.69.69,0,0,0-.09.36.52.52,0,0,0,.26.48,1.59,1.59,0,0,0,.81.16A1.62,1.62,0,0,0,228,175a.8.8,0,0,0,.36-.25.65.65,0,0,0,.12-.39.68.68,0,0,0,0-.2.37.37,0,0,0-.1-.17.46.46,0,0,0-.2-.13,1.16,1.16,0,0,0-.35,0Zm-.62-2.49a1.11,1.11,0,0,0,.19.71.73.73,0,0,0,.86.18.6.6,0,0,0,.22-.2,1.18,1.18,0,0,0,.12-.28,2,2,0,0,0,0-.35,1.38,1.38,0,0,0-.09-.54.71.71,0,0,0-.26-.32.61.61,0,0,0-.36-.1.65.65,0,0,0-.53.23A1,1,0,0,0,226.59,171.34Zm4-.54h0a3.81,3.81,0,0,1,.46-.4,1.35,1.35,0,0,1,.33-.18,1,1,0,0,1,.35-.06,1.25,1.25,0,0,1,.36.05.69.69,0,0,1,.28.15.68.68,0,0,1,.2.24,1.28,1.28,0,0,1,.11.33,3.37,3.37,0,0,1,0,.5v1.39a3.74,3.74,0,0,0,0,.44.39.39,0,0,0,.1.18.92.92,0,0,0,.29.12v.18h-1.45v-.18l.21-.07a.47.47,0,0,0,.1-.1.45.45,0,0,0,.07-.18,3,3,0,0,0,0-.37v-1a3.76,3.76,0,0,0-.05-.75.72.72,0,0,0-.19-.39.65.65,0,0,0-.41-.13.53.53,0,0,0-.26.06,1.07,1.07,0,0,0-.28.18,1.1,1.1,0,0,0-.23.27.67.67,0,0,0-.08.3v1.41a3.24,3.24,0,0,0,0,.36.78.78,0,0,0,.05.18.32.32,0,0,0,.11.12.74.74,0,0,0,.24.08v.18h-1.46v-.18a1,1,0,0,0,.23-.08.36.36,0,0,0,.11-.1.76.76,0,0,0,.06-.18,3.18,3.18,0,0,0,0-.38v-3.08c0-.24,0-.4,0-.49a.78.78,0,0,0,0-.24.48.48,0,0,0-.07-.16.24.24,0,0,0-.11-.08.77.77,0,0,0-.26-.07v-.19l.89,0h.22Zm2.92-.39a.82.82,0,0,0,.3-.11.66.66,0,0,0,.18-.19,1.21,1.21,0,0,0,.1-.29c0-.11.05-.29.07-.51h.53v.91h1.19v.37h-1.19v1.64a4.24,4.24,0,0,0,0,.57.71.71,0,0,0,.11.33.52.52,0,0,0,.18.18.68.68,0,0,0,.27.05.6.6,0,0,0,.27-.06,1,1,0,0,0,.26-.18l.16.2a2.1,2.1,0,0,1-.49.37,1.06,1.06,0,0,1-.49.11.84.84,0,0,1-.7-.28,1.34,1.34,0,0,1-.24-.88v-2h-.54Z"/></g><g class="cls-8"><path class="cls-9" d="M105.82,188.9,104.64,193h-.59L103,189c0-.16-.08-.3-.12-.41a.9.9,0,0,0-.11-.24.58.58,0,0,0-.12-.14.51.51,0,0,0-.18-.08V188H104v.18a.64.64,0,0,0-.32.13.33.33,0,0,0-.09.25,2,2,0,0,0,0,.31c0,.11,0,.25.09.4l.74,2.91,1.19-4.18h.62l1,4.18.87-2.81a3.14,3.14,0,0,0,.16-.73.45.45,0,0,0-.1-.32.47.47,0,0,0-.31-.14V188h1.45v.18a.54.54,0,0,0-.3.21.86.86,0,0,0-.13.24,4,4,0,0,0-.17.45l-1.34,4h-.53Zm5.45,4.15a1.49,1.49,0,0,1-1.17-.45,2,2,0,0,1-.41-1.34,2.31,2.31,0,0,1,.21-1,1.46,1.46,0,0,1,.58-.62,1.7,1.7,0,0,1,.85-.21,1.53,1.53,0,0,1,1.19.46,2,2,0,0,1,.4,1.32,2.28,2.28,0,0,1-.2,1,1.4,1.4,0,0,1-.57.63A1.76,1.76,0,0,1,111.27,193.05Zm-.88-1.87a2.32,2.32,0,0,0,.24,1.17.76.76,0,0,0,.69.41.7.7,0,0,0,.42-.12.87.87,0,0,0,.28-.32,1.45,1.45,0,0,0,.16-.47,3.43,3.43,0,0,0,0-.56,2.88,2.88,0,0,0-.12-.9,1.1,1.1,0,0,0-.33-.53.73.73,0,0,0-.47-.17.75.75,0,0,0-.68.39A2.11,2.11,0,0,0,110.39,191.18Zm4.28-1.1h0a2.84,2.84,0,0,1,.37-.39,1.45,1.45,0,0,1,.38-.22,1.25,1.25,0,0,1,.45-.08,2.38,2.38,0,0,1,.39,0v.84h-.42a.86.86,0,0,0-.19-.29.37.37,0,0,0-.27-.09.52.52,0,0,0-.26.08.89.89,0,0,0-.25.23.92.92,0,0,0-.17.27,1,1,0,0,0,0,.31v1.29a2.11,2.11,0,0,0,0,.46.31.31,0,0,0,.14.19.7.7,0,0,0,.28.09V193h-1.49v-.18l.21-.08a.28.28,0,0,0,.1-.09.52.52,0,0,0,.07-.18,3.18,3.18,0,0,0,0-.38v-1.61c0-.15,0-.28,0-.38a.52.52,0,0,0,0-.23.27.27,0,0,0-.13-.13l-.26-.07v-.19l.86,0h.23Zm3.11.86h.12a.6.6,0,0,0,.2,0,1,1,0,0,0,.2-.11,2.61,2.61,0,0,0,.31-.27,2.1,2.1,0,0,0,.26-.27.62.62,0,0,0,.12-.2.41.41,0,0,0,0-.16.24.24,0,0,0-.07-.17.41.41,0,0,0-.22-.08v-.18h1.58v.18a1.07,1.07,0,0,0-.36.15,2.51,2.51,0,0,0-.39.31l-.85.8,1.06,1.39a2.44,2.44,0,0,0,.34.36.94.94,0,0,0,.32.15V193H119v-.18a.39.39,0,0,0,.14,0,.13.13,0,0,0,0-.11.23.23,0,0,0,0-.11.75.75,0,0,0-.08-.14l-.23-.32-.44-.59-.17-.22a.37.37,0,0,0-.12-.07.33.33,0,0,0-.15,0h-.21v.89a2.15,2.15,0,0,0,0,.44.4.4,0,0,0,.11.19.88.88,0,0,0,.27.11V193h-1.46v-.18a.78.78,0,0,0,.25-.1.4.4,0,0,0,.11-.12.88.88,0,0,0,0-.2,2.58,2.58,0,0,0,0-.32V189c0-.23,0-.4,0-.49a.88.88,0,0,0,0-.24.52.52,0,0,0-.07-.15.2.2,0,0,0-.11-.09l-.26-.07v-.19l.89,0h.22Zm5.42-.67h-.36a1.08,1.08,0,0,0-.19-.34.53.53,0,0,0-.25-.18.86.86,0,0,0-.34-.06.73.73,0,0,0-.47.14.46.46,0,0,0-.18.38.58.58,0,0,0,.07.28.89.89,0,0,0,.22.21,3.69,3.69,0,0,0,.52.25,4.28,4.28,0,0,1,.58.3,1.08,1.08,0,0,1,.32.32.75.75,0,0,1,.12.43,1.19,1.19,0,0,1-.1.49.87.87,0,0,1-.28.32,1,1,0,0,1-.43.18,2.38,2.38,0,0,1-.55.06,4,4,0,0,1-.6-.05,5.05,5.05,0,0,1-.56-.12v-.77h.36a.87.87,0,0,0,.29.49.81.81,0,0,0,.54.16,1.09,1.09,0,0,0,.26,0,.92.92,0,0,0,.23-.09.44.44,0,0,0,.15-.18.54.54,0,0,0,.06-.27.57.57,0,0,0-.07-.31.81.81,0,0,0-.23-.22,4.71,4.71,0,0,0-.54-.26,2.69,2.69,0,0,1-.54-.27,1.06,1.06,0,0,1-.32-.31.8.8,0,0,1-.12-.43.88.88,0,0,1,.17-.53,1,1,0,0,1,.47-.34,2,2,0,0,1,.73-.12,3.59,3.59,0,0,1,.47,0c.15,0,.34,0,.57.09Zm2.46,2.54.2-.08a.28.28,0,0,0,.1-.09.52.52,0,0,0,.07-.18,1.9,1.9,0,0,0,0-.38v-2a.7.7,0,0,0-.06-.23.27.27,0,0,0-.13-.13l-.26-.07v-.19l.86,0h.23v2.64a2.15,2.15,0,0,0,0,.44.33.33,0,0,0,.11.19.7.7,0,0,0,.27.11V193h-1.44Zm1-4.79v.72H126V188Zm4.63,5h-1.45v-.18l.21-.08a.28.28,0,0,0,.1-.09.52.52,0,0,0,.07-.18,3.32,3.32,0,0,0,0-.38v-1c0-.17,0-.33,0-.47a2.43,2.43,0,0,0-.05-.35,1,1,0,0,0-.09-.21A.43.43,0,0,0,130,190a.51.51,0,0,0-.16-.09.75.75,0,0,0-.23,0,.67.67,0,0,0-.28.06,1,1,0,0,0-.28.19,1,1,0,0,0-.22.28.64.64,0,0,0-.07.31v1.38a2.38,2.38,0,0,0,0,.44.35.35,0,0,0,.12.19.7.7,0,0,0,.27.11V193h-1.45v-.18l.21-.08a.28.28,0,0,0,.1-.09.52.52,0,0,0,.07-.18,3.18,3.18,0,0,0,0-.38v-1.61c0-.15,0-.28,0-.38a.52.52,0,0,0,0-.23.27.27,0,0,0-.13-.13l-.26-.07v-.19l.86,0h.23l0,.6.05,0a3.36,3.36,0,0,1,.44-.4,1.86,1.86,0,0,1,.34-.18,1,1,0,0,1,.36-.06,1.37,1.37,0,0,1,.36,0,.72.72,0,0,1,.27.15.74.74,0,0,1,.2.23,1.5,1.5,0,0,1,.12.34,3.4,3.4,0,0,1,0,.51v1.39a3.56,3.56,0,0,0,0,.37.58.58,0,0,0,.05.17.29.29,0,0,0,.11.11,1,1,0,0,0,.24.09Zm4.72-2.72h-.35a1.08,1.08,0,0,0-.19-.34.59.59,0,0,0-.25-.18.9.9,0,0,0-.34-.06.73.73,0,0,0-.47.14.46.46,0,0,0-.18.38.49.49,0,0,0,.07.28.89.89,0,0,0,.22.21,3.69,3.69,0,0,0,.52.25,4.28,4.28,0,0,1,.58.3,1.22,1.22,0,0,1,.32.32.75.75,0,0,1,.11.43,1,1,0,0,1-.1.49.72.72,0,0,1-.28.32,1,1,0,0,1-.42.18,2.38,2.38,0,0,1-.55.06,4,4,0,0,1-.6-.05,5.78,5.78,0,0,1-.57-.12v-.77h.36a.94.94,0,0,0,.3.49.81.81,0,0,0,.54.16,1.15,1.15,0,0,0,.26,0,.73.73,0,0,0,.22-.09.46.46,0,0,0,.16-.18.54.54,0,0,0,.06-.27.57.57,0,0,0-.07-.31.81.81,0,0,0-.23-.22,5.1,5.1,0,0,0-.55-.26,2.87,2.87,0,0,1-.53-.27,1,1,0,0,1-.32-.31.8.8,0,0,1-.12-.43.88.88,0,0,1,.17-.53.94.94,0,0,1,.47-.34,2,2,0,0,1,.72-.12,3.48,3.48,0,0,1,.47,0,5.44,5.44,0,0,1,.57.09Zm4.35,2.72H139v-.18l.21-.08a.31.31,0,0,0,.11-.09.54.54,0,0,0,.06-.18,1.81,1.81,0,0,0,0-.38v-1c0-.17,0-.33,0-.47a1.54,1.54,0,0,0-.05-.35,1,1,0,0,0-.08-.21l-.12-.12a.51.51,0,0,0-.16-.09.71.71,0,0,0-.23,0,.6.6,0,0,0-.27.06,1,1,0,0,0-.29.19,1.27,1.27,0,0,0-.22.28.64.64,0,0,0-.07.31v1.38a2.15,2.15,0,0,0,0,.44.4.4,0,0,0,.11.19.88.88,0,0,0,.27.11V193h-1.44v-.18l.2-.08a.22.22,0,0,0,.1-.09.38.38,0,0,0,.07-.18,1.74,1.74,0,0,0,0-.38v-1.61c0-.15,0-.28,0-.38a.71.71,0,0,0-.05-.23.29.29,0,0,0-.14-.13,1.64,1.64,0,0,0-.25-.07v-.19l.86,0h.22l0,.6.05,0a4.16,4.16,0,0,1,.44-.4,2.26,2.26,0,0,1,.34-.18,1.15,1.15,0,0,1,.37-.06,1.25,1.25,0,0,1,.35,0,.69.69,0,0,1,.28.15.9.9,0,0,1,.2.23,1.13,1.13,0,0,1,.11.34,2.45,2.45,0,0,1,0,.51v1.39a3.56,3.56,0,0,0,0,.37.38.38,0,0,0,.06.17.27.27,0,0,0,.1.11,1,1,0,0,0,.25.09Zm2.22.06a1.49,1.49,0,0,1-1.17-.45,2,2,0,0,1-.4-1.34,2.31,2.31,0,0,1,.21-1,1.35,1.35,0,0,1,.58-.62,1.69,1.69,0,0,1,.84-.21,1.51,1.51,0,0,1,1.19.46,2,2,0,0,1,.41,1.32,2.42,2.42,0,0,1-.2,1,1.42,1.42,0,0,1-.58.63A1.76,1.76,0,0,1,142.63,193.05Zm-.88-1.87a2.21,2.21,0,0,0,.25,1.17.76.76,0,0,0,.69.41.74.74,0,0,0,.42-.12,1,1,0,0,0,.28-.32,2.16,2.16,0,0,0,.16-.47,3.43,3.43,0,0,0,0-.56,2.88,2.88,0,0,0-.12-.9,1.17,1.17,0,0,0-.32-.53.75.75,0,0,0-.47-.17.76.76,0,0,0-.69.39A2.11,2.11,0,0,0,141.75,191.18Zm5.89-.94-1,2.77h-.52l-.88-2.74a3,3,0,0,0-.14-.37.55.55,0,0,0-.12-.16.51.51,0,0,0-.21-.09v-.18h1.45v.18a.76.76,0,0,0-.29.11.29.29,0,0,0-.07.22,1.65,1.65,0,0,0,0,.21l.07.25.58,1.88.94-2.85H148l.81,2.85.64-1.8a2.13,2.13,0,0,0,.09-.27,1.05,1.05,0,0,0,0-.24.36.36,0,0,0-.08-.24.56.56,0,0,0-.28-.12v-.18h1.28v.18a.37.37,0,0,0-.15,0,.39.39,0,0,0-.1.08.62.62,0,0,0-.11.17c0,.07-.09.19-.16.35L148.94,193h-.5Zm8.07-2.52-2.66,6.85h-.58l2.67-6.85Zm4.11,2.12h-.88v2.23a3.12,3.12,0,0,0,0,.37.58.58,0,0,0,.07.19.27.27,0,0,0,.13.1,1.1,1.1,0,0,0,.24.08V193h-1.51v-.18a.91.91,0,0,0,.23-.09.27.27,0,0,0,.11-.1.38.38,0,0,0,.06-.18,3,3,0,0,0,0-.37v-2.23h-.45v-.19l.19,0,.08,0a.2.2,0,0,0,.08-.08.38.38,0,0,0,0-.14,1.3,1.3,0,0,0,0-.26,1.78,1.78,0,0,1,.15-.65,1.06,1.06,0,0,1,.33-.43,1.22,1.22,0,0,1,.46-.25,1.93,1.93,0,0,1,.57-.07,2.41,2.41,0,0,1,.5,0v.67h-.37a.68.68,0,0,0-.16-.31.37.37,0,0,0-.27-.09.6.6,0,0,0-.2,0,.4.4,0,0,0-.15.1.52.52,0,0,0-.12.19,1.11,1.11,0,0,0-.08.29c0,.12,0,.27,0,.46v.39h.88Zm2,3.21a1.49,1.49,0,0,1-1.17-.45,2,2,0,0,1-.4-1.34,2.31,2.31,0,0,1,.21-1,1.35,1.35,0,0,1,.58-.62,1.64,1.64,0,0,1,.84-.21,1.53,1.53,0,0,1,1.19.46,2,2,0,0,1,.41,1.32,2.28,2.28,0,0,1-.21,1,1.35,1.35,0,0,1-.57.63A1.76,1.76,0,0,1,161.84,193.05Zm-.88-1.87a2.32,2.32,0,0,0,.24,1.17.76.76,0,0,0,.69.41.7.7,0,0,0,.42-.12,1,1,0,0,0,.29-.32,1.73,1.73,0,0,0,.15-.47,3.43,3.43,0,0,0,.05-.56,2.88,2.88,0,0,0-.12-.9,1.1,1.1,0,0,0-.33-.53.71.71,0,0,0-.47-.17.76.76,0,0,0-.68.39A2.11,2.11,0,0,0,161,191.18Zm6.51-1.34-.69,0,0,0a.73.73,0,0,1,.18.31,1.25,1.25,0,0,1,.07.43,1.2,1.2,0,0,1-.37.93,1.59,1.59,0,0,1-1,.32,1.66,1.66,0,0,1-.53-.07.56.56,0,0,0-.28.42.34.34,0,0,0,0,.2.32.32,0,0,0,.18.1,1.7,1.7,0,0,0,.37,0h.89a1.41,1.41,0,0,1,.63.12.73.73,0,0,1,.36.33,1,1,0,0,1,.1.48,1,1,0,0,1-.2.61,1.35,1.35,0,0,1-.57.43,2.39,2.39,0,0,1-.88.15,4.72,4.72,0,0,1-.68,0,2,2,0,0,1-.53-.15.93.93,0,0,1-.34-.27.75.75,0,0,1-.12-.43.65.65,0,0,1,.16-.42,1.32,1.32,0,0,1,.44-.34.51.51,0,0,1-.27-.2.53.53,0,0,1-.1-.32.77.77,0,0,1,.11-.39,1.81,1.81,0,0,1,.42-.4,1,1,0,0,1-.4-.42,1.21,1.21,0,0,1-.14-.6,1.37,1.37,0,0,1,.1-.56,1.1,1.1,0,0,1,.29-.38,1.37,1.37,0,0,1,.45-.23,1.85,1.85,0,0,1,.54-.08,1.88,1.88,0,0,1,.53.07h1.31Zm-1.94,3.23-.53,0a1.09,1.09,0,0,0-.28.29.75.75,0,0,0-.1.36.53.53,0,0,0,.27.49,2,2,0,0,0,1.37.07.85.85,0,0,0,.37-.26.64.64,0,0,0,.12-.38,1.23,1.23,0,0,0,0-.2.4.4,0,0,0-.1-.18.53.53,0,0,0-.21-.12,1.06,1.06,0,0,0-.34-.05Zm-.62-2.48a1.15,1.15,0,0,0,.19.71.61.61,0,0,0,.54.25.79.79,0,0,0,.32-.07.58.58,0,0,0,.21-.2.86.86,0,0,0,.13-.29,1.87,1.87,0,0,0,0-.34,1.47,1.47,0,0,0-.09-.55.61.61,0,0,0-.25-.31.64.64,0,0,0-.36-.11.64.64,0,0,0-.54.24A1.05,1.05,0,0,0,164.91,190.59Zm7.79-2.87L170,194.57h-.58l2.67-6.85Z"/></g><g class="cls-8"><path class="cls-9" d="M132.44,198.93h.06a2.7,2.7,0,0,1,.37-.38,1.22,1.22,0,0,1,.38-.22,1.06,1.06,0,0,1,.45-.08l.39,0v.85h-.42a.86.86,0,0,0-.19-.29.37.37,0,0,0-.27-.09.42.42,0,0,0-.26.08.84.84,0,0,0-.25.22.78.78,0,0,0-.17.28.9.9,0,0,0-.05.3v1.29a1.7,1.7,0,0,0,0,.47.32.32,0,0,0,.14.18.7.7,0,0,0,.28.09v.18h-1.49v-.18l.2-.07a.52.52,0,0,0,.11-.1.45.45,0,0,0,.07-.18,3,3,0,0,0,0-.38v-1.6c0-.16,0-.29,0-.38a.49.49,0,0,0-.05-.23.29.29,0,0,0-.14-.13,1,1,0,0,0-.25-.07v-.19l.86,0h.23Zm4.26,2.39,0,0a2.3,2.3,0,0,1-.6.47,1.38,1.38,0,0,1-.6.13,1,1,0,0,1-.5-.11.72.72,0,0,1-.32-.3.85.85,0,0,1-.12-.46.93.93,0,0,1,.53-.83,3.86,3.86,0,0,1,1.6-.34v-.24a2,2,0,0,0-.07-.6.64.64,0,0,0-.23-.33.88.88,0,0,0-.43-.1.69.69,0,0,0-.46.15.83.83,0,0,0-.26.45h-.49v-.47a3.91,3.91,0,0,1,.59-.27,3.1,3.1,0,0,1,.47-.14,2.61,2.61,0,0,1,.48-.05,1.23,1.23,0,0,1,.59.12.67.67,0,0,1,.33.35,1.87,1.87,0,0,1,.11.72v1.29a3.56,3.56,0,0,0,0,.38,1.36,1.36,0,0,0,0,.21.53.53,0,0,0,0,.15.36.36,0,0,0,.11.1,1.1,1.1,0,0,0,.24.08v.18h-1Zm-.06-1.16a2.8,2.8,0,0,0-1.12.2.66.66,0,0,0-.29.91.46.46,0,0,0,.22.17.94.94,0,0,0,.76-.07,1.18,1.18,0,0,0,.32-.31.79.79,0,0,0,.11-.38Zm1.65,1.5.2-.07a.32.32,0,0,0,.1-.1.34.34,0,0,0,.07-.18,1.68,1.68,0,0,0,0-.38v-1.6c0-.16,0-.29,0-.38a.66.66,0,0,0-.05-.23.29.29,0,0,0-.14-.13,1,1,0,0,0-.25-.07v-.2l.85,0h.23v2.63a2.15,2.15,0,0,0,0,.44.32.32,0,0,0,.11.19.88.88,0,0,0,.27.11v.18h-1.44Zm1.05-4.78v.71h-.68v-.71Zm4.55,5h-1.45v-.18l.21-.07.1-.1a.45.45,0,0,0,.07-.18,3,3,0,0,0,0-.37v-1c0-.17,0-.33,0-.47a2.27,2.27,0,0,0-.05-.34.69.69,0,0,0-.09-.21.49.49,0,0,0-.12-.13.53.53,0,0,0-.15-.08.73.73,0,0,0-.23,0,.67.67,0,0,0-.28.06,1.35,1.35,0,0,0-.28.2,1,1,0,0,0-.23.28.74.74,0,0,0-.07.31v1.37a2.15,2.15,0,0,0,0,.44.29.29,0,0,0,.12.19.7.7,0,0,0,.27.11v.18H140.3v-.18l.21-.07a.47.47,0,0,0,.1-.1.45.45,0,0,0,.07-.18,3,3,0,0,0,0-.38v-1.6c0-.16,0-.29,0-.38a.49.49,0,0,0-.05-.23.27.27,0,0,0-.13-.13,1.05,1.05,0,0,0-.26-.07v-.2l.86,0h.23l0,.6h0a4,4,0,0,1,.44-.39,1.24,1.24,0,0,1,.34-.18.86.86,0,0,1,.36-.07,1.36,1.36,0,0,1,.36.05.87.87,0,0,1,.27.14.68.68,0,0,1,.2.24,1.35,1.35,0,0,1,.12.34,3.26,3.26,0,0,1,0,.5v1.39a3.45,3.45,0,0,0,0,.37.56.56,0,0,0,0,.18.27.27,0,0,0,.11.1.86.86,0,0,0,.24.09Z"/></g><g class="cls-8"><path class="cls-9" d="M40.87,172.81a1.62,1.62,0,0,0,0,.35.52.52,0,0,0,.07.2.37.37,0,0,0,.13.12,1,1,0,0,0,.27.08v.18H39.75v-.18a.77.77,0,0,0,.31-.13.34.34,0,0,0,.1-.2,3.66,3.66,0,0,0,0-.41v-3.18a1.74,1.74,0,0,0,0-.37.47.47,0,0,0-.06-.19A.27.27,0,0,0,40,169l-.24-.09v-.18h1.83a2.06,2.06,0,0,1,1.28.33,1.22,1.22,0,0,1,.43,1,1.74,1.74,0,0,1-.14.69,1.34,1.34,0,0,1-.37.5,1.65,1.65,0,0,1-.58.28,2.61,2.61,0,0,1-.69.08h-.64Zm0-1.53h.43a1.72,1.72,0,0,0,.69-.11.76.76,0,0,0,.41-.36,1.31,1.31,0,0,0,.14-.67,1.32,1.32,0,0,0-.08-.52.89.89,0,0,0-.23-.35,1,1,0,0,0-.36-.18,2.14,2.14,0,0,0-.45-.05h-.55Zm4.1-.45H45a2.7,2.7,0,0,1,.37-.38,1.22,1.22,0,0,1,.38-.22,1.06,1.06,0,0,1,.45-.08l.39,0V171H46.2a.86.86,0,0,0-.19-.29.37.37,0,0,0-.27-.09.44.44,0,0,0-.26.08.84.84,0,0,0-.25.22.78.78,0,0,0-.17.28.9.9,0,0,0-.05.3v1.29a2.23,2.23,0,0,0,0,.47.32.32,0,0,0,.14.18.7.7,0,0,0,.28.09v.18H44v-.18l.2-.07a.36.36,0,0,0,.11-.1.45.45,0,0,0,.07-.18,3,3,0,0,0,0-.38v-1.6c0-.16,0-.29,0-.38a.49.49,0,0,0,0-.23.29.29,0,0,0-.14-.13,1,1,0,0,0-.25-.07v-.19l.86,0H45Zm3.74,3a1.49,1.49,0,0,1-1.17-.45,1.92,1.92,0,0,1-.41-1.33,2.15,2.15,0,0,1,.22-1,1.42,1.42,0,0,1,.58-.63,1.74,1.74,0,0,1,.84-.2,1.5,1.5,0,0,1,1.19.46,1.91,1.91,0,0,1,.41,1.32,2.31,2.31,0,0,1-.21,1,1.35,1.35,0,0,1-.57.63A1.87,1.87,0,0,1,48.71,173.8Zm-.88-1.86a2.37,2.37,0,0,0,.24,1.17.75.75,0,0,0,.69.4.7.7,0,0,0,.42-.12.8.8,0,0,0,.28-.32,1.3,1.3,0,0,0,.16-.47,3.33,3.33,0,0,0,.05-.56,2.88,2.88,0,0,0-.12-.9,1.06,1.06,0,0,0-.33-.52.71.71,0,0,0-.47-.17.75.75,0,0,0-.68.39A2.06,2.06,0,0,0,47.83,171.94Zm4.41-1.72v.18l-.24.08a.27.27,0,0,0-.11.1.31.31,0,0,0,0,.15,1.49,1.49,0,0,0,0,.21,1.77,1.77,0,0,0,.08.25l.64,1.87.75-1.79a2,2,0,0,0,.1-.29.88.88,0,0,0,0-.21.31.31,0,0,0-.08-.24.7.7,0,0,0-.3-.13v-.18h1.37v.18a.56.56,0,0,0-.22.09.79.79,0,0,0-.15.19l-.19.37-1.24,2.73h-.43l-1-2.75a2,2,0,0,0-.17-.39.53.53,0,0,0-.13-.16.71.71,0,0,0-.21-.08v-.18Zm2.59,3.34.2-.07a.47.47,0,0,0,.1-.1.45.45,0,0,0,.07-.18,1.85,1.85,0,0,0,0-.38v-2a.64.64,0,0,0-.06-.23.27.27,0,0,0-.13-.13,1.05,1.05,0,0,0-.26-.07v-.2l.86,0h.23v2.63a2.15,2.15,0,0,0,0,.44.28.28,0,0,0,.11.19.7.7,0,0,0,.27.11v.18H54.83Zm1.05-4.78v.71H55.2v-.71Zm3.56,1v-.49q0-.15,0-.24a.48.48,0,0,0-.07-.16l-.11-.08a.84.84,0,0,0-.26-.07v-.19l.89,0h.21v4.27a3.52,3.52,0,0,0,0,.41.54.54,0,0,0,0,.2.34.34,0,0,0,.12.12.87.87,0,0,0,.28.08v.19l-.87,0h-.22l0-.6,0,0a2.51,2.51,0,0,1-.41.37,1.58,1.58,0,0,1-.36.2,1.16,1.16,0,0,1-.42.07,1.07,1.07,0,0,1-.93-.46A2.22,2.22,0,0,1,57,172a2.18,2.18,0,0,1,.22-1,1.38,1.38,0,0,1,.57-.62,1.64,1.64,0,0,1,.82-.21,2,2,0,0,1,.44,0,2.34,2.34,0,0,1,.41.12Zm0,1.82a2.77,2.77,0,0,0,0-.46.77.77,0,0,0-.08-.29.55.55,0,0,0-.17-.2.59.59,0,0,0-.22-.12,1.21,1.21,0,0,0-.3,0,.82.82,0,0,0-.72.38,2,2,0,0,0-.24,1.09,2.19,2.19,0,0,0,.2,1.07.65.65,0,0,0,.61.37,1,1,0,0,0,.27,0,.6.6,0,0,0,.21-.08,1.57,1.57,0,0,0,.21-.17.87.87,0,0,0,.16-.2.59.59,0,0,0,.07-.2,1.21,1.21,0,0,0,0-.3Zm4.68,1.56a3.36,3.36,0,0,1-.44.38,1.35,1.35,0,0,1-.43.22,1.46,1.46,0,0,1-.52.08,1.43,1.43,0,0,1-1.15-.45A2.08,2.08,0,0,1,61.2,172a2.13,2.13,0,0,1,.2-1,1.43,1.43,0,0,1,.56-.65,1.55,1.55,0,0,1,.84-.23,1.48,1.48,0,0,1,.63.12,1,1,0,0,1,.42.32,1.67,1.67,0,0,1,.24.52,3.29,3.29,0,0,1,.1.81H61.87V172a2.28,2.28,0,0,0,.1.74.9.9,0,0,0,.32.46,1,1,0,0,0,.58.17,1.33,1.33,0,0,0,.54-.11,1.72,1.72,0,0,0,.48-.37Zm-.62-1.5a3.3,3.3,0,0,0-.1-.65.83.83,0,0,0-.23-.39.61.61,0,0,0-.41-.13.74.74,0,0,0-.61.3,1.63,1.63,0,0,0-.26.87Zm3.76-.59h-.35a1.15,1.15,0,0,0-.19-.35.83.83,0,0,0-.25-.18,1.16,1.16,0,0,0-.34-.05.73.73,0,0,0-.47.14.45.45,0,0,0-.18.38.51.51,0,0,0,.07.28.72.72,0,0,0,.22.2,3.47,3.47,0,0,0,.52.26,2.79,2.79,0,0,1,.58.3,1.18,1.18,0,0,1,.32.31.77.77,0,0,1,.11.43,1,1,0,0,1-.1.49.74.74,0,0,1-.28.33,1.33,1.33,0,0,1-.42.18,2.39,2.39,0,0,1-.55.05,4,4,0,0,1-.6,0,5.78,5.78,0,0,1-.57-.12v-.77h.36a1,1,0,0,0,.3.49.87.87,0,0,0,.54.15,1.15,1.15,0,0,0,.26,0,.43.43,0,0,0,.22-.09.44.44,0,0,0,.16-.17.61.61,0,0,0,.06-.28.53.53,0,0,0-.07-.3.7.7,0,0,0-.23-.22,3.68,3.68,0,0,0-.55-.26,3.57,3.57,0,0,1-.53-.28.87.87,0,0,1-.32-.31.75.75,0,0,1-.12-.43.85.85,0,0,1,.17-.52.94.94,0,0,1,.47-.34,2,2,0,0,1,.72-.12l.47,0a5.78,5.78,0,0,1,.57.1Zm5.21-.72v.77H72a1.25,1.25,0,0,0-.15-.38.55.55,0,0,0-.22-.19.67.67,0,0,0-.3-.06.73.73,0,0,0-.46.17,1,1,0,0,0-.31.5,2.51,2.51,0,0,0-.12.83,3.27,3.27,0,0,0,0,.57,1.4,1.4,0,0,0,.15.45.69.69,0,0,0,.28.28.84.84,0,0,0,.44.11,1.2,1.2,0,0,0,.47-.1,1.52,1.52,0,0,0,.46-.35l.21.24a3.1,3.1,0,0,1-.33.32,2,2,0,0,1-.31.19,1.42,1.42,0,0,1-.33.11,1.79,1.79,0,0,1-.34,0,1.28,1.28,0,0,1-1.07-.46A2.47,2.47,0,0,1,70,171a1.53,1.53,0,0,1,.58-.65,1.62,1.62,0,0,1,.86-.23,4.68,4.68,0,0,1,.55,0A3.25,3.25,0,0,1,72.47,170.31Zm2.18,3.49a1.49,1.49,0,0,1-1.17-.45,2,2,0,0,1-.4-1.33,2.28,2.28,0,0,1,.21-1,1.48,1.48,0,0,1,.58-.63,1.8,1.8,0,0,1,.84-.2,1.5,1.5,0,0,1,1.2.46,1.91,1.91,0,0,1,.4,1.32,2.46,2.46,0,0,1-.2,1,1.42,1.42,0,0,1-.58.63A1.84,1.84,0,0,1,74.65,173.8Zm-.87-1.86a2.37,2.37,0,0,0,.24,1.17.75.75,0,0,0,.69.4.74.74,0,0,0,.42-.12.88.88,0,0,0,.28-.32,1.53,1.53,0,0,0,.16-.47,3.33,3.33,0,0,0,.05-.56,2.88,2.88,0,0,0-.12-.9,1.06,1.06,0,0,0-.33-.52.73.73,0,0,0-.47-.17.76.76,0,0,0-.69.39A2.17,2.17,0,0,0,73.78,171.94Zm4.26.88a2.15,2.15,0,0,0,0,.44.32.32,0,0,0,.11.19.85.85,0,0,0,.28.11v.18H77v-.18a.66.66,0,0,0,.26-.1.23.23,0,0,0,.1-.12.74.74,0,0,0,.05-.19c0-.09,0-.19,0-.33v-3.08c0-.24,0-.4,0-.49a.78.78,0,0,0,0-.24.34.34,0,0,0-.06-.16.36.36,0,0,0-.12-.08.7.7,0,0,0-.26-.07v-.19l.89,0H78Zm2.64,1a1.49,1.49,0,0,1-1.17-.45,2,2,0,0,1-.4-1.33,2.28,2.28,0,0,1,.21-1,1.48,1.48,0,0,1,.58-.63,1.8,1.8,0,0,1,.84-.2,1.5,1.5,0,0,1,1.2.46,1.91,1.91,0,0,1,.4,1.32,2.46,2.46,0,0,1-.2,1,1.42,1.42,0,0,1-.58.63A1.84,1.84,0,0,1,80.68,173.8Zm-.87-1.86a2.37,2.37,0,0,0,.24,1.17.75.75,0,0,0,.69.4.74.74,0,0,0,.42-.12.88.88,0,0,0,.28-.32,1.53,1.53,0,0,0,.16-.47,3.33,3.33,0,0,0,.05-.56,2.88,2.88,0,0,0-.12-.9,1.06,1.06,0,0,0-.33-.52.73.73,0,0,0-.47-.17.76.76,0,0,0-.69.39A2.17,2.17,0,0,0,79.81,171.94ZM83,170.22h1v1.88a5.32,5.32,0,0,0,0,.65,1.28,1.28,0,0,0,.1.34.58.58,0,0,0,.19.19.55.55,0,0,0,.34.08.86.86,0,0,0,.27-.05,1.35,1.35,0,0,0,.28-.2.92.92,0,0,0,.23-.27.79.79,0,0,0,.07-.32v-1.38c0-.14,0-.25,0-.32a.61.61,0,0,0,0-.17.44.44,0,0,0-.06-.1.27.27,0,0,0-.1-.08l-.21-.07v-.18h1v2.52c0,.19,0,.32,0,.41a.83.83,0,0,0,0,.2.25.25,0,0,0,.11.12,1,1,0,0,0,.28.08v.19l-.84,0h-.23l0-.6,0,0a2.43,2.43,0,0,1-.58.49,1.21,1.21,0,0,1-.56.15,1.06,1.06,0,0,1-.56-.13.81.81,0,0,1-.32-.4,2,2,0,0,1-.11-.74v-1.39a3.66,3.66,0,0,0,0-.43.44.44,0,0,0-.09-.18.71.71,0,0,0-.3-.13Zm5.25.61h0a2.71,2.71,0,0,1,.38-.38,1.17,1.17,0,0,1,.37-.22,1.11,1.11,0,0,1,.46-.08l.38,0V171h-.41a.86.86,0,0,0-.19-.29.4.4,0,0,0-.27-.09.47.47,0,0,0-.27.08,1,1,0,0,0-.25.22,1,1,0,0,0-.17.28.91.91,0,0,0,0,.3v1.29a1.7,1.7,0,0,0,0,.47.3.3,0,0,0,.13.18.77.77,0,0,0,.28.09v.18H87.26v-.18l.2-.07a.47.47,0,0,0,.1-.1.34.34,0,0,0,.07-.18,1.85,1.85,0,0,0,0-.38v-2a.64.64,0,0,0-.06-.23.27.27,0,0,0-.13-.13,1.05,1.05,0,0,0-.26-.07v-.19l.87,0h.22Z"/></g><g class="cls-8"><path class="cls-9" d="M21.25,135.81v-.18a1,1,0,0,0,.24-.09.22.22,0,0,0,.11-.1.38.38,0,0,0,.06-.18,1.79,1.79,0,0,0,0-.37V131.7a1.74,1.74,0,0,0,0-.37.38.38,0,0,0-.06-.18.21.21,0,0,0-.11-.1,1,1,0,0,0-.24-.09v-.18h1.61a3.58,3.58,0,0,1,1.14.15,1.88,1.88,0,0,1,.75.45,1.82,1.82,0,0,1,.46.74,3.35,3.35,0,0,1,.15,1.06,4,4,0,0,1-.14,1.1,2.06,2.06,0,0,1-.42.79,1.79,1.79,0,0,1-.58.47,2.61,2.61,0,0,1-.65.21,6.53,6.53,0,0,1-1,.06Zm1.12-.34h.44a3,3,0,0,0,.55,0,1.91,1.91,0,0,0,.44-.16,1.49,1.49,0,0,0,.36-.31,2,2,0,0,0,.26-.45,3.39,3.39,0,0,0,.14-.57,4.86,4.86,0,0,0,.05-.69,2.91,2.91,0,0,0-.22-1.23,1.41,1.41,0,0,0-.61-.7,1.83,1.83,0,0,0-.93-.22h-.48Zm6.76-.29a2.44,2.44,0,0,1-.43.39,1.75,1.75,0,0,1-.43.22,1.72,1.72,0,0,1-.52.08,1.41,1.41,0,0,1-1.15-.46,2,2,0,0,1-.39-1.34,2.27,2.27,0,0,1,.2-1,1.49,1.49,0,0,1,.56-.65,1.6,1.6,0,0,1,.84-.23,1.56,1.56,0,0,1,.64.12,1.23,1.23,0,0,1,.42.32,1.67,1.67,0,0,1,.24.52,3.43,3.43,0,0,1,.1.81H26.89v.07a2.55,2.55,0,0,0,.09.73.88.88,0,0,0,.9.63,1.35,1.35,0,0,0,.55-.11,1.72,1.72,0,0,0,.48-.37Zm-.62-1.49a2.16,2.16,0,0,0-.1-.65.75.75,0,0,0-.23-.39.59.59,0,0,0-.4-.14.73.73,0,0,0-.61.31,1.66,1.66,0,0,0-.27.87Zm1.08-1.22a.6.6,0,0,0,.48-.29,1.63,1.63,0,0,0,.1-.29c0-.12,0-.29.08-.52h.52v.92H32v.37H30.77v1.64a4.24,4.24,0,0,0,0,.57.85.85,0,0,0,.11.33.48.48,0,0,0,.18.17.68.68,0,0,0,.27,0,.67.67,0,0,0,.28-.06,1.23,1.23,0,0,0,.25-.17l.17.19a1.88,1.88,0,0,1-.5.37,1.07,1.07,0,0,1-.48.12.88.88,0,0,1-.71-.28,1.37,1.37,0,0,1-.23-.89v-2h-.55Zm5.78,2.71a2.46,2.46,0,0,1-.44.39,1.59,1.59,0,0,1-.43.22,1.72,1.72,0,0,1-.52.08,1.39,1.39,0,0,1-1.14-.46,2,2,0,0,1-.39-1.34,2.13,2.13,0,0,1,.2-1,1.43,1.43,0,0,1,.56-.65,1.55,1.55,0,0,1,.84-.23,1.48,1.48,0,0,1,.63.12,1.07,1.07,0,0,1,.42.32,1.47,1.47,0,0,1,.24.52,3.43,3.43,0,0,1,.1.81H33.12v.07a2.22,2.22,0,0,0,.1.73.86.86,0,0,0,.32.46.89.89,0,0,0,.58.17,1.33,1.33,0,0,0,.54-.11,1.72,1.72,0,0,0,.48-.37Zm-.62-1.49a3.07,3.07,0,0,0-.1-.65.83.83,0,0,0-.23-.39.62.62,0,0,0-.41-.14.75.75,0,0,0-.61.31,1.58,1.58,0,0,0-.26.87Zm4-1.32v.77h-.47a1.25,1.25,0,0,0-.15-.38.5.5,0,0,0-.22-.19.67.67,0,0,0-.3-.06.68.68,0,0,0-.45.17,1.08,1.08,0,0,0-.32.5,2.55,2.55,0,0,0-.12.83,3.48,3.48,0,0,0,.05.58A1.34,1.34,0,0,0,37,135a.75.75,0,0,0,.72.39,1.12,1.12,0,0,0,.48-.1,1.45,1.45,0,0,0,.45-.35l.21.24a3.1,3.1,0,0,1-.33.32,1.44,1.44,0,0,1-.31.19,1.52,1.52,0,0,1-.32.11,1.34,1.34,0,0,1-.35,0,1.29,1.29,0,0,1-1.07-.47,2.11,2.11,0,0,1-.37-1.33,2.16,2.16,0,0,1,.21-1,1.53,1.53,0,0,1,.58-.65,1.62,1.62,0,0,1,.86-.23,3.28,3.28,0,0,1,.56,0A3.1,3.1,0,0,1,38.79,132.37Zm.36.1a.76.76,0,0,0,.3-.1.54.54,0,0,0,.18-.19,1.1,1.1,0,0,0,.1-.29c0-.12.05-.29.08-.52h.52v.92h1.19v.37H40.33v1.64a4.24,4.24,0,0,0,0,.57.85.85,0,0,0,.11.33.5.5,0,0,0,.19.17.6.6,0,0,0,.26,0,.67.67,0,0,0,.28-.06,1.23,1.23,0,0,0,.25-.17l.17.19a1.88,1.88,0,0,1-.5.37,1,1,0,0,1-.48.12.88.88,0,0,1-.71-.28,1.44,1.44,0,0,1-.23-.89v-2h-.55Zm5.3.62h-.36a1.15,1.15,0,0,0-.19-.35.59.59,0,0,0-.25-.17.86.86,0,0,0-.34-.06.73.73,0,0,0-.47.14.45.45,0,0,0-.18.38.58.58,0,0,0,.07.28.89.89,0,0,0,.22.21,5.34,5.34,0,0,0,.52.25,4.28,4.28,0,0,1,.58.3,1.08,1.08,0,0,1,.32.32.75.75,0,0,1,.12.43,1.22,1.22,0,0,1-.1.49.87.87,0,0,1-.28.32,1.39,1.39,0,0,1-.43.18,2.38,2.38,0,0,1-.55.06,4,4,0,0,1-.6-.05,5.05,5.05,0,0,1-.56-.12v-.77h.36a.87.87,0,0,0,.29.49.81.81,0,0,0,.54.16,1.09,1.09,0,0,0,.26,0,.92.92,0,0,0,.23-.09.69.69,0,0,0,.16-.18.7.7,0,0,0,0-.28.56.56,0,0,0-.07-.3.81.81,0,0,0-.23-.22,4.71,4.71,0,0,0-.54-.26,2.69,2.69,0,0,1-.54-.27,1.08,1.08,0,0,1-.32-.32.74.74,0,0,1-.12-.42.88.88,0,0,1,.17-.53,1,1,0,0,1,.47-.34,2,2,0,0,1,.73-.12,3.59,3.59,0,0,1,.47,0,4.06,4.06,0,0,1,.57.09Zm4.83,0h-.36a1.15,1.15,0,0,0-.19-.35.59.59,0,0,0-.25-.17.86.86,0,0,0-.34-.06.73.73,0,0,0-.47.14.45.45,0,0,0-.18.38.58.58,0,0,0,.07.28.89.89,0,0,0,.22.21,5.34,5.34,0,0,0,.52.25,4.28,4.28,0,0,1,.58.3,1.08,1.08,0,0,1,.32.32.75.75,0,0,1,.12.43,1.22,1.22,0,0,1-.1.49.87.87,0,0,1-.28.32,1.39,1.39,0,0,1-.43.18,2.38,2.38,0,0,1-.55.06,4,4,0,0,1-.6-.05,5.05,5.05,0,0,1-.56-.12v-.77h.36a.87.87,0,0,0,.29.49.81.81,0,0,0,.54.16,1.09,1.09,0,0,0,.26,0,.92.92,0,0,0,.23-.09.69.69,0,0,0,.16-.18.7.7,0,0,0,0-.28.56.56,0,0,0-.07-.3.7.7,0,0,0-.23-.22,4.71,4.71,0,0,0-.54-.26,2.69,2.69,0,0,1-.54-.27,1.08,1.08,0,0,1-.32-.32.74.74,0,0,1-.12-.42.88.88,0,0,1,.17-.53,1,1,0,0,1,.47-.34,2,2,0,0,1,.73-.12,3.59,3.59,0,0,1,.47,0,4.06,4.06,0,0,1,.57.09Zm1.84,2.61v.78a1.68,1.68,0,0,0,0,.35.74.74,0,0,0,0,.19.36.36,0,0,0,.13.11.73.73,0,0,0,.25.08v.18h-1.5v-.18l.21-.07a.3.3,0,0,0,.13-.12.52.52,0,0,0,.06-.2,3,3,0,0,0,0-.34v-3.17c0-.17,0-.3,0-.37s0-.14,0-.19a.35.35,0,0,0-.07-.12.24.24,0,0,0-.11-.08.77.77,0,0,0-.24-.07v-.19l.87,0h.22l0,.6.06,0a3.29,3.29,0,0,1,.36-.34,1.17,1.17,0,0,1,.28-.17,1,1,0,0,1,.27-.1,1.27,1.27,0,0,1,.28,0,1.09,1.09,0,0,1,.93.45,2.25,2.25,0,0,1,.33,1.33,2.43,2.43,0,0,1-.19,1,1.35,1.35,0,0,1-.53.62,1.64,1.64,0,0,1-.84.21,2.57,2.57,0,0,1-.5-.05A2.34,2.34,0,0,1,51.12,135.7Zm0-1.22a2.62,2.62,0,0,0,0,.55.66.66,0,0,0,.16.31.64.64,0,0,0,.27.18,1.09,1.09,0,0,0,.4.06.74.74,0,0,0,.67-.37,2.18,2.18,0,0,0,.22-1.1q0-1.44-.84-1.44a1,1,0,0,0-.36.06,1.61,1.61,0,0,0-.29.21,1,1,0,0,0-.21.28.72.72,0,0,0-.06.29Zm6.07.7a2.44,2.44,0,0,1-.43.39,1.75,1.75,0,0,1-.43.22,1.72,1.72,0,0,1-.52.08,1.41,1.41,0,0,1-1.15-.46,2,2,0,0,1-.39-1.34,2.27,2.27,0,0,1,.2-1,1.49,1.49,0,0,1,.56-.65,1.6,1.6,0,0,1,.84-.23,1.56,1.56,0,0,1,.64.12,1.23,1.23,0,0,1,.42.32,1.67,1.67,0,0,1,.24.52,3.43,3.43,0,0,1,.1.81H55v.07a2.55,2.55,0,0,0,.09.73.88.88,0,0,0,.9.63,1.35,1.35,0,0,0,.55-.11,1.72,1.72,0,0,0,.48-.37Zm-.62-1.49a2.16,2.16,0,0,0-.1-.65.75.75,0,0,0-.23-.39.59.59,0,0,0-.4-.14.73.73,0,0,0-.61.31,1.66,1.66,0,0,0-.27.87Zm4.34,1.49a2.86,2.86,0,0,1-.44.39,1.59,1.59,0,0,1-.43.22,1.72,1.72,0,0,1-.52.08,1.41,1.41,0,0,1-1.15-.46,2.06,2.06,0,0,1-.38-1.34,2.27,2.27,0,0,1,.19-1,1.51,1.51,0,0,1,.57-.65,1.55,1.55,0,0,1,.84-.23,1.51,1.51,0,0,1,.63.12,1.14,1.14,0,0,1,.42.32,1.67,1.67,0,0,1,.24.52,3.43,3.43,0,0,1,.1.81H58.66v.07a2.22,2.22,0,0,0,.1.73.86.86,0,0,0,.32.46.89.89,0,0,0,.58.17,1.33,1.33,0,0,0,.54-.11,1.72,1.72,0,0,0,.48-.37Zm-.62-1.49a3.07,3.07,0,0,0-.1-.65.83.83,0,0,0-.23-.39.62.62,0,0,0-.41-.14.74.74,0,0,0-.61.31,1.58,1.58,0,0,0-.26.87Zm3.78-1.89v-.49q0-.13,0-.24a.42.42,0,0,0-.07-.15.31.31,0,0,0-.11-.09l-.26-.07v-.19l.89,0h.22v4.27c0,.19,0,.33,0,.41a.5.5,0,0,0,0,.2.34.34,0,0,0,.12.12,1.14,1.14,0,0,0,.28.09v.19l-.87,0h-.22l0-.6h0a4,4,0,0,1-.41.37,1.55,1.55,0,0,1-.36.19,1.16,1.16,0,0,1-.42.08,1.09,1.09,0,0,1-.93-.46,2.67,2.67,0,0,1-.11-2.35,1.46,1.46,0,0,1,.57-.63,1.64,1.64,0,0,1,.82-.21,2.87,2.87,0,0,1,.44,0,2.16,2.16,0,0,1,.41.13Zm0,1.82c0-.19,0-.34,0-.46a1.1,1.1,0,0,0-.09-.29.78.78,0,0,0-.16-.2,1,1,0,0,0-.23-.12,1.26,1.26,0,0,0-.3,0,.8.8,0,0,0-.72.38,2,2,0,0,0-.24,1.08,2.26,2.26,0,0,0,.2,1.08.65.65,0,0,0,.61.36,1.06,1.06,0,0,0,.27,0l.21-.09a1,1,0,0,0,.21-.17A.8.8,0,0,0,64,135a1,1,0,0,0,.08-.21,2.07,2.07,0,0,0,0-.29Z"/></g><path class="cls-9" d="M26.16,87.77a1.55,1.55,0,0,0,.2.51.8.8,0,0,0,.33.28,1.23,1.23,0,0,0,.51.09.89.89,0,0,0,.66-.22.86.86,0,0,0,.23-.66,1,1,0,0,0-.09-.46,1.07,1.07,0,0,0-.32-.36,4.08,4.08,0,0,0-.66-.39,3.56,3.56,0,0,1-.68-.41A1.57,1.57,0,0,1,26,85.7a1.14,1.14,0,0,1-.12-.52,1.31,1.31,0,0,1,.19-.72A1.27,1.27,0,0,1,26.6,84a2.13,2.13,0,0,1,.86-.16,5.07,5.07,0,0,1,.55,0,4.71,4.71,0,0,1,.66.13v1h-.36a1.83,1.83,0,0,0-.21-.5.67.67,0,0,0-.31-.25,1.1,1.1,0,0,0-.45-.08,1,1,0,0,0-.43.09.77.77,0,0,0-.3.27.83.83,0,0,0-.11.43.9.9,0,0,0,.39.77,3.15,3.15,0,0,0,.59.35,4.34,4.34,0,0,1,.73.44,1.62,1.62,0,0,1,.41.46,1.31,1.31,0,0,1,.14.61,1.57,1.57,0,0,1-.12.65,1.14,1.14,0,0,1-.34.44,1.34,1.34,0,0,1-.51.24,2.73,2.73,0,0,1-.66.07,5.31,5.31,0,0,1-1.33-.19v-1Zm6.27.52a4.6,4.6,0,0,1-.43.39,2.26,2.26,0,0,1-.44.22A1.68,1.68,0,0,1,31,89a1.41,1.41,0,0,1-1.14-.45,2,2,0,0,1-.39-1.34,2.27,2.27,0,0,1,.2-1,1.49,1.49,0,0,1,.56-.65,1.55,1.55,0,0,1,.84-.23,1.48,1.48,0,0,1,.63.12,1,1,0,0,1,.42.32,1.32,1.32,0,0,1,.24.52,3.36,3.36,0,0,1,.1.81H30.18v.07a2.22,2.22,0,0,0,.1.73.9.9,0,0,0,.32.46,1,1,0,0,0,.58.17,1.33,1.33,0,0,0,.54-.11,1.72,1.72,0,0,0,.48-.37Zm-.62-1.5a3.3,3.3,0,0,0-.1-.65.79.79,0,0,0-.23-.38.62.62,0,0,0-.41-.14.7.7,0,0,0-.6.31,1.65,1.65,0,0,0-.27.86Zm4.95,2.13H35.3v-.18l.21-.08a.31.31,0,0,0,.11-.09.53.53,0,0,0,.06-.19,1.64,1.64,0,0,0,0-.37V87c0-.17,0-.32,0-.46a1.54,1.54,0,0,0,0-.35.71.71,0,0,0-.08-.21l-.12-.13a.8.8,0,0,0-.16-.08.71.71,0,0,0-.23,0,.76.76,0,0,0-.27,0,1.38,1.38,0,0,0-.29.2,1.08,1.08,0,0,0-.22.28.62.62,0,0,0-.07.31V88a2.27,2.27,0,0,0,0,.45.33.33,0,0,0,.11.18.86.86,0,0,0,.27.12v.18H33.17v-.18l.2-.08a.22.22,0,0,0,.1-.09.38.38,0,0,0,.07-.18,1.81,1.81,0,0,0,0-.38V86.4c0-.16,0-.28,0-.38a.66.66,0,0,0-.05-.23.29.29,0,0,0-.14-.13,1,1,0,0,0-.25-.07v-.2l.86,0h.22l0,.6.05,0a4.16,4.16,0,0,1,.44-.4A1.61,1.61,0,0,1,35,85.4a1.16,1.16,0,0,1,.37-.07,1.23,1.23,0,0,1,.35,0,.82.82,0,0,1,.28.14,1.16,1.16,0,0,1,.2.24,1,1,0,0,1,.11.34,2.39,2.39,0,0,1,0,.51V88c0,.17,0,.3,0,.37a.38.38,0,0,0,.06.18.35.35,0,0,0,.1.11l.25.09Zm3.12-2.72h-.36a1,1,0,0,0-.19-.35.64.64,0,0,0-.25-.18,1.11,1.11,0,0,0-.34,0,.75.75,0,0,0-.47.14.45.45,0,0,0-.18.38.61.61,0,0,0,.07.28.72.72,0,0,0,.22.2,3.47,3.47,0,0,0,.52.26,3.74,3.74,0,0,1,.58.3,1.06,1.06,0,0,1,.32.31.77.77,0,0,1,.12.43,1,1,0,0,1-.1.49.83.83,0,0,1-.28.33,1.3,1.3,0,0,1-.43.18,2.36,2.36,0,0,1-.54,0,3.86,3.86,0,0,1-.6,0,4.78,4.78,0,0,1-.57-.12V88h.36a.93.93,0,0,0,.29.49.87.87,0,0,0,.54.15l.26,0a.6.6,0,0,0,.23-.1.52.52,0,0,0,.16-.17.58.58,0,0,0,.06-.28.56.56,0,0,0-.08-.3.7.7,0,0,0-.23-.22,4.71,4.71,0,0,0-.54-.26,4.47,4.47,0,0,1-.54-.27,1.08,1.08,0,0,1-.32-.32.75.75,0,0,1-.11-.43.85.85,0,0,1,.16-.52,1,1,0,0,1,.47-.34,2,2,0,0,1,.73-.12l.47,0,.57.1ZM42.23,89a1.49,1.49,0,0,1-1.17-.45,2,2,0,0,1-.4-1.33,2.28,2.28,0,0,1,.21-1,1.48,1.48,0,0,1,.58-.63,1.8,1.8,0,0,1,.84-.2,1.5,1.5,0,0,1,1.2.46,1.93,1.93,0,0,1,.4,1.32,2.46,2.46,0,0,1-.2,1,1.42,1.42,0,0,1-.58.63A1.74,1.74,0,0,1,42.23,89Zm-.87-1.86a2.32,2.32,0,0,0,.24,1.17.75.75,0,0,0,.69.4.74.74,0,0,0,.42-.12.8.8,0,0,0,.28-.32,1.53,1.53,0,0,0,.16-.47,3.33,3.33,0,0,0,.05-.56,2.88,2.88,0,0,0-.12-.9,1.11,1.11,0,0,0-.33-.52.73.73,0,0,0-.47-.17.76.76,0,0,0-.69.39A2.2,2.2,0,0,0,41.36,87.11ZM45.63,86l.06,0a2.36,2.36,0,0,1,.37-.39,1.22,1.22,0,0,1,.38-.22,1.25,1.25,0,0,1,.45-.08l.39,0v.85h-.42a.86.86,0,0,0-.19-.29.37.37,0,0,0-.27-.09.5.5,0,0,0-.26.08,1,1,0,0,0-.26.22.9.9,0,0,0-.16.28.94.94,0,0,0,0,.3V88a1.7,1.7,0,0,0,0,.47.32.32,0,0,0,.14.18.88.88,0,0,0,.28.1v.18H44.64v-.18a1.14,1.14,0,0,0,.2-.08.31.31,0,0,0,.11-.09.38.38,0,0,0,.06-.18A1.81,1.81,0,0,0,45,88V86.4c0-.16,0-.28,0-.38a.66.66,0,0,0-.05-.23.29.29,0,0,0-.14-.13,1,1,0,0,0-.25-.07V85.4l.86,0h.22Zm6.22.2H51.5a1.15,1.15,0,0,0-.19-.35.72.72,0,0,0-.25-.18,1.11,1.11,0,0,0-.34,0,.73.73,0,0,0-.47.14.45.45,0,0,0-.18.38.51.51,0,0,0,.07.28.72.72,0,0,0,.22.2,3.47,3.47,0,0,0,.52.26,4.28,4.28,0,0,1,.58.3,1.06,1.06,0,0,1,.32.31.77.77,0,0,1,.12.43,1.15,1.15,0,0,1-.1.49.83.83,0,0,1-.28.33,1.39,1.39,0,0,1-.43.18,2.39,2.39,0,0,1-.55,0,4,4,0,0,1-.6,0,5.78,5.78,0,0,1-.57-.12V88h.37a.76.76,0,0,0,.83.64l.26,0a.67.67,0,0,0,.23-.1.5.5,0,0,0,.15-.17.58.58,0,0,0,.06-.28.56.56,0,0,0-.07-.3.81.81,0,0,0-.23-.22,4.71,4.71,0,0,0-.54-.26,4.47,4.47,0,0,1-.54-.27,1.08,1.08,0,0,1-.32-.32.75.75,0,0,1-.12-.43.85.85,0,0,1,.17-.52,1,1,0,0,1,.47-.34,2,2,0,0,1,.73-.12l.47,0c.15,0,.34.05.56.1Zm.76,2.54.2-.08a.31.31,0,0,0,.11-.09.54.54,0,0,0,.06-.18A1.81,1.81,0,0,0,53,88V86.4c0-.16,0-.28,0-.38a.66.66,0,0,0,0-.23.29.29,0,0,0-.14-.13,1,1,0,0,0-.25-.07v-.2l.86,0h.22V88a2.27,2.27,0,0,0,0,.45.33.33,0,0,0,.11.18.86.86,0,0,0,.27.12v.18H52.61Zm1-4.79v.71H53V84Zm3.82,3.9v1.07H54.65v-.18l2-3h-1a.5.5,0,0,0-.29.07.74.74,0,0,0-.21.22,2.18,2.18,0,0,0-.18.42h-.32v-1h2.79v.19l-2,3h1a1,1,0,0,0,.28,0,.37.37,0,0,0,.17-.1.69.69,0,0,0,.14-.2,4.21,4.21,0,0,0,.15-.44Zm3.6.44a3.61,3.61,0,0,1-.43.39,1.93,1.93,0,0,1-.43.22,1.72,1.72,0,0,1-.52.07,1.43,1.43,0,0,1-1.15-.45,2.06,2.06,0,0,1-.38-1.34,2.27,2.27,0,0,1,.19-1,1.45,1.45,0,0,1,.57-.65,1.68,1.68,0,0,1,1.47-.11,1.12,1.12,0,0,1,.42.32,1.67,1.67,0,0,1,.24.52,3.36,3.36,0,0,1,.1.81H58.84v.07a2.55,2.55,0,0,0,.09.73,1,1,0,0,0,.33.46.93.93,0,0,0,.58.17,1.33,1.33,0,0,0,.54-.11,1.72,1.72,0,0,0,.48-.37Zm-.61-1.5a3.3,3.3,0,0,0-.1-.65.8.8,0,0,0-.24-.38.57.57,0,0,0-.4-.14.71.71,0,0,0-.61.31,1.57,1.57,0,0,0-.26.86Z"/><path class="cls-9" d="M52.05,49.83a1.49,1.49,0,0,0,.2.52.76.76,0,0,0,.32.27,1.26,1.26,0,0,0,.51.09.93.93,0,0,0,.67-.22.9.9,0,0,0,.23-.66,1,1,0,0,0-.1-.46,1,1,0,0,0-.31-.35,4,4,0,0,0-.67-.39,3.67,3.67,0,0,1-.68-.42,1.36,1.36,0,0,1-.37-.44,1.19,1.19,0,0,1-.13-.53,1.28,1.28,0,0,1,.2-.71,1.21,1.21,0,0,1,.57-.47,2,2,0,0,1,.85-.17,4.93,4.93,0,0,1,.55,0,4.81,4.81,0,0,1,.67.13v1h-.37a1.35,1.35,0,0,0-.21-.51.77.77,0,0,0-.3-.25,1.18,1.18,0,0,0-.45-.07,1,1,0,0,0-.43.09.64.64,0,0,0-.3.26.77.77,0,0,0-.11.43,1,1,0,0,0,.09.44,1.12,1.12,0,0,0,.29.34,3.58,3.58,0,0,0,.59.34,5.33,5.33,0,0,1,.74.44,1.72,1.72,0,0,1,.4.46,1.23,1.23,0,0,1,.15.61,1.54,1.54,0,0,1-.12.65,1.27,1.27,0,0,1-.34.44,1.46,1.46,0,0,1-.52.24A2.71,2.71,0,0,1,53,51a5.44,5.44,0,0,1-1.33-.2v-1Zm6.26.52a2.44,2.44,0,0,1-.43.39,1.75,1.75,0,0,1-.43.22,1.72,1.72,0,0,1-.52.08,1.41,1.41,0,0,1-1.15-.46,2,2,0,0,1-.39-1.34,2.27,2.27,0,0,1,.2-1,1.49,1.49,0,0,1,.56-.65,1.6,1.6,0,0,1,.84-.23,1.56,1.56,0,0,1,.64.12,1.23,1.23,0,0,1,.42.32,1.67,1.67,0,0,1,.24.52,3.43,3.43,0,0,1,.1.81H56.06v.07a2.52,2.52,0,0,0,.1.73,1,1,0,0,0,.32.47,1,1,0,0,0,.58.16,1.23,1.23,0,0,0,.55-.11,1.55,1.55,0,0,0,.48-.37Zm-.62-1.49a2.16,2.16,0,0,0-.1-.65.75.75,0,0,0-.23-.39.58.58,0,0,0-.4-.13.72.72,0,0,0-.61.3,1.66,1.66,0,0,0-.27.87Zm5,2.12H61.19V50.8l.21-.08a.28.28,0,0,0,.1-.09.52.52,0,0,0,.07-.18,3.32,3.32,0,0,0,0-.38v-1c0-.17,0-.33,0-.47a2.08,2.08,0,0,0,0-.34,1.65,1.65,0,0,0-.09-.22.34.34,0,0,0-.12-.12.38.38,0,0,0-.15-.09.78.78,0,0,0-.24,0,.66.66,0,0,0-.27.06,1.26,1.26,0,0,0-.28.19,1.09,1.09,0,0,0-.23.28.78.78,0,0,0-.07.31v1.38a2.15,2.15,0,0,0,0,.44.35.35,0,0,0,.12.19.7.7,0,0,0,.27.11V51H59.05V50.8l.21-.08a.28.28,0,0,0,.1-.09.52.52,0,0,0,.07-.18,3.18,3.18,0,0,0,0-.38V48.46c0-.15,0-.28,0-.38a.52.52,0,0,0,0-.23.33.33,0,0,0-.13-.13L59,47.65v-.19l.86,0h.23l0,.6.05,0a3.36,3.36,0,0,1,.44-.4,2.21,2.21,0,0,1,.34-.18,1,1,0,0,1,.36-.06,1.37,1.37,0,0,1,.36,0,.72.72,0,0,1,.27.15.74.74,0,0,1,.2.23,1.5,1.5,0,0,1,.12.34,3.68,3.68,0,0,1,0,.51v1.39a3,3,0,0,0,0,.37.58.58,0,0,0,0,.17.29.29,0,0,0,.11.11.86.86,0,0,0,.24.09Zm3.12-2.72h-.35a1.33,1.33,0,0,0-.19-.34.59.59,0,0,0-.25-.18.92.92,0,0,0-.35-.05.77.77,0,0,0-.47.13.54.54,0,0,0-.1.66.74.74,0,0,0,.22.21,3.19,3.19,0,0,0,.52.25,4.28,4.28,0,0,1,.58.3,1.22,1.22,0,0,1,.32.32.83.83,0,0,1,.11.43,1,1,0,0,1-.1.49.79.79,0,0,1-.28.32A1,1,0,0,1,65,51a2.23,2.23,0,0,1-.54.06,3.83,3.83,0,0,1-.6,0,5.78,5.78,0,0,1-.57-.12V50.1h.36a.94.94,0,0,0,.3.49.81.81,0,0,0,.54.16l.26,0a.73.73,0,0,0,.22-.09.46.46,0,0,0,.16-.18.54.54,0,0,0,.06-.27.57.57,0,0,0-.07-.31.81.81,0,0,0-.23-.22c-.11-.06-.29-.15-.55-.26a3.38,3.38,0,0,1-.54-.27,1,1,0,0,1-.31-.31.77.77,0,0,1-.12-.43.88.88,0,0,1,.16-.53,1,1,0,0,1,.48-.34,2,2,0,0,1,.72-.12,3.59,3.59,0,0,1,.47,0c.15,0,.34,0,.57.09ZM68.12,51A1.49,1.49,0,0,1,67,50.59a2,2,0,0,1-.41-1.34,2.3,2.3,0,0,1,.22-1,1.35,1.35,0,0,1,.58-.62,1.64,1.64,0,0,1,.84-.21,1.53,1.53,0,0,1,1.19.46,2,2,0,0,1,.41,1.32,2.28,2.28,0,0,1-.21,1,1.35,1.35,0,0,1-.57.63A1.76,1.76,0,0,1,68.12,51Zm-.88-1.87a2.32,2.32,0,0,0,.24,1.17.76.76,0,0,0,.69.41.7.7,0,0,0,.42-.12,1,1,0,0,0,.29-.32,1.73,1.73,0,0,0,.15-.47,3.43,3.43,0,0,0,0-.56,2.88,2.88,0,0,0-.12-.9,1.1,1.1,0,0,0-.33-.53.71.71,0,0,0-.47-.16.75.75,0,0,0-.68.38A2.11,2.11,0,0,0,67.24,49.17Zm4.28-1.1h0a2.36,2.36,0,0,1,.38-.39,1.39,1.39,0,0,1,.37-.22,1.25,1.25,0,0,1,.45-.08,2.21,2.21,0,0,1,.39,0v.84h-.42a.85.85,0,0,0-.18-.29.41.41,0,0,0-.28-.09A.56.56,0,0,0,72,48a.89.89,0,0,0-.25.23.92.92,0,0,0-.17.27,1,1,0,0,0,0,.31v1.29a1.52,1.52,0,0,0,0,.46.3.3,0,0,0,.13.19.77.77,0,0,0,.28.09V51H70.53V50.8l.2-.08a.28.28,0,0,0,.1-.09.52.52,0,0,0,.07-.18,3.18,3.18,0,0,0,0-.38V48.46c0-.15,0-.28,0-.38a.52.52,0,0,0,0-.23.33.33,0,0,0-.13-.13l-.26-.07v-.19l.86,0h.23Zm6.5-.53v.77h-.47a1.36,1.36,0,0,0-.16-.38.54.54,0,0,0-.21-.19.8.8,0,0,0-.76.11,1.15,1.15,0,0,0-.32.51,2.76,2.76,0,0,0-.11.82,3.52,3.52,0,0,0,0,.58,1.34,1.34,0,0,0,.15.44.89.89,0,0,0,.29.29.84.84,0,0,0,.44.1,1.07,1.07,0,0,0,.47-.1,1.25,1.25,0,0,0,.45-.35l.21.25a3.19,3.19,0,0,1-.33.32,1.83,1.83,0,0,1-.3.18,1.42,1.42,0,0,1-.33.11,1.47,1.47,0,0,1-1.41-.42,2.1,2.1,0,0,1-.37-1.34,2.16,2.16,0,0,1,.21-1,1.51,1.51,0,0,1,.57-.65,1.65,1.65,0,0,1,.86-.23,4.75,4.75,0,0,1,.56,0A3.46,3.46,0,0,1,78,47.54ZM80.2,51A1.49,1.49,0,0,1,79,50.59a2,2,0,0,1-.4-1.34,2.31,2.31,0,0,1,.21-1,1.35,1.35,0,0,1,.58-.62,1.69,1.69,0,0,1,.84-.21,1.51,1.51,0,0,1,1.19.46,2,2,0,0,1,.41,1.32,2.42,2.42,0,0,1-.2,1,1.42,1.42,0,0,1-.58.63A1.76,1.76,0,0,1,80.2,51Zm-.88-1.87a2.21,2.21,0,0,0,.25,1.17.76.76,0,0,0,.69.41.74.74,0,0,0,.42-.12,1,1,0,0,0,.28-.32,2.16,2.16,0,0,0,.16-.47,3.43,3.43,0,0,0,0-.56,2.88,2.88,0,0,0-.12-.9,1.17,1.17,0,0,0-.32-.53.74.74,0,0,0-.47-.16.76.76,0,0,0-.69.38A2.11,2.11,0,0,0,79.32,49.17Zm5.75-.91h-.35a1.08,1.08,0,0,0-.19-.34.53.53,0,0,0-.25-.18.87.87,0,0,0-.34-.05.73.73,0,0,0-.47.13.46.46,0,0,0-.18.38.49.49,0,0,0,.07.28.89.89,0,0,0,.22.21,3.69,3.69,0,0,0,.52.25,4.28,4.28,0,0,1,.58.3,1.22,1.22,0,0,1,.32.32.75.75,0,0,1,.12.43,1.19,1.19,0,0,1-.1.49.87.87,0,0,1-.28.32,1,1,0,0,1-.43.18,2.38,2.38,0,0,1-.55.06,4,4,0,0,1-.6,0,5.78,5.78,0,0,1-.57-.12V50.1H83a.87.87,0,0,0,.29.49.81.81,0,0,0,.54.16,1.15,1.15,0,0,0,.26,0,.92.92,0,0,0,.23-.09.54.54,0,0,0,.21-.45.57.57,0,0,0-.07-.31.81.81,0,0,0-.23-.22,4.29,4.29,0,0,0-.55-.26,2.87,2.87,0,0,1-.53-.27,1.06,1.06,0,0,1-.32-.31.77.77,0,0,1-.12-.43.88.88,0,0,1,.17-.53,1,1,0,0,1,.47-.34,2,2,0,0,1,.73-.12,3.71,3.71,0,0,1,.47,0c.15,0,.34,0,.56.09Zm.56-.62a.81.81,0,0,0,.3-.1.66.66,0,0,0,.18-.19,1.63,1.63,0,0,0,.1-.29c0-.12.05-.29.08-.51h.52v.91H88v.37H86.81v1.64a4.24,4.24,0,0,0,0,.57.71.71,0,0,0,.11.33.42.42,0,0,0,.18.17.54.54,0,0,0,.27.05.6.6,0,0,0,.27-.06,1.06,1.06,0,0,0,.26-.17l.17.2a1.82,1.82,0,0,1-.5.36,1.07,1.07,0,0,1-.49.12.87.87,0,0,1-.7-.28,1.37,1.37,0,0,1-.23-.89v-2h-.55Z"/><polygon class="cls-5" points="118.78 240.5 120.89 244.72 116.67 244.72 118.78 240.5"/><polygon class="cls-6" points="118.78 240.5 120.89 244.72 116.67 244.72 118.78 240.5"/><path class="cls-9" d="M124.13,244.73h1l.27,0a.48.48,0,0,0,.18-.06.36.36,0,0,0,.14-.11.56.56,0,0,0,.11-.17,1.49,1.49,0,0,0,.11-.28q0-.17.12-.51h.37l-.07,1.49H123v-.18a.69.69,0,0,0,.3-.14.3.3,0,0,0,.1-.2,2,2,0,0,0,0-.4V241a2.86,2.86,0,0,0,0-.37.38.38,0,0,0-.06-.18.38.38,0,0,0-.11-.11l-.24-.08V240h1.55v.18a.83.83,0,0,0-.23.08.24.24,0,0,0-.11.09.38.38,0,0,0-.07.18,2,2,0,0,0,0,.39Zm4-.58a2.93,2.93,0,0,0,0,.36.48.48,0,0,0,.06.18.29.29,0,0,0,.11.11,1,1,0,0,0,.24.09v.18H127v-.18a.82.82,0,0,0,.31-.14.34.34,0,0,0,.1-.2,3.59,3.59,0,0,0,0-.4V241a2.86,2.86,0,0,0,0-.37.38.38,0,0,0-.06-.18.29.29,0,0,0-.11-.11l-.24-.08V240h1.55v.18a.76.76,0,0,0-.23.08.22.22,0,0,0-.11.1.52.52,0,0,0-.07.18,3.18,3.18,0,0,0,0,.38Zm1.38.92v-.18a1.13,1.13,0,0,0,.25-.09.52.52,0,0,0,.11-.1.38.38,0,0,0,.06-.18,3.12,3.12,0,0,0,0-.37V241a3.18,3.18,0,0,0,0-.38.48.48,0,0,0-.06-.18.52.52,0,0,0-.11-.1l-.25-.08V240h1.62a3.66,3.66,0,0,1,1.14.15,2,2,0,0,1,.75.45,1.92,1.92,0,0,1,.45.74,3.35,3.35,0,0,1,.15,1.06,3.67,3.67,0,0,1-.14,1.1,2.12,2.12,0,0,1-.41.79,1.88,1.88,0,0,1-.58.46,2.13,2.13,0,0,1-.66.21,5.12,5.12,0,0,1-1,.07Zm1.13-.35.43,0a3,3,0,0,0,.55-.05,1.61,1.61,0,0,0,.45-.17,1.1,1.1,0,0,0,.35-.3,1.72,1.72,0,0,0,.26-.46,2.38,2.38,0,0,0,.15-.57,4.7,4.7,0,0,0,0-.68,3.09,3.09,0,0,0-.21-1.23,1.51,1.51,0,0,0-.61-.7,1.87,1.87,0,0,0-.94-.22h-.47Zm6.29.35v-.18a1.54,1.54,0,0,0,.28-.09.25.25,0,0,0,.13-.12.41.41,0,0,0,0-.21,1.39,1.39,0,0,0,0-.27,1.57,1.57,0,0,0-.08-.33l-.14-.47h-1.71l-.13.36c-.06.18-.1.32-.12.41a1.22,1.22,0,0,0,0,.26.4.4,0,0,0,.11.32.67.67,0,0,0,.34.14v.18H134v-.18a.61.61,0,0,0,.36-.24,2.9,2.9,0,0,0,.3-.59l1.53-4.08h.58l1.26,4.11c.06.19.11.33.15.43a.64.64,0,0,0,.17.24.58.58,0,0,0,.26.13v.18Zm-1.41-2h1.54l-.7-2.38Zm4.77-.2v1.25a3.25,3.25,0,0,0,0,.39.93.93,0,0,0,.06.18.52.52,0,0,0,.11.1l.24.09v.18h-1.55v-.18a.69.69,0,0,0,.3-.14.3.3,0,0,0,.11-.2,3.59,3.59,0,0,0,0-.4V241a2.86,2.86,0,0,0,0-.37.38.38,0,0,0-.06-.18.38.38,0,0,0-.11-.11l-.24-.08V240H141a2.15,2.15,0,0,1,1.29.31,1.11,1.11,0,0,1,.43,1,1.31,1.31,0,0,1-.28.86,1.71,1.71,0,0,1-.83.55v0a1,1,0,0,1,.38.27,2.39,2.39,0,0,1,.36.53l.33.6a2.54,2.54,0,0,0,.25.41.7.7,0,0,0,.21.21.66.66,0,0,0,.28.11v.18h-1q-.14-.19-.27-.42l-.24-.46-.33-.62c-.1-.18-.18-.32-.24-.41a.59.59,0,0,0-.17-.18.44.44,0,0,0-.17-.08l-.27,0Zm.54-2.52-.54,0v2.18h.42a2.49,2.49,0,0,0,.52,0,1,1,0,0,0,.37-.18.86.86,0,0,0,.27-.36,1.34,1.34,0,0,0,.1-.56,1.22,1.22,0,0,0-.12-.58.78.78,0,0,0-.36-.36,1.53,1.53,0,0,0-.66-.12Z"/><rect class="cls-7" x="116.67" y="254.28" width="4.23" height="4.23"/><path class="cls-9" d="M126.41,253.92v1h-.36a1.62,1.62,0,0,0-.23-.51.74.74,0,0,0-.32-.27.94.94,0,0,0-.43-.09,1,1,0,0,0-.68.26,1.62,1.62,0,0,0-.47.76,4,4,0,0,0-.17,1.23,4.84,4.84,0,0,0,.14,1.23,1.7,1.7,0,0,0,.42.78.94.94,0,0,0,.67.26,1.16,1.16,0,0,0,.49-.09.8.8,0,0,0,.33-.28,2.41,2.41,0,0,0,.25-.55h.36v1.06c-.23.06-.47.1-.71.14a6.58,6.58,0,0,1-.8,0,1.67,1.67,0,0,1-1.42-.63,3.15,3.15,0,0,1-.48-1.9,3.52,3.52,0,0,1,.25-1.39,1.92,1.92,0,0,1,1.89-1.24,6,6,0,0,1,.62,0A5.14,5.14,0,0,1,126.41,253.92Zm2.88,4.4h-.06a2.24,2.24,0,0,1-.6.46,1.26,1.26,0,0,1-.6.14,1,1,0,0,1-.5-.11.8.8,0,0,1-.33-.3,1,1,0,0,1-.11-.46.89.89,0,0,1,.53-.83,3.84,3.84,0,0,1,1.6-.35v-.24a2,2,0,0,0-.07-.6.64.64,0,0,0-.23-.33.78.78,0,0,0-.43-.1.67.67,0,0,0-.46.15.9.9,0,0,0-.27.46h-.48v-.48a4.85,4.85,0,0,1,.59-.28,4.77,4.77,0,0,1,.47-.13,2,2,0,0,1,.48-.05,1.38,1.38,0,0,1,.59.11.72.72,0,0,1,.33.36,1.69,1.69,0,0,1,.11.72v1.29c0,.18,0,.31,0,.39a1.23,1.23,0,0,0,0,.2.34.34,0,0,0,.06.16.32.32,0,0,0,.1.1l.24.08v.18h-1Zm-.07-1.15a2.49,2.49,0,0,0-1.12.2.61.61,0,0,0-.37.58.54.54,0,0,0,.08.33.46.46,0,0,0,.22.17.87.87,0,0,0,.3,0,.9.9,0,0,0,.46-.12.87.87,0,0,0,.32-.31.75.75,0,0,0,.11-.37Zm2.64-1.28h0a4.26,4.26,0,0,1,.37-.33,1.26,1.26,0,0,1,.27-.18,1.18,1.18,0,0,1,.25-.1l.24,0a1,1,0,0,1,.6.17.88.88,0,0,1,.33.52,4.64,4.64,0,0,1,.44-.41,1.68,1.68,0,0,1,.36-.21.92.92,0,0,1,.38-.07,1.11,1.11,0,0,1,.43.07.73.73,0,0,1,.3.22,1,1,0,0,1,.18.38,2.44,2.44,0,0,1,.06.61v1.39a3,3,0,0,0,0,.39.5.5,0,0,0,.05.16.22.22,0,0,0,.11.1.77.77,0,0,0,.23.09v.18h-1.45v-.18a.76.76,0,0,0,.21-.08.22.22,0,0,0,.1-.09.52.52,0,0,0,.07-.18,1.9,1.9,0,0,0,0-.38v-1c0-.21,0-.39,0-.52a1.94,1.94,0,0,0-.05-.33.85.85,0,0,0-.09-.19.43.43,0,0,0-.11-.12.38.38,0,0,0-.15-.09.71.71,0,0,0-.23,0,.63.63,0,0,0-.27.06,1.13,1.13,0,0,0-.28.2.88.88,0,0,0-.21.29.67.67,0,0,0-.07.33v1.35a3,3,0,0,0,0,.39.5.5,0,0,0,.05.16.27.27,0,0,0,.11.1.77.77,0,0,0,.23.09v.18H133v-.18a.76.76,0,0,0,.21-.08.22.22,0,0,0,.1-.09.52.52,0,0,0,.07-.18,1.9,1.9,0,0,0,0-.38v-1c0-.22,0-.4,0-.54s0-.25-.06-.33a.82.82,0,0,0-.1-.21.33.33,0,0,0-.13-.11l-.14-.07-.2,0a.68.68,0,0,0-.28.07,1.17,1.17,0,0,0-.27.2,1.24,1.24,0,0,0-.21.27.6.6,0,0,0-.07.3v1.39a2.73,2.73,0,0,0,0,.32.61.61,0,0,0,0,.17.2.2,0,0,0,.06.11l.1.07.21.07v.18h-1.45v-.18a.81.81,0,0,0,.2-.08.31.31,0,0,0,.11-.09.38.38,0,0,0,.06-.18,1.9,1.9,0,0,0,0-.38v-2a1,1,0,0,0,0-.23.29.29,0,0,0-.14-.13,1.05,1.05,0,0,0-.26-.07v-.2l.87,0h.22Zm8.19,2.33a2.44,2.44,0,0,1-.43.39,1.4,1.4,0,0,1-.44.22,1.67,1.67,0,0,1-.52.08,1.45,1.45,0,0,1-1.15-.45,2.11,2.11,0,0,1-.38-1.35,2.27,2.27,0,0,1,.19-1,1.51,1.51,0,0,1,.57-.65,1.47,1.47,0,0,1,.84-.23,1.56,1.56,0,0,1,.64.12,1,1,0,0,1,.42.32,1.67,1.67,0,0,1,.24.52,3.36,3.36,0,0,1,.1.81H137.8v.07a2.22,2.22,0,0,0,.1.73.92.92,0,0,0,.32.47,1,1,0,0,0,.58.16,1.26,1.26,0,0,0,.55-.11,1.55,1.55,0,0,0,.48-.37Zm-.62-1.5a2.69,2.69,0,0,0-.1-.65.83.83,0,0,0-.23-.39.59.59,0,0,0-.41-.13.71.71,0,0,0-.6.3,1.55,1.55,0,0,0-.27.87Zm2.38-.79h.06a3.58,3.58,0,0,1,.37-.39,1.79,1.79,0,0,1,.38-.22,1.25,1.25,0,0,1,.45-.07,2.3,2.3,0,0,1,.39,0v.85H143a.85.85,0,0,0-.18-.29.41.41,0,0,0-.28-.09.44.44,0,0,0-.26.08.84.84,0,0,0-.25.22.78.78,0,0,0-.17.28.91.91,0,0,0-.05.31v1.29a1.62,1.62,0,0,0,0,.46.31.31,0,0,0,.14.19.7.7,0,0,0,.28.09v.18h-1.49v-.18a.81.81,0,0,0,.2-.08.31.31,0,0,0,.11-.09.38.38,0,0,0,.06-.18,1.74,1.74,0,0,0,0-.38v-1.61c0-.16,0-.29,0-.38a.66.66,0,0,0-.05-.23.29.29,0,0,0-.14-.13.94.94,0,0,0-.26-.07v-.2l.87,0h.22Zm4.27,2.39H146a2.4,2.4,0,0,1-.6.46,1.27,1.27,0,0,1-.61.14,1,1,0,0,1-.49-.11.8.8,0,0,1-.33-.3.94.94,0,0,1,.42-1.29,3.84,3.84,0,0,1,1.6-.35v-.24a2,2,0,0,0-.07-.6.64.64,0,0,0-.23-.33.78.78,0,0,0-.43-.1.67.67,0,0,0-.46.15.9.9,0,0,0-.27.46h-.48v-.48a4.24,4.24,0,0,1,.59-.28,4.12,4.12,0,0,1,.47-.13,2,2,0,0,1,.48-.05,1.38,1.38,0,0,1,.59.11.72.72,0,0,1,.33.36,1.69,1.69,0,0,1,.11.72v1.29a3.89,3.89,0,0,0,0,.39,1.23,1.23,0,0,0,0,.2.5.5,0,0,0,0,.16.52.52,0,0,0,.11.1l.24.08v.18h-1Zm-.06-1.15a2.49,2.49,0,0,0-1.12.2.61.61,0,0,0-.37.58.54.54,0,0,0,.08.33.48.48,0,0,0,.21.17,1,1,0,0,0,.31,0,.9.9,0,0,0,.46-.12,1,1,0,0,0,.32-.31.75.75,0,0,0,.11-.37Z"/></svg>