<svg id="Layer_1" data-name="Layer 1" xmlns="http://www.w3.org/2000/svg" viewBox="0 0 283.46 283.46"><defs><style>.cls-1,.cls-11,.cls-12,.cls-13,.cls-14,.cls-3,.cls-4,.cls-5,.cls-7,.cls-9{fill:none;stroke-linejoin:round;}.cls-1,.cls-11,.cls-12,.cls-3{stroke:#1d1d1b;}.cls-1{stroke-width:1.3px;}.cls-2{fill:#1d1d1b;}.cls-3{stroke-width:0.71px;}.cls-4{stroke:#32aec5;}.cls-14,.cls-4,.cls-9{stroke-width:1.89px;}.cls-5{stroke:#aad18d;}.cls-5,.cls-7{stroke-width:0.47px;}.cls-6{fill:#aad18d;}.cls-7,.cls-9{stroke:#dd7782;}.cls-8{fill:#dd7782;}.cls-10{fill:#fff;}.cls-11{stroke-width:1.42px;}.cls-12{stroke-width:1.18px;}.cls-13{stroke:#bcbcbc;stroke-width:0.36px;}.cls-14{stroke:#974e89;}.cls-15{fill:#c9c3c5;}</style></defs><polygon class="cls-1" points="167.55 106.64 156.56 87.76 156.33 87.22 156.45 86.58 156.66 86.15 157.1 85.72 167.23 79.89 167.77 79.67 168.31 79.78 168.85 80 169.28 80.43 180.16 99.3 180.38 99.85 180.27 100.38 180.06 100.92 179.63 101.36 169.49 107.18 168.95 107.39 168.41 107.29 167.87 107.06 167.55 106.64"/><polygon class="cls-2" points="178.12 99.3 176.17 95.96 176.07 95.74 176.07 95.53 176.17 95.42 176.29 95.31 177.25 94.78 177.36 94.66 177.57 94.66 177.79 94.78 177.91 94.88 179.84 98.22 179.84 98.44 179.84 98.65 179.84 98.87 179.63 98.98 178.76 99.52 178.55 99.52 178.34 99.52 178.22 99.41 178.12 99.3"/><polygon class="cls-3" points="178.12 99.3 176.17 95.96 176.07 95.74 176.07 95.53 176.17 95.42 176.29 95.31 177.25 94.78 177.36 94.66 177.57 94.66 177.79 94.78 177.91 94.88 179.84 98.22 179.84 98.44 179.84 98.65 179.84 98.87 179.63 98.98 178.76 99.52 178.55 99.52 178.34 99.52 178.22 99.41 178.12 99.3"/><polygon class="cls-2" points="165.39 106.75 163.34 103.19 163.34 103.08 163.34 102.86 163.34 102.64 163.56 102.54 164.64 101.89 164.85 101.78 165.07 101.89 165.18 101.89 165.39 102.11 167.44 105.67 167.44 105.78 167.44 106 167.34 106.21 167.23 106.31 166.03 106.96 165.93 107.06 165.72 106.96 165.5 106.96 165.39 106.75"/><polygon class="cls-3" points="165.39 106.75 163.34 103.19 163.34 103.08 163.34 102.86 163.34 102.64 163.56 102.54 164.64 101.89 164.85 101.78 165.07 101.89 165.18 101.89 165.39 102.11 167.44 105.67 167.44 105.78 167.44 106 167.34 106.21 167.23 106.31 166.03 106.96 165.93 107.06 165.72 106.96 165.5 106.96 165.39 106.75"/><polygon class="cls-2" points="172.29 85.82 171.43 86.9 171.32 87 171.11 87.12 171 87.12 170.78 87 167.87 84.74 167.66 84.64 167.66 84.42 167.66 84.21 167.77 84.09 168.52 83.01 168.74 82.91 168.85 82.81 169.06 82.81 169.28 82.91 172.19 85.17 172.29 85.29 172.4 85.5 172.4 85.72 172.29 85.82"/><polygon class="cls-3" points="172.29 85.82 171.43 86.9 171.32 87 171.11 87.12 171 87.12 170.78 87 167.87 84.74 167.66 84.64 167.66 84.42 167.66 84.21 167.77 84.09 168.52 83.01 168.74 82.91 168.85 82.81 169.06 82.81 169.28 82.91 172.19 85.17 172.29 85.29 172.4 85.5 172.4 85.72 172.29 85.82"/><polygon class="cls-2" points="160.97 92.19 160.22 93.27 160 93.38 159.89 93.48 159.68 93.38 159.46 93.38 156.56 91.11 156.45 90.89 156.33 90.79 156.33 90.57 156.45 90.36 157.31 89.38 157.41 89.16 157.63 89.16 157.74 89.16 157.95 89.28 160.87 91.44 161.08 91.65 161.08 91.75 161.08 91.97 160.97 92.19"/><polygon class="cls-3" points="160.97 92.19 160.22 93.27 160 93.38 159.89 93.48 159.68 93.38 159.46 93.38 156.56 91.11 156.45 90.89 156.33 90.79 156.33 90.57 156.45 90.36 157.31 89.38 157.41 89.16 157.63 89.16 157.74 89.16 157.95 89.28 160.87 91.44 161.08 91.65 161.08 91.75 161.08 91.97 160.97 92.19"/><polyline class="cls-4" points="138.01 118.5 138.11 119.69 138.44 121.52 139.73 126.91"/><polyline class="cls-4" points="141.99 135.22 144.26 143.53 144.26 143.63"/><line class="cls-4" x1="146.63" y1="151.94" x2="149.01" y2="160.13"/><polyline class="cls-4" points="151.48 168.44 152.78 173.08 152.99 174.15 153.1 175.23 152.99 176.31 152.89 176.84"/><polyline class="cls-4" points="150.19 185.05 150.09 185.15 149.12 187.53 147.06 192.28 146.74 192.91"/><polyline class="cls-4" points="142.75 200.57 142.65 200.79 140.38 204.68 138.22 208.02"/><polyline class="cls-4" points="133.26 215.03 131.97 216.75 130.13 218.91 128.62 220.75 127.77 221.6"/><line class="cls-5" x1="173.05" y1="93.7" x2="168.95" y2="96.07"/><polygon class="cls-6" points="171.54 93.7 171.54 93.91 173.05 93.7 172.08 94.78 172.29 94.99 173.59 93.38 171.54 93.7"/><line class="cls-7" x1="166.69" y1="91.97" x2="168.95" y2="96.07"/><polygon class="cls-8" points="166.69 93.58 166.9 93.48 166.69 91.97 167.87 93.05 167.98 92.83 166.36 91.44 166.69 93.58"/><polygon class="cls-8" points="168.74 95.64 168.74 95.64 168.52 95.74 168.52 95.96 168.41 96.07 168.52 96.29 168.63 96.39 168.74 96.49 168.95 96.49 169.16 96.49 169.28 96.39 169.38 96.18 169.38 96.07 169.28 95.86 169.16 95.74 169.06 95.64 168.85 95.64 168.74 95.64"/><polyline class="cls-9" points="161.84 83.01 161.84 83.01 160.97 80.43 160 77.84 158.92 75.36 157.84 72.99 156.66 70.73 155.36 68.68 153.97 66.62 152.66 64.79 151.17 63.07 149.66 61.55 148.14 60.26 146.53 59.19 144.91 58.33 143.19 57.68 141.45 57.25 140.6 57.13 139.73 57.13"/><polyline class="cls-4" points="115.69 41.61 115.69 41.61 120 41.92"/><polyline class="cls-4" points="128.52 42.9 132.19 43.76 135.53 44.63 136.93 45.16"/><polyline class="cls-4" points="144.58 49.05 145.34 49.69 146.2 50.45 146.96 51.2 147.71 52.06 148.35 52.93 148.89 53.79 149.43 54.65 149.97 55.63"/><polyline class="cls-4" points="151.71 64.03 151.71 64.9 151.59 67.17 151.27 69.53 150.84 71.91 150.73 72.56"/><polyline class="cls-4" points="148.47 80.86 147.28 84.42 145.66 89.06"/><polyline class="cls-4" points="142.75 97.14 141.78 99.95 140.17 105.02 140.17 105.35"/><polyline class="cls-4" points="138.22 114.19 138.22 114.19 138.01 116.34 138.01 118.5"/><polygon class="cls-10" points="144.91 199.61 144.91 199.61 144.8 199.93 144.69 200.26 144.58 200.57 144.37 200.79 144.04 201.01 143.83 201.22 143.4 201.34 143.07 201.34 142.75 201.34 142.43 201.22 142.11 201.01 141.78 200.79 141.57 200.57 141.45 200.26 141.35 199.93 141.24 199.61 141.35 199.18 141.45 198.85 141.57 198.53 141.78 198.31 142.11 198.1 142.43 197.88 142.75 197.77 143.07 197.77 143.4 197.77 143.83 197.88 144.04 198.1 144.37 198.31 144.58 198.53 144.69 198.85 144.8 199.18 144.91 199.61"/><polygon class="cls-11" points="144.91 199.61 144.91 199.61 144.8 199.93 144.69 200.26 144.58 200.57 144.37 200.79 144.04 201.01 143.83 201.22 143.4 201.34 143.07 201.34 142.75 201.34 142.43 201.22 142.11 201.01 141.78 200.79 141.57 200.57 141.45 200.26 141.35 199.93 141.24 199.61 141.35 199.18 141.45 198.85 141.57 198.53 141.78 198.31 142.11 198.1 142.43 197.88 142.75 197.77 143.07 197.77 143.4 197.77 143.83 197.88 144.04 198.1 144.37 198.31 144.58 198.53 144.69 198.85 144.8 199.18 144.91 199.61"/><polygon class="cls-10" points="135.53 213.95 135.53 213.95 135.42 214.38 135.31 214.7 135.21 215.03 134.99 215.25 134.67 215.46 134.34 215.68 134.01 215.78 133.69 215.78 133.26 215.78 132.94 215.68 132.73 215.46 132.4 215.25 132.19 215.03 131.97 214.7 131.86 214.38 131.86 213.95 131.86 213.62 131.97 213.3 132.19 212.98 132.4 212.66 132.73 212.44 132.94 212.33 133.26 212.22 133.69 212.11 134.01 212.22 134.34 212.33 134.67 212.44 134.99 212.66 135.21 212.98 135.31 213.3 135.42 213.62 135.53 213.95"/><polygon class="cls-11" points="135.53 213.95 135.53 213.95 135.42 214.38 135.31 214.7 135.21 215.03 134.99 215.25 134.67 215.46 134.34 215.68 134.01 215.78 133.69 215.78 133.26 215.78 132.94 215.68 132.73 215.46 132.4 215.25 132.19 215.03 131.97 214.7 131.86 214.38 131.86 213.95 131.86 213.62 131.97 213.3 132.19 212.98 132.4 212.66 132.73 212.44 132.94 212.33 133.26 212.22 133.69 212.11 134.01 212.22 134.34 212.33 134.67 212.44 134.99 212.66 135.21 212.98 135.31 213.3 135.42 213.62 135.53 213.95"/><polygon class="cls-10" points="154.94 178.79 154.94 178.79 154.82 179.11 154.72 179.44 154.61 179.76 154.4 180.08 154.07 180.3 153.75 180.41 153.43 180.51 153.1 180.63 152.78 180.51 152.35 180.41 152.13 180.3 151.81 180.08 151.59 179.76 151.48 179.44 151.38 179.11 151.27 178.79 151.38 178.35 151.48 178.04 151.59 177.82 151.81 177.5 152.13 177.28 152.35 177.06 152.78 176.96 153.1 176.96 153.43 176.96 153.75 177.06 154.07 177.28 154.4 177.5 154.61 177.82 154.72 178.04 154.82 178.35 154.94 178.79"/><polygon class="cls-11" points="154.94 178.79 154.94 178.79 154.82 179.11 154.72 179.44 154.61 179.76 154.4 180.08 154.07 180.3 153.75 180.41 153.43 180.51 153.1 180.63 152.78 180.51 152.35 180.41 152.13 180.3 151.81 180.08 151.59 179.76 151.48 179.44 151.38 179.11 151.27 178.79 151.38 178.35 151.48 178.04 151.59 177.82 151.81 177.5 152.13 177.28 152.35 177.06 152.78 176.96 153.1 176.96 153.43 176.96 153.75 177.06 154.07 177.28 154.4 177.5 154.61 177.82 154.72 178.04 154.82 178.35 154.94 178.79"/><polygon class="cls-10" points="147.93 150.64 147.93 150.64 147.93 151.07 147.82 151.39 147.61 151.72 147.4 151.94 147.17 152.15 146.85 152.37 146.53 152.47 146.2 152.47 145.78 152.47 145.45 152.37 145.12 152.15 144.91 151.94 144.69 151.72 144.48 151.39 144.37 151.07 144.37 150.64 144.37 150.31 144.48 149.99 144.69 149.67 144.91 149.45 145.12 149.23 145.45 149.03 145.78 148.91 146.2 148.91 146.53 148.91 146.85 149.03 147.17 149.23 147.4 149.45 147.61 149.67 147.82 149.99 147.93 150.31 147.93 150.64"/><polygon class="cls-11" points="147.93 150.64 147.93 150.64 147.93 151.07 147.82 151.39 147.61 151.72 147.4 151.94 147.17 152.15 146.85 152.37 146.53 152.47 146.2 152.47 145.78 152.47 145.45 152.37 145.12 152.15 144.91 151.94 144.69 151.72 144.48 151.39 144.37 151.07 144.37 150.64 144.37 150.31 144.48 149.99 144.69 149.67 144.91 149.45 145.12 149.23 145.45 149.03 145.78 148.91 146.2 148.91 146.53 148.91 146.85 149.03 147.17 149.23 147.4 149.45 147.61 149.67 147.82 149.99 147.93 150.31 147.93 150.64"/><polygon class="cls-10" points="141.13 126.69 141.13 126.69 141.13 127.02 141.03 127.34 140.81 127.67 140.6 127.99 140.38 128.21 140.06 128.32 139.73 128.42 139.3 128.53 138.98 128.42 138.66 128.32 138.34 128.21 138.01 127.99 137.8 127.67 137.68 127.34 137.57 127.02 137.57 126.69 137.57 126.38 137.68 125.94 137.8 125.73 138.01 125.4 138.34 125.19 138.66 125.08 138.98 124.97 139.3 124.86 139.73 124.97 140.06 125.08 140.38 125.19 140.6 125.4 140.81 125.73 141.03 125.94 141.13 126.38 141.13 126.69"/><polygon class="cls-11" points="141.13 126.69 141.13 126.69 141.13 127.02 141.03 127.34 140.81 127.67 140.6 127.99 140.38 128.21 140.06 128.32 139.73 128.42 139.3 128.53 138.98 128.42 138.66 128.32 138.34 128.21 138.01 127.99 137.8 127.67 137.68 127.34 137.57 127.02 137.57 126.69 137.57 126.38 137.68 125.94 137.8 125.73 138.01 125.4 138.34 125.19 138.66 125.08 138.98 124.97 139.3 124.86 139.73 124.97 140.06 125.08 140.38 125.19 140.6 125.4 140.81 125.73 141.03 125.94 141.13 126.38 141.13 126.69"/><polygon class="cls-10" points="146.63 90.79 146.63 90.79 146.63 91.22 146.53 91.54 146.42 91.75 146.2 92.08 145.88 92.3 145.55 92.51 145.22 92.62 144.91 92.62 144.48 92.62 144.15 92.51 143.83 92.3 143.61 92.08 143.4 91.75 143.19 91.54 143.07 91.22 143.07 90.79 143.07 90.46 143.19 90.14 143.4 89.81 143.61 89.49 143.83 89.28 144.15 89.16 144.48 89.06 144.91 88.95 145.22 89.06 145.55 89.16 145.88 89.28 146.2 89.49 146.42 89.81 146.53 90.14 146.63 90.46 146.63 90.79"/><polygon class="cls-11" points="146.63 90.79 146.63 90.79 146.63 91.22 146.53 91.54 146.42 91.75 146.2 92.08 145.88 92.3 145.55 92.51 145.22 92.62 144.91 92.62 144.48 92.62 144.15 92.51 143.83 92.3 143.61 92.08 143.4 91.75 143.19 91.54 143.07 91.22 143.07 90.79 143.07 90.46 143.19 90.14 143.4 89.81 143.61 89.49 143.83 89.28 144.15 89.16 144.48 89.06 144.91 88.95 145.22 89.06 145.55 89.16 145.88 89.28 146.2 89.49 146.42 89.81 146.53 90.14 146.63 90.46 146.63 90.79"/><polygon class="cls-10" points="144.91 49.15 144.91 49.15 144.8 49.48 144.69 49.8 144.58 50.12 144.37 50.34 144.04 50.55 143.83 50.77 143.4 50.88 143.07 50.88 142.75 50.88 142.43 50.77 142.11 50.55 141.78 50.34 141.57 50.12 141.45 49.8 141.35 49.48 141.24 49.15 141.35 48.72 141.45 48.4 141.57 48.07 141.78 47.86 142.11 47.64 142.43 47.43 142.75 47.32 143.07 47.32 143.4 47.32 143.83 47.43 144.04 47.64 144.37 47.86 144.58 48.07 144.69 48.4 144.8 48.72 144.91 49.15"/><polygon class="cls-11" points="144.91 49.15 144.91 49.15 144.8 49.48 144.69 49.8 144.58 50.12 144.37 50.34 144.04 50.55 143.83 50.77 143.4 50.88 143.07 50.88 142.75 50.88 142.43 50.77 142.11 50.55 141.78 50.34 141.57 50.12 141.45 49.8 141.35 49.48 141.24 49.15 141.35 48.72 141.45 48.4 141.57 48.07 141.78 47.86 142.11 47.64 142.43 47.43 142.75 47.32 143.07 47.32 143.4 47.32 143.83 47.43 144.04 47.64 144.37 47.86 144.58 48.07 144.69 48.4 144.8 48.72 144.91 49.15"/><polygon class="cls-10" points="127.66 41.61 127.66 41.61 127.66 42.04 127.55 42.37 127.44 42.69 127.23 42.9 126.9 43.12 126.59 43.33 126.26 43.44 125.93 43.44 125.5 43.44 125.18 43.33 124.85 43.12 124.64 42.9 124.43 42.69 124.2 42.37 124.1 42.04 124.1 41.61 124.1 41.28 124.2 40.96 124.43 40.63 124.64 40.42 124.85 40.09 125.18 39.99 125.5 39.88 125.93 39.88 126.26 39.88 126.59 39.99 126.9 40.09 127.23 40.42 127.44 40.63 127.55 40.96 127.66 41.28 127.66 41.61"/><polygon class="cls-11" points="127.66 41.61 127.66 41.61 127.66 42.04 127.55 42.37 127.44 42.69 127.23 42.9 126.9 43.12 126.59 43.33 126.26 43.44 125.93 43.44 125.5 43.44 125.18 43.33 124.85 43.12 124.64 42.9 124.43 42.69 124.2 42.37 124.1 42.04 124.1 41.61 124.1 41.28 124.2 40.96 124.43 40.63 124.64 40.42 124.85 40.09 125.18 39.99 125.5 39.88 125.93 39.88 126.26 39.88 126.59 39.99 126.9 40.09 127.23 40.42 127.44 40.63 127.55 40.96 127.66 41.28 127.66 41.61"/><polygon class="cls-10" points="154.72 64.69 153.64 63.5 153.53 63.39 153.64 63.28 154.72 62.1 154.82 61.99 154.72 61.88 153.53 60.59 153.43 60.59 153.2 60.59 152.13 61.77 151.92 61.77 151.81 61.77 150.73 60.59 150.51 60.59 150.41 60.59 149.22 61.88 149.12 61.99 149.22 62.1 150.3 63.28 150.41 63.39 150.3 63.5 149.22 64.69 149.12 64.79 149.22 64.9 150.41 66.09 150.51 66.19 150.73 66.09 151.81 65.01 151.92 64.9 152.13 65.01 153.2 66.09 153.43 66.19 153.53 66.09 154.72 64.9 154.82 64.79 154.72 64.69"/><polygon class="cls-12" points="154.72 64.69 153.64 63.5 153.53 63.39 153.64 63.28 154.72 62.1 154.82 61.99 154.72 61.88 153.53 60.59 153.43 60.59 153.2 60.59 152.13 61.77 151.92 61.77 151.81 61.77 150.73 60.59 150.51 60.59 150.41 60.59 149.22 61.88 149.12 61.99 149.22 62.1 150.3 63.28 150.41 63.39 150.3 63.5 149.22 64.69 149.12 64.79 149.22 64.9 150.41 66.09 150.51 66.19 150.73 66.09 151.81 65.01 151.92 64.9 152.13 65.01 153.2 66.09 153.43 66.19 153.53 66.09 154.72 64.9 154.82 64.79 154.72 64.69"/><polygon class="cls-10" points="44.53 97.9 43.02 96.39 42.92 96.18 43.02 96.07 44.53 94.56 44.64 94.35 44.53 94.13 42.92 92.51 42.7 92.4 42.48 92.51 40.97 94.03 40.87 94.13 40.66 94.03 39.15 92.51 38.92 92.4 38.71 92.51 37.09 94.13 37.09 94.35 37.09 94.56 38.61 96.07 38.71 96.18 38.61 96.39 37.09 97.9 37.09 98.12 37.09 98.33 38.71 99.95 38.92 99.95 39.15 99.95 40.66 98.44 40.87 98.33 40.97 98.44 42.48 99.95 42.7 99.95 42.92 99.95 44.53 98.33 44.64 98.12 44.53 97.9"/><polygon class="cls-12" points="44.53 97.9 43.02 96.39 42.92 96.18 43.02 96.07 44.53 94.56 44.64 94.35 44.53 94.13 42.92 92.51 42.7 92.4 42.48 92.51 40.97 94.03 40.87 94.13 40.66 94.03 39.15 92.51 38.92 92.4 38.71 92.51 37.09 94.13 37.09 94.35 37.09 94.56 38.61 96.07 38.71 96.18 38.61 96.39 37.09 97.9 37.09 98.12 37.09 98.33 38.71 99.95 38.92 99.95 39.15 99.95 40.66 98.44 40.87 98.33 40.97 98.44 42.48 99.95 42.7 99.95 42.92 99.95 44.53 98.33 44.64 98.12 44.53 97.9"/><line class="cls-4" x1="43.35" y1="52.5" x2="39.04" y2="52.5"/><line class="cls-4" x1="32.24" y1="52.5" x2="25.34" y2="52.5"/><line class="cls-4" x1="18.65" y1="52.5" x2="14.34" y2="52.5"/><polygon class="cls-13" points="109.87 119.79 12.51 119.79 11.97 119.69 11.54 119.48 11.33 119.04 11.21 118.5 11.21 44.2 11.33 43.65 11.54 43.22 11.97 43 12.51 42.9 109.87 42.9 110.41 43 110.73 43.22 111.05 43.65 111.17 44.2 111.17 118.5 111.05 119.04 110.73 119.48 110.41 119.69 109.87 119.79"/><polygon class="cls-10" points="43.23 110.52 43.23 110.52 43.23 111.06 43.02 111.5 42.81 111.92 42.48 112.25 42.16 112.57 41.73 112.78 41.3 112.89 40.87 112.89 40.33 112.89 39.9 112.78 39.46 112.57 39.15 112.25 38.82 111.92 38.61 111.5 38.5 111.06 38.38 110.52 38.5 109.97 38.61 109.55 38.82 109.12 39.15 108.79 39.46 108.47 39.9 108.26 40.33 108.14 40.87 108.14 41.3 108.14 41.73 108.26 42.16 108.47 42.48 108.79 42.81 109.12 43.02 109.55 43.23 109.97 43.23 110.52"/><polygon class="cls-11" points="43.23 110.52 43.23 110.52 43.23 111.06 43.02 111.5 42.81 111.92 42.48 112.25 42.16 112.57 41.73 112.78 41.3 112.89 40.87 112.89 40.33 112.89 39.9 112.78 39.46 112.57 39.15 112.25 38.82 111.92 38.61 111.5 38.5 111.06 38.38 110.52 38.5 109.97 38.61 109.55 38.82 109.12 39.15 108.79 39.46 108.47 39.9 108.26 40.33 108.14 40.87 108.14 41.3 108.14 41.73 108.26 42.16 108.47 42.48 108.79 42.81 109.12 43.02 109.55 43.23 109.97 43.23 110.52"/><line class="cls-9" x1="43.35" y1="66.19" x2="14.34" y2="66.19"/><path class="cls-2" d="M53.78,52.57v1a2,2,0,0,0,0,.31.37.37,0,0,0,.05.15.24.24,0,0,0,.09.08l.19.07v.15H52.87v-.15a.53.53,0,0,0,.25-.11.24.24,0,0,0,.08-.16,1.43,1.43,0,0,0,0-.33V51a2.28,2.28,0,0,0,0-.3.53.53,0,0,0-.05-.15l-.09-.08-.2-.07v-.14h1.48a1.75,1.75,0,0,1,1,.25.9.9,0,0,1,.34.78,1.09,1.09,0,0,1-.22.7,1.38,1.38,0,0,1-.67.44v0a1,1,0,0,1,.31.21,2,2,0,0,1,.28.43l.27.49c.08.14.15.25.2.32a.74.74,0,0,0,.17.18.69.69,0,0,0,.23.08v.15h-.82a4,4,0,0,1-.22-.34l-.2-.37-.26-.5a2,2,0,0,0-.2-.33.51.51,0,0,0-.14-.15.31.31,0,0,0-.13-.06l-.22,0Zm.44-2h-.44v1.77h.34a2.3,2.3,0,0,0,.42,0,1,1,0,0,0,.3-.14.7.7,0,0,0,.21-.29,1.08,1.08,0,0,0,.09-.46,1.09,1.09,0,0,0-.1-.47.65.65,0,0,0-.29-.28,1.14,1.14,0,0,0-.53-.1Z"/><path class="cls-2" d="M58.73,53.83a1.9,1.9,0,0,1-.35.31,1.06,1.06,0,0,1-.35.18,1.33,1.33,0,0,1-.42.06,1.15,1.15,0,0,1-.92-.36,1.65,1.65,0,0,1-.32-1.09,1.94,1.94,0,0,1,.16-.78,1.24,1.24,0,0,1,1.14-.71,1.13,1.13,0,0,1,.51.1.88.88,0,0,1,.34.26,1.2,1.2,0,0,1,.19.41,2.37,2.37,0,0,1,.08.66H56.92v.05a2,2,0,0,0,.07.59.81.81,0,0,0,.26.38.77.77,0,0,0,.47.13,1,1,0,0,0,.44-.09,1.41,1.41,0,0,0,.39-.29Zm-.5-1.21a2.19,2.19,0,0,0-.08-.52.64.64,0,0,0-.19-.32.47.47,0,0,0-.32-.1.58.58,0,0,0-.49.24,1.26,1.26,0,0,0-.22.7Z"/><path class="cls-2" d="M60.8,51.79h-.71v1.8a1.24,1.24,0,0,0,0,.3.5.5,0,0,0,0,.16.39.39,0,0,0,.1.08l.2.06v.15H59.24v-.15a.77.77,0,0,0,.19-.07.3.3,0,0,0,.08-.08.44.44,0,0,0,.05-.15,2.28,2.28,0,0,0,0-.3v-1.8h-.36v-.15l.15,0a.13.13,0,0,0,.08,0,.17.17,0,0,0,.06-.06.43.43,0,0,0,0-.11s0-.12,0-.22a1.66,1.66,0,0,1,.12-.52,1,1,0,0,1,.26-.35,1.16,1.16,0,0,1,.38-.2,1.56,1.56,0,0,1,.46-.06,2.15,2.15,0,0,1,.4,0v.54H60.9a.63.63,0,0,0-.14-.25.29.29,0,0,0-.21-.08.38.38,0,0,0-.16,0,.57.57,0,0,0-.13.08.35.35,0,0,0-.09.16.7.7,0,0,0-.06.23,2,2,0,0,0,0,.37v.31h.71Z"/><path class="cls-2" d="M63.37,53.83a2.29,2.29,0,0,1-.35.31,1.16,1.16,0,0,1-.35.18,1.42,1.42,0,0,1-.42.06,1.17,1.17,0,0,1-.93-.36A1.71,1.71,0,0,1,61,52.93a1.78,1.78,0,0,1,.16-.78,1.29,1.29,0,0,1,1.65-.61.78.78,0,0,1,.33.26,1.21,1.21,0,0,1,.2.41,2.83,2.83,0,0,1,.08.66H61.55v.05a2,2,0,0,0,.08.59.74.74,0,0,0,.26.38.77.77,0,0,0,.47.13,1,1,0,0,0,.44-.09,1.41,1.41,0,0,0,.39-.29Zm-.5-1.21a2.19,2.19,0,0,0-.08-.52.72.72,0,0,0-.19-.32.48.48,0,0,0-.33-.1.6.6,0,0,0-.49.24,1.35,1.35,0,0,0-.21.7Z"/><path class="cls-2" d="M64.71,52h.05a2.24,2.24,0,0,1,.3-.31,1.14,1.14,0,0,1,.3-.18,1.06,1.06,0,0,1,.37-.06l.31,0v.68H65.7a.57.57,0,0,0-.15-.23.29.29,0,0,0-.22-.07.42.42,0,0,0-.21.06.67.67,0,0,0-.2.18.8.8,0,0,0-.14.22.93.93,0,0,0,0,.25v1a1.13,1.13,0,0,0,0,.38.31.31,0,0,0,.1.15.9.9,0,0,0,.23.07v.15h-1.2v-.15a.53.53,0,0,0,.16-.06.24.24,0,0,0,.09-.08.38.38,0,0,0,0-.14,1.28,1.28,0,0,0,0-.31V52a.48.48,0,0,0,0-.19.22.22,0,0,0-.11-.1.6.6,0,0,0-.2-.06v-.16l.69,0h.19Z"/><path class="cls-2" d="M68.66,53.83a2.89,2.89,0,0,1-.35.31,1.29,1.29,0,0,1-.35.18,1.42,1.42,0,0,1-.42.06,1.17,1.17,0,0,1-.93-.36,1.65,1.65,0,0,1-.31-1.09,1.78,1.78,0,0,1,.16-.78,1.15,1.15,0,0,1,.45-.52,1.2,1.2,0,0,1,.68-.19,1.13,1.13,0,0,1,.51.1.82.82,0,0,1,.34.26,1.21,1.21,0,0,1,.2.41,3.49,3.49,0,0,1,.08.66H66.84v.05a2,2,0,0,0,.08.59.69.69,0,0,0,.73.51,1,1,0,0,0,.44-.09,1.24,1.24,0,0,0,.38-.29Zm-.5-1.21a2.86,2.86,0,0,0-.08-.52.82.82,0,0,0-.19-.32.48.48,0,0,0-.33-.1.59.59,0,0,0-.49.24,1.35,1.35,0,0,0-.21.7Zm4,1.72H71v-.15l.17-.06a.3.3,0,0,0,.08-.08.26.26,0,0,0,.06-.14,2.16,2.16,0,0,0,0-.31v-.78c0-.13,0-.26,0-.37s0-.21,0-.28a1,1,0,0,0-.07-.17.52.52,0,0,0-.1-.11L71,51.83a.55.55,0,0,0-.41,0,.74.74,0,0,0-.23.16.58.58,0,0,0-.18.22.51.51,0,0,0-.06.25v1.11a2.67,2.67,0,0,0,0,.36.38.38,0,0,0,.09.15,1,1,0,0,0,.22.09v.15H69.3v-.15l.16-.06.08-.08a.26.26,0,0,0,.06-.14,2.16,2.16,0,0,0,0-.31V52.3a2.54,2.54,0,0,0,0-.3.49.49,0,0,0,0-.19.22.22,0,0,0-.11-.1.76.76,0,0,0-.21-.06v-.16l.7,0h.18l0,.48h0a3.79,3.79,0,0,1,.36-.32,1.16,1.16,0,0,1,.27-.14.72.72,0,0,1,.29-.06,1.19,1.19,0,0,1,.29,0,.63.63,0,0,1,.23.12.58.58,0,0,1,.15.19.72.72,0,0,1,.1.27,2.37,2.37,0,0,1,0,.41v1.12a2.28,2.28,0,0,0,0,.3.39.39,0,0,0,0,.14.26.26,0,0,0,.09.09l.2.07ZM75,51.56v.62h-.38a1.07,1.07,0,0,0-.13-.3.37.37,0,0,0-.17-.16.61.61,0,0,0-.24,0,.54.54,0,0,0-.37.13.88.88,0,0,0-.26.41,2.13,2.13,0,0,0-.09.67,3.23,3.23,0,0,0,0,.46,1.17,1.17,0,0,0,.13.36.61.61,0,0,0,.22.23.68.68,0,0,0,.36.08.81.81,0,0,0,.38-.08,1.09,1.09,0,0,0,.37-.28l.17.2a1.94,1.94,0,0,1-.27.25,1.32,1.32,0,0,1-.25.16.87.87,0,0,1-.26.08,1.27,1.27,0,0,1-.28,0,1,1,0,0,1-.86-.37,1.69,1.69,0,0,1-.3-1.08,1.79,1.79,0,0,1,.17-.78,1.13,1.13,0,0,1,.47-.52,1.23,1.23,0,0,1,.69-.19,3.19,3.19,0,0,1,.45,0Zm2.85,2.27a2.89,2.89,0,0,1-.35.31,1.29,1.29,0,0,1-.35.18,1.42,1.42,0,0,1-.42.06,1.17,1.17,0,0,1-.93-.36,1.65,1.65,0,0,1-.31-1.09,1.78,1.78,0,0,1,.16-.78,1.1,1.1,0,0,1,.45-.52,1.2,1.2,0,0,1,.68-.19,1.13,1.13,0,0,1,.51.1.88.88,0,0,1,.34.26,1.42,1.42,0,0,1,.2.41,2.89,2.89,0,0,1,.07.66H76v.05a2,2,0,0,0,.08.59.69.69,0,0,0,.73.51,1,1,0,0,0,.44-.09,1.37,1.37,0,0,0,.38-.29Zm-.5-1.21a2.13,2.13,0,0,0-.09-.52.71.71,0,0,0-.18-.32.52.52,0,0,0-.33-.1.59.59,0,0,0-.49.24,1.45,1.45,0,0,0-.22.7Zm2.47-1a.67.67,0,0,0,.24-.08.36.36,0,0,0,.14-.16.69.69,0,0,0,.09-.23c0-.09,0-.23.06-.41h.42v.73h1v.3h-1v1.33c0,.19,0,.34,0,.46a.71.71,0,0,0,.09.26.38.38,0,0,0,.37.18.42.42,0,0,0,.22-.05.85.85,0,0,0,.21-.14l.13.16a1.44,1.44,0,0,1-.4.3.92.92,0,0,1-.39.09.68.68,0,0,1-.57-.22,1.11,1.11,0,0,1-.19-.72V51.79h-.44Z"/><path class="cls-2" d="M82.29,52h0a3,3,0,0,1,.3-.31,1.39,1.39,0,0,1,.31-.18,1,1,0,0,1,.36-.06l.32,0v.68h-.34a.91.91,0,0,0-.15-.23.31.31,0,0,0-.22-.07.42.42,0,0,0-.21.06.7.7,0,0,0-.21.18.74.74,0,0,0-.13.22.66.66,0,0,0,0,.25v1a1.62,1.62,0,0,0,0,.38.33.33,0,0,0,.11.15.79.79,0,0,0,.23.07v.15h-1.2v-.15l.16-.06.09-.08a.38.38,0,0,0,.05-.14,2.16,2.16,0,0,0,0-.31V52.3c0-.12,0-.23,0-.3a.49.49,0,0,0,0-.19.22.22,0,0,0-.11-.1.76.76,0,0,0-.21-.06v-.16l.7,0h.18Z"/><path class="cls-2" d="M85.57,53.91h0a2,2,0,0,1-.49.37,1,1,0,0,1-.49.11.93.93,0,0,1-.39-.08.66.66,0,0,1-.27-.25.75.75,0,0,1-.09-.37.73.73,0,0,1,.43-.67,3,3,0,0,1,1.29-.27v-.2a1.63,1.63,0,0,0-.06-.49.51.51,0,0,0-.19-.26.66.66,0,0,0-.34-.08.53.53,0,0,0-.37.12.71.71,0,0,0-.22.37H84v-.39a4.5,4.5,0,0,1,.48-.22l.38-.11a1.72,1.72,0,0,1,.39,0,.94.94,0,0,1,.47.1.57.57,0,0,1,.27.28,1.49,1.49,0,0,1,.09.59v1.34a.88.88,0,0,0,0,.17.34.34,0,0,0,0,.12.24.24,0,0,0,.09.08.77.77,0,0,0,.19.07v.15h-.82Zm0-.93a2.12,2.12,0,0,0-.91.16.5.5,0,0,0-.3.47.47.47,0,0,0,.07.26.37.37,0,0,0,.17.14.93.93,0,0,0,.25,0,.76.76,0,0,0,.37-.1.78.78,0,0,0,.26-.25.58.58,0,0,0,.09-.3Zm2.15,1.3a2.08,2.08,0,0,1-.08.67,1,1,0,0,1-.3.42,1.52,1.52,0,0,1-.6.28l-.1-.26a1.52,1.52,0,0,0,.28-.13.78.78,0,0,0,.16-.15.49.49,0,0,0,.1-.23,1.9,1.9,0,0,0,0-.37V52.3a2.83,2.83,0,0,0,0-.33.34.34,0,0,0,0-.16.2.2,0,0,0-.09-.09.63.63,0,0,0-.22-.07v-.16l.69,0h.18Zm0-4v.57h-.55v-.57Zm3.07,3.5a2.89,2.89,0,0,1-.35.31,1.16,1.16,0,0,1-.35.18,1.42,1.42,0,0,1-.42.06,1.17,1.17,0,0,1-.93-.36,1.65,1.65,0,0,1-.31-1.09,1.78,1.78,0,0,1,.16-.78,1.21,1.21,0,0,1,1.13-.71,1.13,1.13,0,0,1,.51.1.76.76,0,0,1,.34.26,1.21,1.21,0,0,1,.2.41,2.83,2.83,0,0,1,.08.66H88.94v.05a2,2,0,0,0,.08.59.74.74,0,0,0,.26.38.77.77,0,0,0,.47.13,1,1,0,0,0,.44-.09,1.41,1.41,0,0,0,.39-.29Zm-.5-1.21a2.19,2.19,0,0,0-.08-.52.72.72,0,0,0-.19-.32.48.48,0,0,0-.33-.1.6.6,0,0,0-.49.24,1.35,1.35,0,0,0-.21.7Zm3.46-1.06v.62h-.38a.85.85,0,0,0-.12-.3.39.39,0,0,0-.18-.16.55.55,0,0,0-.24,0,.56.56,0,0,0-.37.13.87.87,0,0,0-.25.41,1.86,1.86,0,0,0-.1.67,2.19,2.19,0,0,0,0,.46,1,1,0,0,0,.12.36.63.63,0,0,0,.23.23.63.63,0,0,0,.35.08.85.85,0,0,0,.39-.08,1.07,1.07,0,0,0,.36-.28l.17.2a2.81,2.81,0,0,1-.26.25,1.32,1.32,0,0,1-.25.16.92.92,0,0,1-.27.08,1.2,1.2,0,0,1-.28,0,1,1,0,0,1-.86-.37,1.69,1.69,0,0,1-.29-1.08,1.78,1.78,0,0,1,.16-.78,1.19,1.19,0,0,1,.47-.52,1.23,1.23,0,0,1,.69-.19,3,3,0,0,1,.45,0Z"/><path class="cls-2" d="M93.7,51.64a.67.67,0,0,0,.24-.08.39.39,0,0,0,.15-.16,1,1,0,0,0,.08-.23c0-.09,0-.23.06-.41h.43v.73h1v.3h-1v1.33a3,3,0,0,0,0,.46.47.47,0,0,0,.09.26.33.33,0,0,0,.15.14.41.41,0,0,0,.21,0,.4.4,0,0,0,.22-.05.85.85,0,0,0,.21-.14l.13.16a1.44,1.44,0,0,1-.4.3.86.86,0,0,1-.39.09.71.71,0,0,1-.57-.22,1.17,1.17,0,0,1-.19-.72V51.79H93.7Z"/><path class="cls-2" d="M97.23,54.38a1.21,1.21,0,0,1-1-.36A1.55,1.55,0,0,1,96,52.94a1.76,1.76,0,0,1,.18-.83,1.12,1.12,0,0,1,.46-.5,1.4,1.4,0,0,1,.68-.17,1.22,1.22,0,0,1,1,.37,1.56,1.56,0,0,1,.33,1.07,1.92,1.92,0,0,1-.17.83,1.2,1.2,0,0,1-.46.51A1.46,1.46,0,0,1,97.23,54.38Zm-.71-1.5a1.86,1.86,0,0,0,.19.94.62.62,0,0,0,.56.33.55.55,0,0,0,.34-.1.73.73,0,0,0,.23-.26,1.06,1.06,0,0,0,.12-.38A2.15,2.15,0,0,0,98,53a2.43,2.43,0,0,0-.09-.72.94.94,0,0,0-.27-.43.58.58,0,0,0-.38-.13.61.61,0,0,0-.55.31A1.68,1.68,0,0,0,96.52,52.88Zm3.67-.89h0a3,3,0,0,1,.3-.31,1.33,1.33,0,0,1,.3-.18,1.06,1.06,0,0,1,.37-.06l.31,0v.68h-.33a.91.91,0,0,0-.15-.23.33.33,0,0,0-.23-.07.42.42,0,0,0-.21.06.67.67,0,0,0-.2.18.8.8,0,0,0-.14.22,1,1,0,0,0,0,.25v1a1.62,1.62,0,0,0,0,.38.33.33,0,0,0,.11.15.71.71,0,0,0,.22.07v.15h-1.2v-.15l.17-.06a.3.3,0,0,0,.08-.08.37.37,0,0,0,.06-.14,2.55,2.55,0,0,0,0-.31V52a.78.78,0,0,0,0-.19.27.27,0,0,0-.11-.1.76.76,0,0,0-.21-.06v-.16l.7,0h.18Zm3.14,2.59a4.56,4.56,0,0,1-.32.6,1.1,1.1,0,0,1-.34.34.78.78,0,0,1-.44.12,1.73,1.73,0,0,1-.37,0V55h.26a.52.52,0,0,0,.09.17.25.25,0,0,0,.16,0,.29.29,0,0,0,.16,0,.6.6,0,0,0,.14-.11,1.85,1.85,0,0,0,.18-.26,3.46,3.46,0,0,0,.23-.44l-.83-2.24a2.56,2.56,0,0,0-.13-.3.36.36,0,0,0-.11-.13.39.39,0,0,0-.17-.07v-.15h1.21v.15a.7.7,0,0,0-.19.06.24.24,0,0,0-.09.08.53.53,0,0,0,0,.29,1.15,1.15,0,0,0,.06.21l.53,1.49.59-1.43a1.19,1.19,0,0,0,.08-.22.67.67,0,0,0,0-.18.26.26,0,0,0-.07-.2.54.54,0,0,0-.24-.1v-.15h1.11v.15a.38.38,0,0,0-.18.07.44.44,0,0,0-.12.16c0,.07-.09.16-.15.29Z"/><path class="cls-2" d="M55.62,64.7v.83h-.3a1.51,1.51,0,0,0-.18-.42.58.58,0,0,0-.26-.21.73.73,0,0,0-.35-.07A.84.84,0,0,0,54,65a1.34,1.34,0,0,0-.38.62,3.15,3.15,0,0,0-.14,1,3.58,3.58,0,0,0,.12,1,1.22,1.22,0,0,0,.33.62.76.76,0,0,0,.54.21.93.93,0,0,0,.4-.07.6.6,0,0,0,.26-.22,1.61,1.61,0,0,0,.2-.45h.3v.86a5.4,5.4,0,0,1-.58.11,6.25,6.25,0,0,1-.64,0,1.35,1.35,0,0,1-1.15-.51,2.56,2.56,0,0,1-.38-1.52,2.77,2.77,0,0,1,.2-1.12,1.62,1.62,0,0,1,.59-.74,1.66,1.66,0,0,1,.93-.26,3.84,3.84,0,0,1,.5,0A4.77,4.77,0,0,1,55.62,64.7Z"/><path class="cls-2" d="M56,65.83h.85v1.52a3.51,3.51,0,0,0,0,.53.72.72,0,0,0,.08.27.43.43,0,0,0,.15.15.45.45,0,0,0,.27.07.54.54,0,0,0,.22-.05.9.9,0,0,0,.23-.15.61.61,0,0,0,.18-.23.49.49,0,0,0,.06-.25V66.57a1.7,1.7,0,0,0,0-.25,1.06,1.06,0,0,0,0-.14.26.26,0,0,0-.05-.09.16.16,0,0,0-.08,0L57.69,66v-.15h.85v2a2.65,2.65,0,0,0,0,.33.61.61,0,0,0,0,.17.2.2,0,0,0,.09.09.63.63,0,0,0,.22.07v.16l-.68,0H58l0-.49H58a1.76,1.76,0,0,1-.47.39,1,1,0,0,1-.45.12.88.88,0,0,1-.45-.1.7.7,0,0,1-.26-.32,1.84,1.84,0,0,1-.08-.6V66.57a2.33,2.33,0,0,0,0-.34.36.36,0,0,0-.08-.15A.45.45,0,0,0,56,66Zm4.33.5h.05a2.41,2.41,0,0,1,.3-.32,1.49,1.49,0,0,1,.3-.18,1.06,1.06,0,0,1,.37-.06l.31,0v.68h-.33a.71.71,0,0,0-.16-.23.29.29,0,0,0-.22-.07.42.42,0,0,0-.21.06.67.67,0,0,0-.2.18.83.83,0,0,0-.14.23.8.8,0,0,0,0,.24v1a1.49,1.49,0,0,0,0,.38.27.27,0,0,0,.11.15.71.71,0,0,0,.22.07v.15h-1.2v-.15l.17-.06a.2.2,0,0,0,.08-.08.38.38,0,0,0,0-.14,1.28,1.28,0,0,0,0-.31v-1.6a.48.48,0,0,0-.05-.19.24.24,0,0,0-.1-.1L59.45,66v-.15l.7,0h.18Z"/><path class="cls-2" d="M62.84,65.83V66l-.19.06a.24.24,0,0,0-.09.08.39.39,0,0,0,0,.13.44.44,0,0,0,0,.16,1.15,1.15,0,0,0,.06.21l.51,1.5.61-1.44c0-.09.07-.17.09-.23a1.24,1.24,0,0,0,0-.18.25.25,0,0,0-.07-.19.45.45,0,0,0-.24-.1v-.15h1.11V66a.38.38,0,0,0-.18.07.55.55,0,0,0-.12.16,1.54,1.54,0,0,0-.15.29l-1,2.21h-.35L62,66.48a2,2,0,0,0-.14-.31.49.49,0,0,0-.1-.13.56.56,0,0,0-.17-.06v-.15Z"/><path class="cls-2" d="M66.49,68.25h0a1.63,1.63,0,0,1-.48.37,1.06,1.06,0,0,1-.49.11,1,1,0,0,1-.4-.08.63.63,0,0,1-.26-.25.75.75,0,0,1-.09-.37.73.73,0,0,1,.43-.67,2.89,2.89,0,0,1,1.29-.27v-.2a1.52,1.52,0,0,0-.06-.48.55.55,0,0,0-.19-.27.68.68,0,0,0-.34-.08.58.58,0,0,0-.38.12.82.82,0,0,0-.21.37h-.39v-.39a4.5,4.5,0,0,1,.48-.22l.38-.11a2.45,2.45,0,0,1,.39,0,.94.94,0,0,1,.47.1.57.57,0,0,1,.27.28,1.49,1.49,0,0,1,.09.59v1.34a.88.88,0,0,0,0,.17.34.34,0,0,0,0,.12.24.24,0,0,0,.09.08.77.77,0,0,0,.19.07v.15h-.82Zm0-.93a2.09,2.09,0,0,0-.91.16.5.5,0,0,0-.3.47.45.45,0,0,0,.07.27.31.31,0,0,0,.17.13.62.62,0,0,0,.25,0,.69.69,0,0,0,.37-.1.75.75,0,0,0,.25-.25.51.51,0,0,0,.1-.3ZM67.61,66a.52.52,0,0,0,.24-.08.4.4,0,0,0,.14-.15.85.85,0,0,0,.08-.24c0-.09,0-.23.07-.41h.42v.73h1v.3h-1v1.33c0,.19,0,.34,0,.46a.71.71,0,0,0,.09.26.38.38,0,0,0,.37.18.57.57,0,0,0,.22,0,.7.7,0,0,0,.2-.15l.14.16a1.6,1.6,0,0,1-.4.3.92.92,0,0,1-.39.09.72.72,0,0,1-.58-.22,1.17,1.17,0,0,1-.18-.72V66.13h-.44Zm2-.15h.85v1.52c0,.23,0,.41,0,.53a1,1,0,0,0,.08.27.46.46,0,0,0,.16.15.41.41,0,0,0,.27.07.54.54,0,0,0,.21-.05,1.14,1.14,0,0,0,.24-.15.9.9,0,0,0,.18-.23.49.49,0,0,0,0-.25V66.32a1.06,1.06,0,0,0,0-.14l0-.09-.08,0L71.39,66v-.15h.85v2a2.65,2.65,0,0,0,0,.33.4.4,0,0,0,0,.17.22.22,0,0,0,.1.09.56.56,0,0,0,.22.07v.16l-.68,0h-.18v-.49h0a1.76,1.76,0,0,1-.47.39,1,1,0,0,1-.45.12.88.88,0,0,1-.45-.1.64.64,0,0,1-.26-.32,1.58,1.58,0,0,1-.09-.6V66.57a1.43,1.43,0,0,0,0-.34.35.35,0,0,0-.07-.15.55.55,0,0,0-.24-.1Z"/><path class="cls-2" d="M73.77,66.33h0a2.41,2.41,0,0,1,.3-.32,1.92,1.92,0,0,1,.31-.18,1,1,0,0,1,.36-.06l.32,0v.68h-.34a.91.91,0,0,0-.15-.23.32.32,0,0,0-.22-.07.49.49,0,0,0-.22.06.81.81,0,0,0-.2.18.78.78,0,0,0-.13.23.57.57,0,0,0,0,.24v1a1.62,1.62,0,0,0,0,.38.33.33,0,0,0,.11.15.79.79,0,0,0,.23.07v.15H73v-.15l.16-.06a.2.2,0,0,0,.08-.08.26.26,0,0,0,.06-.14,2.16,2.16,0,0,0,0-.31V66.65c0-.13,0-.23,0-.31a.49.49,0,0,0,0-.19.27.27,0,0,0-.11-.1L72.92,66v-.15l.7,0h.18Z"/><path class="cls-2" d="M77.71,68.17a2.29,2.29,0,0,1-.35.31,1.06,1.06,0,0,1-.35.18,1.42,1.42,0,0,1-.42.06,1.13,1.13,0,0,1-.92-.36,1.65,1.65,0,0,1-.32-1.09,1.94,1.94,0,0,1,.16-.78,1.24,1.24,0,0,1,1.14-.71,1.13,1.13,0,0,1,.51.1.88.88,0,0,1,.34.26,1.2,1.2,0,0,1,.19.41,2.83,2.83,0,0,1,.08.66H75.9v.05a2,2,0,0,0,.07.59.81.81,0,0,0,.26.38.77.77,0,0,0,.47.13,1,1,0,0,0,.44-.09,1.41,1.41,0,0,0,.39-.29ZM77.21,67a2.19,2.19,0,0,0-.08-.52.57.57,0,0,0-.19-.31.43.43,0,0,0-.32-.11.58.58,0,0,0-.49.24,1.26,1.26,0,0,0-.22.7Z"/><path class="cls-2" d="M53.78,82.26a1.1,1.1,0,0,0,0,.28.43.43,0,0,0,.06.17.2.2,0,0,0,.11.09.83.83,0,0,0,.21.07V83H52.87v-.14a.53.53,0,0,0,.25-.11.27.27,0,0,0,.08-.16,1.43,1.43,0,0,0,0-.33V79.7a2.28,2.28,0,0,0,0-.3.53.53,0,0,0-.05-.15l-.09-.08a.88.88,0,0,0-.2-.07V79h1.48a1.68,1.68,0,0,1,1,.27,1,1,0,0,1,.34.81,1.43,1.43,0,0,1-.11.56,1,1,0,0,1-.3.4,1.22,1.22,0,0,1-.47.23,2.52,2.52,0,0,1-.56.07l-.51,0Zm0-1.23h.34a1.49,1.49,0,0,0,.56-.09.63.63,0,0,0,.33-.29,1.31,1.31,0,0,0,.05-1,.6.6,0,0,0-.19-.27.69.69,0,0,0-.28-.15,1.5,1.5,0,0,0-.37-.05l-.44,0Z"/><path class="cls-2" d="M57.76,82.59h0a1.71,1.71,0,0,1-.49.37,1.13,1.13,0,0,1-.48.11.87.87,0,0,1-.4-.09.67.67,0,0,1-.26-.24.66.66,0,0,1-.1-.37.75.75,0,0,1,.43-.67,3.09,3.09,0,0,1,1.29-.28v-.19a1.63,1.63,0,0,0-.05-.49.52.52,0,0,0-.19-.26.59.59,0,0,0-.34-.08.58.58,0,0,0-.38.12.78.78,0,0,0-.21.36h-.39v-.38a4.5,4.5,0,0,1,.48-.22,2.38,2.38,0,0,1,.38-.11,1.58,1.58,0,0,1,.38,0,1.08,1.08,0,0,1,.48.09.57.57,0,0,1,.26.29,1.43,1.43,0,0,1,.09.58v1c0,.14,0,.25,0,.31a.91.91,0,0,0,0,.17.33.33,0,0,0,.05.12.24.24,0,0,0,.09.08l.19.07V83h-.82Zm-.06-.93a1.93,1.93,0,0,0-.9.16.49.49,0,0,0-.3.46.41.41,0,0,0,.07.27.33.33,0,0,0,.17.14.9.9,0,0,0,.25,0,.81.81,0,0,0,.37-.09.75.75,0,0,0,.25-.25.58.58,0,0,0,.09-.3Zm1.17-1.34a1.23,1.23,0,0,0,.25-.08.43.43,0,0,0,.14-.16,1,1,0,0,0,.08-.23c0-.1,0-.23.06-.41h.43v.73h1v.3h-1v1.32c0,.2,0,.35,0,.46a.71.71,0,0,0,.09.27.33.33,0,0,0,.15.14.44.44,0,0,0,.21,0,.59.59,0,0,0,.23,0,.81.81,0,0,0,.2-.14l.14.16a1.6,1.6,0,0,1-.4.3.93.93,0,0,1-.4.09.69.69,0,0,1-.57-.23,1.14,1.14,0,0,1-.19-.71V80.47h-.44Zm2.93.32h0a2.3,2.3,0,0,1,.37-.33,1.34,1.34,0,0,1,.26-.14.93.93,0,0,1,.29,0,1.27,1.27,0,0,1,.29,0,.66.66,0,0,1,.22.12.58.58,0,0,1,.16.19,1,1,0,0,1,.09.28,2.17,2.17,0,0,1,0,.4v1.12a1.33,1.33,0,0,0,0,.35.28.28,0,0,0,.08.15.56.56,0,0,0,.23.1V83H62.69v-.14l.16-.06a.24.24,0,0,0,.09-.08.37.37,0,0,0,.05-.15,1.9,1.9,0,0,0,0-.3V81.5a3.12,3.12,0,0,0,0-.6.57.57,0,0,0-.16-.32.48.48,0,0,0-.33-.1.46.46,0,0,0-.21,0,1.08,1.08,0,0,0-.22.15.77.77,0,0,0-.19.22.5.5,0,0,0-.06.24v1.14a2.19,2.19,0,0,0,0,.29.29.29,0,0,0,0,.14.28.28,0,0,0,.09.1.77.77,0,0,0,.19.07V83H61v-.14l.19-.07a.3.3,0,0,0,.08-.08.53.53,0,0,0,.05-.15,2.28,2.28,0,0,0,0-.3V79.38a1,1,0,0,0,0-.19.67.67,0,0,0-.06-.12.24.24,0,0,0-.09-.08l-.21,0v-.15l.72,0h.18Z"/><path class="cls-2" d="M55.72,97.46l-.23.06-.22-.23a1.55,1.55,0,0,1-.4.17,1.77,1.77,0,0,1-.49.06A1.3,1.3,0,0,1,53.25,97a2.5,2.5,0,0,1-.38-1.53,2.75,2.75,0,0,1,.21-1.11,1.57,1.57,0,0,1,.59-.74,1.65,1.65,0,0,1,.92-.26,4.45,4.45,0,0,1,.53,0,5.12,5.12,0,0,1,.57.11v.82H55.4a1.67,1.67,0,0,0-.19-.42.6.6,0,0,0-.27-.21,1,1,0,0,0-.38-.07.84.84,0,0,0-.57.21,1.31,1.31,0,0,0-.38.62,3.08,3.08,0,0,0-.14,1,3.53,3.53,0,0,0,.12,1,1.26,1.26,0,0,0,.34.63.77.77,0,0,0,.55.21A.75.75,0,0,0,55,97.1a.61.61,0,0,0,.16-.47v-.18a1.85,1.85,0,0,0,0-.38.49.49,0,0,0-.1-.19.54.54,0,0,0-.24-.1v-.15H56v.15a.48.48,0,0,0-.16.08.44.44,0,0,0-.08.11.71.71,0,0,0,0,.17c0,.07,0,.16,0,.28Zm2.15.06a1.19,1.19,0,0,1-.95-.37,1.54,1.54,0,0,1-.33-1.07,1.73,1.73,0,0,1,.18-.83,1.15,1.15,0,0,1,.46-.51,1.39,1.39,0,0,1,.68-.16,1.22,1.22,0,0,1,1,.37A1.53,1.53,0,0,1,59.21,96a1.86,1.86,0,0,1-.17.83,1.09,1.09,0,0,1-.46.51A1.46,1.46,0,0,1,57.87,97.52ZM57.16,96a1.84,1.84,0,0,0,.19.94.65.65,0,0,0,.9.24.83.83,0,0,0,.23-.26,1.13,1.13,0,0,0,.12-.38,2.28,2.28,0,0,0,0-.45,2.46,2.46,0,0,0-.09-.73,1,1,0,0,0-.27-.42.59.59,0,0,0-.38-.14.62.62,0,0,0-.55.31A1.71,1.71,0,0,0,57.16,96Zm4.58,1,0,0a1.92,1.92,0,0,1-.49.38,1.13,1.13,0,0,1-.48.11.84.84,0,0,1-.4-.09.6.6,0,0,1-.27-.25.71.71,0,0,1-.09-.36.72.72,0,0,1,.43-.67,3.09,3.09,0,0,1,1.29-.28v-.19a1.59,1.59,0,0,0-.06-.49.44.44,0,0,0-.19-.26.55.55,0,0,0-.34-.09.51.51,0,0,0-.37.13.64.64,0,0,0-.21.36h-.39V95a3.58,3.58,0,0,1,.47-.22,2,2,0,0,1,.38-.11,1.72,1.72,0,0,1,.39,0,1,1,0,0,1,.47.09.59.59,0,0,1,.27.29,1.43,1.43,0,0,1,.09.58v1.35c0,.06,0,.11,0,.16a.32.32,0,0,0,.05.13l.08.08.19.06v.15h-.81Zm-.05-.94a2.23,2.23,0,0,0-.9.16.51.51,0,0,0-.3.47.54.54,0,0,0,.06.27.38.38,0,0,0,.18.13.61.61,0,0,0,.24,0,.66.66,0,0,0,.37-.1.63.63,0,0,0,.26-.25.58.58,0,0,0,.09-.3Zm2.14.62a1.33,1.33,0,0,0,0,.35.2.2,0,0,0,.09.15.45.45,0,0,0,.22.09v.15H63v-.15a.48.48,0,0,0,.2-.08.22.22,0,0,0,.09-.1.49.49,0,0,0,0-.15,2,2,0,0,0,0-.26V93.84a.5.5,0,0,0,0-.19.32.32,0,0,0,0-.13.22.22,0,0,0-.09-.07,1.07,1.07,0,0,0-.21,0v-.16l.72,0h.17Zm3.14.65V98a2.27,2.27,0,0,0,0,.29.53.53,0,0,0,0,.15.45.45,0,0,0,.1.09l.2.06v.15H66.12V98.6l.17-.06a.24.24,0,0,0,.11-.09.38.38,0,0,0,0-.16,2,2,0,0,0,0-.28V95.46c0-.15,0-.25,0-.31a.61.61,0,0,0,0-.15.33.33,0,0,0-.06-.1l-.09-.06-.19-.06v-.15l.7,0H67l0,.49h0a3.38,3.38,0,0,1,.29-.28,1.64,1.64,0,0,1,.22-.14l.22-.08.23,0a.86.86,0,0,1,.75.37A1.78,1.78,0,0,1,69,96a2.25,2.25,0,0,1-.14.83,1.08,1.08,0,0,1-.44.5,1.31,1.31,0,0,1-.67.17,1.64,1.64,0,0,1-.4,0A1.59,1.59,0,0,1,67,97.38Zm0-1a2.44,2.44,0,0,0,0,.44.59.59,0,0,0,.13.25.57.57,0,0,0,.22.15,1,1,0,0,0,.32,0,.59.59,0,0,0,.54-.3,1.73,1.73,0,0,0,.18-.88c0-.78-.22-1.16-.68-1.16a.61.61,0,0,0-.28,0,.71.71,0,0,0-.24.17.65.65,0,0,0-.17.22.59.59,0,0,0,0,.23Zm3.94,1.12a1.2,1.2,0,0,1-1-.37,1.59,1.59,0,0,1-.32-1.07,1.73,1.73,0,0,1,.17-.83,1.11,1.11,0,0,1,.47-.51,1.37,1.37,0,0,1,.68-.16,1.21,1.21,0,0,1,1,.37A1.53,1.53,0,0,1,72.25,96a1.86,1.86,0,0,1-.17.83,1,1,0,0,1-.46.51A1.46,1.46,0,0,1,70.91,97.52ZM70.2,96a1.84,1.84,0,0,0,.19.94.62.62,0,0,0,.56.33.59.59,0,0,0,.34-.09.72.72,0,0,0,.23-.26,1.42,1.42,0,0,0,.13-.38,3.42,3.42,0,0,0,0-.45,2.42,2.42,0,0,0-.1-.73,1,1,0,0,0-.26-.42.63.63,0,0,0-.94.17A1.71,1.71,0,0,0,70.2,96ZM73,97.32a.53.53,0,0,0,.16-.06.31.31,0,0,0,.09-.07.37.37,0,0,0,0-.15,2,2,0,0,0,0-.3v-1.3a2.73,2.73,0,0,0,0-.31.32.32,0,0,0,0-.18.23.23,0,0,0-.11-.11l-.2-.06v-.15l.69,0h.18v2.13a1.33,1.33,0,0,0,0,.35.2.2,0,0,0,.09.15.41.41,0,0,0,.22.09v.15H73Zm.85-3.86V94h-.55v-.58Zm3.56,4H76.19v-.15a.53.53,0,0,0,.16-.06.22.22,0,0,0,.09-.07.37.37,0,0,0,0-.15,1.24,1.24,0,0,0,0-.3V96c0-.14,0-.27,0-.38a1.88,1.88,0,0,0,0-.28.54.54,0,0,0-.07-.17L76.3,95,76.17,95a.53.53,0,0,0-.19,0,.54.54,0,0,0-.22,0,1.21,1.21,0,0,0-.23.16,1.09,1.09,0,0,0-.18.22.55.55,0,0,0-.06.26v1.11a1.33,1.33,0,0,0,0,.35.2.2,0,0,0,.09.15.45.45,0,0,0,.22.09v.15H74.46v-.15l.17-.06a.27.27,0,0,0,.08-.07.37.37,0,0,0,.05-.15,1.19,1.19,0,0,0,0-.3V95.13a.43.43,0,0,0,0-.18.27.27,0,0,0-.1-.11l-.21-.06v-.15l.7,0h.18l0,.49h0a2.25,2.25,0,0,1,.35-.32,1.51,1.51,0,0,1,.28-.15.93.93,0,0,1,.29,0,.88.88,0,0,1,.29,0,.57.57,0,0,1,.22.11.74.74,0,0,1,.16.19,1,1,0,0,1,.09.28,2.29,2.29,0,0,1,0,.41v1.12A1.85,1.85,0,0,0,77,97a.3.3,0,0,0,0,.15.3.3,0,0,0,.08.08.88.88,0,0,0,.2.07Zm.37-2.69a.67.67,0,0,0,.24-.09.43.43,0,0,0,.15-.15,1,1,0,0,0,.08-.24c0-.09,0-.23.06-.41h.43v.74h1v.3h-1v1.32a3,3,0,0,0,0,.46.85.85,0,0,0,.09.27.4.4,0,0,0,.15.14.6.6,0,0,0,.21,0,.59.59,0,0,0,.23,0,.81.81,0,0,0,.2-.14l.14.16a1.92,1.92,0,0,1-.41.3.86.86,0,0,1-.39.09.72.72,0,0,1-.57-.23,1.14,1.14,0,0,1-.19-.71V94.93h-.44Z"/><path class="cls-2" d="M55.31,108.52l-1,3.32h-.48L53,108.61c0-.13-.07-.24-.09-.33a1.29,1.29,0,0,0-.09-.2.36.36,0,0,0-.1-.11.34.34,0,0,0-.15-.06v-.15h1.27v.15a.49.49,0,0,0-.25.1.28.28,0,0,0-.08.2,1.29,1.29,0,0,0,0,.25c0,.09,0,.2.07.32l.6,2.35,1-3.37h.5l.78,3.38.7-2.27a2.26,2.26,0,0,0,.13-.59.37.37,0,0,0-.08-.26.39.39,0,0,0-.25-.11v-.15h1.17v.15L58,108l-.1.1a1.63,1.63,0,0,0-.11.2c0,.09-.08.21-.13.36l-1.09,3.21h-.42Z"/><path class="cls-2" d="M59.69,111.39h0a1.89,1.89,0,0,1-.48.38,1.17,1.17,0,0,1-.49.11.87.87,0,0,1-.4-.09.63.63,0,0,1-.26-.25.71.71,0,0,1-.09-.36.72.72,0,0,1,.43-.67,3,3,0,0,1,1.29-.28V110a1.59,1.59,0,0,0-.06-.49.44.44,0,0,0-.19-.26.57.57,0,0,0-.34-.09.53.53,0,0,0-.38.13.78.78,0,0,0-.21.36h-.39v-.39a4.16,4.16,0,0,1,.48-.21,1.82,1.82,0,0,1,.38-.11,1.72,1.72,0,0,1,.39,0,1.06,1.06,0,0,1,.47.09.59.59,0,0,1,.27.29,1.43,1.43,0,0,1,.09.58v1.35a.78.78,0,0,0,0,.16.33.33,0,0,0,0,.13.36.36,0,0,0,.09.08l.19.06v.15h-.82Zm0-.93a2.28,2.28,0,0,0-.91.16.51.51,0,0,0-.3.47.54.54,0,0,0,.07.27.36.36,0,0,0,.17.13.66.66,0,0,0,.25,0,.66.66,0,0,0,.37-.1.78.78,0,0,0,.26-.25.58.58,0,0,0,.09-.3Z"/><path class="cls-2" d="M62,112.06a4,4,0,0,1-.32.6,1.27,1.27,0,0,1-.34.35.87.87,0,0,1-.44.11,1.67,1.67,0,0,1-.37,0v-.58h.26a.45.45,0,0,0,.09.16.21.21,0,0,0,.16,0,.41.41,0,0,0,.16,0,.47.47,0,0,0,.14-.12,1.65,1.65,0,0,0,.18-.25c.07-.12.15-.27.23-.44L61,109.63c-.06-.15-.1-.25-.13-.31a.47.47,0,0,0-.11-.13.39.39,0,0,0-.17-.07V109h1.21v.14a.63.63,0,0,0-.19.07.18.18,0,0,0-.09.08.22.22,0,0,0,0,.12,1,1,0,0,0,0,.17l.07.2.53,1.49.59-1.43.08-.21a.68.68,0,0,0,0-.19.26.26,0,0,0-.07-.19.54.54,0,0,0-.24-.11V109h1.11v.14a.38.38,0,0,0-.18.08.49.49,0,0,0-.12.15,1.38,1.38,0,0,0-.15.3Zm2.57-.33v.63c0,.13,0,.22,0,.29a.53.53,0,0,0,0,.15.45.45,0,0,0,.1.09L65,113v.15H63.76V113l.18-.06a.22.22,0,0,0,.1-.09.6.6,0,0,0,0-.16c0-.07,0-.17,0-.28v-2.55a2.37,2.37,0,0,0,0-.31.61.61,0,0,0,0-.15.31.31,0,0,0,0-.1l-.1-.06a.7.7,0,0,0-.19-.06V109l.7,0h.18l0,.48.05,0a3.38,3.38,0,0,1,.29-.28l.22-.14.22-.08.23,0a.85.85,0,0,1,.75.37,1.78,1.78,0,0,1,.27,1.07,2.05,2.05,0,0,1-.15.83,1.08,1.08,0,0,1-.44.5,1.31,1.31,0,0,1-.67.17,1.64,1.64,0,0,1-.4,0A1.59,1.59,0,0,1,64.61,111.73Zm0-1a1.68,1.68,0,0,0,0,.44.49.49,0,0,0,.12.25.57.57,0,0,0,.22.15,1,1,0,0,0,.32,0,.62.62,0,0,0,.55-.3,1.73,1.73,0,0,0,.18-.88c0-.78-.23-1.16-.68-1.16a.63.63,0,0,0-.29,0,.71.71,0,0,0-.24.17.65.65,0,0,0-.17.22.59.59,0,0,0,0,.23Zm3.94,1.12a1.2,1.2,0,0,1-1-.37,1.59,1.59,0,0,1-.32-1.07,1.86,1.86,0,0,1,.17-.83,1.11,1.11,0,0,1,.47-.51,1.37,1.37,0,0,1,.68-.16,1.21,1.21,0,0,1,1,.37,1.53,1.53,0,0,1,.33,1.06,1.86,1.86,0,0,1-.16.83,1.11,1.11,0,0,1-.47.51A1.46,1.46,0,0,1,68.55,111.87Zm-.71-1.51a1.83,1.83,0,0,0,.2.94.6.6,0,0,0,.55.33.59.59,0,0,0,.34-.09.82.82,0,0,0,.23-.26,1.42,1.42,0,0,0,.13-.38,3.42,3.42,0,0,0,0-.45,2.14,2.14,0,0,0-.1-.73.87.87,0,0,0-.26-.42.59.59,0,0,0-.38-.14.64.64,0,0,0-.56.31A1.81,1.81,0,0,0,67.84,110.36Zm2.87,1.31.16-.06a.27.27,0,0,0,.08-.07.26.26,0,0,0,.06-.15,2,2,0,0,0,0-.3v-1.3a2.73,2.73,0,0,0,0-.31.4.4,0,0,0,0-.18.23.23,0,0,0-.11-.11l-.21-.06V109l.7,0h.18v2.13a2.39,2.39,0,0,0,0,.35.27.27,0,0,0,.09.15.5.5,0,0,0,.22.09v.15H70.71Zm.85-3.86v.58H71v-.58Zm3.56,4H74v-.15l.16-.06a.31.31,0,0,0,.09-.07.37.37,0,0,0,0-.15,2.11,2.11,0,0,0,0-.3v-.78c0-.14,0-.27,0-.38a1.88,1.88,0,0,0,0-.28.54.54,0,0,0-.07-.17.47.47,0,0,0-.1-.1.35.35,0,0,0-.12-.07.53.53,0,0,0-.19,0,.54.54,0,0,0-.22,0,1,1,0,0,0-.23.16,1.09,1.09,0,0,0-.18.22.55.55,0,0,0-.06.26v1.11a1.33,1.33,0,0,0,0,.35.2.2,0,0,0,.09.15.41.41,0,0,0,.22.09v.15H72.22v-.15a.53.53,0,0,0,.16-.06.31.31,0,0,0,.09-.07.37.37,0,0,0,0-.15,2,2,0,0,0,0-.3v-1.3a2.73,2.73,0,0,0,0-.31.3.3,0,0,0,0-.18.23.23,0,0,0-.11-.11l-.2-.06V109l.69,0h.19l0,.48,0,0a2.75,2.75,0,0,1,.36-.32,1.22,1.22,0,0,1,.27-.15,1,1,0,0,1,.3,0,.82.82,0,0,1,.28,0,.61.61,0,0,1,.23.11.74.74,0,0,1,.16.19,1,1,0,0,1,.09.28,2.22,2.22,0,0,1,0,.41v1.12c0,.13,0,.23,0,.29a.44.44,0,0,0,0,.15.2.2,0,0,0,.08.08.88.88,0,0,0,.2.07Zm.37-2.69a.67.67,0,0,0,.24-.09.54.54,0,0,0,.15-.15,1,1,0,0,0,.08-.24c0-.09,0-.23.06-.41h.42V109h1v.3h-1v1.32a2.77,2.77,0,0,0,0,.46.54.54,0,0,0,.09.27.4.4,0,0,0,.15.14.56.56,0,0,0,.21,0,.54.54,0,0,0,.22-.05.85.85,0,0,0,.21-.14l.13.16a2,2,0,0,1-.4.3.86.86,0,0,1-.39.09.69.69,0,0,1-.57-.23,1.08,1.08,0,0,1-.19-.71v-1.65h-.44Zm4.12.5h-.29a.82.82,0,0,0-.15-.28.55.55,0,0,0-.2-.15.79.79,0,0,0-.28,0,.61.61,0,0,0-.38.11.4.4,0,0,0-.14.31.38.38,0,0,0,.06.22.46.46,0,0,0,.17.17l.42.21a2.25,2.25,0,0,1,.47.24.78.78,0,0,1,.26.25.68.68,0,0,1,.09.35.82.82,0,0,1-.08.4.78.78,0,0,1-.22.26,1.22,1.22,0,0,1-.35.14,2,2,0,0,1-.44.05,2.63,2.63,0,0,1-.49,0,3.27,3.27,0,0,1-.45-.1v-.62h.29a.72.72,0,0,0,.24.4.69.69,0,0,0,.43.12.75.75,0,0,0,.21,0,.48.48,0,0,0,.18-.07.37.37,0,0,0,.13-.15.45.45,0,0,0,0-.22.49.49,0,0,0-.06-.25.59.59,0,0,0-.18-.17l-.45-.21a3.35,3.35,0,0,1-.43-.22.89.89,0,0,1-.26-.25.74.74,0,0,1,0-.77.84.84,0,0,1,.38-.28,1.78,1.78,0,0,1,.59-.09,2.36,2.36,0,0,1,.38,0,3.46,3.46,0,0,1,.46.07Z"/><line class="cls-14" x1="43.35" y1="81.73" x2="41.62" y2="81.73"/><line class="cls-14" x1="39.46" y1="81.73" x2="37.74" y2="81.73"/><line class="cls-14" x1="35.58" y1="81.73" x2="33.86" y2="81.73"/><line class="cls-14" x1="31.7" y1="81.73" x2="29.98" y2="81.73"/><line class="cls-14" x1="27.83" y1="81.73" x2="26.09" y2="81.73"/><line class="cls-14" x1="23.94" y1="81.73" x2="22.21" y2="81.73"/><line class="cls-14" x1="20.06" y1="81.73" x2="18.34" y2="81.73"/><line class="cls-14" x1="16.18" y1="81.73" x2="14.45" y2="81.73"/><polyline class="cls-14" points="151.92 230.01 151.92 230.01 152.02 229.16"/><polyline class="cls-14" points="151.81 227 151.48 225.71 151.38 225.27"/><polyline class="cls-14" points="150.51 223.33 150.09 222.47 149.66 221.82"/><polyline class="cls-14" points="148.14 220.2 147.71 219.77 146.96 219.12"/><polyline class="cls-14" points="145.22 217.83 144.91 217.61 143.73 216.86"/><line class="cls-14" x1="141.89" y1="215.78" x2="140.38" y2="214.92"/><polyline class="cls-14" points="138.55 213.84 138.11 213.62 137.04 212.87"/><line class="cls-14" x1="135.21" y1="211.79" x2="133.8" y2="210.83"/><polyline class="cls-14" points="132.08 209.42 131.65 208.99 130.9 208.23"/><polyline class="cls-14" points="129.49 206.62 129.06 206.08 128.41 205.21"/><polyline class="cls-14" points="127.44 203.27 127.01 202.4 126.8 201.65"/><polyline class="cls-14" points="126.26 199.61 126.26 199.39 126.04 197.88"/><polyline class="cls-14" points="125.93 195.72 125.93 194.21 125.93 193.99"/><polyline class="cls-14" points="126.36 191.95 126.69 190.87 126.9 190.33"/><polyline class="cls-14" points="127.87 188.39 128.09 187.96 128.85 186.98"/><polyline class="cls-14" points="130.24 185.37 131.43 184.29 131.54 184.18"/><polyline class="cls-14" points="133.26 182.89 134.13 182.35 134.78 181.92"/><polyline class="cls-14" points="136.6 180.95 137.26 180.63 138.22 180.08"/><polyline class="cls-14" points="140.17 179.22 140.6 179 141.68 178.47"/><polyline class="cls-14" points="143.73 177.71 143.94 177.6 145.34 177.06"/><polyline class="cls-14" points="147.28 176.2 147.4 176.2 148.89 175.56"/><line class="cls-14" x1="150.84" y1="174.69" x2="152.45" y2="173.93"/><polyline class="cls-14" points="154.4 172.97 155.15 172.53 155.9 172.1"/><polyline class="cls-14" points="157.63 170.92 157.63 170.92 158.71 170.06 158.92 169.84"/><polyline class="cls-14" points="160.33 168.22 160.43 168.01 161.08 166.93 161.19 166.71"/><polyline class="cls-14" points="161.72 164.55 161.72 164.34 161.84 162.93 161.84 162.83"/><polyline class="cls-14" points="161.51 160.78 161.41 160.35 160.97 159.17 160.97 159.05"/><polyline class="cls-14" points="159.89 157.22 159.79 157.22 159.15 156.36 158.71 155.93"/><polyline class="cls-14" points="156.99 154.63 156.33 154.2 155.59 153.77"/><polyline class="cls-14" points="153.53 152.9 153.1 152.69 151.92 152.26"/><line class="cls-14" x1="149.87" y1="151.61" x2="148.25" y2="151.07"/><polyline class="cls-14" points="146.2 150.43 145.88 150.31 144.58 149.88"/><polyline class="cls-14" points="142.53 149.13 141.24 148.6 140.91 148.48"/><polyline class="cls-14" points="139.09 147.4 138.44 146.97 137.68 146.32"/><polyline class="cls-14" points="136.39 144.71 136.29 144.61 135.85 143.74 135.64 143.2"/><polyline class="cls-14" points="135.21 141.04 135.1 140.29 135.1 139.31"/><polyline class="cls-14" points="135.31 137.16 135.42 136.73 135.64 135.75 135.75 135.55"/><polyline class="cls-14" points="136.72 133.6 136.93 133.28 137.47 132.63 137.8 132.31"/><polyline class="cls-14" points="139.52 131.01 139.62 130.91 140.38 130.48 141.13 130.26"/><polyline class="cls-14" points="143.07 129.5 144.15 129.18 144.8 129.07"/><polyline class="cls-14" points="146.85 128.64 148.47 128.32 148.57 128.32"/><line class="cls-14" x1="150.73" y1="128.1" x2="152.45" y2="127.77"/><polyline class="cls-14" points="154.61 127.56 155.8 127.34 156.33 127.34"/><line class="cls-14" x1="158.38" y1="126.91" x2="160.11" y2="126.59"/><polyline class="cls-14" points="162.16 126.16 163.34 125.83 163.88 125.73"/><polyline class="cls-14" points="165.93 125.19 167.34 124.86 167.66 124.75"/><polyline class="cls-14" points="169.7 124 170.68 123.47 171.11 123.14"/><polyline class="cls-14" points="172.72 121.62 173.59 120.56 173.7 120.23"/><polyline class="cls-14" points="174.67 118.28 174.99 117.42 175.09 116.67"/><polyline class="cls-14" points="175.42 114.51 175.63 113 175.63 112.78"/><polyline class="cls-14" points="175.63 110.62 175.63 110.3 175.52 108.91"/><polyline class="cls-14" points="175.31 106.1 175.31 106.1 175.21 105.23"/><polyline class="cls-14" points="213.7 225.71 213.91 224.52 214.02 223.98"/><line class="cls-14" x1="214.67" y1="221.93" x2="215.31" y2="220.32"/><line class="cls-14" x1="216.07" y1="218.26" x2="216.71" y2="216.65"/><polyline class="cls-14" points="217.47 214.7 218.01 213.3 218.12 213.09"/><line class="cls-14" x1="218.98" y1="211.14" x2="219.63" y2="209.53"/><polyline class="cls-14" points="220.48 207.47 220.81 206.72 221.14 205.97"/><line class="cls-14" x1="221.99" y1="203.92" x2="222.75" y2="202.4"/><line class="cls-14" x1="223.61" y1="200.36" x2="224.26" y2="198.85"/><line class="cls-14" x1="225.12" y1="196.8" x2="225.77" y2="195.29"/><line class="cls-14" x1="226.63" y1="193.24" x2="227.38" y2="191.73"/><line class="cls-14" x1="228.25" y1="189.69" x2="228.89" y2="188.17"/><line class="cls-14" x1="229.76" y1="186.13" x2="230.51" y2="184.62"/><line class="cls-14" x1="231.38" y1="182.57" x2="232.02" y2="181.06"/><line class="cls-14" x1="232.89" y1="179" x2="233.53" y2="177.49"/><line class="cls-14" x1="234.4" y1="175.44" x2="235.15" y2="173.93"/><line class="cls-14" x1="236.02" y1="171.89" x2="236.66" y2="170.37"/><line class="cls-14" x1="237.52" y1="168.33" x2="238.17" y2="166.82"/><polyline class="cls-14" points="239.03 164.77 239.46 163.91 239.79 163.26"/><line class="cls-14" x1="240.54" y1="161.21" x2="241.29" y2="159.6"/><line class="cls-14" x1="242.05" y1="157.65" x2="242.8" y2="156.03"/><line class="cls-14" x1="243.56" y1="154.09" x2="244.21" y2="152.47"/><line class="cls-14" x1="245.07" y1="150.43" x2="245.72" y2="148.91"/><polyline class="cls-14" points="246.47 146.87 246.9 146 247.11 145.24"/><line class="cls-14" x1="247.98" y1="143.31" x2="248.52" y2="141.69"/><line class="cls-14" x1="249.39" y1="139.64" x2="250.03" y2="138.03"/><line class="cls-14" x1="250.67" y1="135.97" x2="251.32" y2="134.35"/><line class="cls-14" x1="252.08" y1="132.41" x2="252.62" y2="130.8"/><line class="cls-14" x1="253.37" y1="128.75" x2="253.91" y2="127.02"/><line class="cls-14" x1="254.55" y1="124.97" x2="255.09" y2="123.35"/><polyline class="cls-14" points="255.63 121.31 256.06 119.79 256.17 119.69"/><polyline class="cls-14" points="256.6 117.53 256.83 117 257.04 115.8"/><polyline class="cls-14" points="257.37 113.76 257.47 112.35 257.58 112.03"/><line class="cls-14" x1="257.79" y1="109.87" x2="257.9" y2="108.14"/><polyline class="cls-14" points="258.22 106 258.44 104.8 258.55 104.27"/><polyline class="cls-14" points="259.09 102.22 259.41 101.24 259.73 100.6"/><path d="M111.22,157.55H114v.9h-.25a2.79,2.79,0,0,0-.12-.35.62.62,0,0,0-.11-.2.55.55,0,0,0-.14-.09.58.58,0,0,0-.21,0h-.33v2.66a1.7,1.7,0,0,0,0,.25.38.38,0,0,0,0,.14.28.28,0,0,0,.1.09.56.56,0,0,0,.19.05v.13H112V161l.13,0,.1-.06a.13.13,0,0,0,.06-.07.4.4,0,0,0,0-.13,1.25,1.25,0,0,0,0-.24v-2.66h-.33l-.2,0a.44.44,0,0,0-.15.1.68.68,0,0,0-.12.21,1.94,1.94,0,0,0-.11.34h-.26Z"/><path d="M115.25,161.14a1,1,0,0,1-.83-.32,1.36,1.36,0,0,1-.29-.94,1.61,1.61,0,0,1,.15-.73,1.09,1.09,0,0,1,.41-.44,1.3,1.3,0,0,1,.6-.14,1.08,1.08,0,0,1,.84.32,1.38,1.38,0,0,1,.29.93,1.61,1.61,0,0,1-.15.73,1,1,0,0,1-.4.45A1.38,1.38,0,0,1,115.25,161.14Zm-.63-1.31a1.56,1.56,0,0,0,.18.82.53.53,0,0,0,.48.29.49.49,0,0,0,.3-.09.61.61,0,0,0,.2-.22,1.13,1.13,0,0,0,.11-.34,2.34,2.34,0,0,0,0-.39,1.93,1.93,0,0,0-.09-.64.84.84,0,0,0-.23-.37.52.52,0,0,0-.33-.12.57.57,0,0,0-.49.28A1.5,1.5,0,0,0,114.62,159.83Zm3.32,1.31a1,1,0,0,1-.83-.32,1.35,1.35,0,0,1-.28-.94,1.61,1.61,0,0,1,.15-.73,1,1,0,0,1,.41-.44,1.25,1.25,0,0,1,.59-.14,1.1,1.1,0,0,1,.85.32,1.38,1.38,0,0,1,.28.93,1.61,1.61,0,0,1-.14.73,1,1,0,0,1-.41.45A1.32,1.32,0,0,1,117.94,161.14Zm-.62-1.31a1.67,1.67,0,0,0,.17.82.54.54,0,0,0,.49.29.51.51,0,0,0,.3-.09.71.71,0,0,0,.2-.22,1.51,1.51,0,0,0,.11-.34,2.38,2.38,0,0,0,0-.39,2.27,2.27,0,0,0-.08-.64.94.94,0,0,0-.23-.37.52.52,0,0,0-.34-.12.54.54,0,0,0-.48.28A1.5,1.5,0,0,0,117.32,159.83Zm5-.65h-.26a.68.68,0,0,0-.13-.24.46.46,0,0,0-.18-.13.75.75,0,0,0-.24,0,.54.54,0,0,0-.33.1.35.35,0,0,0-.13.27.42.42,0,0,0,0,.2.56.56,0,0,0,.16.14,2,2,0,0,0,.36.18,3,3,0,0,1,.41.21.72.72,0,0,1,.23.23.48.48,0,0,1,.08.3.75.75,0,0,1-.07.35.6.6,0,0,1-.19.23.77.77,0,0,1-.31.12,1.53,1.53,0,0,1-.38,0,3,3,0,0,1-.43,0l-.4-.08v-.55h.26a.58.58,0,0,0,.21.35.59.59,0,0,0,.38.11l.18,0a.46.46,0,0,0,.16-.07.32.32,0,0,0,.11-.12.4.4,0,0,0,0-.2.35.35,0,0,0-.05-.21.39.39,0,0,0-.16-.15,2.35,2.35,0,0,0-.39-.19c-.15-.07-.28-.13-.38-.19a.92.92,0,0,1-.22-.22.53.53,0,0,1-.08-.31.6.6,0,0,1,.11-.37.8.8,0,0,1,.34-.24,1.52,1.52,0,0,1,.51-.08,1.77,1.77,0,0,1,.33,0l.41.06Zm1.23-.17h0c.11-.1.19-.18.26-.23a1.62,1.62,0,0,1,.19-.13l.18-.07.17,0a.7.7,0,0,1,.42.12.61.61,0,0,1,.23.37,2.45,2.45,0,0,1,.32-.29,1.05,1.05,0,0,1,.24-.15.87.87,0,0,1,.28-.05.94.94,0,0,1,.3.05.65.65,0,0,1,.21.16.71.71,0,0,1,.13.26,2.33,2.33,0,0,1,0,.43v1a1.79,1.79,0,0,0,0,.27.34.34,0,0,0,0,.12l.07.07.17.06v.13h-1V161l.14-.05a.27.27,0,0,0,.08-.07.28.28,0,0,0,0-.12,1.65,1.65,0,0,0,0-.27v-.68c0-.15,0-.27,0-.37a1.2,1.2,0,0,0,0-.23.26.26,0,0,0-.06-.13l-.08-.09-.1-.06-.16,0a.46.46,0,0,0-.2.05.65.65,0,0,0-.19.14.55.55,0,0,0-.15.2.52.52,0,0,0,0,.23v.95a1.79,1.79,0,0,0,0,.27.34.34,0,0,0,0,.12.19.19,0,0,0,.08.07l.16.06v.13h-1V161l.14-.05a.27.27,0,0,0,.08-.07.48.48,0,0,0,0-.12,1.94,1.94,0,0,0,0-.27v-.68c0-.15,0-.28,0-.38a1.07,1.07,0,0,0,0-.23.52.52,0,0,0-.07-.15l-.09-.08-.1,0-.14,0a.46.46,0,0,0-.2.05.77.77,0,0,0-.19.14.62.62,0,0,0-.15.19.54.54,0,0,0-.05.21v1a1.42,1.42,0,0,0,0,.23s0,.09,0,.12l.05.07a.18.18,0,0,0,.07,0,.37.37,0,0,0,.15.05v.13h-1V161l.14-.05a.23.23,0,0,0,.07-.07.27.27,0,0,0,0-.12,1.94,1.94,0,0,0,0-.27v-1.4a.39.39,0,0,0,0-.17.2.2,0,0,0-.09-.09l-.18-.05v-.14l.61,0h.15Zm5.43,1.72h0a1.88,1.88,0,0,1-.42.33,1.07,1.07,0,0,1-.43.09.78.78,0,0,1-.35-.07.61.61,0,0,1-.23-.22.66.66,0,0,1,.3-.91,2.57,2.57,0,0,1,1.13-.24v-.17a1.17,1.17,0,0,0-.06-.42.34.34,0,0,0-.16-.23.51.51,0,0,0-.3-.08.52.52,0,0,0-.33.11.66.66,0,0,0-.18.32h-.34v-.34a2.77,2.77,0,0,1,.41-.19l.34-.1a1.87,1.87,0,0,1,.34,0,.93.93,0,0,1,.41.08.56.56,0,0,1,.23.25,1.18,1.18,0,0,1,.08.51v.91a1.79,1.79,0,0,0,0,.27.76.76,0,0,0,0,.15.36.36,0,0,0,0,.11.17.17,0,0,0,.08.06l.16.06v.13H129Zm0-.82a2,2,0,0,0-.8.15.43.43,0,0,0-.26.4.43.43,0,0,0,.06.24.29.29,0,0,0,.15.12.73.73,0,0,0,.22,0,.59.59,0,0,0,.32-.09.61.61,0,0,0,.23-.22.5.5,0,0,0,.08-.26Zm1.84.54a1.2,1.2,0,0,0,0,.31.25.25,0,0,0,.08.14.44.44,0,0,0,.19.07v.13h-1V161a.39.39,0,0,0,.18-.07.2.2,0,0,0,.08-.08s0-.08,0-.14,0-.14,0-.23v-2.18a3.13,3.13,0,0,0,0-.35.7.7,0,0,0,0-.16.23.23,0,0,0,0-.11.22.22,0,0,0-.09-.07l-.18,0v-.14l.63,0h.16Zm1.59,0a2,2,0,0,0,0,.31.32.32,0,0,0,.08.14.5.5,0,0,0,.19.07v.13h-1V161a.39.39,0,0,0,.18-.07.18.18,0,0,0,.07-.08.29.29,0,0,0,0-.14,1.55,1.55,0,0,0,0-.23v-2.53a.7.7,0,0,0,0-.16.23.23,0,0,0-.05-.11.27.27,0,0,0-.08-.07l-.18,0v-.14l.62,0h.16Z"/><path d="M109.74,171.24a1.2,1.2,0,0,0,0,.31.2.2,0,0,0,.08.13.43.43,0,0,0,.19.08v.13h-1v-.13a.39.39,0,0,0,.18-.07.18.18,0,0,0,.08-.09.86.86,0,0,0,0-.13c0-.06,0-.14,0-.23v-2.18a3,3,0,0,0,0-.35.88.88,0,0,0,0-.17.23.23,0,0,0,0-.1.22.22,0,0,0-.09-.07.82.82,0,0,0-.18,0v-.14l.63,0h.16Zm1.94.69a1,1,0,0,1-.83-.32,1.35,1.35,0,0,1-.28-.94,1.61,1.61,0,0,1,.15-.73,1,1,0,0,1,.41-.44,1.25,1.25,0,0,1,.59-.14,1.08,1.08,0,0,1,.84.32,1.33,1.33,0,0,1,.29.93,1.76,1.76,0,0,1-.14.73.93.93,0,0,1-.41.44A1.21,1.21,0,0,1,111.68,171.93Zm-.62-1.32a1.58,1.58,0,0,0,.17.83.54.54,0,0,0,.49.29.48.48,0,0,0,.29-.09.5.5,0,0,0,.2-.23,1,1,0,0,0,.11-.33,1.67,1.67,0,0,0,0-.39,1.93,1.93,0,0,0-.09-.64.72.72,0,0,0-.23-.37.5.5,0,0,0-.33-.12.52.52,0,0,0-.48.28A1.4,1.4,0,0,0,111.06,170.61Zm3.31,1.32a1,1,0,0,1-.82-.32,1.36,1.36,0,0,1-.29-.94,1.61,1.61,0,0,1,.15-.73,1,1,0,0,1,.41-.44,1.25,1.25,0,0,1,.59-.14,1.09,1.09,0,0,1,.85.32,1.38,1.38,0,0,1,.29.93,1.61,1.61,0,0,1-.15.73.91.91,0,0,1-.4.44A1.28,1.28,0,0,1,114.37,171.93Zm-.62-1.32a1.69,1.69,0,0,0,.17.83.56.56,0,0,0,.49.29.49.49,0,0,0,.3-.09.57.57,0,0,0,.2-.23,1,1,0,0,0,.11-.33,2.47,2.47,0,0,0,0-.39,2,2,0,0,0-.08-.64.78.78,0,0,0-.23-.37.55.55,0,0,0-.82.16A1.49,1.49,0,0,0,113.75,170.61Z"/><path d="M116.86,170.44h.08l.15,0a.41.41,0,0,0,.14-.08,2.13,2.13,0,0,0,.22-.19,1,1,0,0,0,.18-.19.8.8,0,0,0,.09-.14.43.43,0,0,0,0-.11.17.17,0,0,0,0-.12.3.3,0,0,0-.16-.06v-.13h1.12v.13a.6.6,0,0,0-.25.11,1.57,1.57,0,0,0-.28.21l-.6.57.75,1a1.16,1.16,0,0,0,.24.25.41.41,0,0,0,.23.11v.13h-1v-.13a.15.15,0,0,0,.1,0,.08.08,0,0,0,0-.07s0,0,0-.08l-.06-.1-.16-.23-.32-.41c0-.08-.1-.13-.12-.16l-.08-.05-.11,0h-.15v.63a2,2,0,0,0,0,.31.24.24,0,0,0,.08.13.49.49,0,0,0,.19.08v.13h-1v-.13a.39.39,0,0,0,.18-.07.16.16,0,0,0,.07-.09.23.23,0,0,0,0-.13,1.55,1.55,0,0,0,0-.23v-2.53a.88.88,0,0,0,0-.17.23.23,0,0,0,0-.1.27.27,0,0,0-.08-.07.82.82,0,0,0-.18,0v-.14l.62,0h.16Z"/><path d="M120,170.72h-1.21v-.4H120Zm2,.8h0a2.15,2.15,0,0,1-.43.33,1,1,0,0,1-.42.09.65.65,0,0,1-.35-.08.61.61,0,0,1-.24-.21.66.66,0,0,1-.08-.32.65.65,0,0,1,.38-.59,2.61,2.61,0,0,1,1.13-.24v-.17a1.63,1.63,0,0,0-.05-.43.45.45,0,0,0-.17-.23.6.6,0,0,0-.3-.07.48.48,0,0,0-.32.11.6.6,0,0,0-.19.32h-.34v-.34a3.35,3.35,0,0,1,.42-.19l.33-.1a1.87,1.87,0,0,1,.34,0,.81.81,0,0,1,.41.08.49.49,0,0,1,.24.25,1.29,1.29,0,0,1,.08.51v1.18c0,.05,0,.1,0,.15a.51.51,0,0,0,0,.1.27.27,0,0,0,.08.07l.17.06v.13H122Zm0-.82a1.92,1.92,0,0,0-.79.14.44.44,0,0,0-.27.41.43.43,0,0,0,.06.24.31.31,0,0,0,.16.11.46.46,0,0,0,.21,0,.57.57,0,0,0,.32-.09.61.61,0,0,0,.23-.22.52.52,0,0,0,.08-.26Zm1.84-.89h0c.14-.13.24-.23.32-.29a1.34,1.34,0,0,1,.24-.12.69.69,0,0,1,.25,0,1,1,0,0,1,.25,0,.64.64,0,0,1,.2.11.47.47,0,0,1,.14.17,1,1,0,0,1,.08.23,3.53,3.53,0,0,1,0,.36v1a2,2,0,0,0,0,.31.33.33,0,0,0,.07.13.65.65,0,0,0,.21.08v.13h-1v-.13l.15,0,.07-.07a.32.32,0,0,0,0-.13,1.71,1.71,0,0,0,0-.26v-.68a3.51,3.51,0,0,0,0-.53.47.47,0,0,0-.14-.28.42.42,0,0,0-.29-.09.34.34,0,0,0-.18,0,.83.83,0,0,0-.2.13.67.67,0,0,0-.16.19.42.42,0,0,0-.06.21v1a1.56,1.56,0,0,0,0,.25.5.5,0,0,0,0,.13.18.18,0,0,0,.07.08l.17.06v.13h-1v-.13l.16-.06a.19.19,0,0,0,.08-.07.33.33,0,0,0,0-.13,1.71,1.71,0,0,0,0-.26v-2.53a.88.88,0,0,0,0-.17.23.23,0,0,0,0-.1.27.27,0,0,0-.08-.07.82.82,0,0,0-.18,0v-.14l.62,0h.16Zm4.29,1.64a3.29,3.29,0,0,1-.31.27,1.08,1.08,0,0,1-.3.16,1.5,1.5,0,0,1-.37.05,1,1,0,0,1-.81-.32,1.44,1.44,0,0,1-.28-1,1.59,1.59,0,0,1,.14-.68,1.13,1.13,0,0,1,.4-.46,1.08,1.08,0,0,1,.6-.16,1,1,0,0,1,.44.08.71.71,0,0,1,.3.23,1.09,1.09,0,0,1,.17.36,2.78,2.78,0,0,1,.07.58h-1.64v0a1.56,1.56,0,0,0,.07.52.65.65,0,0,0,.22.33.69.69,0,0,0,.41.12.93.93,0,0,0,.39-.08,1.29,1.29,0,0,0,.34-.26Zm-.44-1.06a1.78,1.78,0,0,0-.07-.46.59.59,0,0,0-.16-.27.41.41,0,0,0-.29-.1.5.5,0,0,0-.43.22,1.1,1.1,0,0,0-.19.61Zm2.47,1.13h0a1.9,1.9,0,0,1-.43.33,1,1,0,0,1-.42.09.67.67,0,0,1-.35-.08.52.52,0,0,1-.23-.21.57.57,0,0,1-.08-.32.64.64,0,0,1,.37-.59,2.61,2.61,0,0,1,1.13-.24v-.17a1.63,1.63,0,0,0,0-.43.44.44,0,0,0-.16-.23.66.66,0,0,0-.3-.07.49.49,0,0,0-.33.11.67.67,0,0,0-.19.32h-.34v-.34a3.35,3.35,0,0,1,.42-.19l.33-.1a2,2,0,0,1,.34,0,.88.88,0,0,1,.42.08.51.51,0,0,1,.23.25,1.29,1.29,0,0,1,.08.51v1.18a.77.77,0,0,0,0,.15.15.15,0,0,0,0,.1.16.16,0,0,0,.07.07l.17.06v.13h-.72Zm-.05-.82a2,2,0,0,0-.79.14.47.47,0,0,0-.2.65.33.33,0,0,0,.15.11.46.46,0,0,0,.21,0,.63.63,0,0,0,.33-.09.66.66,0,0,0,.22-.22.44.44,0,0,0,.08-.26Zm2.87-1.64v-.35a.88.88,0,0,0,0-.17.23.23,0,0,0,0-.1.27.27,0,0,0-.08-.07l-.18,0v-.14l.63,0h.15v3a2.19,2.19,0,0,0,0,.29.29.29,0,0,0,0,.14l.08.08a.43.43,0,0,0,.2.06v.14l-.61,0h-.16l0-.43h0a3,3,0,0,1-.28.26,1.3,1.3,0,0,1-.26.14.94.94,0,0,1-.3.05.76.76,0,0,1-.65-.32,1.57,1.57,0,0,1-.24-.94,1.59,1.59,0,0,1,.15-.72,1.13,1.13,0,0,1,.41-.45,1.24,1.24,0,0,1,.58-.14l.31,0a1.61,1.61,0,0,1,.29.09Zm0,1.29a1.52,1.52,0,0,0,0-.33.52.52,0,0,0-.06-.2.58.58,0,0,0-.11-.15l-.16-.08a.68.68,0,0,0-.21,0,.55.55,0,0,0-.51.26,1.39,1.39,0,0,0-.18.77,1.55,1.55,0,0,0,.15.76.46.46,0,0,0,.43.26l.19,0,.15-.06a.79.79,0,0,0,.15-.12.6.6,0,0,0,.11-.14.58.58,0,0,0,0-.14.68.68,0,0,0,0-.21Z"/><path d="M114.47,180a2.94,2.94,0,0,0,0-.35.72.72,0,0,0,0-.17.28.28,0,0,0,0-.11.15.15,0,0,0-.09-.06.69.69,0,0,0-.18-.05v-.13l.63,0h.16v3.31a.4.4,0,0,0,0,.13.14.14,0,0,0,.08.09l.2.06v.14l-.62,0h-.16l0-.43h0a2.2,2.2,0,0,1-.29.27l-.26.14a.93.93,0,0,1-.29.05.77.77,0,0,1-.66-.33,1.59,1.59,0,0,1-.23-.93,1.61,1.61,0,0,1,.15-.73,1,1,0,0,1,.41-.44,1.1,1.1,0,0,1,.57-.15,1.58,1.58,0,0,1,.32,0l.29.09Zm0,1.28a2.58,2.58,0,0,0,0-.32.58.58,0,0,0-.06-.21.53.53,0,0,0-.12-.14.35.35,0,0,0-.16-.08.66.66,0,0,0-.21,0,.58.58,0,0,0-.51.27,1.45,1.45,0,0,0-.17.76,1.66,1.66,0,0,0,.14.76.46.46,0,0,0,.44.26H114l.15-.07.14-.12.12-.13a.66.66,0,0,0,0-.15,1.06,1.06,0,0,0,0-.21Zm1.25,1.42.15-.06a.13.13,0,0,0,.07-.06.32.32,0,0,0,0-.13,1.94,1.94,0,0,0,0-.27v-1.4a.34.34,0,0,0,0-.16.2.2,0,0,0-.09-.09l-.18-.06v-.13l.6,0h.16v1.86a2.1,2.1,0,0,0,0,.32.29.29,0,0,0,.08.13.57.57,0,0,0,.19.08v.13h-1Zm.75-3.38v.5H116v-.5Zm2.5,1.59h-.25a.65.65,0,0,0-.13-.25.46.46,0,0,0-.18-.13.83.83,0,0,0-.24,0,.48.48,0,0,0-.33.1.29.29,0,0,0-.13.26.39.39,0,0,0,.05.2.78.78,0,0,0,.16.15l.36.18a1.7,1.7,0,0,1,.41.21.7.7,0,0,1,.23.22.53.53,0,0,1,.08.31.71.71,0,0,1-.07.34.5.5,0,0,1-.2.23.83.83,0,0,1-.3.13,2.22,2.22,0,0,1-.38,0,2,2,0,0,1-.43,0l-.4-.08v-.54h.26a.6.6,0,0,0,.2.34.57.57,0,0,0,.38.11.58.58,0,0,0,.19,0,.44.44,0,0,0,.16-.06.28.28,0,0,0,.11-.13.36.36,0,0,0,0-.19.48.48,0,0,0,0-.22.59.59,0,0,0-.16-.15,2.35,2.35,0,0,0-.39-.19,2.23,2.23,0,0,1-.38-.19.77.77,0,0,1-.22-.22.52.52,0,0,1-.08-.3.58.58,0,0,1,.11-.37.66.66,0,0,1,.34-.24,1.29,1.29,0,0,1,.51-.09l.33,0a2.6,2.6,0,0,1,.4.07Zm.48-.44a.66.66,0,0,0,.21-.08.37.37,0,0,0,.12-.13.71.71,0,0,0,.08-.21c0-.08,0-.2,0-.36h.37v.65h.84v.26h-.84v1.16a3.9,3.9,0,0,0,0,.4.56.56,0,0,0,.08.23.4.4,0,0,0,.13.13.5.5,0,0,0,.19,0,.41.41,0,0,0,.19,0,.94.94,0,0,0,.18-.12l.12.14a1.5,1.5,0,0,1-.35.26.84.84,0,0,1-.34.08.61.61,0,0,1-.5-.2,1,1,0,0,1-.17-.63v-1.44h-.38Zm3.5,2h0a1.59,1.59,0,0,1-.43.33.87.87,0,0,1-.42.1.75.75,0,0,1-.35-.08.49.49,0,0,1-.23-.22.57.57,0,0,1-.09-.32.63.63,0,0,1,.38-.58,2.74,2.74,0,0,1,1.13-.25v-.16a1.58,1.58,0,0,0-.05-.43.41.41,0,0,0-.17-.23.51.51,0,0,0-.3-.07.47.47,0,0,0-.32.1.67.67,0,0,0-.19.32h-.34v-.33a3.68,3.68,0,0,1,.42-.2l.33-.09a1.27,1.27,0,0,1,.34,0,.93.93,0,0,1,.41.08.51.51,0,0,1,.24.26,1.29,1.29,0,0,1,.08.51v1.17c0,.06,0,.11,0,.15a.66.66,0,0,0,0,.11.27.27,0,0,0,.08.07l.17.06v.13h-.72Zm0-.81a1.77,1.77,0,0,0-.79.14.43.43,0,0,0-.26.41.39.39,0,0,0,.06.23.29.29,0,0,0,.15.12.71.71,0,0,0,.53-.05.61.61,0,0,0,.23-.22.56.56,0,0,0,.08-.26Zm3.77,1.19h-1v-.13l.15-.06a.13.13,0,0,0,.07-.06.32.32,0,0,0,0-.13,1.86,1.86,0,0,0,0-.26v-.69c0-.12,0-.23,0-.33a1.29,1.29,0,0,0,0-.24,1.16,1.16,0,0,0-.06-.15.34.34,0,0,0-.08-.09.27.27,0,0,0-.12-.06.37.37,0,0,0-.16,0,.41.41,0,0,0-.19,0,.56.56,0,0,0-.2.14.54.54,0,0,0-.16.19.42.42,0,0,0,0,.22v1a2.1,2.1,0,0,0,0,.32.22.22,0,0,0,.08.13.49.49,0,0,0,.19.08v.13h-1v-.13l.14-.06a.16.16,0,0,0,.08-.06.33.33,0,0,0,0-.13,1.65,1.65,0,0,0,0-.27V181a2.1,2.1,0,0,0,0-.27.35.35,0,0,0,0-.16.18.18,0,0,0-.1-.09l-.18-.06v-.13l.61,0h.16l0,.43h0a3.09,3.09,0,0,1,.31-.28.94.94,0,0,1,.24-.13.75.75,0,0,1,.26,0,1,1,0,0,1,.25,0,.44.44,0,0,1,.19.1.39.39,0,0,1,.14.17.52.52,0,0,1,.08.24,1.69,1.69,0,0,1,0,.35v1c0,.12,0,.21,0,.27a.34.34,0,0,0,0,.12l.07.07a.84.84,0,0,0,.18.07Zm2.42-2.43v.54h-.34a.84.84,0,0,0-.11-.27.31.31,0,0,0-.15-.13.41.41,0,0,0-.21,0,.47.47,0,0,0-.32.12.72.72,0,0,0-.23.35,2,2,0,0,0-.08.59,2.41,2.41,0,0,0,0,.4,1,1,0,0,0,.11.32.64.64,0,0,0,.2.2.59.59,0,0,0,.31.07.8.8,0,0,0,.34-.07,1,1,0,0,0,.32-.25l.15.18a2.19,2.19,0,0,1-.24.22,1,1,0,0,1-.22.13.63.63,0,0,1-.23.08.88.88,0,0,1-.24,0,.89.89,0,0,1-.75-.33,1.44,1.44,0,0,1-.27-.94,1.52,1.52,0,0,1,.15-.69,1.08,1.08,0,0,1,.41-.46,1.23,1.23,0,0,1,.61-.16,2.38,2.38,0,0,1,.39,0A1.76,1.76,0,0,1,129.09,180.36Zm2.51,2a1.91,1.91,0,0,1-.31.28,1.4,1.4,0,0,1-.3.15,1.1,1.1,0,0,1-.37.06,1,1,0,0,1-.81-.32,1.45,1.45,0,0,1-.27-.95,1.52,1.52,0,0,1,.14-.69,1,1,0,0,1,.39-.46,1.19,1.19,0,0,1,.6-.16,1.06,1.06,0,0,1,.45.09.72.72,0,0,1,.29.22,1,1,0,0,1,.17.37,2.15,2.15,0,0,1,.07.57H130v.05a1.6,1.6,0,0,0,.07.52.63.63,0,0,0,.23.32.65.65,0,0,0,.41.12.79.79,0,0,0,.38-.08,1,1,0,0,0,.34-.26Zm-.44-1.05a1.78,1.78,0,0,0-.07-.46.59.59,0,0,0-.16-.28.44.44,0,0,0-.29-.09.52.52,0,0,0-.43.21,1.26,1.26,0,0,0-.19.62Z"/><path d="M207.82,162.4h2.82v.91h-.25c0-.15-.08-.27-.11-.36a1.17,1.17,0,0,0-.12-.2.55.55,0,0,0-.14-.09.58.58,0,0,0-.21,0h-.33v2.67a1.63,1.63,0,0,0,0,.24.26.26,0,0,0,.06.14.2.2,0,0,0,.09.09l.19.06V166h-1.19v-.12l.14,0,.09,0a.27.27,0,0,0,.07-.08.35.35,0,0,0,0-.13,1.21,1.21,0,0,0,0-.23v-2.67h-.33l-.2,0a.44.44,0,0,0-.15.1,1,1,0,0,0-.12.21,3,3,0,0,0-.11.35h-.26Z"/><path d="M211.73,166a1,1,0,0,1-.82-.32,1.4,1.4,0,0,1-.29-1,1.57,1.57,0,0,1,.15-.72,1,1,0,0,1,.41-.44,1.19,1.19,0,0,1,.6-.15,1,1,0,0,1,.84.33,1.35,1.35,0,0,1,.29.93,1.57,1.57,0,0,1-.15.72,1,1,0,0,1-.4.45A1.28,1.28,0,0,1,211.73,166Zm-.62-1.32a1.64,1.64,0,0,0,.17.82.57.57,0,0,0,.79.21.74.74,0,0,0,.2-.23,1.17,1.17,0,0,0,.11-.33,2.6,2.6,0,0,0,0-.4,1.89,1.89,0,0,0-.08-.63.74.74,0,0,0-.23-.37.52.52,0,0,0-.33-.12.55.55,0,0,0-.49.27A1.5,1.5,0,0,0,211.11,164.68Zm3.32,1.32a1.07,1.07,0,0,1-.83-.32,1.4,1.4,0,0,1-.28-1,1.57,1.57,0,0,1,.15-.72.93.93,0,0,1,.41-.44,1.15,1.15,0,0,1,.59-.15,1.09,1.09,0,0,1,.85.33,1.34,1.34,0,0,1,.28.93,1.71,1.71,0,0,1-.14.72,1,1,0,0,1-.41.45A1.21,1.21,0,0,1,214.43,166Zm-.62-1.32a1.64,1.64,0,0,0,.17.82.54.54,0,0,0,.49.29.61.61,0,0,0,.3-.08.71.71,0,0,0,.19-.23,1.18,1.18,0,0,0,.12-.33,2.6,2.6,0,0,0,0-.4,1.87,1.87,0,0,0-.09-.63.68.68,0,0,0-.23-.37.48.48,0,0,0-.33-.12.53.53,0,0,0-.48.27A1.5,1.5,0,0,0,213.81,164.68Zm3.94.62a1.85,1.85,0,0,0,0,.31.37.37,0,0,0,.08.14.81.81,0,0,0,.2.08V166h-1v-.12l.18-.07a.32.32,0,0,0,.08-.09,1.06,1.06,0,0,0,0-.14c0-.06,0-.13,0-.23v-2.18c0-.16,0-.28,0-.34a.72.72,0,0,0,0-.17.28.28,0,0,0-.05-.11.12.12,0,0,0-.08-.06.69.69,0,0,0-.18-.05v-.14l.63,0h.15Zm2.33.28h0a1.34,1.34,0,0,1-.43.33,1,1,0,0,1-.42.1.78.78,0,0,1-.35-.08.49.49,0,0,1-.23-.22.66.66,0,0,1-.08-.32.64.64,0,0,1,.38-.59,2.89,2.89,0,0,1,1.13-.24v-.17A1.17,1.17,0,0,0,220,164a.4.4,0,0,0-.16-.23.56.56,0,0,0-.3-.07.5.5,0,0,0-.33.1.66.66,0,0,0-.18.32h-.35v-.34l.42-.19a1.89,1.89,0,0,1,.34-.09,1.24,1.24,0,0,1,.33,0,1,1,0,0,1,.42.08.56.56,0,0,1,.23.25,1.18,1.18,0,0,1,.08.51v1.18c0,.06,0,.1,0,.15a.36.36,0,0,0,0,.11.29.29,0,0,0,.08.07l.16.06V166h-.71Zm0-.81a1.82,1.82,0,0,0-.8.14.44.44,0,0,0-.26.41.39.39,0,0,0,.06.23.29.29,0,0,0,.15.12.73.73,0,0,0,.54,0,.58.58,0,0,0,.22-.22.48.48,0,0,0,.09-.27Z"/><path d="M222.09,163.9h0a1.83,1.83,0,0,1,.27-.28.76.76,0,0,1,.26-.15.83.83,0,0,1,.32-.06l.28,0v.6H223a.51.51,0,0,0-.13-.21.29.29,0,0,0-.19-.06.41.41,0,0,0-.19,0,.86.86,0,0,0-.18.16.62.62,0,0,0-.12.2.66.66,0,0,0,0,.21v.91a1.21,1.21,0,0,0,0,.33.25.25,0,0,0,.09.13.66.66,0,0,0,.2.07V166h-1.05v-.12l.15-.06.07-.06a.32.32,0,0,0,0-.13,1.94,1.94,0,0,0,0-.27v-1.4a.53.53,0,0,0,0-.16.18.18,0,0,0-.09-.1l-.19-.05v-.13l.61,0h.16Z"/><path d="M225.88,163.73l-.48,0,0,0a.58.58,0,0,1,.13.22,1,1,0,0,1,0,.3.8.8,0,0,1-.26.65,1,1,0,0,1-.74.23,1,1,0,0,1-.37,0,.39.39,0,0,0-.2.3.2.2,0,0,0,0,.14.15.15,0,0,0,.12.07.94.94,0,0,0,.26,0H225a1,1,0,0,1,.45.09.51.51,0,0,1,.25.23.74.74,0,0,1,.07.34.65.65,0,0,1-.14.43.88.88,0,0,1-.4.3,1.71,1.71,0,0,1-.62.11,3.43,3.43,0,0,1-.48,0,1.31,1.31,0,0,1-.38-.11.65.65,0,0,1-.24-.19.59.59,0,0,1-.08-.31.48.48,0,0,1,.11-.3,1,1,0,0,1,.31-.23.36.36,0,0,1-.19-.15.34.34,0,0,1-.07-.22.48.48,0,0,1,.08-.28A1.3,1.3,0,0,1,224,165a.71.71,0,0,1-.28-.29.88.88,0,0,1-.1-.43.94.94,0,0,1,.07-.39.71.71,0,0,1,.21-.27.85.85,0,0,1,.31-.17,1.6,1.6,0,0,1,.39-.05,1.57,1.57,0,0,1,.37.05h.92ZM224.51,166h-.37a.66.66,0,0,0-.2.21.49.49,0,0,0-.06.25.37.37,0,0,0,.18.34,1.11,1.11,0,0,0,.57.11,1.16,1.16,0,0,0,.4-.06.51.51,0,0,0,.26-.18.44.44,0,0,0,.09-.27.77.77,0,0,0,0-.15.25.25,0,0,0-.07-.12.38.38,0,0,0-.14-.09.9.9,0,0,0-.25,0Zm-.43-1.75a.82.82,0,0,0,.13.5.45.45,0,0,0,.38.18.52.52,0,0,0,.23-.05.5.5,0,0,0,.15-.14.67.67,0,0,0,.09-.21,1,1,0,0,0,0-.24,1,1,0,0,0-.06-.38.43.43,0,0,0-.18-.23.44.44,0,0,0-.26-.07.43.43,0,0,0-.37.16A.74.74,0,0,0,224.08,164.26Zm4.24,1.25a1.73,1.73,0,0,1-.3.27,1.14,1.14,0,0,1-.31.16,1.06,1.06,0,0,1-.37.06,1,1,0,0,1-.81-.33,1.42,1.42,0,0,1-.27-.94,1.67,1.67,0,0,1,.14-.69,1,1,0,0,1,1-.62,1.17,1.17,0,0,1,.45.08,1,1,0,0,1,.3.23,1.15,1.15,0,0,1,.17.37,2.59,2.59,0,0,1,.07.57h-1.64v.05a1.88,1.88,0,0,0,.06.51.73.73,0,0,0,.23.33.66.66,0,0,0,.41.12,1,1,0,0,0,.39-.08,1.23,1.23,0,0,0,.34-.26Zm-.43-1.06a2.24,2.24,0,0,0-.07-.45.6.6,0,0,0-.17-.28.43.43,0,0,0-.28-.09.5.5,0,0,0-.43.21,1.13,1.13,0,0,0-.19.61Z"/><path d="M205.91,176.09a1.2,1.2,0,0,0,0,.31.25.25,0,0,0,.08.14.5.5,0,0,0,.19.07v.13h-1v-.13a.39.39,0,0,0,.18-.07.2.2,0,0,0,.08-.08s0-.08,0-.14,0-.14,0-.23v-2.18a3.13,3.13,0,0,0,0-.35.7.7,0,0,0,0-.16.23.23,0,0,0,0-.11.27.27,0,0,0-.08-.07l-.19,0V173l.63,0h.16Zm1.94.69a1,1,0,0,1-.83-.32,1.35,1.35,0,0,1-.28-.94,1.61,1.61,0,0,1,.15-.73,1,1,0,0,1,.41-.44,1.25,1.25,0,0,1,.59-.14,1.08,1.08,0,0,1,.84.32,1.33,1.33,0,0,1,.29.93,1.76,1.76,0,0,1-.14.73,1,1,0,0,1-.41.45A1.32,1.32,0,0,1,207.85,176.78Zm-.62-1.31a1.67,1.67,0,0,0,.17.82.54.54,0,0,0,.49.29.48.48,0,0,0,.29-.09.53.53,0,0,0,.2-.22.91.91,0,0,0,.11-.34,1.61,1.61,0,0,0,0-.39,1.93,1.93,0,0,0-.09-.64.76.76,0,0,0-.23-.37.5.5,0,0,0-.33-.12.54.54,0,0,0-.48.28A1.41,1.41,0,0,0,207.23,175.47Zm3.31,1.31a1,1,0,0,1-.82-.32,1.36,1.36,0,0,1-.29-.94,1.61,1.61,0,0,1,.15-.73,1.09,1.09,0,0,1,.41-.44,1.27,1.27,0,0,1,.6-.14,1.08,1.08,0,0,1,.84.32,1.38,1.38,0,0,1,.29.93,1.61,1.61,0,0,1-.15.73,1,1,0,0,1-.4.45A1.39,1.39,0,0,1,210.54,176.78Zm-.62-1.31a1.67,1.67,0,0,0,.17.82.56.56,0,0,0,.49.29.49.49,0,0,0,.3-.09.61.61,0,0,0,.2-.22,1.13,1.13,0,0,0,.11-.34,2.38,2.38,0,0,0,0-.39,2,2,0,0,0-.08-.64.84.84,0,0,0-.23-.37.52.52,0,0,0-.34-.12.54.54,0,0,0-.48.28A1.5,1.5,0,0,0,209.92,175.47Z"/><path d="M213,175.29h.08a.3.3,0,0,0,.14,0,.41.41,0,0,0,.14-.08,1.88,1.88,0,0,0,.23-.18l.18-.19a.44.44,0,0,0,.08-.15.2.2,0,0,0,0-.11.13.13,0,0,0-.05-.12.26.26,0,0,0-.15-.06v-.13h1.12v.13a.81.81,0,0,0-.26.11,1.31,1.31,0,0,0-.27.22l-.6.56.75,1a1.24,1.24,0,0,0,.23.26.52.52,0,0,0,.23.1v.13h-1v-.13a.13.13,0,0,0,.1,0,.07.07,0,0,0,0-.07.24.24,0,0,0,0-.08l-.06-.1-.16-.23-.31-.41-.13-.16-.07-.05H213v.62a1.2,1.2,0,0,0,0,.31.25.25,0,0,0,.08.14.5.5,0,0,0,.19.07v.13h-1v-.13a.5.5,0,0,0,.19-.07.27.27,0,0,0,.07-.08s0-.08,0-.14a1.55,1.55,0,0,0,0-.23v-2.53a.65.65,0,0,0,0-.16.23.23,0,0,0,0-.11.27.27,0,0,0-.08-.07l-.19,0V173l.63,0H213Z"/><path d="M216.16,175.57H215v-.4h1.21Zm2,.8h0a1.88,1.88,0,0,1-.42.33,1,1,0,0,1-.43.09.74.74,0,0,1-.34-.07.57.57,0,0,1-.24-.22.66.66,0,0,1,.3-.91,2.61,2.61,0,0,1,1.13-.24v-.17a1.5,1.5,0,0,0-.05-.42.38.38,0,0,0-.17-.23.51.51,0,0,0-.3-.08.48.48,0,0,0-.32.11.6.6,0,0,0-.19.32h-.34v-.34a4.43,4.43,0,0,1,.42-.19l.33-.1a1.87,1.87,0,0,1,.34,0,.93.93,0,0,1,.41.08.58.58,0,0,1,.24.25,1.39,1.39,0,0,1,.07.51V176c0,.13,0,.22,0,.27a.76.76,0,0,0,0,.15.36.36,0,0,0,0,.11.17.17,0,0,0,.08.06l.16.06v.13h-.71Zm0-.82a1.9,1.9,0,0,0-.79.15.45.45,0,0,0-.21.64.29.29,0,0,0,.15.12.78.78,0,0,0,.22,0,.57.57,0,0,0,.32-.09.61.61,0,0,0,.23-.22.5.5,0,0,0,.08-.26Zm1.84-.89h0a2.83,2.83,0,0,1,.32-.28.94.94,0,0,1,.24-.13.93.93,0,0,1,.25,0,.66.66,0,0,1,.25,0,.47.47,0,0,1,.2.1.61.61,0,0,1,.14.17,1,1,0,0,1,.08.24,3.16,3.16,0,0,1,0,.35v1a1.85,1.85,0,0,0,0,.31.27.27,0,0,0,.07.13.48.48,0,0,0,.21.08v.13h-1v-.13a.42.42,0,0,0,.14-.05.27.27,0,0,0,.08-.07.48.48,0,0,0,.05-.12,1.94,1.94,0,0,0,0-.27v-.68a3.51,3.51,0,0,0,0-.53.5.5,0,0,0-.14-.27.38.38,0,0,0-.29-.1.58.58,0,0,0-.19,0,.8.8,0,0,0-.19.13.67.67,0,0,0-.16.19.42.42,0,0,0-.06.21v1a1.56,1.56,0,0,0,0,.25,1.3,1.3,0,0,0,0,.13.3.3,0,0,0,.08.08.34.34,0,0,0,.17.06v.13h-1v-.13l.16-.06a.18.18,0,0,0,.08-.07.33.33,0,0,0,0-.13,1.71,1.71,0,0,0,0-.26v-2.53a.7.7,0,0,0,0-.16.23.23,0,0,0,0-.11.27.27,0,0,0-.08-.07l-.18,0V173l.62,0H220Zm4.29,1.64a1.74,1.74,0,0,1-.31.27,1,1,0,0,1-.31.16,1,1,0,0,1-.36.05,1,1,0,0,1-.81-.32,1.38,1.38,0,0,1-.28-1,1.62,1.62,0,0,1,.14-.68,1.13,1.13,0,0,1,.4-.46,1.07,1.07,0,0,1,.59-.16,1.17,1.17,0,0,1,.45.08.78.78,0,0,1,.3.23,1.2,1.2,0,0,1,.17.36,2.78,2.78,0,0,1,.07.58h-1.64v0a1.53,1.53,0,0,0,.07.51.65.65,0,0,0,.22.33.66.66,0,0,0,.41.12,1,1,0,0,0,.39-.08,1.23,1.23,0,0,0,.34-.26Zm-.44-1.06a1.86,1.86,0,0,0-.07-.46.53.53,0,0,0-.17-.27.41.41,0,0,0-.28-.1.53.53,0,0,0-.43.22,1.13,1.13,0,0,0-.19.61Zm2.47,1.13h0a1.9,1.9,0,0,1-.43.33,1,1,0,0,1-.42.09.75.75,0,0,1-.35-.07.54.54,0,0,1-.23-.22.57.57,0,0,1-.09-.32.66.66,0,0,1,.38-.59,2.61,2.61,0,0,1,1.13-.24v-.17a1.5,1.5,0,0,0-.05-.42.38.38,0,0,0-.17-.23.5.5,0,0,0-.29-.08.49.49,0,0,0-.33.11.67.67,0,0,0-.19.32h-.34v-.34l.42-.19.33-.1a1.87,1.87,0,0,1,.34,0,.93.93,0,0,1,.41.08.53.53,0,0,1,.24.25,1.36,1.36,0,0,1,.08.51v1.18c0,.05,0,.1,0,.15s0,.08,0,.11a.24.24,0,0,0,.08.06l.17.06v.13h-.72Zm-.05-.82a1.9,1.9,0,0,0-.79.15.42.42,0,0,0-.26.4.43.43,0,0,0,.06.24.29.29,0,0,0,.15.12.66.66,0,0,0,.21,0,.57.57,0,0,0,.32-.09.54.54,0,0,0,.23-.22.5.5,0,0,0,.08-.26Zm2.87-1.64v-.35c0-.06,0-.12,0-.16a.38.38,0,0,0,0-.11.27.27,0,0,0-.08-.07l-.19,0V173l.64,0h.15v3a2.11,2.11,0,0,0,0,.29.26.26,0,0,0,0,.14.34.34,0,0,0,.08.09l.2.06v.13l-.62,0h-.15l0-.43h0a1.6,1.6,0,0,1-.29.26.89.89,0,0,1-.25.14.73.73,0,0,1-.3.05.76.76,0,0,1-.66-.32,1.65,1.65,0,0,1-.23-.94,1.59,1.59,0,0,1,.15-.72,1.06,1.06,0,0,1,.41-.45,1.21,1.21,0,0,1,.58-.14,1.48,1.48,0,0,1,.31,0,.81.81,0,0,1,.29.09Zm0,1.29a2.63,2.63,0,0,0,0-.33.52.52,0,0,0-.06-.2.4.4,0,0,0-.11-.14.56.56,0,0,0-.17-.09l-.2,0a.57.57,0,0,0-.51.26,1.39,1.39,0,0,0-.18.77,1.55,1.55,0,0,0,.15.76.46.46,0,0,0,.43.26l.19,0a.47.47,0,0,0,.15-.06.79.79,0,0,0,.15-.12.6.6,0,0,0,.11-.14.58.58,0,0,0,0-.14,1.06,1.06,0,0,0,0-.21Z"/><path d="M210.64,184.8a3.13,3.13,0,0,0,0-.35.7.7,0,0,0,0-.16.23.23,0,0,0,0-.11.15.15,0,0,0-.09-.06.69.69,0,0,0-.18-.05v-.14l.63,0h.16v3.3a.39.39,0,0,0,0,.14.14.14,0,0,0,.08.09l.2.06v.13l-.62,0h-.16l0-.43h0a1.55,1.55,0,0,1-.29.26.94.94,0,0,1-.26.14.71.71,0,0,1-.29,0,.76.76,0,0,1-.66-.32,1.65,1.65,0,0,1-.23-.94,1.59,1.59,0,0,1,.15-.72,1,1,0,0,1,.41-.44,1.11,1.11,0,0,1,.58-.15,1.55,1.55,0,0,1,.31,0l.29.09Zm0,1.29a2.77,2.77,0,0,0,0-.33.52.52,0,0,0-.06-.2.41.41,0,0,0-.12-.14.51.51,0,0,0-.16-.09l-.21,0a.58.58,0,0,0-.51.27,1.43,1.43,0,0,0-.17.76,1.66,1.66,0,0,0,.14.76.46.46,0,0,0,.44.26.55.55,0,0,0,.19,0,.47.47,0,0,0,.15-.06l.14-.12a.5.5,0,0,0,.12-.14.58.58,0,0,0,.05-.14,1.06,1.06,0,0,0,0-.21Zm1.25,1.42.15-.06s.05,0,.07-.06a.32.32,0,0,0,0-.13,1.94,1.94,0,0,0,0-.27v-1.4a.43.43,0,0,0,0-.17.2.2,0,0,0-.09-.09l-.18-.05v-.14l.6,0h.16V187a1.85,1.85,0,0,0,0,.31.27.27,0,0,0,.08.14.81.81,0,0,0,.2.08v.12h-1Zm.75-3.39v.51h-.48v-.51Zm2.5,1.59h-.25a.68.68,0,0,0-.13-.24.46.46,0,0,0-.18-.13.83.83,0,0,0-.24,0,.54.54,0,0,0-.33.09.32.32,0,0,0-.13.27.39.39,0,0,0,.05.2.56.56,0,0,0,.16.14,2,2,0,0,0,.36.18,3,3,0,0,1,.41.21.72.72,0,0,1,.23.23.5.5,0,0,1,.08.3.73.73,0,0,1-.07.35.55.55,0,0,1-.2.23.83.83,0,0,1-.3.13,2.25,2.25,0,0,1-.38,0,3,3,0,0,1-.43,0l-.4-.08V187h.26a.63.63,0,0,0,.2.35.63.63,0,0,0,.38.11l.19,0a.33.33,0,0,0,.16-.07.32.32,0,0,0,.11-.12.49.49,0,0,0,0-.41.39.39,0,0,0-.16-.15,2.35,2.35,0,0,0-.39-.19,2.68,2.68,0,0,1-.38-.19.77.77,0,0,1-.22-.22.52.52,0,0,1-.08-.3.61.61,0,0,1,.11-.38.8.8,0,0,1,.34-.24,1.52,1.52,0,0,1,.51-.08l.33,0,.4.06Zm.48-.44a.48.48,0,0,0,.21-.07.37.37,0,0,0,.12-.13,1,1,0,0,0,.08-.21c0-.08,0-.2.05-.36h.37v.64h.84v.27h-.84v1.16c0,.16,0,.3,0,.4a.56.56,0,0,0,.08.23.29.29,0,0,0,.13.12.36.36,0,0,0,.19,0,.41.41,0,0,0,.19,0,.68.68,0,0,0,.18-.13l.12.14a1.26,1.26,0,0,1-.35.26.68.68,0,0,1-.34.08.61.61,0,0,1-.5-.19,1,1,0,0,1-.17-.63v-1.44h-.38Zm3.5,2h0a1.65,1.65,0,0,1-.43.33,1,1,0,0,1-.42.09.75.75,0,0,1-.35-.07.54.54,0,0,1-.23-.22.57.57,0,0,1-.09-.32.66.66,0,0,1,.38-.59,2.94,2.94,0,0,1,1.13-.24v-.17a1.5,1.5,0,0,0,0-.42.41.41,0,0,0-.17-.23.5.5,0,0,0-.29-.08.49.49,0,0,0-.33.11.67.67,0,0,0-.19.32h-.34v-.34l.42-.19.33-.09a1.32,1.32,0,0,1,.34,0,.93.93,0,0,1,.41.08.53.53,0,0,1,.24.25,1.36,1.36,0,0,1,.08.51v1.18s0,.1,0,.15,0,.08,0,.11l.08.07.17.06v.12h-.72Zm-.05-.81a1.77,1.77,0,0,0-.79.14.42.42,0,0,0-.26.41.41.41,0,0,0,.06.23.29.29,0,0,0,.15.12.66.66,0,0,0,.21,0,.57.57,0,0,0,.32-.09.59.59,0,0,0,.23-.21.56.56,0,0,0,.08-.27Zm3.77,1.18h-1v-.12l.15-.06s0,0,.07-.06a.32.32,0,0,0,.05-.13,1.94,1.94,0,0,0,0-.27v-.68c0-.12,0-.23,0-.33a.78.78,0,0,0,0-.24.57.57,0,0,0-.06-.15.24.24,0,0,0-.08-.09.27.27,0,0,0-.12-.06.37.37,0,0,0-.16,0,.41.41,0,0,0-.19,0,.67.67,0,0,0-.2.13.66.66,0,0,0-.16.2.51.51,0,0,0-.05.22v1a1.85,1.85,0,0,0,0,.31.22.22,0,0,0,.08.14.71.71,0,0,0,.19.08v.12h-1v-.12l.14-.06a.24.24,0,0,0,.08-.06.33.33,0,0,0,0-.13,1.65,1.65,0,0,0,0-.27v-1.4a.71.71,0,0,0,0-.17.18.18,0,0,0-.1-.09l-.18-.05v-.14l.61,0H221l0,.43h0a2.2,2.2,0,0,1,.31-.28.94.94,0,0,1,.24-.13.75.75,0,0,1,.26-.05.69.69,0,0,1,.25,0,.44.44,0,0,1,.19.1.43.43,0,0,1,.14.16.85.85,0,0,1,.09.24,3.53,3.53,0,0,1,0,.36v1c0,.12,0,.21,0,.26a.33.33,0,0,0,0,.13.19.19,0,0,0,.08.07l.17.07Zm2.42-2.43v.55h-.34a.85.85,0,0,0-.1-.27.52.52,0,0,0-.16-.14.58.58,0,0,0-.21,0,.46.46,0,0,0-.32.11.8.8,0,0,0-.23.36,2,2,0,0,0-.08.59,2.5,2.5,0,0,0,0,.4.87.87,0,0,0,.11.31.58.58,0,0,0,.2.21.59.59,0,0,0,.31.07.8.8,0,0,0,.34-.07,1.12,1.12,0,0,0,.32-.25l.15.17a1.64,1.64,0,0,1-.24.23,1.33,1.33,0,0,1-.44.21,1,1,0,0,1-.25,0,.88.88,0,0,1-.75-.32,1.45,1.45,0,0,1-.26-.95,1.51,1.51,0,0,1,.14-.68,1.08,1.08,0,0,1,.41-.46,1.13,1.13,0,0,1,.61-.16,2.38,2.38,0,0,1,.39,0A2.66,2.66,0,0,1,225.26,185.2Zm2.51,2a1.73,1.73,0,0,1-.3.27,1.3,1.3,0,0,1-.31.16,1.07,1.07,0,0,1-.37,0,1,1,0,0,1-.81-.32,1.44,1.44,0,0,1-.27-.95,1.51,1.51,0,0,1,.14-.68,1,1,0,0,1,.39-.46,1.1,1.1,0,0,1,.6-.16,1.25,1.25,0,0,1,.45.08.85.85,0,0,1,.29.23,1,1,0,0,1,.17.37,1.76,1.76,0,0,1,.07.57h-1.64v.05a1.53,1.53,0,0,0,.07.51.66.66,0,0,0,.23.33.65.65,0,0,0,.41.12.92.92,0,0,0,.38-.08,1,1,0,0,0,.34-.26Zm-.44-1.06a1.86,1.86,0,0,0-.07-.46.56.56,0,0,0-.16-.27.44.44,0,0,0-.29-.09.52.52,0,0,0-.43.21,1.22,1.22,0,0,0-.19.61Z"/><polygon class="cls-1" points="253.37 96.61 257.79 75.25 258.11 74.72 258.44 74.28 258.98 74.07 259.52 74.07 271.05 76.44 271.59 76.66 271.92 77.09 272.13 77.63 272.13 78.17 267.71 99.63 267.5 100.17 267.07 100.49 266.53 100.7 265.99 100.7 254.45 98.33 253.91 98.12 253.58 97.69 253.37 97.14 253.37 96.61"/><polygon class="cls-2" points="267.07 97.79 267.81 94.03 267.92 93.81 268.04 93.7 268.25 93.58 268.46 93.58 269.43 93.81 269.65 93.91 269.76 94.03 269.86 94.23 269.86 94.45 269 98.22 268.9 98.44 268.79 98.55 268.69 98.65 268.46 98.65 267.38 98.44 267.28 98.33 267.07 98.22 267.07 98.02 267.07 97.79"/><polygon class="cls-3" points="267.07 97.79 267.81 94.03 267.92 93.81 268.04 93.7 268.25 93.58 268.46 93.58 269.43 93.81 269.65 93.91 269.76 94.03 269.86 94.23 269.86 94.45 269 98.22 268.9 98.44 268.79 98.55 268.69 98.65 268.46 98.65 267.38 98.44 267.28 98.33 267.07 98.22 267.07 98.02 267.07 97.79"/><polygon class="cls-2" points="252.62 94.88 253.48 90.89 253.58 90.79 253.7 90.57 253.8 90.57 254.01 90.57 255.32 90.79 255.53 90.89 255.63 91 255.75 91.22 255.75 91.44 254.88 95.42 254.77 95.64 254.67 95.74 254.45 95.74 254.24 95.74 253.04 95.53 252.83 95.42 252.72 95.31 252.62 95.11 252.62 94.88"/><polygon class="cls-3" points="252.62 94.88 253.48 90.89 253.58 90.79 253.7 90.57 253.8 90.57 254.01 90.57 255.32 90.79 255.53 90.89 255.63 91 255.75 91.22 255.75 91.44 254.88 95.42 254.77 95.64 254.67 95.74 254.45 95.74 254.24 95.74 253.04 95.53 252.83 95.42 252.72 95.31 252.62 95.11 252.62 94.88"/><polygon class="cls-2" points="271.69 83.89 270.41 84.21 270.2 84.21 269.97 84.09 269.86 83.99 269.76 83.77 269.12 80.1 269.12 79.89 269.22 79.78 269.33 79.67 269.54 79.57 270.84 79.35 270.94 79.35 271.16 79.35 271.27 79.57 271.38 79.67 272.13 83.34 272.13 83.56 272.02 83.66 271.92 83.89 271.69 83.89"/><polygon class="cls-3" points="271.69 83.89 270.41 84.21 270.2 84.21 269.97 84.09 269.86 83.99 269.76 83.77 269.12 80.1 269.12 79.89 269.22 79.78 269.33 79.67 269.54 79.57 270.84 79.35 270.94 79.35 271.16 79.35 271.27 79.57 271.38 79.67 272.13 83.34 272.13 83.56 272.02 83.66 271.92 83.89 271.69 83.89"/><polygon class="cls-2" points="258.22 81.51 256.83 81.73 256.71 81.73 256.5 81.62 256.39 81.51 256.28 81.3 255.53 77.74 255.53 77.52 255.63 77.31 255.75 77.19 255.96 77.09 257.25 76.87 257.47 76.87 257.68 76.98 257.79 77.09 257.9 77.31 258.55 80.86 258.55 81.08 258.44 81.3 258.32 81.4 258.22 81.51"/><polygon class="cls-3" points="258.22 81.51 256.83 81.73 256.71 81.73 256.5 81.62 256.39 81.51 256.28 81.3 255.53 77.74 255.53 77.52 255.63 77.31 255.75 77.19 255.96 77.09 257.25 76.87 257.47 76.87 257.68 76.98 257.79 77.09 257.9 77.31 258.55 80.86 258.55 81.08 258.44 81.3 258.32 81.4 258.22 81.51"/><line class="cls-5" x1="267.81" y1="90.14" x2="263.07" y2="89.59"/><polygon class="cls-6" points="266.53 89.28 266.42 89.49 267.71 90.14 266.3 90.46 266.3 90.67 268.46 90.24 266.53 89.28"/><line class="cls-7" x1="263.72" y1="84.96" x2="263.07" y2="89.59"/><polygon class="cls-8" points="262.86 86.25 262.97 86.37 263.72 85.07 264.04 86.47 264.25 86.47 263.83 84.31 262.86 86.25"/><polygon class="cls-8" points="263.07 89.16 263.07 89.16 262.86 89.16 262.76 89.16 262.64 89.38 262.53 89.49 262.53 89.71 262.64 89.81 262.76 89.92 262.97 90.03 263.18 90.03 263.29 89.92 263.4 89.81 263.5 89.59 263.5 89.49 263.4 89.28 263.29 89.16 263.07 89.16"/><polyline class="cls-9" points="265.66 75.36 265.66 75.36 266.53 72.89 267.07 70.51 267.38 68.25 267.5 66.19 267.28 64.15 266.96 62.31 266.3 60.47 265.55 58.76 264.58 57.25 263.5 55.73 262.1 54.34 260.7 53.04 259.09 51.74 257.37 50.66 255.42 49.59 253.48 48.62 251.42 47.64 249.27 46.78 247.01 46.03 244.75 45.38 242.37 44.73 240 44.08 235.15 43.12 230.19 42.37 225.34 41.72 220.7 41.17 216.17 40.85"/><polyline class="cls-4" points="213.7 40.85 213.7 40.85 218.01 41.07"/><polyline class="cls-4" points="226.42 42.15 230.08 42.9 233.43 43.76 234.82 44.2"/><polyline class="cls-4" points="242.49 47.97 243.23 48.62 244.1 49.26 244.96 50.12 245.61 50.88 246.36 51.74 246.9 52.61 247.44 53.47 247.88 54.34 247.98 54.55"/><polyline class="cls-4" points="249.7 62.85 249.7 63.39 249.6 65.55 249.27 67.82 248.84 70.18 248.63 71.48"/><polyline class="cls-4" points="246.26 79.67 245.28 82.38 243.46 87.44 243.34 87.87"/><polyline class="cls-4" points="240.33 95.96 239.79 97.57 238.17 102.54 237.74 104.15"/><polyline class="cls-4" points="236.23 111.6 236.23 111.6 236.02 113.76 236.02 115.92"/><polygon class="cls-10" points="225.23 44.08 224.04 43 224.04 42.9 224.04 42.69 225.23 41.61 225.23 41.39 225.23 41.28 224.04 40.09 223.83 39.99 223.72 40.09 222.65 41.17 222.43 41.28 222.32 41.17 221.24 40.09 221.02 39.99 220.91 40.09 219.73 41.28 219.63 41.39 219.73 41.61 220.81 42.69 220.91 42.9 220.81 43 219.73 44.08 219.63 44.3 219.73 44.41 220.91 45.6 221.02 45.71 221.24 45.6 222.32 44.52 222.43 44.41 222.65 44.52 223.72 45.6 223.83 45.71 224.04 45.6 225.23 44.41 225.23 44.3 225.23 44.08"/><polygon class="cls-12" points="225.23 44.08 224.04 43 224.04 42.9 224.04 42.69 225.23 41.61 225.23 41.39 225.23 41.28 224.04 40.09 223.83 39.99 223.72 40.09 222.65 41.17 222.43 41.28 222.32 41.17 221.24 40.09 221.02 39.99 220.91 40.09 219.73 41.28 219.63 41.39 219.73 41.61 220.81 42.69 220.91 42.9 220.81 43 219.73 44.08 219.63 44.3 219.73 44.41 220.91 45.6 221.02 45.71 221.24 45.6 222.32 44.52 222.43 44.41 222.65 44.52 223.72 45.6 223.83 45.71 224.04 45.6 225.23 44.41 225.23 44.3 225.23 44.08"/><polyline class="cls-4" points="236.02 115.92 236.12 117.1 236.44 118.93 237.84 124.33"/><polyline class="cls-4" points="240 132.63 242.37 140.82 242.37 140.94"/><line class="cls-4" x1="244.75" y1="149.23" x2="247.23" y2="157.54"/><polyline class="cls-4" points="249.6 165.85 251 170.27 251.21 171.45 251.32 172.53 251.21 173.61 251.11 174.15"/><polyline class="cls-4" points="248.31 182.35 248.31 182.46 247.34 184.83 245.28 189.57 244.96 190.33"/><polyline class="cls-4" points="240.97 197.98 240.87 198.1 238.6 201.87 236.44 205.32"/><polyline class="cls-4" points="231.48 212.33 230.08 214.05 228.35 216.21 226.84 217.94 225.99 219.02"/><polygon class="cls-10" points="245.39 146 245.39 146 245.39 146.32 245.28 146.65 245.07 146.97 244.85 147.19 244.64 147.52 244.31 147.62 244 147.73 243.56 147.73 243.23 147.73 242.91 147.62 242.59 147.52 242.37 147.19 242.16 146.97 241.95 146.65 241.83 146.32 241.83 146 241.83 145.57 241.95 145.24 242.16 144.93 242.37 144.71 242.59 144.49 242.91 144.28 243.23 144.17 243.56 144.17 244 144.17 244.31 144.28 244.64 144.49 244.85 144.71 245.07 144.93 245.28 145.24 245.39 145.57 245.39 146"/><polygon class="cls-11" points="245.39 146 245.39 146 245.39 146.32 245.28 146.65 245.07 146.97 244.85 147.19 244.64 147.52 244.31 147.62 244 147.73 243.56 147.73 243.23 147.73 242.91 147.62 242.59 147.52 242.37 147.19 242.16 146.97 241.95 146.65 241.83 146.32 241.83 146 241.83 145.57 241.95 145.24 242.16 144.93 242.37 144.71 242.59 144.49 242.91 144.28 243.23 144.17 243.56 144.17 244 144.17 244.31 144.28 244.64 144.49 244.85 144.71 245.07 144.93 245.28 145.24 245.39 145.57 245.39 146"/><polygon class="cls-10" points="239.67 125.4 239.67 125.4 239.57 125.73 239.46 126.16 239.35 126.38 239.13 126.69 238.82 126.91 238.6 127.02 238.17 127.13 237.84 127.24 237.52 127.13 237.2 127.02 236.88 126.91 236.56 126.69 236.33 126.38 236.23 126.16 236.12 125.73 236.02 125.4 236.12 125.08 236.23 124.75 236.33 124.43 236.56 124.11 236.88 123.9 237.2 123.78 237.52 123.68 237.84 123.57 238.17 123.68 238.6 123.78 238.82 123.9 239.13 124.11 239.35 124.43 239.46 124.75 239.57 125.08 239.67 125.4"/><polygon class="cls-11" points="239.67 125.4 239.67 125.4 239.57 125.73 239.46 126.16 239.35 126.38 239.13 126.69 238.82 126.91 238.6 127.02 238.17 127.13 237.84 127.24 237.52 127.13 237.2 127.02 236.88 126.91 236.56 126.69 236.33 126.38 236.23 126.16 236.12 125.73 236.02 125.4 236.12 125.08 236.23 124.75 236.33 124.43 236.56 124.11 236.88 123.9 237.2 123.78 237.52 123.68 237.84 123.57 238.17 123.68 238.6 123.78 238.82 123.9 239.13 124.11 239.35 124.43 239.46 124.75 239.57 125.08 239.67 125.4"/><polygon class="cls-10" points="244.64 88.2 244.64 88.2 244.64 88.63 244.53 88.95 244.31 89.16 244.1 89.49 243.88 89.71 243.56 89.92 243.23 90.03 242.91 90.03 242.49 90.03 242.16 89.92 241.83 89.71 241.62 89.49 241.41 89.16 241.19 88.95 241.08 88.63 241.08 88.2 241.08 87.87 241.19 87.55 241.41 87.22 241.62 86.9 241.83 86.68 242.16 86.58 242.49 86.47 242.91 86.37 243.23 86.47 243.56 86.58 243.88 86.68 244.1 86.9 244.31 87.22 244.53 87.55 244.64 87.87 244.64 88.2"/><polygon class="cls-11" points="244.64 88.2 244.64 88.2 244.64 88.63 244.53 88.95 244.31 89.16 244.1 89.49 243.88 89.71 243.56 89.92 243.23 90.03 242.91 90.03 242.49 90.03 242.16 89.92 241.83 89.71 241.62 89.49 241.41 89.16 241.19 88.95 241.08 88.63 241.08 88.2 241.08 87.87 241.19 87.55 241.41 87.22 241.62 86.9 241.83 86.68 242.16 86.58 242.49 86.47 242.91 86.37 243.23 86.47 243.56 86.58 243.88 86.68 244.1 86.9 244.31 87.22 244.53 87.55 244.64 87.87 244.64 88.2"/><polygon class="cls-10" points="242.91 46.56 242.91 46.56 242.8 46.89 242.7 47.21 242.59 47.54 242.37 47.75 242.05 47.97 241.72 48.19 241.41 48.29 241.08 48.29 240.75 48.29 240.33 48.19 240.11 47.97 239.79 47.75 239.57 47.54 239.46 47.21 239.35 46.89 239.25 46.56 239.35 46.13 239.46 45.81 239.57 45.48 239.79 45.28 240.11 45.06 240.33 44.83 240.75 44.73 241.08 44.73 241.41 44.73 241.72 44.83 242.05 45.06 242.37 45.28 242.59 45.48 242.7 45.81 242.8 46.13 242.91 46.56"/><polygon class="cls-11" points="242.91 46.56 242.91 46.56 242.8 46.89 242.7 47.21 242.59 47.54 242.37 47.75 242.05 47.97 241.72 48.19 241.41 48.29 241.08 48.29 240.75 48.29 240.33 48.19 240.11 47.97 239.79 47.75 239.57 47.54 239.46 47.21 239.35 46.89 239.25 46.56 239.35 46.13 239.46 45.81 239.57 45.48 239.79 45.28 240.11 45.06 240.33 44.83 240.75 44.73 241.08 44.73 241.41 44.73 241.72 44.83 242.05 45.06 242.37 45.28 242.59 45.48 242.7 45.81 242.8 46.13 242.91 46.56"/><polygon class="cls-10" points="251.54 58 251.54 58 251.42 58.33 251.32 58.64 251.21 58.96 251 59.29 250.67 59.51 250.35 59.61 250.03 59.72 249.7 59.72 249.39 59.72 248.95 59.61 248.73 59.51 248.41 59.29 248.19 58.96 248.09 58.64 247.98 58.33 247.88 58 247.98 57.56 248.09 57.25 248.19 56.92 248.41 56.7 248.73 56.48 248.95 56.28 249.39 56.17 249.7 56.17 250.03 56.17 250.35 56.28 250.67 56.48 251 56.7 251.21 56.92 251.32 57.25 251.42 57.56 251.54 58"/><polygon class="cls-11" points="251.54 58 251.54 58 251.42 58.33 251.32 58.64 251.21 58.96 251 59.29 250.67 59.51 250.35 59.61 250.03 59.72 249.7 59.72 249.39 59.72 248.95 59.61 248.73 59.51 248.41 59.29 248.19 58.96 248.09 58.64 247.98 58.33 247.88 58 247.98 57.56 248.09 57.25 248.19 56.92 248.41 56.7 248.73 56.48 248.95 56.28 249.39 56.17 249.7 56.17 250.03 56.17 250.35 56.28 250.67 56.48 251 56.7 251.21 56.92 251.32 57.25 251.42 57.56 251.54 58"/><polygon class="cls-10" points="251.32 178.04 251.32 178.04 251.21 178.35 251.21 178.68 251 179 250.78 179.22 250.46 179.44 250.24 179.65 249.81 179.76 249.49 179.76 249.16 179.76 248.84 179.65 248.52 179.44 248.19 179.22 247.98 179 247.88 178.68 247.77 178.35 247.65 178.04 247.77 177.6 247.88 177.28 247.98 176.96 248.19 176.74 248.52 176.52 248.84 176.31 249.16 176.2 249.49 176.2 249.81 176.2 250.24 176.31 250.46 176.52 250.78 176.74 251 176.96 251.21 177.28 251.21 177.6 251.32 178.04"/><polygon class="cls-11" points="251.32 178.04 251.32 178.04 251.21 178.35 251.21 178.68 251 179 250.78 179.22 250.46 179.44 250.24 179.65 249.81 179.76 249.49 179.76 249.16 179.76 248.84 179.65 248.52 179.44 248.19 179.22 247.98 179 247.88 178.68 247.77 178.35 247.65 178.04 247.77 177.6 247.88 177.28 247.98 176.96 248.19 176.74 248.52 176.52 248.84 176.31 249.16 176.2 249.49 176.2 249.81 176.2 250.24 176.31 250.46 176.52 250.78 176.74 251 176.96 251.21 177.28 251.21 177.6 251.32 178.04"/><polygon class="cls-10" points="241.83 197.88 241.83 197.88 241.83 198.2 241.72 198.53 241.51 198.85 241.29 199.18 241.08 199.39 240.75 199.49 240.44 199.61 240 199.61 239.67 199.61 239.35 199.49 239.03 199.39 238.71 199.18 238.49 198.85 238.39 198.53 238.28 198.2 238.17 197.88 238.28 197.45 238.39 197.13 238.49 196.8 238.71 196.58 239.03 196.37 239.35 196.15 239.67 196.05 240 196.05 240.44 196.05 240.75 196.15 241.08 196.37 241.29 196.58 241.51 196.8 241.72 197.13 241.83 197.45 241.83 197.88"/><polygon class="cls-11" points="241.83 197.88 241.83 197.88 241.83 198.2 241.72 198.53 241.51 198.85 241.29 199.18 241.08 199.39 240.75 199.49 240.44 199.61 240 199.61 239.67 199.61 239.35 199.49 239.03 199.39 238.71 199.18 238.49 198.85 238.39 198.53 238.28 198.2 238.17 197.88 238.28 197.45 238.39 197.13 238.49 196.8 238.71 196.58 239.03 196.37 239.35 196.15 239.67 196.05 240 196.05 240.44 196.05 240.75 196.15 241.08 196.37 241.29 196.58 241.51 196.8 241.72 197.13 241.83 197.45 241.83 197.88"/><polygon class="cls-10" points="230.51 214.82 230.51 214.82 230.51 215.25 230.4 215.57 230.19 215.9 229.97 216.1 229.76 216.32 229.44 216.53 229.12 216.65 228.68 216.65 228.35 216.65 228.04 216.53 227.71 216.32 227.5 216.1 227.28 215.9 227.07 215.57 226.96 215.25 226.96 214.82 226.96 214.49 227.07 214.17 227.28 213.84 227.5 213.52 227.71 213.3 228.04 213.19 228.35 213.09 228.68 212.98 229.12 213.09 229.44 213.19 229.76 213.3 229.97 213.52 230.19 213.84 230.4 214.17 230.51 214.49 230.51 214.82"/><polygon class="cls-11" points="230.51 214.82 230.51 214.82 230.51 215.25 230.4 215.57 230.19 215.9 229.97 216.1 229.76 216.32 229.44 216.53 229.12 216.65 228.68 216.65 228.35 216.65 228.04 216.53 227.71 216.32 227.5 216.1 227.28 215.9 227.07 215.57 226.96 215.25 226.96 214.82 226.96 214.49 227.07 214.17 227.28 213.84 227.5 213.52 227.71 213.3 228.04 213.19 228.35 213.09 228.68 212.98 229.12 213.09 229.44 213.19 229.76 213.3 229.97 213.52 230.19 213.84 230.4 214.17 230.51 214.49 230.51 214.82"/><path class="cls-15" d="M132.6,259.1a8.36,8.36,0,0,1-1.13-2.53,12.4,12.4,0,0,1,0-6.17,8.25,8.25,0,0,1,1.13-2.53h1.77a11.4,11.4,0,0,0-1.1,2.73,11.43,11.43,0,0,0,1.1,8.5Z"/><path class="cls-15" d="M137.35,256.87a2.86,2.86,0,0,1-1.29-.26,1.92,1.92,0,0,1-.83-.7,1.72,1.72,0,0,1-.3-1,1.84,1.84,0,0,1,.29-1,1.75,1.75,0,0,1,.89-.67,4.48,4.48,0,0,1,1.61-.24h1.7v1.08h-1.51a1.46,1.46,0,0,0-.91.21.71.71,0,0,0-.24.54.67.67,0,0,0,.28.57,1.25,1.25,0,0,0,.76.21,1.74,1.74,0,0,0,.86-.21,1.21,1.21,0,0,0,.53-.66l.29.87a1.67,1.67,0,0,1-.74.93A2.65,2.65,0,0,1,137.35,256.87Zm2-.09v-1.26l-.12-.28V253a1.2,1.2,0,0,0-.36-.93,1.6,1.6,0,0,0-1.12-.34,3.51,3.51,0,0,0-1,.16,3,3,0,0,0-.86.44l-.66-1.31a4,4,0,0,1,1.28-.58,5.91,5.91,0,0,1,1.51-.2,3.44,3.44,0,0,1,2.29.7,2.71,2.71,0,0,1,.82,2.17v3.69Z"/><path class="cls-15" d="M143.8,259.1H142a11,11,0,0,0,1.11-2.72,12.11,12.11,0,0,0,0-5.78,11,11,0,0,0-1.11-2.73h1.78a8,8,0,0,1,1.13,2.53,12.71,12.71,0,0,1,0,6.17A8.12,8.12,0,0,1,143.8,259.1Z"/><path class="cls-15" d="M221.49,259.1a8.11,8.11,0,0,1-1.12-2.53,12.4,12.4,0,0,1,0-6.17,8,8,0,0,1,1.12-2.53h1.77a11.4,11.4,0,0,0-1.1,2.73,12.11,12.11,0,0,0,0,5.78,11.34,11.34,0,0,0,1.1,2.72Z"/><path class="cls-15" d="M224.25,256.78v-8.91h1.87v3.76l-.12,1.91,0,1.92v1.32Zm3.8.09a2.9,2.9,0,0,1-1.44-.35,2.25,2.25,0,0,1-1-1.1,4.83,4.83,0,0,1-.32-1.87,4.37,4.37,0,0,1,.34-1.87,2.46,2.46,0,0,1,.95-1.1,2.75,2.75,0,0,1,1.42-.36,3.21,3.21,0,0,1,1.65.42,3,3,0,0,1,1.15,1.15,3.45,3.45,0,0,1,.43,1.76,3.41,3.41,0,0,1-.43,1.75,3.05,3.05,0,0,1-1.15,1.16A3.31,3.31,0,0,1,228.05,256.87Zm-.31-1.54a1.53,1.53,0,0,0,.83-.21,1.45,1.45,0,0,0,.59-.61,2,2,0,0,0,.22-1,1.89,1.89,0,0,0-.22-1,1.51,1.51,0,0,0-.59-.61,1.63,1.63,0,0,0-.83-.21,1.69,1.69,0,0,0-.84.21,1.53,1.53,0,0,0-.6.61,2,2,0,0,0-.22,1,2.06,2.06,0,0,0,.22,1,1.47,1.47,0,0,0,.6.61A1.59,1.59,0,0,0,227.74,255.33Z"/><path class="cls-15" d="M233.57,259.1h-1.79a11,11,0,0,0,1.12-2.72,12.11,12.11,0,0,0,0-5.78,11.09,11.09,0,0,0-1.12-2.73h1.79a8,8,0,0,1,1.13,2.53,12.71,12.71,0,0,1,0,6.17A8.12,8.12,0,0,1,233.57,259.1Z"/></svg>