<svg xmlns="http://www.w3.org/2000/svg" viewBox="0 0 400 300"><defs><style>.a{fill:#ef4538;}.b,.c,.f{fill:none;}.b{stroke:#ef4538;}.b,.c,.e,.f{stroke-linecap:round;stroke-linejoin:round;}.b,.c{stroke-width:6px;}.c{stroke:#108a7b;}.d{fill:#108a7b;}.e{fill:#fff;opacity:0.8;}.e,.f{stroke:#32aec5;stroke-width:2px;}.g{fill:#32aec5;}</style></defs><path class="a" d="M23.21,21.44H31.3L35.16,28,39,21.44h8.06L39,33.22l9.36,13.53H40.43l-5.3-8.26-5.81,8.26h-8l9.9-13.53Z"/><polyline class="b" points="71.67 232.78 71.07 46.2 56.16 62.39"/><line class="b" x1="71.07" y1="46.2" x2="85.91" y2="60.69"/><polyline class="c" points="71.67 232.78 333.24 231.89 317.69 216.33"/><line class="c" x1="333.24" y1="231.89" x2="317.44" y2="247.3"/><path class="d" d="M329.77,265.89v2.92H324.2v-2.92Z"/><polyline class="d" points="345.08 258.92 339.67 266.56 339.67 273.61 335.85 273.61 335.85 266.56 330.43 258.92 335.01 258.92 337.76 262.91 340.5 258.92 345.08 258.92"/><path class="e" d="M59.22,169.22H83.67A9.33,9.33,0,0,1,93,178.56v68a0,0,0,0,1,0,0H49.89a0,0,0,0,1,0,0v-68A9.33,9.33,0,0,1,59.22,169.22Z"/><path class="f" d="M71.72,232.78,226.83,68.33s-72.64,8-106.66,40.89C81.63,146.48,63.61,210.83,71.61,232.61"/><polyline class="f" points="226.83 254.11 226.83 68.33 299.37 235.44 299.37 252.33"/><path class="g" d="M273.13,132.77l.14,0a7.63,7.63,0,0,1,1-1,3.83,3.83,0,0,1,1-.58,3.3,3.3,0,0,1,1.21-.21,8.05,8.05,0,0,1,1,.06v2.25h-1.11a2.18,2.18,0,0,0-.5-.77,1,1,0,0,0-.72-.23,1.34,1.34,0,0,0-.7.2,2.81,2.81,0,0,0-.67.6,2.53,2.53,0,0,0-.44.73,2.47,2.47,0,0,0-.12.81v3.42a4.91,4.91,0,0,0,.1,1.23.88.88,0,0,0,.36.49,2.11,2.11,0,0,0,.75.25v.48H270.5V140a3.18,3.18,0,0,0,.53-.21.92.92,0,0,0,.28-.24,1.2,1.2,0,0,0,.18-.48,6.12,6.12,0,0,0,.06-1v-4.26c0-.42,0-.75,0-1a1.61,1.61,0,0,0-.14-.61.74.74,0,0,0-.36-.34,2.87,2.87,0,0,0-.68-.19v-.51l2.29-.1h.6Z"/><path class="g" d="M155.87,134.11a6.23,6.23,0,0,0,.07,1.17,1,1,0,0,0,.3.5,2.28,2.28,0,0,0,.72.3v.47h-3.88v-.47a2.34,2.34,0,0,0,.68-.27.71.71,0,0,0,.27-.33,1.53,1.53,0,0,0,.12-.51c0-.22,0-.51,0-.86v-8.18c0-.63,0-1.06,0-1.31a3.36,3.36,0,0,0-.08-.63,1.21,1.21,0,0,0-.17-.41.93.93,0,0,0-.31-.23,2.91,2.91,0,0,0-.69-.18v-.5l2.36-.1h.59Z"/><path class="g" d="M266,254.59c0-.63,0-1.06,0-1.31a3.36,3.36,0,0,0-.08-.63,1.21,1.21,0,0,0-.17-.41.93.93,0,0,0-.31-.23,2.91,2.91,0,0,0-.69-.18v-.5l2.37-.1h.58v11.31c0,.51,0,.88,0,1.09a1.43,1.43,0,0,0,.12.53.86.86,0,0,0,.31.32,3.1,3.1,0,0,0,.74.23v.5l-2.31.1h-.58l.11-1.6-.14,0a7.88,7.88,0,0,1-1.07,1,4.34,4.34,0,0,1-1,.52,3.07,3.07,0,0,1-1.1.2,2.86,2.86,0,0,1-2.47-1.22,6,6,0,0,1-.87-3.51,6,6,0,0,1,.56-2.72,3.89,3.89,0,0,1,1.53-1.67,4.37,4.37,0,0,1,2.17-.55,6,6,0,0,1,1.17.11,6.37,6.37,0,0,1,1.09.33Zm0,4.83a9.43,9.43,0,0,0-.07-1.22,2.89,2.89,0,0,0-.23-.78,1.59,1.59,0,0,0-.44-.52,1.74,1.74,0,0,0-.6-.32,3,3,0,0,0-.79-.09,2.12,2.12,0,0,0-1.9,1,5.22,5.22,0,0,0-.66,2.88,6,6,0,0,0,.54,2.85,1.75,1.75,0,0,0,1.63,1,2.86,2.86,0,0,0,.72-.08,1.74,1.74,0,0,0,.55-.23,2.76,2.76,0,0,0,.56-.45,2.49,2.49,0,0,0,.42-.51,2.63,2.63,0,0,0,.2-.54,4,4,0,0,0,.07-.78Z"/><path class="g" d="M238.93,65a3.73,3.73,0,0,0,0,.58.48.48,0,0,0,.15.25,1,1,0,0,0,.36.15v.24h-1.94V66a1.08,1.08,0,0,0,.34-.13.38.38,0,0,0,.14-.17.76.76,0,0,0,.06-.25c0-.11,0-.26,0-.43V61c0-.31,0-.53,0-.65a2.31,2.31,0,0,0,0-.32.53.53,0,0,0-.09-.2.44.44,0,0,0-.15-.12,1.55,1.55,0,0,0-.34-.09v-.25l1.17,0h.3Z"/><path class="g" d="M242.46,66.34a2,2,0,0,1-1.55-.6,2.57,2.57,0,0,1-.53-1.77,2.94,2.94,0,0,1,.28-1.36,1.83,1.83,0,0,1,.77-.83,2.23,2.23,0,0,1,1.11-.27,2,2,0,0,1,1.58.61,2.52,2.52,0,0,1,.54,1.74,3.13,3.13,0,0,1-.27,1.37,1.81,1.81,0,0,1-.76.83A2.3,2.3,0,0,1,242.46,66.34Zm-1.16-2.47a3.07,3.07,0,0,0,.32,1.54,1,1,0,0,0,.91.54.93.93,0,0,0,.56-.16,1.16,1.16,0,0,0,.37-.42,2,2,0,0,0,.21-.63,4.32,4.32,0,0,0,.07-.74,4,4,0,0,0-.16-1.19,1.42,1.42,0,0,0-.44-.69,1,1,0,0,0-.62-.23,1,1,0,0,0-.91.52A2.81,2.81,0,0,0,241.3,63.87Z"/><path class="g" d="M247.77,66.34a2,2,0,0,1-1.55-.6,2.57,2.57,0,0,1-.54-1.77,3.08,3.08,0,0,1,.28-1.36,1.94,1.94,0,0,1,.77-.83,2.29,2.29,0,0,1,1.12-.27,2,2,0,0,1,1.58.61,2.52,2.52,0,0,1,.54,1.74,3.13,3.13,0,0,1-.27,1.37,1.86,1.86,0,0,1-.76.83A2.3,2.3,0,0,1,247.77,66.34Zm-1.16-2.47a3,3,0,0,0,.32,1.54,1,1,0,0,0,.91.54.93.93,0,0,0,.56-.16,1.16,1.16,0,0,0,.37-.42,2,2,0,0,0,.21-.63A4.35,4.35,0,0,0,249,64a3.68,3.68,0,0,0-.16-1.19,1.41,1.41,0,0,0-.43-.69,1,1,0,0,0-.62-.23,1,1,0,0,0-.91.52A2.81,2.81,0,0,0,246.61,63.87Z"/><path class="g" d="M252.26,63.54h.15a.7.7,0,0,0,.53-.18,4.15,4.15,0,0,0,.42-.36c.15-.14.26-.26.34-.35a1,1,0,0,0,.16-.27.78.78,0,0,0,0-.21.3.3,0,0,0-.09-.23.61.61,0,0,0-.3-.11v-.24h2.11v.24a1.59,1.59,0,0,0-.48.2,3,3,0,0,0-.53.41l-1.12,1.07,1.41,1.83a2.68,2.68,0,0,0,.44.48,1.06,1.06,0,0,0,.43.2v.24H253.9V66a.38.38,0,0,0,.18-.06.15.15,0,0,0,.07-.14.39.39,0,0,0,0-.14,1.44,1.44,0,0,0-.11-.19l-.3-.43-.59-.78c-.11-.14-.18-.24-.23-.29a.6.6,0,0,0-.15-.09.58.58,0,0,0-.21,0h-.27V65a3.73,3.73,0,0,0,0,.58.48.48,0,0,0,.15.25,1,1,0,0,0,.36.15v.24h-1.94V66a1.08,1.08,0,0,0,.34-.13.38.38,0,0,0,.14-.17.76.76,0,0,0,.06-.25c0-.11,0-.26,0-.43V61c0-.31,0-.53,0-.65a2.31,2.31,0,0,0,0-.32.53.53,0,0,0-.09-.2.44.44,0,0,0-.15-.12,1.55,1.55,0,0,0-.34-.09v-.25l1.17,0h.3Z"/><path class="g" d="M259,65.56l-.08,0a2.94,2.94,0,0,1-.8.62,1.76,1.76,0,0,1-.79.18,1.33,1.33,0,0,1-.65-.15,1,1,0,0,1-.44-.4,1.24,1.24,0,0,1,.56-1.71,5.07,5.07,0,0,1,2.11-.45v-.32a2.52,2.52,0,0,0-.1-.8.8.8,0,0,0-.3-.43,1,1,0,0,0-.56-.13.89.89,0,0,0-.62.2,1.24,1.24,0,0,0-.35.6h-.64v-.64c.32-.16.58-.28.79-.36a6.32,6.32,0,0,1,.62-.18,3.36,3.36,0,0,1,.63-.06,1.69,1.69,0,0,1,.78.15,1,1,0,0,1,.44.47,2.34,2.34,0,0,1,.15,1V65.3a2.4,2.4,0,0,0,0,.28.77.77,0,0,0,.07.2.64.64,0,0,0,.15.13l.31.11v.24h-1.34ZM258.86,64a3.45,3.45,0,0,0-1.48.27.82.82,0,0,0-.5.76.7.7,0,0,0,.12.44.54.54,0,0,0,.28.22,1,1,0,0,0,.41.07,1.13,1.13,0,0,0,.6-.17,1.1,1.1,0,0,0,.42-.41.93.93,0,0,0,.15-.49Z"/><path class="g" d="M262.31,62.36h0a6.76,6.76,0,0,1,.61-.54,1.69,1.69,0,0,1,.44-.23,1.39,1.39,0,0,1,.46-.08,1.43,1.43,0,0,1,.48.07,1,1,0,0,1,.37.19,1,1,0,0,1,.26.32,1.32,1.32,0,0,1,.15.45,3.86,3.86,0,0,1,0,.66V65a3.73,3.73,0,0,0,0,.58.48.48,0,0,0,.14.24,1.08,1.08,0,0,0,.38.16v.24h-1.93V66l.28-.1a.53.53,0,0,0,.14-.12.92.92,0,0,0,.08-.25,2,2,0,0,0,0-.49V63.78a5.87,5.87,0,0,0-.07-1,.86.86,0,0,0-.26-.52.93.93,0,0,0-.89-.1,1.39,1.39,0,0,0-.36.24,1.42,1.42,0,0,0-.31.36.83.83,0,0,0-.11.4V65a4.55,4.55,0,0,0,0,.47.68.68,0,0,0,.07.24.45.45,0,0,0,.15.16,1.31,1.31,0,0,0,.31.11v.24h-1.94V66a1.68,1.68,0,0,0,.31-.11.38.38,0,0,0,.14-.14.56.56,0,0,0,.08-.24,3.12,3.12,0,0,0,0-.49V60.3a2.31,2.31,0,0,0,0-.32.53.53,0,0,0-.09-.2.44.44,0,0,0-.15-.12,1.52,1.52,0,0,0-.35-.09v-.25l1.18,0h.29Z"/><path class="g" d="M270.42,65.43a3.18,3.18,0,0,1-.57.51,1.92,1.92,0,0,1-.57.29,2.17,2.17,0,0,1-.69.11,1.86,1.86,0,0,1-1.52-.61,2.68,2.68,0,0,1-.51-1.78,2.9,2.9,0,0,1,.26-1.28,2,2,0,0,1,.74-.86,2.32,2.32,0,0,1,2-.15,1.49,1.49,0,0,1,.55.43,1.84,1.84,0,0,1,.32.69,4.27,4.27,0,0,1,.13,1.07h-3.07v.09a3,3,0,0,0,.13,1,1.13,1.13,0,0,0,.42.61,1.24,1.24,0,0,0,.77.23,1.66,1.66,0,0,0,.72-.15,2.11,2.11,0,0,0,.64-.49Zm-.82-2a3.82,3.82,0,0,0-.13-.87,1.15,1.15,0,0,0-.3-.51.8.8,0,0,0-.54-.18.93.93,0,0,0-.8.41,2.12,2.12,0,0,0-.36,1.15Z"/><path class="g" d="M274.22,65.56l-.07,0a2.94,2.94,0,0,1-.8.62,1.79,1.79,0,0,1-.79.18,1.4,1.4,0,0,1-.66-.15,1,1,0,0,1-.43-.4,1.24,1.24,0,0,1,.55-1.71,5.12,5.12,0,0,1,2.12-.45v-.32a2.52,2.52,0,0,0-.1-.8.8.8,0,0,0-.3-.43,1,1,0,0,0-.57-.13.88.88,0,0,0-.61.2,1.24,1.24,0,0,0-.35.6h-.64v-.64c.31-.16.58-.28.78-.36s.42-.13.63-.18a3.36,3.36,0,0,1,.63-.06,1.72,1.72,0,0,1,.78.15,1,1,0,0,1,.44.47,2.34,2.34,0,0,1,.15,1V65.3a1.27,1.27,0,0,0,0,.28.77.77,0,0,0,.07.2.49.49,0,0,0,.15.13,1.68,1.68,0,0,0,.31.11v.24H274.2ZM274.14,64a3.45,3.45,0,0,0-1.48.27.82.82,0,0,0-.5.76.7.7,0,0,0,.12.44.51.51,0,0,0,.28.22,1,1,0,0,0,.4.07,1.14,1.14,0,0,0,.61-.17,1.1,1.1,0,0,0,.42-.41.93.93,0,0,0,.15-.49Z"/><path class="g" d="M279.58,61c0-.31,0-.53,0-.65a1.39,1.39,0,0,0,0-.32.76.76,0,0,0-.08-.2.4.4,0,0,0-.16-.12,1.4,1.4,0,0,0-.34-.09v-.25l1.18,0h.29v5.66c0,.25,0,.43,0,.54a.74.74,0,0,0,.07.26.33.33,0,0,0,.15.16A1.43,1.43,0,0,0,281,66v.25l-1.15,0h-.29l.05-.8-.07,0A3.67,3.67,0,0,1,279,66a2.3,2.3,0,0,1-.49.26,1.63,1.63,0,0,1-.55.1,1.44,1.44,0,0,1-1.23-.61,3.55,3.55,0,0,1-.15-3.12,1.86,1.86,0,0,1,.76-.83,2.16,2.16,0,0,1,1.08-.27,3.51,3.51,0,0,1,.59.05,2.57,2.57,0,0,1,.54.17Zm0,2.41a5,5,0,0,0,0-.61,1.55,1.55,0,0,0-.12-.38.82.82,0,0,0-.22-.27.85.85,0,0,0-.3-.15,1.48,1.48,0,0,0-.39-.05,1.07,1.07,0,0,0-.95.5,2.6,2.6,0,0,0-.33,1.44,3,3,0,0,0,.27,1.42.87.87,0,0,0,.82.49,1.16,1.16,0,0,0,.35,0,1,1,0,0,0,.28-.11,2.42,2.42,0,0,0,.28-.22,3,3,0,0,0,.21-.26,1.69,1.69,0,0,0,.1-.27,2.06,2.06,0,0,0,0-.39Z"/><path class="g" d="M238.87,75.79a6.3,6.3,0,0,0,.55,2.82,2.85,2.85,0,0,0,1.68,1.48l-.12.38a3.53,3.53,0,0,1-2.19-1.62,6.34,6.34,0,0,1,0-6A3.55,3.55,0,0,1,241,71.2l.13.38a2.82,2.82,0,0,0-1.69,1.47A6,6,0,0,0,238.87,75.79Z"/><path class="g" d="M245.67,77.43a3.56,3.56,0,0,1-.57.51,2,2,0,0,1-.57.29,2.17,2.17,0,0,1-.69.11,1.86,1.86,0,0,1-1.52-.61,2.68,2.68,0,0,1-.51-1.78,2.9,2.9,0,0,1,.26-1.28,2,2,0,0,1,.74-.86,2.09,2.09,0,0,1,1.12-.3,2.17,2.17,0,0,1,.84.15,1.49,1.49,0,0,1,.55.43,1.84,1.84,0,0,1,.32.69,4.27,4.27,0,0,1,.13,1.07H242.7v.09a3.38,3.38,0,0,0,.12,1,1.2,1.2,0,0,0,.43.61,1.24,1.24,0,0,0,.77.23,1.66,1.66,0,0,0,.72-.15,2.23,2.23,0,0,0,.64-.49Zm-.82-2a3.82,3.82,0,0,0-.13-.87,1.08,1.08,0,0,0-.31-.51.76.76,0,0,0-.53-.18,1,1,0,0,0-.81.41,2.21,2.21,0,0,0-.35,1.15Z"/><path class="g" d="M248,77a3.4,3.4,0,0,0,0,.58.48.48,0,0,0,.15.25,1,1,0,0,0,.36.15v.24h-1.94V78a1.08,1.08,0,0,0,.34-.13.38.38,0,0,0,.14-.17.76.76,0,0,0,.06-.25c0-.11,0-.26,0-.43V72.3a2.31,2.31,0,0,0,0-.32.53.53,0,0,0-.09-.2.44.44,0,0,0-.15-.12,1.68,1.68,0,0,0-.35-.09v-.25l1.18,0H248Z"/><path class="g" d="M251.49,78.34a2,2,0,0,1-1.55-.6A2.57,2.57,0,0,1,249.4,76a3.08,3.08,0,0,1,.28-1.36,1.94,1.94,0,0,1,.77-.83,2.29,2.29,0,0,1,1.12-.27,2,2,0,0,1,1.58.61,2.52,2.52,0,0,1,.54,1.74,3.13,3.13,0,0,1-.27,1.37,1.81,1.81,0,0,1-.76.83A2.3,2.3,0,0,1,251.49,78.34Zm.5-7.12v.24L250.54,73l-.32-.25,1.1-1.56Zm-1.66,4.65a3,3,0,0,0,.32,1.54,1,1,0,0,0,.91.54.93.93,0,0,0,.56-.16,1.16,1.16,0,0,0,.37-.42,2,2,0,0,0,.21-.63,4.35,4.35,0,0,0,.06-.74,3.68,3.68,0,0,0-.16-1.19,1.35,1.35,0,0,0-.43-.69,1,1,0,0,0-.62-.23,1,1,0,0,0-.91.52A2.81,2.81,0,0,0,250.33,75.87Zm3.15-4.65v.24L252,73l-.33-.25,1.11-1.56Z"/><path class="g" d="M256,74.4l.07,0a3.6,3.6,0,0,1,.5-.52,2,2,0,0,1,.49-.29,1.66,1.66,0,0,1,.61-.1,4,4,0,0,1,.51,0v1.12h-.55a1.08,1.08,0,0,0-.25-.38.52.52,0,0,0-.36-.12.64.64,0,0,0-.35.1,1.33,1.33,0,0,0-.34.3,1.45,1.45,0,0,0-.22.36,1.27,1.27,0,0,0-.06.41V77a2.68,2.68,0,0,0,0,.61.48.48,0,0,0,.18.25,1.21,1.21,0,0,0,.38.12v.24h-2V78a1.58,1.58,0,0,0,.26-.1.41.41,0,0,0,.14-.12.67.67,0,0,0,.09-.24,3.13,3.13,0,0,0,0-.51V74.92c0-.2,0-.37,0-.5a.73.73,0,0,0-.07-.3.33.33,0,0,0-.18-.17,1.41,1.41,0,0,0-.34-.1V73.6l1.15,0H256Z"/><path class="g" d="M262.56,77.43a3.56,3.56,0,0,1-.57.51,2,2,0,0,1-.57.29,2.17,2.17,0,0,1-.69.11,1.86,1.86,0,0,1-1.52-.61A2.68,2.68,0,0,1,258.7,76a2.9,2.9,0,0,1,.26-1.28,2,2,0,0,1,.74-.86,2.09,2.09,0,0,1,1.12-.3,2.17,2.17,0,0,1,.84.15,1.49,1.49,0,0,1,.55.43,1.84,1.84,0,0,1,.32.69,4.27,4.27,0,0,1,.13,1.07h-3.08v.09a3.35,3.35,0,0,0,.13,1,1.2,1.2,0,0,0,.43.61,1.24,1.24,0,0,0,.77.23,1.69,1.69,0,0,0,.72-.15,2.23,2.23,0,0,0,.64-.49Zm-.82-2a3.82,3.82,0,0,0-.13-.87,1.08,1.08,0,0,0-.31-.51.76.76,0,0,0-.53-.18,1,1,0,0,0-.81.41,2.21,2.21,0,0,0-.35,1.15Z"/><path class="g" d="M263.25,73.84a1.18,1.18,0,0,0,.39-.14.82.82,0,0,0,.24-.25,1.27,1.27,0,0,0,.13-.39,6.62,6.62,0,0,0,.11-.67h.69v1.2h1.58v.49h-1.58v2.18a5.11,5.11,0,0,0,0,.75,1,1,0,0,0,.15.44.65.65,0,0,0,.24.23.87.87,0,0,0,.35.07,1,1,0,0,0,.37-.08,1.38,1.38,0,0,0,.33-.24l.22.27a3.16,3.16,0,0,1-.65.49,1.47,1.47,0,0,1-.65.15,1.12,1.12,0,0,1-.93-.38,1.78,1.78,0,0,1-.31-1.17V74.08h-.72Z"/><path class="g" d="M270.74,77.43a3.58,3.58,0,0,1-.58.51,1.92,1.92,0,0,1-.57.29,2.17,2.17,0,0,1-.69.11,1.86,1.86,0,0,1-1.52-.61,2.68,2.68,0,0,1-.51-1.78,3,3,0,0,1,.26-1.28,2,2,0,0,1,.75-.86,2.05,2.05,0,0,1,1.11-.3,2.1,2.1,0,0,1,.84.15,1.41,1.41,0,0,1,.55.43,2,2,0,0,1,.33.69,4.33,4.33,0,0,1,.12,1.07h-3.07v.09a3,3,0,0,0,.13,1,1.18,1.18,0,0,0,.42.61,1.26,1.26,0,0,0,.77.23,1.66,1.66,0,0,0,.72-.15,2,2,0,0,0,.64-.49Zm-.82-2a4.47,4.47,0,0,0-.13-.87,1.16,1.16,0,0,0-.31-.51.8.8,0,0,0-.54-.18,1,1,0,0,0-.8.41,2.2,2.2,0,0,0-.36,1.15Z"/><path class="g" d="M273,75.54h.15a1,1,0,0,0,.27,0,1.25,1.25,0,0,0,.27-.15c.09-.07.23-.19.41-.36s.26-.26.34-.35a1,1,0,0,0,.16-.27.52.52,0,0,0,0-.21.3.3,0,0,0-.09-.23.61.61,0,0,0-.3-.11v-.24h2.11v.24a1.59,1.59,0,0,0-.48.2,2.66,2.66,0,0,0-.52.41l-1.13,1.07,1.41,1.83a2.68,2.68,0,0,0,.44.48,1.06,1.06,0,0,0,.43.2v.24h-1.87V78a.43.43,0,0,0,.19-.06s.06-.07.06-.14a.39.39,0,0,0,0-.14.8.8,0,0,0-.11-.19l-.3-.43-.58-.78c-.11-.14-.19-.24-.24-.29a.6.6,0,0,0-.15-.09.58.58,0,0,0-.21,0H273V77a2.59,2.59,0,0,0,0,.58.38.38,0,0,0,.15.25.89.89,0,0,0,.35.15v.24h-1.93V78a1.11,1.11,0,0,0,.33-.13.38.38,0,0,0,.14-.17.76.76,0,0,0,.06-.25c0-.11,0-.26,0-.43V73c0-.31,0-.53,0-.65a1.39,1.39,0,0,0,0-.32.53.53,0,0,0-.09-.2.31.31,0,0,0-.15-.12,1.55,1.55,0,0,0-.34-.09v-.25l1.17,0h.3Z"/><path class="g" d="M277,78a1.79,1.79,0,0,0,.27-.1.53.53,0,0,0,.14-.12,1,1,0,0,0,.08-.24,2.89,2.89,0,0,0,0-.51V74.92c0-.2,0-.37,0-.5a.73.73,0,0,0-.07-.3.33.33,0,0,0-.18-.17,1.41,1.41,0,0,0-.34-.1v-.26l1.14,0h.3V77a3.73,3.73,0,0,0,0,.58.48.48,0,0,0,.15.25,1,1,0,0,0,.36.15v.24H277Zm1.39-6.34v.94h-.89v-.94Z"/><path class="g" d="M284.49,78.26h-1.92V78a1.44,1.44,0,0,0,.27-.1.41.41,0,0,0,.14-.12.66.66,0,0,0,.09-.25,2.93,2.93,0,0,0,0-.49V75.78c0-.23,0-.44,0-.62a1.78,1.78,0,0,0-.07-.46.82.82,0,0,0-.11-.28.8.8,0,0,0-.15-.17,1,1,0,0,0-.21-.11.9.9,0,0,0-.31,0,.86.86,0,0,0-.36.07,1.81,1.81,0,0,0-.38.27,1.31,1.31,0,0,0-.29.36.82.82,0,0,0-.1.42V77a3.4,3.4,0,0,0,0,.58.48.48,0,0,0,.15.25.88.88,0,0,0,.36.15v.24h-1.91V78l.27-.1a.37.37,0,0,0,.13-.12.67.67,0,0,0,.09-.24,3.13,3.13,0,0,0,0-.51V74.92c0-.2,0-.37,0-.5a.75.75,0,0,0-.06-.3A.33.33,0,0,0,280,74a1.56,1.56,0,0,0-.34-.1v-.26l1.14,0h.3l-.06.79.07,0a4.43,4.43,0,0,1,.59-.52,2,2,0,0,1,.45-.24,1.28,1.28,0,0,1,.48-.09,1.73,1.73,0,0,1,.47.06,1,1,0,0,1,.36.19,1,1,0,0,1,.27.32,2,2,0,0,1,.15.45,4,4,0,0,1,.05.67V77c0,.22,0,.39,0,.49a.57.57,0,0,0,.07.23.38.38,0,0,0,.14.14,1.2,1.2,0,0,0,.32.12Z"/><path class="g" d="M285,73.84a1.16,1.16,0,0,0,.4-.14.82.82,0,0,0,.24-.25,1.62,1.62,0,0,0,.13-.39c0-.15.07-.38.1-.67h.7v1.2h1.57v.49h-1.57v2.18a5.11,5.11,0,0,0,0,.75,1,1,0,0,0,.14.44.68.68,0,0,0,.25.23.83.83,0,0,0,.35.07.86.86,0,0,0,.36-.08,1.25,1.25,0,0,0,.34-.24l.22.27a3,3,0,0,1-.66.49,1.43,1.43,0,0,1-.64.15,1.16,1.16,0,0,1-.94-.38,1.84,1.84,0,0,1-.3-1.17V74.08H285Z"/><path class="g" d="M292.51,77.43a3.18,3.18,0,0,1-.57.51,1.92,1.92,0,0,1-.57.29,2.17,2.17,0,0,1-.69.11,1.86,1.86,0,0,1-1.52-.61,2.68,2.68,0,0,1-.51-1.78,2.9,2.9,0,0,1,.26-1.28,2,2,0,0,1,.74-.86,2.32,2.32,0,0,1,2-.15,1.49,1.49,0,0,1,.55.43,1.84,1.84,0,0,1,.32.69,4.27,4.27,0,0,1,.13,1.07h-3.07v.09a3,3,0,0,0,.13,1,1.13,1.13,0,0,0,.42.61,1.24,1.24,0,0,0,.77.23,1.66,1.66,0,0,0,.72-.15,2.23,2.23,0,0,0,.64-.49Zm-.82-2a3.82,3.82,0,0,0-.13-.87,1.08,1.08,0,0,0-.31-.51.76.76,0,0,0-.53-.18.93.93,0,0,0-.8.41,2.12,2.12,0,0,0-.36,1.15Zm.2-4.23v.24L290.35,73l-.32-.25,1-1.56Z"/><path class="g" d="M296.76,74.66h-.47a1.42,1.42,0,0,0-.25-.46.93.93,0,0,0-.33-.24,1.53,1.53,0,0,0-.46-.07,1,1,0,0,0-.62.19.61.61,0,0,0-.23.5.7.7,0,0,0,.09.37.85.85,0,0,0,.29.27,4.36,4.36,0,0,0,.69.34,4.91,4.91,0,0,1,.77.39,1.52,1.52,0,0,1,.42.42,1,1,0,0,1,.16.58,1.45,1.45,0,0,1-.14.65,1.07,1.07,0,0,1-.37.42,1.33,1.33,0,0,1-.57.24,3.11,3.11,0,0,1-.72.08,5.16,5.16,0,0,1-.79-.06c-.26,0-.51-.1-.75-.16v-1H294a1,1,0,0,0,1.1.85,1.87,1.87,0,0,0,.34,0,.83.83,0,0,0,.3-.13.52.52,0,0,0,.21-.23.81.81,0,0,0,.08-.37.7.7,0,0,0-.1-.4.93.93,0,0,0-.3-.29c-.14-.08-.38-.2-.72-.35a3.56,3.56,0,0,1-.71-.36,1.41,1.41,0,0,1-.43-.41,1.05,1.05,0,0,1-.15-.57,1.08,1.08,0,0,1,.22-.69,1.35,1.35,0,0,1,.62-.46,2.86,2.86,0,0,1,1-.15c.21,0,.42,0,.62,0s.45.06.75.12Z"/><path class="g" d="M299.74,75.79a6,6,0,0,0-.55-2.74,2.79,2.79,0,0,0-1.69-1.47l.13-.38a3.55,3.55,0,0,1,2.19,1.63,6.27,6.27,0,0,1,0,6,3.48,3.48,0,0,1-2.19,1.62l-.12-.38a2.79,2.79,0,0,0,1.68-1.48A6.3,6.3,0,0,0,299.74,75.79Z"/><polyline class="f" points="236.15 247.52 229.93 243.07 235.69 237.31"/><polyline class="f" points="289.67 237.9 295.89 242.34 290.12 248.11"/><line class="f" x1="294.85" y1="242.41" x2="231.15" y2="242.41"/></svg>