<svg xmlns="http://www.w3.org/2000/svg" viewBox="0 0 600 400"><defs><style>.a,.e{fill:#ef4638;}.b{fill:#152742;}.c{fill:#fff;}.d{fill:#27adc4;}.e,.h,.i{stroke:#152742;stroke-miterlimit:10;stroke-width:3px;}.f{fill:none;stroke:#128a7b;stroke-linecap:round;stroke-linejoin:round;stroke-width:1.55px;}.g{fill:#128a7b;}.h{fill:#1eaec5;}.i{fill:#138b7b;}</style></defs><rect class="a" x="17.51" y="23.37" width="157.8" height="96.59" rx="8.3"/><path class="b" d="M168.91,22h-145a8.37,8.37,0,0,0-8.36,8.36V113.1a8.37,8.37,0,0,0,8.36,8.36h67.3l-.75,6.74c-5.76.54-9.83,1.84-9.83,3.36,0,2,7.07,3.63,15.78,3.63s15.78-1.63,15.78-3.63c0-1.53-4.09-2.83-9.89-3.36l-.91-6.74h67.52a8.37,8.37,0,0,0,8.37-8.36V30.37A8.37,8.37,0,0,0,168.91,22Zm4.37,91.09a4.37,4.37,0,0,1-4.37,4.36h-145a4.37,4.37,0,0,1-4.36-4.36V30.37A4.36,4.36,0,0,1,23.91,26h145a4.37,4.37,0,0,1,4.37,4.36Z"/><ellipse class="c" cx="73.25" cy="70.86" rx="7.61" ry="7.62"/><ellipse class="c" cx="104.93" cy="54.16" rx="7.61" ry="7.62"/><path class="c" d="M90.41,90.47a18.53,18.53,0,0,1-12.64-9.65,10.84,10.84,0,0,1-6.5.8,24.76,24.76,0,0,0,17.83,15,25.19,25.19,0,0,0,5.4.55,10.89,10.89,0,0,1-2.23-6.37C91.65,90.7,91,90.6,90.41,90.47Z"/><ellipse class="c" cx="103.22" cy="90.51" rx="7.61" ry="7.62"/><path class="c" d="M113.8,87.71A24.94,24.94,0,0,0,115,58.47a11,11,0,0,1-4.28,5A18.68,18.68,0,0,1,110.15,82,10.85,10.85,0,0,1,113.8,87.71Z"/><path class="c" d="M72.66,59.94h.58A10.9,10.9,0,0,1,79,61.59a18.54,18.54,0,0,1,14.94-8,11,11,0,0,1,2.31-6.18A25,25,0,0,0,72.66,59.94Z"/><rect class="d" x="221.08" y="26.04" width="157.8" height="96.59" rx="8.3"/><rect class="e" x="235.92" y="34.63" width="60.08" height="33.93" rx="5.64"/><path class="b" d="M372.47,24.68h-145A8.37,8.37,0,0,0,219.11,33v82.73a8.37,8.37,0,0,0,8.36,8.36h67.3l-.75,6.74c-5.76.54-9.83,1.84-9.83,3.36,0,2,7.07,3.63,15.78,3.63s15.78-1.63,15.78-3.63c0-1.53-4.09-2.83-9.89-3.36l-.91-6.74h67.52a8.37,8.37,0,0,0,8.37-8.36V33A8.37,8.37,0,0,0,372.47,24.68Zm4.37,91.09a4.37,4.37,0,0,1-4.37,4.36h-145a4.37,4.37,0,0,1-4.36-4.36V33a4.36,4.36,0,0,1,4.36-4.36h145A4.37,4.37,0,0,1,376.84,33Z"/><path class="c" d="M251.47,83.4,262,82V92.15l-10.57.06ZM262,93.33v10.2l-10.56-1.45V93.26Zm1.29-11.56,14-2V92.05l-14,.11Zm14,11.65v12.24l-14-2V93.4Z"/><ellipse class="c" cx="256.33" cy="50.93" rx="3.43" ry="3.43"/><ellipse class="c" cx="270.6" cy="43.4" rx="3.43" ry="3.43"/><path class="c" d="M264.06,59.77a8.36,8.36,0,0,1-5.7-4.35,4.91,4.91,0,0,1-2.93.36,11.19,11.19,0,0,0,8,6.76,11.72,11.72,0,0,0,2.43.25,4.92,4.92,0,0,1-1-2.87Z"/><ellipse class="c" cx="269.83" cy="59.78" rx="3.43" ry="3.43"/><path class="c" d="M274.6,58.52a11.24,11.24,0,0,0,.56-13.18,5,5,0,0,1-1.93,2.26A8.4,8.4,0,0,1,273,56,4.91,4.91,0,0,1,274.6,58.52Z"/><path class="c" d="M256.06,46h.26a4.88,4.88,0,0,1,2.6.74,8.37,8.37,0,0,1,6.74-3.61,4.88,4.88,0,0,1,1-2.78A11.27,11.27,0,0,0,256.06,46Z"/><rect class="e" x="305.55" y="34.63" width="60.08" height="33.93" rx="5.64"/><ellipse class="c" cx="325.96" cy="50.93" rx="3.43" ry="3.43"/><ellipse class="c" cx="340.23" cy="43.4" rx="3.43" ry="3.43"/><path class="c" d="M333.69,59.77a8.36,8.36,0,0,1-5.7-4.35,4.91,4.91,0,0,1-2.93.36,11.19,11.19,0,0,0,8,6.76,11.72,11.72,0,0,0,2.43.25,4.92,4.92,0,0,1-1-2.87Z"/><ellipse class="c" cx="339.46" cy="59.78" rx="3.43" ry="3.43"/><path class="c" d="M344.23,58.52a11.24,11.24,0,0,0,.56-13.18,5,5,0,0,1-1.93,2.26,8.43,8.43,0,0,1-.27,8.36A4.91,4.91,0,0,1,344.23,58.52Z"/><path class="c" d="M325.69,46H326a4.88,4.88,0,0,1,2.6.74,8.37,8.37,0,0,1,6.74-3.61,4.88,4.88,0,0,1,1-2.78A11.27,11.27,0,0,0,325.69,46Z"/><rect class="e" x="305.55" y="75.22" width="60.08" height="33.93" rx="5.64"/><ellipse class="c" cx="325.96" cy="91.52" rx="3.43" ry="3.43"/><ellipse class="c" cx="340.23" cy="83.99" rx="3.43" ry="3.43"/><path class="c" d="M333.69,100.36A8.36,8.36,0,0,1,328,96a4.91,4.91,0,0,1-2.93.36,11.17,11.17,0,0,0,8,6.76,11.72,11.72,0,0,0,2.43.25,4.89,4.89,0,0,1-1-2.87Z"/><ellipse class="c" cx="339.46" cy="100.38" rx="3.43" ry="3.43"/><path class="c" d="M344.23,99.12a11.24,11.24,0,0,0,.56-13.18,5,5,0,0,1-1.93,2.25,8.43,8.43,0,0,1-.27,8.36A4.94,4.94,0,0,1,344.23,99.12Z"/><path class="c" d="M325.69,86.6H326a5,5,0,0,1,2.6.74,8.33,8.33,0,0,1,6.74-3.6,4.88,4.88,0,0,1,1-2.79A11.27,11.27,0,0,0,325.69,86.6Z"/><rect class="d" x="418.7" y="27.37" width="157.8" height="96.59" rx="8.3"/><rect class="e" x="466.94" y="37" width="100.25" height="75.11" rx="5.64"/><path class="b" d="M570.1,26h-145a8.37,8.37,0,0,0-8.36,8.36V117.1a8.37,8.37,0,0,0,8.36,8.36h67.3l-.75,6.74c-5.76.54-9.83,1.84-9.83,3.36,0,2,7.07,3.63,15.78,3.63s15.78-1.63,15.78-3.63c0-1.53-4.09-2.83-9.89-3.36l-.91-6.74H570.1a8.37,8.37,0,0,0,8.37-8.36V34.37A8.37,8.37,0,0,0,570.1,26Zm4.37,91.09a4.37,4.37,0,0,1-4.37,4.36h-145a4.37,4.37,0,0,1-4.36-4.36V34.37A4.36,4.36,0,0,1,425.1,30h145a4.37,4.37,0,0,1,4.37,4.36Z"/><path class="c" d="M430.43,65.51,441,64.07V74.26l-10.57.06ZM441,75.44v10.2l-10.56-1.45V75.37Zm1.28-11.56,14-2V74.16l-14,.11Zm14,11.65V87.78l-14-2V75.51Z"/><ellipse class="c" cx="504.38" cy="73.58" rx="5.04" ry="5.04"/><ellipse class="c" cx="525.36" cy="62.52" rx="5.04" ry="5.04"/><path class="c" d="M515.74,86.56a12.26,12.26,0,0,1-8.37-6.39,7.14,7.14,0,0,1-4.3.53A16.49,16.49,0,0,0,518.45,91,7.25,7.25,0,0,1,517,86.78C516.56,86.71,516.16,86.65,515.74,86.56Z"/><ellipse class="c" cx="524.22" cy="86.59" rx="5.04" ry="5.04"/><path class="c" d="M531.23,84.73a16.5,16.5,0,0,0,.82-19.35,7.35,7.35,0,0,1-2.83,3.31A12.38,12.38,0,0,1,528.81,81,7.16,7.16,0,0,1,531.23,84.73Z"/><path class="c" d="M504,66.35h.38a7.22,7.22,0,0,1,3.82,1.09,12.26,12.26,0,0,1,9.9-5.29,7.3,7.3,0,0,1,1.53-4.1A16.56,16.56,0,0,0,504,66.35Z"/><path class="b" d="M66.55,160.39h3.33a4.62,4.62,0,0,1,1.78.34,4.56,4.56,0,0,1,1.47,1,4.29,4.29,0,0,1,1,1.46,4.46,4.46,0,0,1-1,5,4.76,4.76,0,0,1-1.47,1,4.61,4.61,0,0,1-1.77.34H66.55Zm2.35,7.05h.53a3.22,3.22,0,0,0,1-.15,2.25,2.25,0,0,0,.83-.46,2.16,2.16,0,0,0,.57-.8,3,3,0,0,0,.2-1.12,2.46,2.46,0,0,0-.71-1.86,2.58,2.58,0,0,0-1.87-.67H68.9Z"/><path class="b" d="M77.67,163.28v3.29a1.81,1.81,0,0,0,.23,1,1,1,0,0,0,.86.34,1,1,0,0,0,.86-.34,1.73,1.73,0,0,0,.23-1v-3.29H82V167a2.86,2.86,0,0,1-.25,1.26,2,2,0,0,1-.68.81,3.09,3.09,0,0,1-1,.44,6,6,0,0,1-1.32.14,5.85,5.85,0,0,1-1.31-.14,2.92,2.92,0,0,1-1-.44,2.12,2.12,0,0,1-.69-.82,2.93,2.93,0,0,1-.24-1.25v-3.71Z"/><path class="b" d="M90.16,169.43H88v-.68h0a1.69,1.69,0,0,1-.78.66,2.58,2.58,0,0,1-1.08.23,3,3,0,0,1-1.23-.26,2.88,2.88,0,0,1-1-.72,3.55,3.55,0,0,1-.65-3.56,3.12,3.12,0,0,1,.64-1,2.93,2.93,0,0,1,2.22-1,2.75,2.75,0,0,1,1.06.21,2.06,2.06,0,0,1,.85.6v-.6h2.18Zm-4.54-4.06a1.41,1.41,0,0,0-.38,1,1.37,1.37,0,0,0,.38,1,1.54,1.54,0,0,0,2,0,1.37,1.37,0,0,0,.38-1,1.41,1.41,0,0,0-.38-1,1.51,1.51,0,0,0-2,0Z"/><path class="b" d="M93.8,169.43H91.61v-10H93.8Z"/><path class="b" d="M99.28,159.47h2.18v4.41a2.06,2.06,0,0,1,.85-.6,2.75,2.75,0,0,1,1.06-.21,3,3,0,0,1,1.24.26,3.07,3.07,0,0,1,1.62,1.77,3.47,3.47,0,0,1,.23,1.25,3.56,3.56,0,0,1-.23,1.26,3.45,3.45,0,0,1-.64,1.06,3,3,0,0,1-2.24,1,2.77,2.77,0,0,1-1.07-.22,1.73,1.73,0,0,1-.79-.67h0v.68H99.28Zm2.49,5.9a1.41,1.41,0,0,0-.38,1,1.37,1.37,0,0,0,.38,1,1.54,1.54,0,0,0,2,0,1.37,1.37,0,0,0,.38-1,1.41,1.41,0,0,0-.38-1,1.51,1.51,0,0,0-2,0Z"/><path class="b" d="M112.21,163.3a3.55,3.55,0,0,1,1.18.64,2.77,2.77,0,0,1,.81,1,3.32,3.32,0,0,1,0,2.76,2.9,2.9,0,0,1-.8,1,3.7,3.7,0,0,1-1.19.65,4.79,4.79,0,0,1-1.42.22,4.44,4.44,0,0,1-1.42-.22,3.45,3.45,0,0,1-1.18-.64,2.85,2.85,0,0,1-.81-1,3.32,3.32,0,0,1,0-2.76,2.77,2.77,0,0,1,.81-1,3.45,3.45,0,0,1,1.18-.64,4.45,4.45,0,0,1,1.42-.23A4.49,4.49,0,0,1,112.21,163.3Zm-2.45,2.07a1.41,1.41,0,0,0-.38,1,1.32,1.32,0,0,0,1.41,1.38,1.35,1.35,0,0,0,1-.39,1.33,1.33,0,0,0,.38-1,1.37,1.37,0,0,0-.38-1,1.32,1.32,0,0,0-1-.4A1.36,1.36,0,0,0,109.76,165.37Z"/><path class="b" d="M120.15,163.3a3.6,3.6,0,0,1,1.19.64,3,3,0,0,1,.81,1,3.25,3.25,0,0,1,.29,1.38,3.28,3.28,0,0,1-.29,1.38,3,3,0,0,1-.81,1,3.6,3.6,0,0,1-1.19.65,4.74,4.74,0,0,1-1.42.22,4.38,4.38,0,0,1-1.41-.22,3.5,3.5,0,0,1-1.19-.64,2.85,2.85,0,0,1-.81-1,3.32,3.32,0,0,1,0-2.76,2.77,2.77,0,0,1,.81-1,3.5,3.5,0,0,1,1.19-.64,4.39,4.39,0,0,1,1.41-.23A4.45,4.45,0,0,1,120.15,163.3Zm-2.44,2.07a1.37,1.37,0,0,0-.38,1,1.33,1.33,0,0,0,.38,1,1.35,1.35,0,0,0,1,.39,1.32,1.32,0,0,0,1.41-1.38,1.41,1.41,0,0,0-.38-1,1.34,1.34,0,0,0-1-.4A1.32,1.32,0,0,0,117.71,165.37Z"/><path class="b" d="M125.81,169.43h-2.18v-4.35h-.71v-1.8h.71v-1.85h2.18v1.85h1.24v1.8h-1.24Z"/><path class="b" d="M286.42,166.23h0l1.89-5.84h1.88l1.77,5.84h0l1.7-5.84h2.45l-2.89,9h-2.4l-1.59-5.24h0l-1.78,5.24H285.1l-2.7-9h2.45Z"/><path class="b" d="M301.72,162.71a2.7,2.7,0,0,0-.73-.43,2.2,2.2,0,0,0-.83-.17,1.27,1.27,0,0,0-.69.21.62.62,0,0,0-.31.55.59.59,0,0,0,.28.53,3.67,3.67,0,0,0,.76.33l.6.18a5.45,5.45,0,0,1,.9.35,3.24,3.24,0,0,1,.7.49,2,2,0,0,1,.47.7,2.47,2.47,0,0,1,.16.94,4.32,4.32,0,0,1-.21,1.37,2.51,2.51,0,0,1-.72,1.06,3.29,3.29,0,0,1-1.18.64,4.64,4.64,0,0,1-1.39.21,5.25,5.25,0,0,1-1.66-.27,5.55,5.55,0,0,1-1.52-.76l1-1.89a4.78,4.78,0,0,0,1,.68,2.44,2.44,0,0,0,1.08.25,1.43,1.43,0,0,0,.81-.23.78.78,0,0,0,.33-.68.65.65,0,0,0-.12-.39,1.14,1.14,0,0,0-.33-.28,2,2,0,0,0-.42-.19l-.48-.15-.07,0c-.44-.13-.8-.25-1.07-.36a2.68,2.68,0,0,1-.73-.44,1.69,1.69,0,0,1-.48-.7,2.71,2.71,0,0,1-.17-1.06,3.11,3.11,0,0,1,.23-1.24,2.74,2.74,0,0,1,.64-1,3,3,0,0,1,1-.62,3.6,3.6,0,0,1,1.25-.21,5.51,5.51,0,0,1,1.46.2,6.31,6.31,0,0,1,1.37.54Z"/><path class="b" d="M306.5,167.44h2.82v2h-5.17v-9h2.35Z"/><path class="b" d="M317,167.44v2h-7.27l3.69-4a4.81,4.81,0,0,0,.74-1.06,2.49,2.49,0,0,0,.29-1.16,1.22,1.22,0,0,0-.29-.81.92.92,0,0,0-.74-.36.9.9,0,0,0-.72.31,1.21,1.21,0,0,0-.26.79,2.77,2.77,0,0,0,0,.39h-2.59a3.66,3.66,0,0,1,1-2.53,3.34,3.34,0,0,1,2.52-.95,4,4,0,0,1,1.34.22,3.34,3.34,0,0,1,1.13.65,3.09,3.09,0,0,1,1,2.34,3.27,3.27,0,0,1-.35,1.56,5.36,5.36,0,0,1-1.11,1.33L314,167.44Z"/><path class="b" d="M452.53,165.88l2.19-5.49h2.56l-3.87,9h-1.82l-3.8-9h2.55Z"/><path class="b" d="M460,160.05a1.22,1.22,0,0,1,0,1.73,1.23,1.23,0,0,1-2.09-.87,1.15,1.15,0,0,1,.37-.86,1.21,1.21,0,0,1,1.72,0Zm.23,9.38h-2.18v-6.15h2.18Z"/><path class="b" d="M463.87,164.29h0a2,2,0,0,1,.82-.83,2.46,2.46,0,0,1,1.17-.27h.42v2.1a1.56,1.56,0,0,0-.42-.16,2.47,2.47,0,0,0-.5,0,1.32,1.32,0,0,0-1.18.49,2.41,2.41,0,0,0-.33,1.37v2.48h-2.19v-6.15h2.19Z"/><path class="b" d="M469.72,169.43h-2.18v-4.35h-.71v-1.8h.71v-1.85h2.18v1.85H471v1.8h-1.24Z"/><path class="b" d="M473.8,163.28v3.29a1.72,1.72,0,0,0,.24,1,1,1,0,0,0,.85.34,1,1,0,0,0,.86-.34,1.73,1.73,0,0,0,.23-1v-3.29h2.19V167a2.86,2.86,0,0,1-.25,1.26,2,2,0,0,1-.68.81,3,3,0,0,1-1,.44,6,6,0,0,1-1.32.14,5.85,5.85,0,0,1-1.31-.14,2.92,2.92,0,0,1-1-.44,2.12,2.12,0,0,1-.69-.82,2.93,2.93,0,0,1-.24-1.25v-3.71Z"/><path class="b" d="M486.29,169.43h-2.18v-.68h0a1.69,1.69,0,0,1-.78.66,2.58,2.58,0,0,1-1.08.23,3,3,0,0,1-1.23-.26,2.88,2.88,0,0,1-1-.72,3.55,3.55,0,0,1-.65-3.56,3.12,3.12,0,0,1,.64-1,2.93,2.93,0,0,1,2.22-1,2.75,2.75,0,0,1,1.06.21,2.06,2.06,0,0,1,.85.6v-.6h2.18Zm-4.54-4.06a1.41,1.41,0,0,0-.38,1,1.37,1.37,0,0,0,.38,1,1.54,1.54,0,0,0,2.05,0,1.37,1.37,0,0,0,.38-1,1.41,1.41,0,0,0-.38-1,1.51,1.51,0,0,0-2.05,0Z"/><path class="b" d="M489.93,169.43h-2.18v-10h2.18Z"/><path class="b" d="M497.67,164.05h0a2.33,2.33,0,0,1,1.95-1,2.6,2.6,0,0,1,1.23.29,2.14,2.14,0,0,1,.87.89,2.09,2.09,0,0,1,.87-.87,2.56,2.56,0,0,1,1.21-.31,1.9,1.9,0,0,1,1.61.65,2.88,2.88,0,0,1,.49,1.79v3.92h-2.18v-2.94c0-.24,0-.46,0-.63a2.71,2.71,0,0,0-.11-.51.91.91,0,0,0-.27-.39.78.78,0,0,0-.5-.15,1,1,0,0,0-.58.15.92.92,0,0,0-.31.39,2.11,2.11,0,0,0-.12.51,5.78,5.78,0,0,0,0,.63v2.94h-2.19v-2.94a6,6,0,0,0,0-.63,1.84,1.84,0,0,0-.1-.52,1,1,0,0,0-1.4-.41.86.86,0,0,0-.29.41,2.29,2.29,0,0,0-.11.52c0,.18,0,.39,0,.63v2.94h-2.19v-6.15h2.19Z"/><path class="b" d="M514.08,169.43H511.9v-.68h0a1.8,1.8,0,0,1-.78.66,2.65,2.65,0,0,1-1.08.23,3,3,0,0,1-1.24-.26,3,3,0,0,1-1-.72,3.49,3.49,0,0,1-.87-2.31,3.46,3.46,0,0,1,.22-1.25,3.12,3.12,0,0,1,.64-1,3,3,0,0,1,2.22-1,2.75,2.75,0,0,1,1.06.21,2,2,0,0,1,.85.6v-.6h2.18Zm-4.54-4.06a1.41,1.41,0,0,0-.38,1,1.32,1.32,0,0,0,1.41,1.38,1.35,1.35,0,0,0,1-.39,1.33,1.33,0,0,0,.38-1,1.37,1.37,0,0,0-.38-1,1.32,1.32,0,0,0-1-.4A1.34,1.34,0,0,0,509.54,165.37Z"/><path class="b" d="M520,165.28a2.81,2.81,0,0,0-.55-.32,1.66,1.66,0,0,0-.58-.11,1.44,1.44,0,0,0-1.07.43,1.57,1.57,0,0,0,0,2.16,1.52,1.52,0,0,0,1.1.42,1.76,1.76,0,0,0,.59-.11,1.88,1.88,0,0,0,.51-.31v1.85a3.55,3.55,0,0,1-2.82.11,3.51,3.51,0,0,1-1.08-.67,3,3,0,0,1-.72-1,3.06,3.06,0,0,1-.27-1.28,3.32,3.32,0,0,1,.27-1.35,3.17,3.17,0,0,1,1.83-1.76,3.76,3.76,0,0,1,1.35-.24,3,3,0,0,1,1.44.36Z"/><path class="b" d="M523.52,159.47v4.59h0a2.51,2.51,0,0,1,.86-.75,2.39,2.39,0,0,1,1.11-.24,2.17,2.17,0,0,1,1.73.7,2.86,2.86,0,0,1,.58,1.9v3.76h-2.18v-3.15a3.18,3.18,0,0,0,0-.57,1.48,1.48,0,0,0-.13-.45.8.8,0,0,0-.3-.33,1,1,0,0,0-.51-.12,1,1,0,0,0-.87.43,1.89,1.89,0,0,0-.27,1v3.15h-2.19v-10Z"/><path class="b" d="M531.22,160.05a1.22,1.22,0,1,1-.86-.36A1.18,1.18,0,0,1,531.22,160.05Zm.23,9.38h-2.19v-6.15h2.19Z"/><path class="b" d="M535.07,164.07h0a2.11,2.11,0,0,1,.84-.77,2.54,2.54,0,0,1,1.12-.23,2.17,2.17,0,0,1,1.76.68,2.89,2.89,0,0,1,.56,1.88v3.8H537.2v-3a6.38,6.38,0,0,0,0-.66,1.86,1.86,0,0,0-.13-.49.74.74,0,0,0-.29-.34,1.05,1.05,0,0,0-.54-.13,1,1,0,0,0-.87.39,1.8,1.8,0,0,0-.27,1v3.19h-2.18v-6.15h2.18Z"/><path class="b" d="M547.14,166.72h-4.59a1.21,1.21,0,0,0,1.37,1.37,1.13,1.13,0,0,0,1-.56h2.1a2.46,2.46,0,0,1-1.13,1.57,3.72,3.72,0,0,1-2,.54,3.77,3.77,0,0,1-2.58-.87,3,3,0,0,1-1-2.41,3.75,3.75,0,0,1,.25-1.37,3,3,0,0,1,.7-1,2.93,2.93,0,0,1,1.09-.65,4.06,4.06,0,0,1,1.37-.23,3.32,3.32,0,0,1,2.49.92,3.45,3.45,0,0,1,.88,2.5Zm-2-1.26a1.12,1.12,0,0,0-.44-.7,1.27,1.27,0,0,0-.8-.27,1.42,1.42,0,0,0-.85.25,1.18,1.18,0,0,0-.45.72Z"/><line class="f" x1="261.4" y1="296.64" x2="261.26" y2="289.3"/><polygon class="g" points="261.49 301.01 263.88 294.81 261.39 296.32 258.85 294.9 261.49 301.01"/><polygon class="g" points="261.18 284.93 263.81 291.04 261.27 289.63 258.78 291.14 261.18 284.93"/><line class="f" x1="340.78" y1="296.37" x2="340.64" y2="289.03"/><polygon class="g" points="340.87 300.74 343.26 294.53 340.78 296.04 338.23 294.63 340.87 300.74"/><polygon class="g" points="340.56 284.66 343.19 290.77 340.65 289.36 338.16 290.87 340.56 284.66"/><line class="f" x1="261.4" y1="255.06" x2="261.26" y2="247.71"/><polygon class="g" points="261.49 259.43 263.88 253.22 261.39 254.73 258.85 253.32 261.49 259.43"/><polygon class="g" points="261.18 243.34 263.81 249.46 261.27 248.04 258.78 249.55 261.18 243.34"/><line class="f" x1="340.55" y1="255.06" x2="340.41" y2="247.71"/><polygon class="g" points="340.63 259.43 343.03 253.22 340.54 254.73 338 253.32 340.63 259.43"/><polygon class="g" points="340.32 243.34 342.96 249.46 340.41 248.04 337.93 249.55 340.32 243.34"/><line class="f" x1="296.7" y1="233.68" x2="304.04" y2="233.54"/><polygon class="g" points="292.32 233.76 298.53 236.16 297.02 233.67 298.44 231.13 292.32 233.76"/><polygon class="g" points="308.41 233.45 302.3 236.09 303.71 233.54 302.2 231.06 308.41 233.45"/><rect class="h" x="233.63" y="222.07" width="55.39" height="20.3" rx="2.37"/><rect class="h" x="233.63" y="261.63" width="55.39" height="20.3" rx="2.37"/><rect class="i" x="310.93" y="261.63" width="55.39" height="20.3" rx="2.37"/><rect class="e" x="310.93" y="221.85" width="55.39" height="20.3" rx="2.37"/><rect class="h" x="233.76" y="303.19" width="130.7" height="20.3" rx="2.37"/><path class="c" d="M287.4,312.55V311.1h1v3.77h-1v-1.55H286v1.55h-1V311.1h1v1.45Z"/><path class="c" d="M288.62,312.3h1.05l.69,1.32.67-1.32h1L290,316.15h-1l.87-1.63Z"/><path class="c" d="M293.15,312.59h0a.83.83,0,0,1,.33-.28,1.12,1.12,0,0,1,.44-.09,1.27,1.27,0,0,1,.52.1,1.6,1.6,0,0,1,.42.3,1.43,1.43,0,0,1,.26.45,1.3,1.3,0,0,1,.1.52,1.46,1.46,0,0,1-.09.52,1.3,1.3,0,0,1-.27.44,1.12,1.12,0,0,1-.41.3,1.27,1.27,0,0,1-.52.1,1.32,1.32,0,0,1-.44-.08.9.9,0,0,1-.35-.25v1.53h-.91V312.3h.91Zm.13.58a.58.58,0,0,0-.16.42.56.56,0,0,0,.16.41.54.54,0,0,0,.42.16.55.55,0,0,0,.59-.57.58.58,0,0,0-.16-.42.56.56,0,0,0-.43-.16A.54.54,0,0,0,293.28,313.17Z"/><path class="c" d="M298.31,313.74H296.4a.5.5,0,0,0,.57.57.46.46,0,0,0,.43-.24h.88a1,1,0,0,1-.47.66,1.57,1.57,0,0,1-.84.22,1.56,1.56,0,0,1-1.07-.36,1.24,1.24,0,0,1-.41-1,1.48,1.48,0,0,1,.1-.57,1.35,1.35,0,0,1,.29-.44,1.29,1.29,0,0,1,.45-.27,1.81,1.81,0,0,1,.58-.09,1.34,1.34,0,0,1,1,.38,1.41,1.41,0,0,1,.37,1Zm-.84-.53a.51.51,0,0,0-.52-.4.6.6,0,0,0-.35.1.48.48,0,0,0-.19.3Z"/><path class="c" d="M299.64,312.72h0a.8.8,0,0,1,.34-.34,1,1,0,0,1,.49-.11h.17v.87l-.18-.07h-.2a.53.53,0,0,0-.49.2.92.92,0,0,0-.14.57v1h-.91V312.3h.91Z"/><path class="c" d="M302.34,313.62l.61-1.32h1l-1.34,2.57h-.58l-1.34-2.57h1Z"/><path class="c" d="M305,311a.51.51,0,1,1-.36-.15A.49.49,0,0,1,305,311Zm.1,3.91h-.91V312.3h.91Z"/><path class="c" d="M307.4,313l-.24-.09-.25,0a.43.43,0,0,0-.19,0,.15.15,0,0,0-.09.13.13.13,0,0,0,.1.14,1,1,0,0,0,.26.08H307a1.13,1.13,0,0,1,.54.24.64.64,0,0,1,.2.52.82.82,0,0,1-.1.42.72.72,0,0,1-.27.3,1.13,1.13,0,0,1-.39.17,1.68,1.68,0,0,1-.45.06,2,2,0,0,1-.54-.07,2.16,2.16,0,0,1-.49-.22l.33-.64a1.43,1.43,0,0,0,.35.18.92.92,0,0,0,.37.08.32.32,0,0,0,.19,0,.15.15,0,0,0,.09-.14.18.18,0,0,0-.09-.16l-.3-.09-.18,0-.22-.08a.71.71,0,0,1-.18-.12.52.52,0,0,1-.12-.19.78.78,0,0,1,0-.28.84.84,0,0,1,.09-.4.81.81,0,0,1,.26-.29,1.19,1.19,0,0,1,.36-.17,2,2,0,0,1,.42,0,2.08,2.08,0,0,1,.85.16Z"/><path class="c" d="M310.22,312.31a1.47,1.47,0,0,1,.49.27,1.1,1.1,0,0,1,.34.43,1.34,1.34,0,0,1,.12.58,1.32,1.32,0,0,1-.12.57,1.1,1.1,0,0,1-.34.43,1.37,1.37,0,0,1-.49.27,2,2,0,0,1-.59.09,1.87,1.87,0,0,1-.59-.09,1.51,1.51,0,0,1-.5-.27,1.3,1.3,0,0,1,0-2,1.51,1.51,0,0,1,.5-.27,1.87,1.87,0,0,1,.59-.09A2,2,0,0,1,310.22,312.31Zm-1,.86a.58.58,0,0,0-.16.42.55.55,0,0,0,.59.57.54.54,0,0,0,.42-.16.56.56,0,0,0,.16-.41.58.58,0,0,0-.16-.42.54.54,0,0,0-.42-.16A.56.56,0,0,0,309.2,313.17Z"/><path class="c" d="M312.49,312.72h0a.85.85,0,0,1,.34-.34,1,1,0,0,1,.49-.11h.18v.87l-.18-.07h-.21a.55.55,0,0,0-.49.2,1,1,0,0,0-.14.57v1h-.91V312.3h.91Z"/><path class="c" d="M326,273.63h1.17v.83H325V270.7h1Z"/><path class="c" d="M328.24,270.55a.53.53,0,0,1,.15.37.53.53,0,0,1-.15.36.53.53,0,0,1-.72,0,.53.53,0,0,1-.15-.36.53.53,0,0,1,.15-.37.53.53,0,0,1,.72,0Zm.09,3.91h-.91V271.9h.91Z"/><path class="c" d="M329.84,272.23h0a.88.88,0,0,1,.35-.32,1.13,1.13,0,0,1,.47-.09.89.89,0,0,1,.73.28,1.17,1.17,0,0,1,.24.78v1.58h-.91v-1.25a2.13,2.13,0,0,0,0-.27.39.39,0,0,0,0-.2.36.36,0,0,0-.12-.15.48.48,0,0,0-.22,0,.41.41,0,0,0-.37.16.81.81,0,0,0-.11.43v1.33h-.91V271.9h.91Z"/><path class="c" d="M333.13,271.9v1.37a.67.67,0,0,0,.1.41.39.39,0,0,0,.36.15.38.38,0,0,0,.35-.15.67.67,0,0,0,.1-.41V271.9H335v1.55a1.18,1.18,0,0,1-.1.52.88.88,0,0,1-.29.34,1.3,1.3,0,0,1-.43.18,2.23,2.23,0,0,1-.54.06,2.32,2.32,0,0,1-.55-.06,1.3,1.3,0,0,1-.43-.18,1,1,0,0,1-.29-.34,1.18,1.18,0,0,1-.1-.52V271.9Z"/><path class="c" d="M335.4,271.9h1.15l.46.53.46-.53h1.18l-1.06,1.18,1.28,1.38h-1.2l-.66-.75-.66.75h-1.19l1.28-1.38Z"/><path class="c" d="M341.72,272.83l.94-.93h1.25l-1.29,1.18,1.37,1.38h-1.28l-1-1v1h-.91v-4.14h.91Z"/><path class="c" d="M346.88,273.33H345a.51.51,0,0,0,.57.58.46.46,0,0,0,.43-.24h.88a1.06,1.06,0,0,1-.47.66,1.7,1.7,0,0,1-.84.22,1.56,1.56,0,0,1-1.07-.36,1.24,1.24,0,0,1-.41-1,1.45,1.45,0,0,1,.1-.57,1.21,1.21,0,0,1,.29-.44,1.29,1.29,0,0,1,.45-.27,1.81,1.81,0,0,1,.58-.09,1.35,1.35,0,0,1,1,.38,1.41,1.41,0,0,1,.37,1Zm-.84-.52a.51.51,0,0,0-.52-.4.58.58,0,0,0-.35.1.48.48,0,0,0-.19.3Z"/><path class="c" d="M348.21,272.32h0a.8.8,0,0,1,.34-.34,1,1,0,0,1,.48-.11h.18v.87a.67.67,0,0,0-.18-.07h-.21a.52.52,0,0,0-.48.2.92.92,0,0,0-.14.57v1h-.92V271.9h.92Z"/><path class="c" d="M350.47,272.23h0a.88.88,0,0,1,.35-.32,1.13,1.13,0,0,1,.47-.09.89.89,0,0,1,.73.28,1.17,1.17,0,0,1,.24.78v1.58h-.91v-1.25a2.13,2.13,0,0,0,0-.27.53.53,0,0,0,0-.2.36.36,0,0,0-.12-.15.48.48,0,0,0-.22,0,.41.41,0,0,0-.37.16.81.81,0,0,0-.11.43v1.33h-.91V271.9h.91Z"/><path class="c" d="M355.5,273.33h-1.92a.52.52,0,0,0,.58.58.46.46,0,0,0,.43-.24h.87a1,1,0,0,1-.46.66,1.7,1.7,0,0,1-.84.22,1.56,1.56,0,0,1-1.07-.36,1.24,1.24,0,0,1-.42-1,1.45,1.45,0,0,1,.11-.57,1.21,1.21,0,0,1,.29-.44,1.29,1.29,0,0,1,.45-.27,1.79,1.79,0,0,1,.57-.09,1.36,1.36,0,0,1,1,.38,1.41,1.41,0,0,1,.37,1Zm-.84-.52a.51.51,0,0,0-.52-.4.58.58,0,0,0-.35.1.48.48,0,0,0-.19.3Z"/><path class="c" d="M356.83,274.46h-.91v-4.14h.91Z"/><path class="c" d="M320.11,229.88h1.17v.83h-2.15v-3.77h1Z"/><path class="c" d="M322.4,226.8a.51.51,0,1,1-.36-.15A.49.49,0,0,1,322.4,226.8Zm.09,3.91h-.91v-2.56h.91Z"/><path class="c" d="M324,228.48h0a.88.88,0,0,1,.35-.32,1,1,0,0,1,.47-.1.9.9,0,0,1,.73.29,1.14,1.14,0,0,1,.24.78v1.58h-.91v-1.25a2,2,0,0,0,0-.27.46.46,0,0,0-.05-.21.41.41,0,0,0-.12-.14.48.48,0,0,0-.22-.05.41.41,0,0,0-.37.16.78.78,0,0,0-.11.43v1.33h-.91v-2.56H324Z"/><path class="c" d="M327.29,228.15v1.37a.67.67,0,0,0,.1.41c.06.1.18.14.36.14a.37.37,0,0,0,.35-.14.67.67,0,0,0,.1-.41v-1.37h.91v1.54a1.19,1.19,0,0,1-.1.53.87.87,0,0,1-.29.34,1.3,1.3,0,0,1-.43.18,2.23,2.23,0,0,1-.54.06,2.32,2.32,0,0,1-.55-.06,1.3,1.3,0,0,1-.43-.18,1,1,0,0,1-.29-.34,1.39,1.39,0,0,1-.1-.53v-1.54Z"/><path class="c" d="M329.56,228.15h1.15l.46.53.46-.53h1.18l-1.06,1.17,1.28,1.39h-1.2l-.66-.76-.66.76h-1.19l1.28-1.39Z"/><path class="c" d="M335.86,228.15v1.37a.67.67,0,0,0,.1.41c.06.1.18.14.36.14a.37.37,0,0,0,.35-.14.67.67,0,0,0,.1-.41v-1.37h.91v1.54a1.19,1.19,0,0,1-.1.53.87.87,0,0,1-.29.34,1.3,1.3,0,0,1-.43.18,2.23,2.23,0,0,1-.54.06,2.32,2.32,0,0,1-.55-.06,1.3,1.3,0,0,1-.43-.18,1,1,0,0,1-.29-.34,1.39,1.39,0,0,1-.1-.53v-1.54Z"/><path class="c" d="M340,228.81a.85.85,0,0,0-.24-.09,1.29,1.29,0,0,0-.25,0,.46.46,0,0,0-.2,0,.14.14,0,0,0-.09.13.15.15,0,0,0,.1.14,1.2,1.2,0,0,0,.26.07h0a1.17,1.17,0,0,1,.55.25.66.66,0,0,1,.2.51.94.94,0,0,1-.1.43.89.89,0,0,1-.28.3,1.39,1.39,0,0,1-.39.17,1.61,1.61,0,0,1-.44.06,1.91,1.91,0,0,1-.54-.08,1.86,1.86,0,0,1-.5-.22l.33-.63a1.51,1.51,0,0,0,.36.18,1,1,0,0,0,.36.08.46.46,0,0,0,.2,0,.17.17,0,0,0,0-.3,1.38,1.38,0,0,0-.3-.09l-.17,0-.23-.08a.66.66,0,0,1-.17-.12.91.91,0,0,1-.13-.19.85.85,0,0,1,0-.29.87.87,0,0,1,.09-.4.84.84,0,0,1,.25-.28,1.14,1.14,0,0,1,.37-.17,1.42,1.42,0,0,1,.42-.06,2,2,0,0,1,.84.17Z"/><path class="c" d="M343.46,229.58h-1.91a.5.5,0,0,0,.57.57.46.46,0,0,0,.43-.23h.88a1,1,0,0,1-.47.65,1.6,1.6,0,0,1-.84.23,1.56,1.56,0,0,1-1.07-.36,1.26,1.26,0,0,1-.41-1,1.48,1.48,0,0,1,.1-.57,1.17,1.17,0,0,1,.29-.43,1.29,1.29,0,0,1,.45-.27,1.57,1.57,0,0,1,.58-.1,1.36,1.36,0,0,1,1,.39,1.41,1.41,0,0,1,.37,1Zm-.84-.52a.52.52,0,0,0-.18-.29.52.52,0,0,0-.34-.12.58.58,0,0,0-.35.11.48.48,0,0,0-.19.3Z"/><path class="c" d="M344.79,228.57h0a.8.8,0,0,1,.34-.34,1,1,0,0,1,.49-.12h.17V229a.67.67,0,0,0-.18-.07l-.2,0a.53.53,0,0,0-.49.21.92.92,0,0,0-.14.57v1h-.91v-2.56h.91Z"/><path class="c" d="M347.05,228.47h0a1,1,0,0,1,.81-.41,1.11,1.11,0,0,1,.52.12.92.92,0,0,1,.36.37.89.89,0,0,1,.36-.36,1.14,1.14,0,0,1,.51-.13.79.79,0,0,1,.67.27,1.26,1.26,0,0,1,.2.75v1.63h-.91v-1.22a2.18,2.18,0,0,0,0-.27,1.55,1.55,0,0,0,0-.21.48.48,0,0,0-.12-.16.32.32,0,0,0-.2-.06.43.43,0,0,0-.24.06.33.33,0,0,0-.13.16.79.79,0,0,0-.06.22c0,.07,0,.16,0,.26v1.22h-.91v-1.22a2,2,0,0,0,0-.26.78.78,0,0,0,0-.22.37.37,0,0,0-.13-.17.32.32,0,0,0-.22-.07.33.33,0,0,0-.23.07.3.3,0,0,0-.12.17.79.79,0,0,0-.05.22,2,2,0,0,0,0,.26v1.22h-.91v-2.56h.91Z"/><path class="c" d="M353,228.16a1.7,1.7,0,0,1,.5.26,1.22,1.22,0,0,1,.33.44,1.2,1.2,0,0,1,.13.57,1.32,1.32,0,0,1-.46,1,1.83,1.83,0,0,1-.5.27,2,2,0,0,1-1.18,0,1.37,1.37,0,0,1-.49-.27A1.18,1.18,0,0,1,351,230a1.34,1.34,0,0,1-.12-.58,1.32,1.32,0,0,1,.12-.57,1.14,1.14,0,0,1,.34-.44,1.53,1.53,0,0,1,.49-.26,1.79,1.79,0,0,1,1.18,0Zm-1,.86a.59.59,0,0,0-.15.41.6.6,0,0,0,.15.42.66.66,0,0,0,.86,0,.61.61,0,0,0,.16-.42.6.6,0,0,0-.16-.41.63.63,0,0,0-.86,0Z"/><path class="c" d="M356.33,230.43h0a.73.73,0,0,1-.33.27,1,1,0,0,1-.45.1,1.26,1.26,0,0,1-.51-.11,1.3,1.3,0,0,1-.69-.74,1.55,1.55,0,0,1,0-1,1.16,1.16,0,0,1,.27-.44,1.12,1.12,0,0,1,.41-.3,1.19,1.19,0,0,1,.51-.11,1.12,1.12,0,0,1,.44.09.93.93,0,0,1,.36.25v-1.84h.91v4.15h-.91Zm-1-1.41a.59.59,0,0,0-.15.41.6.6,0,0,0,.15.42.66.66,0,0,0,.86,0,.61.61,0,0,0,.16-.42.6.6,0,0,0-.16-.41.63.63,0,0,0-.86,0Z"/><path class="c" d="M360.44,229.58h-1.91a.5.5,0,0,0,.57.57.46.46,0,0,0,.43-.23h.88a1,1,0,0,1-.47.65,1.6,1.6,0,0,1-.84.23,1.56,1.56,0,0,1-1.07-.36,1.26,1.26,0,0,1-.41-1,1.48,1.48,0,0,1,.1-.57,1.17,1.17,0,0,1,.29-.43,1.29,1.29,0,0,1,.45-.27,1.57,1.57,0,0,1,.58-.1,1.36,1.36,0,0,1,1,.39,1.41,1.41,0,0,1,.37,1Zm-.84-.52a.52.52,0,0,0-.18-.29.52.52,0,0,0-.34-.12.58.58,0,0,0-.35.11.48.48,0,0,0-.19.3Z"/><path class="c" d="M328.19,235.58h-1.92a.5.5,0,0,0,.57.57.47.47,0,0,0,.44-.23h.87a1,1,0,0,1-.47.65,1.54,1.54,0,0,1-.83.23,1.6,1.6,0,0,1-1.08-.36,1.29,1.29,0,0,1-.41-1,1.7,1.7,0,0,1,.1-.57,1.19,1.19,0,0,1,.3-.43,1.13,1.13,0,0,1,.45-.27,1.48,1.48,0,0,1,.57-.1,1.38,1.38,0,0,1,1,.39,1.45,1.45,0,0,1,.37,1Zm-.85-.52a.43.43,0,0,0-.18-.29.52.52,0,0,0-.33-.12.61.61,0,0,0-.36.11.47.47,0,0,0-.18.3Z"/><path class="c" d="M331.42,236.46a1.6,1.6,0,0,1-.38,1.17,1.54,1.54,0,0,1-1.11.36,2,2,0,0,1-.47-.06,1.83,1.83,0,0,1-.46-.18,1.19,1.19,0,0,1-.36-.31.91.91,0,0,1-.17-.43h1a.28.28,0,0,0,.17.2.58.58,0,0,0,.26.06.67.67,0,0,0,.3-.06.35.35,0,0,0,.17-.15.53.53,0,0,0,.09-.23,1.26,1.26,0,0,0,0-.3v-.12a1.33,1.33,0,0,1-.38.27,1.19,1.19,0,0,1-.44.08,1.25,1.25,0,0,1-.51-.1,1.13,1.13,0,0,1-.4-.27,1.29,1.29,0,0,1-.26-.42,1.46,1.46,0,0,1-.09-.52,1.6,1.6,0,0,1,.09-.53,1.16,1.16,0,0,1,.27-.44,1.43,1.43,0,0,1,.42-.31,1.32,1.32,0,0,1,.53-.11,1,1,0,0,1,.43.09.78.78,0,0,1,.33.27h0v-.27h.91Zm-1.9-1.46a.59.59,0,0,0-.15.41.6.6,0,0,0,.15.42.66.66,0,0,0,.86,0,.61.61,0,0,0,.16-.42.6.6,0,0,0-.16-.41.63.63,0,0,0-.86,0Z"/><path class="c" d="M333,234.13a.57.57,0,0,1,.17.41.61.61,0,0,1-.17.42.57.57,0,0,1-.41.17.57.57,0,0,1-.42-.17.61.61,0,0,1-.17-.42.57.57,0,0,1,.17-.41.54.54,0,0,1,.42-.17A.53.53,0,0,1,333,234.13Zm0,1.68a.59.59,0,0,1,.17.42.57.57,0,0,1-.17.41.53.53,0,0,1-.41.17.54.54,0,0,1-.42-.17.57.57,0,0,1-.17-.41.59.59,0,0,1,.17-.42.57.57,0,0,1,.42-.17A.57.57,0,0,1,333,235.81Z"/><path class="c" d="M338.71,232.94v2.12a3.4,3.4,0,0,1-.08.78,1.11,1.11,0,0,1-.32.55,1.22,1.22,0,0,1-.55.32,2.37,2.37,0,0,1-.7.1,2.26,2.26,0,0,1-.69-.1,1.2,1.2,0,0,1-.56-.32,1.11,1.11,0,0,1-.32-.55,3.46,3.46,0,0,1-.07-.78v-2.12h1v2c0,.15,0,.28,0,.39a.8.8,0,0,0,.09.31.52.52,0,0,0,.2.24.85.85,0,0,0,.72,0,.66.66,0,0,0,.21-.23,1.09,1.09,0,0,0,.08-.31c0-.12,0-.25,0-.4v-2Z"/><path class="c" d="M339.28,232.56h.91v1.84a.9.9,0,0,1,.35-.25,1.12,1.12,0,0,1,.44-.09,1.27,1.27,0,0,1,.52.11,1.21,1.21,0,0,1,.41.3,1.28,1.28,0,0,1,.26.44,1.3,1.3,0,0,1,.1.52,1.5,1.5,0,0,1-.1.52,1.16,1.16,0,0,1-.27.44,1.12,1.12,0,0,1-.41.3,1.27,1.27,0,0,1-.52.11,1.08,1.08,0,0,1-.44-.09.83.83,0,0,1-.33-.28h0v.28h-.91Zm1,2.46a.59.59,0,0,0-.15.41.6.6,0,0,0,.15.42.66.66,0,0,0,.86,0,.61.61,0,0,0,.16-.42.6.6,0,0,0-.16-.41.63.63,0,0,0-.86,0Z"/><path class="c" d="M343.61,234.15v1.37a.67.67,0,0,0,.1.41c.06.1.18.14.36.14a.37.37,0,0,0,.35-.14.67.67,0,0,0,.1-.41v-1.37h.91v1.54a1.19,1.19,0,0,1-.1.53.87.87,0,0,1-.29.34,1.3,1.3,0,0,1-.43.18,2.23,2.23,0,0,1-.54.06,2.32,2.32,0,0,1-.55-.06,1.3,1.3,0,0,1-.43-.18,1,1,0,0,1-.29-.34,1.39,1.39,0,0,1-.1-.53v-1.54Z"/><path class="c" d="M346.92,234.48h0a.88.88,0,0,1,.35-.32,1,1,0,0,1,.47-.1.9.9,0,0,1,.73.29,1.14,1.14,0,0,1,.24.78v1.58h-.91v-1.25a2,2,0,0,0,0-.27.46.46,0,0,0-.05-.21.41.41,0,0,0-.12-.14.48.48,0,0,0-.22-.05.41.41,0,0,0-.37.16.78.78,0,0,0-.11.43v1.33H346v-2.56h.91Z"/><path class="c" d="M350.31,236.71h-.91V234.9h-.29v-.75h.29v-.77h.91v.77h.52v.75h-.52Z"/><path class="c" d="M352,234.15v1.37a.67.67,0,0,0,.1.41c.06.1.18.14.36.14a.37.37,0,0,0,.35-.14.67.67,0,0,0,.1-.41v-1.37h.91v1.54a1.19,1.19,0,0,1-.1.53,1,1,0,0,1-.29.34,1.3,1.3,0,0,1-.43.18,2.23,2.23,0,0,1-.54.06,2.32,2.32,0,0,1-.55-.06,1.3,1.3,0,0,1-.43-.18,1,1,0,0,1-.29-.34,1.22,1.22,0,0,1-.1-.53v-1.54Z"/><path class="c" d="M242.26,273h0l.79-2.44h.78l.74,2.44h0l.71-2.44h1l-1.2,3.77h-1l-.66-2.18h0l-.74,2.18h-1l-1.12-3.77h1Z"/><path class="c" d="M247.36,270.43a.51.51,0,1,1-.36-.15A.49.49,0,0,1,247.36,270.43Zm.1,3.91h-.91v-2.56h.91Z"/><path class="c" d="M249,272.11h0a.88.88,0,0,1,.35-.32,1,1,0,0,1,.47-.1.93.93,0,0,1,.73.28,1.24,1.24,0,0,1,.23.79v1.58h-.91v-1.25a2.18,2.18,0,0,0,0-.27,1.08,1.08,0,0,0-.05-.21.33.33,0,0,0-.12-.14.51.51,0,0,0-.59.11.71.71,0,0,0-.11.43v1.33h-.91v-2.56H249Z"/><path class="c" d="M253.29,274.06h0a.66.66,0,0,1-.32.27,1,1,0,0,1-.45.1,1.27,1.27,0,0,1-.52-.11,1.12,1.12,0,0,1-.41-.3,1.25,1.25,0,0,1-.27-.44,1.3,1.3,0,0,1-.1-.52,1.27,1.27,0,0,1,.1-.52,1.28,1.28,0,0,1,.26-.44,1.31,1.31,0,0,1,.41-.3,1.27,1.27,0,0,1,.52-.11,1.12,1.12,0,0,1,.44.09.81.81,0,0,1,.35.25v-1.84h.91v4.15h-.91Zm-1-1.41a.6.6,0,0,0-.16.41.57.57,0,0,0,.16.41.63.63,0,0,0,.86,0,.56.56,0,0,0,.15-.41.59.59,0,0,0-.15-.41.63.63,0,0,0-.86,0Z"/><path class="c" d="M256.72,271.79a1.64,1.64,0,0,1,.49.26,1.14,1.14,0,0,1,.34.44,1.41,1.41,0,0,1,0,1.14,1.22,1.22,0,0,1-.33.44,1.87,1.87,0,0,1-1.09.36,1.87,1.87,0,0,1-.59-.09,1.51,1.51,0,0,1-.5-.27,1.27,1.27,0,0,1-.33-.43,1.21,1.21,0,0,1-.13-.58,1.2,1.2,0,0,1,.13-.57,1.22,1.22,0,0,1,.33-.44,1.7,1.7,0,0,1,.5-.26,1.63,1.63,0,0,1,.59-.1A1.7,1.7,0,0,1,256.72,271.79Zm-1,.86a.6.6,0,0,0-.16.41.57.57,0,0,0,.16.41.63.63,0,0,0,.86,0,.56.56,0,0,0,.15-.41.59.59,0,0,0-.15-.41.63.63,0,0,0-.86,0Z"/><path class="c" d="M259.36,273.17l.64-1.39h.54l.65,1.39.64-1.39h1l-1.34,2.56h-.59l-.64-1.4-.63,1.4h-.59l-1.34-2.56h1Z"/><path class="c" d="M264.76,272.44a.85.85,0,0,0-.24-.09.81.81,0,0,0-.25,0,.41.41,0,0,0-.19.05.13.13,0,0,0-.1.13.16.16,0,0,0,.1.14,1.38,1.38,0,0,0,.26.07h.05a1.13,1.13,0,0,1,.55.25.66.66,0,0,1,.2.51.94.94,0,0,1-.1.43,1,1,0,0,1-.27.3,1.71,1.71,0,0,1-.39.17,1.74,1.74,0,0,1-.45.06,2,2,0,0,1-.54-.08,2,2,0,0,1-.5-.22l.33-.63a1.51,1.51,0,0,0,.36.18,1.07,1.07,0,0,0,.36.08.46.46,0,0,0,.2-.05.16.16,0,0,0,.09-.15.15.15,0,0,0-.1-.15,1.38,1.38,0,0,0-.3-.09l-.17,0-.22-.08a.57.57,0,0,1-.18-.12.56.56,0,0,1-.12-.2.59.59,0,0,1-.05-.28.87.87,0,0,1,.09-.4.77.77,0,0,1,.26-.28.92.92,0,0,1,.36-.17,1.47,1.47,0,0,1,.42-.06,2,2,0,0,1,.84.17Z"/><path class="c" d="M268.25,272.7l.95-.92h1.24L269.16,273l1.36,1.38h-1.27l-1-1v1h-.91v-4.15h.91Z"/><path class="c" d="M273.42,273.21H271.5a.5.5,0,0,0,.57.57.49.49,0,0,0,.44-.23h.87a1,1,0,0,1-.47.65,1.54,1.54,0,0,1-.83.23,1.6,1.6,0,0,1-1.08-.36,1.29,1.29,0,0,1-.41-1,1.7,1.7,0,0,1,.1-.57,1.25,1.25,0,0,1,.75-.7,1.52,1.52,0,0,1,.57-.1,1.36,1.36,0,0,1,1,.39,1.45,1.45,0,0,1,.37,1Zm-.85-.52a.43.43,0,0,0-.18-.29.5.5,0,0,0-.33-.12.56.56,0,0,0-.35.11.44.44,0,0,0-.19.3Z"/><path class="c" d="M274.74,272.2h0a.77.77,0,0,1,.35-.34,1,1,0,0,1,.48-.12h.18v.88a.45.45,0,0,0-.18-.07l-.21,0a.56.56,0,0,0-.49.21,1,1,0,0,0-.14.57v1h-.91v-2.56h.91Z"/><path class="c" d="M277,272.11h0a.88.88,0,0,1,.35-.32,1,1,0,0,1,.47-.1.93.93,0,0,1,.73.28,1.24,1.24,0,0,1,.23.79v1.58h-.91v-1.25a2.18,2.18,0,0,0,0-.27,1.08,1.08,0,0,0-.05-.21.33.33,0,0,0-.12-.14.51.51,0,0,0-.59.11.71.71,0,0,0-.11.43v1.33h-.91v-2.56H277Z"/><path class="c" d="M282,273.21h-1.92a.5.5,0,0,0,.57.57.49.49,0,0,0,.44-.23H282a1,1,0,0,1-.47.65,1.54,1.54,0,0,1-.83.23,1.6,1.6,0,0,1-1.08-.36,1.29,1.29,0,0,1-.41-1,1.7,1.7,0,0,1,.1-.57,1.25,1.25,0,0,1,.75-.7,1.52,1.52,0,0,1,.57-.1,1.36,1.36,0,0,1,1,.39,1.45,1.45,0,0,1,.37,1Zm-.85-.52a.43.43,0,0,0-.18-.29.5.5,0,0,0-.33-.12.56.56,0,0,0-.35.11.44.44,0,0,0-.19.3Z"/><path class="c" d="M283.36,274.34h-.91v-4.15h.91Z"/><path class="c" d="M251.34,230.08h0l.79-2.44h.78l.74,2.44h0l.71-2.44h1l-1.21,3.77h-1l-.66-2.18h0l-.74,2.18h-1l-1.13-3.77h1Z"/><path class="c" d="M256.44,227.5a.51.51,0,1,1-.36-.15A.49.49,0,0,1,256.44,227.5Zm.09,3.91h-.91v-2.56h.91Z"/><path class="c" d="M258,229.18h0a.88.88,0,0,1,.35-.32,1,1,0,0,1,.47-.1.93.93,0,0,1,.73.28,1.18,1.18,0,0,1,.23.79v1.58h-.9v-1.25a2,2,0,0,0,0-.27.65.65,0,0,0-.05-.21.33.33,0,0,0-.12-.14.38.38,0,0,0-.22,0,.41.41,0,0,0-.37.16.78.78,0,0,0-.11.43v1.33h-.91v-2.56H258Z"/><path class="c" d="M262.37,231.13h0a.73.73,0,0,1-.33.27,1.14,1.14,0,0,1-.45.1,1.26,1.26,0,0,1-.51-.11,1.25,1.25,0,0,1-.42-.3,1.34,1.34,0,0,1-.27-.44,1.58,1.58,0,0,1,0-1.05,1.21,1.21,0,0,1,.27-.43,1.12,1.12,0,0,1,.41-.3,1.19,1.19,0,0,1,.51-.11,1.12,1.12,0,0,1,.44.09.9.9,0,0,1,.36.25v-1.84h.91v4.15h-.91Zm-1-1.41a.59.59,0,0,0-.15.41.56.56,0,0,0,.15.41.63.63,0,0,0,.86,0,.57.57,0,0,0,.16-.41.6.6,0,0,0-.16-.41.63.63,0,0,0-.86,0Z"/><path class="c" d="M265.79,228.85a1.72,1.72,0,0,1,.5.27,1.27,1.27,0,0,1,.33.43,1.41,1.41,0,0,1,.13.58,1.33,1.33,0,0,1-.13.57,1.22,1.22,0,0,1-.33.44,1.58,1.58,0,0,1-.5.26,1.66,1.66,0,0,1-.59.1,1.92,1.92,0,0,1-.59-.09,1.51,1.51,0,0,1-.5-.27,1.27,1.27,0,0,1-.33-.43,1.34,1.34,0,0,1-.13-.58,1.41,1.41,0,0,1,.13-.58,1.27,1.27,0,0,1,.33-.43,1.72,1.72,0,0,1,.5-.27,2,2,0,0,1,1.18,0Zm-1,.87a.6.6,0,0,0-.16.41.57.57,0,0,0,.16.41.63.63,0,0,0,.86,0,.57.57,0,0,0,.16-.41.6.6,0,0,0-.16-.41.63.63,0,0,0-.86,0Z"/><path class="c" d="M268.43,230.24l.65-1.39h.53l.65,1.39.64-1.39h1l-1.34,2.56H270l-.63-1.4-.64,1.4h-.59l-1.34-2.56h1Z"/><path class="c" d="M273.83,229.51a.85.85,0,0,0-.24-.09.77.77,0,0,0-.25,0,.41.41,0,0,0-.19.05.14.14,0,0,0-.09.13.15.15,0,0,0,.09.14,1.31,1.31,0,0,0,.27.07h0a1.13,1.13,0,0,1,.55.25.66.66,0,0,1,.2.51.83.83,0,0,1-.1.43,1,1,0,0,1-.27.3,1.71,1.71,0,0,1-.39.17,1.74,1.74,0,0,1-.45.06,2,2,0,0,1-1-.3l.33-.63a1.73,1.73,0,0,0,.36.18,1.12,1.12,0,0,0,.37.08.45.45,0,0,0,.19-.05.16.16,0,0,0,.09-.15.16.16,0,0,0-.09-.15,1.74,1.74,0,0,0-.31-.09l-.17,0-.22-.08a.57.57,0,0,1-.18-.12.56.56,0,0,1-.12-.2.74.74,0,0,1,0-.28.87.87,0,0,1,.09-.4.89.89,0,0,1,.26-.29,1.17,1.17,0,0,1,.36-.16,1.52,1.52,0,0,1,.42-.06,2,2,0,0,1,.84.17Z"/><path class="c" d="M250.32,234.85v1.37a.69.69,0,0,0,.1.41.4.4,0,0,0,.35.14.41.41,0,0,0,.36-.14.69.69,0,0,0,.1-.41v-1.37h.91v1.54a1.39,1.39,0,0,1-.1.53,1,1,0,0,1-.29.34,1.3,1.3,0,0,1-.43.18,2.32,2.32,0,0,1-.55.06,2.23,2.23,0,0,1-.54-.06,1.13,1.13,0,0,1-.43-.19.75.75,0,0,1-.29-.34,1.15,1.15,0,0,1-.1-.52v-1.54Z"/><path class="c" d="M254.41,235.51a.85.85,0,0,0-.24-.09.77.77,0,0,0-.25,0,.45.45,0,0,0-.19.05.14.14,0,0,0-.09.13.15.15,0,0,0,.1.14,1.05,1.05,0,0,0,.26.07h.05a1.22,1.22,0,0,1,.55.25.66.66,0,0,1,.19.51.83.83,0,0,1-.1.43.77.77,0,0,1-.27.3,1.39,1.39,0,0,1-.39.17,1.63,1.63,0,0,1-.45.06,1.89,1.89,0,0,1-.53-.08,1.73,1.73,0,0,1-.5-.22l.33-.63a1.64,1.64,0,0,0,.35.18,1.12,1.12,0,0,0,.37.08.41.41,0,0,0,.19-.05.16.16,0,0,0,.09-.15.16.16,0,0,0-.09-.15l-.3-.09-.18,0-.22-.08a.66.66,0,0,1-.17-.12.46.46,0,0,1-.13-.2.74.74,0,0,1,0-.28.77.77,0,0,1,.1-.4.86.86,0,0,1,.25-.29,1.12,1.12,0,0,1,.37-.16,1.4,1.4,0,0,1,.41-.06,2.08,2.08,0,0,1,.85.17Z"/><path class="c" d="M257.92,236.28H256a.5.5,0,0,0,.57.57.49.49,0,0,0,.44-.23h.87a1,1,0,0,1-.47.65,1.7,1.7,0,0,1-1.9-.13,1.26,1.26,0,0,1-.42-1,1.48,1.48,0,0,1,.11-.57,1.06,1.06,0,0,1,.29-.43,1.37,1.37,0,0,1,.45-.28,1.79,1.79,0,0,1,.57-.09,1.4,1.4,0,0,1,1,.38,1.49,1.49,0,0,1,.37,1.05Zm-.85-.52a.47.47,0,0,0-.18-.3.55.55,0,0,0-.33-.11.56.56,0,0,0-.35.11.44.44,0,0,0-.19.3Z"/><path class="c" d="M259.24,235.27h0a.84.84,0,0,1,.35-.35,1.06,1.06,0,0,1,.48-.11h.18v.88a.45.45,0,0,0-.18-.07l-.21,0a.58.58,0,0,0-.49.2,1.06,1.06,0,0,0-.14.58v1h-.91v-2.56h.91Z"/><path class="c" d="M261.51,235.17h0a1,1,0,0,1,.81-.41,1.07,1.07,0,0,1,.51.12.86.86,0,0,1,.36.37.92.92,0,0,1,.37-.36,1,1,0,0,1,.5-.13.78.78,0,0,1,.67.27,1.19,1.19,0,0,1,.21.75v1.63H264v-1.22c0-.11,0-.19,0-.27a.8.8,0,0,0,0-.21.36.36,0,0,0-.11-.16.33.33,0,0,0-.21-.06.43.43,0,0,0-.24.06.4.4,0,0,0-.13.16,1.6,1.6,0,0,0-.05.21,2.26,2.26,0,0,0,0,.27v1.22h-.91v-1.22a2.26,2.26,0,0,0,0-.27.78.78,0,0,0,0-.21.46.46,0,0,0-.13-.18.39.39,0,0,0-.23-.06.36.36,0,0,0-.22.06.46.46,0,0,0-.13.18.78.78,0,0,0,0,.21,2.26,2.26,0,0,0,0,.27v1.22h-.91v-2.56h.91Z"/><path class="c" d="M267.49,234.85a1.67,1.67,0,0,1,.49.27,1.18,1.18,0,0,1,.34.43,1.4,1.4,0,0,1,.12.58,1.32,1.32,0,0,1-.12.57,1.22,1.22,0,0,1-.33.44,1.87,1.87,0,0,1-1.09.36,1.87,1.87,0,0,1-.59-.09,1.51,1.51,0,0,1-.5-.27,1.27,1.27,0,0,1-.33-.43,1.21,1.21,0,0,1-.13-.58,1.32,1.32,0,0,1,.46-1,1.72,1.72,0,0,1,.5-.27,1.87,1.87,0,0,1,.59-.09A2,2,0,0,1,267.49,234.85Zm-1,.87a.6.6,0,0,0-.16.41.57.57,0,0,0,.16.41.63.63,0,0,0,.86,0,.56.56,0,0,0,.15-.41.59.59,0,0,0-.15-.41.63.63,0,0,0-.86,0Z"/><path class="c" d="M270.78,237.13h0a.66.66,0,0,1-.32.27,1.14,1.14,0,0,1-.45.1,1.27,1.27,0,0,1-.52-.11,1.12,1.12,0,0,1-.41-.3,1.45,1.45,0,0,1,0-1.92,1.31,1.31,0,0,1,.41-.3,1.27,1.27,0,0,1,.52-.11,1.12,1.12,0,0,1,.44.09.81.81,0,0,1,.35.25v-1.84h.91v4.15h-.91Zm-1-1.41a.6.6,0,0,0-.16.41.57.57,0,0,0,.16.41.63.63,0,0,0,.86,0,.56.56,0,0,0,.15-.41.59.59,0,0,0-.15-.41.63.63,0,0,0-.86,0Z"/><path class="c" d="M274.9,236.28H273a.5.5,0,0,0,.57.57.49.49,0,0,0,.44-.23h.87a1,1,0,0,1-.47.65,1.7,1.7,0,0,1-1.9-.13,1.26,1.26,0,0,1-.42-1,1.48,1.48,0,0,1,.11-.57,1.06,1.06,0,0,1,.29-.43,1.37,1.37,0,0,1,.45-.28,1.79,1.79,0,0,1,.57-.09,1.4,1.4,0,0,1,1,.38,1.49,1.49,0,0,1,.37,1.05Zm-.85-.52a.47.47,0,0,0-.18-.3.55.55,0,0,0-.33-.11.56.56,0,0,0-.35.11.44.44,0,0,0-.19.3Z"/><line class="f" x1="497.67" y1="351.46" x2="497.53" y2="344.12"/><polygon class="g" points="497.76 355.83 500.16 349.62 497.67 351.13 495.12 349.72 497.76 355.83"/><polygon class="g" points="497.45 339.75 500.08 345.86 497.54 344.44 495.05 345.95 497.45 339.75"/><line class="f" x1="497.67" y1="269.11" x2="497.53" y2="261.77"/><polygon class="g" points="497.76 273.48 500.16 267.27 497.67 268.78 495.12 267.37 497.76 273.48"/><polygon class="g" points="497.45 257.4 500.08 263.51 497.54 262.1 495.05 263.61 497.45 257.4"/><line class="f" x1="497.67" y1="309.87" x2="497.53" y2="302.53"/><polygon class="g" points="497.76 314.24 500.16 308.03 497.67 309.54 495.12 308.13 497.76 314.24"/><polygon class="g" points="497.45 298.16 500.08 304.27 497.54 302.86 495.05 304.37 497.45 298.16"/><line class="f" x1="497.67" y1="227.8" x2="497.53" y2="220.46"/><polygon class="g" points="497.76 232.17 500.16 225.96 497.67 227.47 495.12 226.06 497.76 232.17"/><polygon class="g" points="497.45 216.08 500.08 222.2 497.54 220.78 495.05 222.29 497.45 216.08"/><rect class="h" x="449.99" y="276.89" width="95.23" height="20.3" rx="2.37"/><rect class="h" x="449.99" y="316.44" width="95.23" height="20.3" rx="2.37"/><rect class="i" x="449.99" y="234.37" width="95.23" height="20.3" rx="2.37"/><rect class="e" x="449.99" y="194.59" width="95.23" height="20.3" rx="2.37"/><rect class="h" x="449.99" y="358.81" width="95.23" height="20.3" rx="2.37"/><path class="c" d="M485.88,368.71v-1.45h1V371h-1v-1.55h-1.41V371h-1v-3.77h1v1.45Z"/><path class="c" d="M487.11,368.46h1.05l.69,1.32.67-1.32h1l-2.05,3.85h-1l.87-1.63Z"/><path class="c" d="M491.64,368.75h0a.7.7,0,0,1,.33-.28,1.08,1.08,0,0,1,.44-.09,1.27,1.27,0,0,1,.52.1,1.24,1.24,0,0,1,.41.3,1.29,1.29,0,0,1,.27.45,1.55,1.55,0,0,1,0,1,1.39,1.39,0,0,1-.26.44,1.21,1.21,0,0,1-.41.3,1.27,1.27,0,0,1-.52.1A1.32,1.32,0,0,1,492,371a.9.9,0,0,1-.35-.25v1.53h-.91v-3.85h.91Zm.12.58a.62.62,0,0,0-.15.42.59.59,0,0,0,.15.41.66.66,0,0,0,.86,0,.6.6,0,0,0,.16-.41.63.63,0,0,0-.16-.42.66.66,0,0,0-.86,0Z"/><path class="c" d="M496.8,369.9h-1.92a.51.51,0,0,0,.58.57.46.46,0,0,0,.43-.24h.87a1,1,0,0,1-.47.66,1.54,1.54,0,0,1-.83.22,1.56,1.56,0,0,1-1.07-.36,1.24,1.24,0,0,1-.42-1,1.48,1.48,0,0,1,.11-.57,1.21,1.21,0,0,1,.29-.44,1.29,1.29,0,0,1,.45-.27,1.79,1.79,0,0,1,.57-.09,1.36,1.36,0,0,1,1,.38,1.41,1.41,0,0,1,.37,1Zm-.84-.53a.51.51,0,0,0-.52-.4.58.58,0,0,0-.35.1.48.48,0,0,0-.19.3Z"/><path class="c" d="M498.12,368.88h0a.88.88,0,0,1,.35-.34,1,1,0,0,1,.48-.11h.18v.87l-.18-.07h-.21a.55.55,0,0,0-.49.2,1,1,0,0,0-.14.57v1h-.91v-2.57h.91Z"/><path class="c" d="M500.83,369.78l.61-1.32h1L501.12,371h-.58l-1.35-2.57h1Z"/><path class="c" d="M503.5,367.12a.51.51,0,1,1-.36-.15A.49.49,0,0,1,503.5,367.12Zm.09,3.91h-.91v-2.57h.91Z"/><path class="c" d="M505.89,369.12a.85.85,0,0,0-.24-.09l-.25,0a.41.41,0,0,0-.19,0,.14.14,0,0,0-.09.13.13.13,0,0,0,.09.14,1.34,1.34,0,0,0,.26.08h0a1,1,0,0,1,.55.24.67.67,0,0,1,.2.52.82.82,0,0,1-.1.42.87.87,0,0,1-.27.3,1.36,1.36,0,0,1-.39.17,1.74,1.74,0,0,1-.45.06,2,2,0,0,1-.54-.07,2.45,2.45,0,0,1-.5-.22l.33-.64a1.73,1.73,0,0,0,.36.18.92.92,0,0,0,.37.08.45.45,0,0,0,.19-.05.15.15,0,0,0,.09-.14.16.16,0,0,0-.1-.16,1.38,1.38,0,0,0-.3-.09l-.17,0-.22-.08a.57.57,0,0,1-.18-.12.52.52,0,0,1-.12-.19.78.78,0,0,1,0-.28.84.84,0,0,1,.09-.4.73.73,0,0,1,.26-.29,1.19,1.19,0,0,1,.36-.17,1.51,1.51,0,0,1,.42-.05,2,2,0,0,1,.84.16Z"/><path class="c" d="M508.71,368.47a1.47,1.47,0,0,1,.49.27,1.2,1.2,0,0,1,.34.43,1.34,1.34,0,0,1,.12.58,1.32,1.32,0,0,1-.12.57,1.3,1.3,0,0,1-.34.43,1.37,1.37,0,0,1-.49.27,2,2,0,0,1-1.19,0,1.47,1.47,0,0,1-.49-.27,1.3,1.3,0,0,1-.34-.43,1.32,1.32,0,0,1-.12-.57,1.34,1.34,0,0,1,.12-.58,1.2,1.2,0,0,1,.34-.43,1.47,1.47,0,0,1,.49-.27,2,2,0,0,1,1.19,0Zm-1,.86a.58.58,0,0,0-.16.42.56.56,0,0,0,.16.41.54.54,0,0,0,.42.16.55.55,0,0,0,.59-.57.58.58,0,0,0-.16-.42.56.56,0,0,0-.43-.16A.54.54,0,0,0,507.69,369.33Z"/><path class="c" d="M511,368.88h0a.85.85,0,0,1,.34-.34,1,1,0,0,1,.49-.11H512v.87l-.18-.07h-.21a.54.54,0,0,0-.49.2,1,1,0,0,0-.14.57v1h-.91v-2.57H511Z"/><path class="c" d="M482.66,246.38h1.18v.83h-2.16v-3.77h1Z"/><path class="c" d="M485,243.3a.51.51,0,1,1-.36-.15A.49.49,0,0,1,485,243.3Zm.1,3.91h-.91v-2.57h.91Z"/><path class="c" d="M486.56,245h0a.88.88,0,0,1,.35-.32,1.09,1.09,0,0,1,.47-.09.89.89,0,0,1,.73.28,1.23,1.23,0,0,1,.23.78v1.59h-.91V246a2.35,2.35,0,0,0,0-.28,1,1,0,0,0-.05-.2.37.37,0,0,0-.13-.15.42.42,0,0,0-.22-.05.39.39,0,0,0-.36.16.74.74,0,0,0-.11.44v1.33h-.91v-2.57h.91Z"/><path class="c" d="M489.85,244.64V246a.67.67,0,0,0,.1.41.38.38,0,0,0,.35.15.4.4,0,0,0,.36-.15.75.75,0,0,0,.1-.41v-1.37h.91v1.55a1.34,1.34,0,0,1-.1.52.88.88,0,0,1-.29.34,1.19,1.19,0,0,1-.43.18,2.32,2.32,0,0,1-.55.06,2.38,2.38,0,0,1-.55-.06,1.14,1.14,0,0,1-.42-.18.87.87,0,0,1-.29-.34,1.18,1.18,0,0,1-.1-.52v-1.55Z"/><path class="c" d="M492.11,244.64h1.16l.46.53.46-.53h1.17l-1.06,1.18,1.28,1.39h-1.19l-.66-.76-.66.76h-1.2l1.28-1.39Z"/><path class="c" d="M498.43,245.57l.95-.93h1.24l-1.28,1.19,1.36,1.38h-1.27l-1-1.05v1.05h-.91v-4.15h.91Z"/><path class="c" d="M503.6,246.08h-1.92a.5.5,0,0,0,.57.57.48.48,0,0,0,.44-.24h.87a1,1,0,0,1-.47.66,1.54,1.54,0,0,1-.83.22,1.6,1.6,0,0,1-1.08-.36,1.27,1.27,0,0,1-.41-1,1.48,1.48,0,0,1,.11-.57,1.09,1.09,0,0,1,.29-.44,1.2,1.2,0,0,1,.45-.27,1.75,1.75,0,0,1,.57-.09,1.36,1.36,0,0,1,1,.38,1.45,1.45,0,0,1,.37,1Zm-.85-.53a.43.43,0,0,0-.18-.29.49.49,0,0,0-.33-.11.61.61,0,0,0-.36.1.47.47,0,0,0-.18.3Z"/><path class="c" d="M504.92,245.06h0a.85.85,0,0,1,.34-.34,1,1,0,0,1,.49-.11h.18v.87a.67.67,0,0,0-.18-.07h-.21a.55.55,0,0,0-.49.2,1,1,0,0,0-.14.57v1H504v-2.57h.91Z"/><path class="c" d="M507.19,245h0a.88.88,0,0,1,.35-.32,1.09,1.09,0,0,1,.47-.09.89.89,0,0,1,.73.28,1.23,1.23,0,0,1,.23.78v1.59h-.91V246a2.35,2.35,0,0,0,0-.28,1,1,0,0,0-.05-.2.37.37,0,0,0-.13-.15.42.42,0,0,0-.22-.05.39.39,0,0,0-.36.16.74.74,0,0,0-.11.44v1.33h-.91v-2.57h.91Z"/><path class="c" d="M512.22,246.08H510.3a.5.5,0,0,0,.57.57.48.48,0,0,0,.44-.24h.87a1,1,0,0,1-.47.66,1.54,1.54,0,0,1-.83.22,1.6,1.6,0,0,1-1.08-.36,1.27,1.27,0,0,1-.41-1,1.7,1.7,0,0,1,.1-.57,1.23,1.23,0,0,1,.3-.44,1.13,1.13,0,0,1,.45-.27,1.75,1.75,0,0,1,.57-.09,1.37,1.37,0,0,1,1,.38,1.45,1.45,0,0,1,.37,1Zm-.85-.53a.43.43,0,0,0-.18-.29.49.49,0,0,0-.33-.11.61.61,0,0,0-.36.1.47.47,0,0,0-.18.3Z"/><path class="c" d="M513.54,247.21h-.91v-4.15h.91Z"/><path class="c" d="M478,202.62h1.17v.83h-2.15v-3.77h1Z"/><path class="c" d="M480.32,199.54a.51.51,0,1,1-.36-.15A.49.49,0,0,1,480.32,199.54Zm.09,3.91h-.91v-2.56h.91Z"/><path class="c" d="M481.92,201.22h0a1,1,0,0,1,.35-.32,1.12,1.12,0,0,1,.47-.1.89.89,0,0,1,.73.29,1.16,1.16,0,0,1,.24.78v1.58h-.91V202.2a2.13,2.13,0,0,0,0-.27.46.46,0,0,0-.05-.21.32.32,0,0,0-.12-.14.45.45,0,0,0-.22-.05.42.42,0,0,0-.37.16.78.78,0,0,0-.11.43v1.33H481v-2.56h.91Z"/><path class="c" d="M485.21,200.89v1.37a.75.75,0,0,0,.1.41.39.39,0,0,0,.36.14.4.4,0,0,0,.36-.14.76.76,0,0,0,.09-.41v-1.37H487v1.54a1.19,1.19,0,0,1-.1.53.86.86,0,0,1-.28.34,1.45,1.45,0,0,1-.44.18,2.23,2.23,0,0,1-.54.06,2.38,2.38,0,0,1-.55-.06,1.39,1.39,0,0,1-.43-.18.84.84,0,0,1-.28-.34,1.22,1.22,0,0,1-.11-.53v-1.54Z"/><path class="c" d="M487.48,200.89h1.15l.46.53.46-.53h1.18l-1.06,1.17,1.28,1.39h-1.2l-.66-.76-.66.76h-1.19l1.28-1.39Z"/><path class="c" d="M493.78,200.89v1.37a.75.75,0,0,0,.1.41.39.39,0,0,0,.36.14.37.37,0,0,0,.35-.14.67.67,0,0,0,.1-.41v-1.37h.91v1.54a1.19,1.19,0,0,1-.1.53.8.8,0,0,1-.29.34,1.33,1.33,0,0,1-.42.18,2.55,2.55,0,0,1-1.1,0,1.39,1.39,0,0,1-.43-.18A.84.84,0,0,1,493,203a1.22,1.22,0,0,1-.11-.53v-1.54Z"/><path class="c" d="M497.88,201.55a.85.85,0,0,0-.24-.09,1.29,1.29,0,0,0-.25,0,.41.41,0,0,0-.19.05.13.13,0,0,0-.1.13.15.15,0,0,0,.1.14,1.38,1.38,0,0,0,.26.07h.05a1.13,1.13,0,0,1,.55.25.66.66,0,0,1,.2.51.94.94,0,0,1-.1.43.89.89,0,0,1-.28.3,1.19,1.19,0,0,1-.38.17,1.74,1.74,0,0,1-.45.06,2,2,0,0,1-.54-.08,1.86,1.86,0,0,1-.5-.22l.33-.63a1.51,1.51,0,0,0,.36.18,1.07,1.07,0,0,0,.36.08.46.46,0,0,0,.2-.05.16.16,0,0,0,.09-.15.15.15,0,0,0-.1-.15,1.38,1.38,0,0,0-.3-.09l-.17,0a1.23,1.23,0,0,1-.23-.08.66.66,0,0,1-.17-.12.7.7,0,0,1-.13-.19.85.85,0,0,1,0-.29.87.87,0,0,1,.09-.4.84.84,0,0,1,.25-.28,1.24,1.24,0,0,1,.37-.17,1.42,1.42,0,0,1,.42-.06,2,2,0,0,1,.84.17Z"/><path class="c" d="M501.38,202.32h-1.91a.5.5,0,0,0,.57.57.46.46,0,0,0,.43-.23h.88a1,1,0,0,1-.47.65,1.72,1.72,0,0,1-1.91-.13,1.29,1.29,0,0,1-.41-1,1.48,1.48,0,0,1,.1-.57,1.3,1.3,0,0,1,.29-.43,1.24,1.24,0,0,1,.46-.27,1.48,1.48,0,0,1,.57-.1,1.34,1.34,0,0,1,1,.39,1.41,1.41,0,0,1,.37,1Zm-.84-.52a.52.52,0,0,0-.18-.29.52.52,0,0,0-.34-.12.61.61,0,0,0-.35.11.48.48,0,0,0-.19.3Z"/><path class="c" d="M502.71,201.31h0a.8.8,0,0,1,.34-.34,1,1,0,0,1,.49-.12h.17v.88a.67.67,0,0,0-.18-.07l-.2,0a.53.53,0,0,0-.49.21.92.92,0,0,0-.14.57v1h-.91v-2.56h.91Z"/><path class="c" d="M505,201.21h0a1,1,0,0,1,.81-.41,1.08,1.08,0,0,1,.52.12.92.92,0,0,1,.36.37,1,1,0,0,1,.36-.36,1.14,1.14,0,0,1,.51-.13.79.79,0,0,1,.67.27,1.26,1.26,0,0,1,.2.75v1.63h-.91v-1.22a2.26,2.26,0,0,0,0-.27.78.78,0,0,0,0-.21.38.38,0,0,0-.12-.16.32.32,0,0,0-.2-.06.43.43,0,0,0-.24.06.33.33,0,0,0-.13.16.54.54,0,0,0-.05.22,1.84,1.84,0,0,0,0,.26v1.22h-.91V202a1.42,1.42,0,0,0,0-.22.31.31,0,0,0-.13-.17.31.31,0,0,0-.22-.07.33.33,0,0,0-.23.07.3.3,0,0,0-.12.17.79.79,0,0,0,0,.22c0,.07,0,.16,0,.26v1.22h-.91v-2.56H505Z"/><path class="c" d="M511,200.9a1.7,1.7,0,0,1,.5.26,1.37,1.37,0,0,1,.34.44,1.32,1.32,0,0,1,.12.57,1.37,1.37,0,0,1-.12.58,1.44,1.44,0,0,1-.34.43,1.67,1.67,0,0,1-.49.27,2,2,0,0,1-1.19,0,1.47,1.47,0,0,1-.49-.27,1.18,1.18,0,0,1-.34-.43,1.34,1.34,0,0,1-.12-.58,1.32,1.32,0,0,1,.12-.57,1.14,1.14,0,0,1,.34-.44,1.64,1.64,0,0,1,.49-.26,1.7,1.7,0,0,1,.59-.1A1.63,1.63,0,0,1,511,200.9Zm-1,.86a.59.59,0,0,0-.15.41.6.6,0,0,0,.15.42.66.66,0,0,0,.86,0,.61.61,0,0,0,.16-.42.6.6,0,0,0-.16-.41.63.63,0,0,0-.86,0Z"/><path class="c" d="M514.25,203.17h0a.73.73,0,0,1-.33.27,1,1,0,0,1-.45.1,1.26,1.26,0,0,1-.51-.11,1.25,1.25,0,0,1-.42-.3,1.62,1.62,0,0,1-.27-.44,1.55,1.55,0,0,1,0-1,1.25,1.25,0,0,1,.27-.44,1.12,1.12,0,0,1,.41-.3,1.23,1.23,0,0,1,.51-.11,1.08,1.08,0,0,1,.44.09.93.93,0,0,1,.36.25V199.3h.91v4.15h-.91Zm-1-1.41a.59.59,0,0,0-.15.41.6.6,0,0,0,.15.42.66.66,0,0,0,.86,0,.61.61,0,0,0,.16-.42.6.6,0,0,0-.16-.41.63.63,0,0,0-.86,0Z"/><path class="c" d="M518.36,202.32h-1.91a.5.5,0,0,0,.57.57.46.46,0,0,0,.43-.23h.88a1,1,0,0,1-.47.65,1.6,1.6,0,0,1-.84.23,1.56,1.56,0,0,1-1.07-.36,1.26,1.26,0,0,1-.41-1,1.48,1.48,0,0,1,.1-.57,1.3,1.3,0,0,1,.29-.43,1.29,1.29,0,0,1,.45-.27,1.57,1.57,0,0,1,.58-.1,1.34,1.34,0,0,1,1,.39,1.41,1.41,0,0,1,.37,1Zm-.84-.52a.52.52,0,0,0-.18-.29.52.52,0,0,0-.34-.12.61.61,0,0,0-.35.11.48.48,0,0,0-.19.3Z"/><path class="c" d="M486.11,208.32h-1.92a.5.5,0,0,0,.57.57.47.47,0,0,0,.44-.23h.87a1,1,0,0,1-.47.65,1.7,1.7,0,0,1-1.9-.13,1.26,1.26,0,0,1-.42-1,1.7,1.7,0,0,1,.1-.57,1.25,1.25,0,0,1,.75-.7,1.52,1.52,0,0,1,.57-.1,1.36,1.36,0,0,1,1,.39,1.45,1.45,0,0,1,.37,1Zm-.85-.52a.43.43,0,0,0-.18-.29.5.5,0,0,0-.33-.12.56.56,0,0,0-.35.11.44.44,0,0,0-.19.3Z"/><path class="c" d="M489.34,209.2a1.6,1.6,0,0,1-.38,1.17,1.54,1.54,0,0,1-1.11.36,2,2,0,0,1-.47-.06,2,2,0,0,1-.46-.18,1.19,1.19,0,0,1-.36-.31.91.91,0,0,1-.17-.43h1a.31.31,0,0,0,.17.2.58.58,0,0,0,.26.06.67.67,0,0,0,.3-.06.35.35,0,0,0,.17-.15.43.43,0,0,0,.09-.23,1.26,1.26,0,0,0,0-.3v-.12a1.33,1.33,0,0,1-.38.27,1,1,0,0,1-.44.08,1.25,1.25,0,0,1-.51-.1,1.09,1.09,0,0,1-.4-.27,1.29,1.29,0,0,1-.26-.42,1.46,1.46,0,0,1-.09-.52,1.6,1.6,0,0,1,.09-.53,1.48,1.48,0,0,1,.27-.44,1.43,1.43,0,0,1,.42-.31,1.32,1.32,0,0,1,.53-.11,1,1,0,0,1,.43.09.86.86,0,0,1,.33.27h0v-.27h.91Zm-1.89-1.46a.56.56,0,0,0-.16.41.57.57,0,0,0,.16.42.57.57,0,0,0,.42.16.6.6,0,0,0,.43-.16.57.57,0,0,0,.16-.42.56.56,0,0,0-.16-.41.56.56,0,0,0-.43-.17A.54.54,0,0,0,487.45,207.74Z"/><path class="c" d="M490.88,206.87a.53.53,0,0,1,.17.41.58.58,0,0,1-.58.59.59.59,0,0,1-.42-.17.61.61,0,0,1-.17-.42.57.57,0,0,1,.17-.41.59.59,0,0,1,.42-.17A.57.57,0,0,1,490.88,206.87Zm0,1.68a.57.57,0,0,1,.17.42.58.58,0,0,1-.58.58.55.55,0,0,1-.42-.17.57.57,0,0,1-.17-.41.61.61,0,0,1,.17-.42.59.59,0,0,1,.42-.17A.57.57,0,0,1,490.88,208.55Z"/><path class="c" d="M496.63,205.68v2.12a3.4,3.4,0,0,1-.08.78,1,1,0,0,1-.32.55,1.16,1.16,0,0,1-.55.32,2.37,2.37,0,0,1-.7.1,2.26,2.26,0,0,1-.69-.1,1.2,1.2,0,0,1-.56-.32,1.14,1.14,0,0,1-.32-.55,3.46,3.46,0,0,1-.07-.78v-2.12h1v2c0,.15,0,.28,0,.39a1,1,0,0,0,.09.31.52.52,0,0,0,.2.24.85.85,0,0,0,.72,0,.58.58,0,0,0,.21-.23,1.09,1.09,0,0,0,.08-.31c0-.11,0-.25,0-.4v-2Z"/><path class="c" d="M497.2,205.3h.91v1.84a.9.9,0,0,1,.35-.25,1.12,1.12,0,0,1,.44-.09,1.27,1.27,0,0,1,.52.11,1.21,1.21,0,0,1,.41.3,1.22,1.22,0,0,1,.26.44,1.4,1.4,0,0,1,0,1,1.28,1.28,0,0,1-.26.44,1.25,1.25,0,0,1-.42.3,1.27,1.27,0,0,1-.52.11,1.12,1.12,0,0,1-.44-.09.83.83,0,0,1-.33-.28h0v.28h-.91Zm1,2.46a.56.56,0,0,0-.16.41.57.57,0,0,0,.16.42.57.57,0,0,0,.42.16.6.6,0,0,0,.43-.16.57.57,0,0,0,.16-.42.56.56,0,0,0-.16-.41.56.56,0,0,0-.43-.17A.54.54,0,0,0,498.24,207.76Z"/><path class="c" d="M501.53,206.89v1.37a.67.67,0,0,0,.1.41c.06.1.18.14.36.14a.37.37,0,0,0,.35-.14.67.67,0,0,0,.1-.41v-1.37h.91v1.54a1.19,1.19,0,0,1-.1.53.8.8,0,0,1-.29.34,1.3,1.3,0,0,1-.43.18,2.23,2.23,0,0,1-.54.06,2.32,2.32,0,0,1-.55-.06,1.3,1.3,0,0,1-.43-.18,1,1,0,0,1-.29-.34,1.39,1.39,0,0,1-.1-.53v-1.54Z"/><path class="c" d="M504.84,207.22h0a1,1,0,0,1,.35-.32,1.12,1.12,0,0,1,.47-.1.89.89,0,0,1,.73.29,1.16,1.16,0,0,1,.24.78v1.58h-.91V208.2a2.13,2.13,0,0,0,0-.27.46.46,0,0,0,0-.21.32.32,0,0,0-.12-.14.48.48,0,0,0-.22-.05.42.42,0,0,0-.37.16.78.78,0,0,0-.11.43v1.33h-.91v-2.56h.91Z"/><path class="c" d="M508.23,209.45h-.91v-1.81H507v-.75h.29v-.77h.91v.77h.52v.75h-.52Z"/><path class="c" d="M509.93,206.89v1.37a.67.67,0,0,0,.1.41c.06.1.18.14.36.14a.37.37,0,0,0,.35-.14.67.67,0,0,0,.1-.41v-1.37h.91v1.54a1.19,1.19,0,0,1-.1.53.8.8,0,0,1-.29.34,1.3,1.3,0,0,1-.43.18,2.23,2.23,0,0,1-.54.06,2.32,2.32,0,0,1-.55-.06,1.3,1.3,0,0,1-.43-.18,1,1,0,0,1-.29-.34,1.39,1.39,0,0,1-.1-.53v-1.54Z"/><line class="f" x1="96.48" y1="273.13" x2="96.34" y2="265.79"/><polygon class="g" points="96.57 277.5 98.97 271.29 96.48 272.8 93.93 271.39 96.57 277.5"/><polygon class="g" points="96.26 261.42 98.89 267.53 96.35 266.12 93.86 267.63 96.26 261.42"/><rect class="i" x="48.5" y="279.7" width="95.82" height="20.3" rx="2.37"/><rect class="e" x="48.5" y="239.93" width="95.82" height="20.3" rx="2.37"/><path class="c" d="M81.47,291.71h1.18v.83H80.49v-3.77h1Z"/><path class="c" d="M83.76,288.63a.51.51,0,1,1-.36-.15A.49.49,0,0,1,83.76,288.63Zm.1,3.91H83V290h.91Z"/><path class="c" d="M85.37,290.3h0a1,1,0,0,1,.35-.32,1.09,1.09,0,0,1,.47-.09.89.89,0,0,1,.73.28,1.23,1.23,0,0,1,.23.78v1.59h-.91v-1.25a2.35,2.35,0,0,0,0-.28,1.17,1.17,0,0,0,0-.2.33.33,0,0,0-.12-.14.39.39,0,0,0-.23-.06.4.4,0,0,0-.36.17.69.69,0,0,0-.11.43v1.33h-.91V290h.91Z"/><path class="c" d="M88.66,290v1.37a.73.73,0,0,0,.1.42.4.4,0,0,0,.35.14.41.41,0,0,0,.36-.14.73.73,0,0,0,.1-.42V290h.91v1.55a1.3,1.3,0,0,1-.1.52.81.81,0,0,1-.29.34,1.13,1.13,0,0,1-.43.19,3,3,0,0,1-.55.05,2.92,2.92,0,0,1-.54-.05,1.13,1.13,0,0,1-.43-.19.8.8,0,0,1-.29-.34,1.15,1.15,0,0,1-.1-.52V290Z"/><path class="c" d="M90.92,290h1.16l.46.53L93,290h1.17l-1.06,1.18,1.28,1.39H93.2l-.66-.76-.66.76h-1.2L92,291.15Z"/><path class="c" d="M97.24,290.9l1-.93h1.24l-1.28,1.19,1.36,1.38H98.24l-1-1.05v1.05h-.91v-4.15h.91Z"/><path class="c" d="M102.41,291.41h-1.92a.5.5,0,0,0,.57.57.48.48,0,0,0,.44-.24h.87a1,1,0,0,1-.47.66,1.54,1.54,0,0,1-.83.22,1.56,1.56,0,0,1-1.07-.36,1.24,1.24,0,0,1-.42-1,1.48,1.48,0,0,1,.11-.57,1.09,1.09,0,0,1,.29-.44,1.2,1.2,0,0,1,.45-.27,1.79,1.79,0,0,1,.57-.09,1.4,1.4,0,0,1,1,.38,1.47,1.47,0,0,1,.37,1Zm-.85-.53a.45.45,0,0,0-.18-.29.55.55,0,0,0-.33-.11.56.56,0,0,0-.35.1.44.44,0,0,0-.19.3Z"/><path class="c" d="M103.73,290.39h0a.88.88,0,0,1,.35-.34,1.06,1.06,0,0,1,.48-.11h.18v.87a.64.64,0,0,0-.18-.06.68.68,0,0,0-.21,0,.58.58,0,0,0-.49.2,1,1,0,0,0-.14.57v1h-.91V290h.91Z"/><path class="c" d="M106,290.3h0a1,1,0,0,1,.35-.32,1.09,1.09,0,0,1,.47-.09.89.89,0,0,1,.73.28,1.23,1.23,0,0,1,.23.78v1.59h-.91v-1.25a2.35,2.35,0,0,0,0-.28,1.17,1.17,0,0,0-.05-.2.33.33,0,0,0-.12-.14.39.39,0,0,0-.23-.06.4.4,0,0,0-.36.17.69.69,0,0,0-.11.43v1.33h-.91V290H106Z"/><path class="c" d="M111,291.41h-1.92a.5.5,0,0,0,.57.57.48.48,0,0,0,.44-.24H111a1,1,0,0,1-.47.66,1.54,1.54,0,0,1-.83.22,1.56,1.56,0,0,1-1.07-.36,1.24,1.24,0,0,1-.42-1,1.48,1.48,0,0,1,.11-.57,1.09,1.09,0,0,1,.29-.44,1.2,1.2,0,0,1,.45-.27,1.79,1.79,0,0,1,.57-.09,1.4,1.4,0,0,1,1,.38,1.47,1.47,0,0,1,.37,1Zm-.85-.53a.45.45,0,0,0-.18-.29.55.55,0,0,0-.33-.11.56.56,0,0,0-.35.1.44.44,0,0,0-.19.3Z"/><path class="c" d="M112.35,292.54h-.91v-4.15h.91Z"/><path class="c" d="M76.84,248H78v.83H75.86V245h1Z"/><path class="c" d="M79.13,244.88a.51.51,0,1,1-.36-.15A.49.49,0,0,1,79.13,244.88Zm.09,3.91h-.91v-2.57h.91Z"/><path class="c" d="M80.73,246.55h0a1,1,0,0,1,.35-.32,1.13,1.13,0,0,1,.47-.09.88.88,0,0,1,.73.28,1.17,1.17,0,0,1,.24.78v1.59h-.91v-1.25c0-.11,0-.2,0-.28a.66.66,0,0,0-.06-.2.29.29,0,0,0-.12-.15.51.51,0,0,0-.59.11.82.82,0,0,0-.11.44v1.33h-.91v-2.57h.91Z"/><path class="c" d="M84,246.22v1.37a.75.75,0,0,0,.1.41.4.4,0,0,0,.36.15.41.41,0,0,0,.36-.15.76.76,0,0,0,.09-.41v-1.37h.91v1.55a1.18,1.18,0,0,1-.1.52.79.79,0,0,1-.28.34,1.27,1.27,0,0,1-.43.18,2.55,2.55,0,0,1-1.1,0,1.19,1.19,0,0,1-.43-.18.84.84,0,0,1-.28-.34,1.17,1.17,0,0,1-.11-.52v-1.55Z"/><path class="c" d="M86.29,246.22h1.15l.46.53.46-.53h1.18l-1.06,1.18,1.28,1.39h-1.2L87.9,248l-.66.76H86.05l1.28-1.39Z"/><path class="c" d="M92.59,246.22v1.37a.75.75,0,0,0,.1.41.4.4,0,0,0,.36.15.41.41,0,0,0,.36-.15.76.76,0,0,0,.09-.41v-1.37h.91v1.55a1.18,1.18,0,0,1-.1.52.79.79,0,0,1-.28.34,1.27,1.27,0,0,1-.43.18,2.55,2.55,0,0,1-1.1,0,1.19,1.19,0,0,1-.43-.18.84.84,0,0,1-.28-.34,1.17,1.17,0,0,1-.11-.52v-1.55Z"/><path class="c" d="M96.69,246.88l-.24-.09-.25,0a.41.41,0,0,0-.19,0,.14.14,0,0,0-.1.13.14.14,0,0,0,.1.14,1.34,1.34,0,0,0,.26.08h0a1.12,1.12,0,0,1,.55.24.67.67,0,0,1,.2.52.93.93,0,0,1-.1.42.79.79,0,0,1-.27.3,1.13,1.13,0,0,1-.39.17,1.74,1.74,0,0,1-.45.06,2,2,0,0,1-.54-.07,2.45,2.45,0,0,1-.5-.22l.33-.64a1.51,1.51,0,0,0,.36.18.87.87,0,0,0,.36.08.35.35,0,0,0,.2,0,.15.15,0,0,0,.09-.14.17.17,0,0,0-.1-.16,1.38,1.38,0,0,0-.3-.09l-.17,0a.93.93,0,0,1-.22-.08.57.57,0,0,1-.18-.12.52.52,0,0,1-.12-.19.61.61,0,0,1,0-.28.84.84,0,0,1,.09-.4.73.73,0,0,1,.26-.29,1.09,1.09,0,0,1,.36-.17,1.93,1.93,0,0,1,.42-.05,2,2,0,0,1,.84.16Z"/><path class="c" d="M100.19,247.66H98.28a.5.5,0,0,0,.57.57.46.46,0,0,0,.43-.24h.88a1,1,0,0,1-.47.66,1.75,1.75,0,0,1-1.91-.14,1.27,1.27,0,0,1-.41-1,1.48,1.48,0,0,1,.1-.57,1.35,1.35,0,0,1,.29-.44,1.24,1.24,0,0,1,.46-.27,1.7,1.7,0,0,1,.57-.09,1.34,1.34,0,0,1,1,.38,1.41,1.41,0,0,1,.37,1Zm-.84-.53a.51.51,0,0,0-.52-.4.6.6,0,0,0-.35.1.48.48,0,0,0-.19.3Z"/><path class="c" d="M101.52,246.64h0a.8.8,0,0,1,.34-.34,1,1,0,0,1,.49-.11h.17v.87l-.18-.07h-.2a.53.53,0,0,0-.49.2.92.92,0,0,0-.14.57v1h-.91v-2.57h.91Z"/><path class="c" d="M103.78,246.54h0a1,1,0,0,1,.81-.4,1.08,1.08,0,0,1,.52.12.86.86,0,0,1,.36.37.92.92,0,0,1,.36-.37,1.13,1.13,0,0,1,.51-.12.79.79,0,0,1,.67.27,1.23,1.23,0,0,1,.2.74v1.64h-.91v-1.23a2,2,0,0,0,0-.26.65.65,0,0,0,0-.21.5.5,0,0,0-.11-.17.37.37,0,0,0-.21-.06.43.43,0,0,0-.24.06.36.36,0,0,0-.13.17.46.46,0,0,0,0,.21,1.84,1.84,0,0,0,0,.26v1.23h-.91V247.3a.79.79,0,0,0,0-.22.35.35,0,0,0-.35-.24.33.33,0,0,0-.23.07.3.3,0,0,0-.12.17.79.79,0,0,0,0,.22c0,.07,0,.16,0,.26v1.23h-.91v-2.57h.91Z"/><path class="c" d="M109.76,246.23a1.51,1.51,0,0,1,.5.27,1.3,1.3,0,0,1,0,2,1.47,1.47,0,0,1-.49.27,2,2,0,0,1-1.19,0,1.47,1.47,0,0,1-.49-.27,1.1,1.1,0,0,1-.34-.43,1.32,1.32,0,0,1-.12-.57,1.34,1.34,0,0,1,.12-.58,1.1,1.1,0,0,1,.34-.43,1.47,1.47,0,0,1,.49-.27,2,2,0,0,1,.59-.09A1.87,1.87,0,0,1,109.76,246.23Zm-1,.86a.58.58,0,0,0-.16.42.56.56,0,0,0,.16.41.54.54,0,0,0,.42.16.55.55,0,0,0,.59-.57.58.58,0,0,0-.16-.42.56.56,0,0,0-.43-.16A.54.54,0,0,0,108.75,247.09Z"/><path class="c" d="M113.06,248.5h0a.83.83,0,0,1-.33.28,1.13,1.13,0,0,1-.45.09,1.12,1.12,0,0,1-.51-.11,1.25,1.25,0,0,1-.42-.3,1.48,1.48,0,0,1-.27-.44,1.46,1.46,0,0,1-.09-.52,1.5,1.5,0,0,1,.09-.52,1.25,1.25,0,0,1,.27-.44,1.4,1.4,0,0,1,.41-.3,1.22,1.22,0,0,1,.51-.1,1.38,1.38,0,0,1,.45.08,1,1,0,0,1,.35.25v-1.83H114v4.15h-.91Zm-1-1.41a.58.58,0,0,0-.16.42.56.56,0,0,0,.16.41.54.54,0,0,0,.42.16.55.55,0,0,0,.59-.57.58.58,0,0,0-.16-.42.56.56,0,0,0-.43-.16A.54.54,0,0,0,112.08,247.09Z"/><path class="c" d="M117.17,247.66h-1.91a.5.5,0,0,0,.57.57.46.46,0,0,0,.43-.24h.88a1,1,0,0,1-.47.66,1.57,1.57,0,0,1-.84.22,1.56,1.56,0,0,1-1.07-.36,1.24,1.24,0,0,1-.41-1,1.48,1.48,0,0,1,.1-.57,1.35,1.35,0,0,1,.29-.44,1.29,1.29,0,0,1,.45-.27,1.81,1.81,0,0,1,.58-.09,1.34,1.34,0,0,1,1,.38,1.41,1.41,0,0,1,.37,1Zm-.84-.53a.51.51,0,0,0-.52-.4.6.6,0,0,0-.35.1.48.48,0,0,0-.19.3Z"/><path class="c" d="M84.92,253.66H83a.5.5,0,0,0,.57.57A.48.48,0,0,0,84,254h.87a1,1,0,0,1-.47.66,1.54,1.54,0,0,1-.83.22,1.56,1.56,0,0,1-1.07-.36,1.24,1.24,0,0,1-.42-1,1.48,1.48,0,0,1,.11-.57,1.09,1.09,0,0,1,.29-.44,1.2,1.2,0,0,1,.45-.27,1.79,1.79,0,0,1,.57-.09,1.36,1.36,0,0,1,1,.38,1.45,1.45,0,0,1,.37,1Zm-.85-.53a.43.43,0,0,0-.18-.29.49.49,0,0,0-.33-.11.56.56,0,0,0-.35.1.44.44,0,0,0-.19.3Z"/><path class="c" d="M88.15,254.54a1.57,1.57,0,0,1-.38,1.16,1.55,1.55,0,0,1-1.11.37,2,2,0,0,1-.47-.06,1.66,1.66,0,0,1-.46-.19,1,1,0,0,1-.35-.31.8.8,0,0,1-.18-.42h1a.32.32,0,0,0,.17.19.58.58,0,0,0,.26.06.85.85,0,0,0,.3-.05.44.44,0,0,0,.17-.16.43.43,0,0,0,.09-.22,1.39,1.39,0,0,0,0-.3v-.12a1.2,1.2,0,0,1-.37.26,1.06,1.06,0,0,1-.45.09,1.45,1.45,0,0,1-.51-.1,1.26,1.26,0,0,1-.4-.28,1.29,1.29,0,0,1-.26-.42,1.44,1.44,0,0,1-.09-.51,1.61,1.61,0,0,1,.09-.54,1.79,1.79,0,0,1,.27-.44,1.25,1.25,0,0,1,.42-.3,1.17,1.17,0,0,1,.53-.11,1.23,1.23,0,0,1,.44.08.91.91,0,0,1,.32.27h0v-.27h.91Zm-1.89-1.47a.58.58,0,0,0-.16.42.56.56,0,0,0,.16.41.54.54,0,0,0,.42.16.55.55,0,0,0,.59-.57.58.58,0,0,0-.16-.42.56.56,0,0,0-.43-.16A.54.54,0,0,0,86.26,253.07Z"/><path class="c" d="M89.69,252.2a.55.55,0,0,1,.17.42.54.54,0,0,1-.17.41.57.57,0,0,1-.41.17.59.59,0,0,1-.42-.17.58.58,0,0,1-.17-.41.58.58,0,0,1,.59-.59A.57.57,0,0,1,89.69,252.2Zm0,1.69a.58.58,0,0,1,0,.82.54.54,0,0,1-.41.18.56.56,0,0,1-.42-.18.58.58,0,0,1,0-.82.55.55,0,0,1,.42-.17A.53.53,0,0,1,89.69,253.89Z"/><path class="c" d="M95.44,251v2.12a4.13,4.13,0,0,1-.07.77,1.16,1.16,0,0,1-.33.56,1.36,1.36,0,0,1-.55.32,2.75,2.75,0,0,1-.7.1,2.61,2.61,0,0,1-.69-.1,1.4,1.4,0,0,1-.56-.32,1.22,1.22,0,0,1-.32-.56,3.43,3.43,0,0,1-.07-.77V251h1v2a2.36,2.36,0,0,0,0,.4.84.84,0,0,0,.08.31.55.55,0,0,0,.2.23.64.64,0,0,0,.36.09.7.7,0,0,0,.37-.09.63.63,0,0,0,.2-.23,1.09,1.09,0,0,0,.08-.31c0-.11,0-.24,0-.4v-2Z"/><path class="c" d="M96,250.64h.91v1.83a.9.9,0,0,1,.35-.25,1.32,1.32,0,0,1,.44-.08,1.27,1.27,0,0,1,.52.1,1.33,1.33,0,0,1,.68.74,1.5,1.5,0,0,1,.09.52,1.35,1.35,0,0,1-.1.53,1.5,1.5,0,0,1-.26.44,1.37,1.37,0,0,1-.42.29,1.13,1.13,0,0,1-.52.11,1.12,1.12,0,0,1-.44-.09.75.75,0,0,1-.33-.28h0v.29H96Zm1,2.45a.58.58,0,0,0-.16.42.56.56,0,0,0,.16.41.54.54,0,0,0,.42.16.55.55,0,0,0,.59-.57.58.58,0,0,0-.16-.42.56.56,0,0,0-.43-.16A.54.54,0,0,0,97.05,253.09Z"/><path class="c" d="M100.34,252.22v1.37a.75.75,0,0,0,.1.41.39.39,0,0,0,.36.15.38.38,0,0,0,.35-.15.67.67,0,0,0,.1-.41v-1.37h.91v1.55a1.18,1.18,0,0,1-.1.52.75.75,0,0,1-.29.34,1.12,1.12,0,0,1-.43.18,2.23,2.23,0,0,1-.54.06,2.38,2.38,0,0,1-.55-.06,1.12,1.12,0,0,1-.43-.18.84.84,0,0,1-.28-.34,1.17,1.17,0,0,1-.11-.52v-1.55Z"/><path class="c" d="M103.65,252.55h0a1,1,0,0,1,.35-.32,1.13,1.13,0,0,1,.47-.09.88.88,0,0,1,.73.28,1.17,1.17,0,0,1,.24.78v1.59h-.91v-1.25a2.16,2.16,0,0,0,0-.28.46.46,0,0,0,0-.2.35.35,0,0,0-.12-.15.48.48,0,0,0-.22,0,.45.45,0,0,0-.37.16.82.82,0,0,0-.11.44v1.33h-.91v-2.57h.91Z"/><path class="c" d="M107,254.79h-.91V253h-.29v-.75h.29v-.77H107v.77h.52V253H107Z"/><path class="c" d="M108.74,252.22v1.37a.67.67,0,0,0,.1.41.39.39,0,0,0,.36.15.38.38,0,0,0,.35-.15.67.67,0,0,0,.1-.41v-1.37h.91v1.55a1.18,1.18,0,0,1-.1.52.75.75,0,0,1-.29.34,1.12,1.12,0,0,1-.43.18,2.23,2.23,0,0,1-.54.06,2.32,2.32,0,0,1-.55-.06,1.12,1.12,0,0,1-.43-.18.84.84,0,0,1-.28-.34,1.17,1.17,0,0,1-.11-.52v-1.55Z"/><path class="c" d="M477.74,327.82h0l.79-2.43h.78l.74,2.43h0l.71-2.43h1l-1.2,3.77h-1l-.66-2.19h0l-.74,2.19h-1l-1.12-3.77h1Z"/><path class="c" d="M482.84,325.25a.51.51,0,1,1-.36-.15A.49.49,0,0,1,482.84,325.25Zm.1,3.91H482v-2.57h.91Z"/><path class="c" d="M484.45,326.92h0a1,1,0,0,1,.35-.32,1.09,1.09,0,0,1,.47-.09.89.89,0,0,1,.73.28,1.23,1.23,0,0,1,.23.78v1.59h-.91v-1.25a2.35,2.35,0,0,0,0-.28,1.17,1.17,0,0,0-.05-.2.29.29,0,0,0-.13-.14.36.36,0,0,0-.22-.06.41.41,0,0,0-.36.16.74.74,0,0,0-.11.44v1.33h-.91v-2.57h.91Z"/><path class="c" d="M488.77,328.87h0a.8.8,0,0,1-.32.28,1.23,1.23,0,0,1-1,0,1.12,1.12,0,0,1-.41-.3,1.16,1.16,0,0,1-.27-.44,1.27,1.27,0,0,1-.1-.52,1.5,1.5,0,0,1,.09-.52,1.25,1.25,0,0,1,.27-.44,1.33,1.33,0,0,1,.41-.29,1.13,1.13,0,0,1,.52-.11,1.32,1.32,0,0,1,.44.08.9.9,0,0,1,.35.25V325h.91v4.15h-.91Zm-1-1.41a.58.58,0,0,0-.16.42.55.55,0,0,0,.59.57.54.54,0,0,0,.42-.16.56.56,0,0,0,.16-.41.58.58,0,0,0-.16-.42.54.54,0,0,0-.42-.16A.56.56,0,0,0,487.79,327.46Z"/><path class="c" d="M492.2,326.6a1.47,1.47,0,0,1,.49.27,1.2,1.2,0,0,1,.34.43,1.34,1.34,0,0,1,.12.58,1.32,1.32,0,0,1-.12.57,1.2,1.2,0,0,1-.34.43,1.37,1.37,0,0,1-.49.27,2,2,0,0,1-.59.09,1.87,1.87,0,0,1-.59-.09,1.42,1.42,0,0,1-.5-.27,1.2,1.2,0,0,1-.34-.43,1.32,1.32,0,0,1-.12-.57,1.34,1.34,0,0,1,.12-.58,1.2,1.2,0,0,1,.34-.43,1.42,1.42,0,0,1,.5-.27,1.87,1.87,0,0,1,.59-.09A2,2,0,0,1,492.2,326.6Zm-1,.86a.58.58,0,0,0-.16.42.55.55,0,0,0,.59.57.54.54,0,0,0,.42-.16.56.56,0,0,0,.16-.41.58.58,0,0,0-.16-.42.54.54,0,0,0-.42-.16A.56.56,0,0,0,491.18,327.46Z"/><path class="c" d="M494.84,328l.64-1.39H496l.65,1.39.64-1.39h1L497,329.16h-.59l-.64-1.41-.63,1.41h-.59l-1.34-2.57h1Z"/><path class="c" d="M500.24,327.25l-.24-.09-.25,0a.45.45,0,0,0-.2,0,.15.15,0,0,0-.09.13.15.15,0,0,0,.1.15l.26.07h.05a1.08,1.08,0,0,1,.55.25.63.63,0,0,1,.2.51.93.93,0,0,1-.1.42.74.74,0,0,1-.28.3,1,1,0,0,1-.39.17,1.61,1.61,0,0,1-.44.06,1.9,1.9,0,0,1-.54-.07,2.24,2.24,0,0,1-.5-.22l.33-.64a2,2,0,0,0,.36.19,1,1,0,0,0,.36.07.35.35,0,0,0,.2-.05.15.15,0,0,0,.09-.14.19.19,0,0,0-.1-.16,1.38,1.38,0,0,0-.3-.09l-.17,0a1.23,1.23,0,0,1-.23-.08.66.66,0,0,1-.17-.12.53.53,0,0,1-.13-.19.79.79,0,0,1,0-.28.84.84,0,0,1,.09-.4.71.71,0,0,1,.25-.29,1.4,1.4,0,0,1,.37-.17,1.86,1.86,0,0,1,.42-.05,2,2,0,0,1,.84.16Z"/><path class="c" d="M503.73,327.52l.94-.93h1.25l-1.28,1.19,1.36,1.38h-1.27l-1-1.05v1.05h-.91V325h.91Z"/><path class="c" d="M508.9,328H507a.5.5,0,0,0,.57.57.48.48,0,0,0,.44-.24h.87a1,1,0,0,1-.47.66,1.54,1.54,0,0,1-.83.22,1.6,1.6,0,0,1-1.08-.36,1.27,1.27,0,0,1-.41-1,1.48,1.48,0,0,1,.1-.57,1.35,1.35,0,0,1,.29-.44,1.24,1.24,0,0,1,.46-.27,1.7,1.7,0,0,1,.57-.09,1.37,1.37,0,0,1,1,.38,1.45,1.45,0,0,1,.37,1Zm-.85-.53a.45.45,0,0,0-.18-.29.51.51,0,0,0-.33-.11.61.61,0,0,0-.36.1.43.43,0,0,0-.18.3Z"/><path class="c" d="M510.22,327h0a.92.92,0,0,1,.34-.34,1,1,0,0,1,.49-.11h.18v.87a.64.64,0,0,0-.18-.06.68.68,0,0,0-.21,0,.57.57,0,0,0-.49.2,1,1,0,0,0-.14.57v1h-.91v-2.57h.91Z"/><path class="c" d="M512.49,326.92h0a.93.93,0,0,1,.34-.32,1.17,1.17,0,0,1,.48-.09.86.86,0,0,1,.72.28,1.17,1.17,0,0,1,.24.78v1.59h-.91v-1.25a2.35,2.35,0,0,0,0-.28.66.66,0,0,0-.06-.2.24.24,0,0,0-.12-.14.36.36,0,0,0-.22-.06.45.45,0,0,0-.37.16.82.82,0,0,0-.1.44v1.33h-.91v-2.57h.91Z"/><path class="c" d="M517.52,328H515.6a.5.5,0,0,0,.57.57.48.48,0,0,0,.44-.24h.87a1,1,0,0,1-.47.66,1.54,1.54,0,0,1-.83.22,1.6,1.6,0,0,1-1.08-.36,1.27,1.27,0,0,1-.41-1,1.48,1.48,0,0,1,.1-.57,1.35,1.35,0,0,1,.29-.44,1.24,1.24,0,0,1,.46-.27,1.7,1.7,0,0,1,.57-.09,1.37,1.37,0,0,1,1,.38,1.45,1.45,0,0,1,.37,1Zm-.85-.53a.45.45,0,0,0-.18-.29.51.51,0,0,0-.33-.11.61.61,0,0,0-.36.1.43.43,0,0,0-.18.3Z"/><path class="c" d="M518.84,329.16h-.91V325h.91Z"/><path class="c" d="M486.87,284.89h0l.79-2.43h.78l.74,2.43h0l.71-2.43h1l-1.2,3.77h-1l-.66-2.19h0l-.74,2.19h-1l-1.12-3.77h1Z"/><path class="c" d="M492,282.32a.51.51,0,1,1-.36-.15A.49.49,0,0,1,492,282.32Zm.1,3.91h-.91v-2.57h.91Z"/><path class="c" d="M493.58,284h0a1,1,0,0,1,.35-.32,1.09,1.09,0,0,1,.47-.09.89.89,0,0,1,.73.28,1.23,1.23,0,0,1,.23.78v1.59h-.91V285a2.35,2.35,0,0,0,0-.28,1,1,0,0,0-.05-.2.37.37,0,0,0-.13-.15.45.45,0,0,0-.22-.05.41.41,0,0,0-.36.16.74.74,0,0,0-.11.44v1.33h-.91v-2.57h.91Z"/><path class="c" d="M497.9,285.94h0a.8.8,0,0,1-.32.28,1.23,1.23,0,0,1-1,0,1.12,1.12,0,0,1-.41-.3,1.16,1.16,0,0,1-.27-.44,1.3,1.3,0,0,1-.1-.52,1.5,1.5,0,0,1,.09-.52,1.25,1.25,0,0,1,.27-.44,1.55,1.55,0,0,1,.41-.3,1.27,1.27,0,0,1,.52-.1,1.32,1.32,0,0,1,.44.08.9.9,0,0,1,.35.25v-1.83h.91v4.15h-.91Zm-1-1.41a.58.58,0,0,0-.16.42.55.55,0,0,0,.59.57.54.54,0,0,0,.42-.16.56.56,0,0,0,.16-.41.58.58,0,0,0-.16-.42.54.54,0,0,0-.42-.16A.56.56,0,0,0,496.92,284.53Z"/><path class="c" d="M501.33,283.67a1.47,1.47,0,0,1,.49.27,1.2,1.2,0,0,1,.34.43,1.34,1.34,0,0,1,.12.58,1.32,1.32,0,0,1-.12.57,1.3,1.3,0,0,1-.34.43,1.37,1.37,0,0,1-.49.27,2,2,0,0,1-.59.09,1.87,1.87,0,0,1-.59-.09,1.42,1.42,0,0,1-.5-.27,1.2,1.2,0,0,1-.34-.43,1.32,1.32,0,0,1-.12-.57,1.34,1.34,0,0,1,.12-.58,1.2,1.2,0,0,1,.34-.43,1.42,1.42,0,0,1,.5-.27,1.87,1.87,0,0,1,.59-.09A2,2,0,0,1,501.33,283.67Zm-1,.86a.58.58,0,0,0-.16.42.55.55,0,0,0,.59.57.54.54,0,0,0,.42-.16.56.56,0,0,0,.16-.41.58.58,0,0,0-.16-.42.54.54,0,0,0-.42-.16A.56.56,0,0,0,500.31,284.53Z"/><path class="c" d="M504,285.05l.64-1.39h.54l.64,1.39.65-1.39h1l-1.34,2.57h-.59l-.64-1.41-.63,1.41h-.59l-1.34-2.57h1Z"/><path class="c" d="M509.37,284.32a1.45,1.45,0,0,0-.25-.09,1.05,1.05,0,0,0-.24,0,.45.45,0,0,0-.2,0,.15.15,0,0,0-.09.13.13.13,0,0,0,.1.14,1.15,1.15,0,0,0,.26.08H509a1.16,1.16,0,0,1,.55.24.67.67,0,0,1,.2.52.93.93,0,0,1-.1.42.81.81,0,0,1-.28.3,1,1,0,0,1-.39.17,1.61,1.61,0,0,1-.44.06,1.9,1.9,0,0,1-.54-.07,2.24,2.24,0,0,1-.5-.22l.33-.64a1.51,1.51,0,0,0,.36.18.84.84,0,0,0,.36.08.46.46,0,0,0,.2-.05.14.14,0,0,0,.08-.14.18.18,0,0,0-.09-.16,1.38,1.38,0,0,0-.3-.09l-.17,0a1.23,1.23,0,0,1-.23-.08.66.66,0,0,1-.17-.12.53.53,0,0,1-.13-.19.79.79,0,0,1,0-.28.84.84,0,0,1,.09-.4.71.71,0,0,1,.25-.29,1.14,1.14,0,0,1,.37-.17,1.42,1.42,0,0,1,.42-.05,2,2,0,0,1,.84.16Z"/><path class="c" d="M485.85,289.66V291a.75.75,0,0,0,.1.41.4.4,0,0,0,.36.15.41.41,0,0,0,.36-.15.76.76,0,0,0,.09-.41v-1.37h.91v1.55a1.18,1.18,0,0,1-.1.52.79.79,0,0,1-.28.34,1.09,1.09,0,0,1-.43.18,2.55,2.55,0,0,1-1.1,0,1.19,1.19,0,0,1-.43-.18.84.84,0,0,1-.28-.34,1.17,1.17,0,0,1-.11-.52v-1.55Z"/><path class="c" d="M490,290.32a1.34,1.34,0,0,0-.24-.09l-.25,0a.41.41,0,0,0-.19,0,.14.14,0,0,0-.1.13.14.14,0,0,0,.1.14,1.34,1.34,0,0,0,.26.08h.05a1.12,1.12,0,0,1,.55.24.67.67,0,0,1,.2.52.93.93,0,0,1-.1.42.87.87,0,0,1-.27.3,1.13,1.13,0,0,1-.39.17,1.74,1.74,0,0,1-.45.06,2,2,0,0,1-.54-.07,2.45,2.45,0,0,1-.5-.22l.33-.64a1.51,1.51,0,0,0,.36.18.91.91,0,0,0,.36.08.46.46,0,0,0,.2-.05.15.15,0,0,0,.09-.14.17.17,0,0,0-.1-.16,1.38,1.38,0,0,0-.3-.09l-.17,0a.93.93,0,0,1-.22-.08.57.57,0,0,1-.18-.12.52.52,0,0,1-.12-.19.61.61,0,0,1-.05-.28.84.84,0,0,1,.09-.4.73.73,0,0,1,.26-.29,1.09,1.09,0,0,1,.36-.17,1.47,1.47,0,0,1,.42-.05,2,2,0,0,1,.84.16Z"/><path class="c" d="M493.45,291.1h-1.91a.5.5,0,0,0,.57.57.46.46,0,0,0,.43-.24h.88a1,1,0,0,1-.47.66,1.55,1.55,0,0,1-.84.22A1.57,1.57,0,0,1,491,292a1.27,1.27,0,0,1-.41-1,1.48,1.48,0,0,1,.1-.57,1.35,1.35,0,0,1,.29-.44,1.24,1.24,0,0,1,.46-.27,1.7,1.7,0,0,1,.57-.09,1.34,1.34,0,0,1,1,.38,1.41,1.41,0,0,1,.37,1Zm-.84-.53a.47.47,0,0,0-.18-.29.51.51,0,0,0-.34-.11.6.6,0,0,0-.35.1.48.48,0,0,0-.19.3Z"/><path class="c" d="M494.78,290.08h0a.85.85,0,0,1,.34-.34,1,1,0,0,1,.49-.11h.17v.87l-.17-.07h-.21a.53.53,0,0,0-.49.2,1,1,0,0,0-.14.57v1h-.91v-2.57h.91Z"/><path class="c" d="M497,290h0a1,1,0,0,1,.81-.4,1.08,1.08,0,0,1,.52.12.86.86,0,0,1,.36.37,1,1,0,0,1,.36-.37,1.13,1.13,0,0,1,.51-.12.79.79,0,0,1,.67.27,1.18,1.18,0,0,1,.2.74v1.64h-.91V291a2,2,0,0,0,0-.26.65.65,0,0,0,0-.21.39.39,0,0,0-.11-.17.35.35,0,0,0-.21-.06.43.43,0,0,0-.24.06.36.36,0,0,0-.13.17.46.46,0,0,0-.05.21,1.84,1.84,0,0,0,0,.26v1.23h-.91v-1.49a.79.79,0,0,0-.05-.22.35.35,0,0,0-.35-.24.33.33,0,0,0-.23.07.3.3,0,0,0-.12.17,1.42,1.42,0,0,0-.05.22c0,.07,0,.16,0,.26v1.23h-.91v-2.57H497Z"/><path class="c" d="M503,289.67a1.42,1.42,0,0,1,.5.27,1.36,1.36,0,0,1,.34,1.58,1.44,1.44,0,0,1-.34.43,1.47,1.47,0,0,1-.49.27,2,2,0,0,1-1.19,0,1.47,1.47,0,0,1-.49-.27,1.2,1.2,0,0,1-.34-.43,1.32,1.32,0,0,1-.12-.57,1.34,1.34,0,0,1,.12-.58,1.2,1.2,0,0,1,.34-.43,1.47,1.47,0,0,1,.49-.27,2,2,0,0,1,.59-.09A1.87,1.87,0,0,1,503,289.67Zm-1,.86a.58.58,0,0,0-.16.42.56.56,0,0,0,.16.41.54.54,0,0,0,.42.16A.55.55,0,0,0,503,291a.58.58,0,0,0-.16-.42.56.56,0,0,0-.43-.16A.54.54,0,0,0,502,290.53Z"/><path class="c" d="M506.32,291.94h0a.83.83,0,0,1-.33.28,1.13,1.13,0,0,1-.45.09,1.12,1.12,0,0,1-.51-.11,1.25,1.25,0,0,1-.42-.3,1.49,1.49,0,0,1-.27-1.48,1.25,1.25,0,0,1,.27-.44,1.4,1.4,0,0,1,.41-.3,1.25,1.25,0,0,1,.51-.1,1.38,1.38,0,0,1,.45.08,1,1,0,0,1,.35.25v-1.83h.91v4.15h-.91Zm-1-1.41a.58.58,0,0,0-.16.42.56.56,0,0,0,.16.41.54.54,0,0,0,.42.16.55.55,0,0,0,.59-.57.58.58,0,0,0-.16-.42.56.56,0,0,0-.43-.16A.54.54,0,0,0,505.34,290.53Z"/><path class="c" d="M510.43,291.1h-1.91a.5.5,0,0,0,.57.57.45.45,0,0,0,.43-.24h.88a1,1,0,0,1-.47.66A1.75,1.75,0,0,1,508,292a1.27,1.27,0,0,1-.41-1,1.48,1.48,0,0,1,.1-.57,1.35,1.35,0,0,1,.29-.44,1.24,1.24,0,0,1,.46-.27,1.7,1.7,0,0,1,.57-.09,1.34,1.34,0,0,1,1,.38,1.41,1.41,0,0,1,.37,1Zm-.84-.53a.51.51,0,0,0-.52-.4.6.6,0,0,0-.35.1.48.48,0,0,0-.19.3Z"/></svg>