<svg width="4369" height="2127" xmlns="http://www.w3.org/2000/svg" xmlns:xlink="http://www.w3.org/1999/xlink" overflow="hidden"><defs><clipPath id="clip0"><rect x="42" y="131" width="4369" height="2127"/></clipPath></defs><g clip-path="url(#clip0)" transform="translate(-42 -131)"><rect x="254.5" y="298.5" width="602" height="1361" stroke="#000000" stroke-width="4.58333" stroke-miterlimit="8" fill="#FFFFFF"/><text font-family="Arial,Arial_MSFontService,sans-serif" font-weight="400" font-size="73" transform="matrix(1 0 0 1 430.495 385)">Mission<tspan font-size="73" x="-32.6563" y="88">Guidance</tspan><tspan font-style="italic" font-size="64" x="-98.2667" y="255">Global </tspan><tspan font-style="italic" font-size="64" x="104.546" y="255">planning</tspan><tspan font-size="55" x="-143.802" y="400">Inputs</tspan><tspan font-size="55" x="5.72919" y="400">:</tspan><tspan font-size="55" x="-143.802" y="466">-</tspan><tspan font-size="55" x="-81.9271" y="466">Driver/</tspan><tspan font-size="55" x="79.6354" y="466">User</tspan><tspan font-size="55" x="-81.9271" y="532">selection</tspan><tspan font-size="55" x="-143.802" y="598">-</tspan><tspan font-size="55" x="-81.9271" y="598">Map</tspan><tspan font-size="55" x="40.1042" y="598">data</tspan><tspan font-size="55" x="-143.802" y="730">Output:</tspan><tspan font-size="55" x="-143.802" y="796">-</tspan><tspan font-size="55" x="-81.9271" y="796">Route</tspan><tspan font-size="55" x="79.6354" y="796">plan</tspan><tspan font-size="55" x="-143.802" y="928">Goal</tspan><tspan font-size="55" x="-28.0729" y="928">:</tspan><tspan font-size="55" x="2.86459" y="928">to</tspan><tspan font-size="55" x="64.1667" y="928">plan</tspan><tspan font-size="55" x="182.76" y="928">a </tspan><tspan font-size="55" x="228.594" y="928">global</tspan><tspan font-size="55" x="-143.802" y="994">route</tspan><tspan font-size="55" x="-3.4375" y="994">which</tspan><tspan font-size="55" x="151.823" y="994">leads</tspan><tspan font-size="55" x="-143.802" y="1060">from</tspan><tspan font-size="55" x="-21.3583" y="1060">A </tspan><tspan font-size="55" x="27.7521" y="1060">to</tspan><tspan font-size="55" x="89.0542" y="1060">B, </tspan><tspan font-size="55" x="-143.802" y="1126">considering</tspan><tspan font-size="55" x="151.25" y="1126">e.g</tspan><tspan font-size="55" x="227.448" y="1126">., </tspan><tspan font-size="55" x="-143.802" y="1192">traffic</tspan><tspan font-size="55" x="5.31668" y="1192">data</tspan><tspan font-size="55" x="111.879" y="1192">,</tspan><tspan font-size="55" x="142.817" y="1192">fuel</tspan><tspan font-size="55" x="-143.802" y="1258">consumption</tspan><tspan font-size="55" x="166.719" y="1258">…etc.</tspan></text><rect x="1091.5" y="298.5" width="602" height="1361" stroke="#000000" stroke-width="4.58333" stroke-miterlimit="8" fill="#FFFFFF"/><text font-family="Arial,Arial_MSFontService,sans-serif" font-weight="400" font-size="73" transform="matrix(1 0 0 1 1247.37 385)">Behavior<tspan font-size="73" x="-12.3062" y="88">Guidance</tspan><tspan font-style="italic" font-size="64" x="-111.719" y="255">Behavior</tspan><tspan font-style="italic" font-size="64" x="158.698" y="255">planning</tspan><tspan font-size="55" x="-123.452" y="400">Inputs</tspan><tspan font-size="55" x="26.0792" y="400">:</tspan><tspan font-size="55" x="-123.452" y="466">-</tspan><tspan font-size="55" x="-61.577" y="466">Route</tspan><tspan font-size="55" x="99.9855" y="466">plan</tspan><tspan font-size="55" x="-123.452" y="532">-</tspan><tspan font-size="55" x="-61.577" y="532">Perception</tspan><tspan font-size="55" x="215.715" y="532">info</tspan><tspan font-size="55" x="319.413" y="532">of</tspan><tspan font-size="55" x="-61.577" y="598">the</tspan><tspan font-size="55" x="30.0896" y="598">surroundings</tspan><tspan font-size="55" x="-123.452" y="730">Output:</tspan><tspan font-size="55" x="-123.452" y="796">-</tspan><tspan font-size="55" x="-61.577" y="796">Behavior</tspan><tspan font-size="55" x="169.881" y="796">strategy</tspan><tspan font-size="55" x="-123.452" y="928">Goal</tspan><tspan font-size="55" x="-7.7229" y="928">: </tspan><tspan font-size="55" x="23.2146" y="928">plan</tspan><tspan font-size="55" x="141.808" y="928">how</tspan><tspan font-size="55" x="257.538" y="928">the</tspan><tspan font-size="55" x="-123.452" y="994">vehicle</tspan><tspan font-size="55" x="62.173" y="994">should</tspan><tspan font-size="55" x="-123.452" y="1060">behave</tspan><tspan font-size="55" x="71.3396" y="1060">in </tspan><tspan font-size="55" x="129.204" y="1060">terms</tspan><tspan font-size="55" x="282.173" y="1060">of </tspan><tspan font-size="55" x="-123.452" y="1126">decisions</tspan><tspan font-size="55" x="120.038" y="1126">and </tspan><tspan font-size="55" x="226.6" y="1126">motion</tspan><tspan font-size="55" x="-123.452" y="1192">characteristics</tspan></text><rect x="1905.5" y="298.5" width="602" height="1361" stroke="#000000" stroke-width="4.58333" stroke-miterlimit="8" fill="#FFFFFF"/><text font-family="Arial,Arial_MSFontService,sans-serif" font-weight="400" font-size="73" transform="matrix(1 0 0 1 2044.03 385)">Trajectory<tspan font-size="73" x="4.94995" y="88">Guidance</tspan><tspan font-style="italic" font-size="64" x="-44.6187" y="255">Local </tspan><tspan font-style="italic" font-size="64" x="126.11" y="255">planning</tspan><tspan font-size="55" x="-106.196" y="411">Inputs</tspan><tspan font-size="55" x="43.3355" y="411">:</tspan><tspan font-size="55" x="-106.196" y="477">-</tspan><tspan font-size="55" x="-44.3208" y="477">Behavior</tspan><tspan font-size="55" x="187.137" y="477">strategy</tspan><tspan font-size="55" x="-106.196" y="543">-</tspan><tspan font-size="55" x="-44.3208" y="543">Planning</tspan><tspan font-size="55" x="-44.3208" y="609">constraints</tspan><tspan font-size="55" x="-106.196" y="741">Output:</tspan><tspan font-size="55" x="-106.196" y="807">-</tspan><tspan font-size="55" x="-44.3208" y="807">Local </tspan><tspan font-size="55" x="101.773" y="807">trajectory</tspan><tspan font-size="55" x="-106.196" y="939">Goal</tspan><tspan font-size="55" x="9.53345" y="939">:</tspan><tspan font-size="55" x="40.471" y="939">plan</tspan><tspan font-size="55" x="159.065" y="939">a</tspan><tspan font-size="55" x="-106.196" y="1005">kinematicly</tspan><tspan font-size="55" x="180.262" y="1005">feasible</tspan><tspan font-size="55" x="368.752" y="1005">,</tspan><tspan font-size="55" x="-106.196" y="1071">safe</tspan><tspan font-size="55" x="12.9709" y="1071">and</tspan><tspan font-size="55" x="119.533" y="1071">preferred</tspan><tspan font-size="55" x="-106.196" y="1137">trajector</tspan><tspan font-size="55" x="92.0335" y="1137">y</tspan></text><rect x="2719.5" y="295.5" width="602" height="1364" stroke="#000000" stroke-width="4.58333" stroke-miterlimit="8" fill="#FFFFFF"/><text font-family="Arial,Arial_MSFontService,sans-serif" font-weight="400" font-size="73" transform="matrix(1 0 0 1 2773.55 383)">Vehicle<tspan font-size="73" x="256.048" y="0">Control</tspan><tspan font-style="italic" font-size="64" x="0.550049" y="167">High</tspan><tspan font-style="italic" font-size="64" x="150.081" y="167">level</tspan><tspan font-style="italic" font-size="64" x="299.613" y="167">control</tspan><tspan font-size="55" x="-21.7937" y="312">Inputs</tspan><tspan font-size="55" x="127.738" y="312">:</tspan><tspan font-size="55" x="-21.7937" y="378">-</tspan><tspan font-size="55" x="40.0813" y="378">Local </tspan><tspan font-size="55" x="186.175" y="378">trajectory</tspan><tspan font-size="55" x="-21.7937" y="444">-</tspan><tspan font-size="55" x="40.0813" y="444">Vehicle</tspan><tspan font-size="55" x="231.848" y="444">state</tspan><tspan font-size="55" x="40.0813" y="510">variables</tspan><tspan font-size="55" x="-21.7937" y="576">-</tspan><tspan font-size="55" x="40.0813" y="576">Localization</tspan><tspan font-size="55" x="344.3" y="576">info</tspan><tspan font-size="55" x="-21.7937" y="708">Outputs</tspan><tspan font-size="55" x="170.706" y="708">:</tspan><tspan font-size="55" x="-21.7937" y="774">-</tspan><tspan font-size="55" x="40.0813" y="774">Vehicle</tspan><tspan font-size="55" x="231.848" y="774">level</tspan><tspan font-size="55" x="359.608" y="774">target</tspan><tspan font-size="55" x="40.0813" y="840">quantities</tspan><tspan font-size="55" x="-21.7937" y="906">-</tspan><tspan font-size="55" x="40.0813" y="906">Control</tspan><tspan font-size="55" x="232.008" y="906">constraints</tspan><tspan font-size="55" x="-21.7937" y="1038">Goal</tspan><tspan font-size="55" x="93.9356" y="1038">: </tspan><tspan font-size="55" x="124.873" y="1038">calculate</tspan><tspan font-size="55" x="356.331" y="1038">the</tspan><tspan font-size="55" x="-21.7937" y="1104">vehicle</tspan><tspan font-size="55" x="163.831" y="1104">target</tspan><tspan font-size="55" x="319.665" y="1104">state</tspan><tspan font-size="55" x="454.3" y="1104">to</tspan><tspan font-size="55" x="-21.7937" y="1170">be </tspan><tspan font-size="55" x="54.4043" y="1170">controlled</tspan><tspan font-size="55" x="307.061" y="1170">by</tspan><tspan font-size="55" x="380.394" y="1170">the</tspan><tspan font-size="55" x="-21.7937" y="1236">low</tspan><tspan font-size="55" x="75.6023" y="1236">level</tspan><tspan font-size="55" x="203.363" y="1236">controllers</tspan></text><rect x="3533.5" y="298.5" width="602" height="1361" stroke="#000000" stroke-width="4.58333" stroke-miterlimit="8" fill="#FFFFFF"/><text font-family="Arial,Arial_MSFontService,sans-serif" font-weight="400" font-size="73" transform="matrix(1 0 0 1 3568.54 385)">Actuator<tspan font-size="73" x="293.906" y="0">Control</tspan><tspan font-style="italic" font-size="64" x="26.6292" y="167">Low </tspan><tspan font-style="italic" font-size="64" x="161.837" y="167">level</tspan><tspan font-style="italic" font-size="64" x="311.369" y="167">control</tspan><tspan font-size="64" x="-2.86475" y="321">Inputs</tspan><tspan font-size="64" x="171.302" y="321">:</tspan><tspan font-size="55" x="-2.86475" y="389">-</tspan><tspan font-size="55" x="59.0103" y="389">Vehicle</tspan><tspan font-size="55" x="250.777" y="389">level</tspan><tspan font-size="55" x="378.537" y="389">target</tspan><tspan font-size="55" x="59.0103" y="455">quantities</tspan><tspan font-size="55" x="-2.86475" y="521">-</tspan><tspan font-size="55" x="59.0103" y="521">Control</tspan><tspan font-size="55" x="250.938" y="521">constraints</tspan><tspan font-size="55" x="-2.86475" y="587">-</tspan><tspan font-size="55" x="59.0103" y="587">Actuator</tspan><tspan font-size="55" x="279.01" y="587">state</tspan><tspan font-size="55" x="59.0103" y="653">variables</tspan><tspan font-size="55" x="-2.86475" y="785">Output:</tspan><tspan font-size="55" x="-2.86475" y="851">-</tspan><tspan font-size="55" x="59.0103" y="851">Actuator</tspan><tspan font-size="55" x="279.01" y="851">target</tspan><tspan font-size="55" x="59.0103" y="917">states</tspan><tspan font-size="55" x="-2.86475" y="1049">Goal</tspan><tspan font-size="55" x="112.865" y="1049">: </tspan><tspan font-size="55" x="143.802" y="1049">realize</tspan><tspan font-size="55" x="320.26" y="1049">vehicle</tspan><tspan font-size="55" x="-2.86475" y="1115">motion</tspan><tspan font-size="55" x="177.031" y="1115">through</tspan><tspan font-size="55" x="-2.86475" y="1181">controlling</tspan><tspan font-size="55" x="261.823" y="1181">the</tspan><tspan font-size="55" x="-2.86475" y="1247">actuators</tspan></text><path d="M856 416.854 1068.22 416.854 1068.22 419.146 856 419.146ZM1063.64 404.25 1091.14 418 1063.64 431.75Z"/><path d="M1693 414.854 1881.92 414.854 1881.92 417.146 1693 417.146ZM1877.33 402.25 1904.83 416 1877.33 429.75Z"/><path d="M2507.5 412.187 2667.77 412.188 2667.77 432.813 2507.5 432.812ZM2657.46 391.563 2719.33 422.5 2657.46 453.438Z"/><path d="M3321 420.854 3509.92 420.855 3509.92 423.146 3321 423.146ZM3505.33 408.25 3532.83 422 3505.33 435.75Z"/><rect x="176.5" y="139.5" width="2416" height="1620" stroke="#BFBFBF" stroke-width="4.58333" stroke-miterlimit="8" stroke-dasharray="18.3333 13.75" fill="none"/><text font-family="Arial,Arial_MSFontService,sans-serif" font-weight="400" font-size="83" transform="matrix(1 0 0 1 208.597 236)">Planning</text><rect x="2634.5" y="139.5" width="1586" height="1620" stroke="#BFBFBF" stroke-width="4.58333" stroke-miterlimit="8" stroke-dasharray="18.3333 13.75" fill="none"/><text font-family="Arial,Arial_MSFontService,sans-serif" font-weight="400" font-size="83" transform="matrix(1 0 0 1 2666.79 236)">Control</text><path d="M4135.5 412.187 4295.77 412.188 4295.77 432.813 4135.5 432.812ZM4285.46 391.563 4347.33 422.5 4285.46 453.438Z"/><path d="M42.5001 398.187 202.77 398.188 202.77 418.813 42.5001 418.812ZM192.458 377.563 254.333 408.5 192.458 439.438Z"/><rect x="254" y="1870" width="602" height="382" stroke="#000000" stroke-width="2.29167" stroke-miterlimit="8" fill="#FFFFFF"/><text font-family="Arial,Arial_MSFontService,sans-serif" font-weight="400" font-size="55" transform="matrix(1 0 0 1 336.17 2015)">‚I <tspan font-size="55" x="42.9688" y="0">want</tspan><tspan font-size="55" x="174.167" y="0">to</tspan><tspan font-size="55" x="235.469" y="0">get</tspan><tspan font-size="55" x="327.135" y="0">from</tspan><tspan font-size="55" x="-37.6521" y="66">address</tspan><tspan font-size="55" x="169.583" y="66">A </tspan><tspan font-size="55" x="218.694" y="66">to</tspan><tspan font-size="55" x="279.996" y="66">address</tspan><tspan font-size="55" x="9.73959" y="132">B </tspan>with<tspan font-size="55" x="174.74" y="132">a </tspan><tspan font-size="55" x="220.573" y="132">robotaxi</tspan>’</text><rect x="1091" y="1868" width="602" height="384" stroke="#000000" stroke-width="2.29167" stroke-miterlimit="8" fill="#FFFFFF"/><text font-family="Arial,Arial_MSFontService,sans-serif" font-weight="400" font-size="55" transform="matrix(1 0 0 1 1158.5 1981)">‚I <tspan font-size="55" x="42.9688" y="0">want</tspan><tspan font-size="55" x="174.167" y="0">to</tspan><tspan font-size="55" x="235.469" y="0">follow</tspan><tspan font-size="55" x="390.729" y="0">the</tspan><tspan font-size="55" x="32.6563" y="66">middle</tspan><tspan font-size="55" x="209.115" y="66">lane</tspan><tspan font-size="55" x="327.708" y="66">then</tspan><tspan font-size="55" x="-1.14587" y="132">change</tspan><tspan font-size="55" x="193.646" y="132">to</tspan><tspan font-size="55" x="254.948" y="132">the</tspan><tspan font-size="55" x="346.615" y="132">inner</tspan><tspan font-size="55" x="58.4375" y="198">lane</tspan><tspan font-size="55" x="177.031" y="198">smoothly</tspan>’</text><rect x="1905" y="1866" width="602" height="386" stroke="#000000" stroke-width="2.29167" stroke-miterlimit="8" fill="#FFFFFF"/><text font-family="Arial,Arial_MSFontService,sans-serif" font-weight="400" font-size="55" transform="matrix(1 0 0 1 1989.31 1947)">‚I <tspan font-size="55" x="42.9688" y="0">plan</tspan><tspan font-size="55" x="161.563" y="0">a </tspan><tspan font-size="55" x="207.396" y="0">trajectory</tspan><tspan font-size="55" x="-27.202" y="66">within</tspan><tspan font-size="55" x="128.058" y="66">the</tspan><tspan font-size="55" x="219.725" y="66">lane</tspan><tspan font-size="55" x="338.319" y="66">to</tspan><tspan font-size="55" x="399.621" y="66">be </tspan><tspan font-size="55" x="27.5" y="132">safe</tspan><tspan font-size="55" x="146.667" y="132">and </tspan><tspan font-size="55" x="253.229" y="132">then</tspan><tspan font-size="55" x="375.26" y="132">a </tspan><tspan font-size="55" x="-24.6354" y="198">smooth</tspan><tspan font-size="55" x="170.729" y="198">trajectory</tspan><tspan font-size="55" x="411.927" y="198">to</tspan><tspan font-size="55" x="44.6875" y="264">the</tspan><tspan font-size="55" x="136.354" y="264">inner</tspan><tspan font-size="55" x="273.281" y="264">lane</tspan>’</text><rect x="2719" y="1860" width="602" height="386" stroke="#000000" stroke-width="2.29167" stroke-miterlimit="8" fill="#FFFFFF"/><text font-family="Arial,Arial_MSFontService,sans-serif" font-weight="400" font-size="55" transform="matrix(1 0 0 1 2844.48 1941)">‚I <tspan font-size="55" x="42.9688" y="0">calculate</tspan><tspan font-size="55" x="274.427" y="0">the</tspan><tspan font-size="55" x="-85.0667" y="66">necessary</tspan><tspan font-size="55" x="180.194" y="66">speed</tspan><tspan font-size="55" x="344.621" y="66">and </tspan><tspan font-size="55" x="-4.8584" y="132">yaw</tspan><tspan font-size="55" x="108.006" y="132">rate</tspan><tspan font-size="55" x="218.006" y="132">of </tspan><tspan font-size="55" x="279.308" y="132">the</tspan><tspan font-size="55" x="-63.8689" y="198">vehicle</tspan><tspan font-size="55" x="121.756" y="198">to</tspan><tspan font-size="55" x="183.058" y="198">follow</tspan><tspan font-size="55" x="338.319" y="198">the</tspan><tspan font-size="55" x="-7.448" y="264">local </tspan><tspan font-size="55" x="120.313" y="264">trajectory</tspan><tspan font-size="55" x="346.042" y="264">’</tspan></text><rect x="3533" y="1860" width="602" height="386" stroke="#000000" stroke-width="2.29167" stroke-miterlimit="8" fill="#FFFFFF"/><text font-family="Arial,Arial_MSFontService,sans-serif" font-weight="400" font-size="55" transform="matrix(1 0 0 1 3658.41 1941)">‚I <tspan font-size="55" x="42.9688" y="0">calculate</tspan><tspan font-size="55" x="274.427" y="0">the</tspan><tspan font-size="55" x="-39.2332" y="66">necessary</tspan><tspan font-size="55" x="226.027" y="66">engine</tspan><tspan font-size="55" x="-60.729" y="132">torque</tspan><tspan font-size="55" x="110" y="132">and </tspan><tspan font-size="55" x="216.563" y="132">steering</tspan><tspan font-size="55" x="-56.1458" y="198">angle</tspan><tspan font-size="55" x="92.8125" y="198">to</tspan><tspan font-size="55" x="154.115" y="198">realize</tspan><tspan font-size="55" x="330.573" y="198">the</tspan><tspan font-size="55" x="-17.7603" y="264">planned</tspan><tspan font-size="55" x="191.927" y="264">motion</tspan><tspan font-size="55" x="356.354" y="264">’</tspan></text></g></svg>