<svg width="3010" height="1341" xmlns="http://www.w3.org/2000/svg" xmlns:xlink="http://www.w3.org/1999/xlink" overflow="hidden"><defs><clipPath id="clip0"><rect x="433" y="94" width="3010" height="1341"/></clipPath></defs><g clip-path="url(#clip0)" transform="translate(-433 -94)"><rect x="2405" y="500" width="602" height="384" stroke="#000000" stroke-width="2.29167" stroke-miterlimit="8" fill="#FFFFFF"/><text font-family="Arial,Arial_MSFontService,sans-serif" font-weight="400" font-size="55" transform="matrix(1 0 0 1 2452.68 646)">Szab치lyzott<tspan font-size="55" x="299.063" y="0">Szakasz</tspan><tspan font-size="55" x="151.548" y="66">Modellje </tspan><tspan font-size="55" x="9.1665" y="132">(absztrakt rendszer)</tspan></text><rect x="1179" y="500" width="602" height="384" stroke="#000000" stroke-width="2.29167" stroke-miterlimit="8" fill="#FFFFFF"/><text font-family="Arial,Arial_MSFontService,sans-serif" font-weight="400" font-size="55" transform="matrix(1 0 0 1 1353.94 712)">Szab치lyz칩</text><path d="M2046.5 692.5C2046.5 666.543 2067.54 645.5 2093.5 645.5 2119.46 645.5 2140.5 666.543 2140.5 692.5 2140.5 718.457 2119.46 739.5 2093.5 739.5 2067.54 739.5 2046.5 718.457 2046.5 692.5Z" stroke="#000000" stroke-width="4.58333" stroke-miterlimit="8" fill-rule="evenodd"/><path d="M1.56134e-06-1.14583 241.934-1.1455 241.934 1.14616-1.56134e-06 1.14583ZM237.35-13.7497 264.85 0.000360892 237.35 13.7503Z" transform="matrix(1 0 0 -1 1781 692)"/><path d="M2140 690.854 2381.93 690.854 2381.93 693.146 2140 693.146ZM2377.35 678.25 2404.85 692 2377.35 705.75Z"/><path d="M2094.15 354 2094.15 621.714 2091.85 621.714 2091.85 354ZM2106.75 617.131 2093 644.631 2079.25 617.131Z"/><text font-family="Calibri,Calibri_MSFontService,sans-serif" font-weight="400" font-size="83" transform="matrix(1 0 0 1 2106.74 627)">+<tspan font-size="83" x="-126.11" y="45">+</tspan></text><path d="M2042.18 266.956C2039.43 266.956 2036.95 268.071 2034.77 270.3 2032.58 272.529 2030.85 275.534 2029.6 279.317 2028.34 283.099 2027.71 286.868 2027.71 290.624 2027.71 293.434 2028.1 295.535 2028.87 296.926 2029.64 298.317 2030.93 299.013 2032.74 299.013 2033.58 299.013 2034.43 298.831 2035.29 298.466 2036.16 298.101 2037.06 297.514 2037.99 296.703 2038.92 295.893 2039.84 294.906 2040.74 293.745 2041.65 292.583 2042.48 291.414 2043.24 290.239 2043.99 289.064 2044.69 287.672 2045.34 286.065 2045.99 284.457 2046.55 282.519 2047 280.249L2047.37 278.506C2047.77 276.561 2047.98 274.724 2047.98 272.995 2047.98 270.887 2047.53 269.354 2046.64 268.395 2045.75 267.436 2044.26 266.956 2042.18 266.956ZM2059.16 245.233 2061.55 245.233 2051.46 290.097C2050.87 292.745 2050.57 294.744 2050.57 296.095 2050.57 297.176 2050.75 297.959 2051.1 298.446 2051.45 298.932 2052 299.175 2052.76 299.175 2053.57 299.175 2054.43 298.844 2055.35 298.182 2056.27 297.52 2057.57 296.257 2059.24 294.393L2061.55 296.663C2059.07 299.283 2056.97 301.134 2055.27 302.215 2053.57 303.296 2051.73 303.836 2049.76 303.836 2048.09 303.836 2046.75 303.282 2045.75 302.174 2044.75 301.067 2044.25 299.594 2044.25 297.757 2044.25 296.271 2044.56 294.69 2045.18 293.015L2044.65 292.853C2042.06 296.636 2039.6 299.405 2037.28 301.161 2034.95 302.917 2032.5 303.795 2029.9 303.795 2026.93 303.795 2024.63 302.674 2022.99 300.432 2021.36 298.189 2020.54 295.041 2020.54 290.989 2020.54 286.342 2021.45 281.877 2023.28 277.594 2025.1 273.312 2027.61 269.935 2030.79 267.463 2033.98 264.99 2037.53 263.754 2041.45 263.754 2043.1 263.754 2044.62 263.923 2046.01 264.261 2047.4 264.599 2048.83 265.186 2050.29 266.024L2052.39 256.662C2052.61 255.77 2052.8 254.784 2052.96 253.704 2053.12 252.623 2053.21 251.677 2053.21 250.867 2053.21 250.056 2053.06 249.441 2052.76 249.023 2052.46 248.604 2052.04 248.3 2051.48 248.111 2050.93 247.922 2049.94 247.787 2048.5 247.706L2048.99 245.598Z" fill-rule="evenodd"/><text fill="#000000" fill-opacity="0" font-family="Arial,Arial_MSFontService,sans-serif" font-size="58.6025" x="2020.54" y="296.511">洧녬</text><path d="M2098.26 244.625 2099.36 247.746C2093.04 249.826 2088.35 253.886 2085.31 259.925 2082.28 265.963 2080.76 273.548 2080.76 282.681 2080.76 292.137 2082.28 299.932 2085.31 306.065 2088.35 312.198 2092.99 316.305 2099.24 318.385L2098.26 321.506C2090.35 319.425 2084.28 314.947 2080.07 308.071 2075.85 301.195 2073.74 292.867 2073.74 283.086 2073.74 273.332 2075.86 265.004 2080.09 258.101 2084.32 251.198 2090.37 246.706 2098.26 244.625Z" fill-rule="evenodd"/><text fill="#000000" fill-opacity="0" font-family="Arial,Arial_MSFontService,sans-serif" font-size="76.8804" x="2073.74" y="311.896">(</text><path d="M2116.67 254.433 2122.26 254.433 2120.03 264.443 2132.35 264.443 2131.46 268.537 2119.14 268.537 2115.54 284.261C2114.83 287.314 2114.39 289.509 2114.2 290.847 2114.01 292.184 2113.91 293.258 2113.91 294.069 2113.91 297.419 2115.31 299.094 2118.09 299.094 2119.28 299.094 2120.54 298.642 2121.88 297.737 2123.22 296.831 2124.8 295.285 2126.64 293.096L2128.99 295.528C2126.64 298.365 2124.38 300.459 2122.2 301.81 2120.03 303.16 2117.75 303.836 2115.37 303.836 2109.73 303.836 2106.9 300.985 2106.9 295.285 2106.9 293.474 2107.13 291.57 2107.59 289.57L2112.37 268.537 2105.57 268.537 2106.17 265.74C2107.77 265.713 2108.98 265.592 2109.8 265.375 2110.63 265.159 2111.31 264.862 2111.87 264.484 2112.42 264.106 2112.93 263.565 2113.39 262.863 2113.85 262.16 2114.29 261.262 2114.73 260.168 2115.16 259.073 2115.81 257.162 2116.67 254.433Z" fill-rule="evenodd"/><text fill="#000000" fill-opacity="0" font-family="Arial,Arial_MSFontService,sans-serif" font-size="49.4028" x="2105.57" y="297.661">洧노</text><path d="M2138.13 244.625C2146.02 246.706 2152.08 251.198 2156.31 258.101 2160.54 265.004 2162.65 273.332 2162.65 283.086 2162.65 292.867 2160.54 301.195 2156.33 308.071 2152.11 314.947 2146.05 319.425 2138.13 321.506L2137.16 318.385C2143.4 316.305 2148.04 312.198 2151.08 306.065 2154.12 299.932 2155.64 292.137 2155.64 282.681 2155.64 273.548 2154.13 265.963 2151.1 259.925 2148.07 253.886 2143.39 249.826 2137.04 247.746Z" fill-rule="evenodd"/><text fill="#000000" fill-opacity="0" font-family="Arial,Arial_MSFontService,sans-serif" font-size="76.8804" x="2137.04" y="311.896">)</text><path d="M2245.56 622.624C2247.29 622.624 2248.66 623.205 2249.65 624.367 2250.65 625.528 2251.15 627.095 2251.15 629.068 2251.15 631.202 2250.74 633.864 2249.9 637.052L2248.11 644.063C2247.66 645.846 2247.32 647.238 2247.12 648.237 2246.92 649.237 2246.77 650.102 2246.68 650.831 2246.58 651.56 2246.53 652.168 2246.53 652.655 2246.53 654.519 2246.84 655.863 2247.47 656.687 2248.09 657.511 2249.1 657.923 2250.51 657.923 2251.64 657.923 2252.86 657.471 2254.17 656.566 2255.48 655.661 2256.88 654.296 2258.35 652.472 2259.82 650.649 2261 648.879 2261.89 647.163 2262.79 645.448 2263.52 643.333 2264.08 640.821L2267.93 623.272 2274.94 623.272 2269.03 648.967C2268.43 651.56 2268.14 653.56 2268.14 654.965 2268.14 656.046 2268.31 656.829 2268.66 657.315 2269.01 657.802 2269.57 658.045 2270.32 658.045 2271.13 658.045 2272 657.714 2272.92 657.052 2273.84 656.39 2275.13 655.127 2276.81 653.263L2279.12 655.532C2276.66 658.153 2274.57 660.004 2272.84 661.084 2271.11 662.165 2269.27 662.706 2267.32 662.706 2265.65 662.706 2264.31 662.152 2263.31 661.044 2262.31 659.936 2261.81 658.464 2261.81 656.626 2261.81 655.167 2262.14 653.573 2262.79 651.844L2262.3 651.682C2259.62 655.438 2257.09 658.207 2254.7 659.99 2252.31 661.773 2249.86 662.665 2247.34 662.665 2244.83 662.665 2242.9 661.942 2241.55 660.497 2240.2 659.051 2239.52 657.045 2239.52 654.478 2239.52 652.776 2239.91 650.358 2240.7 647.224L2243.33 636.606C2244.06 633.661 2244.43 631.581 2244.43 630.365 2244.43 629.284 2244.25 628.5 2243.9 628.014 2243.55 627.528 2242.99 627.285 2242.24 627.285 2241.4 627.285 2240.52 627.629 2239.58 628.318 2238.65 629.007 2237.38 630.257 2235.75 632.067L2233.44 629.797C2235.74 627.474 2237.47 625.88 2238.63 625.015 2239.79 624.151 2240.91 623.536 2241.97 623.171 2243.04 622.806 2244.24 622.624 2245.56 622.624Z" fill-rule="evenodd"/><text fill="#000000" fill-opacity="0" font-family="Arial,Arial_MSFontService,sans-serif" font-size="40.0815" x="2233.44" y="657.695">洧녹</text><path d="M2313.92 603.495 2315.02 606.616C2308.69 608.696 2304.01 612.756 2300.97 618.794 2297.93 624.833 2296.41 632.418 2296.41 641.55 2296.41 651.007 2297.93 658.801 2300.97 664.935 2304.01 671.068 2308.65 675.174 2314.9 677.255L2313.92 680.375C2306.01 678.295 2299.94 673.817 2295.73 666.941 2291.51 660.064 2289.4 651.736 2289.4 641.956 2289.4 632.202 2291.52 623.874 2295.75 616.97 2299.97 610.067 2306.03 605.575 2313.92 603.495Z" fill-rule="evenodd"/><text fill="#000000" fill-opacity="0" font-family="Arial,Arial_MSFontService,sans-serif" font-size="76.8804" x="2289.4" y="670.765">(</text><path d="M2332.33 613.303 2337.92 613.303 2335.69 623.313 2348.01 623.313 2347.12 627.406 2334.8 627.406 2331.2 643.131C2330.49 646.184 2330.05 648.379 2329.86 649.716 2329.67 651.054 2329.57 652.128 2329.57 652.938 2329.57 656.289 2330.97 657.964 2333.75 657.964 2334.94 657.964 2336.2 657.511 2337.54 656.606 2338.88 655.701 2340.46 654.154 2342.3 651.966L2344.65 654.397C2342.3 657.234 2340.04 659.328 2337.86 660.679 2335.69 662.03 2333.41 662.706 2331.03 662.706 2325.39 662.706 2322.56 659.855 2322.56 654.154 2322.56 652.344 2322.79 650.439 2323.25 648.44L2328.03 627.406 2321.23 627.406 2321.83 624.61C2323.43 624.583 2324.64 624.461 2325.46 624.245 2326.28 624.029 2326.97 623.732 2327.53 623.353 2328.08 622.975 2328.59 622.435 2329.05 621.732 2329.51 621.03 2329.95 620.132 2330.38 619.037 2330.82 617.943 2331.47 616.031 2332.33 613.303Z" fill-rule="evenodd"/><text fill="#000000" fill-opacity="0" font-family="Arial,Arial_MSFontService,sans-serif" font-size="49.4028" x="2321.23" y="656.53">洧노</text><path d="M2353.79 603.495C2361.68 605.575 2367.74 610.067 2371.97 616.97 2376.2 623.874 2378.31 632.202 2378.31 641.956 2378.31 651.736 2376.2 660.064 2371.99 666.941 2367.77 673.817 2361.71 678.295 2353.79 680.375L2352.82 677.255C2359.06 675.174 2363.7 671.068 2366.74 664.935 2369.78 658.801 2371.3 651.007 2371.3 641.55 2371.3 632.418 2369.79 624.833 2366.76 618.794 2363.73 612.756 2359.05 608.696 2352.7 606.616Z" fill-rule="evenodd"/><text fill="#000000" fill-opacity="0" font-family="Arial,Arial_MSFontService,sans-serif" font-size="76.8804" x="2352.7" y="670.765">)</text><path d="M1824.18 622.948 1826.58 622.948 1820.74 648.967C1820.15 651.615 1819.85 653.614 1819.85 654.965 1819.85 656.046 1820.02 656.829 1820.38 657.315 1820.73 657.802 1821.28 658.045 1822.04 658.045 1822.85 658.045 1823.71 657.714 1824.63 657.052 1825.55 656.39 1826.85 655.127 1828.52 653.263L1830.83 655.532C1828.18 658.315 1826.04 660.206 1824.39 661.206 1822.74 662.206 1820.89 662.706 1818.84 662.706 1817.08 662.706 1815.67 662.064 1814.62 660.78 1813.57 659.497 1813.04 657.856 1813.04 655.856 1813.04 653.803 1813.42 651.182 1814.17 647.994L1817.21 634.742C1817.84 632.04 1818.15 630.013 1818.15 628.663 1818.15 627.447 1817.86 626.623 1817.27 626.19 1816.69 625.758 1815.55 625.515 1813.85 625.461L1814.3 623.313ZM1823.09 607.426 1830.26 607.426 1828.4 615.289 1821.23 615.289Z" fill-rule="evenodd"/><text fill="#000000" fill-opacity="0" font-family="Arial,Arial_MSFontService,sans-serif" font-size="55.2793" x="1813.04" y="655.796">洧녰</text><path d="M1868.15 603.495 1869.24 606.616C1862.92 608.696 1858.24 612.756 1855.2 618.794 1852.16 624.833 1850.64 632.418 1850.64 641.55 1850.64 651.007 1852.16 658.801 1855.2 664.935 1858.24 671.068 1862.88 675.174 1869.12 677.255L1868.15 680.375C1860.23 678.295 1854.16 673.817 1849.95 666.941 1845.73 660.064 1843.63 651.736 1843.63 641.956 1843.63 632.202 1845.74 623.874 1849.97 616.97 1854.2 610.067 1860.26 605.575 1868.15 603.495Z" fill-rule="evenodd"/><text fill="#000000" fill-opacity="0" font-family="Arial,Arial_MSFontService,sans-serif" font-size="76.8804" x="1843.63" y="670.765">(</text><path d="M1886.55 613.303 1892.15 613.303 1889.92 623.313 1902.24 623.313 1901.35 627.406 1889.03 627.406 1885.42 643.131C1884.72 646.184 1884.27 648.379 1884.08 649.716 1883.89 651.054 1883.8 652.128 1883.8 652.938 1883.8 656.289 1885.19 657.964 1887.97 657.964 1889.16 657.964 1890.42 657.511 1891.76 656.606 1893.1 655.701 1894.69 654.154 1896.52 651.966L1898.87 654.397C1896.52 657.234 1894.26 659.328 1892.09 660.679 1889.91 662.03 1887.63 662.706 1885.26 662.706 1879.61 662.706 1876.79 659.855 1876.79 654.154 1876.79 652.344 1877.02 650.439 1877.48 648.44L1882.26 627.406 1875.45 627.406 1876.06 624.61C1877.65 624.583 1878.86 624.461 1879.68 624.245 1880.51 624.029 1881.2 623.732 1881.75 623.353 1882.31 622.975 1882.81 622.435 1883.27 621.732 1883.73 621.03 1884.18 620.132 1884.61 619.037 1885.04 617.943 1885.69 616.031 1886.55 613.303Z" fill-rule="evenodd"/><text fill="#000000" fill-opacity="0" font-family="Arial,Arial_MSFontService,sans-serif" font-size="49.4028" x="1875.45" y="656.53">洧노</text><path d="M1908.01 603.495C1915.9 605.575 1921.96 610.067 1926.19 616.97 1930.42 623.874 1932.53 632.202 1932.53 641.956 1932.53 651.736 1930.43 660.064 1926.21 666.941 1922 673.817 1915.93 678.295 1908.01 680.375L1907.04 677.255C1913.28 675.174 1917.92 671.068 1920.96 664.935 1924 658.801 1925.52 651.007 1925.52 641.55 1925.52 632.418 1924.01 624.833 1920.98 618.794 1917.96 612.756 1913.27 608.696 1906.92 606.616Z" fill-rule="evenodd"/><text fill="#000000" fill-opacity="0" font-family="Arial,Arial_MSFontService,sans-serif" font-size="76.8804" x="1906.92" y="670.765">)</text><path d="M841.5 692.5C841.5 666.543 862.543 645.5 888.5 645.5 914.457 645.5 935.5 666.543 935.5 692.5 935.5 718.457 914.457 739.5 888.5 739.5 862.543 739.5 841.5 718.457 841.5 692.5Z" stroke="#000000" stroke-width="4.58333" stroke-miterlimit="8" fill-rule="evenodd"/><path d="M935 690.854 1156.3 690.854 1156.3 693.146 935 693.146ZM1151.72 678.25 1179.22 692 1151.72 705.75Z"/><rect x="1795" y="1301" width="602" height="133" stroke="#000000" stroke-width="2.29167" stroke-miterlimit="8" fill="#FFFFFF"/><text font-family="Arial,Arial_MSFontService,sans-serif" font-weight="400" font-size="55" transform="matrix(1 0 0 1 1989.69 1387)">칄rz칠kel콈</text><path d="M0 1.14583-82.4976 1.14583-81.3518 0-81.3518 675.5-82.4976 674.354 586.733 674.354 586.733 676.646-83.6435 676.646-83.6435-1.14583 0-1.14583ZM582.149 661.75 609.649 675.5 582.149 689.25Z" transform="matrix(-1 0 0 1 3006.65 692)"/><path d="M1795.14 1368.72 886.854 1368.72 886.854 761.916 889.146 761.916 889.146 1367.57 888 1366.43 1795.14 1366.43ZM874.25 766.5 888 739 901.75 766.5Z"/><path d="M738.727 821.663C739.835 821.663 740.781 821.812 741.564 822.109 742.104 822.325 742.645 822.683 743.185 823.183 743.726 823.683 744.205 824.379 744.624 825.27 745.043 826.162 745.407 827.162 745.718 828.269 746.029 829.377 746.373 830.971 746.752 833.052 747.4 836.537 748.028 840.205 748.636 844.055 749.244 847.905 749.764 851.478 750.196 854.774 752.817 850.992 755.039 847.29 756.863 843.67 758.687 840.049 759.997 836.902 760.794 834.227 761.591 831.552 761.99 829.377 761.99 827.702 761.99 826.432 761.72 825.568 761.179 825.108 760.639 824.649 759.72 824.379 758.424 824.298L758.829 822.312 769.487 822.312 770.582 824.338C768.528 829.958 765.745 835.97 762.233 842.373 758.775 848.641 754.817 854.882 750.359 861.096 746.09 867.013 742.537 871.296 739.7 873.944 737.728 875.754 735.823 877.051 733.986 877.834 732.527 878.429 730.973 878.726 729.325 878.726 728.758 878.726 728.102 878.679 727.359 878.584 726.616 878.49 726.042 878.361 725.637 878.199L727.38 870.337 730.581 870.337C730.581 872.066 731.176 872.93 732.364 872.93 733.932 872.93 735.755 871.951 737.836 869.992 739.916 868.033 742.361 865.082 745.171 861.137 744.388 856.409 743.32 850.708 741.969 844.034 740.537 836.902 739.592 832.484 739.133 830.782 738.565 828.729 737.971 827.418 737.349 826.851 736.971 826.5 736.498 826.324 735.931 826.324 735.066 826.324 734.256 826.675 733.499 827.378 732.743 828.08 731.811 829.296 730.703 831.025L728.069 829.283C729.933 826.5 731.675 824.534 733.297 823.386 734.918 822.238 736.728 821.663 738.727 821.663Z" fill-rule="evenodd"/><text fill="#000000" fill-opacity="0" font-family="Arial,Arial_MSFontService,sans-serif" font-size="57.0625" x="725.637" y="871.593">洧녽</text><path d="M804.994 802.494 806.089 805.615C799.766 807.695 795.085 811.754 792.046 817.793 789.006 823.832 787.486 831.417 787.486 840.549 787.486 850.005 789.006 857.8 792.046 863.933 795.085 870.067 799.726 874.173 805.967 876.254L804.994 879.374C797.078 877.294 791.012 872.816 786.797 865.94 782.583 859.063 780.475 850.735 780.475 840.954 780.475 831.201 782.589 822.872 786.818 815.969 791.046 809.066 797.105 804.574 804.994 802.494Z" fill-rule="evenodd"/><text fill="#000000" fill-opacity="0" font-family="Arial,Arial_MSFontService,sans-serif" font-size="76.8804" x="780.475" y="869.764">(</text><path d="M823.401 812.302 828.994 812.302 826.765 822.312 839.086 822.312 838.194 826.405 825.874 826.405 822.267 842.13C821.564 845.183 821.118 847.378 820.929 848.715 820.74 850.053 820.646 851.127 820.646 851.937 820.646 855.288 822.037 856.963 824.82 856.963 826.009 856.963 827.272 856.51 828.609 855.605 829.947 854.7 831.534 853.153 833.371 850.965L835.722 853.396C833.371 856.233 831.108 858.327 828.933 859.678 826.758 861.029 824.482 861.704 822.105 861.704 816.458 861.704 813.634 858.854 813.634 853.153 813.634 851.343 813.864 849.438 814.323 847.439L819.106 826.405 812.297 826.405 812.905 823.609C814.499 823.582 815.708 823.46 816.532 823.244 817.356 823.028 818.045 822.731 818.599 822.352 819.153 821.974 819.659 821.434 820.119 820.731 820.578 820.029 821.024 819.13 821.456 818.036 821.888 816.942 822.537 815.03 823.401 812.302Z" fill-rule="evenodd"/><text fill="#000000" fill-opacity="0" font-family="Arial,Arial_MSFontService,sans-serif" font-size="49.4028" x="812.297" y="855.529">洧노</text><path d="M844.862 802.494C852.752 804.574 858.811 809.066 863.039 815.969 867.267 822.872 869.382 831.201 869.382 840.954 869.382 850.735 867.274 859.063 863.059 865.94 858.844 872.816 852.779 877.294 844.862 879.374L843.89 876.254C850.131 874.173 854.771 870.067 857.811 863.933 860.851 857.8 862.37 850.005 862.37 840.549 862.37 831.417 860.857 823.832 857.831 817.793 854.805 811.754 850.118 807.695 843.768 805.615Z" fill-rule="evenodd"/><text fill="#000000" fill-opacity="0" font-family="Arial,Arial_MSFontService,sans-serif" font-size="76.8804" x="843.768" y="869.764">)</text><path d="M2479.54 1295.73C2481.24 1295.73 2482.58 1296.29 2483.57 1297.41 2484.56 1298.53 2485.05 1300 2485.05 1301.81 2485.05 1303.29 2484.74 1304.87 2484.12 1306.55L2484.6 1306.71C2487.09 1303.01 2489.56 1300.26 2492.02 1298.46 2494.48 1296.67 2496.97 1295.77 2499.48 1295.77 2502.07 1295.77 2504.04 1296.5 2505.39 1297.98 2506.75 1299.45 2507.42 1301.58 2507.42 1304.36L2507.42 1304.93C2507.42 1305.12 2507.41 1305.32 2507.38 1305.53 2509.7 1302.24 2512.02 1299.79 2514.33 1298.18 2516.64 1296.57 2519.04 1295.77 2521.52 1295.77 2524.01 1295.77 2525.93 1296.48 2527.28 1297.92 2528.63 1299.35 2529.31 1301.36 2529.31 1303.95 2529.31 1305.66 2528.91 1308.07 2528.13 1311.21L2525.5 1321.83C2524.77 1324.77 2524.4 1326.85 2524.4 1328.07 2524.4 1329.15 2524.58 1329.93 2524.93 1330.42 2525.28 1330.9 2525.83 1331.15 2526.59 1331.15 2527.4 1331.15 2528.27 1330.82 2529.18 1330.16 2530.1 1329.49 2531.4 1328.23 2533.07 1326.37L2535.39 1328.64C2533.06 1331.09 2531.04 1332.9 2529.31 1334.07 2527.58 1335.23 2525.6 1335.81 2523.39 1335.81 2521.63 1335.81 2520.23 1335.18 2519.17 1333.92 2518.12 1332.67 2517.59 1331.07 2517.59 1329.12 2517.59 1327.37 2518.04 1324.79 2518.93 1321.38L2520.71 1314.37C2521.36 1311.83 2521.79 1309.95 2521.99 1308.74 2522.19 1307.52 2522.29 1306.53 2522.29 1305.78 2522.29 1303.91 2521.98 1302.57 2521.36 1301.75 2520.74 1300.92 2519.73 1300.51 2518.32 1300.51 2517.19 1300.51 2515.97 1300.93 2514.68 1301.79 2513.38 1302.64 2512.01 1303.96 2510.58 1305.76 2509.15 1307.55 2507.98 1309.32 2507.08 1311.07 2506.17 1312.81 2505.45 1314.94 2504.91 1317.45L2501.22 1335.16 2494.21 1335.16 2498.87 1314.57C2499.44 1312.06 2499.82 1310.2 2500.02 1309 2500.23 1307.8 2500.33 1306.76 2500.33 1305.9 2500.33 1303.95 2499.98 1302.57 2499.3 1301.75 2498.61 1300.92 2497.53 1300.51 2496.07 1300.51 2495.05 1300.51 2493.88 1300.93 2492.57 1301.79 2491.26 1302.64 2489.86 1304 2488.37 1305.88 2486.89 1307.76 2485.73 1309.56 2484.89 1311.29 2484.05 1313.02 2483.35 1315.13 2482.78 1317.61L2478.93 1335.16 2471.92 1335.16 2477.84 1309.47C2478.43 1306.87 2478.73 1304.87 2478.73 1303.47 2478.73 1302.39 2478.55 1301.6 2478.2 1301.12 2477.85 1300.63 2477.3 1300.39 2476.54 1300.39 2475.7 1300.39 2474.82 1300.73 2473.88 1301.42 2472.95 1302.11 2471.68 1303.36 2470.05 1305.17L2467.74 1302.9C2470.12 1300.41 2472.17 1298.6 2473.88 1297.45 2475.6 1296.3 2477.48 1295.73 2479.54 1295.73Z" fill-rule="evenodd"/><text fill="#000000" fill-opacity="0" font-family="Arial,Arial_MSFontService,sans-serif" font-size="40.0815" x="2467.74" y="1330.8">洧녴</text><path d="M2569.33 1276.6 2570.42 1279.72C2564.1 1281.8 2559.42 1285.86 2556.38 1291.9 2553.34 1297.94 2551.82 1305.52 2551.82 1314.65 2551.82 1324.11 2553.34 1331.9 2556.38 1338.04 2559.42 1344.17 2564.06 1348.28 2570.3 1350.36L2569.33 1353.48C2561.41 1351.4 2555.35 1346.92 2551.13 1340.04 2546.92 1333.17 2544.81 1324.84 2544.81 1315.06 2544.81 1305.31 2546.93 1296.98 2551.15 1290.07 2555.38 1283.17 2561.44 1278.68 2569.33 1276.6Z" fill-rule="evenodd"/><text fill="#000000" fill-opacity="0" font-family="Arial,Arial_MSFontService,sans-serif" font-size="76.8804" x="2544.81" y="1343.87">(</text><path d="M2587.74 1286.41 2593.33 1286.41 2591.1 1296.42 2603.42 1296.42 2602.53 1300.51 2590.21 1300.51 2586.6 1316.23C2585.9 1319.29 2585.45 1321.48 2585.26 1322.82 2585.08 1324.16 2584.98 1325.23 2584.98 1326.04 2584.98 1329.39 2586.37 1331.07 2589.16 1331.07 2590.34 1331.07 2591.61 1330.61 2592.94 1329.71 2594.28 1328.8 2595.87 1327.26 2597.71 1325.07L2600.06 1327.5C2597.71 1330.34 2595.44 1332.43 2593.27 1333.78 2591.09 1335.13 2588.82 1335.81 2586.44 1335.81 2580.79 1335.81 2577.97 1332.96 2577.97 1327.26 2577.97 1325.45 2578.2 1323.54 2578.66 1321.54L2583.44 1300.51 2576.63 1300.51 2577.24 1297.71C2578.83 1297.69 2580.04 1297.56 2580.87 1297.35 2581.69 1297.13 2582.38 1296.83 2582.93 1296.46 2583.49 1296.08 2584 1295.54 2584.45 1294.84 2584.91 1294.13 2585.36 1293.23 2585.79 1292.14 2586.22 1291.05 2586.87 1289.13 2587.74 1286.41Z" fill-rule="evenodd"/><text fill="#000000" fill-opacity="0" font-family="Arial,Arial_MSFontService,sans-serif" font-size="49.4028" x="2576.63" y="1329.63">洧노</text><path d="M2609.2 1276.6C2617.09 1278.68 2623.15 1283.17 2627.37 1290.07 2631.6 1296.98 2633.72 1305.31 2633.72 1315.06 2633.72 1324.84 2631.61 1333.17 2627.4 1340.04 2623.18 1346.92 2617.11 1351.4 2609.2 1353.48L2608.23 1350.36C2614.47 1348.28 2619.11 1344.17 2622.15 1338.04 2625.19 1331.9 2626.71 1324.11 2626.71 1314.65 2626.71 1305.52 2625.19 1297.94 2622.17 1291.9 2619.14 1285.86 2614.45 1281.8 2608.1 1279.72Z" fill-rule="evenodd"/><text fill="#000000" fill-opacity="0" font-family="Arial,Arial_MSFontService,sans-serif" font-size="76.8804" x="2608.1" y="1343.87">)</text><rect x="1940" y="94.9999" width="1103" height="813" stroke="#000000" stroke-width="2.29167" stroke-miterlimit="8" stroke-dasharray="9.16667 6.875" fill="none"/><text font-family="Arial,Arial_MSFontService,sans-serif" font-weight="400" font-size="55" transform="matrix(1 0 0 1 1973 164)">Szab치lyzott<tspan font-size="55" x="299.063" y="0">Szakasz (val칩s fizikai modell)</tspan></text><path d="M436 690.854 818.267 690.854 818.267 693.146 436 693.146ZM813.683 678.25 841.183 692 813.683 705.75Z"/><path d="M1011.13 619.361C1008.41 619.361 1005.78 620.739 1003.25 623.495 1000.73 626.251 998.787 629.979 997.436 634.681 1001.25 634.654 1004.52 634.309 1007.24 633.647 1009.97 632.985 1012.07 631.932 1013.53 630.486 1014.98 629.041 1015.71 627.089 1015.71 624.63 1015.71 622.982 1015.33 621.692 1014.56 620.76 1013.79 619.827 1012.65 619.361 1011.13 619.361ZM1012.59 616.16C1015.86 616.16 1018.31 616.822 1019.95 618.146 1021.58 619.469 1022.4 621.536 1022.4 624.346 1022.4 628.939 1020.25 632.384 1015.94 634.681 1011.63 636.977 1005.23 638.125 996.747 638.125 996.423 639.747 996.261 641.503 996.261 643.394 996.261 646.231 996.815 648.291 997.923 649.574 999.03 650.858 1000.84 651.5 1003.35 651.5 1005.84 651.5 1008.09 650.959 1010.1 649.878 1012.11 648.798 1014.24 647.136 1016.48 644.894L1019 647.528C1016.38 650.419 1013.72 652.594 1011.03 654.053 1008.34 655.512 1005.22 656.241 1001.65 656.241 997.733 656.241 994.701 655.046 992.553 652.655 990.405 650.263 989.331 646.933 989.331 642.665 989.331 639.774 989.851 636.673 990.891 633.364 991.931 630.054 993.505 627.082 995.612 624.448 997.72 621.813 1000.25 619.773 1003.19 618.328 1006.14 616.882 1009.27 616.16 1012.59 616.16Z" fill-rule="evenodd"/><text fill="#000000" fill-opacity="0" font-family="Arial,Arial_MSFontService,sans-serif" font-size="40.0815" x="989.331" y="651.231">洧</text><path d="M1059.38 597.031 1060.47 600.151C1054.15 602.232 1049.47 606.291 1046.43 612.33 1043.39 618.368 1041.87 625.954 1041.87 635.086 1041.87 644.542 1043.39 652.337 1046.43 658.47 1049.47 664.603 1054.11 668.71 1060.35 670.791L1059.38 673.911C1051.46 671.831 1045.39 667.352 1041.18 660.476 1036.97 653.6 1034.86 645.272 1034.86 635.491 1034.86 625.738 1036.97 617.409 1041.2 610.506 1045.43 603.603 1051.49 599.111 1059.38 597.031Z" fill-rule="evenodd"/><text fill="#000000" fill-opacity="0" font-family="Arial,Arial_MSFontService,sans-serif" font-size="76.8804" x="1034.86" y="664.301">(</text><path d="M1077.78 606.838 1083.38 606.838 1081.15 616.849 1093.47 616.849 1092.58 620.942 1080.26 620.942 1076.65 636.667C1075.95 639.72 1075.5 641.915 1075.31 643.252 1075.12 644.59 1075.03 645.664 1075.03 646.474 1075.03 649.824 1076.42 651.5 1079.2 651.5 1080.39 651.5 1081.65 651.047 1082.99 650.142 1084.33 649.237 1085.92 647.69 1087.75 645.501L1090.1 647.933C1087.75 650.77 1085.49 652.864 1083.32 654.215 1081.14 655.566 1078.86 656.241 1076.49 656.241 1070.84 656.241 1068.02 653.391 1068.02 647.69 1068.02 645.88 1068.25 643.975 1068.71 641.976L1073.49 620.942 1066.68 620.942 1067.29 618.146C1068.88 618.118 1070.09 617.997 1070.91 617.781 1071.74 617.565 1072.43 617.267 1072.98 616.889 1073.54 616.511 1074.04 615.971 1074.5 615.268 1074.96 614.566 1075.41 613.667 1075.84 612.573 1076.27 611.479 1076.92 609.567 1077.78 606.838Z" fill-rule="evenodd"/><text fill="#000000" fill-opacity="0" font-family="Arial,Arial_MSFontService,sans-serif" font-size="49.4028" x="1066.68" y="650.066">洧노</text><path d="M1099.25 597.031C1107.13 599.111 1113.19 603.603 1117.42 610.506 1121.65 617.409 1123.76 625.738 1123.76 635.491 1123.76 645.272 1121.66 653.6 1117.44 660.476 1113.23 667.352 1107.16 671.831 1099.25 673.911L1098.27 670.791C1104.51 668.71 1109.15 664.603 1112.19 658.47 1115.23 652.337 1116.75 644.542 1116.75 635.086 1116.75 625.954 1115.24 618.368 1112.21 612.33 1109.19 606.291 1104.5 602.232 1098.15 600.151Z" fill-rule="evenodd"/><text fill="#000000" fill-opacity="0" font-family="Arial,Arial_MSFontService,sans-serif" font-size="76.8804" x="1098.15" y="664.301">)</text><path d="M456.631 618.85C458.333 618.85 459.677 619.41 460.663 620.532 461.649 621.653 462.142 623.119 462.142 624.929 462.142 626.28 461.886 627.671 461.372 629.103L461.899 629.306C464.547 625.712 467.093 623.078 469.539 621.403 471.984 619.728 474.463 618.89 476.975 618.89 478.948 618.89 480.596 619.039 481.92 619.336L479.974 628.414 475.8 628.414C475.638 627.279 475.408 626.401 475.111 625.78 474.814 625.159 474.463 624.726 474.057 624.483 473.652 624.24 473.139 624.118 472.517 624.118 471.545 624.118 470.484 624.537 469.336 625.375 468.188 626.212 466.898 627.523 465.466 629.306 464.034 631.089 462.892 632.805 462.041 634.453 461.19 636.101 460.481 638.195 459.913 640.734L456.063 658.283 449.052 658.283 454.928 632.589C455.307 630.967 455.55 629.711 455.658 628.819 455.766 627.928 455.82 627.185 455.82 626.59 455.82 625.51 455.644 624.726 455.293 624.24 454.942 623.754 454.388 623.51 453.632 623.51 452.794 623.51 451.909 623.855 450.977 624.544 450.045 625.233 448.768 626.482 447.147 628.293L444.837 626.023C447.323 623.429 449.403 621.585 451.078 620.491 452.753 619.397 454.604 618.85 456.631 618.85Z" fill-rule="evenodd"/><text fill="#000000" fill-opacity="0" font-family="Arial,Arial_MSFontService,sans-serif" font-size="39.4331" x="444.837" y="653.354">洧</text><path d="M516.488 599.721 517.582 602.841C511.26 604.922 506.579 608.981 503.539 615.02 500.5 621.058 498.98 628.644 498.98 637.776 498.98 647.232 500.5 655.027 503.539 661.16 506.579 667.293 511.219 671.4 517.46 673.481L516.488 676.601C508.571 674.521 502.506 670.043 498.291 663.166 494.076 656.29 491.969 647.962 491.969 638.181 491.969 628.428 494.083 620.099 498.311 613.196 502.54 606.293 508.598 601.801 516.488 599.721Z" fill-rule="evenodd"/><text fill="#000000" fill-opacity="0" font-family="Arial,Arial_MSFontService,sans-serif" font-size="76.8804" x="491.969" y="666.991">(</text><path d="M534.895 609.528 540.488 609.528 538.259 619.539 550.579 619.539 549.687 623.632 537.367 623.632 533.76 639.357C533.058 642.41 532.612 644.605 532.423 645.942 532.234 647.28 532.139 648.354 532.139 649.164 532.139 652.514 533.531 654.19 536.313 654.19 537.502 654.19 538.765 653.737 540.103 652.832 541.44 651.927 543.027 650.38 544.865 648.192L547.215 650.623C544.865 653.46 542.602 655.554 540.427 656.905 538.252 658.256 535.976 658.931 533.598 658.931 527.951 658.931 525.128 656.081 525.128 650.38 525.128 648.57 525.358 646.665 525.817 644.666L530.599 623.632 523.79 623.632 524.398 620.836C525.992 620.809 527.202 620.687 528.026 620.471 528.85 620.255 529.539 619.957 530.092 619.579 530.646 619.201 531.153 618.661 531.612 617.958 532.072 617.256 532.517 616.357 532.95 615.263 533.382 614.169 534.03 612.257 534.895 609.528Z" fill-rule="evenodd"/><text fill="#000000" fill-opacity="0" font-family="Arial,Arial_MSFontService,sans-serif" font-size="49.4028" x="523.79" y="652.756">洧노</text><path d="M556.356 599.721C564.245 601.801 570.304 606.293 574.532 613.196 578.761 620.099 580.875 628.428 580.875 638.181 580.875 647.962 578.768 656.29 574.553 663.166 570.338 670.043 564.272 674.521 556.356 676.601L555.383 673.481C561.625 671.4 566.265 667.293 569.304 661.16 572.344 655.027 573.864 647.232 573.864 637.776 573.864 628.644 572.351 621.058 569.325 615.02 566.299 608.981 561.611 604.922 555.262 602.841Z" fill-rule="evenodd"/><text fill="#000000" fill-opacity="0" font-family="Arial,Arial_MSFontService,sans-serif" font-size="76.8804" x="555.262" y="666.991">)</text><path d="M2.0266e-06-1.14583 385.179-1.14515 385.179 1.14651-2.0266e-06 1.14583ZM380.596-13.7493 408.096 0.000721785 380.596 13.7507Z" transform="matrix(1 0 0 -1 3007 692.001)"/><rect x="1179" y="1053" width="602" height="134" stroke="#000000" stroke-width="2.29167" stroke-miterlimit="8" fill="#FFFFFF"/><text font-family="Arial,Arial_MSFontService,sans-serif" font-weight="400" font-size="55" transform="matrix(1 0 0 1 1315.84 1140)">El콈recsatol치s</text><path d="M597 690.854 601.68 690.854 601.68 1120.12 600.534 1118.97 1156.38 1118.97 1156.38 1121.26 599.389 1121.26 599.389 692 600.534 693.146 597 693.146ZM1151.79 1106.37 1179.29 1120.12 1151.79 1133.87Z"/><path d="M0-1.14583 312.923-1.14583 312.923 358.273 310.631 358.273 310.631 0 311.777 1.14583 0 1.14583ZM325.527 353.689 311.777 381.189 298.027 353.689Z" transform="matrix(1 0 0 -1 1781 1120.19)"/><text font-family="Calibri,Calibri_MSFontService,sans-serif" font-weight="400" font-size="83" transform="matrix(1 0 0 1 2104.02 792)">+</text><path d="M1846.98 1035.69C1849.63 1035.69 1851.91 1035.91 1853.83 1036.34L1852.25 1043.23 1848.68 1043.23C1848.3 1041.69 1847.81 1040.58 1847.2 1039.9 1846.59 1039.23 1845.7 1038.89 1844.51 1038.89 1842.97 1038.89 1841.66 1039.32 1840.6 1040.17 1839.53 1041.02 1838.62 1042.28 1837.86 1043.96 1837.1 1045.63 1836.4 1047.89 1835.75 1050.73L1834.74 1055.14 1845.16 1055.14 1844.26 1059.24 1833.81 1059.24 1826.27 1094.58C1825.03 1100.44 1823.12 1104.81 1820.56 1107.69 1817.99 1110.56 1814.76 1112 1810.87 1112 1809.73 1112 1808.84 1111.94 1808.19 1111.8L1808.88 1108.23C1809.15 1108.31 1809.79 1108.36 1810.79 1108.36 1812 1108.36 1813.04 1108.04 1813.91 1107.42 1814.77 1106.8 1815.58 1105.72 1816.32 1104.18 1817.06 1102.64 1817.75 1100.51 1818.37 1097.78L1827.08 1059.24 1820.23 1059.24 1820.84 1056.44C1822.65 1056.33 1823.95 1056.18 1824.75 1055.99 1825.55 1055.8 1826.17 1055.52 1826.61 1055.14 1827.06 1054.76 1827.44 1054.27 1827.75 1053.66 1828.06 1053.06 1828.46 1051.94 1828.94 1050.32 1830.38 1045.46 1832.59 1041.8 1835.57 1039.36 1838.56 1036.91 1842.36 1035.69 1846.98 1035.69Z" fill-rule="evenodd"/><text fill="#000000" fill-opacity="0" font-family="Arial,Arial_MSFontService,sans-serif" font-size="76.313" x="1808.19" y="1102.46">洧녭</text><path d="M1888.28 1035.32 1889.38 1038.45C1883.06 1040.53 1878.37 1044.59 1875.33 1050.62 1872.3 1056.66 1870.78 1064.25 1870.78 1073.38 1870.78 1082.84 1872.3 1090.63 1875.33 1096.76 1878.37 1102.9 1883.01 1107 1889.26 1109.08L1888.28 1112.21C1880.37 1110.12 1874.3 1105.65 1870.09 1098.77 1865.87 1091.89 1863.76 1083.57 1863.76 1073.79 1863.76 1064.03 1865.88 1055.7 1870.11 1048.8 1874.33 1041.9 1880.39 1037.41 1888.28 1035.32Z" fill-rule="evenodd"/><text fill="#000000" fill-opacity="0" font-family="Arial,Arial_MSFontService,sans-serif" font-size="76.8804" x="1863.76" y="1102.6">(</text><path d="M1906.69 1045.13 1912.28 1045.13 1910.05 1055.14 1922.37 1055.14 1921.48 1059.24 1909.16 1059.24 1905.56 1074.96C1904.85 1078.01 1904.41 1080.21 1904.22 1081.55 1904.03 1082.88 1903.93 1083.96 1903.93 1084.77 1903.93 1088.12 1905.33 1089.79 1908.11 1089.79 1909.3 1089.79 1910.56 1089.34 1911.9 1088.44 1913.24 1087.53 1914.82 1085.98 1916.66 1083.8L1919.01 1086.23C1916.66 1089.06 1914.4 1091.16 1912.22 1092.51 1910.05 1093.86 1907.77 1094.54 1905.39 1094.54 1899.75 1094.54 1896.92 1091.68 1896.92 1085.98 1896.92 1084.17 1897.15 1082.27 1897.61 1080.27L1902.39 1059.24 1895.59 1059.24 1896.19 1056.44C1897.79 1056.41 1899 1056.29 1899.82 1056.07 1900.65 1055.86 1901.33 1055.56 1901.89 1055.18 1902.44 1054.8 1902.95 1054.26 1903.41 1053.56 1903.87 1052.86 1904.31 1051.96 1904.74 1050.87 1905.18 1049.77 1905.83 1047.86 1906.69 1045.13Z" fill-rule="evenodd"/><text fill="#000000" fill-opacity="0" font-family="Arial,Arial_MSFontService,sans-serif" font-size="49.4028" x="1895.59" y="1088.36">洧노</text><path d="M1928.15 1035.32C1936.04 1037.41 1942.1 1041.9 1946.33 1048.8 1950.56 1055.7 1952.67 1064.03 1952.67 1073.79 1952.67 1083.57 1950.56 1091.89 1946.35 1098.77 1942.13 1105.65 1936.07 1110.12 1928.15 1112.21L1927.18 1109.08C1933.42 1107 1938.06 1102.9 1941.1 1096.76 1944.14 1090.63 1945.66 1082.84 1945.66 1073.38 1945.66 1064.25 1944.15 1056.66 1941.12 1050.62 1938.09 1044.59 1933.41 1040.53 1927.06 1038.45Z" fill-rule="evenodd"/><text fill="#000000" fill-opacity="0" font-family="Arial,Arial_MSFontService,sans-serif" font-size="76.8804" x="1927.06" y="1102.6">)</text></g></svg>