<svg xmlns="http://www.w3.org/2000/svg" viewBox="0 0 500 400"><defs><style>.a,.e,.h,.i{fill:none;}.a{stroke:#112641;stroke-width:3px;}.a,.h,.i{stroke-linecap:round;stroke-linejoin:round;}.b{fill:#112641;}.c{fill:#ef4638;stroke-width:2.41px;}.c,.e,.f,.h,.i{stroke:#152742;}.c,.e,.f{stroke-miterlimit:10;}.d{fill:#fff;}.e{stroke-width:1.93px;}.f{fill:#1eaec5;}.f,.h,.i{stroke-width:2.3px;}.g{fill:#14aec4;}.i{stroke-dasharray:6.09 6.09;}</style></defs><line class="a" x1="172.27" y1="71.68" x2="172.27" y2="84.19"/><polygon class="b" points="167.78 82.88 172.27 90.65 176.76 82.88 167.78 82.88"/><line class="a" x1="96.27" y1="165.02" x2="96.27" y2="177.52"/><polygon class="b" points="91.78 176.21 96.27 183.98 100.76 176.21 91.78 176.21"/><line class="a" x1="246.94" y1="165.02" x2="246.94" y2="177.52"/><polygon class="b" points="242.45 176.21 246.94 183.98 251.42 176.21 242.45 176.21"/><line class="a" x1="122.75" y1="122.02" x2="113.91" y2="130.86"/><polygon class="b" points="111.66 126.76 109.34 135.43 118.01 133.1 111.66 126.76"/><line class="a" x1="217.42" y1="122.02" x2="226.26" y2="130.86"/><polygon class="b" points="222.16 133.1 230.82 135.43 228.5 126.76 222.16 133.1"/><line class="a" x1="124.9" y1="212.57" x2="133.74" y2="221.41"/><polygon class="b" points="129.64 223.66 138.31 225.98 135.98 217.31 129.64 223.66"/><line class="a" x1="219.38" y1="212.57" x2="210.54" y2="221.41"/><polygon class="b" points="208.29 217.31 205.97 225.98 214.64 223.66 208.29 217.31"/><line class="a" x1="171.97" y1="252.91" x2="171.97" y2="265.41"/><polygon class="b" points="167.49 264.1 171.97 271.87 176.46 264.1 167.49 264.1"/><line class="a" x1="172.27" y1="301.2" x2="172.27" y2="313.71"/><polygon class="b" points="167.78 312.39 172.27 320.17 176.76 312.39 167.78 312.39"/><path class="c" d="M172.27,40c23.88,0,43.25,6.49,43.25,14.49S196.15,69,172.27,69,129,62.47,129,54.46,148.38,40,172.27,40Z"/><path class="d" d="M148.05,57.54h-1l2.87-6.7h1Z"/><path class="d" d="M155.37,56.49a3.28,3.28,0,0,1-.61.18,3.55,3.55,0,0,1-.67.06,2.72,2.72,0,0,1-.89-.14,1.74,1.74,0,0,1-.67-.4,1.87,1.87,0,0,1-.42-.66,2.78,2.78,0,0,1,0-1.83,2,2,0,0,1,1.14-1.14,2.57,2.57,0,0,1,.9-.15,4.49,4.49,0,0,1,.69,0,4.75,4.75,0,0,1,.5.11v1a2.38,2.38,0,0,0-.55-.19,2.34,2.34,0,0,0-.57-.07,1.31,1.31,0,0,0-.5.09,1.12,1.12,0,0,0-.38.26,1.18,1.18,0,0,0-.23.41,1.78,1.78,0,0,0-.08.53,1.53,1.53,0,0,0,.09.54,1.27,1.27,0,0,0,.24.41,1.09,1.09,0,0,0,.38.25,1.35,1.35,0,0,0,.5.09,1.27,1.27,0,0,0,.27,0l.3,0,.28-.08a1.69,1.69,0,0,0,.27-.1Z"/><path class="d" d="M159.24,56.65l0-.54a2.18,2.18,0,0,1-.28.25,1.69,1.69,0,0,1-.31.21,2,2,0,0,1-.83.18,1.4,1.4,0,0,1-.56-.1,1.15,1.15,0,0,1-.41-.26,1.13,1.13,0,0,1-.25-.41,1.72,1.72,0,0,1-.08-.52,1.26,1.26,0,0,1,.12-.55,1.14,1.14,0,0,1,.39-.43,2,2,0,0,1,.64-.29,3.49,3.49,0,0,1,.9-.1h.55v-.25a.88.88,0,0,0,0-.29.46.46,0,0,0-.14-.22.72.72,0,0,0-.26-.14,1.5,1.5,0,0,0-.4,0,3.55,3.55,0,0,0-.73.08,4.45,4.45,0,0,0-.7.24v-.8a3.67,3.67,0,0,1,.7-.2,4.28,4.28,0,0,1,.81-.08,3.09,3.09,0,0,1,.8.09,1.42,1.42,0,0,1,.55.27,1,1,0,0,1,.32.44,1.68,1.68,0,0,1,.1.62v2.85Zm-.14-1.84h-.61a1.44,1.44,0,0,0-.44,0,.73.73,0,0,0-.28.13.63.63,0,0,0-.17.2.69.69,0,0,0,0,.24.48.48,0,0,0,.17.39.69.69,0,0,0,.45.13.77.77,0,0,0,.43-.15,3,3,0,0,0,.5-.43Z"/><path class="d" d="M164.21,56.65V53.81c0-.11,0-.2,0-.28s0-.14,0-.19a.28.28,0,0,0-.08-.12.17.17,0,0,0-.13,0,.34.34,0,0,0-.25.17,3.32,3.32,0,0,0-.28.59v2.71h-.86V53.81a2.35,2.35,0,0,0,0-.28.5.5,0,0,0,0-.19.2.2,0,0,0-.07-.12.2.2,0,0,0-.13,0c-.08,0-.16.06-.24.17a2.6,2.6,0,0,0-.3.59v2.71h-.86V52.47h.74l0,.61a3,3,0,0,1,.18-.32,1,1,0,0,1,.19-.21.53.53,0,0,1,.22-.12.77.77,0,0,1,.27,0,.72.72,0,0,1,.53.18.82.82,0,0,1,.21.51,3,3,0,0,1,.19-.32,1.39,1.39,0,0,1,.21-.21.53.53,0,0,1,.22-.12.77.77,0,0,1,.27,0,.78.78,0,0,1,.68.32,1.72,1.72,0,0,1,.21.94v3Z"/><path class="d" d="M165.32,58.34v-.79H170v.79Z"/><path class="d" d="M173.15,56.65l0-.61-.27.29a1.91,1.91,0,0,1-.3.22,2.17,2.17,0,0,1-.35.15,1.62,1.62,0,0,1-.4,0,1.4,1.4,0,0,1-.66-.15,1.38,1.38,0,0,1-.48-.42,2.07,2.07,0,0,1-.3-.67,3.34,3.34,0,0,1-.11-.87,2.75,2.75,0,0,1,.17-1,2,2,0,0,1,.45-.7,1.88,1.88,0,0,1,.68-.41,2.63,2.63,0,0,1,.86-.13l.32,0,.28,0V50.84h1v5.81Zm-1.83-2a2.6,2.6,0,0,0,.05.59,1.11,1.11,0,0,0,.14.4.61.61,0,0,0,.22.23.78.78,0,0,0,.31.07.74.74,0,0,0,.49-.21,3.67,3.67,0,0,0,.49-.56V53.29a1.67,1.67,0,0,0-.3-.07,2,2,0,0,0-.35,0,.85.85,0,0,0-.43.1,1,1,0,0,0-.34.28,1.38,1.38,0,0,0-.21.44A2.12,2.12,0,0,0,171.32,54.6Z"/><path class="d" d="M177.85,54.1a2.36,2.36,0,0,0,0-.4.85.85,0,0,0-.1-.27.43.43,0,0,0-.17-.16.52.52,0,0,0-.23-.05.74.74,0,0,0-.45.18,2.84,2.84,0,0,0-.53.61v2.64h-1V52.47h.91l0,.61a1.68,1.68,0,0,1,.24-.29,2.09,2.09,0,0,1,.28-.22,1.42,1.42,0,0,1,.36-.14,1.79,1.79,0,0,1,.42,0,1.4,1.4,0,0,1,.56.11,1.07,1.07,0,0,1,.41.32,1.49,1.49,0,0,1,.25.54,2.9,2.9,0,0,1,.07.75Z"/><path class="d" d="M181.14,53.25H180v-.78h2.21v3.4h1.21v.78h-3.56v-.78h1.32Zm1.11-1.92a.53.53,0,0,1-.05.25.74.74,0,0,1-.13.21.6.6,0,0,1-.21.14.7.7,0,0,1-.52,0,.64.64,0,0,1-.35-.35.7.7,0,0,1-.05-.25.75.75,0,0,1,.05-.26.6.6,0,0,1,.14-.21.77.77,0,0,1,.21-.14.7.7,0,0,1,.52,0,.77.77,0,0,1,.21.14.74.74,0,0,1,.13.21A.58.58,0,0,1,182.25,51.33Z"/><path class="d" d="M186.76,56.65h-1.15L184,52.47h1.12l.87,2.37.26.77.25-.73.88-2.41h1.08Z"/><path class="d" d="M192.7,54.24v.27c0,.11,0,.21,0,.31h-2.75a1.42,1.42,0,0,0,.08.48,1.13,1.13,0,0,0,.24.36,1.12,1.12,0,0,0,.37.21,1.46,1.46,0,0,0,.48.08,5.13,5.13,0,0,0,.65-.05,4.18,4.18,0,0,0,.73-.16v.8l-.35.08-.39.07-.4,0-.39,0a2.54,2.54,0,0,1-.86-.14,1.7,1.7,0,0,1-.64-.4,1.66,1.66,0,0,1-.4-.65,2.6,2.6,0,0,1-.14-.91,2.75,2.75,0,0,1,.14-.93,2,2,0,0,1,.39-.71,1.79,1.79,0,0,1,.62-.47,2.21,2.21,0,0,1,1.6,0,1.54,1.54,0,0,1,.57.38,1.68,1.68,0,0,1,.35.59A2.27,2.27,0,0,1,192.7,54.24Zm-1-.14a1.35,1.35,0,0,0-.06-.43.75.75,0,0,0-.18-.3.76.76,0,0,0-.26-.18.88.88,0,0,0-.33-.06.85.85,0,0,0-.62.25,1.19,1.19,0,0,0-.29.72Z"/><path class="d" d="M196.39,54.1a2.25,2.25,0,0,0,0-.4.66.66,0,0,0-.1-.27.41.41,0,0,0-.16-.16.56.56,0,0,0-.23-.05.77.77,0,0,0-.46.18,2.84,2.84,0,0,0-.52.61v2.64h-1V52.47h.91l0,.61a2.26,2.26,0,0,1,.23-.29,2.21,2.21,0,0,1,.29-.22,1.35,1.35,0,0,1,.35-.14,1.88,1.88,0,0,1,.43,0,1.43,1.43,0,0,1,.56.11,1.07,1.07,0,0,1,.41.32,1.68,1.68,0,0,1,.25.54,2.92,2.92,0,0,1,.06.75Z"/><path class="c" d="M172.27,222.44c23.88,0,43.25,6.49,43.25,14.5s-19.37,14.49-43.25,14.49S129,244.94,129,236.94,148.38,222.44,172.27,222.44Z"/><path class="d" d="M148.05,240h-1l2.87-6.7h1Z"/><path class="d" d="M154.48,239.13V236.4c0-.45-.17-.68-.51-.68a.77.77,0,0,0-.49.2,4.16,4.16,0,0,0-.49.56v2.65h-1V235h.87l0,.61a3.71,3.71,0,0,1,.27-.29,1.48,1.48,0,0,1,.29-.22,1.51,1.51,0,0,1,.35-.14,1.34,1.34,0,0,1,.42,0,1.4,1.4,0,0,1,.56.1,1,1,0,0,1,.39.3,1.36,1.36,0,0,1,.25.46,2.23,2.23,0,0,1,.08.6v2.81Z"/><path class="d" d="M159.24,239.13l0-.55a3.45,3.45,0,0,1-.28.26,1.65,1.65,0,0,1-.31.2,1.63,1.63,0,0,1-.83.18,1.6,1.6,0,0,1-.56-.09,1.15,1.15,0,0,1-.41-.26,1.22,1.22,0,0,1-.25-.41,1.78,1.78,0,0,1-.08-.53,1.26,1.26,0,0,1,.12-.55A1.22,1.22,0,0,1,157,237a2,2,0,0,1,.64-.28,3.46,3.46,0,0,1,.9-.11h.55v-.25a.93.93,0,0,0,0-.29.52.52,0,0,0-.14-.22.92.92,0,0,0-.26-.14,1.5,1.5,0,0,0-.4,0,3,3,0,0,0-.73.09,3.05,3.05,0,0,0-.7.24v-.81a4.58,4.58,0,0,1,.7-.2,4.28,4.28,0,0,1,.81-.07,3.09,3.09,0,0,1,.8.09,1.28,1.28,0,0,1,.55.26,1.07,1.07,0,0,1,.32.44,1.72,1.72,0,0,1,.1.62v2.86Zm-.14-1.85h-.61a1.84,1.84,0,0,0-.44.05.74.74,0,0,0-.28.14.47.47,0,0,0-.17.2.6.6,0,0,0,0,.24.45.45,0,0,0,.17.38.69.69,0,0,0,.45.14.77.77,0,0,0,.43-.15,3.08,3.08,0,0,0,.5-.44Z"/><path class="d" d="M163.59,239.13h-1.15L160.78,235h1.12l.87,2.37.26.76.25-.73.88-2.4h1.08Z"/><path class="d" d="M167.24,235.73h-1.18V235h2.21v3.4h1.2v.78h-3.56v-.78h1.33Zm1.11-1.93a.75.75,0,0,1,0,.26.6.6,0,0,1-.14.21.72.72,0,0,1-.2.14.75.75,0,0,1-.26.05.71.71,0,0,1-.26-.05.55.55,0,0,1-.21-.14.6.6,0,0,1-.14-.21.58.58,0,0,1-.05-.26.53.53,0,0,1,.05-.25.6.6,0,0,1,.14-.21.46.46,0,0,1,.21-.14.55.55,0,0,1,.26-.06.58.58,0,0,1,.26.06.56.56,0,0,1,.2.14.6.6,0,0,1,.14.21A.7.7,0,0,1,168.35,233.8Z"/><path class="d" d="M173.66,235.68a.88.88,0,0,1,.16.3,1.26,1.26,0,0,1,.05.33,1.48,1.48,0,0,1-.12.61,1.28,1.28,0,0,1-.34.45,1.78,1.78,0,0,1-.53.28,2.38,2.38,0,0,1-.68.09,1.68,1.68,0,0,1-.4-.05.75.75,0,0,1-.28-.1.61.61,0,0,0-.12.16.38.38,0,0,0-.05.19.31.31,0,0,0,0,.13.58.58,0,0,0,.1.12.53.53,0,0,0,.15.08.65.65,0,0,0,.2,0l1,0a2.25,2.25,0,0,1,.61.08,1.31,1.31,0,0,1,.46.22.89.89,0,0,1,.3.34.93.93,0,0,1,.1.45,1.19,1.19,0,0,1-.53,1,2,2,0,0,1-.66.31,3.54,3.54,0,0,1-.91.11,4.3,4.3,0,0,1-.87-.08,1.88,1.88,0,0,1-.6-.23.85.85,0,0,1-.34-.34.83.83,0,0,1-.12-.44,1.17,1.17,0,0,1,0-.27,1,1,0,0,1,.3-.45,1.43,1.43,0,0,1,.26-.22.79.79,0,0,1-.31-.29.76.76,0,0,1-.1-.39.75.75,0,0,1,0-.26.92.92,0,0,1,.09-.23,1.64,1.64,0,0,1,.14-.22c.05-.07.11-.13.17-.2a1.12,1.12,0,0,1-.26-.37,1.53,1.53,0,0,1,0-1.16,1.15,1.15,0,0,1,.35-.46,1.46,1.46,0,0,1,.52-.29,2.41,2.41,0,0,1,.67-.09h.36l.31.07h1.45v.73Zm-2.37,4a.38.38,0,0,0,.25.36,1.58,1.58,0,0,0,.69.12,1.65,1.65,0,0,0,.48-.06A.94.94,0,0,0,173,240a.41.41,0,0,0,.17-.2.48.48,0,0,0,.06-.24.35.35,0,0,0,0-.18.47.47,0,0,0-.15-.13.63.63,0,0,0-.22-.08,1.14,1.14,0,0,0-.28,0l-.88,0a1.75,1.75,0,0,0-.2.16.45.45,0,0,0-.11.14.47.47,0,0,0-.06.15A.77.77,0,0,0,171.29,239.68Zm.17-3.35a.67.67,0,0,0,.74.72.84.84,0,0,0,.33-.06.6.6,0,0,0,.22-.16.72.72,0,0,0,.14-.24.92.92,0,0,0,.05-.28.69.69,0,0,0-.75-.75.66.66,0,0,0-.32.07.63.63,0,0,0-.23.16.66.66,0,0,0-.13.25A.93.93,0,0,0,171.46,236.33Z"/><path class="d" d="M177.78,239.13l0-.55a3.31,3.31,0,0,1-.27.26,1.73,1.73,0,0,1-.32.2,2,2,0,0,1-.37.14,2.15,2.15,0,0,1-.45,0,1.66,1.66,0,0,1-.57-.09,1.11,1.11,0,0,1-.4-.26,1.08,1.08,0,0,1-.25-.41,1.51,1.51,0,0,1-.09-.53,1.27,1.27,0,0,1,.13-.55,1.18,1.18,0,0,1,.38-.43,2.1,2.1,0,0,1,.64-.28,3.49,3.49,0,0,1,.91-.11h.54v-.25a.92.92,0,0,0,0-.29.54.54,0,0,0-.15-.22.71.71,0,0,0-.26-.14,1.42,1.42,0,0,0-.39,0,3,3,0,0,0-.73.09,2.9,2.9,0,0,0-.7.24v-.81a4.78,4.78,0,0,1,.69-.2,4.39,4.39,0,0,1,.82-.07,3.09,3.09,0,0,1,.8.09,1.34,1.34,0,0,1,.55.26,1.16,1.16,0,0,1,.32.44,2,2,0,0,1,.1.62v2.86Zm-.15-1.85H177a1.75,1.75,0,0,0-.43.05.78.78,0,0,0-.29.14.45.45,0,0,0-.16.2.47.47,0,0,0,0,.24.44.44,0,0,0,.16.38.69.69,0,0,0,.45.14.8.8,0,0,0,.44-.15,3.06,3.06,0,0,0,.49-.44Z"/><path class="d" d="M183.24,239.09l-.55.1-.52,0a3,3,0,0,1-.71-.08,1.22,1.22,0,0,1-.49-.27,1,1,0,0,1-.29-.45,2.08,2.08,0,0,1-.09-.65v-2h-1.13V235h1.13v-1.07l1-.27V235h1.63v.78h-1.63v2a.78.78,0,0,0,.17.54.71.71,0,0,0,.55.18,2.45,2.45,0,0,0,.48,0l.43-.09Z"/><path class="d" d="M185.78,235.73h-1.19V235h2.21v3.4H188v.78h-3.56v-.78h1.33Zm1.11-1.93a.75.75,0,0,1,0,.26.64.64,0,0,1-.35.35.71.71,0,0,1-.26.05.75.75,0,0,1-.26-.05.64.64,0,0,1-.35-.35.75.75,0,0,1-.05-.26.7.7,0,0,1,.05-.25.77.77,0,0,1,.14-.21.6.6,0,0,1,.21-.14.58.58,0,0,1,.26-.06.55.55,0,0,1,.26.06.6.6,0,0,1,.21.14.77.77,0,0,1,.14.21A.7.7,0,0,1,186.89,233.8Z"/><path class="d" d="M192.83,237a2.9,2.9,0,0,1-.14.91,2,2,0,0,1-.41.7,1.73,1.73,0,0,1-.64.45,2.23,2.23,0,0,1-.88.16,2.41,2.41,0,0,1-.83-.13,1.64,1.64,0,0,1-.62-.41,1.77,1.77,0,0,1-.39-.67,3,3,0,0,1-.14-.95,2.57,2.57,0,0,1,.15-.9,2,2,0,0,1,.4-.7A1.83,1.83,0,0,1,190,235a2.49,2.49,0,0,1,1.7,0,1.62,1.62,0,0,1,.62.4,1.81,1.81,0,0,1,.39.68A2.82,2.82,0,0,1,192.83,237Zm-1.05,0a1.59,1.59,0,0,0-.25-1,.83.83,0,0,0-.72-.32.93.93,0,0,0-.45.1.89.89,0,0,0-.3.28,1.33,1.33,0,0,0-.18.42,2.76,2.76,0,0,0,0,.51,1.59,1.59,0,0,0,.26,1,.88.88,0,0,0,.72.33.87.87,0,0,0,.44-.1.8.8,0,0,0,.3-.28,1.32,1.32,0,0,0,.17-.42A2.12,2.12,0,0,0,191.78,237Z"/><path class="d" d="M196.19,239.13V236.4c0-.45-.17-.68-.51-.68a.75.75,0,0,0-.49.2,3.56,3.56,0,0,0-.49.56v2.65h-1V235h.87l0,.61a3.58,3.58,0,0,1,.26-.29,1.29,1.29,0,0,1,.3-.22,1.35,1.35,0,0,1,.35-.14,1.32,1.32,0,0,1,.41,0,1.37,1.37,0,0,1,.56.1,1.08,1.08,0,0,1,.4.3,1.19,1.19,0,0,1,.24.46,1.9,1.9,0,0,1,.08.6v2.81Z"/><path class="c" d="M97.4,136.85c23.88,0,43.25,6.49,43.25,14.49s-19.37,14.5-43.25,14.5-43.25-6.49-43.25-14.5S73.51,136.85,97.4,136.85Z"/><path class="d" d="M59.28,154.42h-1l2.87-6.7h1Z"/><path class="d" d="M64.57,148.5H63.38v-.78h2.21v5H66.8v.79H63.24v-.79h1.33Z"/><path class="d" d="M69.2,150.14H68v-.79h2.21v3.4h1.2v.79H67.87v-.79H69.2Zm1.11-1.93a.75.75,0,0,1,0,.26.66.66,0,0,1-.14.2.56.56,0,0,1-.2.14.58.58,0,0,1-.26.05.55.55,0,0,1-.26-.05.46.46,0,0,1-.21-.14.66.66,0,0,1-.14-.2.58.58,0,0,1,0-.26.51.51,0,0,1,0-.25.6.6,0,0,1,.14-.21.57.57,0,0,1,.21-.15.71.71,0,0,1,.26,0,.57.57,0,0,1,.46.2.6.6,0,0,1,.14.21A.66.66,0,0,1,70.31,148.21Z"/><path class="d" d="M75,153.54v-2.73q0-.69-.51-.69a.72.72,0,0,0-.49.21,3.15,3.15,0,0,0-.49.56v2.65h-1v-4.19h.87l0,.62a2.43,2.43,0,0,1,.26-.29,1.29,1.29,0,0,1,.3-.22,1.37,1.37,0,0,1,.35-.15,1.7,1.7,0,0,1,.41-.05,1.36,1.36,0,0,1,.56.11,1.08,1.08,0,0,1,.4.3,1.12,1.12,0,0,1,.24.46,1.9,1.9,0,0,1,.08.6v2.81Z"/><path class="d" d="M80.76,151.12c0,.07,0,.16,0,.27a3,3,0,0,1,0,.31H78a1.26,1.26,0,0,0,.08.49,1.09,1.09,0,0,0,.24.35,1.12,1.12,0,0,0,.37.21,1.42,1.42,0,0,0,.48.08,5.4,5.4,0,0,0,1.37-.2v.79l-.35.09-.38.06-.4.05H79a2.54,2.54,0,0,1-.86-.14,1.62,1.62,0,0,1-.64-.4,1.72,1.72,0,0,1-.41-.65,2.82,2.82,0,0,1-.13-.91,3,3,0,0,1,.13-.93,2.34,2.34,0,0,1,.4-.71,1.65,1.65,0,0,1,.62-.46,1.92,1.92,0,0,1,.81-.17,2.14,2.14,0,0,1,.79.14,1.45,1.45,0,0,1,.57.39,1.65,1.65,0,0,1,.35.59A2.17,2.17,0,0,1,80.76,151.12Zm-1-.14a1.4,1.4,0,0,0-.06-.43,1.09,1.09,0,0,0-.18-.3.8.8,0,0,0-.27-.18.87.87,0,0,0-.94.2A1.13,1.13,0,0,0,78,151Z"/><path class="d" d="M81.18,155.22v-.79h4.63v.79Z"/><path class="d" d="M89,153.54l0-.62a3.84,3.84,0,0,1-.27.29,1.7,1.7,0,0,1-.3.23,1.83,1.83,0,0,1-.35.14,1.62,1.62,0,0,1-.4,0,1.4,1.4,0,0,1-.66-.15,1.38,1.38,0,0,1-.48-.42,2,2,0,0,1-.3-.66,3.43,3.43,0,0,1-.1-.88,2.71,2.71,0,0,1,.16-1,1.84,1.84,0,0,1,.45-.7,1.77,1.77,0,0,1,.68-.42,2.67,2.67,0,0,1,.86-.13l.32,0,.28,0v-1.63h1v5.82Zm-1.84-2.06a3.25,3.25,0,0,0,0,.59,1.24,1.24,0,0,0,.14.4.57.57,0,0,0,.23.23.6.6,0,0,0,.3.07.72.72,0,0,0,.49-.21,3.2,3.2,0,0,0,.49-.56v-1.83a1.77,1.77,0,0,0-.29-.07l-.36,0a.93.93,0,0,0-.76.38,1.21,1.21,0,0,0-.22.44A2.17,2.17,0,0,0,87.18,151.48Z"/><path class="d" d="M94.66,151.12v.27c0,.11,0,.21,0,.31H91.89a1.48,1.48,0,0,0,.08.49,1.09,1.09,0,0,0,.24.35,1.12,1.12,0,0,0,.37.21,1.51,1.51,0,0,0,.48.08,5.13,5.13,0,0,0,.65-.05,5,5,0,0,0,.73-.15v.79l-.35.09-.39.06-.4.05h-.39a2.58,2.58,0,0,1-.86-.14,1.66,1.66,0,0,1-1-1.05,2.56,2.56,0,0,1-.14-.91,2.75,2.75,0,0,1,.14-.93,2.13,2.13,0,0,1,.39-.71,1.65,1.65,0,0,1,.62-.46,2,2,0,0,1,.81-.17,2.14,2.14,0,0,1,.79.14,1.45,1.45,0,0,1,.57.39,1.52,1.52,0,0,1,.35.59A2.17,2.17,0,0,1,94.66,151.12Zm-1-.14a1.4,1.4,0,0,0-.06-.43.75.75,0,0,0-.18-.3.68.68,0,0,0-.26-.18.88.88,0,0,0-.33-.06.82.82,0,0,0-.62.26,1.13,1.13,0,0,0-.29.71Z"/><path class="d" d="M99.1,153.49a3.41,3.41,0,0,1-.54.1,3.32,3.32,0,0,1-.53,0,2.5,2.5,0,0,1-.71-.09,1.1,1.1,0,0,1-.49-.26,1.06,1.06,0,0,1-.29-.45,2.08,2.08,0,0,1-.09-.65v-2H95.32v-.79h1.13v-1.07l1-.26v1.33H99.1v.79H97.48v2a.77.77,0,0,0,.16.54.69.69,0,0,0,.55.19,3.58,3.58,0,0,0,.48,0l.43-.1Z"/><path class="d" d="M103.93,151.12c0,.07,0,.16,0,.27a3,3,0,0,1,0,.31h-2.74a1.26,1.26,0,0,0,.08.49,1.09,1.09,0,0,0,.24.35,1.12,1.12,0,0,0,.37.21,1.42,1.42,0,0,0,.48.08,5.4,5.4,0,0,0,1.37-.2v.79l-.35.09-.38.06-.4.05h-.39a2.54,2.54,0,0,1-.86-.14,1.62,1.62,0,0,1-.64-.4,1.72,1.72,0,0,1-.41-.65,2.82,2.82,0,0,1-.13-.91,3,3,0,0,1,.13-.93,2.34,2.34,0,0,1,.4-.71,1.65,1.65,0,0,1,.62-.46,1.92,1.92,0,0,1,.81-.17,2.14,2.14,0,0,1,.79.14,1.45,1.45,0,0,1,.57.39,1.65,1.65,0,0,1,.35.59A2.17,2.17,0,0,1,103.93,151.12Zm-1-.14a1.4,1.4,0,0,0-.06-.43,1.09,1.09,0,0,0-.18-.3.8.8,0,0,0-.27-.18.87.87,0,0,0-.94.2,1.13,1.13,0,0,0-.29.71Z"/><path class="d" d="M108.3,153.38a3.91,3.91,0,0,1-.61.17,3.52,3.52,0,0,1-.66.06,2.72,2.72,0,0,1-.89-.14,1.78,1.78,0,0,1-.68-.4,1.87,1.87,0,0,1-.42-.66,2.87,2.87,0,0,1-.14-.92,2.45,2.45,0,0,1,.16-.91,1.9,1.9,0,0,1,.44-.69,2.11,2.11,0,0,1,.7-.45,2.57,2.57,0,0,1,.9-.15,4.36,4.36,0,0,1,.68,0,4.24,4.24,0,0,1,.5.11v1a2.39,2.39,0,0,0-.55-.2,2.34,2.34,0,0,0-.57-.07,1.35,1.35,0,0,0-.5.09,1,1,0,0,0-.37.27,1.09,1.09,0,0,0-.23.41,1.8,1.8,0,0,0,0,1.06,1.13,1.13,0,0,0,.25.41.9.9,0,0,0,.38.25,1.3,1.3,0,0,0,.49.09,1.37,1.37,0,0,0,.28,0l.29-.05.29-.08.26-.1Z"/><path class="d" d="M113,153.49a3.41,3.41,0,0,1-.54.1,3.32,3.32,0,0,1-.53,0,2.5,2.5,0,0,1-.71-.09,1.16,1.16,0,0,1-.49-.26,1.06,1.06,0,0,1-.29-.45,2.08,2.08,0,0,1-.09-.65v-2h-1.12v-.79h1.12v-1.07l1-.26v1.33H113v.79h-1.62v2a.77.77,0,0,0,.16.54.69.69,0,0,0,.55.19,3.89,3.89,0,0,0,.49,0,3.72,3.72,0,0,0,.42-.1Z"/><path class="d" d="M113.62,155.22v-.79h4.63v.79Z"/><path class="d" d="M121.32,153.54v-2.73q0-.69-.51-.69a.72.72,0,0,0-.49.21,3.15,3.15,0,0,0-.49.56v2.65h-1v-4.19h.87l0,.62a2.43,2.43,0,0,1,.26-.29,1.29,1.29,0,0,1,.3-.22,1.37,1.37,0,0,1,.35-.15,1.7,1.7,0,0,1,.41-.05,1.36,1.36,0,0,1,.56.11,1.08,1.08,0,0,1,.4.3,1.12,1.12,0,0,1,.24.46,2.23,2.23,0,0,1,.08.6v2.81Z"/><path class="d" d="M127.22,151.41a2.67,2.67,0,0,1-.14.91,1.94,1.94,0,0,1-.4.7,1.89,1.89,0,0,1-.65.45,2.14,2.14,0,0,1-.87.16,2.37,2.37,0,0,1-.83-.14,1.62,1.62,0,0,1-.62-.4,1.81,1.81,0,0,1-.39-.68,3.13,3.13,0,0,1,0-1.85,2,2,0,0,1,.41-.69,1.89,1.89,0,0,1,.65-.45,2.31,2.31,0,0,1,.86-.16,2.42,2.42,0,0,1,.84.14,1.64,1.64,0,0,1,.62.41,1.85,1.85,0,0,1,.39.67A2.94,2.94,0,0,1,127.22,151.41Zm-1,0a1.57,1.57,0,0,0-.25-1,.83.83,0,0,0-.72-.33,1,1,0,0,0-.45.1.92.92,0,0,0-.3.29,1.38,1.38,0,0,0-.18.41,2.76,2.76,0,0,0,0,.51,1.54,1.54,0,0,0,.26,1,.88.88,0,0,0,.72.33.83.83,0,0,0,.74-.38,1.6,1.6,0,0,0,.17-.42A2.18,2.18,0,0,0,126.18,151.44Z"/><path class="d" d="M130.72,153.54l0-.62a2.57,2.57,0,0,1-.28.29,1.7,1.7,0,0,1-.3.23,1.73,1.73,0,0,1-.34.14,1.68,1.68,0,0,1-.4,0,1.4,1.4,0,0,1-.66-.15,1.33,1.33,0,0,1-.49-.42,1.81,1.81,0,0,1-.29-.66,3.42,3.42,0,0,1-.11-.88,2.93,2.93,0,0,1,.16-1,1.75,1.75,0,0,1,.46-.7,1.77,1.77,0,0,1,.68-.42,2.63,2.63,0,0,1,.86-.13l.31,0,.29,0v-1.63h1v5.82Zm-1.83-2.06a3.34,3.34,0,0,0,0,.59,1.24,1.24,0,0,0,.14.4.63.63,0,0,0,.23.23.64.64,0,0,0,.31.07.74.74,0,0,0,.49-.21,3.67,3.67,0,0,0,.49-.56v-1.83a1.67,1.67,0,0,0-.3-.07,2.07,2.07,0,0,0-.35,0,.92.92,0,0,0-.44.1.88.88,0,0,0-.33.28,1.38,1.38,0,0,0-.21.44A2.17,2.17,0,0,0,128.89,151.48Z"/><path class="d" d="M136.37,151.12c0,.07,0,.16,0,.27a3,3,0,0,1,0,.31h-2.75a1.26,1.26,0,0,0,.09.49.85.85,0,0,0,.24.35,1,1,0,0,0,.37.21,1.42,1.42,0,0,0,.48.08,5.4,5.4,0,0,0,1.37-.2v.79l-.35.09-.39.06-.39.05h-.4a2.52,2.52,0,0,1-.85-.14,1.62,1.62,0,0,1-.64-.4,1.72,1.72,0,0,1-.41-.65,2.81,2.81,0,0,1-.14-.91,3,3,0,0,1,.14-.93,2.34,2.34,0,0,1,.4-.71,1.58,1.58,0,0,1,.62-.46,1.92,1.92,0,0,1,.81-.17,2.14,2.14,0,0,1,.79.14,1.61,1.61,0,0,1,.57.39,1.65,1.65,0,0,1,.35.59A2.17,2.17,0,0,1,136.37,151.12Zm-1-.14a1.4,1.4,0,0,0-.06-.43,1.09,1.09,0,0,0-.18-.3.8.8,0,0,0-.27-.18.87.87,0,0,0-.32-.06.82.82,0,0,0-.62.26,1.13,1.13,0,0,0-.29.71Z"/><path class="c" d="M247.74,135.66c23.88,0,43.24,6.49,43.24,14.5s-19.36,14.49-43.24,14.49-43.25-6.49-43.25-14.49S223.85,135.66,247.74,135.66Z"/><path class="d" d="M209.62,153.24h-1l2.88-6.7h1Z"/><path class="d" d="M217,151.12a1.09,1.09,0,0,1-.16.61,1.1,1.1,0,0,1-.42.41,1.62,1.62,0,0,1-.59.23,3.08,3.08,0,0,1-.68.08,7,7,0,0,1-.83,0c-.24,0-.48-.07-.7-.12v-.91a3.36,3.36,0,0,0,.77.23,3.88,3.88,0,0,0,.73.08,1.15,1.15,0,0,0,.59-.13.38.38,0,0,0,.2-.33.34.34,0,0,0-.2-.32,1.38,1.38,0,0,0-.32-.15,5.13,5.13,0,0,0-.54-.17,4.8,4.8,0,0,1-.54-.19,1.58,1.58,0,0,1-.38-.26.93.93,0,0,1-.23-.35,1.25,1.25,0,0,1-.08-.45,1.07,1.07,0,0,1,.12-.49,1,1,0,0,1,.34-.39,1.51,1.51,0,0,1,.57-.27,2.78,2.78,0,0,1,.8-.1,4.9,4.9,0,0,1,.7,0l.54.09V149a3.8,3.8,0,0,0-.67-.16,4.46,4.46,0,0,0-.63-.05,1,1,0,0,0-.49.11.34.34,0,0,0-.19.31.33.33,0,0,0,0,.17.31.31,0,0,0,.14.14,1.8,1.8,0,0,0,.31.15l.51.16a4.55,4.55,0,0,1,.61.22,1.4,1.4,0,0,1,.4.27,1,1,0,0,1,.22.34A1.4,1.4,0,0,1,217,151.12Z"/><path class="d" d="M221.64,152.31l-.55.1a5.13,5.13,0,0,1-.52,0,2.45,2.45,0,0,1-.71-.09,1.39,1.39,0,0,1-.5-.26,1.17,1.17,0,0,1-.29-.45A2.15,2.15,0,0,1,219,151v-2h-1.12v-.78H219V147.1l1-.27v1.34h1.63V149H220v2a.83.83,0,0,0,.16.54.74.74,0,0,0,.56.18,2.59,2.59,0,0,0,.48,0l.43-.09Z"/><path class="d" d="M226.59,150.23a2.83,2.83,0,0,1-.14.9,2,2,0,0,1-.41.7,1.62,1.62,0,0,1-.64.45,2.23,2.23,0,0,1-.88.17,2.41,2.41,0,0,1-.83-.14,1.64,1.64,0,0,1-.62-.41,1.77,1.77,0,0,1-.39-.67,3,3,0,0,1-.13-.95,2.58,2.58,0,0,1,.14-.9,2.1,2.1,0,0,1,.4-.7,1.83,1.83,0,0,1,.65-.44,2.21,2.21,0,0,1,.87-.16,2.16,2.16,0,0,1,.83.14,1.47,1.47,0,0,1,.62.41,1.77,1.77,0,0,1,.39.67A2.93,2.93,0,0,1,226.59,150.23Zm-1.05,0a1.67,1.67,0,0,0-.24-1,.88.88,0,0,0-.73-.32.87.87,0,0,0-.44.1.84.84,0,0,0-.31.28,1.13,1.13,0,0,0-.17.42,2.1,2.1,0,0,0-.06.51,1.62,1.62,0,0,0,.26,1,.88.88,0,0,0,.72.33,1,1,0,0,0,.44-.1.89.89,0,0,0,.3-.28,1.11,1.11,0,0,0,.17-.43A2.12,2.12,0,0,0,225.54,150.25Z"/><path class="d" d="M231.22,150.19a2.7,2.7,0,0,1-.17,1,1.8,1.8,0,0,1-1.13,1.11,2.67,2.67,0,0,1-.86.13,1.72,1.72,0,0,1-.32,0l-.28-.05V154h-1v-5.81h.86l0,.62a2.55,2.55,0,0,1,.26-.3,2.1,2.1,0,0,1,.3-.22,1.35,1.35,0,0,1,.35-.14,1.7,1.7,0,0,1,.41,0,1.4,1.4,0,0,1,.66.15,1.38,1.38,0,0,1,.48.42,1.82,1.82,0,0,1,.3.66A3.36,3.36,0,0,1,231.22,150.19Zm-1.06,0a2.54,2.54,0,0,0,0-.59,1.24,1.24,0,0,0-.14-.4.7.7,0,0,0-.22-.23.64.64,0,0,0-.31-.07.77.77,0,0,0-.49.2,4.16,4.16,0,0,0-.49.56v1.83a1.71,1.71,0,0,0,.29.08l.36,0a1,1,0,0,0,.43-.09,1.13,1.13,0,0,0,.34-.28,1.34,1.34,0,0,0,.21-.45A2.1,2.1,0,0,0,230.16,150.23Z"/><path class="d" d="M231.52,154v-.8h4.63v.8Z"/><path class="d" d="M239.35,152.35l0-.62q-.14.17-.27.3a2.86,2.86,0,0,1-.3.22,1.51,1.51,0,0,1-.35.14,1.25,1.25,0,0,1-.4.06,1.4,1.4,0,0,1-.66-.15,1.51,1.51,0,0,1-.49-.42,2.16,2.16,0,0,1-.29-.67,3.34,3.34,0,0,1-.11-.87,2.72,2.72,0,0,1,.17-1,1.76,1.76,0,0,1,.45-.7,1.88,1.88,0,0,1,.68-.41,2.63,2.63,0,0,1,.86-.13,1.77,1.77,0,0,1,.32,0l.28,0v-1.63h1v5.81Zm-1.83-2.06a3.34,3.34,0,0,0,0,.59,1.42,1.42,0,0,0,.14.4.56.56,0,0,0,.23.23.64.64,0,0,0,.31.07.72.72,0,0,0,.49-.2,5,5,0,0,0,.49-.56V149a1.6,1.6,0,0,0-.3-.08l-.35,0a1,1,0,0,0-.44.09,1.23,1.23,0,0,0-.33.28,1.34,1.34,0,0,0-.21.45A2.1,2.1,0,0,0,237.52,150.29Z"/><path class="d" d="M245,149.94c0,.07,0,.16,0,.27a3,3,0,0,1,0,.31h-2.74a1.21,1.21,0,0,0,.08.48,1,1,0,0,0,.24.35.91.91,0,0,0,.37.22,1.43,1.43,0,0,0,.48.07,5,5,0,0,0,.65,0,7.27,7.27,0,0,0,.72-.16v.8l-.35.08-.38.07-.4,0-.39,0a2.54,2.54,0,0,1-.86-.14,1.74,1.74,0,0,1-.64-.4,1.85,1.85,0,0,1-.41-.66,2.75,2.75,0,0,1-.13-.9,3,3,0,0,1,.13-.93,2.28,2.28,0,0,1,.4-.72,1.76,1.76,0,0,1,.62-.46,1.92,1.92,0,0,1,.81-.16,2,2,0,0,1,.79.14,1.54,1.54,0,0,1,.57.38,1.74,1.74,0,0,1,.35.59A2.27,2.27,0,0,1,245,149.94Zm-1-.15a1.44,1.44,0,0,0-.06-.43,1.09,1.09,0,0,0-.18-.3.65.65,0,0,0-.27-.17.83.83,0,0,0-.32-.06.81.81,0,0,0-.62.25,1.18,1.18,0,0,0-.29.71Z"/><path class="d" d="M249.44,152.31l-.55.1a4.92,4.92,0,0,1-.52,0,2.5,2.5,0,0,1-.71-.09,1.34,1.34,0,0,1-.49-.26,1.06,1.06,0,0,1-.29-.45,2.15,2.15,0,0,1-.09-.66v-2h-1.13v-.78h1.13V147.1l1-.27v1.34h1.63V149h-1.63v2a.78.78,0,0,0,.17.54.71.71,0,0,0,.55.18,2.52,2.52,0,0,0,.48,0l.43-.09Z"/><path class="d" d="M254.27,149.94c0,.07,0,.16,0,.27a3,3,0,0,1,0,.31h-2.75a1.21,1.21,0,0,0,.09.48.79.79,0,0,0,.24.35.91.91,0,0,0,.37.22,1.43,1.43,0,0,0,.48.07,5,5,0,0,0,.65,0,7.27,7.27,0,0,0,.72-.16v.8l-.35.08-.39.07-.39,0-.4,0a2.52,2.52,0,0,1-.85-.14,1.74,1.74,0,0,1-.64-.4,1.85,1.85,0,0,1-.41-.66,2.74,2.74,0,0,1-.14-.9,3,3,0,0,1,.14-.93,2.28,2.28,0,0,1,.4-.72,1.68,1.68,0,0,1,.62-.46,1.92,1.92,0,0,1,.81-.16,2,2,0,0,1,.79.14,1.73,1.73,0,0,1,.57.38,1.74,1.74,0,0,1,.35.59A2.27,2.27,0,0,1,254.27,149.94Zm-1-.15a1.18,1.18,0,0,0-.07-.43.87.87,0,0,0-.17-.3.65.65,0,0,0-.27-.17.87.87,0,0,0-.32-.06.81.81,0,0,0-.62.25,1.18,1.18,0,0,0-.29.71Z"/><path class="d" d="M258.64,152.19a3.28,3.28,0,0,1-.61.18,3.53,3.53,0,0,1-.66,0,2.79,2.79,0,0,1-.9-.13,2,2,0,0,1-.67-.4,1.82,1.82,0,0,1-.42-.67,2.55,2.55,0,0,1-.15-.91,2.59,2.59,0,0,1,.16-.91,2.21,2.21,0,0,1,.45-.7,1.9,1.9,0,0,1,.69-.44,2.59,2.59,0,0,1,.91-.16,4.21,4.21,0,0,1,.68.05,3.1,3.1,0,0,1,.5.11v1a2.56,2.56,0,0,0-1.12-.27,1.35,1.35,0,0,0-.5.1,1,1,0,0,0-.37.26,1.11,1.11,0,0,0-.24.41,1.78,1.78,0,0,0-.08.53,1.53,1.53,0,0,0,.09.54,1.22,1.22,0,0,0,.24.4,1.08,1.08,0,0,0,.38.26,1.35,1.35,0,0,0,.5.09l.28,0,.29-.05.29-.08.26-.1Z"/><path class="d" d="M263.34,152.31l-.55.1a4.73,4.73,0,0,1-.52,0,2.5,2.5,0,0,1-.71-.09,1.34,1.34,0,0,1-.49-.26,1.06,1.06,0,0,1-.29-.45,2.15,2.15,0,0,1-.09-.66v-2h-1.13v-.78h1.13V147.1l1-.27v1.34h1.62V149h-1.62v2a.77.77,0,0,0,.16.54.71.71,0,0,0,.55.18,2.45,2.45,0,0,0,.48,0l.43-.09Z"/><path class="d" d="M264,154v-.8h4.63v.8Z"/><path class="d" d="M271.66,152.35v-2.72c0-.46-.17-.69-.52-.69a.73.73,0,0,0-.48.2,3.56,3.56,0,0,0-.49.56v2.65h-1v-4.18H270l0,.62q.13-.16.27-.3a1.66,1.66,0,0,1,.3-.22,1.28,1.28,0,0,1,.34-.14,1.86,1.86,0,0,1,.42,0,1.4,1.4,0,0,1,.56.1,1.08,1.08,0,0,1,.4.3,1.19,1.19,0,0,1,.24.46,2.23,2.23,0,0,1,.08.6v2.81Z"/><path class="d" d="M277.56,150.23a2.83,2.83,0,0,1-.14.9,2,2,0,0,1-.4.7,1.65,1.65,0,0,1-.65.45,2.14,2.14,0,0,1-.87.17,2.37,2.37,0,0,1-.83-.14,1.57,1.57,0,0,1-.62-.41,1.77,1.77,0,0,1-.39-.67,2.75,2.75,0,0,1-.14-.95,2.83,2.83,0,0,1,.14-.9,2.12,2.12,0,0,1,.41-.7,1.74,1.74,0,0,1,.65-.44,2.13,2.13,0,0,1,.86-.16,2.25,2.25,0,0,1,.84.14,1.53,1.53,0,0,1,.62.41,1.77,1.77,0,0,1,.39.67A2.94,2.94,0,0,1,277.56,150.23Zm-1,0a1.66,1.66,0,0,0-.25-1,.85.85,0,0,0-.72-.32.88.88,0,0,0-.45.1,1,1,0,0,0-.31.28,1.6,1.6,0,0,0-.17.42,2.1,2.1,0,0,0-.06.51,1.56,1.56,0,0,0,.27,1,.86.86,0,0,0,.72.33.94.94,0,0,0,.43-.1.84.84,0,0,0,.31-.28,1.54,1.54,0,0,0,.17-.43A2.12,2.12,0,0,0,276.52,150.25Z"/><path class="d" d="M281.06,152.35l0-.62a1.93,1.93,0,0,1-.27.3,1.66,1.66,0,0,1-.3.22,1.28,1.28,0,0,1-.34.14,1.31,1.31,0,0,1-.41.06,1.45,1.45,0,0,1-.66-.15,1.38,1.38,0,0,1-.48-.42,2.17,2.17,0,0,1-.3-.67,3.35,3.35,0,0,1-.1-.87,2.72,2.72,0,0,1,.16-1,2,2,0,0,1,.45-.7,1.92,1.92,0,0,1,.69-.41,2.63,2.63,0,0,1,.86-.13,1.62,1.62,0,0,1,.31,0l.28,0v-1.63h1v5.81Zm-1.84-2.06a3.25,3.25,0,0,0,0,.59,1.16,1.16,0,0,0,.14.4.51.51,0,0,0,.23.23.62.62,0,0,0,.31.07.68.68,0,0,0,.48-.2,3.56,3.56,0,0,0,.49-.56V149a1.48,1.48,0,0,0-.29-.08l-.35,0a1,1,0,0,0-.44.09,1,1,0,0,0-.33.28,1.34,1.34,0,0,0-.21.45A2.08,2.08,0,0,0,279.22,150.29Z"/><path class="d" d="M286.71,149.94c0,.07,0,.16,0,.27a3,3,0,0,1,0,.31h-2.75a1.21,1.21,0,0,0,.09.48.86.86,0,0,0,.23.35,1.07,1.07,0,0,0,.37.22,1.51,1.51,0,0,0,.48.07,5.18,5.18,0,0,0,.66,0,7.27,7.27,0,0,0,.72-.16v.8l-.35.08-.39.07-.4,0-.39,0a2.48,2.48,0,0,1-.85-.14,1.78,1.78,0,0,1-.65-.4,1.83,1.83,0,0,1-.4-.66,2.74,2.74,0,0,1-.14-.9,3,3,0,0,1,.14-.93,2.1,2.1,0,0,1,.4-.72,1.68,1.68,0,0,1,.62-.46,2.18,2.18,0,0,1,1.59,0,1.67,1.67,0,0,1,.58.38,1.74,1.74,0,0,1,.35.59A2.27,2.27,0,0,1,286.71,149.94Zm-1-.15a1,1,0,0,0-.06-.43.75.75,0,0,0-.18-.3.56.56,0,0,0-.26-.17.87.87,0,0,0-.32-.06.8.8,0,0,0-.62.25,1.13,1.13,0,0,0-.29.71Z"/><path class="e" d="M424.41,131.65c23.88,0,43.24,6.49,43.24,14.5s-19.36,14.49-43.24,14.49-43.25-6.49-43.25-14.49S400.52,131.65,424.41,131.65Z"/><path class="b" d="M414.09,149.22h-1l2.87-6.7h1Z"/><path class="b" d="M420.52,148.34v-2.73c0-.46-.17-.68-.51-.68a.72.72,0,0,0-.49.2,5,5,0,0,0-.49.56v2.65h-1v-4.18h.87l0,.61a3.71,3.71,0,0,1,.27-.29,1.48,1.48,0,0,1,.29-.22,2.17,2.17,0,0,1,.35-.15,1.76,1.76,0,0,1,.42,0,1.4,1.4,0,0,1,.56.1,1.17,1.17,0,0,1,.4.3,1.43,1.43,0,0,1,.24.46,2.23,2.23,0,0,1,.08.6v2.81Z"/><path class="b" d="M426.43,146.21a2.94,2.94,0,0,1-.14.91,2.12,2.12,0,0,1-.41.7,1.85,1.85,0,0,1-.64.45,2.21,2.21,0,0,1-.87.16,2.47,2.47,0,0,1-.84-.13,1.64,1.64,0,0,1-.62-.41,1.77,1.77,0,0,1-.39-.67,3,3,0,0,1-.13-.95,2.58,2.58,0,0,1,.14-.9,1.8,1.8,0,0,1,.41-.7,1.85,1.85,0,0,1,.64-.45,2.41,2.41,0,0,1,.87-.15,2.37,2.37,0,0,1,.83.13,1.65,1.65,0,0,1,1,1.09A2.82,2.82,0,0,1,426.43,146.21Zm-1.05,0a1.67,1.67,0,0,0-.24-1,.86.86,0,0,0-.72-.33.88.88,0,0,0-.45.11.84.84,0,0,0-.31.28,1.13,1.13,0,0,0-.17.42,2.1,2.1,0,0,0-.06.51,1.53,1.53,0,0,0,.27,1,1,1,0,0,0,1.15.23.8.8,0,0,0,.3-.28,1.13,1.13,0,0,0,.17-.42A2.12,2.12,0,0,0,425.38,146.24Z"/><path class="b" d="M429.93,148.34l0-.62a3.84,3.84,0,0,1-.27.29,1.7,1.7,0,0,1-.3.23,1.35,1.35,0,0,1-.35.14,1.25,1.25,0,0,1-.4.05,1.4,1.4,0,0,1-.66-.15,1.28,1.28,0,0,1-.48-.42,2,2,0,0,1-.3-.66,3.35,3.35,0,0,1-.1-.87,2.72,2.72,0,0,1,.16-1,1.92,1.92,0,0,1,.45-.7,1.75,1.75,0,0,1,.68-.41,2.67,2.67,0,0,1,.86-.14l.32,0a2,2,0,0,1,.28.06v-1.64h1v5.82Zm-1.84-2.06a3.25,3.25,0,0,0,.05.59,1,1,0,0,0,.14.4.56.56,0,0,0,.23.23.6.6,0,0,0,.3.07.75.75,0,0,0,.49-.2,3.74,3.74,0,0,0,.49-.57V145a1.11,1.11,0,0,0-.29-.08,2.19,2.19,0,0,0-.36,0,1,1,0,0,0-.43.1,1,1,0,0,0-.33.28,1.21,1.21,0,0,0-.22.44A2.65,2.65,0,0,0,428.09,146.28Z"/><path class="b" d="M435.57,145.93v.26c0,.11,0,.22,0,.31H432.8a1.44,1.44,0,0,0,.08.49,1.09,1.09,0,0,0,.24.35,1.14,1.14,0,0,0,.37.22,1.73,1.73,0,0,0,.48.07,5.13,5.13,0,0,0,.65,0,5,5,0,0,0,.73-.15v.8l-.35.08-.39.06-.4,0h-.39a2.55,2.55,0,0,1-.86-.13,1.83,1.83,0,0,1-.64-.4,1.7,1.7,0,0,1-.4-.66,2.52,2.52,0,0,1-.14-.91,2.65,2.65,0,0,1,.14-.92,2.08,2.08,0,0,1,.39-.72,1.76,1.76,0,0,1,.62-.46,2,2,0,0,1,.81-.16,2.15,2.15,0,0,1,.79.13,1.56,1.56,0,0,1,.57.39,1.52,1.52,0,0,1,.35.59A2.19,2.19,0,0,1,435.57,145.93Zm-1-.15a1.4,1.4,0,0,0-.06-.43.75.75,0,0,0-.18-.3.76.76,0,0,0-.26-.18.88.88,0,0,0-.33-.06.82.82,0,0,0-.62.26,1.16,1.16,0,0,0-.29.71Z"/><path class="c" d="M172.27,321.45c23.88,0,43.25,6.49,43.25,14.49s-19.37,14.49-43.25,14.49S129,343.94,129,335.94,148.38,321.45,172.27,321.45Z"/><path class="d" d="M143.42,339h-1l2.88-6.7h1Z"/><path class="d" d="M150.05,335.58a2.25,2.25,0,0,0,0-.4.66.66,0,0,0-.1-.27.35.35,0,0,0-.16-.16.56.56,0,0,0-.23-.05.77.77,0,0,0-.46.18,2.84,2.84,0,0,0-.52.61v2.64h-1V334h.91l0,.61a2.26,2.26,0,0,1,.23-.29,1.58,1.58,0,0,1,.29-.22,1.35,1.35,0,0,1,.35-.14,1.88,1.88,0,0,1,.43-.05,1.43,1.43,0,0,1,.56.11,1.07,1.07,0,0,1,.41.32,1.68,1.68,0,0,1,.25.54,2.85,2.85,0,0,1,.06.75Z"/><path class="d" d="M155.75,336a2.58,2.58,0,0,1-.14.9,1.85,1.85,0,0,1-1.05,1.16,2.33,2.33,0,0,1-.87.16,2.37,2.37,0,0,1-.83-.14,1.62,1.62,0,0,1-.62-.4,1.81,1.81,0,0,1-.39-.68,3,3,0,0,1-.14-.94,2.85,2.85,0,0,1,.14-.91,2,2,0,0,1,.41-.69,1.65,1.65,0,0,1,.65-.45,2.16,2.16,0,0,1,.86-.16,2.38,2.38,0,0,1,.84.14,1.64,1.64,0,0,1,.62.41,1.77,1.77,0,0,1,.39.67A2.94,2.94,0,0,1,155.75,336Zm-1,0a1.54,1.54,0,0,0-.25-1,.83.83,0,0,0-.72-.33.93.93,0,0,0-.45.1.89.89,0,0,0-.3.28,1.33,1.33,0,0,0-.18.42,2.76,2.76,0,0,0-.05.51,1.6,1.6,0,0,0,.26,1,.88.88,0,0,0,.72.33.83.83,0,0,0,.74-.38,1.6,1.6,0,0,0,.17-.42A2.26,2.26,0,0,0,154.71,336Z"/><path class="d" d="M160.38,336a2.71,2.71,0,0,1-.16,1,1.92,1.92,0,0,1-.45.7,1.79,1.79,0,0,1-.69.41,2.63,2.63,0,0,1-.86.14,5.62,5.62,0,0,1-.85-.07q-.39-.08-.75-.18v-5.64h1v1.36l0,.83a2,2,0,0,1,.53-.47,1.44,1.44,0,0,1,.73-.18,1.4,1.4,0,0,1,.66.15,1.38,1.38,0,0,1,.48.42,2,2,0,0,1,.3.66A3.38,3.38,0,0,1,160.38,336Zm-1,0a3.25,3.25,0,0,0-.05-.59,1.34,1.34,0,0,0-.14-.4.63.63,0,0,0-.23-.23.73.73,0,0,0-.3-.07.72.72,0,0,0-.49.21,2.83,2.83,0,0,0-.49.56v1.82a1.48,1.48,0,0,0,.29.08,2.19,2.19,0,0,0,.36,0,1,1,0,0,0,.43-.1A1,1,0,0,0,159,337a1.21,1.21,0,0,0,.22-.44A2.17,2.17,0,0,0,159.33,336Z"/><path class="d" d="M165,336a2.58,2.58,0,0,1-.14.9,1.92,1.92,0,0,1-.4.7,1.79,1.79,0,0,1-.65.46,2.33,2.33,0,0,1-.87.16,2.37,2.37,0,0,1-.83-.14,1.55,1.55,0,0,1-.62-.4,1.81,1.81,0,0,1-.39-.68,3,3,0,0,1-.14-.94,2.85,2.85,0,0,1,.14-.91,2,2,0,0,1,.41-.69,1.65,1.65,0,0,1,.65-.45,2.13,2.13,0,0,1,.86-.16,2.47,2.47,0,0,1,.84.14,1.64,1.64,0,0,1,.62.41,1.77,1.77,0,0,1,.39.67A2.94,2.94,0,0,1,165,336Zm-1,0a1.61,1.61,0,0,0-.25-1,.83.83,0,0,0-.72-.33.88.88,0,0,0-.45.1.89.89,0,0,0-.3.28,1.33,1.33,0,0,0-.18.42,2.1,2.1,0,0,0-.05.51,1.54,1.54,0,0,0,.26,1,.86.86,0,0,0,.72.33.83.83,0,0,0,.74-.38,1.6,1.6,0,0,0,.17-.42A2.26,2.26,0,0,0,164,336Z"/><path class="d" d="M169.34,338.09a4.86,4.86,0,0,1-.55.1,4.92,4.92,0,0,1-.52,0,2.45,2.45,0,0,1-.71-.09,1.32,1.32,0,0,1-.5-.26,1,1,0,0,1-.28-.45,1.85,1.85,0,0,1-.1-.65v-2h-1.12V334h1.12v-1.07l1-.27V334h1.63v.78h-1.63v2a.78.78,0,0,0,.17.54.71.71,0,0,0,.55.18,2.59,2.59,0,0,0,.48,0,4,4,0,0,0,.43-.09Z"/><path class="d" d="M170,339.82V339h4.64v.79Z"/><path class="d" d="M178.54,338a3.28,3.28,0,0,1-.61.18,3.52,3.52,0,0,1-.66.06,2.79,2.79,0,0,1-.9-.14,1.74,1.74,0,0,1-.67-.4,1.87,1.87,0,0,1-.42-.66,2.78,2.78,0,0,1,0-1.83,2.06,2.06,0,0,1,.45-.69,1.92,1.92,0,0,1,.69-.45,2.57,2.57,0,0,1,.9-.15,4.49,4.49,0,0,1,.69,0,3.1,3.1,0,0,1,.5.11v1a2.38,2.38,0,0,0-.55-.19,2.34,2.34,0,0,0-.57-.07,1.31,1.31,0,0,0-.5.09,1.12,1.12,0,0,0-.38.26,1.36,1.36,0,0,0-.23.41,1.78,1.78,0,0,0-.08.53,1.53,1.53,0,0,0,.09.54,1.27,1.27,0,0,0,.24.41,1.19,1.19,0,0,0,.38.25,1.35,1.35,0,0,0,.5.09l.28,0,.29-.05.29-.08.26-.1Z"/><path class="d" d="M183.56,336a2.83,2.83,0,0,1-.14.9,1.93,1.93,0,0,1-.41.7,1.75,1.75,0,0,1-.64.46,2.41,2.41,0,0,1-.87.16,2.47,2.47,0,0,1-.84-.14,1.62,1.62,0,0,1-.62-.4,1.81,1.81,0,0,1-.39-.68,3,3,0,0,1-.13-.94,2.6,2.6,0,0,1,.14-.91,1.84,1.84,0,0,1,.41-.69,1.62,1.62,0,0,1,.64-.45,2.21,2.21,0,0,1,.87-.16,2.37,2.37,0,0,1,.83.14,1.57,1.57,0,0,1,.62.41,1.77,1.77,0,0,1,.39.67A2.93,2.93,0,0,1,183.56,336Zm-1.05,0a1.61,1.61,0,0,0-.24-1,1,1,0,0,0-1.17-.23.84.84,0,0,0-.31.28,1.13,1.13,0,0,0-.17.42,2.1,2.1,0,0,0-.06.51,1.6,1.6,0,0,0,.26,1,.88.88,0,0,0,.72.33.87.87,0,0,0,.44-.1.89.89,0,0,0,.3-.28,1.13,1.13,0,0,0,.17-.42A2.26,2.26,0,0,0,182.51,336Z"/><path class="d" d="M186.92,338.13v-2.72q0-.69-.51-.69a.74.74,0,0,0-.49.21,3.2,3.2,0,0,0-.49.56v2.64h-1V334h.86l0,.62a1.84,1.84,0,0,1,.26-.29,2,2,0,0,1,.3-.23,1.35,1.35,0,0,1,.35-.14,1.7,1.7,0,0,1,.41-.05,1.36,1.36,0,0,1,.56.11,1,1,0,0,1,.4.29,1.19,1.19,0,0,1,.24.46,1.92,1.92,0,0,1,.08.61v2.8Z"/><path class="d" d="M192.51,338.09a4.86,4.86,0,0,1-.55.1,4.92,4.92,0,0,1-.52,0,2.45,2.45,0,0,1-.71-.09,1.32,1.32,0,0,1-.5-.26,1,1,0,0,1-.28-.45,1.85,1.85,0,0,1-.1-.65v-2h-1.12V334h1.12v-1.07l1-.27V334h1.63v.78h-1.63v2a.78.78,0,0,0,.17.54.71.71,0,0,0,.55.18,2.59,2.59,0,0,0,.48,0,4,4,0,0,0,.43-.09Z"/><path class="d" d="M197.46,336a2.83,2.83,0,0,1-.14.9,1.92,1.92,0,0,1-.4.7,1.88,1.88,0,0,1-.65.46,2.41,2.41,0,0,1-.87.16,2.37,2.37,0,0,1-.83-.14,1.58,1.58,0,0,1-.63-.4,1.81,1.81,0,0,1-.39-.68,3,3,0,0,1-.13-.94,2.85,2.85,0,0,1,.14-.91,1.84,1.84,0,0,1,.41-.69,1.59,1.59,0,0,1,.65-.45,2.13,2.13,0,0,1,.86-.16,2.37,2.37,0,0,1,.83.14,1.6,1.6,0,0,1,.63.41,1.77,1.77,0,0,1,.39.67A3.26,3.26,0,0,1,197.46,336Zm-1.05,0a1.61,1.61,0,0,0-.24-1,.83.83,0,0,0-.72-.33.88.88,0,0,0-.45.1.92.92,0,0,0-.31.28,1.32,1.32,0,0,0-.17.42,2.1,2.1,0,0,0-.06.51,1.54,1.54,0,0,0,.27,1,1,1,0,0,0,1.15.23.74.74,0,0,0,.3-.28,1.33,1.33,0,0,0,.18-.42A3,3,0,0,0,196.41,336Z"/><path class="d" d="M199.68,333.1H198.5v-.78h2.21v5h1.2v.78h-3.56v-.78h1.33Z"/><rect class="f" x="107.45" y="273.09" width="129.65" height="27.44"/><path class="d" d="M155,284.16h-1l2.87-6.7h1Z"/><path class="d" d="M162.32,283.11a3.28,3.28,0,0,1-.61.18,3.55,3.55,0,0,1-.67.06,2.77,2.77,0,0,1-.89-.14,1.81,1.81,0,0,1-.67-.4,1.87,1.87,0,0,1-.42-.66,2.78,2.78,0,0,1,0-1.83,2,2,0,0,1,1.14-1.14,2.59,2.59,0,0,1,.91-.15,4.36,4.36,0,0,1,.68,0,3.1,3.1,0,0,1,.5.11v1a2.38,2.38,0,0,0-.55-.19,2.34,2.34,0,0,0-.57-.07,1.31,1.31,0,0,0-.5.09,1.12,1.12,0,0,0-.38.26,1.36,1.36,0,0,0-.23.41,1.78,1.78,0,0,0-.08.53,1.53,1.53,0,0,0,.09.54,1.27,1.27,0,0,0,.24.41,1.19,1.19,0,0,0,.38.25,1.35,1.35,0,0,0,.5.09l.28,0,.29-.05.29-.08.26-.1Z"/><path class="d" d="M166.52,283.27v-2.84a2.35,2.35,0,0,0,0-.28.5.5,0,0,0,0-.19.27.27,0,0,0-.07-.12.18.18,0,0,0-.13,0,.34.34,0,0,0-.25.17,2.74,2.74,0,0,0-.28.59v2.71h-.86v-2.84a2.35,2.35,0,0,0,0-.28.84.84,0,0,0,0-.19.21.21,0,0,0-.08-.12.17.17,0,0,0-.13,0c-.07,0-.15.06-.24.17a3.2,3.2,0,0,0-.29.59v2.71h-.87v-4.18H164v.61a1.93,1.93,0,0,1,.19-.32,1,1,0,0,1,.19-.21.53.53,0,0,1,.22-.12.75.75,0,0,1,.26,0,.73.73,0,0,1,.54.18.82.82,0,0,1,.21.51,3,3,0,0,1,.19-.32,1.35,1.35,0,0,1,.2-.21.57.57,0,0,1,.23-.12.77.77,0,0,1,.27,0,.76.76,0,0,1,.67.32,1.63,1.63,0,0,1,.22.94v3Z"/><path class="d" d="M170.84,283.27l0-.61-.27.29a1.29,1.29,0,0,1-.3.22,2.07,2.07,0,0,1-.34.15,1.77,1.77,0,0,1-.41.05,1.4,1.4,0,0,1-.66-.15,1.38,1.38,0,0,1-.48-.42,2.07,2.07,0,0,1-.3-.67,3.35,3.35,0,0,1-.1-.87,2.76,2.76,0,0,1,.16-1,2,2,0,0,1,.45-.7,1.88,1.88,0,0,1,.68-.41,2.67,2.67,0,0,1,.86-.13l.32,0,.28,0v-1.63h1v5.81Zm-1.84-2a3.33,3.33,0,0,0,.05.59,1.34,1.34,0,0,0,.14.4.63.63,0,0,0,.23.23.74.74,0,0,0,.31.07.7.7,0,0,0,.48-.21,3.2,3.2,0,0,0,.49-.56v-1.83a1.77,1.77,0,0,0-.29-.07l-.36,0a.93.93,0,0,0-.76.38,1.2,1.2,0,0,0-.21.44A2.1,2.1,0,0,0,169,281.22Z"/><path class="d" d="M172.27,285v-.79h4.63V285Z"/><path class="d" d="M179.81,283.27h-1.15L177,279.09h1.12l.86,2.37.26.77.26-.73.88-2.41h1.07Z"/><path class="d" d="M185.75,280.86c0,.07,0,.16,0,.27s0,.21,0,.31H183a1.21,1.21,0,0,0,.08.48,1.13,1.13,0,0,0,.24.36,1.12,1.12,0,0,0,.37.21,1.42,1.42,0,0,0,.48.08,5.13,5.13,0,0,0,.65-.05,4.08,4.08,0,0,0,.72-.16v.8l-.35.09-.38.06-.4,0-.39,0a2.54,2.54,0,0,1-.86-.14,1.65,1.65,0,0,1-1-1.06,2.5,2.5,0,0,1-.14-.9,2.75,2.75,0,0,1,.14-.93,2.08,2.08,0,0,1,.39-.72,1.89,1.89,0,0,1,.62-.46,2.09,2.09,0,0,1,.81-.16,2.14,2.14,0,0,1,.79.14,1.54,1.54,0,0,1,.57.38,1.74,1.74,0,0,1,.35.59A2.27,2.27,0,0,1,185.75,280.86Zm-1-.14a1.35,1.35,0,0,0-.06-.43,1,1,0,0,0-.18-.3.76.76,0,0,0-.26-.18.92.92,0,0,0-.33-.06.81.81,0,0,0-.62.25,1.19,1.19,0,0,0-.29.72Z"/><path class="d" d="M188.09,278.24h-1.18v-.78h2.21v5h1.21v.78h-3.56v-.78h1.32Z"/><path class="b" d="M124.87,295v-7.63H127v.78h-1.24v6.07H127V295Z"/><path class="b" d="M132,289.94a1.14,1.14,0,0,1,.17.3,1.22,1.22,0,0,1,0,.32,1.49,1.49,0,0,1-.12.62,1.17,1.17,0,0,1-.34.45,1.47,1.47,0,0,1-.53.27,2,2,0,0,1-.67.1,1.77,1.77,0,0,1-.41-.05,1.11,1.11,0,0,1-.28-.1l-.12.16a.38.38,0,0,0,0,.19.31.31,0,0,0,0,.13.47.47,0,0,0,.09.12l.16.08a.59.59,0,0,0,.2,0l1,0a2.23,2.23,0,0,1,.6.08,1.23,1.23,0,0,1,.46.22.89.89,0,0,1,.3.34.94.94,0,0,1,.11.45,1.27,1.27,0,0,1-.13.55,1.22,1.22,0,0,1-.4.45,2,2,0,0,1-.66.3,3.21,3.21,0,0,1-.92.12,4.3,4.3,0,0,1-.87-.08,2.09,2.09,0,0,1-.6-.23.92.92,0,0,1-.34-.34,1,1,0,0,1-.11-.44.77.77,0,0,1,0-.27.7.7,0,0,1,.11-.23,1.24,1.24,0,0,1,.18-.22,1.52,1.52,0,0,1,.27-.22.75.75,0,0,1-.31-.3.73.73,0,0,1-.11-.38,1.09,1.09,0,0,1,0-.26,2.44,2.44,0,0,1,.1-.24,1.28,1.28,0,0,1,.14-.21,1.56,1.56,0,0,1,.16-.2,1.22,1.22,0,0,1-.35-.91A1.52,1.52,0,0,1,129,290a1.38,1.38,0,0,1,.35-.47,1.67,1.67,0,0,1,.53-.28,2.35,2.35,0,0,1,.67-.1l.35,0,.31.07h1.45v.73Zm-2.36,4a.38.38,0,0,0,.24.36,2,2,0,0,0,1.17.06.86.86,0,0,0,.32-.14.49.49,0,0,0,.18-.2.64.64,0,0,0,.05-.24.35.35,0,0,0-.05-.18.32.32,0,0,0-.15-.13.66.66,0,0,0-.21-.08l-.28,0H130a1.06,1.06,0,0,0-.19.16.53.53,0,0,0-.12.14.47.47,0,0,0-.06.15A.76.76,0,0,0,129.59,293.94Zm.17-3.35a.72.72,0,0,0,.19.53.74.74,0,0,0,.55.19.79.79,0,0,0,.32-.06.63.63,0,0,0,.23-.16.7.7,0,0,0,.13-.24.93.93,0,0,0,0-.29.69.69,0,0,0-.74-.74.66.66,0,0,0-.32.07.56.56,0,0,0-.23.16.68.68,0,0,0-.14.25A.92.92,0,0,0,129.76,290.59Z"/><path class="b" d="M137.09,291v.26c0,.11,0,.22,0,.31h-2.75a1.44,1.44,0,0,0,.08.49,1.09,1.09,0,0,0,.24.35,1.25,1.25,0,0,0,.37.22,1.51,1.51,0,0,0,.48.07,5.28,5.28,0,0,0,.66-.05,5.14,5.14,0,0,0,.72-.15v.8l-.35.08-.39.06-.4.05h-.39a2.59,2.59,0,0,1-.86-.13,1.65,1.65,0,0,1-1-1.06,2.76,2.76,0,0,1-.14-.91,2.91,2.91,0,0,1,.14-.92,2.08,2.08,0,0,1,.39-.72,1.76,1.76,0,0,1,.62-.46,2,2,0,0,1,.82-.16,2.09,2.09,0,0,1,.78.13,1.56,1.56,0,0,1,.57.39,1.41,1.41,0,0,1,.35.59A2.23,2.23,0,0,1,137.09,291Zm-1-.15a1,1,0,0,0-.06-.43.75.75,0,0,0-.18-.3.68.68,0,0,0-.26-.18.86.86,0,0,0-.32-.05.84.84,0,0,0-.63.25,1.15,1.15,0,0,0-.28.71Z"/><path class="b" d="M141.85,291.26a2.94,2.94,0,0,1-.14.91,2.1,2.1,0,0,1-.4.7,1.89,1.89,0,0,1-.65.45,2.14,2.14,0,0,1-.87.16,2.37,2.37,0,0,1-.83-.13,1.57,1.57,0,0,1-.62-.41,1.77,1.77,0,0,1-.39-.67,3,3,0,0,1-.14-.95,2.83,2.83,0,0,1,.14-.9,1.93,1.93,0,0,1,.41-.7,1.89,1.89,0,0,1,.65-.45,2.31,2.31,0,0,1,.86-.15,2.47,2.47,0,0,1,.84.13,1.77,1.77,0,0,1,.62.41,1.81,1.81,0,0,1,.39.68A2.84,2.84,0,0,1,141.85,291.26Zm-1,0a1.66,1.66,0,0,0-.25-1,.83.83,0,0,0-.72-.33.88.88,0,0,0-.45.11.89.89,0,0,0-.3.28,1.33,1.33,0,0,0-.18.42,2.1,2.1,0,0,0,0,.51,1.53,1.53,0,0,0,.26,1,.86.86,0,0,0,.72.33.83.83,0,0,0,.43-.1.76.76,0,0,0,.31-.28,1.6,1.6,0,0,0,.17-.42A2.12,2.12,0,0,0,140.81,291.29Z"/><path class="b" d="M145.67,293.39v-2.85a2.18,2.18,0,0,0,0-.27.56.56,0,0,0,0-.2.35.35,0,0,0-.07-.12.25.25,0,0,0-.13,0c-.09,0-.17.06-.25.18a2.17,2.17,0,0,0-.28.59v2.71H144v-2.85c0-.1,0-.2,0-.27s0-.15,0-.2a.36.36,0,0,0-.08-.12.25.25,0,0,0-.13,0q-.1,0-.24.18a2.45,2.45,0,0,0-.29.59v2.71h-.87v-4.18h.75v.61a2.28,2.28,0,0,1,.18-.32,1.07,1.07,0,0,1,.2-.22.78.78,0,0,1,.22-.12,1,1,0,0,1,.26,0,.69.69,0,0,1,.74.7,2.23,2.23,0,0,1,.2-.32,1.07,1.07,0,0,1,.2-.22.84.84,0,0,1,.23-.12,1.1,1.1,0,0,1,.27,0,.76.76,0,0,1,.67.32,1.67,1.67,0,0,1,.22.95v3Z"/><path class="b" d="M151,291c0,.06,0,.15,0,.26a2.85,2.85,0,0,1,0,.31h-2.75a1.22,1.22,0,0,0,.09.49.85.85,0,0,0,.24.35,1,1,0,0,0,.37.22,1.43,1.43,0,0,0,.48.07,5.4,5.4,0,0,0,1.37-.2v.8l-.35.08-.39.06-.4.05h-.39a2.49,2.49,0,0,1-.85-.13,1.78,1.78,0,0,1-.65-.4,1.83,1.83,0,0,1-.4-.66,2.76,2.76,0,0,1-.14-.91,2.91,2.91,0,0,1,.14-.92,2.1,2.1,0,0,1,.4-.72,1.68,1.68,0,0,1,.62-.46,1.92,1.92,0,0,1,.81-.16,2.09,2.09,0,0,1,.78.13,1.69,1.69,0,0,1,.58.39,1.65,1.65,0,0,1,.35.59A2.23,2.23,0,0,1,151,291Zm-1-.15a1.14,1.14,0,0,0-.07-.43.75.75,0,0,0-.18-.3.68.68,0,0,0-.26-.18.86.86,0,0,0-.32-.05.81.81,0,0,0-.62.25,1.1,1.1,0,0,0-.29.71Z"/><path class="b" d="M155.44,293.35l-.55.1-.52,0a2.9,2.9,0,0,1-.71-.08,1.26,1.26,0,0,1-.5-.27,1.17,1.17,0,0,1-.29-.45,2.08,2.08,0,0,1-.09-.65v-2h-1.12v-.78h1.12v-1.07l1-.27v1.34h1.63V290h-1.63v2a.79.79,0,0,0,.17.54.7.7,0,0,0,.55.18,2.59,2.59,0,0,0,.48,0l.43-.1Z"/><path class="b" d="M159.31,290.83a1.67,1.67,0,0,0,0-.4.66.66,0,0,0-.1-.27A.49.49,0,0,0,159,290a.59.59,0,0,0-.23,0,.77.77,0,0,0-.46.18,2.53,2.53,0,0,0-.52.6v2.65h-1v-4.18h.91l0,.61a1.34,1.34,0,0,1,.23-.29,1.23,1.23,0,0,1,.29-.22,1.22,1.22,0,0,1,.35-.14,1.42,1.42,0,0,1,.42-.05,1.48,1.48,0,0,1,.57.1,1.2,1.2,0,0,1,.41.33,1.36,1.36,0,0,1,.24.53,2.52,2.52,0,0,1,.07.75Z"/><path class="b" d="M163.77,292.93a9.54,9.54,0,0,1-.45.95,3.22,3.22,0,0,1-.53.69,1.85,1.85,0,0,1-.63.41,2.13,2.13,0,0,1-.78.14h-.22l-.25,0v-.86l.11,0,.14,0h.27a.83.83,0,0,0,.32-.06A1.26,1.26,0,0,0,162,294a1.32,1.32,0,0,0,.23-.28,3.76,3.76,0,0,0,.18-.35l-1.66-4.18h1.12l.87,2.37.26.76.25-.73.88-2.4h1.08Z"/><path class="b" d="M165.32,295.08v-.8H170v.8Z"/><path class="b" d="M173.47,293.39v-3.12a.88.88,0,0,0,0-.2.24.24,0,0,0-.07-.12.22.22,0,0,0-.13,0,.33.33,0,0,0-.25.18,2.51,2.51,0,0,0-.28.59v2.71h-.86v-2.85a2.18,2.18,0,0,0,0-.27.56.56,0,0,0,0-.2.25.25,0,0,0-.08-.12.22.22,0,0,0-.13,0q-.1,0-.24.18a2.9,2.9,0,0,0-.29.59v2.71h-.87v-4.18h.75l0,.61a2.28,2.28,0,0,1,.18-.32,1,1,0,0,1,.19-.22.94.94,0,0,1,.22-.12,1.1,1.1,0,0,1,.27,0,.73.73,0,0,1,.53.19.8.8,0,0,1,.21.51,2.25,2.25,0,0,1,.19-.32,1.46,1.46,0,0,1,.2-.22,1,1,0,0,1,.23-.12,1.1,1.1,0,0,1,.27,0,.76.76,0,0,1,.67.32,1.67,1.67,0,0,1,.22.95v3Z"/><path class="b" d="M178.61,292.16a1.18,1.18,0,0,1-.16.61,1.37,1.37,0,0,1-.42.41,1.91,1.91,0,0,1-.59.23,3.14,3.14,0,0,1-.68.07,6.88,6.88,0,0,1-.83,0,4.83,4.83,0,0,1-.7-.13v-.9a3.75,3.75,0,0,0,.77.23,3.83,3.83,0,0,0,.73.07,1.16,1.16,0,0,0,.59-.12.39.39,0,0,0,.19-.33.33.33,0,0,0,0-.17.53.53,0,0,0-.15-.15,2,2,0,0,0-.32-.15l-.54-.17a2.79,2.79,0,0,1-.54-.2,1.46,1.46,0,0,1-.39-.25,1,1,0,0,1-.23-.35,1.27,1.27,0,0,1-.07-.46,1.13,1.13,0,0,1,.11-.48,1.19,1.19,0,0,1,.35-.4,1.89,1.89,0,0,1,.57-.27,3.09,3.09,0,0,1,.8-.09,4.75,4.75,0,0,1,.69,0,3.36,3.36,0,0,1,.54.09v.82a4.71,4.71,0,0,0-.67-.17,4.4,4.4,0,0,0-.62,0,.93.93,0,0,0-.5.11.34.34,0,0,0-.19.31.47.47,0,0,0,0,.17.52.52,0,0,0,.15.14,2.06,2.06,0,0,0,.3.15c.13.05.3.1.52.16a4.21,4.21,0,0,1,.61.22,1.75,1.75,0,0,1,.4.27,1,1,0,0,1,.21.33A1.5,1.5,0,0,1,178.61,292.16Z"/><path class="b" d="M182.93,289.94a1.1,1.1,0,0,1,.16.3,1.25,1.25,0,0,1,0,.32,1.49,1.49,0,0,1-.12.62,1.19,1.19,0,0,1-.35.45,1.43,1.43,0,0,1-.52.27,2.11,2.11,0,0,1-.68.1,1.68,1.68,0,0,1-.4-.05.88.88,0,0,1-.28-.1.61.61,0,0,0-.12.16.38.38,0,0,0,0,.19.31.31,0,0,0,0,.13.43.43,0,0,0,.25.2.65.65,0,0,0,.2,0l1,0a2.31,2.31,0,0,1,.61.08,1.31,1.31,0,0,1,.46.22.89.89,0,0,1,.3.34.93.93,0,0,1,.1.45,1.14,1.14,0,0,1-.13.55,1.22,1.22,0,0,1-.4.45,1.83,1.83,0,0,1-.66.3,3.16,3.16,0,0,1-.92.12,4.45,4.45,0,0,1-.87-.08,1.91,1.91,0,0,1-.59-.23.86.86,0,0,1-.46-.78.77.77,0,0,1,0-.27.7.7,0,0,1,.11-.23,1,1,0,0,1,.19-.22,1.43,1.43,0,0,1,.26-.22.81.81,0,0,1-.31-.3.72.72,0,0,1-.1-.38,1.09,1.09,0,0,1,0-.26,2.44,2.44,0,0,1,.1-.24c0-.07.09-.14.14-.21l.16-.2a1.41,1.41,0,0,1-.25-.37,1.21,1.21,0,0,1-.1-.54,1.38,1.38,0,0,1,.13-.62,1.24,1.24,0,0,1,.34-.47,1.78,1.78,0,0,1,.53-.28,2.41,2.41,0,0,1,.67-.1l.36,0,.31.07h1.45v.73Zm-2.37,4a.37.37,0,0,0,.25.36,1.58,1.58,0,0,0,.69.12,1.63,1.63,0,0,0,.47-.06.79.79,0,0,0,.32-.14.38.38,0,0,0,.18-.2.49.49,0,0,0,.05-.24.27.27,0,0,0-.05-.18.29.29,0,0,0-.14-.13.72.72,0,0,0-.22-.08l-.28,0H181a1.16,1.16,0,0,0-.2.16.53.53,0,0,0-.12.14.3.3,0,0,0,0,.15A.77.77,0,0,0,180.56,293.94Zm.17-3.35a.69.69,0,0,0,.2.53.73.73,0,0,0,.54.19.79.79,0,0,0,.32-.06.56.56,0,0,0,.23-.16.72.72,0,0,0,.14-.24.92.92,0,0,0,0-.29A.73.73,0,0,0,182,290a.74.74,0,0,0-.55-.2.66.66,0,0,0-.32.07.63.63,0,0,0-.23.16.66.66,0,0,0-.13.25A.93.93,0,0,0,180.73,290.59Z"/><path class="b" d="M187.87,292.16a1.17,1.17,0,0,1-.15.61,1.37,1.37,0,0,1-.42.41,2,2,0,0,1-.6.23,3,3,0,0,1-.67.07,6.88,6.88,0,0,1-.83,0,4.59,4.59,0,0,1-.7-.13v-.9a3.58,3.58,0,0,0,.77.23,3.73,3.73,0,0,0,.72.07,1.13,1.13,0,0,0,.59-.12.4.4,0,0,0,.2-.33.33.33,0,0,0,0-.17.47.47,0,0,0-.16-.15,1.5,1.5,0,0,0-.31-.15l-.54-.17a3.18,3.18,0,0,1-.55-.2,1.57,1.57,0,0,1-.38-.25,1,1,0,0,1-.23-.35,1.27,1.27,0,0,1-.07-.46,1,1,0,0,1,.11-.48,1.27,1.27,0,0,1,.34-.4,2.15,2.15,0,0,1,.57-.27,3.2,3.2,0,0,1,.8-.09,4.81,4.81,0,0,1,.7,0,3.36,3.36,0,0,1,.54.09v.82a5.07,5.07,0,0,0-.67-.17,4.4,4.4,0,0,0-.62,0,.91.91,0,0,0-.5.11.36.36,0,0,0-.15.48.41.41,0,0,0,.15.14,2.06,2.06,0,0,0,.3.15c.13.05.3.1.52.16a4.21,4.21,0,0,1,.61.22,1.49,1.49,0,0,1,.39.27,1,1,0,0,1,.22.33A1.51,1.51,0,0,1,187.87,292.16Z"/><path class="b" d="M189.76,294.27h-1l2.88-6.7h1Z"/><path class="b" d="M196,288.85v4.54h-1v-4.54h-1.47V288h4v.84Z"/><path class="b" d="M201.76,293.39h-1.12l-.44-1.33-.14-.46-.13.48-.43,1.31h-1.12l-.59-4.18h1l.3,2.36.07.64.17-.58.42-1.27h.77l.45,1.27.19.59.08-.66.25-2.35h.91Z"/><path class="b" d="M204.31,290h-1.18v-.78h2.21v3.4h1.21v.78H203v-.78h1.32Zm1.11-1.93a.58.58,0,0,1,0,.26.74.74,0,0,1-.13.21,1.1,1.1,0,0,1-.21.14.75.75,0,0,1-.26.05.71.71,0,0,1-.26-.05,1.1,1.1,0,0,1-.21-.14.6.6,0,0,1-.14-.21.75.75,0,0,1,0-.26.7.7,0,0,1,0-.25.64.64,0,0,1,.35-.35.55.55,0,0,1,.26-.06.58.58,0,0,1,.26.06.6.6,0,0,1,.21.14.74.74,0,0,1,.13.21A.53.53,0,0,1,205.42,288.06Z"/><path class="b" d="M211,292.16a1.17,1.17,0,0,1-.15.61,1.37,1.37,0,0,1-.42.41,2,2,0,0,1-.6.23,3,3,0,0,1-.67.07,6.88,6.88,0,0,1-.83,0,4.59,4.59,0,0,1-.7-.13v-.9a3.58,3.58,0,0,0,.77.23,3.73,3.73,0,0,0,.72.07,1.13,1.13,0,0,0,.59-.12.4.4,0,0,0,.2-.33.33.33,0,0,0,0-.17.47.47,0,0,0-.16-.15,1.5,1.5,0,0,0-.31-.15l-.54-.17a3.18,3.18,0,0,1-.55-.2,1.57,1.57,0,0,1-.38-.25,1,1,0,0,1-.23-.35,1.27,1.27,0,0,1-.07-.46,1,1,0,0,1,.11-.48,1.27,1.27,0,0,1,.34-.4,2.15,2.15,0,0,1,.57-.27,3.2,3.2,0,0,1,.8-.09,4.81,4.81,0,0,1,.7,0,3.36,3.36,0,0,1,.54.09v.82a5.07,5.07,0,0,0-.67-.17,4.4,4.4,0,0,0-.62,0,.91.91,0,0,0-.5.11.36.36,0,0,0-.15.48.41.41,0,0,0,.15.14,2.06,2.06,0,0,0,.3.15c.13.05.3.1.52.16a4.21,4.21,0,0,1,.61.22,1.49,1.49,0,0,1,.39.27,1,1,0,0,1,.22.33A1.51,1.51,0,0,1,211,292.16Z"/><path class="b" d="M215.68,293.35l-.55.1-.52,0a2.9,2.9,0,0,1-.71-.08,1.26,1.26,0,0,1-.5-.27,1,1,0,0,1-.28-.45,1.81,1.81,0,0,1-.1-.65v-2H211.9v-.78H213v-1.07l1-.27v1.34h1.63V290h-1.63v2a.79.79,0,0,0,.17.54.71.71,0,0,0,.55.18,2.59,2.59,0,0,0,.48,0l.43-.1Z"/><path class="b" d="M217.38,295v-.78h1.23v-6.07h-1.23v-.78h2.15V295Z"/><rect class="f" x="107.45" y="92.67" width="129.65" height="27.44"/><path class="d" d="M157.32,103.74h-1l2.87-6.7h1Z"/><path class="d" d="M162.61,99.45h-1.19v-.78h2.22v3.4h1.2v.78h-3.56v-.78h1.33Zm1.11-1.92a.7.7,0,0,1-.05.25.6.6,0,0,1-.14.21.77.77,0,0,1-.21.14.71.71,0,0,1-.26.05.75.75,0,0,1-.26-.05.64.64,0,0,1-.35-.35.7.7,0,0,1,0-.25.75.75,0,0,1,0-.26.77.77,0,0,1,.14-.21.6.6,0,0,1,.21-.14.58.58,0,0,1,.26,0,.55.55,0,0,1,.26,0,.64.64,0,0,1,.35.35A.75.75,0,0,1,163.72,97.53Z"/><path class="d" d="M168.84,102.85V100a2.26,2.26,0,0,0,0-.27.6.6,0,0,0,0-.2.23.23,0,0,0-.07-.11.18.18,0,0,0-.13,0,.33.33,0,0,0-.25.17,2.33,2.33,0,0,0-.28.59v2.71h-.86V100c0-.1,0-.19,0-.27s0-.14,0-.2a.24.24,0,0,0-.08-.11.17.17,0,0,0-.13,0c-.07,0-.15.06-.24.17a2.67,2.67,0,0,0-.29.59v2.71h-.87V98.67h.75v.61a3,3,0,0,1,.18-.32,1,1,0,0,1,.2-.21.71.71,0,0,1,.22-.13,1,1,0,0,1,.26,0,.66.66,0,0,1,.74.69,3,3,0,0,1,.2-.32,1,1,0,0,1,.2-.21.76.76,0,0,1,.23-.13,1.12,1.12,0,0,1,.27,0,.74.74,0,0,1,.67.32,1.61,1.61,0,0,1,.22.94v3Z"/><path class="d" d="M173.15,102.85l0-.55a3.25,3.25,0,0,1-.27.26,2.2,2.2,0,0,1-.32.21,2.12,2.12,0,0,1-.38.13,2,2,0,0,1-.44,0,1.42,1.42,0,0,1-.57-.1,1.15,1.15,0,0,1-.41-.26,1,1,0,0,1-.24-.41,1.47,1.47,0,0,1-.09-.53,1.11,1.11,0,0,1,.13-.54,1.14,1.14,0,0,1,.38-.44,2,2,0,0,1,.64-.28,3.49,3.49,0,0,1,.9-.1H173V100a.85.85,0,0,0,0-.29.48.48,0,0,0-.15-.22.65.65,0,0,0-.26-.14,1.18,1.18,0,0,0-.4,0,3.63,3.63,0,0,0-.73.08,4,4,0,0,0-.69.24v-.8a3.78,3.78,0,0,1,.69-.2,4.3,4.3,0,0,1,.82-.08,3,3,0,0,1,.79.09,1.48,1.48,0,0,1,.55.26,1,1,0,0,1,.32.45,1.64,1.64,0,0,1,.11.62v2.85ZM173,101h-.61a1.69,1.69,0,0,0-.43,0,.87.87,0,0,0-.29.14.43.43,0,0,0-.16.2.52.52,0,0,0,.11.63.69.69,0,0,0,.45.13.77.77,0,0,0,.43-.15,3.08,3.08,0,0,0,.5-.44Z"/><path class="d" d="M178.29,99.4a.86.86,0,0,1,.17.31,1.12,1.12,0,0,1,0,.32,1.52,1.52,0,0,1-.12.62,1.22,1.22,0,0,1-.34.44,1.41,1.41,0,0,1-.53.28,2.36,2.36,0,0,1-.67.09,1.78,1.78,0,0,1-.41,0,1.73,1.73,0,0,1-.28-.1l-.12.15a.41.41,0,0,0,0,.19.28.28,0,0,0,0,.13.23.23,0,0,0,.1.12.54.54,0,0,0,.15.09.6.6,0,0,0,.2,0l1,0a2.72,2.72,0,0,1,.6.08,1.64,1.64,0,0,1,.46.22,1,1,0,0,1,.3.34.94.94,0,0,1,.11.45,1.35,1.35,0,0,1-.13.56,1.3,1.3,0,0,1-.4.45,2.52,2.52,0,0,1-.66.3,3.57,3.57,0,0,1-.92.11,4.3,4.3,0,0,1-.87-.08,2.09,2.09,0,0,1-.6-.22,1,1,0,0,1-.34-.35.93.93,0,0,1-.11-.44.75.75,0,0,1,0-.26.66.66,0,0,1,.11-.24,1.24,1.24,0,0,1,.18-.22,2.12,2.12,0,0,1,.27-.21.81.81,0,0,1-.31-.3.77.77,0,0,1-.11-.39,1.09,1.09,0,0,1,0-.26,1.6,1.6,0,0,1,.1-.23,1,1,0,0,1,.14-.22l.16-.2a1.1,1.1,0,0,1-.25-.37,1.21,1.21,0,0,1-.1-.54,1.52,1.52,0,0,1,.12-.62,1.34,1.34,0,0,1,.35-.46,1.51,1.51,0,0,1,.53-.29,2.36,2.36,0,0,1,.67-.09,2,2,0,0,1,.35,0,1.31,1.31,0,0,1,.31.06H179v.73Zm-2.36,4a.38.38,0,0,0,.24.36,1.84,1.84,0,0,0,.69.11,2.14,2.14,0,0,0,.48,0,1.39,1.39,0,0,0,.32-.14.67.67,0,0,0,.18-.2.69.69,0,0,0,0-.24.36.36,0,0,0,0-.19.44.44,0,0,0-.14-.13l-.22-.08a2.4,2.4,0,0,0-.28,0l-.89,0-.19.16-.12.14a.47.47,0,0,0-.06.15A.81.81,0,0,0,175.93,103.41Zm.17-3.36a.7.7,0,0,0,.19.53.74.74,0,0,0,.55.2.79.79,0,0,0,.32-.06.81.81,0,0,0,.23-.17.7.7,0,0,0,.13-.24.66.66,0,0,0,0-.28.7.7,0,0,0-.2-.55.73.73,0,0,0-.54-.19.79.79,0,0,0-.32.06.58.58,0,0,0-.23.17.72.72,0,0,0-.14.24A.92.92,0,0,0,176.1,100.05Z"/><path class="d" d="M183.43,100.44v.27c0,.11,0,.21,0,.31h-2.75a1.42,1.42,0,0,0,.08.48,1,1,0,0,0,.24.35,1.07,1.07,0,0,0,.37.22,1.51,1.51,0,0,0,.48.07,5.18,5.18,0,0,0,.66,0,7.27,7.27,0,0,0,.72-.16v.8l-.35.08-.39.07-.4,0-.39,0a2.48,2.48,0,0,1-.85-.14,1.66,1.66,0,0,1-.65-.4,1.83,1.83,0,0,1-.4-.66,2.74,2.74,0,0,1-.14-.9,3,3,0,0,1,.14-.93,2,2,0,0,1,.4-.72,1.73,1.73,0,0,1,.61-.46,2,2,0,0,1,.82-.16,2.09,2.09,0,0,1,.78.14,1.67,1.67,0,0,1,.58.38,1.58,1.58,0,0,1,.34.59A2,2,0,0,1,183.43,100.44Zm-1-.14a1,1,0,0,0-.06-.43.73.73,0,0,0-.18-.31.56.56,0,0,0-.26-.17.87.87,0,0,0-.32-.06.8.8,0,0,0-.62.25,1.13,1.13,0,0,0-.29.72Z"/><path class="d" d="M184.48,102.85V102h1.37V98.5l-1.19.66-.33-.82,1.71-.9h.84V102h1.18v.89Z"/><path class="b" d="M129.5,114.6V107h2.17v.78h-1.24v6.07h1.24v.78Z"/><path class="b" d="M136.9,111.74a1.11,1.11,0,0,1-.16.61,1.18,1.18,0,0,1-.42.41,2.07,2.07,0,0,1-.59.23,3.08,3.08,0,0,1-.68.07,7.1,7.1,0,0,1-.83,0,4.83,4.83,0,0,1-.7-.13V112a4.78,4.78,0,0,0,.77.23,3.83,3.83,0,0,0,.73.07,1.16,1.16,0,0,0,.59-.12.4.4,0,0,0,.2-.33.34.34,0,0,0-.05-.17.32.32,0,0,0-.15-.16,2.11,2.11,0,0,0-.32-.14l-.54-.17a4.75,4.75,0,0,1-.54-.2,1.34,1.34,0,0,1-.38-.26,1,1,0,0,1-.23-.34,1.26,1.26,0,0,1-.08-.46,1,1,0,0,1,.12-.48,1.16,1.16,0,0,1,.34-.4,1.89,1.89,0,0,1,.57-.27,3.12,3.12,0,0,1,.8-.1,4.79,4.79,0,0,1,.7,0,3.79,3.79,0,0,1,.54.09v.81a5.33,5.33,0,0,0-.67-.16,4.46,4.46,0,0,0-.63,0,.89.89,0,0,0-.49.12.32.32,0,0,0-.19.3.31.31,0,0,0,0,.17.39.39,0,0,0,.14.15l.31.14c.13,0,.3.11.51.17a3.82,3.82,0,0,1,.61.22,1.4,1.4,0,0,1,.4.27.78.78,0,0,1,.21.33A1.2,1.2,0,0,1,136.9,111.74Z"/><path class="b" d="M141.73,110.55c0,.07,0,.16,0,.27a3,3,0,0,1,0,.31H139a1.26,1.26,0,0,0,.09.49,1,1,0,0,0,.24.35,1,1,0,0,0,.37.21,1.42,1.42,0,0,0,.48.08,5.4,5.4,0,0,0,1.37-.2v.79l-.35.09-.38.06-.4,0H140a2.32,2.32,0,0,1-.86-.14,1.62,1.62,0,0,1-.64-.4,1.72,1.72,0,0,1-.41-.65,2.81,2.81,0,0,1-.14-.91,3,3,0,0,1,.14-.93,2.22,2.22,0,0,1,.4-.71,1.65,1.65,0,0,1,.62-.46,1.92,1.92,0,0,1,.81-.17,2.14,2.14,0,0,1,.79.14,1.45,1.45,0,0,1,.57.39,1.7,1.7,0,0,1,.35.58A2.27,2.27,0,0,1,141.73,110.55Zm-1-.14a1.4,1.4,0,0,0-.06-.43,1.09,1.09,0,0,0-.18-.3.8.8,0,0,0-.27-.18.87.87,0,0,0-.94.2,1.16,1.16,0,0,0-.29.71Z"/><path class="b" d="M145.21,113v-2.73q0-.69-.51-.69a.7.7,0,0,0-.48.21,3.62,3.62,0,0,0-.5.56V113h-1v-4.19h.87l0,.62a3.84,3.84,0,0,1,.27-.29,1.29,1.29,0,0,1,.3-.22,1.3,1.3,0,0,1,.34-.15,1.79,1.79,0,0,1,.42,0,1.4,1.4,0,0,1,.56.11,1.08,1.08,0,0,1,.4.3,1.43,1.43,0,0,1,.24.46,2.23,2.23,0,0,1,.08.6V113Z"/><path class="b" d="M150.8,111.74a1.11,1.11,0,0,1-.16.61,1.18,1.18,0,0,1-.42.41,2.07,2.07,0,0,1-.59.23,3,3,0,0,1-.68.07,7.1,7.1,0,0,1-.83,0,5.1,5.1,0,0,1-.7-.13V112a4.6,4.6,0,0,0,.78.23,3.65,3.65,0,0,0,.72.07,1.13,1.13,0,0,0,.59-.12.4.4,0,0,0,.2-.33.47.47,0,0,0,0-.17.41.41,0,0,0-.16-.16,2.11,2.11,0,0,0-.32-.14,5.13,5.13,0,0,0-.54-.17,4.75,4.75,0,0,1-.54-.2,1.34,1.34,0,0,1-.38-.26,1,1,0,0,1-.23-.34,1.26,1.26,0,0,1-.08-.46,1,1,0,0,1,.12-.48,1.27,1.27,0,0,1,.34-.4,1.89,1.89,0,0,1,.57-.27,3.18,3.18,0,0,1,.8-.1,4.79,4.79,0,0,1,.7,0,3.79,3.79,0,0,1,.54.09v.81a5,5,0,0,0-.67-.16,4.46,4.46,0,0,0-.63,0,.89.89,0,0,0-.49.12.32.32,0,0,0-.19.3.31.31,0,0,0,0,.17.39.39,0,0,0,.14.15l.31.14.51.17a3.49,3.49,0,0,1,.61.22,1.4,1.4,0,0,1,.4.27.91.91,0,0,1,.22.33A1.46,1.46,0,0,1,150.8,111.74Z"/><path class="b" d="M155.75,110.84a2.67,2.67,0,0,1-.14.91,1.94,1.94,0,0,1-.4.7,1.89,1.89,0,0,1-.65.45,2.49,2.49,0,0,1-1.7,0,1.62,1.62,0,0,1-.62-.4,1.81,1.81,0,0,1-.39-.68,3.13,3.13,0,0,1,0-1.85,2,2,0,0,1,.41-.69,1.89,1.89,0,0,1,.65-.45,2.35,2.35,0,0,1,.86-.16,2.38,2.38,0,0,1,.84.14,1.64,1.64,0,0,1,.62.41,1.85,1.85,0,0,1,.39.67A2.94,2.94,0,0,1,155.75,110.84Zm-1,0a1.57,1.57,0,0,0-.25-1,.83.83,0,0,0-.72-.33.94.94,0,0,0-.45.11.8.8,0,0,0-.3.28,1.33,1.33,0,0,0-.18.42,2.59,2.59,0,0,0-.05.51,1.59,1.59,0,0,0,.26,1,.88.88,0,0,0,.72.33.83.83,0,0,0,.74-.38,1.6,1.6,0,0,0,.17-.42A2.18,2.18,0,0,0,154.71,110.87Z"/><path class="b" d="M159.31,110.41a1.64,1.64,0,0,0,0-.4.66.66,0,0,0-.1-.27.49.49,0,0,0-.16-.16.59.59,0,0,0-.23,0,.73.73,0,0,0-.46.19,2.53,2.53,0,0,0-.52.6V113h-1v-4.19h.91l0,.61a1.56,1.56,0,0,1,.23-.28,1.53,1.53,0,0,1,.64-.37,1.86,1.86,0,0,1,.42,0,1.48,1.48,0,0,1,.57.11,1.09,1.09,0,0,1,.41.33,1.36,1.36,0,0,1,.24.53,2.52,2.52,0,0,1,.07.75Z"/><path class="b" d="M160.68,114.65v-.79h4.64v.79Z"/><path class="b" d="M168.84,113v-2.85a2.35,2.35,0,0,0,0-.28.54.54,0,0,0,0-.19.35.35,0,0,0-.07-.12.25.25,0,0,0-.13,0c-.09,0-.17.06-.25.18a2.23,2.23,0,0,0-.28.58V113h-.86v-2.85c0-.11,0-.2,0-.28s0-.14,0-.19a.36.36,0,0,0-.08-.12.22.22,0,0,0-.13,0q-.11,0-.24.18a2.54,2.54,0,0,0-.29.58V113h-.87v-4.19h.75v.61a2.84,2.84,0,0,1,.18-.31,1.07,1.07,0,0,1,.2-.22.53.53,0,0,1,.22-.12.68.68,0,0,1,.26,0,.71.71,0,0,1,.54.19.74.74,0,0,1,.2.5,2.79,2.79,0,0,1,.2-.31,1.07,1.07,0,0,1,.2-.22.57.57,0,0,1,.23-.12.77.77,0,0,1,.27,0,.76.76,0,0,1,.67.32,1.65,1.65,0,0,1,.22,1v3Z"/><path class="b" d="M174,111.74a1.11,1.11,0,0,1-.16.61,1.18,1.18,0,0,1-.42.41,2.07,2.07,0,0,1-.59.23,3.08,3.08,0,0,1-.68.07,7.1,7.1,0,0,1-.83,0,5.1,5.1,0,0,1-.7-.13V112a4.6,4.6,0,0,0,.78.23,3.65,3.65,0,0,0,.72.07,1.16,1.16,0,0,0,.59-.12.4.4,0,0,0,.2-.33.47.47,0,0,0,0-.17.41.41,0,0,0-.16-.16,2.11,2.11,0,0,0-.32-.14,5.13,5.13,0,0,0-.54-.17,4.75,4.75,0,0,1-.54-.2,1.34,1.34,0,0,1-.38-.26,1,1,0,0,1-.23-.34,1.26,1.26,0,0,1-.08-.46,1,1,0,0,1,.12-.48,1.27,1.27,0,0,1,.34-.4,2,2,0,0,1,.57-.27,3.18,3.18,0,0,1,.8-.1,4.79,4.79,0,0,1,.7,0,3.79,3.79,0,0,1,.54.09v.81a5,5,0,0,0-.67-.16,4.46,4.46,0,0,0-.63,0,.89.89,0,0,0-.49.12.32.32,0,0,0-.19.3.31.31,0,0,0,0,.17.39.39,0,0,0,.14.15l.31.14c.13,0,.3.11.51.17a3.49,3.49,0,0,1,.61.22,1.4,1.4,0,0,1,.4.27.91.91,0,0,1,.22.33A1.46,1.46,0,0,1,174,111.74Z"/><path class="b" d="M178.29,109.52a.9.9,0,0,1,.17.3,1.12,1.12,0,0,1,0,.32,1.49,1.49,0,0,1-.12.62,1.17,1.17,0,0,1-.34.45,1.47,1.47,0,0,1-.53.27,2.35,2.35,0,0,1-.67.1,1.77,1.77,0,0,1-.41,0,1.11,1.11,0,0,1-.28-.1l-.12.15a.46.46,0,0,0-.05.2.38.38,0,0,0,0,.13.47.47,0,0,0,.09.12.8.8,0,0,0,.16.08l.2,0,1,0a2.7,2.7,0,0,1,.6.09,1.4,1.4,0,0,1,.46.21,1.07,1.07,0,0,1,.3.34,1,1,0,0,1,.11.46,1.19,1.19,0,0,1-.53,1,2,2,0,0,1-.66.3,3.22,3.22,0,0,1-.92.11,3.68,3.68,0,0,1-.87-.08,1.83,1.83,0,0,1-.6-.22,1,1,0,0,1-.34-.34,1,1,0,0,1-.11-.44.77.77,0,0,1,0-.27.86.86,0,0,1,.11-.24l.18-.22a3,3,0,0,1,.26-.21.86.86,0,0,1-.3-.3.76.76,0,0,1-.11-.38,1.17,1.17,0,0,1,0-.27,2.29,2.29,0,0,1,.1-.23,2.39,2.39,0,0,1,.13-.21c.06-.07.11-.14.17-.2a1.21,1.21,0,0,1-.25-.37,1.27,1.27,0,0,1-.1-.54,1.57,1.57,0,0,1,.12-.63,1.31,1.31,0,0,1,.35-.46,1.49,1.49,0,0,1,.53-.28,2,2,0,0,1,.67-.1l.35,0a1.31,1.31,0,0,1,.31.06H179v.74Zm-2.36,4a.38.38,0,0,0,.24.36,1.61,1.61,0,0,0,.69.12,1.65,1.65,0,0,0,.48-.06.86.86,0,0,0,.32-.14.57.57,0,0,0,.18-.2.69.69,0,0,0,0-.24.38.38,0,0,0,0-.19.36.36,0,0,0-.15-.12.66.66,0,0,0-.21-.08l-.28,0h-.89a1,1,0,0,0-.19.15.79.79,0,0,0-.12.15.47.47,0,0,0-.06.15A.71.71,0,0,0,175.93,113.52Zm.17-3.35a.72.72,0,0,0,.19.53.74.74,0,0,0,.55.19.79.79,0,0,0,.32-.06.79.79,0,0,0,.23-.16.7.7,0,0,0,.13-.24.93.93,0,0,0,0-.29.69.69,0,0,0-.74-.74.76.76,0,0,0-.32.06.58.58,0,0,0-.23.17.68.68,0,0,0-.14.25A.92.92,0,0,0,176.1,110.17Z"/><path class="b" d="M183.24,111.74a1.11,1.11,0,0,1-.16.61,1.18,1.18,0,0,1-.42.41,2.07,2.07,0,0,1-.59.23,3.08,3.08,0,0,1-.68.07,7.1,7.1,0,0,1-.83,0,4.83,4.83,0,0,1-.7-.13V112a4.78,4.78,0,0,0,.77.23,3.83,3.83,0,0,0,.73.07,1.16,1.16,0,0,0,.59-.12.4.4,0,0,0,.2-.33.34.34,0,0,0-.05-.17.32.32,0,0,0-.15-.16,2.11,2.11,0,0,0-.32-.14l-.54-.17a4.75,4.75,0,0,1-.54-.2,1.34,1.34,0,0,1-.38-.26.86.86,0,0,1-.23-.34,1.26,1.26,0,0,1-.08-.46,1,1,0,0,1,.12-.48,1.16,1.16,0,0,1,.34-.4,1.89,1.89,0,0,1,.57-.27,3.18,3.18,0,0,1,.8-.1,4.79,4.79,0,0,1,.7,0,3.79,3.79,0,0,1,.54.09v.81a5,5,0,0,0-.67-.16,4.46,4.46,0,0,0-.63,0,.89.89,0,0,0-.49.12.32.32,0,0,0-.19.3.31.31,0,0,0,0,.17.39.39,0,0,0,.14.15l.31.14.51.17a3.82,3.82,0,0,1,.61.22,1.4,1.4,0,0,1,.4.27.91.91,0,0,1,.22.33A1.46,1.46,0,0,1,183.24,111.74Z"/><path class="b" d="M185.13,113.85h-1l2.87-6.7h1Z"/><path class="b" d="M189.1,108.41v-.82h3.4v.82h-1.18v3.72h1.18V113h-3.4v-.84h1.19v-3.72Z"/><path class="b" d="M196.64,113v-3.13a.9.9,0,0,0,0-.19.24.24,0,0,0-.07-.12.22.22,0,0,0-.13,0,.33.33,0,0,0-.25.18,3.15,3.15,0,0,0-.28.58V113H195v-2.85a2.35,2.35,0,0,0,0-.28.54.54,0,0,0,0-.19.35.35,0,0,0-.07-.12.29.29,0,0,0-.14,0q-.1,0-.24.18a3,3,0,0,0-.29.58V113h-.87v-4.19h.75l0,.61a2.84,2.84,0,0,1,.18-.31,1,1,0,0,1,.19-.22.53.53,0,0,1,.22-.12.77.77,0,0,1,.27,0,.69.69,0,0,1,.53.19.79.79,0,0,1,.21.5,2.81,2.81,0,0,1,.19-.31,1.46,1.46,0,0,1,.2-.22.57.57,0,0,1,.23-.12.77.77,0,0,1,.27,0,.76.76,0,0,1,.67.32,1.65,1.65,0,0,1,.22,1v3Z"/><path class="b" d="M201,113l0-.55a3.31,3.31,0,0,1-.27.26,2.49,2.49,0,0,1-.32.2,1.42,1.42,0,0,1-.38.13,2,2,0,0,1-.44,0,1.66,1.66,0,0,1-.57-.09,1.13,1.13,0,0,1-.4-.27,1,1,0,0,1-.25-.41,1.42,1.42,0,0,1-.09-.52,1.27,1.27,0,0,1,.13-.55,1.11,1.11,0,0,1,.38-.43,2.1,2.1,0,0,1,.64-.29,4,4,0,0,1,.91-.1h.55v-.25a.88.88,0,0,0-.05-.29.48.48,0,0,0-.15-.22.59.59,0,0,0-.26-.14,1.42,1.42,0,0,0-.39,0,3,3,0,0,0-.73.09,3.38,3.38,0,0,0-.7.23V109a3.78,3.78,0,0,1,.69-.2,4.38,4.38,0,0,1,.82-.08,3.09,3.09,0,0,1,.8.09,1.49,1.49,0,0,1,.55.27,1.09,1.09,0,0,1,.32.44,1.92,1.92,0,0,1,.1.62V113Zm-.14-1.85h-.62a1.37,1.37,0,0,0-.43,0,1,1,0,0,0-.29.13.59.59,0,0,0-.16.2.52.52,0,0,0-.05.24.47.47,0,0,0,.16.39.69.69,0,0,0,.45.14.75.75,0,0,0,.44-.16,3.41,3.41,0,0,0,.5-.43Z"/><path class="b" d="M206.1,109.52a.87.87,0,0,1,.16.3,1.13,1.13,0,0,1,.05.32,1.49,1.49,0,0,1-.12.62,1.3,1.3,0,0,1-.35.45,1.43,1.43,0,0,1-.52.27,2.43,2.43,0,0,1-.68.1,1.62,1.62,0,0,1-.4,0,.88.88,0,0,1-.28-.1.79.79,0,0,0-.12.15.46.46,0,0,0-.05.2.35.35,0,0,0,0,.13.43.43,0,0,0,.25.2l.2,0,1,0a2.61,2.61,0,0,1,.6.09,1.56,1.56,0,0,1,.47.21,1.07,1.07,0,0,1,.3.34,1,1,0,0,1,.1.46,1.17,1.17,0,0,1-.13.55,1.3,1.3,0,0,1-.4.45,1.92,1.92,0,0,1-.66.3,3.18,3.18,0,0,1-.92.11,3.79,3.79,0,0,1-.87-.08,1.69,1.69,0,0,1-.59-.22,1,1,0,0,1-.35-.34,1,1,0,0,1-.11-.44.77.77,0,0,1,0-.27.86.86,0,0,1,.11-.24,1.74,1.74,0,0,1,.19-.22,2,2,0,0,1,.26-.21.81.81,0,0,1-.31-.3.75.75,0,0,1-.1-.38,1.18,1.18,0,0,1,0-.27,2.29,2.29,0,0,1,.1-.23c0-.07.09-.14.14-.21l.16-.2a1.41,1.41,0,0,1-.25-.37,1.27,1.27,0,0,1-.1-.54,1.42,1.42,0,0,1,.13-.63,1.28,1.28,0,0,1,.34-.46,1.58,1.58,0,0,1,.53-.28,2.09,2.09,0,0,1,.67-.1l.36,0a1.55,1.55,0,0,1,.31.06h1.45v.74Zm-2.37,4a.38.38,0,0,0,.25.36,1.56,1.56,0,0,0,.68.12,1.65,1.65,0,0,0,.48-.06.86.86,0,0,0,.32-.14.49.49,0,0,0,.18-.2.52.52,0,0,0,.05-.24.3.3,0,0,0-.05-.19.33.33,0,0,0-.14-.12.72.72,0,0,0-.22-.08l-.28,0h-.88a1.15,1.15,0,0,0-.2.15.79.79,0,0,0-.12.15.3.3,0,0,0-.05.15A.68.68,0,0,0,203.73,113.52Zm.17-3.35a.69.69,0,0,0,.2.53.73.73,0,0,0,.54.19.79.79,0,0,0,.32-.06.67.67,0,0,0,.23-.16.72.72,0,0,0,.14-.24.92.92,0,0,0,0-.29.73.73,0,0,0-.19-.54.74.74,0,0,0-.55-.2.79.79,0,0,0-.32.06.66.66,0,0,0-.23.17.86.86,0,0,0-.14.25A.92.92,0,0,0,203.9,110.17Z"/><path class="b" d="M211.24,110.55c0,.07,0,.16,0,.27a3,3,0,0,1,0,.31h-2.75a1.26,1.26,0,0,0,.09.49.85.85,0,0,0,.24.35,1,1,0,0,0,.37.21,1.42,1.42,0,0,0,.48.08,5.4,5.4,0,0,0,1.37-.2v.79l-.35.09-.39.06-.39,0h-.4a2.3,2.3,0,0,1-.85-.14,1.62,1.62,0,0,1-.64-.4,1.72,1.72,0,0,1-.41-.65,2.81,2.81,0,0,1-.14-.91,3,3,0,0,1,.14-.93,2.22,2.22,0,0,1,.4-.71,1.58,1.58,0,0,1,.62-.46,1.92,1.92,0,0,1,.81-.17,2.14,2.14,0,0,1,.79.14,1.53,1.53,0,0,1,.57.39,1.7,1.7,0,0,1,.35.58A2.27,2.27,0,0,1,211.24,110.55Zm-1-.14a1.4,1.4,0,0,0-.06-.43,1.09,1.09,0,0,0-.18-.3.8.8,0,0,0-.27-.18.87.87,0,0,0-.94.2,1.16,1.16,0,0,0-.29.71Z"/><path class="b" d="M212.74,114.6v-.78H214v-6.07h-1.24V107h2.16v7.63Z"/><rect class="f" x="32.6" y="184.14" width="129.65" height="27.44"/><path class="d" d="M87.11,196.37h-1l2.87-6.7h1Z"/><path class="d" d="M92.39,190.45H91.21v-.78h2.21v5h1.21v.78H91.07v-.78h1.32Z"/><path class="d" d="M97,192.08H95.84v-.78h2.21v3.4h1.21v.78H95.7v-.78H97Zm1.12-1.92a.7.7,0,0,1,0,.25.77.77,0,0,1-.14.21.6.6,0,0,1-.21.14.7.7,0,0,1-.52,0,.6.6,0,0,1-.21-.14.77.77,0,0,1-.14-.21.7.7,0,0,1-.05-.25.75.75,0,0,1,.05-.26.77.77,0,0,1,.14-.21.6.6,0,0,1,.21-.14.7.7,0,0,1,.52,0,.6.6,0,0,1,.21.14.77.77,0,0,1,.14.21A.75.75,0,0,1,98.14,190.16Z"/><path class="d" d="M102.8,195.48v-2.72q0-.69-.51-.69a.7.7,0,0,0-.48.21,3.62,3.62,0,0,0-.5.56v2.64h-1V191.3h.87l0,.62a2.56,2.56,0,0,1,.27-.29,1.33,1.33,0,0,1,.3-.23,1.28,1.28,0,0,1,.34-.14,1.79,1.79,0,0,1,.42,0,1.4,1.4,0,0,1,.56.11,1.18,1.18,0,0,1,.4.29,1.54,1.54,0,0,1,.24.46,2.25,2.25,0,0,1,.08.61v2.8Z"/><path class="d" d="M108.59,193.07c0,.07,0,.16,0,.27a3,3,0,0,1,0,.31h-2.75a1.21,1.21,0,0,0,.09.48.88.88,0,0,0,.24.36,1,1,0,0,0,.37.21,1.4,1.4,0,0,0,.47.08,5.14,5.14,0,0,0,.66-.05,4.08,4.08,0,0,0,.72-.16v.8l-.35.09-.39.06-.4,0-.39,0a2.48,2.48,0,0,1-.85-.14,1.66,1.66,0,0,1-.65-.4,1.75,1.75,0,0,1-.4-.66,2.74,2.74,0,0,1-.14-.9,3,3,0,0,1,.14-.93,2.1,2.1,0,0,1,.4-.72,1.8,1.8,0,0,1,.62-.46,2.09,2.09,0,0,1,.81-.16,2.05,2.05,0,0,1,.78.14,1.67,1.67,0,0,1,.58.38,1.74,1.74,0,0,1,.35.59A2.27,2.27,0,0,1,108.59,193.07Zm-1-.14a1,1,0,0,0-.06-.43.69.69,0,0,0-.18-.3.68.68,0,0,0-.26-.18.87.87,0,0,0-.32-.06.81.81,0,0,0-.62.25,1.13,1.13,0,0,0-.29.72Z"/><path class="b" d="M54.65,207.23V199.6h2.17v.78H55.58v6.07h1.24v.78Z"/><path class="b" d="M62.25,203.19c0,.06,0,.15,0,.26a2.85,2.85,0,0,1,0,.31H59.47a1.22,1.22,0,0,0,.09.49.93.93,0,0,0,.23.35,1.19,1.19,0,0,0,.38.22,1.41,1.41,0,0,0,.47.07,5.28,5.28,0,0,0,.66,0,5.14,5.14,0,0,0,.72-.15v.8l-.35.08c-.13,0-.26.05-.39.06l-.4.05h-.39a2.49,2.49,0,0,1-.85-.13,1.78,1.78,0,0,1-.65-.4,1.83,1.83,0,0,1-.4-.66,2.76,2.76,0,0,1-.14-.91,2.91,2.91,0,0,1,.14-.92A2.1,2.1,0,0,1,59,202a1.68,1.68,0,0,1,.62-.46,1.92,1.92,0,0,1,.81-.16,2.09,2.09,0,0,1,.78.13,1.69,1.69,0,0,1,.58.39,1.65,1.65,0,0,1,.35.59A2.23,2.23,0,0,1,62.25,203.19Zm-1-.15a1,1,0,0,0-.06-.43.75.75,0,0,0-.18-.3.68.68,0,0,0-.26-.18.86.86,0,0,0-.32,0,.81.81,0,0,0-.62.25,1.1,1.1,0,0,0-.29.71Z"/><path class="b" d="M65.93,205.6l-1-1.41-1,1.41H62.8l1.57-2.11-1.49-2.07h1.23l.93,1.37.93-1.37H67.1l-1.44,2.06,1.52,2.12Z"/><path class="b" d="M70.49,205.6l0-.55a3.45,3.45,0,0,1-.28.26,1.65,1.65,0,0,1-.31.2,1.71,1.71,0,0,1-.38.13,1.64,1.64,0,0,1-.45.05,1.6,1.6,0,0,1-.56-.09,1.17,1.17,0,0,1-.41-.27,1.09,1.09,0,0,1-.25-.4,1.78,1.78,0,0,1-.08-.53,1.26,1.26,0,0,1,.12-.55,1.22,1.22,0,0,1,.39-.43,2,2,0,0,1,.64-.28,3.41,3.41,0,0,1,.9-.11h.55v-.25a.93.93,0,0,0,0-.29.64.64,0,0,0-.14-.22.92.92,0,0,0-.26-.14,1.5,1.5,0,0,0-.4,0,3,3,0,0,0-.73.09,3.58,3.58,0,0,0-.7.23v-.8a4.58,4.58,0,0,1,.7-.2,4.28,4.28,0,0,1,.81-.07,3.66,3.66,0,0,1,.8.08,1.42,1.42,0,0,1,.55.27,1.07,1.07,0,0,1,.32.44,1.72,1.72,0,0,1,.1.62v2.86Zm-.14-1.85h-.61a1.84,1.84,0,0,0-.44.05.91.91,0,0,0-.28.13.63.63,0,0,0-.17.2.7.7,0,0,0,0,.25.46.46,0,0,0,.17.38.68.68,0,0,0,.44.14.8.8,0,0,0,.44-.15,3.66,3.66,0,0,0,.5-.44Z"/><path class="b" d="M75.46,205.6v-2.85c0-.1,0-.2,0-.27a.88.88,0,0,0,0-.2.24.24,0,0,0-.07-.12.22.22,0,0,0-.13,0,.33.33,0,0,0-.25.18,3,3,0,0,0-.28.59v2.71h-.86v-2.85a2.18,2.18,0,0,0,0-.27.56.56,0,0,0,0-.2.35.35,0,0,0-.07-.12.28.28,0,0,0-.13,0q-.12,0-.24.18a2.4,2.4,0,0,0-.3.59v2.71h-.86v-4.18h.74l0,.61a2.28,2.28,0,0,1,.18-.32,1,1,0,0,1,.19-.22.94.94,0,0,1,.22-.12,1.1,1.1,0,0,1,.27,0,.73.73,0,0,1,.53.19.8.8,0,0,1,.21.51,2.25,2.25,0,0,1,.19-.32,1.49,1.49,0,0,1,.21-.22.94.94,0,0,1,.22-.12,1.1,1.1,0,0,1,.27,0,.78.78,0,0,1,.68.32,1.76,1.76,0,0,1,.21.95v3Z"/><path class="b" d="M80.9,203.43a2.72,2.72,0,0,1-.16,1,1.78,1.78,0,0,1-1.14,1.11,2.63,2.63,0,0,1-.86.13,1.62,1.62,0,0,1-.31,0l-.29-.05v1.63h-1v-5.81H78l0,.61.27-.29a1.53,1.53,0,0,1,.64-.36,1.38,1.38,0,0,1,.42,0,1.59,1.59,0,0,1,.66.14,1.31,1.31,0,0,1,.48.43,2,2,0,0,1,.3.66A3.35,3.35,0,0,1,80.9,203.43Zm-1.05,0a3.13,3.13,0,0,0,0-.58,1.16,1.16,0,0,0-.14-.4.63.63,0,0,0-.23-.23.62.62,0,0,0-.31-.07.68.68,0,0,0-.48.2,4.15,4.15,0,0,0-.5.56v1.83a1.67,1.67,0,0,0,.3.07,2,2,0,0,0,.35,0,.92.92,0,0,0,.44-.1.88.88,0,0,0,.33-.28,1.38,1.38,0,0,0,.21-.44A2.1,2.1,0,0,0,79.85,203.47Z"/><path class="b" d="M83.12,200.56H81.94v-.78h2.21v5h1.21v.78H81.8v-.78h1.32Z"/><path class="b" d="M90.05,203.19c0,.06,0,.15,0,.26a2.85,2.85,0,0,1,0,.31H87.28a1.23,1.23,0,0,0,.08.49,1.09,1.09,0,0,0,.24.35,1.14,1.14,0,0,0,.37.22,1.43,1.43,0,0,0,.48.07,5.4,5.4,0,0,0,1.37-.2v.8l-.35.08c-.12,0-.25.05-.38.06l-.4.05H88.3a2.55,2.55,0,0,1-.86-.13,1.74,1.74,0,0,1-.64-.4,1.7,1.7,0,0,1-.4-.66,2.52,2.52,0,0,1-.14-.91,2.65,2.65,0,0,1,.14-.92,2.08,2.08,0,0,1,.39-.72,1.76,1.76,0,0,1,.62-.46,1.92,1.92,0,0,1,.81-.16,2.15,2.15,0,0,1,.79.13,1.56,1.56,0,0,1,.57.39,1.65,1.65,0,0,1,.35.59A2.23,2.23,0,0,1,90.05,203.19ZM89,203a1.4,1.4,0,0,0-.06-.43,1.09,1.09,0,0,0-.18-.3.71.71,0,0,0-.27-.18.83.83,0,0,0-.32,0,.81.81,0,0,0-.62.25,1.16,1.16,0,0,0-.29.71Z"/><path class="b" d="M90.47,207.29v-.8H95.1v.8Z"/><path class="b" d="M98.63,205.6v-2.85c0-.1,0-.2,0-.27a.88.88,0,0,0,0-.2.24.24,0,0,0-.07-.12.22.22,0,0,0-.13,0,.33.33,0,0,0-.25.18,3,3,0,0,0-.28.59v2.71H97v-2.85a2.18,2.18,0,0,0,0-.27.56.56,0,0,0,0-.2.35.35,0,0,0-.07-.12.29.29,0,0,0-.14,0c-.07,0-.15.06-.23.18a2.4,2.4,0,0,0-.3.59v2.71h-.86v-4.18h.74l0,.61a2.28,2.28,0,0,1,.18-.32,1,1,0,0,1,.19-.22.94.94,0,0,1,.22-.12,1.1,1.1,0,0,1,.27,0,.73.73,0,0,1,.53.19.8.8,0,0,1,.21.51,2.25,2.25,0,0,1,.19-.32,2.3,2.3,0,0,1,.2-.22,1.27,1.27,0,0,1,.23-.12,1.1,1.1,0,0,1,.27,0,.78.78,0,0,1,.68.32,1.76,1.76,0,0,1,.21.95v3Z"/><path class="b" d="M103.76,204.37a1.18,1.18,0,0,1-.16.61,1.37,1.37,0,0,1-.42.41,1.82,1.82,0,0,1-.59.23,3.08,3.08,0,0,1-.68.07,7,7,0,0,1-.83,0,4.83,4.83,0,0,1-.7-.13v-.9a3.75,3.75,0,0,0,.77.23,3.83,3.83,0,0,0,.73.07,1.16,1.16,0,0,0,.59-.12.39.39,0,0,0,.19-.33.33.33,0,0,0,0-.17.53.53,0,0,0-.15-.15,1.62,1.62,0,0,0-.32-.15l-.54-.17a2.79,2.79,0,0,1-.54-.2,1.46,1.46,0,0,1-.39-.25,1.18,1.18,0,0,1-.23-.35,1.27,1.27,0,0,1-.07-.46,1.13,1.13,0,0,1,.11-.48,1.31,1.31,0,0,1,.35-.4,1.89,1.89,0,0,1,.57-.27,3.15,3.15,0,0,1,.8-.09,5,5,0,0,1,.7,0,3.42,3.42,0,0,1,.53.09v.82a4.71,4.71,0,0,0-.67-.17,4.4,4.4,0,0,0-.62,0,.93.93,0,0,0-.5.11.33.33,0,0,0-.18.31.47.47,0,0,0,0,.17.69.69,0,0,0,.15.14,2.06,2.06,0,0,0,.3.15c.13.05.31.1.52.16a4.21,4.21,0,0,1,.61.22,1.55,1.55,0,0,1,.4.27.84.84,0,0,1,.21.33A1.23,1.23,0,0,1,103.76,204.37Z"/><path class="b" d="M108.08,202.15a.88.88,0,0,1,.16.3,1.25,1.25,0,0,1,.05.32,1.49,1.49,0,0,1-.12.62,1.28,1.28,0,0,1-.34.45,1.56,1.56,0,0,1-.53.27,2.07,2.07,0,0,1-.68.1,1.68,1.68,0,0,1-.4-.05,1,1,0,0,1-.28-.1.61.61,0,0,0-.12.16.38.38,0,0,0,0,.19.31.31,0,0,0,0,.13l.1.12a.53.53,0,0,0,.15.08.65.65,0,0,0,.2,0l1,0a2.25,2.25,0,0,1,.61.08,1.31,1.31,0,0,1,.46.22.89.89,0,0,1,.3.34.93.93,0,0,1,.1.45,1.14,1.14,0,0,1-.13.55,1.22,1.22,0,0,1-.4.45,1.83,1.83,0,0,1-.66.3,3.14,3.14,0,0,1-.91.12,4.3,4.3,0,0,1-.87-.08,1.88,1.88,0,0,1-.6-.23.91.91,0,0,1-.46-.78,1.1,1.1,0,0,1,0-.27,1,1,0,0,1,.3-.45,1.43,1.43,0,0,1,.26-.22.81.81,0,0,1-.31-.3.72.72,0,0,1-.1-.38.75.75,0,0,1,0-.26,1.17,1.17,0,0,1,.09-.24l.14-.21a1.63,1.63,0,0,1,.17-.2,1.23,1.23,0,0,1-.26-.37,1.53,1.53,0,0,1,0-1.16,1.26,1.26,0,0,1,.35-.47,1.62,1.62,0,0,1,.52-.28,2.41,2.41,0,0,1,.67-.1l.36,0,.31.07h1.45v.73Zm-2.37,4a.37.37,0,0,0,.25.36,1.58,1.58,0,0,0,.69.12,1.65,1.65,0,0,0,.48-.06.94.94,0,0,0,.32-.14.41.41,0,0,0,.17-.2.5.5,0,0,0,.06-.24.28.28,0,0,0-.06-.18.29.29,0,0,0-.14-.13.63.63,0,0,0-.22-.08l-.28,0h-.88a1.75,1.75,0,0,0-.2.16.36.36,0,0,0-.11.14.47.47,0,0,0-.06.15A.77.77,0,0,0,105.71,206.15Zm.17-3.35a.67.67,0,0,0,.74.72.84.84,0,0,0,.33-.06.6.6,0,0,0,.22-.16.72.72,0,0,0,.14-.24.92.92,0,0,0,0-.29.73.73,0,0,0-.19-.54.74.74,0,0,0-.55-.2.66.66,0,0,0-.32.07.63.63,0,0,0-.23.16.66.66,0,0,0-.13.25A.93.93,0,0,0,105.88,202.8Z"/><path class="b" d="M113,204.37a1.18,1.18,0,0,1-.16.61,1.37,1.37,0,0,1-.42.41,1.87,1.87,0,0,1-.6.23,3,3,0,0,1-.67.07,6.88,6.88,0,0,1-.83,0,4.83,4.83,0,0,1-.7-.13v-.9a3.58,3.58,0,0,0,.77.23,3.83,3.83,0,0,0,.73.07,1.16,1.16,0,0,0,.59-.12.39.39,0,0,0,.19-.33.33.33,0,0,0,0-.17.53.53,0,0,0-.15-.15,2,2,0,0,0-.32-.15l-.54-.17a2.79,2.79,0,0,1-.54-.2,1.46,1.46,0,0,1-.39-.25,1,1,0,0,1-.23-.35,1.27,1.27,0,0,1-.07-.46,1.13,1.13,0,0,1,.11-.48,1.19,1.19,0,0,1,.35-.4,1.89,1.89,0,0,1,.57-.27,3.09,3.09,0,0,1,.8-.09,4.75,4.75,0,0,1,.69,0,3.36,3.36,0,0,1,.54.09v.82a4.71,4.71,0,0,0-.67-.17,4.4,4.4,0,0,0-.62,0,.93.93,0,0,0-.5.11.34.34,0,0,0-.19.31.47.47,0,0,0,0,.17.52.52,0,0,0,.15.14,2.06,2.06,0,0,0,.3.15c.13.05.3.1.52.16a4.21,4.21,0,0,1,.61.22,1.49,1.49,0,0,1,.39.27.87.87,0,0,1,.22.33A1.5,1.5,0,0,1,113,204.37Z"/><path class="b" d="M114.91,206.48h-1l2.87-6.7h1Z"/><path class="b" d="M119.08,205.6v-5.38h1v4.51h2.27v.87Z"/><path class="b" d="M124.83,202.2h-1.18v-.78h2.21v3.4h1.2v.78H123.5v-.78h1.33Zm1.11-1.93a.75.75,0,0,1,0,.26.6.6,0,0,1-.14.21,1.1,1.1,0,0,1-.21.14.66.66,0,0,1-.25.05.76.76,0,0,1-.27-.05,1.1,1.1,0,0,1-.21-.14.74.74,0,0,1-.13-.21.58.58,0,0,1-.05-.26.53.53,0,0,1,.05-.25.74.74,0,0,1,.13-.21.72.72,0,0,1,.48-.2.51.51,0,0,1,.25.06.64.64,0,0,1,.35.35A.7.7,0,0,1,125.94,200.27Z"/><path class="b" d="M130.61,205.6v-2.73c0-.45-.17-.68-.51-.68a.7.7,0,0,0-.49.2,3.56,3.56,0,0,0-.49.56v2.65h-1v-4.18H129l0,.61a3.58,3.58,0,0,1,.26-.29,1.29,1.29,0,0,1,.3-.22,1.35,1.35,0,0,1,.35-.14,1.32,1.32,0,0,1,.41,0,1.4,1.4,0,0,1,.56.1,1.08,1.08,0,0,1,.4.3,1.12,1.12,0,0,1,.24.46,2.23,2.23,0,0,1,.08.6v2.81Z"/><path class="b" d="M136.39,203.19c0,.06,0,.15,0,.26a2.85,2.85,0,0,1,0,.31h-2.74a1.23,1.23,0,0,0,.08.49,1.09,1.09,0,0,0,.24.35,1.14,1.14,0,0,0,.37.22,1.43,1.43,0,0,0,.48.07,5.4,5.4,0,0,0,1.37-.2v.8l-.35.08c-.12,0-.25.05-.38.06l-.4.05h-.39a2.55,2.55,0,0,1-.86-.13,1.74,1.74,0,0,1-.64-.4,1.85,1.85,0,0,1-.41-.66,2.77,2.77,0,0,1-.13-.91,2.92,2.92,0,0,1,.13-.92,2.28,2.28,0,0,1,.4-.72,1.76,1.76,0,0,1,.62-.46,1.92,1.92,0,0,1,.81-.16,2.15,2.15,0,0,1,.79.13,1.56,1.56,0,0,1,.57.39,1.65,1.65,0,0,1,.35.59A2.23,2.23,0,0,1,136.39,203.19Zm-1-.15a1.4,1.4,0,0,0-.06-.43,1.09,1.09,0,0,0-.18-.3.71.71,0,0,0-.27-.18.83.83,0,0,0-.32,0,.81.81,0,0,0-.62.25,1.16,1.16,0,0,0-.29.71Z"/><path class="b" d="M137.9,207.23v-.78h1.23v-6.07H137.9v-.78h2.15v7.63Z"/><rect class="f" x="183.93" y="184.14" width="129.65" height="27.44"/><path class="d" d="M238.44,195.2h-1l2.88-6.7h1Z"/><path class="d" d="M245.82,193.09a1.09,1.09,0,0,1-.16.61,1.18,1.18,0,0,1-.42.41,1.82,1.82,0,0,1-.59.23,3.08,3.08,0,0,1-.68.07,7.1,7.1,0,0,1-.83,0,5.1,5.1,0,0,1-.7-.13v-.9a3.84,3.84,0,0,0,.78.23,3.65,3.65,0,0,0,.72.07,1.16,1.16,0,0,0,.59-.12.4.4,0,0,0,.2-.33.34.34,0,0,0-.2-.32,1.38,1.38,0,0,0-.32-.15,5.13,5.13,0,0,0-.54-.17,3.39,3.39,0,0,1-.54-.2,1.57,1.57,0,0,1-.38-.25,1,1,0,0,1-.23-.35,1.26,1.26,0,0,1-.08-.46,1,1,0,0,1,.12-.48,1.27,1.27,0,0,1,.34-.4,1.67,1.67,0,0,1,.57-.26,2.78,2.78,0,0,1,.8-.1,4.9,4.9,0,0,1,.7,0c.2,0,.38.06.54.09V191a5.07,5.07,0,0,0-.67-.17,4.44,4.44,0,0,0-.63,0,.89.89,0,0,0-.49.11.36.36,0,0,0-.15.48.46.46,0,0,0,.14.14,3.06,3.06,0,0,0,.31.15l.51.16a3.82,3.82,0,0,1,.61.22,1.4,1.4,0,0,1,.4.27,1,1,0,0,1,.22.33A1.51,1.51,0,0,1,245.82,193.09Z"/><path class="d" d="M250.46,194.28l-.55.1-.52,0a2.84,2.84,0,0,1-.71-.08,1.26,1.26,0,0,1-.5-.27,1.17,1.17,0,0,1-.29-.45,2.08,2.08,0,0,1-.09-.65v-2h-1.12v-.78h1.12v-1.07l1-.27v1.34h1.63v.78h-1.63v2a.85.85,0,0,0,.16.54.74.74,0,0,0,.56.18,2.59,2.59,0,0,0,.48,0l.43-.1Z"/><path class="d" d="M255.41,192.19a2.94,2.94,0,0,1-.14.91,2.29,2.29,0,0,1-.4.7,1.85,1.85,0,0,1-.65.45,2.21,2.21,0,0,1-.87.16,2.47,2.47,0,0,1-.84-.13,1.64,1.64,0,0,1-.62-.41,1.77,1.77,0,0,1-.39-.67,3,3,0,0,1-.13-.95,2.58,2.58,0,0,1,.14-.9,1.8,1.8,0,0,1,.41-.7,1.85,1.85,0,0,1,.64-.45,2.41,2.41,0,0,1,.87-.15,2.37,2.37,0,0,1,.83.13,1.6,1.6,0,0,1,1,1.09A2.82,2.82,0,0,1,255.41,192.19Zm-1,0a1.67,1.67,0,0,0-.24-1,.86.86,0,0,0-.72-.33.88.88,0,0,0-.45.11.84.84,0,0,0-.31.28,1.13,1.13,0,0,0-.17.42,2.1,2.1,0,0,0-.06.51,1.53,1.53,0,0,0,.27,1,1,1,0,0,0,1.15.23.68.68,0,0,0,.3-.28,1.13,1.13,0,0,0,.17-.42A2.12,2.12,0,0,0,254.36,192.22Z"/><path class="d" d="M260,192.15a3,3,0,0,1-.16,1,1.9,1.9,0,0,1-.46.7,1.88,1.88,0,0,1-.68.41,2.67,2.67,0,0,1-.86.13,1.72,1.72,0,0,1-.32,0l-.28-.05V196h-1v-5.81h.86l0,.61a3.58,3.58,0,0,1,.26-.29,1.91,1.91,0,0,1,.3-.22,1.51,1.51,0,0,1,.35-.14,1.32,1.32,0,0,1,.41,0,1.53,1.53,0,0,1,.66.14,1.34,1.34,0,0,1,.49.43,1.81,1.81,0,0,1,.29.66A3.34,3.34,0,0,1,260,192.15Zm-1.06,0a2.45,2.45,0,0,0-.05-.58,1.16,1.16,0,0,0-.14-.4.55.55,0,0,0-.22-.23.62.62,0,0,0-.31-.07.77.77,0,0,0-.49.2,4.16,4.16,0,0,0-.49.56v1.83a1.77,1.77,0,0,0,.29.07,2.19,2.19,0,0,0,.36,0,.88.88,0,0,0,.43-.1.84.84,0,0,0,.34-.28,1.38,1.38,0,0,0,.21-.44A2.12,2.12,0,0,0,259,192.19Z"/><path class="b" d="M206,206.07v-7.64h2.17v.78h-1.24v6.07h1.24v.79Z"/><path class="b" d="M213.58,202c0,.07,0,.16,0,.27a3,3,0,0,1,0,.31H210.8a1.21,1.21,0,0,0,.09.48.79.79,0,0,0,.24.35.91.91,0,0,0,.37.22,1.43,1.43,0,0,0,.48.07,5,5,0,0,0,.65,0,5.23,5.23,0,0,0,.72-.16v.8l-.35.08-.39.07-.39,0-.4,0a2.52,2.52,0,0,1-.85-.14,1.62,1.62,0,0,1-.64-.4,1.85,1.85,0,0,1-.41-.66,2.74,2.74,0,0,1-.14-.9,3,3,0,0,1,.14-.93,2.28,2.28,0,0,1,.4-.72,1.68,1.68,0,0,1,.62-.46,1.92,1.92,0,0,1,.81-.16,2.14,2.14,0,0,1,.79.14,1.73,1.73,0,0,1,.57.38,1.74,1.74,0,0,1,.35.59A2.27,2.27,0,0,1,213.58,202Zm-1-.14a1.35,1.35,0,0,0-.06-.43,1.15,1.15,0,0,0-.18-.31.77.77,0,0,0-.27-.17.87.87,0,0,0-.32-.06.81.81,0,0,0-.62.25,1.19,1.19,0,0,0-.29.72Z"/><path class="b" d="M217.26,204.43l-.95-1.4-1,1.4h-1.22l1.57-2.1-1.48-2.08h1.22l.94,1.38.92-1.38h1.13L217,202.32l1.52,2.11Z"/><path class="b" d="M221.82,204.43l0-.54-.28.25a1.69,1.69,0,0,1-.31.21,2.12,2.12,0,0,1-.38.13,2,2,0,0,1-.45.05,1.4,1.4,0,0,1-.56-.1,1.15,1.15,0,0,1-.41-.26,1.13,1.13,0,0,1-.25-.41,1.72,1.72,0,0,1-.08-.52,1.14,1.14,0,0,1,.13-.55,1.11,1.11,0,0,1,.38-.43,1.8,1.8,0,0,1,.64-.29,3.49,3.49,0,0,1,.9-.1h.55v-.25a.85.85,0,0,0,0-.29.48.48,0,0,0-.15-.22.72.72,0,0,0-.26-.14,1.18,1.18,0,0,0-.4-.05,3.63,3.63,0,0,0-.73.08,4,4,0,0,0-.69.24v-.8a3.78,3.78,0,0,1,.69-.2,4.3,4.3,0,0,1,.82-.08,3,3,0,0,1,.79.09,1.48,1.48,0,0,1,.55.26,1,1,0,0,1,.32.45,1.64,1.64,0,0,1,.11.62v2.85Zm-.14-1.85h-.61a1.69,1.69,0,0,0-.43,0,.87.87,0,0,0-.29.14.43.43,0,0,0-.16.2.52.52,0,0,0,.11.63.69.69,0,0,0,.45.13.77.77,0,0,0,.43-.15,3.08,3.08,0,0,0,.5-.44Z"/><path class="b" d="M226.79,204.43v-2.85a2.26,2.26,0,0,0,0-.27c0-.08,0-.14,0-.19a.18.18,0,0,0-.08-.12.17.17,0,0,0-.13,0c-.08,0-.16.06-.25.17a3.32,3.32,0,0,0-.28.59v2.71h-.86v-3.12a.78.78,0,0,0,0-.19A.18.18,0,0,0,225,201a.18.18,0,0,0-.13,0c-.07,0-.15.06-.24.17a2.28,2.28,0,0,0-.29.59v2.71h-.87v-4.18h.74l0,.61a3,3,0,0,1,.18-.32,1.33,1.33,0,0,1,.19-.21.6.6,0,0,1,.22-.12.77.77,0,0,1,.27,0,.72.72,0,0,1,.53.18.8.8,0,0,1,.21.51,3,3,0,0,1,.2-.32,1,1,0,0,1,.2-.21.53.53,0,0,1,.22-.12.77.77,0,0,1,.27,0,.75.75,0,0,1,.68.32,1.72,1.72,0,0,1,.22.94v3Z"/><path class="b" d="M232.23,202.27a2.71,2.71,0,0,1-.16,1,1.92,1.92,0,0,1-.45.7,1.79,1.79,0,0,1-.69.41,2.63,2.63,0,0,1-.86.14l-.31,0-.28-.06v1.64h-1v-5.82h.87l0,.62a2.56,2.56,0,0,1,.27-.29,1.33,1.33,0,0,1,.3-.23,1.43,1.43,0,0,1,.34-.14,1.86,1.86,0,0,1,.42-.05,1.4,1.4,0,0,1,.66.15,1.38,1.38,0,0,1,.48.42,2,2,0,0,1,.3.66A3.38,3.38,0,0,1,232.23,202.27Zm-1,0a3.25,3.25,0,0,0-.05-.59,1.34,1.34,0,0,0-.14-.4.63.63,0,0,0-.23-.23.6.6,0,0,0-.3-.07.72.72,0,0,0-.49.21,2.83,2.83,0,0,0-.49.56v1.82a1.48,1.48,0,0,0,.29.08,2.1,2.1,0,0,0,.36,0,1,1,0,0,0,.43-.1,1,1,0,0,0,.33-.28,1.21,1.21,0,0,0,.22-.44A2.65,2.65,0,0,0,231.18,202.31Z"/><path class="b" d="M234.46,199.4h-1.19v-.78h2.21v5h1.21v.78h-3.56v-.78h1.33Z"/><path class="b" d="M241.38,202v.27c0,.11,0,.21,0,.31h-2.75a1.42,1.42,0,0,0,.08.48,1,1,0,0,0,.61.57,1.47,1.47,0,0,0,.48.07,5,5,0,0,0,.65,0,5.35,5.35,0,0,0,.73-.16v.8l-.35.08-.39.07-.4,0-.39,0a2.54,2.54,0,0,1-.86-.14,1.65,1.65,0,0,1-1-1.06,2.5,2.5,0,0,1-.14-.9,2.75,2.75,0,0,1,.14-.93,2.08,2.08,0,0,1,.39-.72,1.76,1.76,0,0,1,.62-.46,2,2,0,0,1,.81-.16,2.14,2.14,0,0,1,.79.14,1.54,1.54,0,0,1,.57.38,1.6,1.6,0,0,1,.35.59A2.27,2.27,0,0,1,241.38,202Zm-1-.14a1.35,1.35,0,0,0-.06-.43.79.79,0,0,0-.18-.31.73.73,0,0,0-.26-.17.88.88,0,0,0-.33-.06.81.81,0,0,0-.62.25,1.19,1.19,0,0,0-.29.72Z"/><path class="b" d="M241.8,206.12v-.79h4.64v.79Z"/><path class="b" d="M250,204.43v-2.85a2.26,2.26,0,0,0,0-.27c0-.08,0-.14,0-.19a.18.18,0,0,0-.08-.12.16.16,0,0,0-.12,0c-.09,0-.17.06-.26.17a3.32,3.32,0,0,0-.28.59v2.71h-.86v-3.12a.78.78,0,0,0,0-.19.18.18,0,0,0-.07-.12.18.18,0,0,0-.13,0c-.07,0-.15.06-.24.17a2.28,2.28,0,0,0-.29.59v2.71h-.87v-4.18h.74l0,.61a3,3,0,0,1,.18-.32,1.33,1.33,0,0,1,.19-.21.6.6,0,0,1,.22-.12.77.77,0,0,1,.27,0,.72.72,0,0,1,.53.18.8.8,0,0,1,.21.51,3,3,0,0,1,.2-.32,1,1,0,0,1,.2-.21.53.53,0,0,1,.22-.12.77.77,0,0,1,.27,0,.75.75,0,0,1,.68.32,1.72,1.72,0,0,1,.22.94v3Z"/><path class="b" d="M255.09,203.2a1.09,1.09,0,0,1-.16.61,1.1,1.1,0,0,1-.42.41,1.83,1.83,0,0,1-.59.24,3.82,3.82,0,0,1-.68.07,6.86,6.86,0,0,1-.83-.05,4.86,4.86,0,0,1-.7-.12v-.91a4,4,0,0,0,.77.24,4.85,4.85,0,0,0,.73.07,1.05,1.05,0,0,0,.59-.13.38.38,0,0,0,.2-.33.34.34,0,0,0-.05-.17.35.35,0,0,0-.15-.15,1.62,1.62,0,0,0-.32-.15l-.54-.17a3.4,3.4,0,0,1-.54-.19,1.58,1.58,0,0,1-.38-.26.86.86,0,0,1-.23-.34,1.3,1.3,0,0,1-.08-.46,1.12,1.12,0,0,1,.46-.88,1.51,1.51,0,0,1,.57-.27,2.73,2.73,0,0,1,.8-.1,4.9,4.9,0,0,1,.7,0l.54.09v.82a5.07,5.07,0,0,0-.68-.16,4.32,4.32,0,0,0-.62,0,1,1,0,0,0-.49.11.35.35,0,0,0-.19.31.47.47,0,0,0,0,.17.41.41,0,0,0,.15.14,1.5,1.5,0,0,0,.31.15l.51.17a3.82,3.82,0,0,1,.61.22,1.38,1.38,0,0,1,.4.26.81.81,0,0,1,.21.34A1.18,1.18,0,0,1,255.09,203.2Z"/><path class="b" d="M259.41,201a.84.84,0,0,1,.16.31.86.86,0,0,1,.05.32,1.52,1.52,0,0,1-.12.62,1.25,1.25,0,0,1-.34.45,1.47,1.47,0,0,1-.53.27,2.36,2.36,0,0,1-.67.09,1.78,1.78,0,0,1-.41,0,1,1,0,0,1-.28-.1l-.12.15a.41.41,0,0,0,0,.19.25.25,0,0,0,0,.14.31.31,0,0,0,.09.11.83.83,0,0,0,.16.09.54.54,0,0,0,.19,0l1,0a2.22,2.22,0,0,1,.6.09,1.5,1.5,0,0,1,.46.21,1,1,0,0,1,.41.8,1.21,1.21,0,0,1-.14.55,1.27,1.27,0,0,1-.39.45,2,2,0,0,1-.66.3,3.63,3.63,0,0,1-.92.11,4.3,4.3,0,0,1-.87-.08,2.09,2.09,0,0,1-.6-.22,1,1,0,0,1-.34-.35.82.82,0,0,1-.11-.44,1.09,1.09,0,0,1,0-.26,1.08,1.08,0,0,1,.12-.24,1.16,1.16,0,0,1,.18-.22,2,2,0,0,1,.26-.21.86.86,0,0,1-.3-.3.77.77,0,0,1-.11-.39.75.75,0,0,1,0-.26.94.94,0,0,1,.1-.23,1.07,1.07,0,0,1,.13-.21l.17-.21a1.38,1.38,0,0,1-.26-.36,1.46,1.46,0,0,1-.1-.55,1.52,1.52,0,0,1,.13-.62,1.23,1.23,0,0,1,.35-.46,1.35,1.35,0,0,1,.53-.28,2.51,2.51,0,0,1,1-.08,1.42,1.42,0,0,1,.31.06h1.45V201Zm-2.36,4a.38.38,0,0,0,.24.36,1.77,1.77,0,0,0,.69.11,2.14,2.14,0,0,0,.48-.05,1.06,1.06,0,0,0,.32-.14.67.67,0,0,0,.18-.2.69.69,0,0,0,.05-.24.36.36,0,0,0-.05-.19.49.49,0,0,0-.15-.13.93.93,0,0,0-.22-.08l-.27,0-.89,0-.19.16a.79.79,0,0,0-.12.15.35.35,0,0,0-.06.14A.81.81,0,0,0,257.05,205Zm.16-3.36a.71.71,0,0,0,.2.53.74.74,0,0,0,.55.2.79.79,0,0,0,.32-.06.66.66,0,0,0,.23-.17.7.7,0,0,0,.13-.24.87.87,0,0,0,.05-.28.76.76,0,0,0-.2-.55.73.73,0,0,0-.54-.19.84.84,0,0,0-.33.06.62.62,0,0,0-.22.17.58.58,0,0,0-.14.24A1,1,0,0,0,257.21,201.63Z"/><path class="b" d="M264.36,203.2a1.09,1.09,0,0,1-.16.61,1.18,1.18,0,0,1-.42.41,1.83,1.83,0,0,1-.59.24,3.82,3.82,0,0,1-.68.07,6.86,6.86,0,0,1-.83-.05,4.86,4.86,0,0,1-.7-.12v-.91a4,4,0,0,0,.77.24,4.85,4.85,0,0,0,.73.07,1.05,1.05,0,0,0,.59-.13.37.37,0,0,0,.19-.33.33.33,0,0,0,0-.17.42.42,0,0,0-.15-.15,1.62,1.62,0,0,0-.32-.15l-.54-.17a2.81,2.81,0,0,1-.54-.19,1.65,1.65,0,0,1-.39-.26,1,1,0,0,1-.22-.34,1.11,1.11,0,0,1-.08-.46,1,1,0,0,1,.46-.88,1.51,1.51,0,0,1,.57-.27,2.73,2.73,0,0,1,.8-.1,5,5,0,0,1,.7,0l.54.09v.82a5.07,5.07,0,0,0-.68-.16,4.32,4.32,0,0,0-.62,0,1,1,0,0,0-.5.11.36.36,0,0,0-.18.31.47.47,0,0,0,0,.17.41.41,0,0,0,.15.14,1.38,1.38,0,0,0,.3.15l.52.17a4.21,4.21,0,0,1,.61.22,1.54,1.54,0,0,1,.4.26.81.81,0,0,1,.21.34A1.18,1.18,0,0,1,264.36,203.2Z"/><path class="b" d="M266.24,205.32h-1l2.87-6.7h1Z"/><path class="b" d="M273.8,202.81a1.64,1.64,0,0,1-.16.76,1.48,1.48,0,0,1-.45.54,1.94,1.94,0,0,1-.7.31,3.48,3.48,0,0,1-.88.11,7.22,7.22,0,0,1-.82-.05,4.36,4.36,0,0,1-.78-.17v-1c.12.05.26.09.39.13l.42.1.41.07.4,0a2.24,2.24,0,0,0,.49,0,1.26,1.26,0,0,0,.33-.13.51.51,0,0,0,.18-.21.58.58,0,0,0,.06-.26.53.53,0,0,0-.11-.34,1.48,1.48,0,0,0-.3-.23,2.76,2.76,0,0,0-.42-.19l-.48-.17c-.17-.07-.33-.14-.48-.22a2.16,2.16,0,0,1-.43-.29,1.3,1.3,0,0,1-.29-.43,1.32,1.32,0,0,1-.12-.59,1.53,1.53,0,0,1,.12-.6,1.23,1.23,0,0,1,.36-.49,1.65,1.65,0,0,1,.63-.34,2.88,2.88,0,0,1,.94-.13l.33,0,.35,0,.33.06.29.06v.93a1.4,1.4,0,0,0-.29-.09l-.32-.07a2,2,0,0,0-.34-.05l-.32,0a2.68,2.68,0,0,0-.45,0,1,1,0,0,0-.31.12.51.51,0,0,0-.17.19.53.53,0,0,0,0,.25.39.39,0,0,0,.11.29,1.46,1.46,0,0,0,.3.22l.42.18.49.18a4.31,4.31,0,0,1,.49.22,2,2,0,0,1,.42.3,1.6,1.6,0,0,1,.3.42A1.26,1.26,0,0,1,273.8,202.81Z"/><path class="b" d="M278.26,204.39a4.86,4.86,0,0,1-.55.1,4.92,4.92,0,0,1-.52,0,2.5,2.5,0,0,1-.71-.09,1.21,1.21,0,0,1-.49-.26,1.06,1.06,0,0,1-.29-.45,2.15,2.15,0,0,1-.09-.66v-2h-1.13v-.78h1.13v-1.07l1-.27v1.34h1.63V201h-1.63v2a.78.78,0,0,0,.17.54.71.71,0,0,0,.55.18,2.45,2.45,0,0,0,.48,0,4,4,0,0,0,.43-.09Z"/><path class="b" d="M283.21,202.31a2.83,2.83,0,0,1-.14.9,1.92,1.92,0,0,1-.4.7,1.79,1.79,0,0,1-.65.46,2.33,2.33,0,0,1-.87.16,2.37,2.37,0,0,1-.83-.14,1.55,1.55,0,0,1-.62-.4,2,2,0,0,1-.4-.68,3,3,0,0,1-.13-.94,2.9,2.9,0,0,1,.14-.91,2,2,0,0,1,.41-.69,1.65,1.65,0,0,1,.65-.45,2.13,2.13,0,0,1,.86-.16,2.47,2.47,0,0,1,.84.14,1.64,1.64,0,0,1,.62.41,1.77,1.77,0,0,1,.39.67A2.94,2.94,0,0,1,283.21,202.31Zm-1,0a1.61,1.61,0,0,0-.25-1,.83.83,0,0,0-.72-.33.88.88,0,0,0-.45.1.81.81,0,0,0-.3.28,1.33,1.33,0,0,0-.18.42,2.1,2.1,0,0,0-.06.51,1.54,1.54,0,0,0,.27,1,.86.86,0,0,0,.72.33.94.94,0,0,0,.43-.1.74.74,0,0,0,.3-.28,1.33,1.33,0,0,0,.18-.42A2.26,2.26,0,0,0,282.17,202.33Z"/><path class="b" d="M287.84,202.27a2.71,2.71,0,0,1-.16,1,1.92,1.92,0,0,1-.45.7,1.86,1.86,0,0,1-.69.41,2.63,2.63,0,0,1-.86.14l-.31,0-.29-.06v1.64h-1v-5.82H285l0,.62a2.56,2.56,0,0,1,.27-.29,1.33,1.33,0,0,1,.3-.23,1.28,1.28,0,0,1,.34-.14,1.79,1.79,0,0,1,.42-.05,1.45,1.45,0,0,1,.66.15,1.38,1.38,0,0,1,.48.42,2,2,0,0,1,.3.66A3.38,3.38,0,0,1,287.84,202.27Zm-1,0a3.25,3.25,0,0,0-.05-.59,1.34,1.34,0,0,0-.14-.4.63.63,0,0,0-.23-.23.62.62,0,0,0-.31-.07.7.7,0,0,0-.48.21,3.2,3.2,0,0,0-.5.56v1.82a1.6,1.6,0,0,0,.3.08,2.07,2.07,0,0,0,.35,0,1.05,1.05,0,0,0,.44-.1,1,1,0,0,0,.33-.28,1.38,1.38,0,0,0,.21-.44A2.16,2.16,0,0,0,286.79,202.31Z"/><path class="b" d="M289.23,206.07v-.79h1.23v-6.07h-1.23v-.78h2.15v7.64Z"/><rect class="e" x="377.9" y="185.13" width="90.87" height="27.44"/><path class="b" d="M410.7,196.2h-1l2.87-6.7h1Z"/><path class="b" d="M418.09,195.28a5.25,5.25,0,0,1-.55.09,3.2,3.2,0,0,1-.52,0,2.41,2.41,0,0,1-.71-.09,1.14,1.14,0,0,1-.5-.26,1.17,1.17,0,0,1-.29-.45,2.08,2.08,0,0,1-.09-.65v-2h-1.12v-.79h1.12v-1.06l1-.27v1.33h1.63v.79h-1.63v2a.88.88,0,0,0,.16.55.75.75,0,0,0,.56.18,3.88,3.88,0,0,0,.48,0l.43-.1Z"/><path class="b" d="M423,193.19a2.94,2.94,0,0,1-.14.91,2.12,2.12,0,0,1-.41.7,1.85,1.85,0,0,1-.64.45,2.23,2.23,0,0,1-.88.16,2.45,2.45,0,0,1-.83-.13,1.77,1.77,0,0,1-.62-.41,1.85,1.85,0,0,1-.39-.67,3.07,3.07,0,0,1-.13-.95,2.67,2.67,0,0,1,.14-.91,2,2,0,0,1,.4-.69,2,2,0,0,1,.65-.45,2.41,2.41,0,0,1,.87-.16,2.37,2.37,0,0,1,.83.14,1.57,1.57,0,0,1,.62.41,1.85,1.85,0,0,1,.39.67A2.93,2.93,0,0,1,423,193.19Zm-1.05,0a1.65,1.65,0,0,0-.24-1,1,1,0,0,0-1.17-.22.76.76,0,0,0-.31.28,1.13,1.13,0,0,0-.17.42,2,2,0,0,0-.06.51,1.59,1.59,0,0,0,.26,1,.88.88,0,0,0,.72.33.87.87,0,0,0,.44-.1.8.8,0,0,0,.3-.28,1.13,1.13,0,0,0,.17-.42A2.18,2.18,0,0,0,422,193.22Z"/><path class="b" d="M427.67,193.15a2.72,2.72,0,0,1-.17,1,1.66,1.66,0,0,1-.45.69,1.77,1.77,0,0,1-.68.42,2.67,2.67,0,0,1-.86.13l-.32,0-.28-.05V197h-1v-5.82h.86l0,.62a3.58,3.58,0,0,1,.26-.29,1.54,1.54,0,0,1,.3-.22,1.37,1.37,0,0,1,.35-.15,1.7,1.7,0,0,1,.41-.05,1.4,1.4,0,0,1,.66.15,1.51,1.51,0,0,1,.49.42,1.94,1.94,0,0,1,.29.67A3.34,3.34,0,0,1,427.67,193.15Zm-1.06,0a2.6,2.6,0,0,0-.05-.59,1.18,1.18,0,0,0-.14-.39.55.55,0,0,0-.22-.23.65.65,0,0,0-.31-.08.74.74,0,0,0-.49.21,3.61,3.61,0,0,0-.49.56v1.83a1.77,1.77,0,0,0,.29.07,2.19,2.19,0,0,0,.36,0,.88.88,0,0,0,.43-.1.91.91,0,0,0,.34-.28,1.38,1.38,0,0,0,.21-.44A2.12,2.12,0,0,0,426.61,193.19Z"/><path class="b" d="M429.89,191.92h-1.18v-.79h2.21v3.4h1.2v.79h-3.56v-.79h1.33ZM431,190a.75.75,0,0,1-.05.26.48.48,0,0,1-.14.2.6.6,0,0,1-.21.14.51.51,0,0,1-.25.06.63.63,0,0,1-.27-.06.6.6,0,0,1-.21-.14.66.66,0,0,1-.18-.46.53.53,0,0,1,.05-.25.74.74,0,0,1,.13-.21.61.61,0,0,1,.48-.2.66.66,0,0,1,.25,0,.8.8,0,0,1,.21.15.6.6,0,0,1,.14.21A.7.7,0,0,1,431,190Z"/><path class="b" d="M436.56,195.16a3.35,3.35,0,0,1-.62.17,3.52,3.52,0,0,1-.66.06,2.72,2.72,0,0,1-.89-.14,1.67,1.67,0,0,1-.67-.4,1.76,1.76,0,0,1-.43-.66,2.81,2.81,0,0,1-.14-.91,2.38,2.38,0,0,1,.16-.91,1.86,1.86,0,0,1,.44-.7,2,2,0,0,1,.7-.44,2.36,2.36,0,0,1,.9-.16,4.58,4.58,0,0,1,.69,0l.5.11v1a2.48,2.48,0,0,0-.56-.2,2.32,2.32,0,0,0-.56-.07,1.36,1.36,0,0,0-.51.09,1.11,1.11,0,0,0-.37.27,1.09,1.09,0,0,0-.23.41,1.48,1.48,0,0,0-.08.53,1.44,1.44,0,0,0,.08.53,1.13,1.13,0,0,0,.25.41,1,1,0,0,0,.38.26,1.53,1.53,0,0,0,.49.08h.28l.29-.06.29-.08.27-.1Z"/><path class="g" d="M401.42,207.06v-7.63h2.16v.78h-1.24v6.07h1.24v.78Z"/><path class="g" d="M408.32,205.43v-2.85a2.26,2.26,0,0,0,0-.27,1.06,1.06,0,0,0,0-.2.23.23,0,0,0-.07-.11.2.2,0,0,0-.13,0,.3.3,0,0,0-.25.17,2.33,2.33,0,0,0-.28.59v2.71h-.86v-2.85c0-.1,0-.19,0-.27a1,1,0,0,0,0-.2.18.18,0,0,0-.07-.11.18.18,0,0,0-.13,0c-.07,0-.15,0-.24.17a2.67,2.67,0,0,0-.29.59v2.71H405v-4.18h.75v.61a3,3,0,0,1,.18-.32.81.81,0,0,1,.2-.21.61.61,0,0,1,.22-.13,1,1,0,0,1,.26,0,.72.72,0,0,1,.53.18.71.71,0,0,1,.21.51,3,3,0,0,1,.2-.32.81.81,0,0,1,.2-.21.65.65,0,0,1,.23-.13,1.09,1.09,0,0,1,.26,0,.74.74,0,0,1,.68.32,1.61,1.61,0,0,1,.22.94v3Z"/><path class="g" d="M413.45,204.2a1.09,1.09,0,0,1-.16.61,1.1,1.1,0,0,1-.42.41,1.62,1.62,0,0,1-.59.23,3.08,3.08,0,0,1-.68.08,7,7,0,0,1-.83-.05c-.24,0-.48-.07-.7-.12v-.91a3.36,3.36,0,0,0,.77.23,3.88,3.88,0,0,0,.73.08,1.15,1.15,0,0,0,.59-.13.38.38,0,0,0,.2-.33.34.34,0,0,0-.2-.32,1.38,1.38,0,0,0-.32-.15,5.13,5.13,0,0,0-.54-.17,4.8,4.8,0,0,1-.54-.19,1.58,1.58,0,0,1-.38-.26.93.93,0,0,1-.23-.35,1.25,1.25,0,0,1-.08-.45,1.07,1.07,0,0,1,.12-.49,1.14,1.14,0,0,1,.34-.39,1.51,1.51,0,0,1,.57-.27,2.78,2.78,0,0,1,.8-.1,4.9,4.9,0,0,1,.7,0l.54.09v.82a3.8,3.8,0,0,0-.67-.16,4.46,4.46,0,0,0-.63,0,1,1,0,0,0-.49.11.34.34,0,0,0-.19.31.33.33,0,0,0,0,.17.31.31,0,0,0,.14.14,1.8,1.8,0,0,0,.31.15l.51.17a2.83,2.83,0,0,1,.61.22,1.21,1.21,0,0,1,.4.26,1,1,0,0,1,.22.34A1.4,1.4,0,0,1,413.45,204.2Z"/><path class="g" d="M417.77,202a1.14,1.14,0,0,1,.17.3,1.24,1.24,0,0,1,0,.33,1.44,1.44,0,0,1-.12.61,1.17,1.17,0,0,1-.34.45,1.49,1.49,0,0,1-.53.28,2.36,2.36,0,0,1-.67.09,1.78,1.78,0,0,1-.41,0,1.73,1.73,0,0,1-.28-.1,1,1,0,0,0-.12.15.41.41,0,0,0-.05.19.28.28,0,0,0,0,.13.27.27,0,0,0,.09.12.8.8,0,0,0,.16.08.42.42,0,0,0,.2,0l1,0a2.23,2.23,0,0,1,.6.08,1.41,1.41,0,0,1,.46.22,1,1,0,0,1,.3.34.94.94,0,0,1,.11.45,1.27,1.27,0,0,1-.13.55,1.25,1.25,0,0,1-.4.46,2.52,2.52,0,0,1-.66.3,3.63,3.63,0,0,1-.92.11,4.3,4.3,0,0,1-.87-.08,1.83,1.83,0,0,1-.6-.23.88.88,0,0,1-.45-.78.84.84,0,0,1,0-.27.7.7,0,0,1,.11-.23,1.24,1.24,0,0,1,.18-.22l.26-.22a.79.79,0,0,1-.41-.68,1.09,1.09,0,0,1,0-.26.94.94,0,0,1,.1-.23,1.59,1.59,0,0,1,.13-.22l.17-.2a1.1,1.1,0,0,1-.25-.37,1.21,1.21,0,0,1-.1-.54,1.52,1.52,0,0,1,.12-.62,1.23,1.23,0,0,1,.35-.46,1.51,1.51,0,0,1,.53-.29,2.36,2.36,0,0,1,.67-.09,2,2,0,0,1,.35,0,1.31,1.31,0,0,1,.31.06h1.45V202Zm-2.36,4a.36.36,0,0,0,.24.35,1.61,1.61,0,0,0,.69.12,2.14,2.14,0,0,0,.48-.05,1.39,1.39,0,0,0,.32-.14.52.52,0,0,0,.23-.44.36.36,0,0,0-.05-.19.38.38,0,0,0-.15-.13,1,1,0,0,0-.21-.08,2.4,2.4,0,0,0-.28,0l-.89,0-.19.16-.12.14a.47.47,0,0,0-.06.15A.81.81,0,0,0,415.41,206Zm.17-3.36a.72.72,0,0,0,.19.53.74.74,0,0,0,.55.2.66.66,0,0,0,.32-.07.63.63,0,0,0,.23-.16.7.7,0,0,0,.13-.24.87.87,0,0,0,.05-.28.74.74,0,0,0-.2-.55.73.73,0,0,0-.54-.19.76.76,0,0,0-.32.06.67.67,0,0,0-.23.16.89.89,0,0,0-.14.25A.92.92,0,0,0,415.58,202.63Z"/><path class="g" d="M418.7,207.12v-.8h4.63v.8Z"/><path class="g" d="M427.35,205.39l-.54.1a5.11,5.11,0,0,1-.53,0,2.5,2.5,0,0,1-.71-.09,1.43,1.43,0,0,1-.49-.26,1,1,0,0,1-.29-.46,2,2,0,0,1-.09-.65v-2h-1.12v-.78h1.12v-1.07l1-.27v1.34h1.62V202h-1.62v2a.77.77,0,0,0,.16.54.73.73,0,0,0,.55.18,2.63,2.63,0,0,0,.49,0l.42-.09Z"/><path class="g" d="M431.05,205a6.65,6.65,0,0,1-.45,1,3.12,3.12,0,0,1-.52.68,2,2,0,0,1-.63.41,2.21,2.21,0,0,1-.78.14h-.23l-.25,0v-.85h.12l.13,0h.28a.88.88,0,0,0,.32-.07,1,1,0,0,0,.27-.18,2.15,2.15,0,0,0,.23-.28,2,2,0,0,0,.18-.36l-1.66-4.18h1.12l.87,2.37.26.77.25-.74.88-2.4h1.08Z"/><path class="g" d="M436.93,203.27a2.71,2.71,0,0,1-.16,1,2,2,0,0,1-.45.7,1.92,1.92,0,0,1-.69.41,2.63,2.63,0,0,1-.86.13,1.67,1.67,0,0,1-.31,0l-.28,0v1.63h-1v-5.81H434l0,.62a2.55,2.55,0,0,1,.26-.3,1.66,1.66,0,0,1,.3-.22,1.35,1.35,0,0,1,.35-.14,1.7,1.7,0,0,1,.41-.05,1.4,1.4,0,0,1,.66.15,1.38,1.38,0,0,1,.48.42,2,2,0,0,1,.3.66A3.38,3.38,0,0,1,436.93,203.27Zm-1.05,0a3.25,3.25,0,0,0-.05-.59,1.24,1.24,0,0,0-.14-.4.56.56,0,0,0-.23-.23.6.6,0,0,0-.3-.07.75.75,0,0,0-.49.2,3.56,3.56,0,0,0-.49.56v1.83a1.48,1.48,0,0,0,.29.08,2.17,2.17,0,0,0,.36,0,1,1,0,0,0,.43-.09,1,1,0,0,0,.33-.28,1.26,1.26,0,0,0,.22-.45A2.1,2.1,0,0,0,435.88,203.31Z"/><path class="g" d="M441.45,203c0,.07,0,.16,0,.27a2.66,2.66,0,0,1,0,.3h-2.75a1.22,1.22,0,0,0,.09.49.88.88,0,0,0,.24.35.91.91,0,0,0,.37.22,1.43,1.43,0,0,0,.48.07,5,5,0,0,0,.65,0,7.27,7.27,0,0,0,.72-.16v.8l-.35.08-.38.07-.4,0-.39,0a2.54,2.54,0,0,1-.86-.14,1.62,1.62,0,0,1-.64-.4,1.85,1.85,0,0,1-.41-.66,2.74,2.74,0,0,1-.14-.9,3,3,0,0,1,.14-.93,2.28,2.28,0,0,1,.4-.72,1.76,1.76,0,0,1,.62-.46,1.92,1.92,0,0,1,.81-.16,2.14,2.14,0,0,1,.79.14,1.63,1.63,0,0,1,.57.38,1.74,1.74,0,0,1,.35.59A2.27,2.27,0,0,1,441.45,203Zm-1-.14a1.35,1.35,0,0,0-.06-.43,1,1,0,0,0-.18-.31.65.65,0,0,0-.27-.17.83.83,0,0,0-.32-.06.81.81,0,0,0-.62.25,1.19,1.19,0,0,0-.29.72Z"/><path class="g" d="M443,207.06v-.78h1.23v-6.07H443v-.78h2.15v7.63Z"/><line class="h" x1="348.52" y1="49.3" x2="348.52" y2="52.3"/><line class="i" x1="348.52" y1="58.39" x2="348.52" y2="347.84"/><line class="h" x1="348.52" y1="350.89" x2="348.52" y2="353.89"/></svg>