<svg xmlns="http://www.w3.org/2000/svg" viewBox="0 0 600 400"><defs><style>.a,.e,.g,.h{fill:#138b7b;}.b{fill:#152742;}.c{fill:#fff;}.d,.m{fill:#1eaec5;}.d,.e,.f,.g,.m,.n{stroke:#152742;}.d,.f,.m,.n{stroke-miterlimit:10;}.d{stroke-width:2.26px;}.e,.g{stroke-linecap:round;stroke-linejoin:round;}.e,.f{stroke-width:2.41px;}.f{fill:#ef4638;}.g{stroke-width:3.61px;}.h{fill-rule:evenodd;}.i{opacity:0.49;}.j{opacity:0.13;}.j,.k,.l{isolation:isolate;}.k{opacity:0.4;}.l{opacity:0.5;}.m{stroke-width:2.3px;}.n{fill:none;stroke-width:2px;}</style></defs><rect class="a" x="375.71" y="33.02" width="152.2" height="253.93" rx="17.36"/><path class="b" d="M510.54,34.23A16.18,16.18,0,0,1,526.7,50.39v219.2a16.18,16.18,0,0,1-16.16,16.16H393.07a16.18,16.18,0,0,1-16.16-16.16V50.39a16.18,16.18,0,0,1,16.16-16.16H510.54m0-2.41H393.07a18.56,18.56,0,0,0-18.56,18.57v219.2a18.56,18.56,0,0,0,18.56,18.57H510.54a18.56,18.56,0,0,0,18.57-18.57V50.39a18.56,18.56,0,0,0-18.57-18.57Z"/><rect class="a" x="80.61" y="33.02" width="152.2" height="253.93" rx="17.36"/><path class="b" d="M215.45,34.23A16.17,16.17,0,0,1,231.6,50.39v219.2a16.17,16.17,0,0,1-16.15,16.16H98a16.18,16.18,0,0,1-16.16-16.16V50.39A16.18,16.18,0,0,1,98,34.23H215.45m0-2.41H98A18.56,18.56,0,0,0,79.41,50.39v219.2A18.56,18.56,0,0,0,98,288.16H215.45A18.56,18.56,0,0,0,234,269.59V50.39a18.56,18.56,0,0,0-18.56-18.57Z"/><path class="c" d="M104.52,278.54a17.4,17.4,0,0,1-17.38-17.37L86.48,79.62a17.4,17.4,0,0,1,17.38-17.35l400,.08a17.41,17.41,0,0,1,17.4,17.36l.66,180.93A17.41,17.41,0,0,1,504.5,278l-400,.54Z"/><path class="b" d="M103.88,63.47l400,.08A16.2,16.2,0,0,1,520,79.72l.65,180.92a16.2,16.2,0,0,1-16.2,16.16l-400,.53a16.2,16.2,0,0,1-16.18-16.16L87.69,79.63a16.19,16.19,0,0,1,16.17-16.16h0m0-2.41A18.59,18.59,0,0,0,85.28,79.63l.65,181.55a18.59,18.59,0,0,0,18.59,18.56h0l399.94-.53h0a18.59,18.59,0,0,0,18.58-18.57l-.65-180.93h0a18.59,18.59,0,0,0-18.59-18.57h0l-399.94-.08Z"/><path class="a" d="M264.83,238.19c-3.53,0-6.4-2.24-6.4-5v-8c0-2.74,2.87-5,6.4-5h77c3.53,0,6.41,2.24,6.41,5v8c0,2.7-3,5-6.62,5Z"/><path class="b" d="M341.83,221.37c2.82,0,5.2,1.74,5.2,3.78v8c0,2-2.53,3.78-5.41,3.78H264.83c-2.82,0-5.2-1.73-5.2-3.78v-8c0-2,2.38-3.78,5.2-3.78h77m0-2.4h-77c-4.2,0-7.61,2.77-7.61,6.18v8c0,3.42,3.41,6.19,7.61,6.19h76.79c4.21,0,7.82-2.77,7.82-6.19v-8c0-3.41-3.41-6.18-7.61-6.18Z"/><path class="d" d="M109.74,72.85h95.92A14.53,14.53,0,0,1,220.2,87.38V251.8a14.54,14.54,0,0,1-14.54,14.53H109.74A14.54,14.54,0,0,1,95.2,251.8V87.38A14.53,14.53,0,0,1,109.74,72.85Z"/><path class="e" d="M255.36,173.72H194.15"/><polygon class="a" points="253.17 172.24 255.19 173.72 253.17 175.21 253.17 172.24"/><path class="b" d="M252.58,170.46a.62.62,0,0,0-.62.62v5.29a.58.58,0,0,0,.12.36.61.61,0,0,0,.5.26.6.6,0,0,0,.36-.12l3.6-2.65a.4.4,0,0,0,.13-.13.6.6,0,0,0-.13-.86L253,170.58a.63.63,0,0,0-.37-.12Z"/><path class="f" d="M157.5,162c23.88,0,43.25,6.48,43.25,14.49S181.38,191,157.5,191s-43.25-6.49-43.25-14.49S133.62,162,157.5,162Z"/><path class="e" d="M259.7,184.16H200.75"/><polygon class="a" points="198.08 184.16 200.1 182.68 200.1 185.65 198.08 184.16"/><path class="b" d="M201.74,183h0m-1.05-2.07a.63.63,0,0,0-.37.12l-3.59,2.65a.4.4,0,0,0-.13.13.6.6,0,0,0,.13.86l3.59,2.65a.63.63,0,0,0,.37.12h0a.62.62,0,0,0,.62-.62v-5.29a.58.58,0,0,0-.12-.36.61.61,0,0,0-.5-.26Z"/><path class="a" d="M264.83,187.6c-3.53,0-6.4-2.23-6.4-5v-8.05c0-2.75,2.87-5,6.4-5h77c3.53,0,6.41,2.23,6.41,5v8.05c0,2.7-3,5-6.62,5Z"/><path class="b" d="M341.83,170.79c2.82,0,5.2,1.73,5.2,3.78v8.05c0,2-2.53,3.78-5.41,3.78H264.83c-2.82,0-5.2-1.73-5.2-3.78v-8.05c0-2,2.38-3.78,5.2-3.78h77m0-2.41h-77c-4.2,0-7.61,2.77-7.61,6.19v8.05c0,3.42,3.41,6.19,7.61,6.19h76.79c4.21,0,7.82-2.77,7.82-6.19v-8.05c0-3.42-3.41-6.19-7.61-6.19Z"/><path class="e" d="M255.37,229.44H194.53"/><polygon class="a" points="253.17 227.95 255.19 229.44 253.17 230.92 253.17 227.95"/><path class="b" d="M252.58,226.17a.62.62,0,0,0-.62.62v5.29a.58.58,0,0,0,.12.36.61.61,0,0,0,.5.26.6.6,0,0,0,.36-.12l3.6-2.65a.4.4,0,0,0,.13-.13.6.6,0,0,0-.13-.86L253,226.29a.63.63,0,0,0-.37-.12Z"/><path class="f" d="M157.5,216.33c23.88,0,43.25,6.49,43.25,14.5s-19.37,14.49-43.25,14.49-43.25-6.49-43.25-14.49S133.62,216.33,157.5,216.33Z"/><polygon class="a" points="351.48 184.16 353.5 182.68 353.5 185.65 351.48 184.16"/><path class="b" d="M355.13,183h0m-1.05-2.07a.6.6,0,0,0-.36.12l-3.6,2.65a.53.53,0,0,0-.13.13.62.62,0,0,0,.13.86l3.6,2.65a.58.58,0,0,0,.36.12h0a.62.62,0,0,0,.62-.62v-5.29a.58.58,0,0,0-.12-.36.61.61,0,0,0-.5-.26Z"/><path class="g" d="M451.62,288.16v16.12"/><path class="g" d="M156.77,288.16v16.12"/><path class="g" d="M271.53,353.11H161"/><path class="g" d="M485.59,353.2H335.13"/><path class="h" d="M305.19,371.32a60.25,60.25,0,0,1,9.28,1c-.4,1-.84,2-1.33,3-2.24,4.49-5,7.35-7.95,8.21Zm-3.73,12.21c-2.92-.86-5.7-3.72-7.95-8.21-.48-1-.93-2-1.32-3a60.25,60.25,0,0,1,9.27-1Zm11.68-1.33a28.1,28.1,0,0,0,3.34-5.21,41,41,0,0,0,1.66-3.85,38.75,38.75,0,0,1,6.28,2.23l-.49.46A30.65,30.65,0,0,1,313.14,382.2Zm-19.62,0a30.46,30.46,0,0,1-10.77-6.34l-.52-.48a40.24,40.24,0,0,1,6.29-2.24,37.69,37.69,0,0,0,1.66,3.86A27.19,27.19,0,0,0,293.52,382.19Zm33.56-9.68a42.9,42.9,0,0,0-7.8-2.93,59.87,59.87,0,0,0,2.13-14.52h12.47A30.56,30.56,0,0,1,327.08,372.51Zm-47.5,0a30.56,30.56,0,0,1-6.8-17.44h12.47a59.79,59.79,0,0,0,2.13,14.51A42.62,42.62,0,0,0,279.58,372.51ZM291,368.75a56.65,56.65,0,0,1-2-13.68h12.48v12.52A62.13,62.13,0,0,0,291,368.75Zm24.62,0a63.18,63.18,0,0,0-10.45-1.15V355.06h12.49A56,56,0,0,1,315.64,368.74Zm5.77-17.41a60.36,60.36,0,0,0-2-13.89,41.81,41.81,0,0,0,8-3.08,30.6,30.6,0,0,1,6.42,17Zm-16.21,0V339.47a63.12,63.12,0,0,0,10.62-1.18,56.37,56.37,0,0,1,1.86,13Zm-16.22,0a56.29,56.29,0,0,1,1.86-13,63.23,63.23,0,0,0,10.62,1.18v11.86Zm-16.2,0a30.6,30.6,0,0,1,6.42-17,41.81,41.81,0,0,0,8,3.08,60.36,60.36,0,0,0-2,13.89Zm28.68-15.59a59.49,59.49,0,0,1-9.5-1,35.74,35.74,0,0,1,1.56-3.65c2.24-4.48,5-7.34,7.94-8.2Zm3.73-12.88c2.93.86,5.71,3.72,7.95,8.21a35.57,35.57,0,0,1,1.56,3.64,60.66,60.66,0,0,1-9.51,1Zm13.17,11a41.63,41.63,0,0,0-1.88-4.46,27.87,27.87,0,0,0-3.34-5.22,30.6,30.6,0,0,1,11.75,7.28A38.15,38.15,0,0,1,318.36,333.87Zm-30.06,0a39,39,0,0,1-6.53-2.4,30.6,30.6,0,0,1,11.75-7.28,28.1,28.1,0,0,0-3.34,5.21A42.67,42.67,0,0,0,288.3,333.87Z"/><path class="b" d="M306.4,324.71c2,1.22,4,3.6,5.66,6.89.35.71.68,1.44,1,2.18a59.51,59.51,0,0,1-6.65.71v-9.78m-6.14,0v9.78a59.26,59.26,0,0,1-6.65-.71c.3-.74.63-1.47,1-2.17,1.65-3.3,3.63-5.68,5.67-6.9m-10.08,2.18q-.56.94-1.08,2c-.57,1.15-1.08,2.33-1.54,3.54a38.38,38.38,0,0,1-3.64-1.3,29.15,29.15,0,0,1,6.26-4.22m26.3,0a29.15,29.15,0,0,1,6.26,4.22,38.38,38.38,0,0,1-3.64,1.3c-.46-1.21-1-2.39-1.55-3.55-.34-.69-.7-1.34-1.07-2m-36.92,9a42.73,42.73,0,0,0,6.2,2.4,61.41,61.41,0,0,0-1.67,11.85h-10a29.4,29.4,0,0,1,5.47-14.25m47.54,0a29.4,29.4,0,0,1,5.47,14.25h-10a61.41,61.41,0,0,0-1.67-11.85,43.06,43.06,0,0,0,6.19-2.4m-35.37,3.8a62.71,62.71,0,0,0,8.53.95v9.5h-10a55.78,55.78,0,0,1,1.5-10.45m23.2,0a55.78,55.78,0,0,1,1.5,10.45h-10v-9.5a62.71,62.71,0,0,0,8.53-.95m17.64,16.59A29.34,29.34,0,0,1,326.73,371a42.82,42.82,0,0,0-6-2.26,61.25,61.25,0,0,0,1.84-12.48h10m-16.14,0a54.63,54.63,0,0,1-1.66,11.08,63.76,63.76,0,0,0-8.37-.92V356.27h10m-16.17,0v10.16a61.8,61.8,0,0,0-8.36.93,54.74,54.74,0,0,1-1.67-11.09h10m-16.17,0a60.55,60.55,0,0,0,1.83,12.48,42.82,42.82,0,0,0-6,2.26,29.31,29.31,0,0,1-5.84-14.74h10m16.17,16.3v9.11c-2-1.22-4-3.6-5.67-6.89-.25-.51-.49-1-.72-1.55a59.66,59.66,0,0,1,6.39-.67m6.14,0a59.2,59.2,0,0,1,6.38.67c-.22.52-.46,1-.72,1.55-1.64,3.29-3.62,5.67-5.66,6.89v-9.11m-18.61,2c.4,1,.84,2,1.32,2.94.34.68.7,1.34,1.06,2a29.12,29.12,0,0,1-5.72-3.76c1.1-.44,2.21-.82,3.34-1.15m31.08,0c1.13.33,2.24.71,3.34,1.15a29.49,29.49,0,0,1-5.73,3.76q.56-.94,1.08-2c.47-.95.91-1.93,1.31-2.93M304,321.41V337a60.49,60.49,0,0,0,12.29-1.36,37.25,37.25,0,0,0-2.06-5.08c-2.67-5.35-6.27-8.77-10.23-9.12Zm-1.32,0c-3.95.35-7.55,3.77-10.23,9.12a38.63,38.63,0,0,0-2.07,5.08,60.5,60.5,0,0,0,12.3,1.36V321.41Zm6.21.46a20.7,20.7,0,0,1,6.52,8.07,38.41,38.41,0,0,1,2.17,5.37,39.83,39.83,0,0,0,9.32-3.49c-.35-.38-.7-.75-1.07-1.11a31.66,31.66,0,0,0-16.94-8.84Zm-11.1,0h0Zm0,0a31.71,31.71,0,0,0-16.94,8.83c-.37.37-.72.74-1.07,1.12a39.92,39.92,0,0,0,9.31,3.49,39.72,39.72,0,0,1,2.18-5.37,20.7,20.7,0,0,1,6.52-8.07Zm30,11a40.52,40.52,0,0,1-9.8,3.73,59.49,59.49,0,0,1,2.25,16h14.91a31.62,31.62,0,0,0-7.36-19.69Zm-48.88,0a31.62,31.62,0,0,0-7.36,19.69h14.91a59.49,59.49,0,0,1,2.25-16,40.52,40.52,0,0,1-9.8-3.73Zm37.4,2.77h0Zm.39,1.27A61.52,61.52,0,0,1,304,338.29h0v14.24H318.9a58,58,0,0,0-2.22-15.65Zm-26.7,0a57.56,57.56,0,0,0-2.22,15.65h14.91V338.29A61.52,61.52,0,0,1,290,336.88Zm45.15,17Zm0,0H320.22a58.59,58.59,0,0,1-2.44,16.59,41.23,41.23,0,0,1,9.6,3.56,31.61,31.61,0,0,0,7.75-20.15Zm-16.23,0h0Zm0,0H304v14.92a61.11,61.11,0,0,1,12.5,1.36h0a57.26,57.26,0,0,0,2.41-16.29Zm-16.23,0H287.76a57.62,57.62,0,0,0,2.41,16.29,61.84,61.84,0,0,1,12.5-1.38V353.86Zm-16.23,0H271.53A31.61,31.61,0,0,0,279.28,374a41.23,41.23,0,0,1,9.6-3.56,59,59,0,0,1-2.44-16.59Zm16.23,14.91Zm0,0h0Zm0,1.33a59.82,59.82,0,0,0-12.09,1.3,35.55,35.55,0,0,0,1.86,4.46c2.68,5.35,6.28,8.77,10.23,9.12h0V370.1Zm1.32,0V385c4-.35,7.56-3.77,10.23-9.12a35.55,35.55,0,0,0,1.86-4.46A60,60,0,0,0,304,370.1Zm-14.7,1.6a40.51,40.51,0,0,0-9.1,3.32l.38.39h0l.27.26.23.24.08.08c.26.25.51.49.77.72l0,0a31.64,31.64,0,0,0,15.82,7.78h0a20.7,20.7,0,0,1-6.52-8.07,38.63,38.63,0,0,1-2-4.75Zm28.08,0Zm0,0a38,38,0,0,1-2,4.75,20.7,20.7,0,0,1-6.52,8.07,31.69,31.69,0,0,0,15.83-7.77l0,0,.77-.73.08-.08.24-.23.26-.27h0l.38-.4a41,41,0,0,0-9.1-3.32Z"/><rect class="a" x="474.47" y="362.54" width="10.85" height="2.86" rx="1.24"/><path class="b" d="M484.08,362.54h-8.37a1.23,1.23,0,0,0-1.24,1.23v.38a1.23,1.23,0,0,0,1.24,1.24h8.37a1.23,1.23,0,0,0,1.24-1.24v-.38a1.23,1.23,0,0,0-1.24-1.23Z"/><rect class="a" x="474.47" y="362.54" width="10.85" height="2.86" rx="1.24"/><path class="b" d="M484.08,362.54h-8.37a1.23,1.23,0,0,0-1.24,1.23v.38a1.23,1.23,0,0,0,1.24,1.24h8.37a1.23,1.23,0,0,0,1.24-1.24v-.38a1.23,1.23,0,0,0-1.24-1.23Z"/><rect class="a" x="474.47" y="362.54" width="10.85" height="2.86" rx="1.24"/><path class="b" d="M484.08,362.54h-8.37a1.23,1.23,0,0,0-1.24,1.23v.38a1.23,1.23,0,0,0,1.24,1.24h8.37a1.23,1.23,0,0,0,1.24-1.24v-.38a1.23,1.23,0,0,0-1.24-1.23Z"/><path class="a" d="M484.18,348.83h0a.56.56,0,0,1,.57.57V358a.57.57,0,0,1-.57.57h0a.57.57,0,0,1-.57-.57V349.4A.56.56,0,0,1,484.18,348.83Z"/><path class="b" d="M484.18,348.83a.56.56,0,0,0-.57.57V358a.57.57,0,0,0,1.14,0V349.4a.56.56,0,0,0-.57-.57Z"/><path class="a" d="M480.75,348.83h0a.56.56,0,0,1,.57.57V358a.57.57,0,0,1-.57.57h0a.58.58,0,0,1-.57-.57V349.4A.57.57,0,0,1,480.75,348.83Z"/><path class="b" d="M480.75,348.83a.57.57,0,0,0-.57.57V358a.58.58,0,0,0,.57.57.57.57,0,0,0,.57-.57V349.4a.56.56,0,0,0-.57-.57Z"/><path class="a" d="M477.33,348.83h0a.57.57,0,0,1,.57.57V358a.58.58,0,0,1-.57.57h0a.57.57,0,0,1-.57-.57V349.4A.56.56,0,0,1,477.33,348.83Z"/><path class="b" d="M477.33,348.83a.56.56,0,0,0-.57.57V358a.57.57,0,0,0,.57.57.58.58,0,0,0,.57-.57V349.4a.57.57,0,0,0-.57-.57Z"/><path class="a" d="M473.9,348.83h0a.56.56,0,0,1,.57.57V358a.57.57,0,0,1-.57.57h0a.57.57,0,0,1-.57-.57V349.4A.56.56,0,0,1,473.9,348.83Z"/><path class="b" d="M473.9,348.83a.56.56,0,0,0-.57.57V358a.57.57,0,0,0,1.14,0V349.4a.56.56,0,0,0-.57-.57Z"/><g class="i"><g class="j"><path class="a" d="M451.54,357.31a25.61,25.61,0,1,1,25.61-25.61A25.64,25.64,0,0,1,451.54,357.31Z"/><path class="b" d="M451.54,307.89a23.81,23.81,0,1,1-23.81,23.81,23.83,23.83,0,0,1,23.81-23.81m0-3.61A27.42,27.42,0,1,0,479,331.7a27.42,27.42,0,0,0-27.41-27.42Z"/></g><g class="k"><circle class="a" cx="451.54" cy="331.7" r="16.79"/><path class="b" d="M451.54,316.71a15,15,0,1,1-15,15,15,15,0,0,1,15-15m0-3.61a18.6,18.6,0,1,0,18.6,18.6,18.6,18.6,0,0,0-18.6-18.6Z"/></g><g class="l"><circle class="a" cx="451.54" cy="331.7" r="7.9"/><path class="b" d="M451.54,325.6a6.1,6.1,0,1,1-6.1,6.1,6.11,6.11,0,0,1,6.1-6.1m0-3.61a9.71,9.71,0,1,0,9.71,9.71,9.71,9.71,0,0,0-9.71-9.71Z"/></g></g><g class="i"><g class="j"><path class="a" d="M451.54,357.31a25.61,25.61,0,1,1,25.61-25.61A25.64,25.64,0,0,1,451.54,357.31Z"/><path class="b" d="M451.54,307.89a23.81,23.81,0,1,1-23.81,23.81,23.83,23.83,0,0,1,23.81-23.81m0-3.61A27.42,27.42,0,1,0,479,331.7a27.42,27.42,0,0,0-27.41-27.42Z"/></g><g class="k"><circle class="a" cx="451.54" cy="331.7" r="16.79"/><path class="b" d="M451.54,316.71a15,15,0,1,1-15,15,15,15,0,0,1,15-15m0-3.61a18.6,18.6,0,1,0,18.6,18.6,18.6,18.6,0,0,0-18.6-18.6Z"/></g><g class="l"><circle class="a" cx="451.54" cy="331.7" r="7.9"/><path class="b" d="M451.54,325.6a6.1,6.1,0,1,1-6.1,6.1,6.11,6.11,0,0,1,6.1-6.1m0-3.61a9.71,9.71,0,1,0,9.71,9.71,9.71,9.71,0,0,0-9.71-9.71Z"/></g></g><rect class="a" x="444.2" y="362.54" width="10.85" height="2.86" rx="1.24"/><path class="b" d="M453.81,362.54h-8.37a1.23,1.23,0,0,0-1.24,1.23v.38a1.23,1.23,0,0,0,1.24,1.24h8.37a1.23,1.23,0,0,0,1.24-1.24v-.38a1.23,1.23,0,0,0-1.24-1.23Z"/><rect class="a" x="446.17" y="341.98" width="37.7" height="3.43" rx="1.24"/><path class="b" d="M482.63,342H447.41a1.23,1.23,0,0,0-1.24,1.23v1a1.23,1.23,0,0,0,1.24,1.23h35.22a1.24,1.24,0,0,0,1.24-1.23v-1a1.24,1.24,0,0,0-1.24-1.23Z"/><rect class="a" x="474.47" y="362.54" width="10.85" height="2.86" rx="1.24"/><path class="b" d="M484.09,362.54h-8.38a1.24,1.24,0,0,0-1.24,1.23v.38a1.24,1.24,0,0,0,1.24,1.24h8.38a1.23,1.23,0,0,0,1.23-1.24v-.38a1.23,1.23,0,0,0-1.23-1.23Z"/><rect class="a" x="474.47" y="362.54" width="10.85" height="2.86" rx="1.24"/><path class="b" d="M484.09,362.54h-8.38a1.24,1.24,0,0,0-1.24,1.23v.38a1.24,1.24,0,0,0,1.24,1.24h8.38a1.23,1.23,0,0,0,1.23-1.24v-.38a1.23,1.23,0,0,0-1.23-1.23Z"/><rect class="a" x="450.48" y="333.41" width="1.71" height="8.57"/><polygon class="b" points="452.2 333.41 450.48 333.41 450.48 341.98 452.2 341.98 452.2 333.41 452.2 333.41"/><circle class="a" cx="451.34" cy="331.98" r="0.76"/><path class="b" d="M451.34,329.41a2.57,2.57,0,1,0,2.57,2.57,2.57,2.57,0,0,0-2.57-2.57Z"/><rect class="a" x="474.47" y="362.54" width="10.85" height="2.86" rx="1.24"/><path class="b" d="M484.09,362.54h-8.38a1.24,1.24,0,0,0-1.24,1.23v.38a1.24,1.24,0,0,0,1.24,1.24h8.38a1.23,1.23,0,0,0,1.23-1.24v-.38a1.23,1.23,0,0,0-1.23-1.23Z"/><rect class="a" x="442.58" y="346.06" width="44.94" height="15.24" rx="1.91"/><path class="b" d="M485.61,347.87a.11.11,0,0,1,.1.1v11.42a.11.11,0,0,1-.1.11H444.49a.11.11,0,0,1-.11-.11V348a.11.11,0,0,1,.11-.1h41.12m0-3.61H444.49a3.71,3.71,0,0,0-3.72,3.71v11.42a3.72,3.72,0,0,0,3.72,3.72h41.12a3.72,3.72,0,0,0,3.71-3.72V348a3.71,3.71,0,0,0-3.71-3.71Z"/><path class="a" d="M446.77,350h0a1.43,1.43,0,0,1,1.43,1.43h0a1.43,1.43,0,0,1-1.43,1.43h0a1.43,1.43,0,0,1-1.43-1.43h0A1.43,1.43,0,0,1,446.77,350Z"/><path class="b" d="M446.77,350a1.43,1.43,0,1,0,1.43,1.43,1.43,1.43,0,0,0-1.43-1.43Z"/><path class="a" d="M484.18,348.83h0a.56.56,0,0,1,.57.57V358a.57.57,0,0,1-.57.57h0a.58.58,0,0,1-.57-.57V349.4A.57.57,0,0,1,484.18,348.83Z"/><path class="b" d="M484.18,348.83a.57.57,0,0,0-.57.57V358a.58.58,0,0,0,.57.57.57.57,0,0,0,.57-.57V349.4a.56.56,0,0,0-.57-.57Z"/><path class="a" d="M480.75,348.83h0a.56.56,0,0,1,.57.57V358a.57.57,0,0,1-.57.57h0a.58.58,0,0,1-.57-.57V349.4A.57.57,0,0,1,480.75,348.83Z"/><path class="b" d="M480.75,348.83a.57.57,0,0,0-.57.57V358a.58.58,0,0,0,.57.57.57.57,0,0,0,.57-.57V349.4a.56.56,0,0,0-.57-.57Z"/><path class="a" d="M477.33,348.83h0a.57.57,0,0,1,.57.57V358a.58.58,0,0,1-.57.57h0a.57.57,0,0,1-.57-.57V349.4A.56.56,0,0,1,477.33,348.83Z"/><path class="b" d="M477.33,348.83a.56.56,0,0,0-.57.57V358a.57.57,0,0,0,.57.57.58.58,0,0,0,.57-.57V349.4a.57.57,0,0,0-.57-.57Z"/><path class="a" d="M473.9,348.83h0a.56.56,0,0,1,.57.57V358a.57.57,0,0,1-.57.57h0a.57.57,0,0,1-.57-.57V349.4A.56.56,0,0,1,473.9,348.83Z"/><path class="b" d="M473.9,348.83a.56.56,0,0,0-.57.57V358a.57.57,0,0,0,1.14,0V349.4a.56.56,0,0,0-.57-.57Z"/><rect class="a" x="178.75" y="362.54" width="10.85" height="2.86" rx="1.24"/><path class="b" d="M188.36,362.54H180a1.23,1.23,0,0,0-1.24,1.23v.38a1.23,1.23,0,0,0,1.24,1.24h8.37a1.23,1.23,0,0,0,1.24-1.24v-.38a1.23,1.23,0,0,0-1.24-1.23Z"/><rect class="a" x="178.75" y="362.54" width="10.85" height="2.86" rx="1.24"/><path class="b" d="M188.36,362.54H180a1.23,1.23,0,0,0-1.24,1.23v.38a1.23,1.23,0,0,0,1.24,1.24h8.37a1.23,1.23,0,0,0,1.24-1.24v-.38a1.23,1.23,0,0,0-1.24-1.23Z"/><rect class="a" x="178.75" y="362.54" width="10.85" height="2.86" rx="1.24"/><path class="b" d="M188.36,362.54H180a1.23,1.23,0,0,0-1.24,1.23v.38a1.23,1.23,0,0,0,1.24,1.24h8.37a1.23,1.23,0,0,0,1.24-1.24v-.38a1.23,1.23,0,0,0-1.24-1.23Z"/><path class="a" d="M188.46,348.83h0a.57.57,0,0,1,.57.57V358a.58.58,0,0,1-.57.57h0a.57.57,0,0,1-.57-.57V349.4A.56.56,0,0,1,188.46,348.83Z"/><path class="b" d="M188.46,348.83a.56.56,0,0,0-.57.57V358a.57.57,0,0,0,.57.57A.58.58,0,0,0,189,358V349.4a.57.57,0,0,0-.57-.57Z"/><path class="a" d="M185,348.83h0a.56.56,0,0,1,.57.57V358a.57.57,0,0,1-.57.57h0a.57.57,0,0,1-.57-.57V349.4A.56.56,0,0,1,185,348.83Z"/><path class="b" d="M185,348.83a.56.56,0,0,0-.57.57V358a.57.57,0,0,0,1.14,0V349.4a.56.56,0,0,0-.57-.57Z"/><path class="a" d="M181.6,348.83h0a.56.56,0,0,1,.57.57V358a.57.57,0,0,1-.57.57h0A.58.58,0,0,1,181,358V349.4A.57.57,0,0,1,181.6,348.83Z"/><path class="b" d="M181.6,348.83a.57.57,0,0,0-.57.57V358a.58.58,0,0,0,.57.57.57.57,0,0,0,.57-.57V349.4a.56.56,0,0,0-.57-.57Z"/><path class="a" d="M178.18,348.83h0a.57.57,0,0,1,.57.57V358a.58.58,0,0,1-.57.57h0a.57.57,0,0,1-.57-.57V349.4A.56.56,0,0,1,178.18,348.83Z"/><path class="b" d="M178.18,348.83a.56.56,0,0,0-.57.57V358a.57.57,0,0,0,.57.57.58.58,0,0,0,.57-.57V349.4a.57.57,0,0,0-.57-.57Z"/><g class="i"><g class="j"><path class="a" d="M155.82,357.31a25.61,25.61,0,1,1,25.61-25.61A25.63,25.63,0,0,1,155.82,357.31Z"/><path class="b" d="M155.82,307.89A23.81,23.81,0,1,1,132,331.7a23.83,23.83,0,0,1,23.81-23.81m0-3.61a27.42,27.42,0,1,0,27.41,27.42,27.41,27.41,0,0,0-27.41-27.42Z"/></g><g class="k"><circle class="a" cx="155.82" cy="331.7" r="16.79"/><path class="b" d="M155.82,316.71a15,15,0,1,1-15,15,15,15,0,0,1,15-15m0-3.61a18.6,18.6,0,1,0,18.59,18.6,18.59,18.59,0,0,0-18.59-18.6Z"/></g><g class="l"><circle class="a" cx="155.82" cy="331.7" r="7.9"/><path class="b" d="M155.82,325.6a6.1,6.1,0,1,1-6.1,6.1,6.1,6.1,0,0,1,6.1-6.1m0-3.61a9.71,9.71,0,1,0,9.71,9.71,9.7,9.7,0,0,0-9.71-9.71Z"/></g></g><g class="i"><g class="j"><path class="a" d="M155.82,357.31a25.61,25.61,0,1,1,25.61-25.61A25.63,25.63,0,0,1,155.82,357.31Z"/><path class="b" d="M155.82,307.89A23.81,23.81,0,1,1,132,331.7a23.83,23.83,0,0,1,23.81-23.81m0-3.61a27.42,27.42,0,1,0,27.41,27.42,27.41,27.41,0,0,0-27.41-27.42Z"/></g><g class="k"><circle class="a" cx="155.82" cy="331.7" r="16.79"/><path class="b" d="M155.82,316.71a15,15,0,1,1-15,15,15,15,0,0,1,15-15m0-3.61a18.6,18.6,0,1,0,18.59,18.6,18.59,18.59,0,0,0-18.59-18.6Z"/></g><g class="l"><circle class="a" cx="155.82" cy="331.7" r="7.9"/><path class="b" d="M155.82,325.6a6.1,6.1,0,1,1-6.1,6.1,6.1,6.1,0,0,1,6.1-6.1m0-3.61a9.71,9.71,0,1,0,9.71,9.71,9.7,9.7,0,0,0-9.71-9.71Z"/></g></g><rect class="a" x="148.48" y="362.54" width="10.85" height="2.86" rx="1.24"/><path class="b" d="M158.09,362.54h-8.38a1.23,1.23,0,0,0-1.23,1.23v.38a1.23,1.23,0,0,0,1.23,1.24h8.38a1.24,1.24,0,0,0,1.24-1.24v-.38a1.24,1.24,0,0,0-1.24-1.23Z"/><rect class="a" x="150.45" y="341.98" width="37.7" height="3.43" rx="1.24"/><path class="b" d="M186.9,342H151.68a1.23,1.23,0,0,0-1.23,1.23v1a1.23,1.23,0,0,0,1.23,1.23H186.9a1.23,1.23,0,0,0,1.24-1.23v-1A1.23,1.23,0,0,0,186.9,342Z"/><rect class="a" x="178.75" y="362.54" width="10.85" height="2.86" rx="1.24"/><path class="b" d="M188.36,362.54H180a1.23,1.23,0,0,0-1.24,1.23v.38a1.23,1.23,0,0,0,1.24,1.24h8.37a1.23,1.23,0,0,0,1.24-1.24v-.38a1.23,1.23,0,0,0-1.24-1.23Z"/><rect class="a" x="178.75" y="362.54" width="10.85" height="2.86" rx="1.24"/><path class="b" d="M188.36,362.54H180a1.23,1.23,0,0,0-1.24,1.23v.38a1.23,1.23,0,0,0,1.24,1.24h8.37a1.23,1.23,0,0,0,1.24-1.24v-.38a1.23,1.23,0,0,0-1.24-1.23Z"/><rect class="a" x="154.76" y="333.41" width="1.71" height="8.57"/><polygon class="b" points="156.47 333.41 154.76 333.41 154.76 341.98 156.47 341.98 156.47 333.41 156.47 333.41"/><circle class="a" cx="155.62" cy="331.98" r="0.76"/><path class="b" d="M155.62,329.41a2.57,2.57,0,1,0,2.57,2.57,2.57,2.57,0,0,0-2.57-2.57Z"/><rect class="a" x="178.75" y="362.54" width="10.85" height="2.86" rx="1.24"/><path class="b" d="M188.36,362.54H180a1.23,1.23,0,0,0-1.24,1.23v.38a1.23,1.23,0,0,0,1.24,1.24h8.37a1.23,1.23,0,0,0,1.24-1.24v-.38a1.23,1.23,0,0,0-1.24-1.23Z"/><rect class="a" x="146.85" y="346.06" width="44.94" height="15.24" rx="1.91"/><path class="b" d="M189.88,347.87a.11.11,0,0,1,.11.1v11.42a.11.11,0,0,1-.11.11H148.76a.11.11,0,0,1-.1-.11V348a.11.11,0,0,1,.1-.1h41.12m0-3.61H148.76a3.71,3.71,0,0,0-3.71,3.71v11.42a3.72,3.72,0,0,0,3.71,3.72h41.12a3.72,3.72,0,0,0,3.72-3.72V348a3.71,3.71,0,0,0-3.72-3.71Z"/><path class="a" d="M151.05,350h0a1.43,1.43,0,0,1,1.42,1.43h0a1.43,1.43,0,0,1-1.42,1.43h0a1.43,1.43,0,0,1-1.43-1.43h0A1.43,1.43,0,0,1,151.05,350Z"/><path class="b" d="M151.05,350a1.43,1.43,0,1,0,1.42,1.43,1.43,1.43,0,0,0-1.42-1.43Z"/><path class="a" d="M188.46,348.83h0a.57.57,0,0,1,.57.57V358a.58.58,0,0,1-.57.57h0a.57.57,0,0,1-.57-.57V349.4A.56.56,0,0,1,188.46,348.83Z"/><path class="b" d="M188.46,348.83a.56.56,0,0,0-.57.57V358a.57.57,0,0,0,.57.57A.58.58,0,0,0,189,358V349.4a.57.57,0,0,0-.57-.57Z"/><path class="a" d="M185,348.83h0a.56.56,0,0,1,.57.57V358a.57.57,0,0,1-.57.57h0a.57.57,0,0,1-.57-.57V349.4A.56.56,0,0,1,185,348.83Z"/><path class="b" d="M185,348.83a.56.56,0,0,0-.57.57V358a.57.57,0,0,0,1.14,0V349.4a.56.56,0,0,0-.57-.57Z"/><path class="a" d="M181.6,348.83h0a.56.56,0,0,1,.57.57V358a.57.57,0,0,1-.57.57h0A.58.58,0,0,1,181,358V349.4A.57.57,0,0,1,181.6,348.83Z"/><path class="b" d="M181.6,348.83a.57.57,0,0,0-.57.57V358a.58.58,0,0,0,.57.57.57.57,0,0,0,.57-.57V349.4a.56.56,0,0,0-.57-.57Z"/><path class="a" d="M178.18,348.83h0a.57.57,0,0,1,.57.57V358a.58.58,0,0,1-.57.57h0a.57.57,0,0,1-.57-.57V349.4A.56.56,0,0,1,178.18,348.83Z"/><path class="b" d="M178.18,348.83a.56.56,0,0,0-.57.57V358a.57.57,0,0,0,.57.57.58.58,0,0,0,.57-.57V349.4a.57.57,0,0,0-.57-.57Z"/><path class="m" d="M401.46,71h97.72A14.81,14.81,0,0,1,514,85.84V253.33a14.81,14.81,0,0,1-14.81,14.81H401.46a14.81,14.81,0,0,1-14.81-14.81V85.84A14.81,14.81,0,0,1,401.46,71Z"/><path class="n" d="M452.43,229.24h-103"/><polygon class="a" points="450.28 208.79 451.77 206.77 453.26 208.79 450.28 208.79"/><path class="b" d="M453.21,206.84h0m-1.44-1.68a.63.63,0,0,0-.5.25l-2.64,3.6a.58.58,0,0,0-.12.36.61.61,0,0,0,.62.62h5.29a.6.6,0,0,0,.36-.12.62.62,0,0,0,.13-.86l-2.64-3.6a.8.8,0,0,0-.13-.13.63.63,0,0,0-.37-.12Z"/><path class="n" d="M451.77,202v27.23"/><path class="n" d="M452.43,174.72h-103"/><polygon class="a" points="450.32 188.57 453.3 188.57 451.81 190.6 450.32 188.57"/><path class="b" d="M454.45,187.37h-5.29a.6.6,0,0,0-.36.12.61.61,0,0,0-.14.86l2.65,3.6.13.13a.63.63,0,0,0,.87-.13l2.64-3.59a.62.62,0,0,0-.5-1Z"/><path class="n" d="M451.81,188.81V174.67"/><path class="n" d="M443.51,184.16H351.79"/><path class="e" d="M443.51,197V184.73"/><path class="f" d="M450.05,192.82c23.88,0,43.25,6.49,43.25,14.5s-19.37,14.49-43.25,14.49-43.25-6.49-43.25-14.49S426.17,192.82,450.05,192.82Z"/><path class="b" d="M131.34,98.11h-2.06l-1.56-2.44h0v2.44h-1.65V91.76h2.46a2.47,2.47,0,0,1,1.61.49,1.77,1.77,0,0,1,.6,1.47,2,2,0,0,1-.36,1.18,1.59,1.59,0,0,1-1,.61Zm-3.63-3.5h.16a2.77,2.77,0,0,0,.42,0,1.34,1.34,0,0,0,.37-.11.69.69,0,0,0,.26-.25.82.82,0,0,0,.09-.4.83.83,0,0,0-.09-.41.67.67,0,0,0-.26-.24,1.07,1.07,0,0,0-.37-.12,2.77,2.77,0,0,0-.42,0h-.16Z"/><path class="b" d="M136.3,91.79a3.7,3.7,0,0,1,1.13.68,3.07,3.07,0,0,1,.78,1,3,3,0,0,1,.29,1.3,3.69,3.69,0,0,1-.27,1.41,3.11,3.11,0,0,1-.73,1.11,3.15,3.15,0,0,1-1.12.73,3.9,3.9,0,0,1-2.8,0,3.24,3.24,0,0,1-1.85-1.85,3.6,3.6,0,0,1-.26-1.4,3,3,0,0,1,.28-1.3,3.35,3.35,0,0,1,.78-1,3.7,3.7,0,0,1,1.13-.68,3.76,3.76,0,0,1,1.32-.24A3.68,3.68,0,0,1,136.3,91.79Zm-2,1.5a1.93,1.93,0,0,0-.57.37,1.69,1.69,0,0,0-.39.54,1.41,1.41,0,0,0-.14.63,1.95,1.95,0,0,0,.52,1.35,1.76,1.76,0,0,0,2.54,0,1.88,1.88,0,0,0,.39-.6,2,2,0,0,0,.14-.75,1.52,1.52,0,0,0-.14-.63,1.63,1.63,0,0,0-.39-.54,1.85,1.85,0,0,0-.58-.37,1.77,1.77,0,0,0-1.38,0Z"/><path class="b" d="M142.75,93.4a1.84,1.84,0,0,0-.52-.31,1.42,1.42,0,0,0-.57-.12.86.86,0,0,0-.49.15.42.42,0,0,0-.22.38.43.43,0,0,0,.2.38,2.7,2.7,0,0,0,.53.23l.42.13a3.78,3.78,0,0,1,.63.24,2.24,2.24,0,0,1,.5.35,1.41,1.41,0,0,1,.33.49,1.88,1.88,0,0,1,.11.65,3,3,0,0,1-.15,1,1.74,1.74,0,0,1-.51.75,2.33,2.33,0,0,1-.82.45,3.57,3.57,0,0,1-1,.14,3.67,3.67,0,0,1-1.17-.19,3.76,3.76,0,0,1-1.06-.53l.7-1.33a3.42,3.42,0,0,0,.71.48,1.69,1.69,0,0,0,.76.17,1,1,0,0,0,.57-.16.56.56,0,0,0,.23-.48.44.44,0,0,0-.09-.27.76.76,0,0,0-.23-.2,1.51,1.51,0,0,0-.29-.13,2.31,2.31,0,0,0-.34-.1l-.05,0c-.31-.09-.56-.18-.75-.25a2.17,2.17,0,0,1-.51-.31,1.23,1.23,0,0,1-.34-.49,2,2,0,0,1-.12-.75,2.21,2.21,0,0,1,.16-.87,2.08,2.08,0,0,1,.45-.67,2,2,0,0,1,.7-.44,2.54,2.54,0,0,1,.88-.15,4.24,4.24,0,0,1,1,.14,4.69,4.69,0,0,1,1,.38Z"/><path class="b" d="M152.19,96.72v1.39h-5.11l2.6-2.82a3.47,3.47,0,0,0,.52-.75,1.75,1.75,0,0,0,.21-.81.87.87,0,0,0-.21-.57.64.64,0,0,0-.52-.25.66.66,0,0,0-.51.21.87.87,0,0,0-.18.56,2.45,2.45,0,0,0,0,.27h-1.82a2.55,2.55,0,0,1,.71-1.77,2.36,2.36,0,0,1,1.77-.67,3,3,0,0,1,1,.15,2.44,2.44,0,0,1,.78.46,2.13,2.13,0,0,1,.54.72,2.34,2.34,0,0,1,.18.93,2.31,2.31,0,0,1-.24,1.09,3.77,3.77,0,0,1-.78.94l-1,.92Z"/><path class="b" d="M160.06,94.21V91.76h1.65v6.35h-1.65v-2.6h-2.39v2.6H156V91.76h1.65v2.45Z"/><path class="b" d="M164.26,93.79V96.1a1.25,1.25,0,0,0,.17.7.67.67,0,0,0,.6.24.68.68,0,0,0,.6-.24,1.25,1.25,0,0,0,.16-.7V93.79h1.54V96.4a2.12,2.12,0,0,1-.17.88,1.5,1.5,0,0,1-.48.57,2.09,2.09,0,0,1-.73.31,3.76,3.76,0,0,1-.92.1,3.84,3.84,0,0,1-.93-.1,2.12,2.12,0,0,1-.72-.31,1.34,1.34,0,0,1-.48-.57,2,2,0,0,1-.17-.88V93.79Z"/><path class="b" d="M169.84,94.33h0a1.63,1.63,0,0,1,1.36-.68,1.86,1.86,0,0,1,.87.2,1.46,1.46,0,0,1,.61.62,1.56,1.56,0,0,1,.61-.61,1.81,1.81,0,0,1,.85-.21,1.33,1.33,0,0,1,1.13.45,2.05,2.05,0,0,1,.35,1.26v2.75h-1.53V96.05c0-.17,0-.32,0-.45a1.37,1.37,0,0,0-.08-.35.58.58,0,0,0-.19-.27.48.48,0,0,0-.35-.11.61.61,0,0,0-.4.11.58.58,0,0,0-.22.27,1.06,1.06,0,0,0-.09.36c0,.12,0,.27,0,.44v2.06h-1.53V96.05c0-.17,0-.32,0-.44a1.51,1.51,0,0,0-.07-.37.68.68,0,0,0-.21-.29.6.6,0,0,0-.39-.11.59.59,0,0,0-.38.11.61.61,0,0,0-.21.29,1.51,1.51,0,0,0-.07.37c0,.12,0,.27,0,.44v2.06h-1.53V93.79h1.53Z"/><path class="b" d="M176.59,91.12h1.54v3.09a1.51,1.51,0,0,1,.59-.42,2.14,2.14,0,0,1,1.62,0,2.15,2.15,0,0,1,.69.5,2.41,2.41,0,0,1,.45.74,2.58,2.58,0,0,1,.15.88,2.47,2.47,0,0,1-.61,1.63,2,2,0,0,1-.69.5,2.16,2.16,0,0,1-.88.18,1.78,1.78,0,0,1-.75-.16,1.23,1.23,0,0,1-.56-.47h0v.48h-1.54Zm1.75,4.14a1,1,0,0,0-.26.7.93.93,0,0,0,.26.69,1.07,1.07,0,0,0,1.44,0,.93.93,0,0,0,.27-.69,1,1,0,0,0-.27-.7,1.07,1.07,0,0,0-1.44,0Z"/><path class="b" d="M183.92,98.11h-1.53v-7h1.53Z"/><path class="b" d="M189.38,96.21h-3.23a.85.85,0,0,0,1,1,.77.77,0,0,0,.73-.4h1.48a1.72,1.72,0,0,1-.79,1.11,2.66,2.66,0,0,1-1.41.38,2.63,2.63,0,0,1-1.81-.61,2.13,2.13,0,0,1-.69-1.69,2.42,2.42,0,0,1,.17-1,2.08,2.08,0,0,1,.49-.74,2.34,2.34,0,0,1,.76-.46,3,3,0,0,1,1-.15,2.29,2.29,0,0,1,1.74.64,2.42,2.42,0,0,1,.63,1.76ZM188,95.32a.82.82,0,0,0-.3-.49.93.93,0,0,0-.57-.19,1,1,0,0,0-.59.18.86.86,0,0,0-.32.5Z"/><path class="b" d="M149.15,101.87h2.34a3.25,3.25,0,0,1,2.29.92,3.12,3.12,0,0,1,.69,1,3.2,3.2,0,0,1,0,2.48,3.15,3.15,0,0,1-.7,1,3.26,3.26,0,0,1-1,.67,3.09,3.09,0,0,1-1.24.25h-2.34Zm1.65,5h.37a2.35,2.35,0,0,0,.71-.11,1.57,1.57,0,0,0,.58-.32,1.54,1.54,0,0,0,.4-.56,2.14,2.14,0,0,0,.14-.79,1.71,1.71,0,0,0-.5-1.3,1.81,1.81,0,0,0-1.31-.48h-.39Z"/><path class="b" d="M155.49,101.87h2.34a3.31,3.31,0,0,1,1.25.24,3.22,3.22,0,0,1,1.73,1.7,3.05,3.05,0,0,1,.25,1.24,3.23,3.23,0,0,1-.25,1.24,3.31,3.31,0,0,1-.7,1,3.26,3.26,0,0,1-1,.67,3.09,3.09,0,0,1-1.24.25h-2.34Zm1.65,5h.37a2.35,2.35,0,0,0,.71-.11,1.57,1.57,0,0,0,.58-.32,1.54,1.54,0,0,0,.4-.56,2.14,2.14,0,0,0,.14-.79,1.71,1.71,0,0,0-.5-1.3,1.81,1.81,0,0,0-1.31-.48h-.39Z"/><path class="b" d="M165.31,103.51a2,2,0,0,0-.51-.31,1.66,1.66,0,0,0-.58-.11.93.93,0,0,0-.49.14.45.45,0,0,0-.22.39.42.42,0,0,0,.2.37,3.4,3.4,0,0,0,.53.24l.43.12a3.6,3.6,0,0,1,.63.25,2.14,2.14,0,0,1,.49.34,1.51,1.51,0,0,1,.33.49,1.69,1.69,0,0,1,.11.66,2.93,2.93,0,0,1-.15,1,1.69,1.69,0,0,1-.5.75,2.47,2.47,0,0,1-.83.45,3.19,3.19,0,0,1-1,.15,4,4,0,0,1-1.17-.19,4.08,4.08,0,0,1-1.06-.54l.71-1.33a3.36,3.36,0,0,0,.7.48,1.73,1.73,0,0,0,.76.18,1,1,0,0,0,.57-.17.52.52,0,0,0,.23-.47.51.51,0,0,0-.08-.28.78.78,0,0,0-.24-.19,1.11,1.11,0,0,0-.29-.14l-.34-.1-.05,0a7.24,7.24,0,0,1-.75-.25,1.88,1.88,0,0,1-.51-.31,1.17,1.17,0,0,1-.34-.49,2,2,0,0,1-.12-.74A2.21,2.21,0,0,1,162,103a1.95,1.95,0,0,1,1.16-1.11,2.49,2.49,0,0,1,.87-.15,4.29,4.29,0,0,1,2,.52Z"/><path class="c" d="M149.63,41.21h2.52a2.56,2.56,0,0,1,1.69.51,1.93,1.93,0,0,1,.62,1.58,2.12,2.12,0,0,1-.57,1.63,2.4,2.4,0,0,1-1.68.52h-.93v2.11h-1.65Zm1.65,2.91H152a2,2,0,0,0,.35-.09.64.64,0,0,0,.26-.23.93.93,0,0,0,.09-.44,1,1,0,0,0-.09-.46.53.53,0,0,0-.25-.24,1.2,1.2,0,0,0-.35-.1h-.77Z"/><path class="c" d="M159.74,43.34a1.53,1.53,0,0,0-.63-.52,1.92,1.92,0,0,0-.82-.18,1.65,1.65,0,0,0-.68.13,1.6,1.6,0,0,0-.54.38,1.71,1.71,0,0,0-.35.56,1.92,1.92,0,0,0-.12.69,1.67,1.67,0,0,0,.47,1.24,1.64,1.64,0,0,0,1.24.49,1.82,1.82,0,0,0,.79-.18,1.85,1.85,0,0,0,.64-.5v2l0,0-.79.22a3.06,3.06,0,0,1-.63.06,3.45,3.45,0,0,1-1.27-.24,3.79,3.79,0,0,1-1.11-.7,2.87,2.87,0,0,1-.77-1.07,3.52,3.52,0,0,1,0-2.58,3.18,3.18,0,0,1,.69-1.07,3.54,3.54,0,0,1,1.11-.76,3.38,3.38,0,0,1,1.31-.27,3.83,3.83,0,0,1,1.51.32Z"/><path class="c" d="M161.58,42.6V41.21h2.56v6.35h-1.65v-5Z"/><path class="c" d="M449,41.78h2.53a2.58,2.58,0,0,1,1.69.52,2,2,0,0,1,.62,1.57,2.11,2.11,0,0,1-.57,1.63,2.42,2.42,0,0,1-1.68.53h-.94v2.11H449Zm1.65,2.92h.28l.49,0a1,1,0,0,0,.34-.09.49.49,0,0,0,.26-.23.8.8,0,0,0,.1-.44,1,1,0,0,0-.09-.45.6.6,0,0,0-.25-.25,1,1,0,0,0-.35-.09l-.5,0h-.28Z"/><path class="c" d="M459.07,43.91a1.69,1.69,0,0,0-.64-.51,1.92,1.92,0,0,0-.81-.19,1.74,1.74,0,0,0-.69.14,1.66,1.66,0,0,0-.54.38,1.77,1.77,0,0,0-.35.56,1.92,1.92,0,0,0-.12.69,1.64,1.64,0,0,0,1.72,1.72,1.78,1.78,0,0,0,.78-.18,1.86,1.86,0,0,0,.65-.49v2L459,48q-.5.15-.78.21a3.2,3.2,0,0,1-.63.07,3.61,3.61,0,0,1-2.39-.94,2.92,2.92,0,0,1-.76-1.07A3.39,3.39,0,0,1,454.2,45a3.44,3.44,0,0,1,.24-1.26,3.15,3.15,0,0,1,.7-1.07,3.3,3.3,0,0,1,1.11-.75,3.35,3.35,0,0,1,1.31-.28,4,4,0,0,1,1.51.32Z"/><path class="c" d="M464.93,46.74v1.4h-5.11l2.6-2.83a3.47,3.47,0,0,0,.52-.75,1.73,1.73,0,0,0,.2-.81.86.86,0,0,0-.2-.57.68.68,0,0,0-1,0,.83.83,0,0,0-.18.55,2.45,2.45,0,0,0,0,.27h-1.82a2.59,2.59,0,0,1,.71-1.77,2.36,2.36,0,0,1,1.77-.67,2.75,2.75,0,0,1,.95.16,2.25,2.25,0,0,1,.78.45,2.19,2.19,0,0,1,.72,1.65,2.28,2.28,0,0,1-.24,1.09,3.77,3.77,0,0,1-.78.94l-1,.92Z"/><path class="b" d="M430.67,100.76h-2.06l-1.56-2.44h0v2.44h-1.65V94.41h2.47a2.45,2.45,0,0,1,1.6.49,1.74,1.74,0,0,1,.61,1.46,1.89,1.89,0,0,1-.37,1.18,1.52,1.52,0,0,1-1,.62ZM427,97.26h.16a2.81,2.81,0,0,0,.43,0,1.09,1.09,0,0,0,.36-.12.55.55,0,0,0,.26-.24.72.72,0,0,0,.1-.4.73.73,0,0,0-.1-.41.55.55,0,0,0-.26-.24,1.09,1.09,0,0,0-.36-.12,2.81,2.81,0,0,0-.43,0H427Z"/><path class="b" d="M435.63,94.44a3.7,3.7,0,0,1,1.13.68,3.24,3.24,0,0,1,.78,1,3,3,0,0,1,.28,1.3,3.68,3.68,0,0,1-.26,1.41,3.25,3.25,0,0,1-.73,1.11,3.39,3.39,0,0,1-1.12.73,4,4,0,0,1-2.8,0,3.29,3.29,0,0,1-1.12-.73,3.42,3.42,0,0,1-.74-1.12,3.79,3.79,0,0,1-.26-1.4,3.17,3.17,0,0,1,1.07-2.35,3.59,3.59,0,0,1,1.13-.68,3.68,3.68,0,0,1,1.32-.24A3.76,3.76,0,0,1,435.63,94.44Zm-2,1.49a1.88,1.88,0,0,0-.58.38,1.86,1.86,0,0,0-.39.54,1.56,1.56,0,0,0-.14.63,2,2,0,0,0,.14.75,1.73,1.73,0,0,0,.39.6,1.76,1.76,0,0,0,2.54,0,1.95,1.95,0,0,0,.52-1.35,1.38,1.38,0,0,0-.14-.63,1.6,1.6,0,0,0-.38-.54,1.88,1.88,0,0,0-.58-.38,1.9,1.9,0,0,0-1.38,0Z"/><path class="b" d="M442.08,96a1.81,1.81,0,0,0-.52-.3,1.47,1.47,0,0,0-.58-.12.85.85,0,0,0-.48.15.42.42,0,0,0-.22.38.39.39,0,0,0,.2.37,2,2,0,0,0,.53.24l.42.13a3.07,3.07,0,0,1,.63.24,2,2,0,0,1,.49.35,1.12,1.12,0,0,1,.33.49,1.67,1.67,0,0,1,.12.65,3,3,0,0,1-.15,1,1.73,1.73,0,0,1-.51.74,2.1,2.1,0,0,1-.83.45,3.17,3.17,0,0,1-1,.15,3.59,3.59,0,0,1-1.17-.19,3.82,3.82,0,0,1-1.07-.53l.71-1.33a3.42,3.42,0,0,0,.71.48,1.8,1.8,0,0,0,.76.17,1,1,0,0,0,.56-.16.55.55,0,0,0,.24-.48.42.42,0,0,0-.09-.27.9.9,0,0,0-.23-.2,1.45,1.45,0,0,0-.29-.13l-.34-.11h-.05c-.31-.09-.56-.18-.76-.25a2.17,2.17,0,0,1-.51-.31,1.34,1.34,0,0,1-.34-.49,2,2,0,0,1-.11-.75,2.21,2.21,0,0,1,.16-.87,1.73,1.73,0,0,1,.45-.67,2,2,0,0,1,.7-.44,2.5,2.5,0,0,1,.88-.15,4.31,4.31,0,0,1,1,.14,4.93,4.93,0,0,1,1,.38Z"/><path class="b" d="M451.52,99.36v1.4h-5.11l2.6-2.82a3.86,3.86,0,0,0,.52-.75,1.86,1.86,0,0,0,.2-.81.92.92,0,0,0-.2-.57.66.66,0,0,0-.52-.26.64.64,0,0,0-.51.22.87.87,0,0,0-.18.56,1.32,1.32,0,0,0,0,.27h-1.82a2.54,2.54,0,0,1,.7-1.77,2.4,2.4,0,0,1,1.78-.67,2.94,2.94,0,0,1,.94.15,2.49,2.49,0,0,1,.79.46,2.11,2.11,0,0,1,.53.72,2.17,2.17,0,0,1,.19.92,2.21,2.21,0,0,1-.25,1.1,3.52,3.52,0,0,1-.78.94l-1,.91Z"/><path class="b" d="M459.38,96.86V94.41H461v6.35h-1.65v-2.6H457v2.6h-1.66V94.41H457v2.45Z"/><path class="b" d="M463.59,96.44v2.31a1.21,1.21,0,0,0,.16.69.68.68,0,0,0,.6.25.69.69,0,0,0,.61-.25,1.21,1.21,0,0,0,.16-.69V96.44h1.54V99a2,2,0,0,1-.18.89,1.34,1.34,0,0,1-.48.57,2,2,0,0,1-.72.31,4.33,4.33,0,0,1-1.85,0,2,2,0,0,1-.72-.31,1.43,1.43,0,0,1-.48-.58,1.91,1.91,0,0,1-.18-.88v-2.6Z"/><path class="b" d="M469.17,97h0a1.62,1.62,0,0,1,1.37-.68,1.75,1.75,0,0,1,.87.2,1.44,1.44,0,0,1,.6.62,1.58,1.58,0,0,1,.62-.61,1.78,1.78,0,0,1,.85-.21,1.34,1.34,0,0,1,1.13.45A2.05,2.05,0,0,1,475,98v2.75h-1.54V98.7c0-.18,0-.32,0-.45a2,2,0,0,0-.08-.35.61.61,0,0,0-.19-.28.54.54,0,0,0-.35-.1.68.68,0,0,0-.4.1.54.54,0,0,0-.22.28,1.06,1.06,0,0,0-.09.36,2.89,2.89,0,0,0,0,.44v2.06h-1.54V98.7c0-.17,0-.32,0-.44a1.17,1.17,0,0,0-.08-.37.6.6,0,0,0-.59-.41.58.58,0,0,0-.38.12.56.56,0,0,0-.21.29,2.21,2.21,0,0,0-.08.37c0,.12,0,.27,0,.44v2.06h-1.54V96.44h1.54Z"/><path class="b" d="M475.92,93.77h1.53v3.09a1.63,1.63,0,0,1,.6-.42,1.87,1.87,0,0,1,.74-.14,2.05,2.05,0,0,1,.87.18,2.09,2.09,0,0,1,1.14,1.24,2.37,2.37,0,0,1,.16.88,2.59,2.59,0,0,1-.16.88,2.41,2.41,0,0,1-.45.74,2.22,2.22,0,0,1-.7.51,2.12,2.12,0,0,1-.87.18,1.87,1.87,0,0,1-.75-.16,1.18,1.18,0,0,1-.56-.47h0v.48h-1.53Zm1.75,4.14a1,1,0,0,0-.27.7.93.93,0,0,0,.27.69,1,1,0,0,0,.72.28,1,1,0,0,0,.72-.28.93.93,0,0,0,.26-.69,1,1,0,0,0-.26-.7.94.94,0,0,0-.72-.28A.91.91,0,0,0,477.67,97.91Z"/><path class="b" d="M483.25,100.76h-1.53v-7h1.53Z"/><path class="b" d="M488.7,98.86h-3.22a.85.85,0,0,0,1,1,.78.78,0,0,0,.73-.4h1.48a1.76,1.76,0,0,1-.8,1.11,2.89,2.89,0,0,1-3.21-.23,2.1,2.1,0,0,1-.7-1.69,2.42,2.42,0,0,1,.18-1,1.88,1.88,0,0,1,.49-.74,2.24,2.24,0,0,1,.76-.46,3,3,0,0,1,1-.15,2.3,2.3,0,0,1,1.74.64,2.41,2.41,0,0,1,.62,1.76ZM487.28,98a.82.82,0,0,0-.3-.49.91.91,0,0,0-.57-.19,1,1,0,0,0-.59.18.79.79,0,0,0-.32.5Z"/><path class="b" d="M448.47,104.52h2.35a3.31,3.31,0,0,1,1.25.24,3.24,3.24,0,0,1,1,.68,3.15,3.15,0,0,1,.7,1,3.23,3.23,0,0,1,.25,1.24,3.06,3.06,0,0,1-.26,1.24,3.15,3.15,0,0,1-.7,1,3.27,3.27,0,0,1-1,.67,3.12,3.12,0,0,1-1.24.25h-2.35Zm1.66,5h.37a2.35,2.35,0,0,0,.71-.11,1.65,1.65,0,0,0,.58-.32,1.41,1.41,0,0,0,.39-.56,2,2,0,0,0,.15-.79,1.73,1.73,0,0,0-.5-1.31,1.85,1.85,0,0,0-1.32-.47h-.38Z"/><path class="b" d="M454.81,104.52h2.35a3.26,3.26,0,0,1,1.24.24,3.18,3.18,0,0,1,1,.68,3.15,3.15,0,0,1,.7,1,3.22,3.22,0,0,1,.24,1.24,3.05,3.05,0,0,1-.25,1.24,3.15,3.15,0,0,1-.7,1,3.32,3.32,0,0,1-1,.67,3,3,0,0,1-1.23.25h-2.35Zm1.65,5h.38a2.28,2.28,0,0,0,.7-.11,1.5,1.5,0,0,0,.58-.32,1.43,1.43,0,0,0,.4-.56,2,2,0,0,0,.15-.79,1.73,1.73,0,0,0-.5-1.31,1.85,1.85,0,0,0-1.32-.47h-.39Z"/><path class="b" d="M464.64,106.16a2.11,2.11,0,0,0-.52-.31,1.46,1.46,0,0,0-.58-.11.84.84,0,0,0-.48.14.44.44,0,0,0-.22.39.43.43,0,0,0,.2.37,2.46,2.46,0,0,0,.53.23l.42.13a3.06,3.06,0,0,1,.63.25,2.2,2.2,0,0,1,.5.34,1.51,1.51,0,0,1,.33.49,1.9,1.9,0,0,1,.11.66,2.93,2.93,0,0,1-.15,1,1.63,1.63,0,0,1-.51.75,2.33,2.33,0,0,1-.82.45,3.24,3.24,0,0,1-1,.15,4,4,0,0,1-1.17-.19,4.08,4.08,0,0,1-1.06-.54l.7-1.33a3.42,3.42,0,0,0,.71.48,1.7,1.7,0,0,0,.76.18.93.93,0,0,0,.56-.17.54.54,0,0,0,.24-.47.45.45,0,0,0-.09-.28.92.92,0,0,0-.23-.2,1.85,1.85,0,0,0-.29-.13l-.34-.1-.05,0a7.24,7.24,0,0,1-.75-.25,1.88,1.88,0,0,1-.51-.31,1.09,1.09,0,0,1-.34-.49,2,2,0,0,1-.12-.74,2.3,2.3,0,0,1,.16-.88,1.93,1.93,0,0,1,.45-.67,2,2,0,0,1,.7-.43,2.33,2.33,0,0,1,.88-.16,3.89,3.89,0,0,1,1,.15,3.77,3.77,0,0,1,1,.38Z"/><path class="c" d="M429.76,210.6h-1l2.87-6.7h1Z"/><path class="c" d="M436.39,207.16a1.67,1.67,0,0,0,0-.4.85.85,0,0,0-.1-.27.52.52,0,0,0-.17-.16.51.51,0,0,0-.22,0,.77.77,0,0,0-.46.18,2.53,2.53,0,0,0-.52.6v2.65h-1v-4.18h.91l0,.61a1.37,1.37,0,0,1,.24-.29,1.18,1.18,0,0,1,.28-.22,1.61,1.61,0,0,1,.78-.19,1.4,1.4,0,0,1,.56.1,1.11,1.11,0,0,1,.41.33,1.23,1.23,0,0,1,.25.54,2.78,2.78,0,0,1,.07.74Z"/><path class="c" d="M442.1,207.59a2.94,2.94,0,0,1-.14.91,2.1,2.1,0,0,1-.4.7,2,2,0,0,1-.65.45,2.21,2.21,0,0,1-.87.16,2.37,2.37,0,0,1-.83-.13,1.6,1.6,0,0,1-.63-.41,1.77,1.77,0,0,1-.39-.67,3,3,0,0,1-.13-.95,2.58,2.58,0,0,1,.14-.9,1.8,1.8,0,0,1,.41-.7,1.85,1.85,0,0,1,.64-.45,2.41,2.41,0,0,1,.87-.15,2.37,2.37,0,0,1,.83.13,1.72,1.72,0,0,1,.63.41,1.67,1.67,0,0,1,.38.68A2.82,2.82,0,0,1,442.1,207.59Zm-1.05,0a1.67,1.67,0,0,0-.24-1,.86.86,0,0,0-.72-.33.88.88,0,0,0-.45.11.84.84,0,0,0-.31.28,1.32,1.32,0,0,0-.17.42,2.1,2.1,0,0,0-.06.51,1.53,1.53,0,0,0,.27,1,1,1,0,0,0,1.15.23.68.68,0,0,0,.3-.28,1.33,1.33,0,0,0,.18-.42A2.78,2.78,0,0,0,441.05,207.62Z"/><path class="c" d="M446.73,207.55a3,3,0,0,1-.16,1,1.9,1.9,0,0,1-.46.7,1.88,1.88,0,0,1-.68.41,2.63,2.63,0,0,1-.86.13,4.5,4.5,0,0,1-.85-.07,4.56,4.56,0,0,1-.75-.18V203.9h1v1.37l0,.82a2,2,0,0,1,.53-.47,1.39,1.39,0,0,1,.73-.17,1.51,1.51,0,0,1,.65.14,1.27,1.27,0,0,1,.49.43,2,2,0,0,1,.3.66A3.85,3.85,0,0,1,446.73,207.55Zm-1.05,0a3.13,3.13,0,0,0-.05-.58,1.15,1.15,0,0,0-.15-.4.55.55,0,0,0-.22-.23.62.62,0,0,0-.31-.07.72.72,0,0,0-.49.2,3.61,3.61,0,0,0-.49.56v1.83a1.67,1.67,0,0,0,.3.07,2,2,0,0,0,.35,0,.92.92,0,0,0,.44-.1.88.88,0,0,0,.33-.28,1.38,1.38,0,0,0,.21-.44A2.1,2.1,0,0,0,445.68,207.59Z"/><path class="c" d="M447,211.41v-.8h4.63v.8Z"/><path class="c" d="M454.73,209.72V207c0-.45-.17-.68-.51-.68a.72.72,0,0,0-.49.2,3.61,3.61,0,0,0-.49.56v2.65h-1v-4.18h.86l0,.61a3.58,3.58,0,0,1,.26-.29,1.54,1.54,0,0,1,.3-.22,1.35,1.35,0,0,1,.35-.14,1.32,1.32,0,0,1,.41-.05,1.37,1.37,0,0,1,.56.1,1,1,0,0,1,.4.3,1.12,1.12,0,0,1,.24.46,1.9,1.9,0,0,1,.08.6v2.81Z"/><path class="c" d="M460.63,207.59a2.67,2.67,0,0,1-.14.91,1.94,1.94,0,0,1-.4.7,1.85,1.85,0,0,1-.64.45,2.23,2.23,0,0,1-.88.16,2.41,2.41,0,0,1-.83-.13,1.64,1.64,0,0,1-.62-.41,1.77,1.77,0,0,1-.39-.67,3,3,0,0,1-.14-.95,2.57,2.57,0,0,1,.15-.9,1.92,1.92,0,0,1,.4-.7,2,2,0,0,1,.65-.45,2.65,2.65,0,0,1,1.7,0,1.77,1.77,0,0,1,.62.41,1.81,1.81,0,0,1,.39.68A2.84,2.84,0,0,1,460.63,207.59Zm-1,0a1.59,1.59,0,0,0-.25-1,.83.83,0,0,0-.72-.33.94.94,0,0,0-.45.11.89.89,0,0,0-.3.28,1.33,1.33,0,0,0-.18.42,2.76,2.76,0,0,0-.05.51,1.59,1.59,0,0,0,.26,1,.88.88,0,0,0,.72.33.89.89,0,0,0,.44-.1.8.8,0,0,0,.3-.28,1.32,1.32,0,0,0,.17-.42A2.12,2.12,0,0,0,459.59,207.62Z"/><path class="c" d="M464.13,209.72l0-.62a3.84,3.84,0,0,1-.27.29,3,3,0,0,1-.3.23,1.51,1.51,0,0,1-.35.14,1.68,1.68,0,0,1-.4.05,1.38,1.38,0,0,1-1.15-.57,2,2,0,0,1-.29-.66,3.34,3.34,0,0,1-.11-.87,2.72,2.72,0,0,1,.17-1,1.8,1.8,0,0,1,.45-.7,1.75,1.75,0,0,1,.68-.41,2.63,2.63,0,0,1,.86-.14l.31,0a2.11,2.11,0,0,1,.29.06V203.9h1v5.82Zm-1.83-2.06a3.34,3.34,0,0,0,0,.59,1.54,1.54,0,0,0,.14.4.63.63,0,0,0,.23.23.64.64,0,0,0,.31.07.77.77,0,0,0,.49-.2,4.41,4.41,0,0,0,.49-.57v-1.82a1.6,1.6,0,0,0-.3-.08,2,2,0,0,0-.35,0,1.05,1.05,0,0,0-.44.1,1.1,1.1,0,0,0-.33.28,1.38,1.38,0,0,0-.21.44A2.17,2.17,0,0,0,462.3,207.66Z"/><path class="c" d="M469.78,207.31c0,.06,0,.15,0,.26a2.85,2.85,0,0,1,0,.31H467a1.22,1.22,0,0,0,.09.49,1,1,0,0,0,.24.35,1,1,0,0,0,.37.22,1.43,1.43,0,0,0,.48.07,5.4,5.4,0,0,0,1.37-.2v.8l-.35.08c-.12,0-.25.05-.38.06l-.4.05H468a2.55,2.55,0,0,1-.86-.13,1.74,1.74,0,0,1-.64-.4,1.85,1.85,0,0,1-.41-.66,2.76,2.76,0,0,1-.14-.91,2.91,2.91,0,0,1,.14-.92,2.28,2.28,0,0,1,.4-.72,1.76,1.76,0,0,1,.62-.46,1.92,1.92,0,0,1,.81-.16,2.15,2.15,0,0,1,.79.13,1.59,1.59,0,0,1,.92,1A2.19,2.19,0,0,1,469.78,207.31Zm-1-.15a1.4,1.4,0,0,0-.06-.43,1.09,1.09,0,0,0-.18-.3.8.8,0,0,0-.27-.18.87.87,0,0,0-.94.2,1.16,1.16,0,0,0-.29.71Z"/><path class="c" d="M283.75,234h-1l2.87-6.7h1Z"/><path class="c" d="M291.06,232.92a3.07,3.07,0,0,1-.61.18,4.65,4.65,0,0,1-.66.05,2.84,2.84,0,0,1-.9-.13,1.84,1.84,0,0,1-.67-.41,1.78,1.78,0,0,1-.42-.66,2.56,2.56,0,0,1-.14-.91,2.59,2.59,0,0,1,.15-.91,2.11,2.11,0,0,1,.45-.7A1.9,1.9,0,0,1,289,229a2.42,2.42,0,0,1,.91-.16,4.21,4.21,0,0,1,.68,0,3.15,3.15,0,0,1,.5.1v1a2.56,2.56,0,0,0-1.12-.27,1.18,1.18,0,0,0-.5.1,1,1,0,0,0-.37.26,1.27,1.27,0,0,0-.24.41,1.78,1.78,0,0,0-.08.53,1.53,1.53,0,0,0,.09.54,1.09,1.09,0,0,0,.25.4,1,1,0,0,0,.38.26,1.26,1.26,0,0,0,.49.09l.28,0a1.5,1.5,0,0,0,.29-.06l.29-.08.26-.09Z"/><path class="c" d="M295.26,233.08V230a.88.88,0,0,0,0-.2.24.24,0,0,0-.07-.12.23.23,0,0,0-.13,0,.32.32,0,0,0-.25.17,3,3,0,0,0-.28.59v2.71h-.86v-2.85a2.26,2.26,0,0,0,0-.27.56.56,0,0,0,0-.2.35.35,0,0,0-.07-.12.29.29,0,0,0-.14,0c-.07,0-.15,0-.23.17a2.4,2.4,0,0,0-.3.59v2.71H292V228.9h.74l0,.61a2.28,2.28,0,0,1,.18-.32,1,1,0,0,1,.19-.22.94.94,0,0,1,.22-.12,1.12,1.12,0,0,1,.27,0,.72.72,0,0,1,.53.18.8.8,0,0,1,.21.51,2.25,2.25,0,0,1,.19-.32,1.46,1.46,0,0,1,.2-.22,1,1,0,0,1,.23-.12,1.12,1.12,0,0,1,.27,0,.78.78,0,0,1,.68.31,1.76,1.76,0,0,1,.21,1v3Z"/><path class="c" d="M299.58,233.08l0-.62a1.5,1.5,0,0,1-.27.29,1.33,1.33,0,0,1-.3.23,1.28,1.28,0,0,1-.34.14,1.32,1.32,0,0,1-.41,0,1.59,1.59,0,0,1-.66-.14,1.31,1.31,0,0,1-.48-.43,2,2,0,0,1-.3-.66,3.35,3.35,0,0,1-.1-.87,2.72,2.72,0,0,1,.16-1,1.92,1.92,0,0,1,.45-.7A1.79,1.79,0,0,1,298,229a2.63,2.63,0,0,1,.86-.14l.31,0,.28.06v-1.64h1v5.82ZM297.74,231a3.25,3.25,0,0,0,.05.59,1.16,1.16,0,0,0,.14.4.56.56,0,0,0,.23.23.62.62,0,0,0,.31.07.68.68,0,0,0,.48-.2,3.26,3.26,0,0,0,.49-.57v-1.82a1.48,1.48,0,0,0-.29-.08,2.07,2.07,0,0,0-.35,0,1,1,0,0,0-.44.1,1,1,0,0,0-.33.28,1.38,1.38,0,0,0-.21.44A2.16,2.16,0,0,0,297.74,231Z"/><path class="c" d="M301,234.77V234h4.63v.8Z"/><path class="c" d="M308.55,233.08H307.4l-1.66-4.18h1.12l.87,2.37.26.76.25-.73.88-2.4h1.08Z"/><path class="c" d="M314.49,230.67v.26c0,.11,0,.22,0,.31h-2.75a1.44,1.44,0,0,0,.08.49,1,1,0,0,0,.61.57,1.51,1.51,0,0,0,.48.07,3.77,3.77,0,0,0,.65-.05,5,5,0,0,0,.73-.15v.8l-.35.08-.39.07-.4,0h-.39a2.59,2.59,0,0,1-.86-.13,1.65,1.65,0,0,1-1-1.06,2.74,2.74,0,0,1-.14-.9,3,3,0,0,1,.14-.93,2.08,2.08,0,0,1,.39-.72,1.76,1.76,0,0,1,.62-.46,2,2,0,0,1,.82-.16,1.94,1.94,0,0,1,.78.14,1.54,1.54,0,0,1,.57.38,1.52,1.52,0,0,1,.35.59A2.27,2.27,0,0,1,314.49,230.67Zm-1-.15a1.44,1.44,0,0,0-.06-.43.75.75,0,0,0-.18-.3.68.68,0,0,0-.26-.18,1.14,1.14,0,0,0-.33-.05.83.83,0,0,0-.62.25,1.18,1.18,0,0,0-.28.71Z"/><path class="c" d="M316.83,228.05h-1.18v-.79h2.21v5h1.21v.78h-3.56v-.78h1.32Z"/><path class="c" d="M121.18,234.58h-1l2.87-6.7h1Z"/><path class="c" d="M128.07,233.69v-2.84a2.35,2.35,0,0,0,0-.28.84.84,0,0,0,0-.19.35.35,0,0,0-.07-.12.2.2,0,0,0-.13,0,.33.33,0,0,0-.25.17,2.52,2.52,0,0,0-.28.59v2.71h-.86v-2.84c0-.11,0-.2,0-.28a.78.78,0,0,0,0-.19.24.24,0,0,0-.07-.12.18.18,0,0,0-.13,0c-.07,0-.15.06-.24.17a2.92,2.92,0,0,0-.29.59v2.71h-.87v-4.18h.74l0,.61a2.13,2.13,0,0,1,.18-.31,1.07,1.07,0,0,1,.2-.22.48.48,0,0,1,.22-.12.68.68,0,0,1,.26,0,.72.72,0,0,1,.53.18.74.74,0,0,1,.21.51,2.09,2.09,0,0,1,.2-.31,1.07,1.07,0,0,1,.2-.22.51.51,0,0,1,.23-.12.75.75,0,0,1,.26,0,.78.78,0,0,1,.68.32,1.63,1.63,0,0,1,.22.94v3Z"/><path class="c" d="M133.52,231.57a2.83,2.83,0,0,1-.14.9,2.05,2.05,0,0,1-.4.71,2,2,0,0,1-.65.45,2.21,2.21,0,0,1-.87.16,2.37,2.37,0,0,1-.83-.14,1.58,1.58,0,0,1-.63-.4,1.81,1.81,0,0,1-.39-.68,3,3,0,0,1-.13-.94,2.63,2.63,0,0,1,.14-.91A1.84,1.84,0,0,1,130,230a1.8,1.8,0,0,1,.65-.45,2.31,2.31,0,0,1,.86-.16,2.37,2.37,0,0,1,.83.14,1.6,1.6,0,0,1,.63.41,1.85,1.85,0,0,1,.39.67A3.26,3.26,0,0,1,133.52,231.57Zm-1.05,0a1.65,1.65,0,0,0-.24-1,.84.84,0,0,0-.72-.33,1,1,0,0,0-.45.1.86.86,0,0,0-.31.29,1.18,1.18,0,0,0-.17.41,2.1,2.1,0,0,0-.06.51,1.54,1.54,0,0,0,.27,1,1,1,0,0,0,1.15.23.74.74,0,0,0,.3-.28,1.33,1.33,0,0,0,.18-.42A2.87,2.87,0,0,0,132.47,231.6Z"/><path class="c" d="M136.72,233.69h-1.15l-1.66-4.18H135l.87,2.37.26.77.25-.73.88-2.41h1.08Z"/><path class="c" d="M142.66,231.28v.27c0,.11,0,.21,0,.31h-2.75a1.42,1.42,0,0,0,.08.48,1.13,1.13,0,0,0,.24.36,1.23,1.23,0,0,0,.37.21,1.51,1.51,0,0,0,.48.08,5.55,5.55,0,0,0,1.38-.2v.79l-.35.09-.39.06-.4,0-.39,0a2.58,2.58,0,0,1-.86-.14,1.66,1.66,0,0,1-1-1.05,2.85,2.85,0,0,1-.14-.91,3,3,0,0,1,.14-.93,2,2,0,0,1,.39-.71,1.79,1.79,0,0,1,.62-.47,2.18,2.18,0,0,1,.82-.16,2.13,2.13,0,0,1,.78.14,1.45,1.45,0,0,1,.57.39,1.56,1.56,0,0,1,.35.58A2.27,2.27,0,0,1,142.66,231.28Zm-1-.14a1.12,1.12,0,0,0-.06-.43.75.75,0,0,0-.18-.3.68.68,0,0,0-.26-.18.87.87,0,0,0-.32-.06.88.88,0,0,0-.63.25,1.18,1.18,0,0,0-.28.72Z"/><path class="c" d="M143.08,235.38v-.79h4.64v.79Z"/><path class="c" d="M151.67,233.53a3.28,3.28,0,0,1-.61.18,3.52,3.52,0,0,1-.66.06,2.79,2.79,0,0,1-.9-.14,1.81,1.81,0,0,1-.67-.4,1.87,1.87,0,0,1-.42-.66,2.61,2.61,0,0,1-.15-.92,2.67,2.67,0,0,1,.16-.91,2,2,0,0,1,1.14-1.14,2.59,2.59,0,0,1,.91-.15,4.36,4.36,0,0,1,.68,0,4.75,4.75,0,0,1,.5.11v1a2,2,0,0,0-.55-.2,2.34,2.34,0,0,0-.57-.07,1.35,1.35,0,0,0-.5.09.91.91,0,0,0-.37.27,1,1,0,0,0-.24.41,1.72,1.72,0,0,0-.08.52,1.53,1.53,0,0,0,.09.54,1.27,1.27,0,0,0,.24.41,1.19,1.19,0,0,0,.38.25,1.35,1.35,0,0,0,.5.09,1.37,1.37,0,0,0,.28,0l.29-.05.29-.08.26-.1Z"/><path class="c" d="M156.69,231.57a2.83,2.83,0,0,1-.14.9,2.05,2.05,0,0,1-.4.71,2,2,0,0,1-.65.45,2.21,2.21,0,0,1-.87.16,2.37,2.37,0,0,1-.83-.14,1.58,1.58,0,0,1-.63-.4,1.81,1.81,0,0,1-.39-.68,3,3,0,0,1-.13-.94,2.63,2.63,0,0,1,.14-.91,1.84,1.84,0,0,1,.41-.69,1.8,1.8,0,0,1,.65-.45,2.31,2.31,0,0,1,.86-.16,2.37,2.37,0,0,1,.83.14,1.6,1.6,0,0,1,.63.41,1.85,1.85,0,0,1,.39.67A3.26,3.26,0,0,1,156.69,231.57Zm-1.05,0a1.65,1.65,0,0,0-.24-1,.84.84,0,0,0-.72-.33,1,1,0,0,0-.45.1.86.86,0,0,0-.31.29,1.18,1.18,0,0,0-.17.41,2.1,2.1,0,0,0-.06.51,1.54,1.54,0,0,0,.27,1,1,1,0,0,0,1.15.23.74.74,0,0,0,.3-.28,1.33,1.33,0,0,0,.18-.42A2.87,2.87,0,0,0,155.64,231.6Z"/><path class="c" d="M160.05,233.69V231q0-.69-.51-.69a.74.74,0,0,0-.49.21,3.61,3.61,0,0,0-.49.56v2.64h-1v-4.18h.87l0,.62a2.5,2.5,0,0,1,.27-.29,2.09,2.09,0,0,1,.29-.23,1.51,1.51,0,0,1,.35-.14,1.7,1.7,0,0,1,.41-.05,1.33,1.33,0,0,1,.56.11,1.09,1.09,0,0,1,.4.29,1.23,1.23,0,0,1,.24.47,1.85,1.85,0,0,1,.09.6v2.8Z"/><path class="c" d="M165.64,233.65a4.86,4.86,0,0,1-.55.1,3.2,3.2,0,0,1-.52,0,2.45,2.45,0,0,1-.71-.09,1.21,1.21,0,0,1-.49-.26,1.06,1.06,0,0,1-.29-.45,2.06,2.06,0,0,1-.1-.65v-2.05h-1.12v-.78H163v-1.07l1-.26v1.33h1.63v.78H164v2a.78.78,0,0,0,.17.54.68.68,0,0,0,.55.19,3.73,3.73,0,0,0,.48,0l.43-.1Z"/><path class="c" d="M169.52,231.14a2.25,2.25,0,0,0,0-.4.85.85,0,0,0-.09-.27.51.51,0,0,0-.17-.16.56.56,0,0,0-.23-.05.73.73,0,0,0-.46.19,2.78,2.78,0,0,0-.52.6v2.64h-1v-4.18h.91l0,.61a2.26,2.26,0,0,1,.23-.29,2.21,2.21,0,0,1,.29-.22,1.35,1.35,0,0,1,.35-.14,1.88,1.88,0,0,1,.43-.05,1.4,1.4,0,0,1,.56.11,1.07,1.07,0,0,1,.41.32,1.68,1.68,0,0,1,.25.54,2.92,2.92,0,0,1,.06.75Z"/><path class="c" d="M175.22,231.57a2.58,2.58,0,0,1-.14.9,1.9,1.9,0,0,1-.4.71,1.85,1.85,0,0,1-.64.45,2.23,2.23,0,0,1-.88.16,2.41,2.41,0,0,1-.83-.14,1.62,1.62,0,0,1-.62-.4,1.81,1.81,0,0,1-.39-.68,3,3,0,0,1-.14-.94,2.63,2.63,0,0,1,.15-.91,2,2,0,0,1,.4-.69,2,2,0,0,1,.65-.45,2.35,2.35,0,0,1,.86-.16,2.38,2.38,0,0,1,.84.14,1.64,1.64,0,0,1,.62.41,1.85,1.85,0,0,1,.39.67A2.94,2.94,0,0,1,175.22,231.57Zm-1,0a1.57,1.57,0,0,0-.25-1,.83.83,0,0,0-.72-.33,1.06,1.06,0,0,0-.45.1.92.92,0,0,0-.3.29,1.19,1.19,0,0,0-.18.41,2.76,2.76,0,0,0-.05.51,1.6,1.6,0,0,0,.26,1,.88.88,0,0,0,.72.33.83.83,0,0,0,.74-.38,1.32,1.32,0,0,0,.17-.42A2.18,2.18,0,0,0,174.18,231.6Z"/><path class="c" d="M177.44,228.66h-1.18v-.78h2.21v5h1.21v.78h-3.56v-.78h1.32Z"/><path class="c" d="M182.08,228.66H180.9v-.78h2.21v5h1.2v.78h-3.56v-.78h1.33Z"/><path class="c" d="M189,231.28v.27c0,.11,0,.21,0,.31h-2.75a1.42,1.42,0,0,0,.08.48,1.13,1.13,0,0,0,.24.36,1.12,1.12,0,0,0,.37.21,1.51,1.51,0,0,0,.48.08,5.13,5.13,0,0,0,.65-.05,5,5,0,0,0,.73-.15v.79l-.35.09-.39.06-.4,0-.39,0a2.58,2.58,0,0,1-.86-.14,1.66,1.66,0,0,1-1-1.05,2.6,2.6,0,0,1-.14-.91,2.75,2.75,0,0,1,.14-.93,2,2,0,0,1,.39-.71,1.79,1.79,0,0,1,.62-.47,2.18,2.18,0,0,1,.82-.16,2.13,2.13,0,0,1,.78.14,1.45,1.45,0,0,1,.57.39,1.56,1.56,0,0,1,.35.58A2.27,2.27,0,0,1,189,231.28Zm-1-.14a1.35,1.35,0,0,0-.06-.43.75.75,0,0,0-.18-.3.68.68,0,0,0-.26-.18.88.88,0,0,0-.33-.06.87.87,0,0,0-.62.25,1.18,1.18,0,0,0-.28.72Z"/><path class="c" d="M192.69,231.14a2.25,2.25,0,0,0,0-.4.66.66,0,0,0-.1-.27.41.41,0,0,0-.16-.16.56.56,0,0,0-.23-.05.73.73,0,0,0-.46.19,2.78,2.78,0,0,0-.52.6v2.64h-1v-4.18h.91l0,.61a2.26,2.26,0,0,1,.23-.29,2.21,2.21,0,0,1,.29-.22,1.35,1.35,0,0,1,.35-.14,1.88,1.88,0,0,1,.43-.05,1.4,1.4,0,0,1,.56.11,1.07,1.07,0,0,1,.41.32,1.68,1.68,0,0,1,.25.54,2.92,2.92,0,0,1,.06.75Z"/><path class="c" d="M138.19,179.54h-1l2.88-6.7h1Z"/><path class="c" d="M145.57,177.42a1.09,1.09,0,0,1-.16.61,1.1,1.1,0,0,1-.42.41,1.62,1.62,0,0,1-.59.23,3.08,3.08,0,0,1-.68.08,7,7,0,0,1-.83-.05c-.24,0-.48-.07-.7-.12v-.91a3.36,3.36,0,0,0,.77.23,3.88,3.88,0,0,0,.73.08,1.15,1.15,0,0,0,.59-.13.38.38,0,0,0,.2-.33.34.34,0,0,0-.2-.32,1.38,1.38,0,0,0-.32-.15,5.13,5.13,0,0,0-.54-.17,4.8,4.8,0,0,1-.54-.19,1.58,1.58,0,0,1-.38-.26.93.93,0,0,1-.23-.35,1.25,1.25,0,0,1-.08-.45,1.07,1.07,0,0,1,.12-.49,1,1,0,0,1,.34-.39,1.51,1.51,0,0,1,.57-.27,2.78,2.78,0,0,1,.8-.1,4.9,4.9,0,0,1,.7,0l.54.09v.82a3.8,3.8,0,0,0-.67-.16,4.46,4.46,0,0,0-.63,0,1,1,0,0,0-.49.11.35.35,0,0,0-.19.31.33.33,0,0,0,0,.17.31.31,0,0,0,.14.14,1.8,1.8,0,0,0,.31.15l.51.17a3,3,0,0,1,.61.22,1.21,1.21,0,0,1,.4.26,1,1,0,0,1,.22.34A1.4,1.4,0,0,1,145.57,177.42Z"/><path class="c" d="M149.45,176.1a2.36,2.36,0,0,0,0-.4,1,1,0,0,0-.1-.28.4.4,0,0,0-.17-.15.43.43,0,0,0-.23-.05.74.74,0,0,0-.45.18,2.53,2.53,0,0,0-.53.6v2.65h-1v-4.18h.91l0,.61a2.26,2.26,0,0,1,.23-.29,2,2,0,0,1,.29-.22,1.51,1.51,0,0,1,.35-.14,2,2,0,0,1,.43-.05,1.4,1.4,0,0,1,.56.11,1.07,1.07,0,0,1,.41.32,1.35,1.35,0,0,1,.25.54,2.81,2.81,0,0,1,.07.75Z"/><path class="c" d="M153.73,178.65h-1.16l-1.66-4.18H152l.87,2.37.26.77.26-.74.87-2.4h1.08Z"/><path class="c" d="M155.45,180.34v-.8h4.64v.8Z"/><path class="c" d="M163.15,178.65v-2.72q0-.69-.51-.69a.77.77,0,0,0-.49.2,5,5,0,0,0-.49.56v2.65h-1v-4.18h.87l0,.62q.13-.17.27-.3a1.66,1.66,0,0,1,.3-.22,1.28,1.28,0,0,1,.34-.14,1.73,1.73,0,0,1,.42-.05,1.4,1.4,0,0,1,.56.1,1.08,1.08,0,0,1,.4.3,1.54,1.54,0,0,1,.24.46,2.23,2.23,0,0,1,.08.6v2.81Z"/><path class="c" d="M169.06,176.53a2.83,2.83,0,0,1-.14.9,2,2,0,0,1-.4.7,1.73,1.73,0,0,1-.65.45,2.21,2.21,0,0,1-.87.17,2.37,2.37,0,0,1-.83-.14,1.6,1.6,0,0,1-.63-.41,1.77,1.77,0,0,1-.39-.67,3,3,0,0,1-.13-.95,2.58,2.58,0,0,1,.14-.9,2,2,0,0,1,.41-.7,1.7,1.7,0,0,1,.64-.44,2.21,2.21,0,0,1,.87-.16,2.16,2.16,0,0,1,.83.14,1.6,1.6,0,0,1,.63.41,1.63,1.63,0,0,1,.38.67A2.93,2.93,0,0,1,169.06,176.53Zm-1.05,0a1.67,1.67,0,0,0-.24-1,1,1,0,0,0-1.17-.22.84.84,0,0,0-.31.28,1.13,1.13,0,0,0-.17.42,2.1,2.1,0,0,0-.06.51,1.54,1.54,0,0,0,.27,1,.86.86,0,0,0,.72.33,1,1,0,0,0,.43-.1.74.74,0,0,0,.3-.28,1.3,1.3,0,0,0,.18-.43A2.78,2.78,0,0,0,168,176.55Z"/><path class="c" d="M172.56,178.65l0-.62-.27.3a1.66,1.66,0,0,1-.3.22,1.43,1.43,0,0,1-.34.14,1.35,1.35,0,0,1-.41.06,1.4,1.4,0,0,1-.66-.15,1.38,1.38,0,0,1-.48-.42,2.17,2.17,0,0,1-.3-.67,3.35,3.35,0,0,1-.1-.87,2.72,2.72,0,0,1,.16-1,2,2,0,0,1,.45-.7,1.88,1.88,0,0,1,.68-.41,2.67,2.67,0,0,1,.86-.13,1.72,1.72,0,0,1,.32,0l.28.05v-1.63h1v5.81Zm-1.84-2.06a3.25,3.25,0,0,0,.05.59,1.16,1.16,0,0,0,.14.4.51.51,0,0,0,.23.23.62.62,0,0,0,.31.08.7.7,0,0,0,.48-.21,4.16,4.16,0,0,0,.49-.56v-1.83a1.71,1.71,0,0,0-.29-.08l-.36,0a1,1,0,0,0-.43.09,1,1,0,0,0-.33.28,1.25,1.25,0,0,0-.21.45A2.08,2.08,0,0,0,170.72,176.59Z"/><path class="c" d="M178.2,176.24v.27c0,.11,0,.21,0,.31h-2.75a1.42,1.42,0,0,0,.08.48,1,1,0,0,0,.61.57,1.51,1.51,0,0,0,.48.07,4.93,4.93,0,0,0,.65,0,6.86,6.86,0,0,0,.73-.16v.8l-.35.08-.39.07-.4,0-.39,0a2.58,2.58,0,0,1-.86-.14,1.7,1.7,0,0,1-.64-.4,1.83,1.83,0,0,1-.4-.66,2.74,2.74,0,0,1-.14-.9,3,3,0,0,1,.14-.93,2.08,2.08,0,0,1,.39-.72,1.76,1.76,0,0,1,.62-.46,2,2,0,0,1,.82-.16,1.94,1.94,0,0,1,.78.14,1.54,1.54,0,0,1,.57.38,1.6,1.6,0,0,1,.35.59A2.27,2.27,0,0,1,178.2,176.24Zm-1-.14a1.12,1.12,0,0,0-.06-.43.73.73,0,0,0-.18-.31.56.56,0,0,0-.26-.17.88.88,0,0,0-.33-.06.83.83,0,0,0-.62.25,1.18,1.18,0,0,0-.28.72Z"/><path class="c" d="M283.75,181.63h-1l2.87-6.7h1Z"/><path class="c" d="M291.13,179.52a1.11,1.11,0,0,1-.16.61,1.18,1.18,0,0,1-.42.41,2.07,2.07,0,0,1-.59.23,3.08,3.08,0,0,1-.68.07,7,7,0,0,1-.83,0,4.83,4.83,0,0,1-.7-.13v-.9a4.78,4.78,0,0,0,.77.23,3.83,3.83,0,0,0,.73.07,1.16,1.16,0,0,0,.59-.12.39.39,0,0,0,.19-.33.33.33,0,0,0,0-.17.31.31,0,0,0-.15-.15,1.62,1.62,0,0,0-.32-.15L289,179a4.12,4.12,0,0,1-.54-.2,1.21,1.21,0,0,1-.38-.26.79.79,0,0,1-.23-.34,1.26,1.26,0,0,1-.08-.46,1,1,0,0,1,.12-.48,1.16,1.16,0,0,1,.34-.4,1.89,1.89,0,0,1,.57-.27,3.12,3.12,0,0,1,.8-.1,4.9,4.9,0,0,1,.7.05,3.79,3.79,0,0,1,.54.09v.82a4,4,0,0,0-.68-.17,4.3,4.3,0,0,0-.62,0,.93.93,0,0,0-.5.11.33.33,0,0,0-.18.31.41.41,0,0,0,0,.16.53.53,0,0,0,.15.15,2.2,2.2,0,0,0,.3.14,4.55,4.55,0,0,0,.52.17,3.82,3.82,0,0,1,.61.22,1.55,1.55,0,0,1,.4.27.84.84,0,0,1,.21.33A1.2,1.2,0,0,1,291.13,179.52Z"/><path class="c" d="M295,178.19a2.25,2.25,0,0,0,0-.4.66.66,0,0,0-.1-.27.49.49,0,0,0-.16-.16.56.56,0,0,0-.23-.05.79.79,0,0,0-.46.19,2.78,2.78,0,0,0-.52.6v2.65h-1v-4.18h.91l0,.6a2.15,2.15,0,0,1,.23-.28,1.23,1.23,0,0,1,.29-.22,1.37,1.37,0,0,1,.35-.15,1.88,1.88,0,0,1,.43-.05,1.43,1.43,0,0,1,.56.11,1.09,1.09,0,0,1,.41.33,1.53,1.53,0,0,1,.25.53,2.92,2.92,0,0,1,.06.75Z"/><path class="c" d="M299.29,180.75h-1.16l-1.66-4.18h1.12l.87,2.37.26.76L299,179l.88-2.4h1.08Z"/><path class="c" d="M301,182.43v-.79h4.63v.79Z"/><path class="c" d="M309.17,180.75V177.9a2.35,2.35,0,0,0,0-.28c0-.07,0-.14,0-.19a.25.25,0,0,0-.08-.12.22.22,0,0,0-.13,0c-.08,0-.16.06-.25.18a3.15,3.15,0,0,0-.28.58v2.72h-.86v-3.13a.9.9,0,0,0,0-.19.24.24,0,0,0-.07-.12.25.25,0,0,0-.13,0c-.08,0-.15.06-.24.18a2.19,2.19,0,0,0-.29.58v2.72h-.87v-4.18h.74l0,.6a2.84,2.84,0,0,1,.18-.31,1.44,1.44,0,0,1,.19-.22.8.8,0,0,1,.22-.12,1.1,1.1,0,0,1,.27,0,.69.69,0,0,1,.53.19.79.79,0,0,1,.21.5,2.79,2.79,0,0,1,.2-.31,1.07,1.07,0,0,1,.2-.22.68.68,0,0,1,.22-.12,1.1,1.1,0,0,1,.27,0,.78.78,0,0,1,.68.32,1.73,1.73,0,0,1,.22.95v3Z"/><path class="c" d="M314.62,178.62a2.94,2.94,0,0,1-.14.91,2.12,2.12,0,0,1-.41.7,1.85,1.85,0,0,1-.64.45,2.23,2.23,0,0,1-.88.16,2.41,2.41,0,0,1-.83-.13,1.77,1.77,0,0,1-.62-.41,1.74,1.74,0,0,1-.39-.68,3,3,0,0,1-.14-.94,2.57,2.57,0,0,1,.15-.9,1.92,1.92,0,0,1,.4-.7,2,2,0,0,1,.65-.45,2.41,2.41,0,0,1,.87-.16,2.37,2.37,0,0,1,.83.14,1.57,1.57,0,0,1,.62.41,1.85,1.85,0,0,1,.39.67A2.93,2.93,0,0,1,314.62,178.62Zm-1.05,0a1.65,1.65,0,0,0-.24-1,1,1,0,0,0-1.17-.22.76.76,0,0,0-.31.28,1.13,1.13,0,0,0-.17.42,2,2,0,0,0-.06.51,1.59,1.59,0,0,0,.26,1,.88.88,0,0,0,.72.33.87.87,0,0,0,.44-.1.89.89,0,0,0,.3-.28,1.32,1.32,0,0,0,.17-.42A2.18,2.18,0,0,0,313.57,178.65Z"/><path class="c" d="M318.11,180.75l0-.62a3.84,3.84,0,0,1-.27.29,3,3,0,0,1-.3.23,1.35,1.35,0,0,1-.35.14,1.62,1.62,0,0,1-.4.05,1.4,1.4,0,0,1-.66-.15,1.38,1.38,0,0,1-.48-.42,2,2,0,0,1-.3-.66,3.36,3.36,0,0,1-.11-.88,2.7,2.7,0,0,1,.17-1,1.92,1.92,0,0,1,.45-.7,1.77,1.77,0,0,1,.68-.42,2.93,2.93,0,0,1,.86-.13l.32,0a2,2,0,0,1,.28.06v-1.64h1v5.82Zm-1.83-2.06a2.54,2.54,0,0,0,.05.59,1,1,0,0,0,.14.4.55.55,0,0,0,.22.23.64.64,0,0,0,.31.07.77.77,0,0,0,.49-.2,3.74,3.74,0,0,0,.49-.57v-1.83a1.67,1.67,0,0,0-.3-.07,2,2,0,0,0-.35,0,.85.85,0,0,0-.43.1,1.13,1.13,0,0,0-.34.28,1.38,1.38,0,0,0-.21.44A2.17,2.17,0,0,0,316.28,178.69Z"/><path class="b" d="M277.84,314.37H275v-10.9h2.83Z"/><path class="b" d="M282.26,307.91h0a2.75,2.75,0,0,1,1-.93,3.14,3.14,0,0,1,1.36-.27,2.59,2.59,0,0,1,2.11.81,3.47,3.47,0,0,1,.68,2.27v4.58h-2.63v-3.62a6.11,6.11,0,0,0,0-.79,1.76,1.76,0,0,0-.15-.59.9.9,0,0,0-.35-.42,1.43,1.43,0,0,0-1.7.32,2.2,2.2,0,0,0-.32,1.25v3.85h-2.63V307h2.63Z"/><path class="b" d="M292.06,314.37h-2.63v-5.25h-.85V307h.85v-2.22h2.63V307h1.49v2.17h-1.49Z"/><path class="b" d="M302,311.1h-5.53a1.46,1.46,0,0,0,1.64,1.65,1.37,1.37,0,0,0,1.26-.68h2.53a3,3,0,0,1-1.36,1.89,5,5,0,0,1-5.51-.39,3.62,3.62,0,0,1-1.19-2.9,4.53,4.53,0,0,1,.29-1.65,3.55,3.55,0,0,1,.85-1.26,3.68,3.68,0,0,1,1.31-.79,5.1,5.1,0,0,1,1.65-.26,4,4,0,0,1,3,1.1,4.17,4.17,0,0,1,1.07,3Zm-2.44-1.52a1.36,1.36,0,0,0-.52-.84,1.52,1.52,0,0,0-1-.33,1.65,1.65,0,0,0-1,.31,1.37,1.37,0,0,0-.54.86Z"/><path class="b" d="M305.83,308.17h0a2.36,2.36,0,0,1,1-1,2.94,2.94,0,0,1,1.41-.33h.5v2.53a1.52,1.52,0,0,0-.51-.19,2.64,2.64,0,0,0-.6-.06,1.6,1.6,0,0,0-1.42.59,2.88,2.88,0,0,0-.4,1.65v3H303.2V307h2.63Z"/><path class="b" d="M312.38,307.91h0a2.7,2.7,0,0,1,1-.93,3.07,3.07,0,0,1,1.35-.27,2.59,2.59,0,0,1,2.11.81,3.47,3.47,0,0,1,.68,2.27v4.58h-2.63v-3.62c0-.3,0-.57,0-.79a2,2,0,0,0-.16-.59.9.9,0,0,0-.35-.42,1.43,1.43,0,0,0-1.7.32,2.2,2.2,0,0,0-.31,1.25v3.85h-2.63V307h2.63Z"/><path class="b" d="M326.91,311.1h-5.53a1.45,1.45,0,0,0,1.64,1.65,1.37,1.37,0,0,0,1.26-.68h2.53a3,3,0,0,1-1.36,1.89,5,5,0,0,1-5.51-.39,3.62,3.62,0,0,1-1.19-2.9A4.33,4.33,0,0,1,319,309a3.55,3.55,0,0,1,.85-1.26,3.72,3.72,0,0,1,1.3-.79,5.2,5.2,0,0,1,1.66-.26,4,4,0,0,1,3,1.1,4.17,4.17,0,0,1,1.07,3Zm-2.44-1.52a1.36,1.36,0,0,0-.52-.84,1.54,1.54,0,0,0-1-.33,1.65,1.65,0,0,0-1,.31,1.37,1.37,0,0,0-.54.86Z"/><path class="b" d="M331,314.37h-2.63v-5.25h-.85V307h.85v-2.22H331V307h1.49v2.17H331Z"/><path class="b" d="M290,96.63,292.62,90h3.07L291,100.9h-2.2L284.26,90h3.08Z"/><path class="b" d="M296.4,90h4.34a4.38,4.38,0,0,1,2.89.89,3.3,3.3,0,0,1,1.07,2.69,3.62,3.62,0,0,1-1,2.8,4.1,4.1,0,0,1-2.87.9h-1.61v3.61H296.4Zm2.83,5h.48c.35,0,.62,0,.83,0a2,2,0,0,0,.59-.15,1,1,0,0,0,.45-.4,1.44,1.44,0,0,0,.17-.75,1.68,1.68,0,0,0-.16-.78,1,1,0,0,0-.43-.42,1.66,1.66,0,0,0-.6-.16c-.22,0-.5,0-.85,0h-.48Z"/><path class="b" d="M306,90h2.83L314,96.67h0V90h2.83V100.9H314l-5.19-6.67h0v6.67H306Z"/><path class="b" d="M284.07,156.15a2.81,2.81,0,0,0-.58-.21,2.3,2.3,0,0,0-.6-.09,1,1,0,0,0-.46.11.35.35,0,0,0-.23.31.35.35,0,0,0,.24.35,3.1,3.1,0,0,0,.63.17l.12,0a2.78,2.78,0,0,1,1.32.59,1.58,1.58,0,0,1,.47,1.24,2.15,2.15,0,0,1-.24,1,2,2,0,0,1-.65.71,3,3,0,0,1-.94.42,4.32,4.32,0,0,1-1.08.14,4.67,4.67,0,0,1-1.29-.18,4.93,4.93,0,0,1-1.2-.53l.79-1.53a4.07,4.07,0,0,0,.86.44,2.6,2.6,0,0,0,.88.18,1,1,0,0,0,.47-.12.37.37,0,0,0,.21-.35.36.36,0,0,0-.23-.36,3.39,3.39,0,0,0-.72-.23l-.42-.09a2.94,2.94,0,0,1-.53-.2,1.52,1.52,0,0,1-.43-.28,1.46,1.46,0,0,1-.3-.47,1.94,1.94,0,0,1-.11-.68,2,2,0,0,1,.22-1,1.87,1.87,0,0,1,.62-.69,2.9,2.9,0,0,1,.87-.41,3.78,3.78,0,0,1,1-.13,4.78,4.78,0,0,1,2,.4Z"/><path class="b" d="M292.51,158H287.9a1.21,1.21,0,0,0,1.37,1.37,1.16,1.16,0,0,0,1.05-.56h2.11a2.45,2.45,0,0,1-1.14,1.57,3.65,3.65,0,0,1-2,.55,3.77,3.77,0,0,1-2.58-.87,3.06,3.06,0,0,1-1-2.42,3.72,3.72,0,0,1,.24-1.37,3,3,0,0,1,.71-1,3,3,0,0,1,1.09-.66,4.08,4.08,0,0,1,1.38-.22,3.34,3.34,0,0,1,2.49.92,3.48,3.48,0,0,1,.89,2.51Zm-2-1.26a1.19,1.19,0,0,0-.44-.71,1.27,1.27,0,0,0-.8-.27,1.47,1.47,0,0,0-.85.25,1.15,1.15,0,0,0-.46.73Z"/><path class="b" d="M295.7,155.58h0a2.07,2.07,0,0,1,.83-.83,2.46,2.46,0,0,1,1.17-.27h.43v2.11a1.34,1.34,0,0,0-.43-.16,2.41,2.41,0,0,0-.5-.05,1.34,1.34,0,0,0-1.18.49,2.39,2.39,0,0,0-.34,1.38v2.49h-2.19v-6.18h2.19Z"/><path class="b" d="M302.21,157.73l1.47-3.17h2.46l-3.23,6.18h-1.39l-3.24-6.18h2.45Z"/><path class="b" d="M308.64,151.33a1.23,1.23,0,1,1-1.73,0,1.2,1.2,0,0,1,1.73,0Zm.23,9.41h-2.19v-6.18h2.19Z"/><path class="b" d="M314.77,156.58a1.93,1.93,0,0,0-.55-.32,1.49,1.49,0,0,0-2.08,1.39,1.47,1.47,0,0,0,.43,1.09,1.65,1.65,0,0,0,1.69.31,1.62,1.62,0,0,0,.51-.31v1.86a3.42,3.42,0,0,1-1.54.35,3.52,3.52,0,0,1-1.29-.24,3.37,3.37,0,0,1-1.07-.68,3,3,0,0,1-.73-1,3.06,3.06,0,0,1-.27-1.28,3.4,3.4,0,0,1,.27-1.36A3.17,3.17,0,0,1,312,154.6a3.81,3.81,0,0,1,1.36-.24,2.9,2.9,0,0,1,1.44.36Z"/><path class="b" d="M322.48,158h-4.61a1.21,1.21,0,0,0,1.37,1.37,1.16,1.16,0,0,0,1.05-.56h2.1a2.4,2.4,0,0,1-1.13,1.57,3.65,3.65,0,0,1-2,.55,3.77,3.77,0,0,1-2.58-.87,3.06,3.06,0,0,1-1-2.42,3.71,3.71,0,0,1,.25-1.37,3,3,0,0,1,.71-1,2.93,2.93,0,0,1,1.09-.66,4.06,4.06,0,0,1,1.37-.22,3.34,3.34,0,0,1,2.5.92,3.48,3.48,0,0,1,.89,2.51Zm-2-1.26a1.13,1.13,0,0,0-.43-.71,1.28,1.28,0,0,0-.81-.27,1.49,1.49,0,0,0-.85.25,1.18,1.18,0,0,0-.45.73Z"/><path class="b" d="M289.14,214.28H287v-4.37h-.71V208.1H287v-1.85h2.19v1.85h1.24v1.81h-1.24Z"/><path class="b" d="M295.77,208.12a3.79,3.79,0,0,1,1.19.64,3.12,3.12,0,0,1,1.11,2.44,3.17,3.17,0,0,1-.3,1.38,3.05,3.05,0,0,1-.8,1,3.73,3.73,0,0,1-1.2.64,4.49,4.49,0,0,1-1.42.22,4.8,4.8,0,0,1-1.43-.21,3.72,3.72,0,0,1-1.19-.65,3,3,0,0,1-1.1-2.42,3.07,3.07,0,0,1,1.1-2.44,3.9,3.9,0,0,1,1.19-.64,4.73,4.73,0,0,1,2.85,0Zm-2.45,2.08a1.37,1.37,0,0,0-.38,1,1.33,1.33,0,0,0,.38,1,1.36,1.36,0,0,0,1,.39,1.39,1.39,0,0,0,1-.39,1.37,1.37,0,0,0,.37-1,1.41,1.41,0,0,0-.37-1,1.36,1.36,0,0,0-1-.4A1.33,1.33,0,0,0,293.32,210.2Z"/><path class="b" d="M301.17,208.8h0a1.73,1.73,0,0,1,.79-.67,2.48,2.48,0,0,1,1.07-.23,3,3,0,0,1,2.25,1,3.27,3.27,0,0,1,.64,1.06,3.44,3.44,0,0,1,.23,1.27,3.56,3.56,0,0,1-.22,1.26,3.22,3.22,0,0,1-.64,1.05,2.91,2.91,0,0,1-1,.71,3,3,0,0,1-1.24.25,2.79,2.79,0,0,1-1.07-.2,2.24,2.24,0,0,1-.85-.59v3.67H299V208.1h2.19Zm.31,1.4a1.41,1.41,0,0,0-.38,1,1.41,1.41,0,1,0,2.82,0,1.41,1.41,0,0,0-.38-1,1.53,1.53,0,0,0-2.06,0Z"/><path class="b" d="M309.23,204.86a1.23,1.23,0,0,1-.87,2.1,1.2,1.2,0,0,1-.87-.36,1.23,1.23,0,0,1,0-1.74,1.2,1.2,0,0,1,.87-.36A1.19,1.19,0,0,1,309.23,204.86Zm.23,9.42h-2.19V208.1h2.19Z"/><path class="b" d="M315.36,210.11a2.81,2.81,0,0,0-.55-.32,1.71,1.71,0,0,0-.59-.11,1.47,1.47,0,0,0-1.5,1.5,1.44,1.44,0,0,0,.43,1.09,1.5,1.5,0,0,0,1.11.43,1.7,1.7,0,0,0,.58-.11,1.79,1.79,0,0,0,.52-.31v1.85a3.32,3.32,0,0,1-1.54.35,3.52,3.52,0,0,1-1.29-.24,3.33,3.33,0,0,1-1.08-.67,3.16,3.16,0,0,1-.73-1,3.09,3.09,0,0,1-.26-1.28,3.4,3.4,0,0,1,.26-1.36,3.23,3.23,0,0,1,1.84-1.76,3.76,3.76,0,0,1,1.35-.24,3,3,0,0,1,1.45.36Z"/></svg>