<svg xmlns="http://www.w3.org/2000/svg" viewBox="0 0 400 400"><defs><style>.a,.e,.i{fill:#1eaec5;}.b{fill:none;stroke:#128a7b;stroke-linecap:round;stroke-linejoin:round;stroke-width:2.57px;}.c{fill:#128a7b;}.d,.h{fill:#ef4638;}.d,.e{stroke:#152742;stroke-width:4.98px;}.d,.e,.i{stroke-miterlimit:10;}.f{fill:#fff;}.g{fill:#35aec5;}.i{stroke:#fff;stroke-width:1.23px;}</style></defs><ellipse class="a" cx="266.01" cy="268.48" rx="3.75" ry="3.75"/><ellipse class="a" cx="281.61" cy="260.26" rx="3.75" ry="3.75"/><path class="a" d="M274.46,278.14a9.16,9.16,0,0,1-6.23-4.75,5.41,5.41,0,0,1-3.2.39,12.23,12.23,0,0,0,8.78,7.39,13.27,13.27,0,0,0,2.66.27,5.41,5.41,0,0,1-1.1-3.14Z"/><ellipse class="a" cx="280.77" cy="278.16" rx="3.75" ry="3.75"/><path class="a" d="M286,276.78a12.29,12.29,0,0,0,.61-14.4,5.38,5.38,0,0,1-2.11,2.46,9.23,9.23,0,0,1-.3,9.14A5.39,5.39,0,0,1,286,276.78Z"/><path class="a" d="M265.72,263.1H266a5.28,5.28,0,0,1,2.84.82A9.13,9.13,0,0,1,276.2,260a5.47,5.47,0,0,1,1.14-3.05A12.32,12.32,0,0,0,265.72,263.1Z"/><line class="b" x1="135.36" y1="307.16" x2="135.13" y2="294.98"/><polygon class="c" points="135.5 314.42 139.49 304.11 135.35 306.62 131.13 304.28 135.5 314.42"/><polygon class="c" points="134.99 287.72 139.36 297.87 135.14 295.52 131.01 298.03 134.99 287.72"/><line class="b" x1="135.36" y1="170.43" x2="135.13" y2="158.24"/><polygon class="c" points="135.5 177.69 139.49 167.38 135.35 169.89 131.13 167.54 135.5 177.69"/><polygon class="c" points="134.99 150.98 139.36 161.13 135.14 158.78 131.01 161.29 134.99 150.98"/><line class="b" x1="135.36" y1="238.11" x2="135.13" y2="225.92"/><polygon class="c" points="135.5 245.37 139.49 235.06 135.35 237.57 131.13 235.22 135.5 245.37"/><polygon class="c" points="134.99 218.66 139.36 228.81 135.14 226.47 131.01 228.97 134.99 218.66"/><line class="b" x1="135.36" y1="101.83" x2="135.13" y2="89.64"/><polygon class="c" points="135.5 109.09 139.49 98.78 135.35 101.29 131.13 98.94 135.5 109.09"/><polygon class="c" points="134.99 82.39 139.36 92.53 135.14 90.19 131.01 92.69 134.99 82.39"/><rect class="d" x="56.19" y="183.35" width="158.12" height="33.71" rx="3.94"/><rect class="e" x="56.19" y="249.03" width="158.12" height="33.71" rx="3.94"/><rect class="e" x="56.19" y="112.75" width="158.12" height="33.71" rx="3.94"/><rect class="e" x="56.19" y="46.7" width="158.12" height="33.71" rx="3.94"/><rect class="e" x="56.19" y="319.38" width="158.12" height="33.71" rx="3.94"/><path class="f" d="M117.5,335.81v-2.42h1.63v6.26H117.5v-2.56h-2.35v2.56h-1.63v-6.26h1.63v2.42Z"/><path class="f" d="M124.81,339.65H123.3v-.47h0a1.28,1.28,0,0,1-.54.46,1.94,1.94,0,0,1-.75.16,2.07,2.07,0,0,1-.86-.18,2.14,2.14,0,0,1-1.13-1.23,2.32,2.32,0,0,1-.16-.87,2.57,2.57,0,0,1,.15-.87,2.08,2.08,0,0,1,.45-.72,2.1,2.1,0,0,1,.68-.5,2,2,0,0,1,.85-.18,1.88,1.88,0,0,1,.74.15,1.43,1.43,0,0,1,.58.41v-.41h1.51Zm-3.14-2.81a1,1,0,0,0-.26.69.94.94,0,0,0,.26.68,1.07,1.07,0,0,0,1.42,0,.94.94,0,0,0,.26-.68,1,1,0,0,0-.26-.69,1.07,1.07,0,0,0-1.42,0Z"/><path class="f" d="M127.33,336.09h0a1.46,1.46,0,0,1,.56-.57,1.79,1.79,0,0,1,.81-.18H129v1.45a.86.86,0,0,0-.29-.11,1.75,1.75,0,0,0-.35,0,.91.91,0,0,0-.81.34,1.69,1.69,0,0,0-.23.95v1.71h-1.51V335.4h1.51Z"/><path class="f" d="M132.78,339.18h0a1.28,1.28,0,0,1-.54.46,1.9,1.9,0,0,1-.75.16,2.07,2.07,0,0,1-.86-.18,2.23,2.23,0,0,1-1.13-1.23,2.32,2.32,0,0,1-.16-.87,2.57,2.57,0,0,1,.15-.87,2.08,2.08,0,0,1,.45-.72,2.1,2.1,0,0,1,.68-.5,2,2,0,0,1,.85-.18,1.88,1.88,0,0,1,.74.15,1.43,1.43,0,0,1,.58.41v-3.05h1.51v6.89h-1.51Zm-1.63-2.34a1,1,0,0,0-.26.69.91.91,0,0,0,1,1,.93.93,0,0,0,.71-.27.9.9,0,0,0,.26-.68,1,1,0,0,0-.26-.69.93.93,0,0,0-.71-.27A1,1,0,0,0,131.15,336.84Z"/><path class="f" d="M137.36,337.7l1.07-2.3h.9l1.07,2.3,1.07-2.3h1.67l-2.23,4.25h-1l-1.05-2.33-1.06,2.33h-1l-2.22-4.25h1.67Z"/><path class="f" d="M148.17,339.65h-1.51v-.47h0a1.28,1.28,0,0,1-.54.46,1.87,1.87,0,0,1-.75.16,2.07,2.07,0,0,1-1.54-.68,2.12,2.12,0,0,1-.45-.73,2.32,2.32,0,0,1-.16-.87,2.35,2.35,0,0,1,.16-.87,2.22,2.22,0,0,1,.44-.72,2.1,2.1,0,0,1,.68-.5,2,2,0,0,1,.86-.18,1.87,1.87,0,0,1,.73.15,1.46,1.46,0,0,1,.59.41v-.41h1.51ZM145,336.84a1,1,0,0,0-.26.69.94.94,0,0,0,.26.68,1,1,0,0,0,.71.27.93.93,0,0,0,.71-.27.91.91,0,0,0,.27-.68,1,1,0,0,0-.27-.69.93.93,0,0,0-.71-.27A1,1,0,0,0,145,336.84Z"/><path class="f" d="M150.68,336.09h0a1.42,1.42,0,0,1,.57-.57,1.73,1.73,0,0,1,.81-.18h.29v1.45a.91.91,0,0,0-.3-.11,1.65,1.65,0,0,0-.34,0,.92.92,0,0,0-.82.34,1.69,1.69,0,0,0-.23.95v1.71h-1.51V335.4h1.51Z"/><path class="f" d="M157.31,337.78h-3.18a.83.83,0,0,0,.94.94.8.8,0,0,0,.73-.39h1.45a1.72,1.72,0,0,1-.78,1.09,2.85,2.85,0,0,1-3.17-.22,2.09,2.09,0,0,1-.68-1.67,2.43,2.43,0,0,1,.17-.95,2,2,0,0,1,.48-.72,2,2,0,0,1,.75-.45,2.91,2.91,0,0,1,.95-.16,2.29,2.29,0,0,1,1.72.64,2.38,2.38,0,0,1,.62,1.73Zm-1.41-.87a.71.71,0,0,0-.3-.49.89.89,0,0,0-.55-.19,1,1,0,0,0-.59.18.79.79,0,0,0-.31.5Z"/><path class="f" d="M116.61,127h2.49a2.5,2.5,0,0,1,1.66.51,1.91,1.91,0,0,1,.62,1.55,2.08,2.08,0,0,1-.57,1.61,2.4,2.4,0,0,1-1.65.52h-.92v2.07h-1.63Zm1.63,2.87H119a1,1,0,0,0,.34-.09.58.58,0,0,0,.26-.23.86.86,0,0,0,.09-.43,1,1,0,0,0-.09-.45.56.56,0,0,0-.24-.24,1,1,0,0,0-.35-.09l-.49,0h-.27Z"/><path class="f" d="M123.58,129.66h0a1.49,1.49,0,0,1,.57-.57,1.79,1.79,0,0,1,.81-.18h.29v1.45a1,1,0,0,0-.29-.11,1.83,1.83,0,0,0-.35,0,.91.91,0,0,0-.81.33,1.63,1.63,0,0,0-.23.95v1.72h-1.52V129h1.52Z"/><path class="f" d="M128.9,129a2.64,2.64,0,0,1,.83.44,2.12,2.12,0,0,1,.56.72,2.38,2.38,0,0,1,0,1.91,2.19,2.19,0,0,1-.56.72,2.49,2.49,0,0,1-.82.44,3.19,3.19,0,0,1-1,.15,3.14,3.14,0,0,1-1-.15,2.45,2.45,0,0,1-.83-.44,2.33,2.33,0,0,1-.56-.72,2.38,2.38,0,0,1,0-1.91,2.12,2.12,0,0,1,.56-.72A2.64,2.64,0,0,1,127,129a3.05,3.05,0,0,1,2,0Zm-1.68,1.43a1,1,0,0,0-.27.69.93.93,0,0,0,1,1,.91.91,0,0,0,1-1,1,1,0,0,0-.26-.69,1,1,0,0,0-.71-.28A.94.94,0,0,0,127.22,130.41Z"/><path class="f" d="M135.85,132.81a2.2,2.2,0,0,1-2.47,2.54,3.47,3.47,0,0,1-.78-.1,2.82,2.82,0,0,1-.76-.31,1.85,1.85,0,0,1-.6-.51,1.39,1.39,0,0,1-.28-.71h1.69a.49.49,0,0,0,.28.32.91.91,0,0,0,.43.1,1.13,1.13,0,0,0,.49-.09.68.68,0,0,0,.3-.25.91.91,0,0,0,.14-.38,2.47,2.47,0,0,0,0-.5v-.2a1.88,1.88,0,0,1-.61.44,1.75,1.75,0,0,1-.74.15,2.19,2.19,0,0,1-.85-.17,1.83,1.83,0,0,1-.66-.46A2.26,2.26,0,0,1,131,132a2.47,2.47,0,0,1-.15-.86,2.37,2.37,0,0,1,.16-.88,2.24,2.24,0,0,1,1.14-1.25,2.13,2.13,0,0,1,.88-.18,1.81,1.81,0,0,1,.72.14,1.38,1.38,0,0,1,.54.45h0V129h1.52Zm-3.15-2.43a1,1,0,0,0,0,1.37,1,1,0,0,0,.71.27.91.91,0,0,0,1-1,.92.92,0,0,0-.26-.68.91.91,0,0,0-.71-.28A.92.92,0,0,0,132.7,130.38Z"/><path class="f" d="M138.3,129.66h0a1.42,1.42,0,0,1,.57-.57,1.73,1.73,0,0,1,.81-.18H140v1.45a.91.91,0,0,0-.3-.11,1.65,1.65,0,0,0-.34,0,.91.91,0,0,0-.81.33,1.63,1.63,0,0,0-.24.95v1.72h-1.51V129h1.51Z"/><path class="f" d="M145.21,133.22H143.7v-.47h0a1.22,1.22,0,0,1-.54.46,1.85,1.85,0,0,1-.74.15,2.07,2.07,0,0,1-.86-.18,1.89,1.89,0,0,1-.69-.49,2.62,2.62,0,0,1-.45-.73,2.57,2.57,0,0,1-.15-.87,2.53,2.53,0,0,1,.15-.87,2.37,2.37,0,0,1,.44-.73,2.19,2.19,0,0,1,.68-.49,2,2,0,0,1,.86-.18,2,2,0,0,1,.73.14,1.59,1.59,0,0,1,.59.42V129h1.51Zm-3.14-2.81a1,1,0,0,0-.26.69.92.92,0,0,0,.26.68.93.93,0,0,0,.71.27,1,1,0,0,0,.71-.27,1,1,0,0,0,.26-.68,1,1,0,0,0-.26-.69,1,1,0,0,0-.71-.28A.94.94,0,0,0,142.07,130.41Z"/><path class="f" d="M147.73,129.49h0a1.63,1.63,0,0,1,1.35-.67,1.81,1.81,0,0,1,.85.2,1.44,1.44,0,0,1,.6.62,1.49,1.49,0,0,1,.61-.61,1.73,1.73,0,0,1,.83-.21,1.32,1.32,0,0,1,1.12.45,2.05,2.05,0,0,1,.34,1.24v2.71h-1.51v-2c0-.17,0-.32,0-.44a1.37,1.37,0,0,0-.08-.35.56.56,0,0,0-.18-.27.54.54,0,0,0-.35-.1.64.64,0,0,0-.39.1.58.58,0,0,0-.22.27,2,2,0,0,0-.09.35c0,.13,0,.27,0,.44v2h-1.51v-2c0-.17,0-.31,0-.44a1.55,1.55,0,0,0-.08-.36.56.56,0,0,0-.58-.4.63.63,0,0,0-.38.11.59.59,0,0,0-.2.29,1.55,1.55,0,0,0-.08.36c0,.13,0,.27,0,.44v2h-1.52V129h1.52Z"/><path class="f" d="M108.16,60.79v1.05h1.78v1.38h-1.78v2.45h-1.63V59.41h3.59v1.38Z"/><path class="f" d="M115.37,63.8h-3.18a.84.84,0,0,0,1,.94.78.78,0,0,0,.72-.39h1.45a1.66,1.66,0,0,1-.78,1.09,2.55,2.55,0,0,1-1.38.37,2.59,2.59,0,0,1-1.78-.59,2.1,2.1,0,0,1-.69-1.67,2.59,2.59,0,0,1,.17-.95,2,2,0,0,1,.49-.72,2,2,0,0,1,.75-.45,2.63,2.63,0,0,1,1-.16,2.27,2.27,0,0,1,1.72.64,2.37,2.37,0,0,1,.61,1.73Zm-1.4-.87a.79.79,0,0,0-.3-.49.86.86,0,0,0-.56-.19,1,1,0,0,0-.58.18.72.72,0,0,0-.31.5Z"/><path class="f" d="M117.57,65.67h-1.51V58.78h1.51Z"/><path class="f" d="M120.08,58.78V62h0a1.78,1.78,0,0,1,.6-.51,1.68,1.68,0,0,1,.77-.17,1.47,1.47,0,0,1,1.19.48,2,2,0,0,1,.41,1.32v2.6h-1.51V63.49a2.21,2.21,0,0,0,0-.39,1.08,1.08,0,0,0-.09-.32.58.58,0,0,0-.56-.3.69.69,0,0,0-.61.29,1.37,1.37,0,0,0-.18.72v2.18h-1.51V58.78Z"/><path class="f" d="M128.71,65.67H127.2V65.2h0a1.2,1.2,0,0,1-.53.46,1.93,1.93,0,0,1-.75.15,2.24,2.24,0,0,1-.86-.17,2.26,2.26,0,0,1-.69-.5,2.42,2.42,0,0,1-.6-1.6,2.57,2.57,0,0,1,.15-.87,2.08,2.08,0,0,1,.45-.72,2.1,2.1,0,0,1,.68-.5,2,2,0,0,1,.85-.18,2.07,2.07,0,0,1,.74.14,1.55,1.55,0,0,1,.58.42v-.42h1.51Zm-3.14-2.81a1,1,0,0,0-.26.69,1,1,0,0,0,.26.68,1.07,1.07,0,0,0,1.42,0,1,1,0,0,0,.26-.68,1,1,0,0,0-.26-.69,1,1,0,0,0-1.42,0Z"/><path class="f" d="M132.53,62.51a1.86,1.86,0,0,0-.4-.15,1.62,1.62,0,0,0-.41-.06.72.72,0,0,0-.32.08.24.24,0,0,0-.16.21.25.25,0,0,0,.17.24,1.87,1.87,0,0,0,.43.12l.09,0a1.75,1.75,0,0,1,.9.41,1.07,1.07,0,0,1,.33.85,1.46,1.46,0,0,1-.16.71,1.35,1.35,0,0,1-.46.49,2,2,0,0,1-.64.29,3.08,3.08,0,0,1-.75.09,3.35,3.35,0,0,1-.89-.12,2.93,2.93,0,0,1-.83-.37l.55-1a2.51,2.51,0,0,0,.59.3,1.67,1.67,0,0,0,.61.13.72.72,0,0,0,.32-.08.28.28,0,0,0,0-.5A2.43,2.43,0,0,0,131,64l-.3-.07a1.69,1.69,0,0,1-.36-.13,1,1,0,0,1-.3-.2.92.92,0,0,1-.2-.32,1.1,1.1,0,0,1-.08-.47,1.43,1.43,0,0,1,.15-.66,1.41,1.41,0,0,1,.43-.48,2.36,2.36,0,0,1,.6-.28,2.72,2.72,0,0,1,.69-.09,3.29,3.29,0,0,1,1.41.28Z"/><path class="f" d="M137.86,64.42v1.25h-4.32l2-3h-1.73V61.41h4.25l-2,3Z"/><path class="f" d="M140.13,62h0a1.62,1.62,0,0,1,.59-.53,1.8,1.8,0,0,1,.78-.16,1.5,1.5,0,0,1,1.21.47,2,2,0,0,1,.39,1.3v2.63H141.6V63.6c0-.18,0-.33,0-.46a1.53,1.53,0,0,0-.09-.34.59.59,0,0,0-.2-.24.81.81,0,0,0-.37-.08.67.67,0,0,0-.61.27,1.27,1.27,0,0,0-.18.71v2.21h-1.51V61.41h1.51Z"/><path class="f" d="M148.76,65.67h-1.51V65.2h0a1.17,1.17,0,0,1-.54.46,1.85,1.85,0,0,1-.74.15,2.24,2.24,0,0,1-.86-.17,2.26,2.26,0,0,1-.69-.5,2.62,2.62,0,0,1-.45-.73,2.6,2.6,0,0,1,0-1.74,2.22,2.22,0,0,1,.44-.72,2.26,2.26,0,0,1,.69-.5,2,2,0,0,1,.85-.18,2.07,2.07,0,0,1,.74.14,1.55,1.55,0,0,1,.58.42v-.42h1.51Zm-3.14-2.81a1,1,0,0,0-.26.69.92.92,0,0,0,.26.68.93.93,0,0,0,.71.27,1,1,0,0,0,.71-.27,1,1,0,0,0,.26-.68,1,1,0,0,0-.26-.69,1,1,0,0,0-.71-.28A.94.94,0,0,0,145.62,62.86Zm.61-2.08-.67-.49,1.17-1.42.92.66Z"/><path class="f" d="M151.28,65.67h-1.51V58.78h1.51Z"/><path class="f" d="M155.5,61.43a2.64,2.64,0,0,1,.83.44,2.12,2.12,0,0,1,.56.72,2.38,2.38,0,0,1,0,1.91,2.33,2.33,0,0,1-.56.72,2.59,2.59,0,0,1-.82.44,3.25,3.25,0,0,1-1,.15,3.52,3.52,0,0,1-1-.14,2.43,2.43,0,0,1-.82-.45,2.09,2.09,0,0,1-.56-.72,2.38,2.38,0,0,1,0-1.91,2,2,0,0,1,.56-.72,2.59,2.59,0,0,1,.82-.44,2.92,2.92,0,0,1,1-.16A2.88,2.88,0,0,1,155.5,61.43Zm-1.69,1.43a1,1,0,0,0-.26.69,1,1,0,0,0,.26.68,1,1,0,0,0,.71.27.93.93,0,0,0,.71-.27.92.92,0,0,0,.26-.68,1,1,0,0,0-.26-.69.94.94,0,0,0-.71-.28A1,1,0,0,0,153.81,62.86Zm.55-2.08-.67-.49,1.17-1.42.92.66Z"/><path class="f" d="M159.28,63l1.57-1.54h2.07l-2.14,2,2.27,2.29h-2.12l-1.65-1.73v1.73h-1.51V58.78h1.51Z"/><path class="f" d="M134,263.9a3.66,3.66,0,0,1,1.12.68,3.13,3.13,0,0,1,.77,1,3,3,0,0,1,.28,1.28,3.74,3.74,0,0,1-.26,1.39,3.28,3.28,0,0,1-.72,1.1,3.35,3.35,0,0,1-1.11.71,3.91,3.91,0,0,1-2.75,0,3.23,3.23,0,0,1-1.11-.72,3.28,3.28,0,0,1-.72-1.1,3.65,3.65,0,0,1-.26-1.38,3,3,0,0,1,.28-1.28,3.13,3.13,0,0,1,.77-1,3.66,3.66,0,0,1,1.12-.68,3.76,3.76,0,0,1,2.59,0Zm-2,1.48a1.93,1.93,0,0,0-.57.37,1.82,1.82,0,0,0-.39.53,1.5,1.5,0,0,0-.13.62,2,2,0,0,0,.13.74,2,2,0,0,0,.39.59,1.56,1.56,0,0,0,.56.4,1.87,1.87,0,0,0,1.37,0,1.56,1.56,0,0,0,.56-.4,1.79,1.79,0,0,0,.39-.59,2,2,0,0,0,.13-.74,1.5,1.5,0,0,0-.13-.62,1.69,1.69,0,0,0-.39-.54,1.92,1.92,0,0,0-.56-.36,1.79,1.79,0,0,0-.68-.13A1.72,1.72,0,0,0,132.07,265.38Z"/><path class="f" d="M140.4,265.49a2.25,2.25,0,0,0-.51-.31,1.65,1.65,0,0,0-.57-.11.92.92,0,0,0-.48.14.45.45,0,0,0-.22.38.42.42,0,0,0,.2.37,2.7,2.7,0,0,0,.53.23l.41.13a2.67,2.67,0,0,1,.62.24,1.72,1.72,0,0,1,.49.34,1.23,1.23,0,0,1,.32.48,1.64,1.64,0,0,1,.11.65,3.21,3.21,0,0,1-.14,1,1.68,1.68,0,0,1-.5.73,2.43,2.43,0,0,1-.82.45,3.43,3.43,0,0,1-1,.14,3.51,3.51,0,0,1-1.15-.19,4,4,0,0,1-1-.52l.7-1.31a3.43,3.43,0,0,0,.7.47,1.71,1.71,0,0,0,.74.17,1,1,0,0,0,.56-.16.54.54,0,0,0,.23-.47.44.44,0,0,0-.09-.27.69.69,0,0,0-.22-.19,1.92,1.92,0,0,0-.29-.14l-.34-.1h0c-.3-.09-.55-.17-.74-.25a2.29,2.29,0,0,1-.5-.3,1.12,1.12,0,0,1-.33-.49,1.92,1.92,0,0,1-.12-.73,2.16,2.16,0,0,1,.16-.86,1.69,1.69,0,0,1,.45-.66,1.92,1.92,0,0,1,.68-.43,2.49,2.49,0,0,1,.87-.15,4.37,4.37,0,0,1,2,.51Z"/><path class="f" d="M110.63,197.61h1.6L113.5,201l1.35-3.35h1.62l1,6.26h-1.63l-.46-3.6h0l-1.5,3.6h-.65l-1.43-3.6h0l-.52,3.6h-1.62Z"/><path class="f" d="M119.42,197.38a.83.83,0,1,1-.59-.25A.79.79,0,0,1,119.42,197.38Zm.16,6.49h-1.51v-4.26h1.51Z"/><path class="f" d="M123.78,203.4h0a1.2,1.2,0,0,1-.54.45,1.78,1.78,0,0,1-.75.16,2.07,2.07,0,0,1-.86-.18,2.23,2.23,0,0,1-.69-.49,2.42,2.42,0,0,1-.6-1.6,2.49,2.49,0,0,1,.15-.87,2.12,2.12,0,0,1,.45-.73,2.08,2.08,0,0,1,.68-.49,2,2,0,0,1,.85-.18,2.07,2.07,0,0,1,.74.14,1.45,1.45,0,0,1,.58.42V197h1.51v6.89h-1.51Zm-1.63-2.34a1,1,0,0,0-.26.69,1,1,0,0,0,.26.68,1,1,0,0,0,.71.27.93.93,0,0,0,.71-.27.92.92,0,0,0,.26-.68.93.93,0,0,0-1-1A1,1,0,0,0,122.15,201.06Z"/><path class="f" d="M129.44,203.4h0a1.2,1.2,0,0,1-.54.45,1.71,1.71,0,0,1-.75.16,2.11,2.11,0,0,1-1.54-.67,2.22,2.22,0,0,1-.45-.73,2.35,2.35,0,0,1-.16-.87,2.49,2.49,0,0,1,.15-.87,2.29,2.29,0,0,1,.45-.73,2.08,2.08,0,0,1,.68-.49,2,2,0,0,1,.85-.18,2.07,2.07,0,0,1,.74.14,1.45,1.45,0,0,1,.58.42V197H131v6.89h-1.52Zm-1.63-2.34a1,1,0,0,0-.26.69,1,1,0,0,0,.26.68,1,1,0,0,0,.71.27.93.93,0,0,0,.71-.27.92.92,0,0,0,.26-.68.93.93,0,0,0-1-1A1,1,0,0,0,127.81,201.06Z"/><path class="f" d="M133.41,203.87H131.9V197h1.51Z"/><path class="f" d="M138.78,202H135.6a.84.84,0,0,0,1,.94.77.77,0,0,0,.72-.39h1.46a1.72,1.72,0,0,1-.78,1.09,2.88,2.88,0,0,1-3.17-.23,2.07,2.07,0,0,1-.69-1.66,2.59,2.59,0,0,1,.17-.95,2.14,2.14,0,0,1,.49-.72,2.2,2.2,0,0,1,.75-.46,2.91,2.91,0,0,1,.95-.15,2.26,2.26,0,0,1,1.72.64,2.37,2.37,0,0,1,.61,1.73Zm-1.4-.88a.77.77,0,0,0-.3-.48.84.84,0,0,0-.55-.19,1,1,0,0,0-.59.17.8.8,0,0,0-.31.5Z"/><path class="f" d="M141.59,201.92l1.07-2.31h.9l1.07,2.31,1.07-2.31h1.67l-2.23,4.26h-1l-1-2.33-1.05,2.33h-1l-2.23-4.26h1.68Z"/><path class="f" d="M152.4,203.87h-1.51v-.47h0a1.2,1.2,0,0,1-.54.45,1.71,1.71,0,0,1-.75.16,2.06,2.06,0,0,1-.85-.18,2,2,0,0,1-.69-.49,2.62,2.62,0,0,1-.45-.73,2.58,2.58,0,0,1-.16-.87,2.49,2.49,0,0,1,.16-.87,2.26,2.26,0,0,1,.44-.73,2.19,2.19,0,0,1,.68-.49,2,2,0,0,1,.86-.18,2,2,0,0,1,.73.14,1.48,1.48,0,0,1,.59.42v-.42h1.51Zm-3.14-2.81a.94.94,0,0,0-.26.69.92.92,0,0,0,.26.68.93.93,0,0,0,.71.27,1,1,0,0,0,.71-.27,1,1,0,0,0,.26-.68,1,1,0,0,0-.26-.69,1,1,0,0,0-.71-.28A.94.94,0,0,0,149.26,201.06Z"/><path class="f" d="M154.92,200.31h0a1.49,1.49,0,0,1,.57-.57,1.79,1.79,0,0,1,.81-.19h.29V201a1,1,0,0,0-.29-.12l-.35,0a.91.91,0,0,0-.81.33,1.63,1.63,0,0,0-.23,1v1.72H153.4v-4.26h1.52Z"/><path class="f" d="M161.54,202h-3.18a.84.84,0,0,0,.95.94.79.79,0,0,0,.72-.39h1.45a1.66,1.66,0,0,1-.78,1.09,2.58,2.58,0,0,1-1.39.37,2.61,2.61,0,0,1-1.78-.6,2.09,2.09,0,0,1-.68-1.66,2.59,2.59,0,0,1,.17-.95,2,2,0,0,1,.48-.72,2.34,2.34,0,0,1,.76-.46,2.87,2.87,0,0,1,1-.15,2.27,2.27,0,0,1,1.72.64,2.42,2.42,0,0,1,.61,1.73Zm-1.4-.88a.77.77,0,0,0-.3-.48.86.86,0,0,0-.56-.19,1,1,0,0,0-.58.17.76.76,0,0,0-.31.5Z"/><path class="a" d="M315.76,260.16l9.71-1.32v9.36l-9.71.06Zm9.7,9.12v9.37l-9.7-1.33v-8.1Zm1.18-10.62,12.86-1.88V268.1l-12.86.1Zm12.86,10.71v11.24l-12.86-1.81v-9.45Z"/><path class="g" d="M327.5,118.89a15.45,15.45,0,0,0-2.54.21c-2.24.4-2.65,1.23-2.65,2.75v2h5.31v.67h-7.3a3.32,3.32,0,0,0-3.32,2.7,9.91,9.91,0,0,0,0,5.4c.38,1.57,1.28,2.69,2.82,2.69h1.83v-2.43a3.38,3.38,0,0,1,3.32-3.3h5.31a2.67,2.67,0,0,0,2.65-2.7h0v-5a2.94,2.94,0,0,0-2.65-2.75A16.21,16.21,0,0,0,327.5,118.89Zm-2.87,1.64a1,1,0,1,1-1,1v0A1,1,0,0,1,324.63,120.53Z"/><path class="g" d="M333.58,124.56v2.36a3.4,3.4,0,0,1-3.32,3.37H325a2.7,2.7,0,0,0-2.65,2.7v5c0,1.44,1.25,2.3,2.65,2.7a8.91,8.91,0,0,0,5.31,0c1.34-.39,2.66-1.17,2.66-2.7v-2h-5.31v-.68h8c1.54,0,2.12-1.08,2.66-2.69a9.32,9.32,0,0,0,0-5.4c-.38-1.54-1.11-2.7-2.66-2.7Zm-3,12.82a1,1,0,0,1,1,1,1,1,0,0,1-1,1,1,1,0,0,1-1-1h0a1,1,0,0,1,1-1h0Z"/><path class="g" d="M283.68,122.32a2,2,0,0,0-.65-.69l-8.82-5.11a2.05,2.05,0,0,0-1.84,0l-8.83,5.1a2,2,0,0,0-.92,1.6V133.4a1.82,1.82,0,0,0,.27.91,2,2,0,0,0,.65.7l8.82,5.09a2.12,2.12,0,0,0,1.84,0L283,135a2.05,2.05,0,0,0,.91-1.61V123.23A1.83,1.83,0,0,0,283.68,122.32Zm-10.4,13.1a7.12,7.12,0,1,1,6.16-10.67l-2,1.17-1.05.61a3.56,3.56,0,1,0,0,3.58L278,131l1.43.83A7.14,7.14,0,0,1,273.28,135.42Zm7.11-6.72h-.78v.79h-.8v-.79H278v-.79h.79v-.79h.8v.79h.78Zm3,0h-.78v.79h-.81v-.79H281v-.79h.77v-.79h.79v.79h.79Z"/><circle class="h" cx="288.17" cy="189.57" r="3.48"/><circle class="h" cx="288.17" cy="199.34" r="3.48"/><circle class="h" cx="288.17" cy="209.13" r="3.48"/><circle class="h" cx="297.5" cy="189.57" r="3.48"/><circle class="h" cx="297.5" cy="199.34" r="3.48"/><circle class="h" cx="297.5" cy="209.13" r="3.48"/><circle class="h" cx="306.82" cy="189.57" r="3.48"/><circle class="h" cx="306.82" cy="199.34" r="3.48"/><circle class="h" cx="306.82" cy="209.13" r="3.48"/><path class="a" d="M277.75,66.52h.56a8,8,0,0,1,8,8v3.46H259.33V74.47a8,8,0,0,1,8-8h.56"/><circle class="i" cx="272.75" cy="61.34" r="8.13"/><path class="a" d="M332.58,66.52h.56a8,8,0,0,1,8,8v3.46H314.16V74.47a8,8,0,0,1,8-8h.56"/><circle class="i" cx="327.58" cy="61.34" r="8.13"/><path class="a" d="M284.65,328.56h-15a.6.6,0,0,0-.6.59v15a.6.6,0,0,0,.6.59h15a.59.59,0,0,0,.59-.59v-15A.59.59,0,0,0,284.65,328.56Zm-.59,15H270.23V329.75h13.83v13.82Z"/><path class="a" d="M274.27,340.13H280a.6.6,0,0,0,.59-.6v-5.74a.6.6,0,0,0-.59-.6h-5.75a.59.59,0,0,0-.59.6v5.74A.59.59,0,0,0,274.27,340.13Zm.59-5.75h4.56v4.56h-4.56Z"/><path class="a" d="M283.73,320.27a.59.59,0,1,0-.58-.46A.59.59,0,0,0,283.73,320.27Z"/><path class="a" d="M270.89,353.15a.59.59,0,0,0-.9.67.6.6,0,0,0,.54.41.59.59,0,0,0,.36-1.08Z"/><path class="a" d="M294.12,334a.6.6,0,1,0,0-1.19h-6.51v-2.1h6.51a.6.6,0,1,0,0-1.19h-6.51v-.43a2.86,2.86,0,0,0-2.86-2.86h-.43v-4.6a.59.59,0,1,0-1.18,0v4.6H281v-6.51a.6.6,0,0,0-1.19,0v6.51h-2.1v-6.51a.6.6,0,0,0-1.19,0v6.51h-2.11v-6.51a.59.59,0,0,0-1.18,0v6.51h-2.11v-6.51a.58.58,0,0,0-.59-.59.59.59,0,0,0-.6.59v6.51h-.42a2.87,2.87,0,0,0-2.87,2.86v.43h-6.51a.6.6,0,0,0,0,1.19h6.51v2.1h-6.51a.6.6,0,0,0,0,1.19h6.51v2.11h-6.51a.59.59,0,1,0,0,1.18h6.51v2.11h-6.51a.59.59,0,0,0-.59.59.6.6,0,0,0,.59.6h6.51v2.1h-6.51a.6.6,0,0,0,0,1.19h6.51v.42a2.87,2.87,0,0,0,2.87,2.87H270v4.6a.6.6,0,0,0,.6.6.59.59,0,0,0,.59-.6v-4.6h2.11v6.51a.59.59,0,0,0,1.18,0v-6.51h2.11v6.51a.6.6,0,0,0,1.19,0v-6.51h2.1v6.51a.6.6,0,0,0,1.19,0v-6.51h2.11v6.51a.59.59,0,0,0,1.18,0v-6.51h.43a2.87,2.87,0,0,0,2.87-2.87v-.42h6.5a.6.6,0,1,0,0-1.19h-6.5v-2.1h6.5a.6.6,0,0,0,.6-.6.59.59,0,0,0-.6-.59h-6.5v-2.11h6.5a.59.59,0,1,0,0-1.18h-6.5V334Zm-7.69,10.3a1.68,1.68,0,0,1-1.68,1.68H269.54a1.68,1.68,0,0,1-1.68-1.68V329.05a1.68,1.68,0,0,1,1.68-1.68h15.21a1.68,1.68,0,0,1,1.68,1.68Z"/><path class="a" d="M342.2,328.58H316.94v-.38a.72.72,0,0,1,.72-.72h21.12a1.85,1.85,0,0,0,0-3.7h-5.1a.56.56,0,0,0,0,1.12h5.1a.73.73,0,0,1,0,1.46H317.66a1.84,1.84,0,0,0-1.84,1.84v.38h-2.76a1.62,1.62,0,0,0-1.62,1.61v14.44a1.62,1.62,0,0,0,1.62,1.61H342.2a1.61,1.61,0,0,0,1.61-1.61V330.19A1.61,1.61,0,0,0,342.2,328.58Zm.5,16.05a.5.5,0,0,1-.5.49H313.06a.5.5,0,0,1-.5-.49V330.19a.5.5,0,0,1,.5-.49H342.2a.5.5,0,0,1,.5.49Z"/><path class="a" d="M341.39,330.44H313.87a.56.56,0,0,0-.56.56v12.81a.56.56,0,0,0,.56.56h27.52a.56.56,0,0,0,.56-.56V331A.56.56,0,0,0,341.39,330.44Zm-8.61,1.12h3.46v2.08h-3.46ZM319,338h3.46v2.08H319Zm-2.3-1.12v-2.09h3.47v2.09Zm4.59,0v-2.09h3.47v2.09ZM323.6,338h3.47v2.08H323.6Zm2.3-1.12v-2.09h3.46v2.09Zm2.29,1.12h3.47v2.08h-3.47Zm2.29-1.12v-2.09H334v2.09Zm2.3,1.12h3.46v2.08h-3.46Zm2.29-1.12v-2.09h2.43v2.09Zm-6.88-5.29h3.47v2.08h-3.47Zm-4.59,0h3.47v2.08H323.6Zm-4.58,0h3.46v2.08H319Zm-4.59,0h3.47v2.08h-3.47Zm0,3.2h1.17v2.09h-1.17Zm0,3.21h3.47v2.08h-3.47Zm1.17,5.28h-1.17v-2.08h1.17Zm4.59,0h-3.47v-2.08h3.47v2.08Zm4.59,0h-3.47v-2.08h3.47Zm4.58,0H325.9v-2.08h3.46Zm4.59,0h-3.47v-2.08H334Zm4.59,0h-3.47v-2.08h3.47Zm2.29,0h-1.17v-2.08h1.17Zm0-3.2h-3.47V338h.7a.56.56,0,0,0,.56-.56v-2.65h2.21v5.29Zm0-6.41h-3.47v-2.08h3.47Z"/><path class="a" d="M331.61,324.55Z"/><path class="a" d="M332.52,324.74a.56.56,0,0,0-.32-.95.55.55,0,0,0-.59.76A.56.56,0,0,0,332.52,324.74Z"/><path class="a" d="M331.61,324.55Z"/></svg>