<svg xmlns="http://www.w3.org/2000/svg" viewBox="0 0 200 43"><defs><style>.a{fill:#35aec5;}</style></defs><path class="a" d="M181,14.93a8.54,8.54,0,0,0-1.43.12c-1.27.23-1.51.7-1.51,1.56v1.15h3v.38H177a1.86,1.86,0,0,0-1.88,1.52,5.64,5.64,0,0,0,0,3.05c.22.89.72,1.53,1.6,1.53h1V22.86A1.9,1.9,0,0,1,179.6,21h3a1.52,1.52,0,0,0,1.5-1.53h0V16.62a1.67,1.67,0,0,0-1.5-1.56A10.29,10.29,0,0,0,181,14.93Zm-1.62.93a.58.58,0,1,1-.57.59h0A.58.58,0,0,1,179.41,15.86Zm5.06,2.28v1.34a1.94,1.94,0,0,1-1.88,1.9h-3a1.54,1.54,0,0,0-1.51,1.53v2.85c0,.81.71,1.29,1.51,1.52a5,5,0,0,0,3,0c.75-.22,1.5-.66,1.5-1.52V24.62h-3v-.38h4.5c.87,0,1.2-.61,1.5-1.52a5.26,5.26,0,0,0,0-3c-.22-.87-.63-1.53-1.5-1.53Zm-1.69,7.25a.57.57,0,1,1,0,1.14.58.58,0,0,1-.58-.56h0a.56.56,0,0,1,.56-.57h0Z"/><path class="a" d="M154.82,18.3a1.15,1.15,0,0,0-.37-.39l-5-2.86a1.1,1.1,0,0,0-1,0l-5,2.86a1.13,1.13,0,0,0-.52.9v5.71a1.06,1.06,0,0,0,.16.52,1,1,0,0,0,.36.39l5,2.86a1.17,1.17,0,0,0,1,0l4.95-2.86a1.15,1.15,0,0,0,.52-.9V18.82A1.3,1.3,0,0,0,154.82,18.3ZM149,25.66a4,4,0,1,1,3.46-6l-1.14.66-.59.33a2,2,0,1,0-1.74,3,2,2,0,0,0,1.74-1l.93.51.8.47A4,4,0,0,1,149,25.66Zm4-3.77h-.43v.44h-.45v-.44h-.44v-.45h.44V21h.45v.44H153Zm1.67,0h-.44v.44h-.45v-.44h-.44v-.45h.44V21h.44v.44h.44Z"/><path class="a" d="M113.75,21.72A1.74,1.74,0,1,1,112,20.1,1.68,1.68,0,0,1,113.75,21.72ZM112,15.55a1.62,1.62,0,1,0,1.74,1.62A1.69,1.69,0,0,0,112,15.55Zm0,9.11a1.62,1.62,0,1,0,1.74,1.62A1.68,1.68,0,0,0,112,24.66Zm4.66,0a1.62,1.62,0,1,0,1.74,1.62A1.68,1.68,0,0,0,116.67,24.66Zm4.67-4.56a1.62,1.62,0,1,0,1.74,1.62A1.69,1.69,0,0,0,121.34,20.1Zm0,4.56a1.62,1.62,0,1,0,1.74,1.62A1.68,1.68,0,0,0,121.34,24.66Zm0-5.87a1.62,1.62,0,1,0-1.74-1.62A1.68,1.68,0,0,0,121.34,18.79Zm-4.67-3.24a1.62,1.62,0,1,0,1.74,1.62A1.69,1.69,0,0,0,116.67,15.55Zm0,4.55a1.62,1.62,0,1,0,1.74,1.62A1.69,1.69,0,0,0,116.67,20.1Z"/><path class="a" d="M22.57,28.39H9.93v-.85H22.57Zm0-4.22H9.93V25H22.57Zm0,1.68H13.3v.85h9.27ZM13.3,22.48v.85a9.27,9.27,0,0,0,9.27-9.27h-.84a8.43,8.43,0,0,1-8.43,8.42m0-1.68v.84a7.58,7.58,0,0,0,7.58-7.58H20A6.74,6.74,0,0,1,13.3,20.8m11,7.59h3.37v-.85H24.25Zm0-1.69h3.37v-.85H24.25Zm0-1.69h3.37v-.84H24.25Zm0-1.68h3.37v-.85H24.25Zm0-1.69h3.37V20.8H24.25Zm0-1.68h3.37v-.85H24.25Zm0-1.69h3.37v-.84H24.25Zm0-1.68h3.37v-.85H24.25Zm0-1.69h3.37v-.84H24.25Z"/><path class="a" d="M81.74,16.44a1.55,1.55,0,0,1,.06-.23.44.44,0,0,1,.08-.15L83,14.94,84,14c.1-.1.19-.21.29-.32a.52.52,0,0,1,.58-.11.44.44,0,0,1,.16.58c-.14.4-.27.8-.41,1.21h1.56a.43.43,0,0,1,.44.24.5.5,0,0,1-.16.58,1.17,1.17,0,0,0-.26.28h.13c.4,0,.81,0,1.21.05a2.41,2.41,0,0,1,1.37.72l.28.27c.06.06.13.08.16,0a3.78,3.78,0,0,0,.21-.8,2.15,2.15,0,0,0-.13-.6,1.1,1.1,0,0,1,.4-1.15,1.2,1.2,0,0,1,1.25,0,1.11,1.11,0,0,1,.2,1.59,1.06,1.06,0,0,0-.23.73c0,1.32,0,2.65,0,4a1.31,1.31,0,0,1-.76,1.27A.47.47,0,0,0,90,23c0,.25,0,.49,0,.73a10.51,10.51,0,0,1-.17,1.77,2.91,2.91,0,0,1-.68,1.37,6.62,6.62,0,0,1-1.1,1.2,4.57,4.57,0,0,1-1.32.8c-.41.15-.84.28-1.27.39a5,5,0,0,1-1.68.1A6.39,6.39,0,0,1,82,28.93,5.44,5.44,0,0,1,80.41,28a6.21,6.21,0,0,1-1-1.18,4.92,4.92,0,0,1-.63-1.33,5.53,5.53,0,0,1-.23-1.81c0-.24,0-.47,0-.71a.48.48,0,0,0-.29-.49,1.32,1.32,0,0,1-.77-1.28c0-1.27,0-2.55,0-3.82a1.5,1.5,0,0,0-.3-1,1.07,1.07,0,0,1,.37-1.57,1,1,0,0,1,1.57.9,1.62,1.62,0,0,1-.12.61A.85.85,0,0,0,79,17c0,.14.09.28.14.42s.1.16.22.06.45-.42.7-.6a2.37,2.37,0,0,1,1.12-.4C81.34,16.45,81.54,16.45,81.74,16.44Zm7.83,4.39h0c0-.36,0-.73,0-1.1a2.79,2.79,0,0,0-.4-1.52,2.56,2.56,0,0,0-2-1.36,11.94,11.94,0,0,0-1.34,0,.17.17,0,0,0-.13.05c-.13.13-.25.27-.39.39a.47.47,0,0,0-.15.39c0,.52,0,1.05,0,1.57a.64.64,0,0,1-.42.63,1.61,1.61,0,0,1-.87.07.7.7,0,0,1-.67-.77V17c0-.11,0-.15-.14-.15H81.64a2.52,2.52,0,0,0-2,.93,2.84,2.84,0,0,0-.73,1.91c0,1.25,0,2.51,0,3.76v0c0,.06,0,.14.09.18l2.13,1.78a.31.31,0,0,1,.13.27c0,.76,0,1.52,0,2.28a.22.22,0,0,0,.13.22,5.53,5.53,0,0,0,1.76.67,5.65,5.65,0,0,0,3.94-.67.22.22,0,0,0,.13-.23c0-.76,0-1.52,0-2.28a.34.34,0,0,1,.12-.26l2.14-1.78a.31.31,0,0,0,.09-.18c0-.43,0-.85,0-1.28Zm-5.76-2.71,2.32-2.3h-2c-.13,0-.15,0-.11-.15l.3-.91c.08-.23.15-.46.22-.67l-2.29,2.29h1.9c.22,0,.22,0,.16.2s-.12.38-.19.57Zm.42,5.59H80.67A.64.64,0,0,1,80,23V21.22a.64.64,0,0,1,.7-.69h7.12a.64.64,0,0,1,.72.73V23a.63.63,0,0,1-.69.7Zm3.41-1.58a1.42,1.42,0,0,0-.32-.95.55.55,0,0,0-.88,0,1.6,1.6,0,0,0,0,1.79.57.57,0,0,0,1,0A1.46,1.46,0,0,0,87.64,22.13Zm-6.81,0a1.37,1.37,0,0,0,.3.93.55.55,0,0,0,.88,0,1.17,1.17,0,0,0,.27-.56A1.47,1.47,0,0,0,82,21.21a.54.54,0,0,0-.91,0A1.38,1.38,0,0,0,80.83,22.12ZM85.76,26h-3a.23.23,0,0,1-.23-.23v-.35a.23.23,0,0,1,.23-.23h3a.23.23,0,0,1,.23.23v.35A.23.23,0,0,1,85.76,26Z"/><path class="a" d="M59.26,19.5a0,0,0,0,0,0,0,.27.27,0,0,0,0-.12l0-.09a7.82,7.82,0,0,0-14.88,0,.5.5,0,0,0,0,.13A7.54,7.54,0,0,0,44,21.66c0,.11,0,.22,0,.33a.74.74,0,0,0,0,.21,7.83,7.83,0,0,0,5.77,7l.17,0a7.58,7.58,0,0,0,1.86.23,7.5,7.5,0,0,0,1.85-.23.8.8,0,0,0,.15,0,7.81,7.81,0,0,0,5.79-7,.74.74,0,0,0,0-.21c0-.11,0-.22,0-.33A7.38,7.38,0,0,0,59.26,19.5Zm-7.49-4.15a6.34,6.34,0,0,1,5.57,3.34l-3.65-.33a21.41,21.41,0,0,0-3.84,0l-3.67.34A6.35,6.35,0,0,1,51.77,15.35ZM45.59,23a5.08,5.08,0,0,1,3.65,4.46A6.33,6.33,0,0,1,45.59,23Zm8.7,4.46A5.09,5.09,0,0,1,57.94,23,6.31,6.31,0,0,1,54.29,27.45Zm-1.52.44a5.47,5.47,0,0,1-1,.09,5.58,5.58,0,0,1-1-.09,6.58,6.58,0,0,0-5.3-6.47,5.5,5.5,0,0,1,.15-1.16l4.38-.4a19.24,19.24,0,0,1,3.56,0l4.37.39a5.68,5.68,0,0,1,.15,1.17A6.59,6.59,0,0,0,52.77,27.89Z"/></svg>