<svg id="Layer_1" data-name="Layer 1" xmlns="http://www.w3.org/2000/svg" viewBox="0 0 1765.4 1203.2"><defs><style>.cls-1{fill:#fff;}.cls-12,.cls-2{fill:#152742;}.cls-2{stroke:#1c3c68;}.cls-10,.cls-11,.cls-2,.cls-3,.cls-4,.cls-5,.cls-7,.cls-8,.cls-9{stroke-linecap:round;stroke-linejoin:round;}.cls-10,.cls-11,.cls-2,.cls-3,.cls-5,.cls-7,.cls-9{stroke-width:6px;}.cls-10,.cls-11,.cls-3,.cls-4,.cls-5,.cls-7,.cls-8,.cls-9{fill:none;stroke:#34aec5;}.cls-3{stroke-dasharray:24;}.cls-4{stroke-width:6px;}.cls-6{fill:#0a4851;}.cls-7{stroke-dasharray:21.9 21.9;}.cls-8{stroke-width:4px;}.cls-9{stroke-dasharray:22.64 22.64;}.cls-10{stroke-dasharray:0 10;}.cls-11{stroke-dasharray:12;}.cls-13{fill:#34aec5;}</style></defs><polygon class="cls-1" points="275.24 70.39 270.8 74.94 261.59 84.14 150.45 84.14 145.91 79.48 155 70.28 146.01 61.19 150.44 56.65 150.45 56.64 261.59 56.64 270.69 65.73 275.24 70.39"/><polygon class="cls-1" points="912 70.45 907.56 75 898.36 84.2 787.22 84.2 782.67 79.55 791.76 70.34 782.78 61.25 787.21 56.71 787.22 56.7 898.36 56.7 907.45 65.79 912 70.45"/><polygon class="cls-1" points="1543.09 69.85 1538.65 74.4 1529.44 83.6 1450.83 83.6 1446.29 78.94 1455.38 69.74 1446.39 60.65 1450.82 56.11 1450.83 56.1 1529.44 56.1 1538.54 65.19 1543.09 69.85"/><g id="sötét"><path class="cls-2" d="M105.8,181H301.4a26.33,26.33,0,0,1,26.3,26.3V741.4a26.33,26.33,0,0,1-26.3,26.3H105.8a26.33,26.33,0,0,1-26.3-26.3V207.3A26.33,26.33,0,0,1,105.8,181Z"/><path class="cls-2" d="M427.8,181H623.4a26.33,26.33,0,0,1,26.3,26.3V741.4a26.33,26.33,0,0,1-26.3,26.3H427.8a26.33,26.33,0,0,1-26.3-26.3V207.3A26.4,26.4,0,0,1,427.8,181Z"/><path class="cls-2" d="M749.9,181H945.5a26.33,26.33,0,0,1,26.3,26.3V741.4a26.33,26.33,0,0,1-26.3,26.3H749.9a26.33,26.33,0,0,1-26.3-26.3V207.3A26.33,26.33,0,0,1,749.9,181Z"/><path class="cls-2" d="M1072,181h195.6a26.33,26.33,0,0,1,26.3,26.3V741.4a26.33,26.33,0,0,1-26.3,26.3H1072a26.33,26.33,0,0,1-26.3-26.3V207.3a26.27,26.27,0,0,1,26.24-26.3Z"/><path class="cls-2" d="M1394,181h195.6a26.33,26.33,0,0,1,26.3,26.3V741.4a26.33,26.33,0,0,1-26.3,26.3H1394a26.33,26.33,0,0,1-26.3-26.3V207.3A26.33,26.33,0,0,1,1394,181Z"/><path class="cls-2" d="M105.8,877.9H301.4a26.33,26.33,0,0,1,26.3,26.3v217.7a26.33,26.33,0,0,1-26.3,26.3H105.8a26.33,26.33,0,0,1-26.3-26.3V904.2A26.33,26.33,0,0,1,105.8,877.9Z"/><path class="cls-2" d="M427.8,877.9H623.4a26.33,26.33,0,0,1,26.3,26.3v217.7a26.33,26.33,0,0,1-26.3,26.3H427.8a26.33,26.33,0,0,1-26.3-26.3V904.2A26.4,26.4,0,0,1,427.8,877.9Z"/><path class="cls-2" d="M749.9,877.9H945.5a26.33,26.33,0,0,1,26.3,26.3v217.7a26.33,26.33,0,0,1-26.3,26.3H749.9a26.33,26.33,0,0,1-26.3-26.3V904.2A26.33,26.33,0,0,1,749.9,877.9Z"/><path class="cls-2" d="M1072,877.9h195.6a26.33,26.33,0,0,1,26.3,26.3v217.7a26.33,26.33,0,0,1-26.3,26.3H1072a26.33,26.33,0,0,1-26.3-26.3V904.2a26.27,26.27,0,0,1,26.24-26.3Z"/><path class="cls-2" d="M1394,877.9h195.6a26.33,26.33,0,0,1,26.3,26.3v217.7a26.33,26.33,0,0,1-26.3,26.3H1394a26.33,26.33,0,0,1-26.3-26.3V904.2A26.33,26.33,0,0,1,1394,877.9Z"/></g><g id="világos"><path class="cls-3" d="M81,151.2H1620.6a23.94,23.94,0,0,1,24,23.88V770.3a23.94,23.94,0,0,1-23.88,24H81a23.94,23.94,0,0,1-24-23.88V175.2A24,24,0,0,1,81,151.2Z"/><circle class="cls-4" cx="144.21" cy="1044.15" r="17.4" transform="translate(-907.23 1118.53) rotate(-86.18)"/><circle class="cls-5" cx="271.8" cy="1044.1" r="17.4"/><polyline class="cls-5" points="119 1050.9 104.7 1044.1 104.7 1007 133.3 997.4 160.7 981.4 160.7 967.4 226 967.4 226 981 250 999"/><line class="cls-5" x1="104.7" y1="1017.4" x2="120" y2="1017.4"/><path class="cls-5" d="M133.3,997.4l16.2,11.8H265.1a13.42,13.42,0,0,1,2,.2l25.2,4.8a21.76,21.76,0,0,1,17.7,20.7l.4,10.4a5.46,5.46,0,0,1-5.3,5.6h-9.6"/><line class="cls-5" x1="168.4" y1="1050.9" x2="244.4" y2="1050.9"/><path class="cls-5" d="M195.3,1017.4v33.5"/><line class="cls-5" x1="160.7" y1="981.4" x2="226" y2="981.4"/><line class="cls-5" x1="195.3" y1="981.4" x2="195.3" y2="1002.8"/><line class="cls-5" x1="186.7" y1="967.4" x2="186.7" y2="949.4"/><line class="cls-5" x1="201.6" y1="967.4" x2="201.6" y2="949.4"/><line class="cls-5" x1="178.9" y1="949.4" x2="208.6" y2="949.4"/><path class="cls-5" d="M146.5,966.2a17.16,17.16,0,0,1-5.94-23.53l0-.07a18,18,0,0,1,6.9-6.5"/><path class="cls-5" d="M121.2,985.3a48.16,48.16,0,0,1,.4-68.1,45.31,45.31,0,0,1,4.1-3.6"/><path class="cls-5" d="M132.9,976.4a33.66,33.66,0,0,1-2.5-47.5,32,32,0,0,1,5.5-4.9"/><path class="cls-5" d="M246.6,934.1a17.18,17.18,0,0,1,1,30.1"/><path class="cls-5" d="M268.5,911.5a48.17,48.17,0,0,1,8.2,67.6h0c-1.1,1.4-2.4,2.8-3.6,4.1"/><path class="cls-5" d="M258.4,922a33.55,33.55,0,0,1,8,46.77l-.09.13a.09.09,0,0,1-.1.1,36,36,0,0,1-4.9,5.5"/><path class="cls-5" d="M150.4,660.3a17.16,17.16,0,0,1-5.94-23.53l0-.07a18,18,0,0,1,6.9-6.5"/><path class="cls-5" d="M125.1,679.4a48.16,48.16,0,0,1,.4-68.1,45.31,45.31,0,0,1,4.1-3.6"/><path class="cls-5" d="M136.8,670.6a33.57,33.57,0,0,1-2.59-47.4l.09-.1h0a36,36,0,0,1,5.5-4.9"/><path class="cls-5" d="M250.6,628.2a17.18,17.18,0,0,1,1,30.1"/><path class="cls-5" d="M272.4,605.7a48.17,48.17,0,0,1,8.2,67.6c-1.1,1.4-2.4,2.8-3.6,4.1"/><path class="cls-5" d="M262.3,616.2a33.64,33.64,0,0,1,7.9,46.9h0a36,36,0,0,1-4.9,5.5"/><path class="cls-5" d="M184.8,611.4h32.6a12.5,12.5,0,0,1,12.5,12.5v37.2a12.5,12.5,0,0,1-12.5,12.5H184.8a12.5,12.5,0,0,1-12.5-12.5h0V624a12.53,12.53,0,0,1,12.46-12.6Z"/><path class="cls-5" d="M137.8,290.5h80.7A12.55,12.55,0,0,1,231.1,303v37.1a12.55,12.55,0,0,1-12.5,12.6H137.8a12.55,12.55,0,0,1-12.6-12.5V303.1A12.61,12.61,0,0,1,137.8,290.5Z"/><path class="cls-5" d="M267.7,346.9l-24.3-15.5a6,6,0,0,1-2.7-5v-9.5a6,6,0,0,1,2.7-5l24.3-15.5a6,6,0,0,1,8.2,1.8,6.11,6.11,0,0,1,.9,3.2V342a5.85,5.85,0,0,1-5.8,5.9h-.1A7.54,7.54,0,0,1,267.7,346.9Z"/><path class="cls-5" d="M1225.1,317.3l-39.5-10.5-57.2-15.2a7.51,7.51,0,0,0-9.2,5.3,4.23,4.23,0,0,0-.2,1.9v51.6a7.55,7.55,0,0,0,7.5,7.5h0a12.13,12.13,0,0,0,1.9-.2l57.2-15.3,39.5-10.5a7.62,7.62,0,0,0,0-14.6Zm-45,8.9c-.1.2-.1.3-.2.5l-.2.5c-.1.2-.2.3-.3.5a2.83,2.83,0,0,1-.7.8h0l-10.8,10.8a5.52,5.52,0,0,1-7.8-7.8h0l1.4-1.4h-28.2a5.56,5.56,0,0,1,0-11.1h28.2l-1.5-1.5a5.52,5.52,0,0,1,7.8-7.8l10.9,10.9a5.57,5.57,0,0,1,.7.9c.2.3.3.6.5.9.1.1.1.3.2.4v.1a4,4,0,0,0,.1.5c0,.2.1.4.1.6v1.1a2.08,2.08,0,0,1-.1.7A.63.63,0,0,1,1180.1,326.2Z"/><path class="cls-6" d="M1180.3,325.7c0-.2.1-.4.1-.7A1.51,1.51,0,0,0,1180.3,325.7Z"/><path class="cls-6" d="M1180.3,325v-.3a.19.19,0,0,1,0,.27Z"/><path class="cls-6" d="M1179.5,321.5a5.57,5.57,0,0,0-.7-.9C1179,320.9,1179.3,321.2,1179.5,321.5Z"/><path class="cls-5" d="M1225.1,539.3l-39.5-10.5-57.2-15.2a7.51,7.51,0,0,0-9.2,5.3h0a4.23,4.23,0,0,0-.2,1.9v51.6a7.55,7.55,0,0,0,7.5,7.5,12.13,12.13,0,0,0,1.9-.2l57.2-15.2,39.5-10.5a7.51,7.51,0,0,0,5.3-9.2A7.4,7.4,0,0,0,1225.1,539.3Zm-45,8.9c-.1.2-.1.3-.2.5s-.2.3-.2.5-.2.3-.3.5a2.83,2.83,0,0,1-.7.8h0l-10.8,10.8a5.52,5.52,0,0,1-7.8-7.8h0l1.4-1.4h-28.2a5.5,5.5,0,0,1,0-11h28.2l-1.5-1.5a5.52,5.52,0,0,1,7.8-7.8l10.9,10.9a5.57,5.57,0,0,1,.7.9c.2.3.3.6.5.9s.1.3.2.4v.1a4,4,0,0,0,.1.5c0,.2.1.4.1.6v1a1.66,1.66,0,0,1-.1.7.79.79,0,0,1-.1.4Z"/><path class="cls-6" d="M1180.3,547.7c0-.2.1-.5.1-.7A1.66,1.66,0,0,0,1180.3,547.7Z"/><path class="cls-6" d="M1180.3,547v-.3a.19.19,0,0,1,0,.27Z"/><path class="cls-6" d="M1179.5,543.5a5.57,5.57,0,0,0-.7-.9C1179,542.9,1179.3,543.2,1179.5,543.5Z"/><line class="cls-5" x1="128" y1="442.6" x2="158.5" y2="463.7"/><path class="cls-5" d="M183.2,446.3h32.6a12.5,12.5,0,0,1,12.5,12.5V496a12.5,12.5,0,0,1-12.5,12.5H183.2A12.5,12.5,0,0,1,170.7,496V458.8a12.44,12.44,0,0,1,12.38-12.5Z"/><line class="cls-5" x1="158.5" y1="472.9" x2="117.3" y2="461.4"/><line class="cls-5" x1="128" y1="520.9" x2="158.5" y2="499.7"/><line class="cls-5" x1="158.5" y1="490.5" x2="117.3" y2="502.1"/><line class="cls-5" x1="158.5" y1="482.4" x2="111" y2="482.4"/><line class="cls-5" x1="274" y1="443.2" x2="243.5" y2="464.4"/><line class="cls-5" x1="243.5" y1="473.6" x2="284.7" y2="462"/><line class="cls-5" x1="274" y1="521.5" x2="243.5" y2="500.4"/><line class="cls-5" x1="243.5" y1="491.2" x2="284.7" y2="502.8"/><line class="cls-5" x1="243.5" y1="483" x2="291.1" y2="483"/><line class="cls-5" x1="443.7" y1="286.5" x2="443.7" y2="507.5"/><line class="cls-5" x1="603.7" y1="286.5" x2="603.7" y2="507.5"/><line class="cls-5" x1="523.7" y1="286.5" x2="523.7" y2="298.5"/><line class="cls-7" x1="523.7" y1="320.4" x2="523.7" y2="484.6"/><line class="cls-5" x1="523.7" y1="495.5" x2="523.7" y2="507.5"/><path class="cls-5" d="M552.2,660.3a47.89,47.89,0,1,0-67-9.9,46.47,46.47,0,0,0,9.9,9.9"/><path class="cls-5" d="M493.6,660.3h61a4.6,4.6,0,0,1,4.6,4.58V669a4.6,4.6,0,0,1-4.58,4.6h-61A4.6,4.6,0,0,1,489,669V664.9A4.65,4.65,0,0,1,493.6,660.3Z"/><path class="cls-5" d="M481.7,674.2h83.9a4.59,4.59,0,0,1,4.6,4.58v4.12a4.6,4.6,0,0,1-4.58,4.6H481.7a4.6,4.6,0,0,1-4.6-4.58V678.8A4.65,4.65,0,0,1,481.7,674.2Z"/><path class="cls-8" d="M498.8,586h1.5a12.1,12.1,0,0,0,12.1,11.9h0v1.5a12.1,12.1,0,0,0-11.9,12.1H499a12,12,0,0,0-12.1-11.9h0v-1.5A12.1,12.1,0,0,0,498.8,586Z"/><path class="cls-8" d="M532.9,631.5H534a9.41,9.41,0,0,0,9.52,9.3h.08v1.1a9.41,9.41,0,0,0-9.3,9.52v.08H533a9.47,9.47,0,0,0-9.5-9.4h0V641a9.41,9.41,0,0,0,9.4-9.42Z"/><line class="cls-8" x1="499.6" y1="635.2" x2="500" y2="635.2"/><line class="cls-8" x1="519.3" y1="618.6" x2="519.2" y2="618.6"/><line class="cls-8" x1="538.8" y1="601.6" x2="538.7" y2="601.6"/><line class="cls-8" x1="535.4" y1="608.9" x2="535.3" y2="608.9"/><line class="cls-8" x1="538.3" y1="594" x2="538.3" y2="594"/><path class="cls-8" d="M562.2,453.8h9.2a9.85,9.85,0,0,1,9.9,9.82V492.8a9.85,9.85,0,0,1-9.82,9.9H562.2a9.85,9.85,0,0,1-9.9-9.82V463.7a9.85,9.85,0,0,1,9.82-9.9Z"/><path class="cls-8" d="M562.2,352.7h9.2a9.85,9.85,0,0,1,9.9,9.82V391.7a9.85,9.85,0,0,1-9.82,9.9H562.2a9.85,9.85,0,0,1-9.9-9.82V362.6a9.85,9.85,0,0,1,9.82-9.9Z"/><path class="cls-8" d="M479.1,308.4h9.2a9.85,9.85,0,0,1,9.9,9.82V347.4a9.85,9.85,0,0,1-9.82,9.9H479.1a9.85,9.85,0,0,1-9.9-9.82V318.3a9.85,9.85,0,0,1,9.82-9.9Z"/><polyline class="cls-8" points="483.7 380.8 483.7 401.6 477.6 395.6"/><polyline class="cls-8" points="483.7 401.6 483.7 401.6 489.7 395.6"/><line class="cls-8" x1="483.7" y1="367" x2="483.7" y2="401.6"/><polyline class="cls-8" points="566.8 329.5 566.8 308.7 572.8 314.7"/><polyline class="cls-8" points="566.8 308.7 566.8 308.7 560.8 314.7"/><line class="cls-8" x1="566.8" y1="343.3" x2="566.8" y2="308.7"/><polyline class="cls-8" points="566.8 440 566.8 419.2 572.8 425.2"/><polyline class="cls-8" points="566.8 419.2 566.8 419.2 560.8 425.2"/><line class="cls-8" x1="566.8" y1="444.9" x2="566.8" y2="419.2"/><line class="cls-5" x1="768" y1="282.1" x2="768" y2="691"/><line class="cls-5" x1="928" y1="282.1" x2="928" y2="691"/><line class="cls-5" x1="848" y1="282.1" x2="848" y2="294.1"/><line class="cls-9" x1="848" y1="316.7" x2="848" y2="667.7"/><line class="cls-5" x1="848" y1="679" x2="848" y2="691"/><path class="cls-8" d="M886.5,572.8h9.2a9.85,9.85,0,0,1,9.9,9.82V611.8a9.85,9.85,0,0,1-9.82,9.9H886.5a9.85,9.85,0,0,1-9.9-9.82V582.7a9.85,9.85,0,0,1,9.82-9.9Z"/><path class="cls-8" d="M886.5,348.3h9.2a9.85,9.85,0,0,1,9.9,9.82V387.3a9.85,9.85,0,0,1-9.82,9.9H886.5a9.85,9.85,0,0,1-9.9-9.82V358.2A9.92,9.92,0,0,1,886.5,348.3Z"/><path class="cls-8" d="M803.4,592.7h9.2a9.85,9.85,0,0,1,9.9,9.82V631.7a9.85,9.85,0,0,1-9.82,9.9H803.4a9.85,9.85,0,0,1-9.9-9.82V602.6a9.85,9.85,0,0,1,9.82-9.9Z"/><polyline class="cls-8" points="808 665.1 808 685.9 802 679.9"/><polyline class="cls-8" points="808 685.9 808 685.9 814 679.9"/><line class="cls-8" x1="808" y1="651.3" x2="808" y2="685.9"/><polyline class="cls-8" points="891.1 325.2 891.1 304.3 897.1 310.4"/><polyline class="cls-8" points="891.1 304.3 891.1 304.3 885.1 310.3"/><line class="cls-8" x1="891.1" y1="338.9" x2="891.1" y2="304.3"/><polyline class="cls-8" points="888.1 511.3 888.1 490.5 894.1 496.5"/><polyline class="cls-8" points="888.1 490.5 888.1 490.5 882.1 496.5"/><line class="cls-8" x1="888.1" y1="548.3" x2="888.1" y2="490.5"/><path class="cls-10" d="M888.1,564.8v-.6c0-27.5-5-25-14-34l-46.4-46.4c-9-9-17.8-20.8-21.2-41V346.6"/><polyline class="cls-5" points="795.6 358.5 806.8 347.3 818.1 358.6"/><path class="cls-5" d="M1225.1,428.3l-39.5-10.5-57.2-15.2a7.51,7.51,0,0,0-9.2,5.3,4.23,4.23,0,0,0-.2,1.9v51.6a7.55,7.55,0,0,0,7.5,7.5h0a12.13,12.13,0,0,0,1.9-.2l57.2-15.3,39.5-10.5a7.62,7.62,0,0,0,0-14.6Zm-45,8.9c-.1.2-.1.3-.2.5s-.2.3-.2.5-.2.3-.3.5a2.83,2.83,0,0,1-.7.8h0l-10.8,10.8a5.52,5.52,0,0,1-7.8-7.8h0l1.4-1.4h-28.2a5.5,5.5,0,0,1,0-11h28.2l-1.5-1.5a5.52,5.52,0,0,1,7.8-7.8l10.9,10.9a5.57,5.57,0,0,1,.7.9c.2.3.3.6.5.9.1.1.1.3.2.4v.1a4,4,0,0,0,.1.5c0,.2.1.4.1.6v1a2.08,2.08,0,0,1-.1.7A.79.79,0,0,1,1180.1,437.2Z"/><path class="cls-6" d="M1180.3,436.7c0-.2.1-.4.1-.7A1.51,1.51,0,0,0,1180.3,436.7Z"/><path class="cls-6" d="M1180.3,436v-.3a.19.19,0,0,1,0,.27Z"/><path class="cls-6" d="M1179.5,432.5a5.57,5.57,0,0,0-.7-.9C1179,431.9,1179.3,432.2,1179.5,432.5Z"/><line class="cls-5" x1="1058.6" y1="435.5" x2="1119.1" y2="435.5"/><path class="cls-5" d="M1077,436V658.2a16.73,16.73,0,0,0,16.7,16.7h156.6a16.73,16.73,0,0,0,16.7-16.7V436"/><path class="cls-5" d="M1230.6,435h43.8"/><path class="cls-5" d="M1116.2,325.3h-4.3a8,8,0,0,0-8,8V538.5a8,8,0,0,0,8,8h4.3"/><path class="cls-5" d="M1234.5,325.2h4.3a8,8,0,0,1,8,8V538.5a8,8,0,0,1-8,8h-4.3"/><line class="cls-5" x1="1077" y1="419" x2="1077" y2="428.8"/><line class="cls-5" x1="1072.1" y1="423.9" x2="1082" y2="423.9"/><line class="cls-5" x1="1085.2" y1="446.2" x2="1095.1" y2="446.2"/><circle class="cls-5" cx="1491.6" cy="416.5" r="67.2"/><path class="cls-5" d="M1427.4,396.5l46.6-4.3a188.15,188.15,0,0,1,35.2,0l46.5,4.3"/><path class="cls-5" d="M1474.6,481.5a54.27,54.27,0,0,0,.3-5.7,55.78,55.78,0,0,0-50.4-55.5"/><path class="cls-5" d="M1508.5,481.5a54.27,54.27,0,0,1-.3-5.7,55.78,55.78,0,0,1,50.4-55.5"/><circle class="cls-5" cx="846.7" cy="1031.6" r="39.6"/><path class="cls-5" d="M808.9,1019.8l27.4-2.5a120.4,120.4,0,0,1,20.8,0l27.5,2.5"/><path class="cls-5" d="M836.7,1070c.1-1.1.2-2.2.2-3.4a32.88,32.88,0,0,0-29.7-32.7"/><path class="cls-5" d="M856.7,1070c-.1-1.1-.2-2.2-.2-3.4a32.88,32.88,0,0,1,29.7-32.7"/><path class="cls-5" d="M1539.1,526.3h15.6a12,12,0,0,1,12,12v46.1a12,12,0,0,1-12,12h-15.6a12,12,0,0,1-12-12V538.3A12,12,0,0,1,1539.1,526.3Z"/><path class="cls-5" d="M1436.4,542.6H1495a12,12,0,0,1,12,12v27.1a12,12,0,0,1-12,12h-58.6a12,12,0,0,1-12-12V554.6A12,12,0,0,1,1436.4,542.6Z"/><polygon class="cls-5" points="1538 551.7 1538 575 1558.1 563.3 1538 551.7"/><path class="cls-5" d="M1454.1,555.3h3.4a3.59,3.59,0,0,1,3.6,3.58V577.3a3.59,3.59,0,0,1-3.58,3.6h-3.42a3.59,3.59,0,0,1-3.6-3.58V558.9a3.52,3.52,0,0,1,3.44-3.6Z"/><path class="cls-5" d="M1474,555.3h3.4a3.59,3.59,0,0,1,3.6,3.58V577.3a3.59,3.59,0,0,1-3.58,3.6H1474a3.59,3.59,0,0,1-3.6-3.58V558.9a3.47,3.47,0,0,1,3.33-3.6Z"/><path class="cls-5" d="M485.4,912.5h83.8A19.86,19.86,0,0,1,589,932.3v94a19.92,19.92,0,0,1-9.1,16.7l-41.3,26.6a20,20,0,0,1-21.2.2l-42.5-26.4a19.81,19.81,0,0,1-9.3-16.8V932.4a19.87,19.87,0,0,1,19.8-19.9Z"/><path class="cls-5" d="M502,986.7l3.3-3.3a3.08,3.08,0,0,1,4.35-.15l.15.15h0l10.4,10.5a3.2,3.2,0,0,0,4.52.08l.08-.08,26.5-26.5a3.08,3.08,0,0,1,4.35-.15l.15.15h0l3.7,3.7a3.08,3.08,0,0,1,.15,4.35l-.15.15h0L525.1,1010a3.08,3.08,0,0,1-4.35.15l-.15-.15h0L502,991.2A3.26,3.26,0,0,1,502,986.7Z"/><path class="cls-5" d="M485,924.8h84.5c5.2.8,9.5,5.1,9.5,10.3v89.8a9.61,9.61,0,0,1-4.3,8l-41.6,26.8a9.45,9.45,0,0,1-10.1.1l-42.9-26.6a9.52,9.52,0,0,1-4.5-8v-90C475.6,929.9,479.8,925.6,485,924.8Z"/><path class="cls-5" d="M789,1027.2H772.1a12,12,0,0,1-12-12V931.6a12,12,0,0,1,12-12H922.3a12,12,0,0,1,12,12h0v83.6a12,12,0,0,1-12,12H906.8"/><line class="cls-5" x1="794.8" y1="992.8" x2="821.7" y2="920"/><line class="cls-5" x1="875.7" y1="920" x2="902.6" y2="992.8"/><line class="cls-11" x1="847.5" y1="920" x2="847.5" y2="979.2"/><circle class="cls-5" cx="1169.7" cy="954.7" r="40"/><path class="cls-5" d="M1194,986.4h2.8a39.09,39.09,0,0,1,39.1,39.08v17H1103.5v-17a39.09,39.09,0,0,1,39.08-39.1h2.82"/><ellipse class="cls-5" cx="1539.4" cy="928.5" rx="36.7" ry="13.3"/><path class="cls-5" d="M1502.5,1016.1c0,7.4,16.4,13.3,36.7,13.3s36.7-6,36.7-13.3"/><path class="cls-5" d="M1502.5,994.5c0,7.4,16.4,13.3,36.7,13.3s36.7-6,36.7-13.3"/><path class="cls-5" d="M1502.5,972.9c0,7.4,16.4,13.3,36.7,13.3s36.7-6,36.7-13.3"/><path class="cls-5" d="M1502.5,951.3c0,7.4,16.4,13.3,36.7,13.3s36.7-6,36.7-13.3"/><line class="cls-5" x1="1502.7" y1="928.5" x2="1502.7" y2="1014.2"/><line class="cls-5" x1="1576.2" y1="930.3" x2="1576.2" y2="1015.9"/><ellipse class="cls-5" cx="1415.9" cy="937.8" rx="8.6" ry="8.4"/><ellipse class="cls-5" cx="1415.9" cy="1009.8" rx="8.6" ry="8.4"/><ellipse class="cls-5" cx="1455.8" cy="939" rx="8.6" ry="8.4"/><line class="cls-5" x1="1415.9" y1="946.2" x2="1415.9" y2="1001.4"/><path class="cls-5" d="M1455.8,947.4v2.7a14.94,14.94,0,0,1-14.9,14.9h-10.4a14.94,14.94,0,0,0-14.9,14.9h0v1.6"/><polygon class="cls-2" points="362 515.9 362 500.9 341.4 500.9 341.4 474.1 362 474.1 362 459.1 390.4 487.6 362 515.9"/><polygon class="cls-2" points="684.1 515.9 684.1 500.9 663.5 500.9 663.5 474.1 684.1 474.1 684.1 459.1 712.5 487.6 684.1 515.9"/><polygon class="cls-2" points="1006.2 515.9 1006.2 500.9 985.6 500.9 985.6 474.1 1006.2 474.1 1006.2 459.1 1034.6 487.6 1006.2 515.9"/><polygon class="cls-2" points="1328.3 515.9 1328.3 500.9 1307.7 500.9 1307.7 474.1 1328.3 474.1 1328.3 459.1 1356.8 487.6 1328.3 515.9"/></g><g id="sense-think-act"><path class="cls-12" d="M166.3,82.3c-3.6,0-6.3-.8-8.6-3.1l3-3a7.68,7.68,0,0,0,5.7,2c2.7,0,4.2-1,4.2-2.9a2.72,2.72,0,0,0-.7-2,3.44,3.44,0,0,0-2.1-.8l-2.8-.4a8.48,8.48,0,0,1-4.6-1.9,6.17,6.17,0,0,1-1.7-4.6c0-4.2,3.1-7.1,8.2-7.1a10.28,10.28,0,0,1,7.6,2.7l-2.9,2.9a6.67,6.67,0,0,0-4.8-1.6c-2.4,0-3.6,1.4-3.6,3a2.32,2.32,0,0,0,.7,1.7,4.05,4.05,0,0,0,2.2.9l2.8.4a8.16,8.16,0,0,1,4.5,1.8,6.44,6.44,0,0,1,1.8,5C175,79.7,171.2,82.3,166.3,82.3Z"/><path class="cls-12" d="M179.3,82.1V58.5h15.5v4.1H183.9v5.5h9.3v4.1h-9.3V78h10.9v4.1Z"/><path class="cls-12" d="M213.2,82.1l-9.3-14.4V82.1h-4.6V58.5h4.1l9.3,14.4V58.5h4.6V82h-4.1Z"/><path class="cls-12" d="M229.3,82.3c-3.6,0-6.3-.8-8.6-3.1l3-3a7.68,7.68,0,0,0,5.7,2c2.7,0,4.2-1,4.2-2.9a2.72,2.72,0,0,0-.7-2,3.44,3.44,0,0,0-2.1-.8l-2.8-.4a8.48,8.48,0,0,1-4.6-1.9,6.17,6.17,0,0,1-1.7-4.6c0-4.2,3.1-7.1,8.2-7.1a10.28,10.28,0,0,1,7.6,2.7l-2.9,2.9a6.67,6.67,0,0,0-4.8-1.6c-2.4,0-3.6,1.4-3.6,3a2.32,2.32,0,0,0,.7,1.7,4.05,4.05,0,0,0,2.2.9l2.8.4a8.16,8.16,0,0,1,4.5,1.8,6.44,6.44,0,0,1,1.8,5C238,79.7,234.2,82.3,229.3,82.3Z"/><path class="cls-12" d="M242.4,82.1V58.5h15.5v4.1H247v5.5h9.3v4.1H247V78h10.9v4.1Z"/><path class="cls-12" d="M805.2,62.8V82.2h-4.6V62.8h-6.1V58.7h16.9v4.1Z"/><path class="cls-12" d="M827.6,82.3V72.5h-8v9.8H815V58.7h4.6v9.6h8V58.7h4.6V82.2h-4.6Z"/><path class="cls-12" d="M837.7,82.3V58.7h4.6V82.2h-4.6Z"/><path class="cls-12" d="M861.7,82.3l-9.3-14.4V82.3h-4.6V58.7h4.1l9.3,14.4V58.7h4.6V82.2h-4.1Z"/><path class="cls-12" d="M885,82.3l-6-10.7-3,3.6v7.1h-4.6V58.7H876V69l8.3-10.2h5.6l-7.8,9.3,8.4,14.2Z"/><path class="cls-12" d="M1476.9,81.7l-1.4-4.2h-8.4l-1.4,4.2h-4.8l8.6-23.5h3.6l8.6,23.5Zm-5.5-16.6-3,8.6h5.8Z"/><path class="cls-12" d="M1492.7,81.9a8.58,8.58,0,0,1-6.3-2.6,6.35,6.35,0,0,1-1.9-3.5,28.88,28.88,0,0,1-.4-5.8,28.16,28.16,0,0,1,.4-5.8,6.72,6.72,0,0,1,1.9-3.5,8.58,8.58,0,0,1,6.3-2.6,8.32,8.32,0,0,1,8.7,7.4h-4.7a3.91,3.91,0,0,0-4-3.3,3.56,3.56,0,0,0-2.9,1.2c-1,1-1.2,2.1-1.2,6.6s.2,5.6,1.2,6.6a3.7,3.7,0,0,0,2.9,1.2,3.91,3.91,0,0,0,4-3.3h4.7C1500.5,79.2,1497.2,81.9,1492.7,81.9Z"/><path class="cls-12" d="M1513.2,62.2V81.6h-4.6V62.2h-6.1V58.1h16.9v4.1Z"/><polygon class="cls-13" points="930.5 71 926.3 75.2 917.8 83.7 913.6 79.4 922 70.9 913.7 62.5 917.8 58.3 926.2 66.7 930.5 71"/><polygon class="cls-13" points="947.6 71 943.4 75.2 934.9 83.7 930.7 79.4 939.1 70.9 930.8 62.5 934.9 58.3 943.3 66.7 947.6 71"/><polygon class="cls-13" points="964.7 71 960.5 75.2 952 83.7 947.8 79.4 956.2 70.9 947.8 62.5 952 58.3 960.4 66.7 964.7 71"/><polygon class="cls-13" points="981.8 71 977.6 75.2 969.1 83.7 964.8 79.4 973.3 70.9 964.9 62.5 969.1 58.3 977.5 66.7 981.8 71"/><polygon class="cls-13" points="998.9 71 994.7 75.2 986.2 83.7 981.9 79.4 990.4 70.9 982 62.5 986.2 58.3 994.6 66.7 998.9 71"/><polygon class="cls-13" points="1016 71 1011.8 75.2 1003.3 83.7 999 79.4 1007.5 70.9 999.1 62.5 1003.3 58.3 1011.7 66.7 1016 71"/><polygon class="cls-13" points="1033 71 1028.8 75.2 1020.4 83.7 1016.1 79.4 1024.6 70.9 1016.2 62.5 1020.4 58.3 1028.8 66.7 1033 71"/><polygon class="cls-13" points="1050.1 71 1045.9 75.2 1037.5 83.7 1033.2 79.4 1041.7 70.9 1033.3 62.5 1037.5 58.3 1045.8 66.7 1050.1 71"/><polygon class="cls-13" points="1067.2 71 1063 75.2 1054.6 83.7 1050.3 79.4 1058.8 70.9 1050.4 62.5 1054.6 58.3 1062.9 66.7 1067.2 71"/><polygon class="cls-13" points="1084.3 71 1080.1 75.2 1071.7 83.7 1067.4 79.4 1075.8 70.9 1067.5 62.5 1071.7 58.3 1080 66.7 1084.3 71"/><polygon class="cls-13" points="1101.4 71 1097.2 75.2 1088.8 83.7 1084.5 79.4 1092.9 70.9 1084.6 62.5 1088.8 58.3 1097.1 66.7 1101.4 71"/><polygon class="cls-13" points="1118.5 71 1114.3 75.2 1105.8 83.7 1101.6 79.4 1110 70.9 1101.7 62.5 1105.8 58.3 1114.2 66.7 1118.5 71"/><polygon class="cls-13" points="1135.6 71 1131.4 75.2 1122.9 83.7 1118.7 79.4 1127.1 70.9 1118.8 62.5 1122.9 58.3 1131.3 66.7 1135.6 71"/><polygon class="cls-13" points="1152.7 71 1148.5 75.2 1140 83.7 1135.8 79.4 1144.2 70.9 1135.8 62.5 1140 58.3 1148.4 66.7 1152.7 71"/><polygon class="cls-13" points="1169.8 71 1165.6 75.2 1157.1 83.7 1152.8 79.4 1161.3 70.9 1152.9 62.5 1157.1 58.3 1165.5 66.7 1169.8 71"/><polygon class="cls-13" points="1186.8 71 1182.7 75.2 1174.2 83.7 1169.9 79.4 1178.4 70.9 1170 62.5 1174.2 58.3 1182.6 66.7 1186.8 71"/><polygon class="cls-13" points="1203.9 71 1199.8 75.2 1191.3 83.7 1187 79.4 1195.5 70.9 1187.1 62.5 1191.3 58.3 1199.7 66.7 1203.9 71"/><polygon class="cls-13" points="1221 71 1216.8 75.2 1208.4 83.7 1204.1 79.4 1212.6 70.9 1204.2 62.5 1208.4 58.3 1216.8 66.7 1221 71"/><polygon class="cls-13" points="1238.1 71 1233.9 75.2 1225.5 83.7 1221.2 79.4 1229.7 70.9 1221.3 62.5 1225.5 58.3 1233.8 66.7 1238.1 71"/><polygon class="cls-13" points="1255.2 71 1251 75.2 1242.6 83.7 1238.3 79.4 1246.8 70.9 1238.4 62.5 1242.6 58.3 1250.9 66.7 1255.2 71"/><polygon class="cls-13" points="1272.3 71 1268.1 75.2 1259.7 83.7 1255.4 79.4 1263.8 70.9 1255.5 62.5 1259.7 58.3 1268 66.7 1272.3 71"/><polygon class="cls-13" points="1289.4 71 1285.2 75.2 1276.7 83.7 1272.5 79.4 1280.9 70.9 1272.6 62.5 1276.7 58.3 1285.1 66.7 1289.4 71"/><polygon class="cls-13" points="1306.5 71 1302.3 75.2 1293.8 83.7 1289.6 79.4 1298 70.9 1289.7 62.5 1293.8 58.3 1302.2 66.7 1306.5 71"/><polygon class="cls-13" points="1323.6 71 1319.4 75.2 1310.9 83.7 1306.7 79.4 1315.1 70.9 1306.7 62.5 1310.9 58.3 1319.3 66.7 1323.6 71"/><polygon class="cls-13" points="1340.7 71 1336.5 75.2 1328 83.7 1323.7 79.4 1332.2 70.9 1323.8 62.5 1328 58.3 1336.4 66.7 1340.7 71"/><polygon class="cls-13" points="1357.8 71 1353.6 75.2 1345.1 83.7 1340.8 79.4 1349.3 70.9 1340.9 62.5 1345.1 58.3 1353.5 66.7 1357.8 71"/><polygon class="cls-13" points="1374.8 71 1370.7 75.2 1362.2 83.7 1357.9 79.4 1366.4 70.9 1358 62.5 1362.2 58.3 1370.6 66.7 1374.8 71"/><polygon class="cls-13" points="1391.9 71 1387.8 75.2 1379.3 83.7 1375 79.4 1383.5 70.9 1375.1 62.5 1379.3 58.3 1387.7 66.7 1391.9 71"/><polygon class="cls-13" points="1409 71 1404.8 75.2 1396.4 83.7 1392.1 79.4 1400.6 70.9 1392.2 62.5 1396.4 58.3 1404.8 66.7 1409 71"/><polygon class="cls-13" points="1428.7 71 1424.5 75.2 1416.1 83.7 1411.8 79.4 1420.3 70.9 1411.9 62.5 1416.1 58.3 1424.4 66.7 1428.7 71"/><polygon class="cls-13" points="1445.8 71 1441.6 75.2 1433.2 83.7 1428.9 79.4 1437.4 70.9 1429 62.5 1433.2 58.3 1441.5 66.7 1445.8 71"/><polygon class="cls-13" points="300.8 71 296.6 75.2 288.1 83.7 283.9 79.4 292.3 70.9 284 62.5 288.1 58.3 296.5 66.7 300.8 71"/><polygon class="cls-13" points="317.9 71 313.7 75.2 305.2 83.7 301 79.4 309.4 70.9 301.1 62.5 305.2 58.3 313.6 66.7 317.9 71"/><polygon class="cls-13" points="335 71 330.8 75.2 322.3 83.7 318 79.4 326.5 70.9 318.1 62.5 322.3 58.3 330.7 66.7 335 71"/><polygon class="cls-13" points="352.1 71 347.9 75.2 339.4 83.7 335.1 79.4 343.6 70.9 335.2 62.5 339.4 58.3 347.8 66.7 352.1 71"/><polygon class="cls-13" points="369.2 71 365 75.2 356.5 83.7 352.2 79.4 360.7 70.9 352.3 62.5 356.5 58.3 364.9 66.7 369.2 71"/><polygon class="cls-13" points="386.2 71 382.1 75.2 373.6 83.7 369.3 79.4 377.8 70.9 369.4 62.5 373.6 58.3 382 66.7 386.2 71"/><polygon class="cls-13" points="403.3 71 399.1 75.2 390.7 83.7 386.4 79.4 394.9 70.9 386.5 62.5 390.7 58.3 399.1 66.7 403.3 71"/><polygon class="cls-13" points="420.4 71 416.2 75.2 407.8 83.7 403.5 79.4 412 70.9 403.6 62.5 407.8 58.3 416.1 66.7 420.4 71"/><polygon class="cls-13" points="437.5 71 433.3 75.2 424.9 83.7 420.6 79.4 429.1 70.9 420.7 62.5 424.9 58.3 433.2 66.7 437.5 71"/><polygon class="cls-13" points="454.6 71 450.4 75.2 442 83.7 437.7 79.4 446.1 70.9 437.8 62.5 442 58.3 450.3 66.7 454.6 71"/><polygon class="cls-13" points="471.7 71 467.5 75.2 459 83.7 454.8 79.4 463.2 70.9 454.9 62.5 459 58.3 467.4 66.7 471.7 71"/><polygon class="cls-13" points="488.8 71 484.6 75.2 476.1 83.7 471.9 79.4 480.3 70.9 472 62.5 476.1 58.3 484.5 66.7 488.8 71"/><polygon class="cls-13" points="505.9 71 501.7 75.2 493.2 83.7 489 79.4 497.4 70.9 489 62.5 493.2 58.3 501.6 66.7 505.9 71"/><polygon class="cls-13" points="523 71 518.8 75.2 510.3 83.7 506 79.4 514.5 70.9 506.1 62.5 510.3 58.3 518.7 66.7 523 71"/><polygon class="cls-13" points="540.1 71 535.9 75.2 527.4 83.7 523.1 79.4 531.6 70.9 523.2 62.5 527.4 58.3 535.8 66.7 540.1 71"/><polygon class="cls-13" points="557.2 71 553 75.2 544.5 83.7 540.2 79.4 548.7 70.9 540.3 62.5 544.5 58.3 552.9 66.7 557.2 71"/><polygon class="cls-13" points="574.2 71 570 75.2 561.6 83.7 557.3 79.4 565.8 70.9 557.4 62.5 561.6 58.3 570 66.7 574.2 71"/><polygon class="cls-13" points="591.3 71 587.1 75.2 578.7 83.7 574.4 79.4 582.9 70.9 574.5 62.5 578.7 58.3 587 66.7 591.3 71"/><polygon class="cls-13" points="608.4 71 604.2 75.2 595.8 83.7 591.5 79.4 600 70.9 591.6 62.5 595.8 58.3 604.1 66.7 608.4 71"/><polygon class="cls-13" points="625.5 71 621.3 75.2 612.9 83.7 608.6 79.4 617 70.9 608.7 62.5 612.9 58.3 621.2 66.7 625.5 71"/><polygon class="cls-13" points="642.6 71 638.4 75.2 630 83.7 625.7 79.4 634.1 70.9 625.8 62.5 630 58.3 638.3 66.7 642.6 71"/><polygon class="cls-13" points="659.7 71 655.5 75.2 647 83.7 642.8 79.4 651.2 70.9 642.9 62.5 647 58.3 655.4 66.7 659.7 71"/><polygon class="cls-13" points="676.8 71 672.6 75.2 664.1 83.7 659.9 79.4 668.3 70.9 660 62.5 664.1 58.3 672.5 66.7 676.8 71"/><polygon class="cls-13" points="693.9 71 689.7 75.2 681.2 83.7 677 79.4 685.4 70.9 677 62.5 681.2 58.3 689.6 66.7 693.9 71"/><polygon class="cls-13" points="711 71 706.8 75.2 698.3 83.7 694 79.4 702.5 70.9 694.1 62.5 698.3 58.3 706.7 66.7 711 71"/><polygon class="cls-13" points="728.1 71 723.9 75.2 715.4 83.7 711.1 79.4 719.6 70.9 711.2 62.5 715.4 58.3 723.8 66.7 728.1 71"/><polygon class="cls-13" points="745.2 71 741 75.2 732.5 83.7 728.2 79.4 736.7 70.9 728.3 62.5 732.5 58.3 740.9 66.7 745.2 71"/><polygon class="cls-13" points="762.2 71 758 75.2 749.6 83.7 745.3 79.4 753.8 70.9 745.4 62.5 749.6 58.3 758 66.7 762.2 71"/><polygon class="cls-13" points="779.3 71 775.1 75.2 766.7 83.7 762.4 79.4 770.9 70.9 762.5 62.5 766.7 58.3 775 66.7 779.3 71"/></g><g id="szöveg_hun" data-name="szöveg hun"><path class="cls-1" d="M99.8,237.5V211.7h17v4.5h-12v6H115v4.5H104.8V233h11.9v4.5Zm9.3-28.3H106l2.3-6.2h5Z"/><path class="cls-1" d="M135.3,237.5l-5-10.3h-3.6v10.3h-5V211.7h10.1c5.2,0,8.4,3.6,8.4,7.9a7,7,0,0,1-4.7,6.8l5.8,11.1Zm-3.9-21.3h-4.7V223h4.7a3.41,3.41,0,1,0,.73-6.78l-.33,0Z"/><path class="cls-1" d="M143.8,237.5v-4.1l11-17.2H144.3v-4.5h16.5v4l-11,17.3h11v4.5Z"/><path class="cls-1" d="M165.2,237.5V211.7h17v4.5h-12v6h10.2v4.5H170.3V233h11.9v4.5Zm9.3-28.3h-3.1l2.3-6.2h5Z"/><path class="cls-1" d="M202,237.5l-6.6-11.7-3.3,4v7.7h-5V211.7h5v11.2l9.1-11.2h6.1L198.8,222l9.2,15.5Z"/><path class="cls-1" d="M211.1,237.5V211.7h17v4.5h-12v6h10.2v4.5H216.2V233h11.9v4.5Z"/><path class="cls-1" d="M233,237.5V211.7h5V233h11.7v4.5Z"/><path class="cls-1" d="M253.8,237.5V211.7h17v4.5h-12v6H269v4.5H258.9V233h11.9v4.5Zm9.4-28.3H260l2.3-6.2h5Z"/><path class="cls-1" d="M282.8,237.7c-3.9,0-6.9-.8-9.4-3.4l3.3-3.3a8.77,8.77,0,0,0,6.2,2.2c3,0,4.6-1.1,4.6-3.2a2.66,2.66,0,0,0-.8-2.2,4.29,4.29,0,0,0-2.3-.9l-3.1-.4a9,9,0,0,1-5-2.1,6.93,6.93,0,0,1-1.9-5.1c0-4.6,3.4-7.8,9-7.8a11.17,11.17,0,0,1,8.3,3l-3.2,3.1a7.45,7.45,0,0,0-5.3-1.8c-2.7,0-4,1.5-4,3.2a2.37,2.37,0,0,0,.8,1.9,4.36,4.36,0,0,0,2.4,1l3,.4a8.22,8.22,0,0,1,4.9,2,7.37,7.37,0,0,1,2,5.5C292.4,234.9,288.2,237.7,282.8,237.7Z"/><path class="cls-1" d="M437.1,237.5V211.7h17v4.5h-12v6h10.2v4.5H442.2V233h11.9v4.5Zm9.3-28.3h-3.1l2.3-6.1h5Z"/><path class="cls-1" d="M466.1,237.7c-3.9,0-6.9-.8-9.4-3.4l3.2-3.3a8.77,8.77,0,0,0,6.2,2.2c3,0,4.6-1.1,4.6-3.2a2.66,2.66,0,0,0-.8-2.2,3.62,3.62,0,0,0-2.3-.9l-3.1-.4a9,9,0,0,1-5-2.1,6.93,6.93,0,0,1-1.9-5.1c0-4.6,3.4-7.8,9-7.8a11.17,11.17,0,0,1,8.3,3l-3.2,3.1a7.45,7.45,0,0,0-5.3-1.8c-2.7,0-4,1.5-4,3.3a2.76,2.76,0,0,0,.8,1.9,4.36,4.36,0,0,0,2.4,1l3,.4a8.22,8.22,0,0,1,4.9,2,7.37,7.37,0,0,1,2,5.5C475.6,234.9,471.5,237.7,466.1,237.7Z"/><path class="cls-1" d="M478.8,237.5v-4.1l11-17.2H479.3v-4.5h16.5v4l-11,17.3h11v4.5Z"/><path class="cls-1" d="M500.2,237.5V211.7h5V233h11.7v4.5Z"/><path class="cls-1" d="M521,237.5V211.7h17v4.5H526v6h10.2v4.5H526V233h12v4.5Z"/><path class="cls-1" d="M542.9,237.5V211.7h5V233h11.7v4.5Z"/><path class="cls-1" d="M563.7,237.5V211.7h17v4.5h-12v6h10.2v4.5H568.8V233h11.9v4.5Zm9.4-28.3h-3.2l2.3-6.1h5Z"/><path class="cls-1" d="M592.7,237.7c-3.9,0-6.9-.8-9.4-3.4l3.3-3.3a8.77,8.77,0,0,0,6.2,2.2c3,0,4.6-1.1,4.6-3.2a2.66,2.66,0,0,0-.8-2.2,3.62,3.62,0,0,0-2.3-.9l-3.1-.4a9.32,9.32,0,0,1-5-2.1,6.8,6.8,0,0,1-1.8-5.1c0-4.6,3.4-7.8,9-7.8a11.17,11.17,0,0,1,8.3,3l-3.2,3.1a7.29,7.29,0,0,0-5.3-1.8c-2.7,0-4,1.5-4,3.3a2.76,2.76,0,0,0,.8,1.9,4.36,4.36,0,0,0,2.4,1l3,.4a8.22,8.22,0,0,1,4.9,2,7.37,7.37,0,0,1,2,5.5C602.3,234.9,598.1,237.7,592.7,237.7Z"/><path class="cls-1" d="M769.4,216.2v21.3h-5V216.2h-6.7v-4.5h18.5v4.5Z"/><path class="cls-1" d="M780.2,237.5V211.7h17v4.5h-12v6h10.2v4.5H785.3V233h11.9v4.5Z"/><path class="cls-1" d="M815.8,237.5l-5-10.3h-3.6v10.3h-5V211.7h10.1c5.2,0,8.4,3.6,8.4,7.9a7,7,0,0,1-4.7,6.8l5.8,11.1Zm-3.9-21.3h-4.7V223h4.7a3.41,3.41,0,0,0,.5-6.8Z"/><path class="cls-1" d="M835.1,237.5h-3.8l-8.5-25.8H828l5.2,16.8,5.2-16.8h5.2Z"/><path class="cls-1" d="M846.8,237.5V211.7h17v4.5h-12v6H862v4.5H851.8V233h11.9v4.5Z"/><path class="cls-1" d="M867.1,237.5v-4.1l11-17.2H867.6v-4.5H884v4L873,233h11v4.5Z"/><path class="cls-1" d="M888.5,237.5V211.7h17v4.5h-12v6h10.2v4.5H893.5V233h12v4.5Zm9.3-28.3h-3.2l2.3-6.1h5Z"/><path class="cls-1" d="M917.5,237.7c-3.9,0-6.9-.8-9.4-3.4l3.3-3.3a8.77,8.77,0,0,0,6.2,2.2c3,0,4.6-1.1,4.6-3.2a2.66,2.66,0,0,0-.8-2.2,3.62,3.62,0,0,0-2.3-.9l-3.1-.4a9.32,9.32,0,0,1-5-2.1,6.46,6.46,0,0,1-1.8-5.1c0-4.6,3.4-7.8,9-7.8a11.17,11.17,0,0,1,8.3,3l-3.2,3.1a7.45,7.45,0,0,0-5.3-1.8c-2.7,0-4,1.5-4,3.3a2.76,2.76,0,0,0,.8,1.9,4.36,4.36,0,0,0,2.4,1l3,.4a8.22,8.22,0,0,1,4.9,2,7.37,7.37,0,0,1,2,5.5C927,234.9,922.9,237.7,917.5,237.7Z"/><path class="cls-1" d="M1069.3,237.7c-3.9,0-6.9-.8-9.4-3.4l3.3-3.3a8.77,8.77,0,0,0,6.2,2.2c3,0,4.6-1.1,4.6-3.2a2.66,2.66,0,0,0-.8-2.2,4.29,4.29,0,0,0-2.3-.9l-3.1-.4a9.32,9.32,0,0,1-5-2.1,6.8,6.8,0,0,1-1.8-5.1c0-4.6,3.4-7.8,9-7.8,3.6,0,6.1.9,8.3,3l-3.2,3.1a7.29,7.29,0,0,0-5.3-1.8c-2.7,0-4,1.5-4,3.2a2.76,2.76,0,0,0,.8,1.9,4.36,4.36,0,0,0,2.4,1l3,.4a8.22,8.22,0,0,1,4.9,2,7.37,7.37,0,0,1,2,5.5C1078.8,234.9,1074.7,237.7,1069.3,237.7Z"/><path class="cls-1" d="M1082,237.5v-4.1l11-17.2h-10.5v-4.5H1099v4L1088,233h11v4.5Z"/><path class="cls-1" d="M1118.1,237.5l-1.5-4.6h-9.2l-1.6,4.6h-5.2l9.4-25.8h4l9.4,25.8Zm-6-18.2-3.3,9.4h6.4Z"/><path class="cls-1" d="M1137.3,237.5h-10.8V211.7h10.3c5,0,8,2.8,8,7.2a5.9,5.9,0,0,1-3.2,5.3,5.8,5.8,0,0,1,3.5,5.8C1145.2,234.9,1141.9,237.5,1137.3,237.5Zm-.8-21.3h-4.9v5.9h4.9c2.1,0,3.3-1.2,3.3-3S1138.6,216.2,1136.5,216.2Zm.3,10.5h-5.2V233h5.2a3.15,3.15,0,0,0,.3-6.3h0C1137,226.7,1136.9,226.6,1136.8,226.7Z"/><path class="cls-1" d="M1165,237.5l-1.5-4.6h-9.2l-1.6,4.6h-5.2l9.4-25.8h4l9.4,25.8Zm-6-18.2-3.3,9.4h6.4Zm1-10.1h-3.2l2.3-6.2h5Z"/><path class="cls-1" d="M1173.4,237.5V211.7h5V233h11.7v4.5Z"/><path class="cls-1" d="M1201.2,226.9v10.6h-5V226.9l-7.7-15.2h5.5l4.8,10.4,4.7-10.4h5.5Z"/><path class="cls-1" d="M1210.5,237.5v-4.1l11-17.2H1211v-4.5h16.5v4l-11,17.3h11v4.5Z"/><path class="cls-1" d="M1246.5,237.5l-1.5-4.6h-9.2l-1.6,4.6h-5.3l9.4-25.8h3.9l9.4,25.8Zm-6-18.2-3.2,9.4h6.4Zm1-10.1h-3.2l2.3-6.2h5Z"/><path class="cls-1" d="M1262,237.7c-3.9,0-6.9-.8-9.4-3.4l3.2-3.3a8.77,8.77,0,0,0,6.2,2.2c3,0,4.6-1.1,4.6-3.2a2.66,2.66,0,0,0-.8-2.2,3.62,3.62,0,0,0-2.3-.9l-3.1-.4a9,9,0,0,1-5-2.1,6.46,6.46,0,0,1-1.8-5.1c0-4.6,3.4-7.8,9-7.8a11.17,11.17,0,0,1,8.3,3l-3.2,3.1a7.45,7.45,0,0,0-5.3-1.8c-2.7,0-4,1.5-4,3.2a2.76,2.76,0,0,0,.8,1.9,4.36,4.36,0,0,0,2.4,1l3,.4a8.22,8.22,0,0,1,4.9,2,7.37,7.37,0,0,1,2,5.5C1271.6,234.9,1267.4,237.7,1262,237.7Z"/><path class="cls-1" d="M1393.9,237.5l-1.5-4.6h-9.2l-1.6,4.6h-5.2l9.4-25.8h3.9l9.4,25.8Zm-6-18.2-3.3,9.4h6.4Z"/><path class="cls-1" d="M1417.3,237.5l-6.6-11.7-3.3,4v7.7h-5V211.7h5v11.2l9.1-11.2h6.1l-8.5,10.3,9.2,15.5Z"/><path class="cls-1" d="M1436.3,216.2v21.3h-5V216.2h-6.7v-4.5h18.5v4.5Z"/><path class="cls-1" d="M1456.2,237.7c-5.3,0-9.5-3.6-9.5-9.1V211.7h5v16.8c0,3,1.7,4.7,4.4,4.7s4.5-1.8,4.5-4.7V211.7h5v16.9C1465.7,234.1,1461.5,237.7,1456.2,237.7Z"/><path class="cls-1" d="M1485.9,237.5l-1.5-4.6h-9.2l-1.6,4.6h-5.2l9.4-25.8h4l9.4,25.8Zm-6-18.2-3.3,9.4h6.4Zm1-10.1h-3.2l2.3-6.2h5Z"/><path class="cls-1" d="M1502,216.2v21.3h-5V216.2h-6.7v-4.5h18.5v4.5Z"/><path class="cls-1" d="M1527.7,234.9a9.9,9.9,0,0,1-13.9,0c-2.6-2.6-2.5-5.8-2.5-10.3s-.1-7.7,2.5-10.3a9.9,9.9,0,0,1,13.9,0c2.6,2.6,2.6,5.8,2.6,10.3S1530.3,232.2,1527.7,234.9Zm-3.7-17.5a4.28,4.28,0,0,0-3.2-1.4,4.71,4.71,0,0,0-3.3,1.4c-1,1.1-1.2,2.3-1.2,7.2s.2,6.1,1.2,7.2a4.35,4.35,0,0,0,3.3,1.4,4.28,4.28,0,0,0,3.2-1.4c1-1.1,1.3-2.3,1.3-7.2S1525,218.4,1524,217.4Z"/><path class="cls-1" d="M1549.1,237.5l-5-10.3h-3.6v10.3h-5V211.7h10.1c5.2,0,8.4,3.6,8.4,7.9a7,7,0,0,1-4.7,6.8l5.8,11.1Zm-3.9-21.3h-4.7V223h4.7a3.41,3.41,0,0,0,.4-6.8Z"/><path class="cls-1" d="M1574.7,234.9a9.9,9.9,0,0,1-13.9,0c-2.6-2.6-2.5-5.8-2.5-10.3s-.1-7.7,2.5-10.3a9.9,9.9,0,0,1,13.9,0c2.6,2.6,2.6,5.8,2.6,10.3S1577.3,232.2,1574.7,234.9Zm-3.7-17.6a4.36,4.36,0,0,0-6.16-.24l-.24.24c-1,1.1-1.2,2.3-1.2,7.2s.2,6.1,1.2,7.2a4.36,4.36,0,0,0,6.16.24l.24-.24c1-1.1,1.3-2.3,1.3-7.2S1572,218.4,1571,217.3Z"/><path class="cls-1" d="M1597.4,237.5l-6.6-11.7-3.3,4v7.7h-5V211.7h5v11.2l9.1-11.2h6.1l-8.5,10.3,9.2,15.5Z"/><path class="cls-1" d="M120,1119c-3.9,0-6.9-.8-9.4-3.4l3.2-3.3a8.77,8.77,0,0,0,6.2,2.2c3,0,4.6-1.1,4.6-3.2a3,3,0,0,0-.8-2.2,3.62,3.62,0,0,0-2.3-.9l-3.1-.4a9,9,0,0,1-5-2.1,6.47,6.47,0,0,1-1.8-5.1c0-4.6,3.4-7.8,9-7.8a11.17,11.17,0,0,1,8.3,3l-3.2,3.2a7.45,7.45,0,0,0-5.3-1.8c-2.7,0-4,1.5-4,3.3a2.33,2.33,0,0,0,.8,1.8,4.36,4.36,0,0,0,2.4,1l3,.4a8.22,8.22,0,0,1,4.9,2,7.37,7.37,0,0,1,2,5.5C129.5,1116.2,125.3,1119,120,1119Z"/><path class="cls-1" d="M132.6,1118.8v-3.6l8.4-11h-7.9V1100H147v3.6l-8.5,11H147v4.2Z"/><path class="cls-1" d="M151.1,1096.7v-3.8h4.8v3.8Zm.1,22.1V1100h4.7v18.9Z"/><path class="cls-1" d="M183.1,1118.8v-11.4c0-2.6-1.6-3.4-3.1-3.4a3,3,0,0,0-3.2,2.79h0v12h-4.7v-11.4c0-2.6-1.6-3.4-3.1-3.4s-3.1.9-3.1,3.4v11.4h-4.7V1100h4.6v1.7a6.33,6.33,0,0,1,4.7-2,5.79,5.79,0,0,1,5,2.4,7.08,7.08,0,0,1,5.6-2.4,6,6,0,0,1,4.6,1.7,7.19,7.19,0,0,1,2.1,5.3v12.1Z"/><path class="cls-1" d="M203.7,1118.8v-1.7a6.33,6.33,0,0,1-4.7,2,5.57,5.57,0,0,1-4.4-1.7,6.73,6.73,0,0,1-1.9-5.4v-12h4.7v11.4c0,2.6,1.6,3.4,3.1,3.4s3.1-.9,3.1-3.4V1100h4.7v18.9Z"/><path class="cls-1" d="M218.9,1118.8a5.14,5.14,0,0,1-5.5-4.7h0V1093h4.7v20.1a1.49,1.49,0,0,0,1.25,1.7,1.7,1.7,0,0,0,.45,0h1.8v4Z"/><path class="cls-1" d="M235,1118.8v-1.6a5.75,5.75,0,0,1-4.6,1.8,6.47,6.47,0,0,1-4.8-1.7,6.16,6.16,0,0,1-1.6-4.2c0-3,2.1-5.5,6.4-5.5h4.4v-.9c0-2.1-1-3-3.5-3a3.88,3.88,0,0,0-3.6,1.6l-3-2.9c1.9-2,3.7-2.6,6.8-2.6,5.3,0,8,2.2,8,6.7v12.4Zm-.1-8h-3.7c-1.7,0-2.6.8-2.6,2.1s.9,2.2,2.7,2.2a4,4,0,0,0,3-.9,3.39,3.39,0,0,0,.7-2.4Zm-1.6-13.9h-3.1l2.3-6.2h5Z"/><path class="cls-1" d="M252.2,1119c-3.8,0-8.4-2-8.4-9.7s4.7-9.6,8.4-9.6a8.08,8.08,0,0,1,6.2,2.5l-3.2,3.2a3.84,3.84,0,0,0-3-1.5,3.56,3.56,0,0,0-2.7,1.2c-.7.9-1,2.2-1,4.2a6.18,6.18,0,0,0,1,4.2,3,3,0,0,0,2.7,1.2,3.84,3.84,0,0,0,3-1.5l3.2,3.2A7.85,7.85,0,0,1,252.2,1119Z"/><path class="cls-1" d="M262,1096.7v-3.8h4.8v3.8Zm.1,22.1V1100h4.7v18.9Z"/><path class="cls-1" d="M285,1116.7a7.59,7.59,0,0,1-5.9,2.3,7.78,7.78,0,0,1-5.8-2.3c-1.7-1.8-2.1-3.9-2.1-7.3s.4-5.5,2.1-7.3a7.4,7.4,0,0,1,5.8-2.3,8.15,8.15,0,0,1,5.9,2.3c1.7,1.8,2.1,3.9,2.1,7.3S286.7,1114.9,285,1116.7Zm-3.7-11.9a2.66,2.66,0,0,0-2.2-.8,3.54,3.54,0,0,0-2.2.8c-1,1-1.1,2.6-1.1,4.6s.1,3.6,1.1,4.6a2.66,2.66,0,0,0,2.2.8,3.54,3.54,0,0,0,2.2-.8c1-1,1.1-2.7,1.1-4.6S282.3,1105.8,281.3,1104.8Zm-1-7.9h-3.1l2.3-6.2h5Z"/><path class="cls-1" d="M456,1118.8H445.2V1093h10.4c5,0,8,2.8,8,7.2a6.33,6.33,0,0,0-2.4,8.6,6.75,6.75,0,0,0,2.7,2.6C463.9,1116.2,460.6,1118.8,456,1118.8Zm-.8-21.3h-4.9v5.9h4.9c2.1,0,3.3-1.2,3.3-3S457.3,1097.5,455.2,1097.5Zm.3,10.5h-5.2v6.3h5.2a3.17,3.17,0,0,0,3.4-2.93v-.07a3.28,3.28,0,0,0-2.9-3.4h-.5Z"/><path class="cls-1" d="M468.6,1096.7v-3.8h4.8v3.8Zm.1,22.1V1100h4.7v18.9Z"/><path class="cls-1" d="M477.3,1118.8v-3.6l8.4-11h-7.9V1100h13.9v3.6l-8.5,11h8.5v4.2Z"/><path class="cls-1" d="M501.8,1118.8a5.15,5.15,0,0,1-5.5-4.78v-9.92h-2v-3.6h2v-5.6H501v5.6h3.3v3.6H501v9c0,1.1.5,1.7,1.6,1.7h1.7v4Z"/><path class="cls-1" d="M521.6,1116.7a8.52,8.52,0,0,1-11.7,0c-1.7-1.8-2.1-3.9-2.1-7.3s.4-5.5,2.1-7.3a8.52,8.52,0,0,1,11.7,0c1.7,1.8,2.1,3.9,2.1,7.3S523.3,1114.9,521.6,1116.7Zm-3.7-11.9a2.66,2.66,0,0,0-2.2-.8,3.54,3.54,0,0,0-2.2.8c-1,1-1.1,2.6-1.1,4.6s.1,3.6,1.1,4.6a2.66,2.66,0,0,0,2.2.8,3.54,3.54,0,0,0,2.2-.8c1-1,1.1-2.7,1.1-4.6S518.9,1105.8,517.9,1104.8Z"/><path class="cls-1" d="M539.2,1118.8v-11.4c0-2.6-1.6-3.4-3.1-3.4a3.09,3.09,0,0,0-3.21,3,3.23,3.23,0,0,0,0,.44v11.4h-4.7V1100h4.6v1.7a6.33,6.33,0,0,1,4.7-2,6.07,6.07,0,0,1,4.5,1.7,6.62,6.62,0,0,1,1.9,5.3v12.1Z"/><path class="cls-1" d="M555.1,1119c-3,0-5.7-.3-8-2.7l3.1-3.1a7.18,7.18,0,0,0,5,1.8c1.6,0,3.3-.6,3.3-2,0-.9-.5-1.6-2-1.7l-3-.3c-3.4-.3-5.5-1.8-5.5-5.3,0-3.9,3.4-6,7.3-6,2.9,0,5.4.5,7.2,2.2l-2.9,2.9a6.93,6.93,0,0,0-4.4-1.3c-1.9,0-2.7.9-2.7,1.8,0,.7.3,1.5,2,1.6l3,.3c3.7.4,5.6,2.3,5.6,5.5C563.1,1117,559.6,1119,555.1,1119Z"/><path class="cls-1" d="M576.8,1118.8v-1.6a5.75,5.75,0,0,1-4.6,1.8,6.47,6.47,0,0,1-4.8-1.7,6.68,6.68,0,0,1-1.6-4.2c0-3,2.1-5.5,6.5-5.5h4.5v-.9c0-2.1-1-3-3.5-3a3.68,3.68,0,0,0-3.6,1.6l-3-2.9c1.8-2,3.7-2.6,6.8-2.6,5.3,0,8,2.2,8,6.7v12.4Zm-.2-8h-3.7c-1.7,0-2.6.8-2.6,2.1s.9,2.2,2.7,2.2a4,4,0,0,0,3-.9,3,3,0,0,0,.7-2.4Zm-1.6-13.9h-3.1l2.3-6.2h5Z"/><path class="cls-1" d="M592.9,1125.9c-2.9,0-4.9-.6-6.8-2.5l2.9-3a4.7,4.7,0,0,0,3.7,1.4,3.51,3.51,0,0,0,3.79-3.2.34.34,0,0,0,0-.1V1116a5.52,5.52,0,0,1-4.5,1.9,5.8,5.8,0,0,1-4.5-1.7c-1.8-1.8-1.9-4.2-1.9-7.5s.2-5.7,1.9-7.4a6.77,6.77,0,0,1,4.5-1.7,5.4,5.4,0,0,1,4.6,2v-1.8h4.6V1118C601.2,1122.6,598,1125.9,592.9,1125.9Zm.5-22c-2.8,0-3.1,2.4-3.1,4.9s.3,4.9,3.1,4.9,3.1-2.4,3.1-4.9S596.2,1104,593.4,1103.9Z"/><path class="cls-1" d="M1116.5,1119c-5.3,0-9.5-3.6-9.5-9v-17h5v16.8c0,3,1.7,4.8,4.4,4.8s4.5-1.8,4.5-4.8V1093h5v17C1126,1115.4,1121.8,1119,1116.5,1119Z"/><path class="cls-1" d="M1131.6,1118.8V1093h5v25.8Z"/><path class="cls-1" d="M1152.4,1121.5H1148l10.3-31.1h4.4Z"/><path class="cls-1" d="M1187.7,1118.8V1108H1179v10.8h-5V1093h5v10.5h8.7V1093h5v25.8Z"/><path class="cls-1" d="M1217.1,1118.8v-15l-4.9,9.8h-3.4l-5-9.8v15h-5V1093h5l6.7,13.9,6.7-13.9h5v25.8Z"/><path class="cls-1" d="M1228.1,1118.8V1093h5v25.8Z"/><path class="cls-1" d="M1424.9,1116.1a9.45,9.45,0,0,1-7.3,2.9,9.59,9.59,0,0,1-7-2.8,7.48,7.48,0,0,1-2.1-3.9,45.74,45.74,0,0,1,0-12.8,7.48,7.48,0,0,1,2.1-3.9,9.2,9.2,0,0,1,7-2.8c5.9,0,9,3.8,9.7,8.2h-5.1c-.6-2.5-2.1-3.8-4.6-3.8a4.28,4.28,0,0,0-3.2,1.4c-.9,1.2-1.2,2.1-1.2,7.2s.2,6.1,1.2,7.3a3.89,3.89,0,0,0,3.2,1.3,4.8,4.8,0,0,0,3.6-1.4,5.38,5.38,0,0,0,1.2-3.4v-1h-4.7v-4.2h9.7v3.8C1427.4,1112,1426.7,1114.2,1424.9,1116.1Z"/><path class="cls-1" d="M1431.7,1096.7v-3.8h4.8v3.8Zm0,22.1V1100h4.7v18.9Z"/><path class="cls-1" d="M1447.6,1118.8a5.15,5.15,0,0,1-5.5-4.78v-10h-2v-3.6h2v-5.6h4.7v5.6h3.3v3.6h-3.3v9c0,1.1.5,1.7,1.6,1.7h1.7v4Z"/><path class="cls-1" d="M1454.2,1124.8v-11.1h5.2v7.1Z"/><path class="cls-1" d="M1482.6,1118.8v-1.6a5.75,5.75,0,0,1-4.6,1.8,6.47,6.47,0,0,1-4.8-1.7,6.16,6.16,0,0,1-1.6-4.2c0-3,2.1-5.5,6.4-5.5h4.5v-.9c0-2.1-1-3-3.5-3a3.88,3.88,0,0,0-3.6,1.6l-3-2.9c1.8-2,3.7-2.6,6.8-2.6,5.3,0,8,2.2,8,6.7v12.4Zm-.1-8h-3.7c-1.7,0-2.7.8-2.7,2.1s.9,2.2,2.7,2.2a4,4,0,0,0,3-.9,3,3,0,0,0,.7-2.4Z"/><path class="cls-1" d="M1502.7,1118.8V1117a5.71,5.71,0,0,1-4.7,2,6.88,6.88,0,0,1-4.6-1.7c-1.9-1.9-1.9-5.1-1.9-8s0-6,1.9-7.9a7,7,0,0,1,4.6-1.7,5.84,5.84,0,0,1,4.6,1.9V1093h4.7v25.8Zm-3.4-14.8c-2.8,0-3.2,2.3-3.2,5.4s.4,5.4,3.2,5.4,3.2-2.3,3.2-5.4-.4-5.4-3.2-5.4Z"/><path class="cls-1" d="M1522.2,1118.8v-1.6a5.75,5.75,0,0,1-4.6,1.8,6.47,6.47,0,0,1-4.8-1.7,6.16,6.16,0,0,1-1.6-4.2c0-3,2.1-5.5,6.4-5.5h4.4v-.9c0-2.1-1-3-3.5-3a3.88,3.88,0,0,0-3.6,1.6l-3-2.9c1.8-2,3.7-2.6,6.8-2.6,5.3,0,8,2.2,8,6.7v12.4Zm-.1-8h-3.7c-1.7,0-2.6.8-2.6,2.1s.9,2.2,2.7,2.2a4,4,0,0,0,3-.9,3.39,3.39,0,0,0,.7-2.4Z"/><path class="cls-1" d="M1537.8,1118.8a5.15,5.15,0,0,1-5.5-4.78v-9.92h-2v-3.6h2v-5.6h4.7v5.6h3.3v3.6H1537v9c0,1.1.5,1.7,1.6,1.7h1.7v4Z"/><path class="cls-1" d="M1557.5,1116.7a8.52,8.52,0,0,1-11.7,0c-1.7-1.8-2.1-3.9-2.1-7.3s.4-5.5,2.1-7.3a8.52,8.52,0,0,1,11.7,0c1.7,1.8,2.1,3.9,2.1,7.3S1559.2,1114.9,1557.5,1116.7Zm-3.6-11.9a2.66,2.66,0,0,0-2.2-.8,3.54,3.54,0,0,0-2.2.8c-1,1-1.1,2.6-1.1,4.6s.1,3.6,1.1,4.6a2.66,2.66,0,0,0,2.2.8,3.54,3.54,0,0,0,2.2-.8c1-1,1.1-2.7,1.1-4.6S1554.8,1105.8,1553.9,1104.8Z"/><path class="cls-1" d="M1575.5,1118.8l-4.6-7.9-2,2.2v5.6h-4.7V1093h4.7v14.6l6.3-7.7h5.7l-6.7,7.6,7.2,11.3Z"/><path class="cls-1" d="M99,739.1v-9.9h2v8.2h4.5v1.7Z"/><path class="cls-1" d="M107.1,739.1v-9.9h2v10Z"/><path class="cls-1" d="M117.6,738.2a3.69,3.69,0,0,1-2.6,1h-3.6v-10H115a3.22,3.22,0,0,1,2.6,1c1.1,1.1,1,2.5,1,4S118.7,737.1,117.6,738.2Zm-1.4-6.7a1.72,1.72,0,0,0-1.5-.6h-1.5v6.5h1.5a2,2,0,0,0,1.5-.6c.4-.5.4-1.2.4-2.7s0-2.1-.4-2.6Z"/><path class="cls-1" d="M126.1,739.1l-.6-1.8H122l-.6,1.8h-2l3.6-9.9h1.5l3.6,10Zm-2.3-7-1.3,3.6H125Z"/><path class="cls-1" d="M134.6,739.1l-1.9-4h-1.4v4h-2v-9.9h3.9a3,3,0,0,1,3.2,2.79h0v.2a2.71,2.71,0,0,1-1.8,2.6l2.2,4.3Zm-1.5-8.2h-1.8v2.6h1.8a1.32,1.32,0,0,0,1.3-1.3,1.26,1.26,0,0,0-1.22-1.3Z"/><path class="cls-1" d="M138.3,741.5v-4.3h2V740Z"/><path class="cls-1" d="M149.9,739.1l-1.8-3-.8.9v2.2h-1.8v-10h1.8v5.7l2.4-3h2.2l-2.6,2.9,2.8,4.4Z"/><path class="cls-1" d="M157.1,739.1v-.6a2.11,2.11,0,0,1-1.8.7,2.25,2.25,0,0,1-2.49-2c0-.12,0-.23,0-.34,0-1.2.8-2.1,2.5-2.1H157v-.4c0-.8-.4-1.2-1.4-1.2a1.55,1.55,0,0,0-1.4.6l-1.2-1.1a3.22,3.22,0,0,1,2.6-1c2,0,3.1.9,3.1,2.6v4.8Zm0-3h-1.5c-.7,0-1,.3-1,.8s.3.8,1,.8a1.41,1.41,0,0,0,1.1-.3,1.62,1.62,0,0,0,.3-.9Z"/><path class="cls-1" d="M169.3,739.1v-4.4a1.2,1.2,0,0,0-2.4,0h0v4.5h-1.8v-4.4a1.2,1.2,0,0,0-1-1.3h-.2a1.13,1.13,0,0,0-1.2,1.06v0h0v4.6h-1.8v-7.3h1.8v.7a2.53,2.53,0,0,1,1.8-.8,2.22,2.22,0,0,1,1.9.9,3.12,3.12,0,0,1,2.2-.9,2.79,2.79,0,0,1,1.8.6,3,3,0,0,1,.8,2.1v4.7Z"/><path class="cls-1" d="M174.5,736.1a1.49,1.49,0,0,0,1.35,1.6h.25a2,2,0,0,0,1.6-.7l1.1,1.1a3.64,3.64,0,0,1-2.8,1.2c-1.7,0-3.4-.8-3.4-3.7,0-2.4,1.3-3.7,3.2-3.7a3.22,3.22,0,0,1,3.2,3.2v1.1Zm2.6-2a1.23,1.23,0,0,0-1.61-.69.66.66,0,0,0-.19.09.9.9,0,0,0-.6.6,1.86,1.86,0,0,0-.2.8h2.8A1.86,1.86,0,0,0,177.1,734.1Z"/><path class="cls-1" d="M184.7,733.8a1.16,1.16,0,0,0-1.62-.17l-.08.07a1,1,0,0,0-.4,1v4.4h-1.8v-7.3h1.8v.7a2.53,2.53,0,0,1,1.8-.8,2.19,2.19,0,0,1,1.7.7Z"/><path class="cls-1" d="M190.7,739.1v-.6a2.11,2.11,0,0,1-1.8.7,2.25,2.25,0,0,1-2.49-2c0-.12,0-.23,0-.34,0-1.2.8-2.1,2.5-2.1h1.7v-.4c0-.8-.4-1.2-1.4-1.2a1.55,1.55,0,0,0-1.4.6l-1.2-1.1a3.3,3.3,0,0,1,2.6-1c2,0,3.1.9,3.1,2.6v4.8Zm0-3h-1.4c-.7,0-1,.3-1,.8s.3.8,1.1.8a1.41,1.41,0,0,0,1.1-.3,1.62,1.62,0,0,0,.3-.9Z"/><path class="cls-1" d="M194.4,741.5v-4.3h2V740Z"/><path class="cls-1" d="M205.6,733.8a1.16,1.16,0,0,0-1.62-.17l-.08.07a1,1,0,0,0-.4,1v4.4h-1.8v-7.3h1.8v.7a2.53,2.53,0,0,1,1.8-.8,2.19,2.19,0,0,1,1.7.7Z"/><path class="cls-1" d="M211.6,739.1v-.6a2.11,2.11,0,0,1-1.8.7,2.25,2.25,0,0,1-2.49-2c0-.12,0-.23,0-.34,0-1.2.8-2.1,2.5-2.1h1.7v-.4c0-.8-.4-1.2-1.4-1.2a1.55,1.55,0,0,0-1.4.6l-1.2-1.1a3.22,3.22,0,0,1,2.6-1c2.1,0,3.1.9,3.1,2.6v4.8Zm-.1-3h-1.4c-.7,0-1,.3-1,.8s.3.8,1,.8a1.41,1.41,0,0,0,1.1-.3,1.62,1.62,0,0,0,.3-.9Z"/><path class="cls-1" d="M219.4,739.1v-.7a2.33,2.33,0,0,1-1.8.8,2.42,2.42,0,0,1-1.8-.7,4.49,4.49,0,0,1-.8-3.1,4.15,4.15,0,0,1,.8-3.1,2.91,2.91,0,0,1,1.8-.7,2.11,2.11,0,0,1,1.8.7V729h1.8v10Zm-1.3-5.7c-1.1,0-1.2.9-1.2,2.1s.1,2.1,1.2,2.1,1.2-.9,1.2-2.1-.1-2.1-1.2-2.1Z"/><path class="cls-1" d="M226.9,739.1v-.6a2.11,2.11,0,0,1-1.8.7,2.25,2.25,0,0,1-2.49-2c0-.12,0-.23,0-.34,0-1.2.8-2.1,2.5-2.1h1.7v-.4c0-.8-.4-1.2-1.4-1.2a1.55,1.55,0,0,0-1.4.6l-1.1-1.1a3.22,3.22,0,0,1,2.6-1c2,0,3.1.9,3.1,2.6v4.8Zm0-3h-1.4c-.7,0-1,.3-1,.8s.3.8,1.1.8a1.41,1.41,0,0,0,1.1-.3,1.62,1.62,0,0,0,.3-.9Z"/><path class="cls-1" d="M234.6,733.8a1.25,1.25,0,0,0-1.7-.2h0a1.18,1.18,0,0,0-.4,1.1v4.4h-1.8v-7.3h1.8v.7a2.53,2.53,0,0,1,1.8-.8,2.19,2.19,0,0,1,1.7.7Z"/><path class="cls-1" d="M236.1,741.5v-4.3h2V740Z"/><path class="cls-1" d="M243.5,739.1v-9.9h1.9v10Z"/><path class="cls-1" d="M254.8,739.1v-5.8l-1.9,3.8h-1.3l-1.9-3.8v5.8h-1.9v-9.9h1.9l2.6,5.4,2.6-5.4h1.9v10Z"/><path class="cls-1" d="M262.6,739.2a3.39,3.39,0,0,1-3.6-3.15V729.2h1.9v6.5a1.7,1.7,0,0,0,3.4,0h0v-6.5h1.9v6.5a3.54,3.54,0,0,1-3.5,3.5Z"/><path class="cls-1" d="M268.2,741.5v-4.3h2V740Z"/><path class="cls-1" d="M281.8,738.1a3.37,3.37,0,0,1-2.8,1.1,3.84,3.84,0,0,1-2.7-1.1,2.73,2.73,0,0,1-.8-1.5,20.91,20.91,0,0,1,0-5,2.73,2.73,0,0,1,.8-1.5A3.84,3.84,0,0,1,279,729a3.63,3.63,0,0,1,3.8,3.2h-2a1.75,1.75,0,0,0-1.8-1.5,1.7,1.7,0,0,0-1.2.5c-.4.5-.5.8-.5,2.8s.1,2.4.5,2.8a1.44,1.44,0,0,0,1.2.5,2,2,0,0,0,1.4-.6,1.59,1.59,0,0,0,.4-1.3v-.3H279v-1.6h3.8V735A5,5,0,0,1,281.8,738.1Z"/><path class="cls-1" d="M288.4,735.4h-1.9v3.8h-2v-9.9h3.9a3.12,3.12,0,0,1,3.1,3.1,3,3,0,0,1-3,3Zm-.1-4.5h-1.8v2.7h1.8a1.21,1.21,0,0,0,1.38-1,.68.68,0,0,0,0-.2h0v-.2a1.41,1.41,0,0,0-1.3-1.4h-.1Z"/><path class="cls-1" d="M296.1,739.2a4.74,4.74,0,0,1-3.6-1.3l1.3-1.3a3.07,3.07,0,0,0,2.4.8c1.1,0,1.8-.4,1.8-1.2a1.12,1.12,0,0,0-.3-.8,1.4,1.4,0,0,0-.9-.3l-1.2-.2a3.21,3.21,0,0,1-1.9-.8,2.47,2.47,0,0,1-.7-2c0-1.8,1.3-3,3.5-3a3.81,3.81,0,0,1,3.2,1.2l-1.2,1.2a3.09,3.09,0,0,0-2-.7,1.33,1.33,0,0,0-1.49,1.13.91.91,0,0,0,0,.17.89.89,0,0,0,.3.7,1.88,1.88,0,0,0,.9.4l1.2.2a2.74,2.74,0,0,1,2.7,2.78v.12C299.8,738.1,298.1,739.2,296.1,739.2Z"/><path class="cls-1" d="M443.5,730.9v8.2h-2v-8.2H439v-1.7h7.1V731Z"/><path class="cls-1" d="M448,736.1a1.42,1.42,0,0,0,1.23,1.59h.37a2.32,2.32,0,0,0,1.7-.7l1.1,1.1a3.64,3.64,0,0,1-2.8,1.2c-1.7,0-3.4-.8-3.4-3.7,0-2.4,1.3-3.7,3.2-3.7a3.22,3.22,0,0,1,3.2,3.2v1.1Zm2.6-2a1.3,1.3,0,0,0-1.7-.7,1.27,1.27,0,0,0-.7.7,1.86,1.86,0,0,0-.2.8h2.8a1.09,1.09,0,0,0-.2-.8Zm-.7-3.4h-1.2l.9-2.4h1.9Z"/><path class="cls-1" d="M458.2,733.8a1,1,0,0,0-1-.4,1.22,1.22,0,0,0-1.2,1.2h0v4.5h-1.8v-7.3H456v.7a2.53,2.53,0,0,1,1.8-.8,2.19,2.19,0,0,1,1.7.7Z"/><path class="cls-1" d="M465,739.1l-1.8-3-.8.9v2.2h-1.8v-10h1.8v5.7l2.4-3H467l-2.6,2.9,2.8,4.4Z"/><path class="cls-1" d="M469.8,736.1a1.42,1.42,0,0,0,1.23,1.59h.37a2.32,2.32,0,0,0,1.7-.7l1.1,1.1a3.64,3.64,0,0,1-2.8,1.2c-1.7,0-3.4-.8-3.4-3.7,0-2.4,1.3-3.7,3.2-3.7a3.22,3.22,0,0,1,3.2,3.2v1.1Zm2.6-2a1.3,1.3,0,0,0-1.7-.7,1.27,1.27,0,0,0-.7.7,1.86,1.86,0,0,0-.2.8h2.8a1.86,1.86,0,0,0-.2-.8Zm-.7-3.4h-1.2l.9-2.4h1.9Z"/><path class="cls-1" d="M481.4,738.6a2.91,2.91,0,0,1-1.8.7,2.11,2.11,0,0,1-1.8-.7v3.3H476v-10h1.8v.7a2.53,2.53,0,0,1,1.8-.8,2.42,2.42,0,0,1,1.8.7,4.49,4.49,0,0,1,.8,3.1A4.4,4.4,0,0,1,481.4,738.6Zm-2.3-5.2c-1.1,0-1.2.9-1.2,2.1s.1,2.1,1.2,2.1,1.2-.9,1.2-2.1-.1-2.1-1.2-2.1Z"/><path class="cls-1" d="M483.8,741.5v-4.3h2V740Z"/><path class="cls-1" d="M495.1,739.1v-.7a2.33,2.33,0,0,1-1.8.8,2.42,2.42,0,0,1-1.8-.7c-.7-.7-.7-2-.7-3.1a4.65,4.65,0,0,1,.7-3.1,2.91,2.91,0,0,1,1.8-.7,2.11,2.11,0,0,1,1.8.7V729h1.8v10Zm-1.3-5.7c-1.1,0-1.2.9-1.2,2.1s.1,2.1,1.2,2.1,1.2-.9,1.2-2.1-.1-2.1-1.2-2.1Z"/><path class="cls-1" d="M500.3,736.1a1.42,1.42,0,0,0,1.23,1.59h.37a2.32,2.32,0,0,0,1.7-.7l1.1,1.1a3.64,3.64,0,0,1-2.8,1.2c-1.7,0-3.4-.8-3.4-3.7,0-2.4,1.3-3.7,3.2-3.7a3.15,3.15,0,0,1,3.2,3.12v1.18Zm2.6-2a1.3,1.3,0,0,0-1.7-.7,1.27,1.27,0,0,0-.7.7,1.86,1.86,0,0,0-.2.8h2.8a1.09,1.09,0,0,0-.2-.8Z"/><path class="cls-1" d="M508.9,739.1a2,2,0,0,1-2.1-1.9h0v-3.8H506V732h.8v-2.2h1.8V732h1.3v1.4h-1.3v3.5c0,.4.2.7.6.7h.7v1.5Z"/><path class="cls-1" d="M512.9,736.1a1.49,1.49,0,0,0,1.35,1.6h.25a2.32,2.32,0,0,0,1.7-.7l1.1,1.1a3.64,3.64,0,0,1-2.8,1.2c-1.7,0-3.4-.8-3.4-3.7,0-2.4,1.3-3.7,3.2-3.7a3.22,3.22,0,0,1,3.2,3.2v1.1Zm2.6-2a1.23,1.23,0,0,0-1.61-.69.66.66,0,0,0-.19.09.9.9,0,0,0-.6.6,1.86,1.86,0,0,0-.2.8h2.8A1.86,1.86,0,0,0,515.5,734.1Z"/><path class="cls-1" d="M523.5,739.1l-1.8-3-.7.9v2.2h-1.8v-10H521v5.7l2.4-3h2.2l-2.6,3,2.8,4.4h-2.3Z"/><path class="cls-1" d="M529.8,739.2c-1.5,0-3.3-.8-3.3-3.7s1.8-3.7,3.3-3.7a3.1,3.1,0,0,1,2.4,1L531,734a1.44,1.44,0,0,0-1.2-.6,1.23,1.23,0,0,0-1,.5,3.42,3.42,0,0,0,0,3.2,1.23,1.23,0,0,0,1,.5,1.44,1.44,0,0,0,1.2-.6l1.2,1.2A2.93,2.93,0,0,1,529.8,739.2Z"/><path class="cls-1" d="M533.6,730.6v-1.5h1.9v1.5Zm0,8.5v-7.3h1.8v7.3Z"/><path class="cls-1" d="M542.5,738.3a3.26,3.26,0,0,1-4.5,0,5.34,5.34,0,0,1,0-5.7,3.26,3.26,0,0,1,4.5,0A5.34,5.34,0,0,1,542.5,738.3Zm-1.4-4.6a1.22,1.22,0,0,0-1.6,0,2.22,2.22,0,0,0-.4,1.8,2.84,2.84,0,0,0,.4,1.8,1.22,1.22,0,0,0,1.6,0,2.31,2.31,0,0,0,.4-1.8A2.84,2.84,0,0,0,541.1,733.7Zm-.4-3h-1.2l.9-2.4h1.9Z"/><path class="cls-1" d="M545,741.5v-4.3h2V740Z"/><path class="cls-1" d="M557.5,738.6a2.91,2.91,0,0,1-1.8.7,2.11,2.11,0,0,1-1.8-.7v3.3h-1.8v-10h1.8v.7a2.53,2.53,0,0,1,1.8-.8,2.42,2.42,0,0,1,1.8.7,4.49,4.49,0,0,1,.8,3.1A3.9,3.9,0,0,1,557.5,738.6Zm-2.3-5.2c-1.1,0-1.2.9-1.2,2.1s.1,2.1,1.2,2.1,1.2-.9,1.2-2.1-.1-2.1-1.2-2.1Z"/><path class="cls-1" d="M564,733.8a1,1,0,0,0-1-.4,1.22,1.22,0,0,0-1.2,1.2h0v4.5H560v-7.3h1.8v.7a2.53,2.53,0,0,1,1.8-.8,2.19,2.19,0,0,1,1.7.7Z"/><path class="cls-1" d="M567.4,736.1a1.49,1.49,0,0,0,1.35,1.6H569a2.32,2.32,0,0,0,1.7-.7l1.1,1.1a3.64,3.64,0,0,1-2.8,1.2c-1.7,0-3.4-.8-3.4-3.7,0-2.4,1.3-3.7,3.2-3.7A3.15,3.15,0,0,1,572,735v1.08Zm2.6-2a1.23,1.23,0,0,0-1.61-.69.66.66,0,0,0-.19.09.9.9,0,0,0-.6.6,1.86,1.86,0,0,0-.2.8h2.8A1.86,1.86,0,0,0,570,734.1Z"/><path class="cls-1" d="M577.7,739.1v-.7a2.33,2.33,0,0,1-1.8.8,2.42,2.42,0,0,1-1.8-.7c-.7-.7-.7-2-.7-3.1a4.65,4.65,0,0,1,.7-3.1,2.91,2.91,0,0,1,1.8-.7,2.42,2.42,0,0,1,1.8.7V729h1.8v10Zm-1.3-5.7c-1.1,0-1.2.9-1.2,2.1s.1,2.1,1.2,2.1,1.2-.9,1.2-2.1-.1-2.1-1.2-2.1Z"/><path class="cls-1" d="M581.5,730.6v-1.5h1.9v1.5Zm0,8.5v-7.3h1.8v7.3Z"/><path class="cls-1" d="M589.7,739.1l-1.8-3-.8.9v2.2h-1.8v-10h1.8v5.7l2.4-3h2.2l-2.6,2.9,2.8,4.4Z"/><path class="cls-1" d="M596,739.2c-1.5,0-3.3-.8-3.3-3.7s1.8-3.7,3.3-3.7a3.1,3.1,0,0,1,2.4,1l-1.2,1.2a1.44,1.44,0,0,0-1.2-.6,1.23,1.23,0,0,0-1,.5,3.42,3.42,0,0,0,0,3.2,1.23,1.23,0,0,0,1,.5,1.44,1.44,0,0,0,1.2-.6l1.2,1.2A2.79,2.79,0,0,1,596,739.2Z"/><path class="cls-1" d="M599.8,730.6v-1.5h1.9v1.5Zm0,8.5v-7.3h1.8v7.3Z"/><path class="cls-1" d="M608.7,738.3a3.17,3.17,0,0,1-2.3.9,2.93,2.93,0,0,1-2.2-.9,5.34,5.34,0,0,1,0-5.7,3.26,3.26,0,0,1,4.5,0A5.34,5.34,0,0,1,608.7,738.3Zm-1.4-4.6a1.35,1.35,0,0,0-1.7,0,2.22,2.22,0,0,0-.4,1.8,2.84,2.84,0,0,0,.4,1.8,1.12,1.12,0,0,0,.8.3,1.62,1.62,0,0,0,.9-.3,2.31,2.31,0,0,0,.4-1.8A2.84,2.84,0,0,0,607.3,733.7Zm-.4-3h-1.2l.9-2.4h1.9Z"/><path class="cls-1" d="M797.7,738.1a3.37,3.37,0,0,1-2.8,1.1,3.84,3.84,0,0,1-2.7-1.1,2.73,2.73,0,0,1-.8-1.5,20.91,20.91,0,0,1,0-5,2.73,2.73,0,0,1,.8-1.5,3.84,3.84,0,0,1,2.7-1.1,3.69,3.69,0,0,1,3.8,3.2h-2a1.75,1.75,0,0,0-1.8-1.5,1.7,1.7,0,0,0-1.2.5c-.4.5-.5.8-.5,2.8s.1,2.4.5,2.8a1.23,1.23,0,0,0,1.2.5,2,2,0,0,0,1.4-.6,2.06,2.06,0,0,0,.5-1.3v-.3H795v-1.6h3.8V735A5.79,5.79,0,0,1,797.7,738.1Z"/><path class="cls-1" d="M802.3,739.1a2,2,0,0,1-2.1-1.9h0v-8.1H802v7.8c0,.4.2.7.6.7h.7v1.5Z"/><path class="cls-1" d="M809.6,738.3a3.17,3.17,0,0,1-2.3.9,2.93,2.93,0,0,1-2.2-.9,5.34,5.34,0,0,1,0-5.7,3.26,3.26,0,0,1,4.5,0A5.34,5.34,0,0,1,809.6,738.3Zm-1.4-4.6a1.35,1.35,0,0,0-1.7,0,2.22,2.22,0,0,0-.4,1.8,2.84,2.84,0,0,0,.4,1.8,1.12,1.12,0,0,0,.8.3,1.62,1.62,0,0,0,.9-.3,2.31,2.31,0,0,0,.4-1.8,2.84,2.84,0,0,0-.4-1.8Z"/><path class="cls-1" d="M817.5,738.6a2.91,2.91,0,0,1-1.8.7,2.06,2.06,0,0,1-1.8-.8v.7h-1.8v-9.9H814v3.3a2,2,0,0,1,1.8-.7,2.42,2.42,0,0,1,1.8.7c.7.7.7,2,.7,3.1A4,4,0,0,1,817.5,738.6Zm-2.3-5.2c-1.1,0-1.2.9-1.2,2.1s.1,2.1,1.2,2.1,1.2-.9,1.2-2.1-.1-2.1-1.2-2.1Z"/><path class="cls-1" d="M823.7,739.1v-.6a2.11,2.11,0,0,1-1.8.7,2.25,2.25,0,0,1-2.49-2c0-.12,0-.23,0-.34,0-1.2.8-2.1,2.5-2.1h1.7v-.4c0-.8-.4-1.2-1.4-1.2a1.55,1.55,0,0,0-1.4.6l-1.2-1.1a3.22,3.22,0,0,1,2.6-1c2,0,3.1.9,3.1,2.6v4.8Zm0-3h-1.4c-.7,0-1,.3-1,.8s.3.8,1,.8a1.82,1.82,0,0,0,1.2-.3,1.62,1.62,0,0,0,.3-.9Zm-.6-5.4h-1.2l.9-2.4h1.9Z"/><path class="cls-1" d="M829.5,739.1a2,2,0,0,1-2.1-1.9h0v-8.1h1.8v7.8c0,.4.2.7.6.7h.7v1.5Z"/><path class="cls-1" d="M832,730.6v-1.5h1.9v1.5Zm0,8.5v-7.3h1.8v7.3Z"/><path class="cls-1" d="M838.3,739.2a3.92,3.92,0,0,1-3.1-1l1.2-1.2a2.72,2.72,0,0,0,2,.7c.6,0,1.3-.2,1.3-.8,0-.4-.2-.6-.8-.7l-1.2-.1c-1.3-.1-2.1-.7-2.1-2,0-1.5,1.3-2.3,2.8-2.3a4,4,0,0,1,2.8.8l-1.1,1a2.58,2.58,0,0,0-1.7-.5c-.7,0-1,.3-1,.7s.1.6.8.6l1.2.1a2.08,2.08,0,0,1,2.2,2v.14C841.4,738.5,840,739.2,838.3,739.2Z"/><path class="cls-1" d="M847.6,736.1a1.42,1.42,0,0,0,1.23,1.59h.37a2.32,2.32,0,0,0,1.7-.7l1.1,1.1a3.64,3.64,0,0,1-2.8,1.2c-1.7,0-3.4-.8-3.4-3.7,0-2.4,1.3-3.7,3.2-3.7a3.22,3.22,0,0,1,3.2,3.2v1.1Zm2.6-2a1.23,1.23,0,0,0-1.61-.69.66.66,0,0,0-.19.09,1.17,1.17,0,0,0-.6.6,1.86,1.86,0,0,0-.2.8h2.8C850.3,734.6,850.3,734.3,850.2,734.1Zm-.8-3.4h-1.2l.9-2.4H851Z"/><path class="cls-1" d="M856.2,739.2a3.92,3.92,0,0,1-3.1-1l1.2-1.2a2.63,2.63,0,0,0,1.9.7c.6,0,1.3-.2,1.3-.8,0-.4-.2-.6-.8-.7l-1.2-.1c-1.3-.1-2.1-.7-2.1-2,0-1.5,1.3-2.3,2.8-2.3a4,4,0,0,1,2.8.8l-1.1,1a2.58,2.58,0,0,0-1.7-.5c-.7,0-1,.3-1,.7s.1.6.8.6l1.2.1a2.08,2.08,0,0,1,2.2,2v.14C859.3,738.5,857.9,739.2,856.2,739.2Z"/><path class="cls-1" d="M866.1,739.1a2,2,0,0,1-2.1-1.9h0v-8.1h1.8v7.8a.63.63,0,0,0,.55.7h.85v1.5Z"/><path class="cls-1" d="M873.4,738.3a3.17,3.17,0,0,1-2.3.9,3.38,3.38,0,0,1-2.3-.9,5.34,5.34,0,0,1,0-5.7,3.17,3.17,0,0,1,2.3-.9,3.38,3.38,0,0,1,2.3.9A5.34,5.34,0,0,1,873.4,738.3Zm-1.4-4.6a1.22,1.22,0,0,0-1.6,0,2.22,2.22,0,0,0-.4,1.8,2.84,2.84,0,0,0,.4,1.8,1.12,1.12,0,0,0,.8.3.91.91,0,0,0,.8-.4,2.31,2.31,0,0,0,.4-1.8A2.54,2.54,0,0,0,872,733.7Z"/><path class="cls-1" d="M880.3,739.1l-1.8-3-.8.9v2.2h-1.8v-10h1.8v5.7l2.4-3h2.2l-2.6,2.9,2.8,4.4Z"/><path class="cls-1" d="M887.5,739.1v-.6a2.11,2.11,0,0,1-1.8.7,2.25,2.25,0,0,1-2.49-2c0-.12,0-.23,0-.34,0-1.2.8-2.1,2.5-2.1h1.7v-.4c0-.8-.4-1.2-1.4-1.2a1.55,1.55,0,0,0-1.4.6l-1.2-1.1a3.22,3.22,0,0,1,2.6-1c2,0,3.1.9,3.1,2.6v4.8Zm0-3H886c-.7,0-1,.3-1,.8s.3.8,1,.8a1.82,1.82,0,0,0,1.2-.3,1.62,1.62,0,0,0,.3-.9Zm-.6-5.4h-1.2l.9-2.4h1.9Z"/><path class="cls-1" d="M893.3,739.1a2,2,0,0,1-2.1-1.9h0v-8.1H893v7.8c0,.4.2.7.6.7h.7v1.5Z"/><path class="cls-1" d="M895.8,730.6v-1.5h1.9v1.5Zm0,8.5v-7.3h1.8v7.3Z"/><path class="cls-1" d="M902,739.2a3.92,3.92,0,0,1-3.1-1l1.2-1.2a2.72,2.72,0,0,0,2,.7c.6,0,1.3-.2,1.3-.8,0-.4-.2-.6-.8-.7l-1.2-.1c-1.3-.1-2.1-.7-2.1-2,0-1.5,1.3-2.3,2.8-2.3a4,4,0,0,1,2.8.8l-1.1,1.1a2.58,2.58,0,0,0-1.7-.5c-.7,0-1,.3-1,.7s.1.6.8.6l1.2.1a2.08,2.08,0,0,1,2.2,2v.14C905.1,738.5,903.8,739.2,902,739.2Z"/><path class="cls-1" d="M1082.6,735.4h-1.9v3.8h-1.9v-9.9h3.9a3.05,3.05,0,0,1-.1,6.1Zm-.1-4.5h-1.8v2.7h1.8a1.18,1.18,0,0,0,1.38-1,.68.68,0,0,0,0-.14h0v-.2a1.41,1.41,0,0,0-1.3-1.4Z"/><path class="cls-1" d="M1091.5,739.1v-.7a2.55,2.55,0,0,1-3.5.2,3.25,3.25,0,0,1-.8-2.1v-4.7h1.8v4.4a1.2,1.2,0,1,0,2.4.2h0v-4.6h1.8v7.3Z"/><path class="cls-1" d="M1099.3,733.8a1.16,1.16,0,0,0-1.62-.17l-.08.07a1,1,0,0,0-.4,1v4.4h-1.8v-7.3h1.8v.7a2.53,2.53,0,0,1,1.8-.8,2.19,2.19,0,0,1,1.7.7Z"/><path class="cls-1" d="M1104,739.2a3.92,3.92,0,0,1-3.1-1l1.2-1.2a2.63,2.63,0,0,0,1.9.7c.6,0,1.3-.2,1.3-.8,0-.4-.2-.6-.8-.7l-1.2-.1c-1.3-.1-2.1-.7-2.1-2,0-1.5,1.3-2.3,2.8-2.3a4,4,0,0,1,2.8.8l-1.1,1.1a2.58,2.58,0,0,0-1.7-.5c-.7,0-1,.3-1,.7s.1.6.8.6l1.2.1a2.08,2.08,0,0,1,2.2,2v.14C1107.1,738.5,1105.7,739.2,1104,739.2Z"/><path class="cls-1" d="M1112.8,739.1v-.7a2.55,2.55,0,0,1-3.5.2,2.7,2.7,0,0,1-.7-2.1v-4.7h1.8v4.4a1.21,1.21,0,0,0,1.11,1.32,1.2,1.2,0,0,0,1.29-.92h0v-4.7h1.8v7.3Z"/><path class="cls-1" d="M1116.6,730.6v-1.5h1.9v1.5Zm0,8.5v-7.3h1.8v7.3Z"/><path class="cls-1" d="M1122.8,739.1a2,2,0,0,1-2.1-1.9h0v-3.8h-.8V732h.8v-2.2h1.8V732h1.3v1.4h-1.3v3.5c0,.4.2.7.6.7h.7v1.5Z"/><path class="cls-1" d="M1125.3,741.5v-4.3h2V740Z"/><path class="cls-1" d="M1141,739.1v-4.4a1.2,1.2,0,0,0-2.4,0h0v4.5h-1.8v-4.4a1.25,1.25,0,0,0-1.06-1.4h0a1.09,1.09,0,0,0-1.28.88.5.5,0,0,0,0,.12v4.7h-1.8v-7.3h1.8v.7a2.53,2.53,0,0,1,1.8-.8,2.22,2.22,0,0,1,1.9.9,2.74,2.74,0,0,1,2.2-.9,2.79,2.79,0,0,1,1.8.6,3,3,0,0,1,.8,2.1v4.7Z"/><path class="cls-1" d="M1149.9,738.3a3.17,3.17,0,0,1-2.3.9,2.93,2.93,0,0,1-2.2-.9,5.34,5.34,0,0,1,0-5.7,3.26,3.26,0,0,1,4.5,0A5.34,5.34,0,0,1,1149.9,738.3Zm-1.5-4.6a1.35,1.35,0,0,0-1.7,0,2.22,2.22,0,0,0-.4,1.8,2.84,2.84,0,0,0,.4,1.8,1.35,1.35,0,0,0,1.7,0,2.31,2.31,0,0,0,.4-1.8A2,2,0,0,0,1148.4,733.7Z"/><path class="cls-1" d="M1156.5,739.1v-.7a2.33,2.33,0,0,1-1.8.8,2.42,2.42,0,0,1-1.8-.7,4.49,4.49,0,0,1-.8-3.1,4.15,4.15,0,0,1,.8-3.1,2.91,2.91,0,0,1,1.8-.7,2.11,2.11,0,0,1,1.8.7V729h1.8v10Zm-1.3-5.7c-1.1,0-1.2.9-1.2,2.1s.2,2.1,1.2,2.1,1.2-.9,1.2-2.1-.1-2.1-1.2-2.1Z"/><path class="cls-1" d="M1161.7,736.1a1.42,1.42,0,0,0,1.23,1.59h.37a1.91,1.91,0,0,0,1.7-.7l1.1,1.1a3.27,3.27,0,0,1-2.8,1.1c-1.7,0-3.4-.8-3.4-3.7,0-2.4,1.3-3.7,3.2-3.7a3.22,3.22,0,0,1,3.2,3.2v1Zm2.6-2a1.24,1.24,0,0,0-1.61-.7l-.19.1a.9.9,0,0,0-.6.6,1.86,1.86,0,0,0-.2.8h2.8a1.86,1.86,0,0,0-.2-.8Z"/><path class="cls-1" d="M1170,739.1a2,2,0,0,1-2.1-1.9h0v-8.1h1.8v7.8c0,.4.2.7.6.7h.7v1.5Z"/><path class="cls-1" d="M1181.1,738.6a2.91,2.91,0,0,1-1.8.7,2.42,2.42,0,0,1-1.8-.7v3.3h-1.8v-10h1.8v.7a2.53,2.53,0,0,1,1.8-.8,2.42,2.42,0,0,1,1.8.7c.7.7.7,2,.7,3.1A4.36,4.36,0,0,1,1181.1,738.6Zm-2.3-5.2c-1.1,0-1.2.9-1.2,2.1s.1,2.1,1.2,2.1,1.2-.9,1.2-2.1-.1-2.1-1.2-2.1Z"/><path class="cls-1" d="M1187.6,733.8a1.16,1.16,0,0,0-1.62-.17l-.08.07a1,1,0,0,0-.4,1v4.4h-1.8v-7.3h1.8v.7a2.53,2.53,0,0,1,1.8-.8,2.19,2.19,0,0,1,1.7.7Z"/><path class="cls-1" d="M1191,736.1a1.49,1.49,0,0,0,1.35,1.6h.25a2.32,2.32,0,0,0,1.7-.7l1.1,1.1a3.27,3.27,0,0,1-2.8,1.1c-1.7,0-3.4-.8-3.4-3.7,0-2.4,1.3-3.7,3.2-3.7a3.22,3.22,0,0,1,3.2,3.2v1Zm2.6-2a1.3,1.3,0,0,0-1.7-.7,1.27,1.27,0,0,0-.7.7,1.86,1.86,0,0,0-.2.8h2.8a1.86,1.86,0,0,0-.2-.8Z"/><path class="cls-1" d="M1199.5,739.1a2,2,0,0,1-2.1-1.9h0v-3.8h-.8V732h.8v-2.2h1.8V732h1.3v1.4h-1.3v3.5c0,.4.2.7.6.7h.7v1.5Z"/><path class="cls-1" d="M1202.1,730.6v-1.5h1.9v1.5Zm0,8.5v-7.3h1.8v7.3Z"/><path class="cls-1" d="M1208.9,739.2c-1.5,0-3.3-.8-3.3-3.7s1.8-3.7,3.3-3.7a3.1,3.1,0,0,1,2.4,1l-1.2,1.2a1.43,1.43,0,0,0-1.2-.6,1.23,1.23,0,0,0-1,.5,3.42,3.42,0,0,0,0,3.2,1.23,1.23,0,0,0,1,.5,1.43,1.43,0,0,0,1.2-.6l1.2,1.2A2.79,2.79,0,0,1,1208.9,739.2Z"/><path class="cls-1" d="M1215,739.1a2,2,0,0,1-2.1-1.9h0v-3.8h-.8V732h.8v-2.2h1.8V732h1.3v1.4h-1.3v3.5c0,.4.2.7.6.7h.7v1.5Z"/><path class="cls-1" d="M1217.6,730.6v-1.5h1.9v1.5Zm0,8.5v-7.3h1.8v7.3Z"/><path class="cls-1" d="M1224.6,739.1h-1.4l-2.7-7.3h1.9l1.5,4.5,1.5-4.5h1.9Z"/><path class="cls-1" d="M1229.7,736.1a1.42,1.42,0,0,0,1.23,1.59h.37a2.32,2.32,0,0,0,1.7-.7l1.1,1.1a3.27,3.27,0,0,1-2.8,1.1c-1.7,0-3.4-.8-3.4-3.7,0-2.4,1.3-3.7,3.2-3.7a3.22,3.22,0,0,1,3.2,3.2v1Zm2.6-2a1.3,1.3,0,0,0-1.7-.7,1.27,1.27,0,0,0-.7.7,1.86,1.86,0,0,0-.2.8h2.8c-.1-.3-.1-.6-.2-.8Z"/><path class="cls-1" d="M1235.8,741.5v-4.3h2V740Z"/><path class="cls-1" d="M1245.4,739.2a3.92,3.92,0,0,1-3.1-1l1.2-1.2a2.47,2.47,0,0,0,2,.7c.6,0,1.3-.2,1.3-.8,0-.4-.2-.6-.8-.7l-1.2-.1c-1.3-.1-2.1-.7-2.1-2,0-1.5,1.3-2.3,2.8-2.3a4,4,0,0,1,2.8.8l-1.1,1.1a2.58,2.58,0,0,0-1.7-.5c-.7,0-1,.3-1,.7s.1.6.8.6l1.2.1a2.08,2.08,0,0,1,2.2,2v.14C1248.6,738.5,1247.2,739.2,1245.4,739.2Z"/><path class="cls-1" d="M1252.2,739.1a2,2,0,0,1-2.1-1.9h0v-3.8h-.8V732h.8v-2.2h1.8V732h1.3v1.4h-1.3v3.5c0,.4.2.7.6.7h.7v1.5Z"/><path class="cls-1" d="M1260.2,738.6a2.91,2.91,0,0,1-1.8.7,2.06,2.06,0,0,1-1.8-.8v.7h-1.8v-9.9h1.8v3.3a2,2,0,0,1,1.8-.7,2.42,2.42,0,0,1,1.8.7,4.49,4.49,0,0,1,.8,3.1A3.66,3.66,0,0,1,1260.2,738.6Zm-2.3-5.2c-1.1,0-1.2.9-1.2,2.1s.1,2.1,1.2,2.1,1.2-.9,1.2-2.1-.1-2.1-1.2-2.1Z"/><path class="cls-1" d="M1262.6,739.1V737h2.1v2.1Z"/><path class="cls-1" d="M1427.4,739.1l-2.6-4.5-1.3,1.5v3h-1.9v-9.9h1.9v4.3l3.5-4.3h2.4l-3.3,4,3.6,6Z"/><path class="cls-1" d="M1435.8,738.3a3.17,3.17,0,0,1-2.3.9,2.93,2.93,0,0,1-2.2-.9,5.34,5.34,0,0,1,0-5.7,3.26,3.26,0,0,1,4.5,0A5,5,0,0,1,1435.8,738.3Zm-1.4-4.6a1.35,1.35,0,0,0-1.7,0,2.22,2.22,0,0,0-.4,1.8,2.84,2.84,0,0,0,.4,1.8,1.12,1.12,0,0,0,.8.3,1.62,1.62,0,0,0,.9-.3,4.27,4.27,0,0,0,0-3.6Z"/><path class="cls-1" d="M1442.4,733.8a1.25,1.25,0,0,0-1.7-.2h0a1.18,1.18,0,0,0-.4,1.1v4.4h-1.8v-7.3h1.8v.7a2.53,2.53,0,0,1,1.8-.8,2.19,2.19,0,0,1,1.7.7Z"/><path class="cls-1" d="M1453.3,739.1v-4.4a1.2,1.2,0,1,0-2.4,0h0v4.5h-1.8v-4.4a1.2,1.2,0,0,0-2.4-.2h0v4.6h-1.8v-7.3h1.8v.7a2.53,2.53,0,0,1,1.8-.8,2.22,2.22,0,0,1,1.9.9,3.12,3.12,0,0,1,2.2-.9,2.79,2.79,0,0,1,1.8.6,3,3,0,0,1,.8,2.1v4.7Z"/><path class="cls-1" d="M1460.8,739.1v-.6a2.11,2.11,0,0,1-1.8.7,2.25,2.25,0,0,1-2.49-2c0-.12,0-.23,0-.34,0-1.2.8-2.1,2.5-2.1h1.7v-.4c0-.8-.4-1.2-1.3-1.2a1.55,1.55,0,0,0-1.4.6l-1.2-1.1a3.22,3.22,0,0,1,2.6-1c2,0,3.1.9,3.1,2.6v4.8Zm0-3h-1.4c-.7,0-1,.3-1,.8s.3.8,1,.8a1.82,1.82,0,0,0,1.2-.3,1.62,1.62,0,0,0,.3-.9Zm-.6-5.4H1459l.9-2.4h1.9Z"/><path class="cls-1" d="M1468.8,739.1v-4.4a1.2,1.2,0,1,0-2.4-.2h0v4.6h-1.8v-7.3h1.8v.7a2.55,2.55,0,0,1,3.5-.2,3.25,3.25,0,0,1,.8,2.1v4.7Z"/><path class="cls-1" d="M1475.2,740.3a2.74,2.74,0,0,1-.5.9,2.25,2.25,0,0,1-1.6.6h-.7v-1.6h.4a.78.78,0,0,0,.9-.6h0l.3-.9-2.5-6.8h1.9l1.5,4.5,1.5-4.5h1.9Z"/><path class="cls-1" d="M1479,739.1v-1.4l3.2-4.3h-3v-1.6h5.4v1.4l-3.3,4.3h3.3v1.6Z"/><path class="cls-1" d="M1489.9,739.1v-.6a2.11,2.11,0,0,1-1.8.7,2.25,2.25,0,0,1-2.49-2c0-.12,0-.23,0-.34,0-1.2.8-2.1,2.5-2.1h1.7v-.4c0-.8-.4-1.2-1.4-1.2a1.55,1.55,0,0,0-1.4.6l-1.2-1.1a3.22,3.22,0,0,1,2.6-1c2,0,3.1.9,3.1,2.6v4.8Zm0-3h-1.4c-.7,0-1,.3-1,.8s.3.8,1,.8a1.82,1.82,0,0,0,1.2-.3,1.62,1.62,0,0,0,.3-.9Zm-.6-5.4H1488l.9-2.4h1.9Z"/><path class="cls-1" d="M1496,739.2a3.92,3.92,0,0,1-3.1-1l1.2-1.2a2.47,2.47,0,0,0,2,.7c.6,0,1.3-.2,1.3-.8,0-.4-.2-.6-.8-.7l-1.2-.1c-1.3-.1-2.1-.7-2.1-2,0-1.5,1.3-2.3,2.8-2.3a4,4,0,0,1,2.8.8l-1.1,1.1a2.58,2.58,0,0,0-1.7-.5c-.7,0-1,.3-1,.7s.1.6.8.6l1.2.1a2.08,2.08,0,0,1,2.2,2v.14C1499.1,738.5,1497.7,739.2,1496,739.2Z"/><path class="cls-1" d="M1500.6,741.5v-4.3h2V740Z"/><path class="cls-1" d="M1510.3,741.9a3.53,3.53,0,0,1-2.7-1l1.1-1.2a2,2,0,0,0,1.4.6,1.38,1.38,0,0,0,1.5-1.23v-1a1.91,1.91,0,0,1-1.7.7,2.51,2.51,0,0,1-1.7-.6c-.7-.7-.7-1.6-.7-2.9s0-2.2.7-2.9a2.33,2.33,0,0,1,1.8-.6,2.17,2.17,0,0,1,1.8.8v-.7h1.8v7a3.08,3.08,0,0,1-2.9,3.1h0Zm.2-8.5c-1.1,0-1.2.9-1.2,1.9s.1,1.9,1.2,1.9,1.2-.9,1.2-1.9S1511.6,733.4,1510.5,733.4Z"/><path class="cls-1" d="M1519.3,739.1v-.6a2.11,2.11,0,0,1-1.8.7,2.25,2.25,0,0,1-2.49-2c0-.12,0-.23,0-.34,0-1.2.8-2.1,2.5-2.1h1.7v-.4c0-.8-.4-1.2-1.4-1.2a1.55,1.55,0,0,0-1.4.6l-1.2-1.1a3.22,3.22,0,0,1,2.6-1c2,0,3.1.9,3.1,2.6v4.8Zm0-3h-1.4c-.7,0-1,.3-1,.8s.3.8,1,.8a1.82,1.82,0,0,0,1.2-.3,1.62,1.62,0,0,0,.3-.9Zm-.6-5.4h-1.2l.9-2.4h1.9Z"/><path class="cls-1" d="M1522.5,739.1v-1.4l3.2-4.3h-3v-1.6h5.4v1.4l-3.3,4.3h3.3v1.6Z"/><path class="cls-1" d="M1534.4,736.1a1.42,1.42,0,0,0,1.23,1.59h.37a2.32,2.32,0,0,0,1.7-.7l1.1,1.1a3.64,3.64,0,0,1-2.8,1.2c-1.7,0-3.4-.8-3.4-3.7,0-2.4,1.3-3.7,3.2-3.7A3.16,3.16,0,0,1,1539,735v1.18Zm2.6-2a1.24,1.24,0,0,0-1.61-.7l-.19.1a1.17,1.17,0,0,0-.6.6,1.86,1.86,0,0,0-.2.8h2.8a1.86,1.86,0,0,0-.2-.8Zm-.7-3.4h-1.2l.9-2.4h1.9Z"/><path class="cls-1" d="M1543,739.2a3.92,3.92,0,0,1-3.1-1l1.2-1.2a2.47,2.47,0,0,0,2,.7c.6,0,1.3-.2,1.3-.8,0-.4-.2-.6-.8-.7l-1.1-.1c-1.3-.1-2.1-.7-2.1-2,0-1.5,1.3-2.3,2.8-2.3a4,4,0,0,1,2.8.8l-1.1,1.1a2.58,2.58,0,0,0-1.7-.5c-.7,0-1,.3-1,.7s.1.6.8.6l1.2.1a2.08,2.08,0,0,1,2.2,2v.14C1546.1,738.5,1544.8,739.2,1543,739.2Z"/><path class="cls-1" d="M1553,733.4v5.7h-1.8v-5.7h-.8V732h.8v-.9a2,2,0,0,1,1.89-2.1h1.21v1.5h-.7c-.4,0-.6.2-.6.7v.8h1.3v1.4Z"/><path class="cls-1" d="M1556.9,736.1a1.42,1.42,0,0,0,1.23,1.59h.37a2.32,2.32,0,0,0,1.7-.7l1.1,1.1a3.64,3.64,0,0,1-2.8,1.2c-1.7,0-3.4-.8-3.4-3.7,0-2.4,1.3-3.7,3.2-3.7a3.24,3.24,0,0,1,3.21,3.27,1.77,1.77,0,0,1,0,.23v.8Zm2.6-2a1.24,1.24,0,0,0-1.61-.7l-.19.1a1.17,1.17,0,0,0-.6.6,1.86,1.86,0,0,0-.2.8h2.8a1.86,1.86,0,0,0-.2-.8Zm-.7-3.4h-1.2l.9-2.4h1.9Z"/><path class="cls-1" d="M1567.5,739.1l-1.8-3-.8.9v2.2h-1.8v-10h1.9v5.7l2.4-3h2.2l-2.6,2.9,2.8,4.4Z"/><path class="cls-1" d="M758.8,1119.5H755l-8.5-25.9h5.2l5.2,16.9,5.2-16.9h5.3Z"/><path class="cls-1" d="M769.7,1119.5v-4.3l9.7-11.2a4.51,4.51,0,0,0,1.3-3.1,2.92,2.92,0,0,0-2.62-3.19,2.57,2.57,0,0,0-.48,0,3,3,0,0,0-3.2,3.3h-4.7c0-4.7,3.5-7.6,7.9-7.6,4.6,0,7.9,2.9,7.9,7.5,0,2.5-1,3.9-2.8,5.9l-7.2,8.4h10v4.3Z"/><path class="cls-1" d="M803.2,1119.5l-5-9-5,9h-5.8l8-13.3-7.5-12.6h5.7l4.5,8.4,4.5-8.4h5.7l-7.5,12.6,8.1,13.3Z"/><path class="cls-1" d="M822.1,1122.2h-4.4l10.4-31.3h4.4Z"/><path class="cls-1" d="M853.6,1098.1v21.4h-5.1v-21.4h-6.8v-4.5h18.6v4.5Z"/><path class="cls-1" d="M865.4,1111.5a3.91,3.91,0,0,0,3.6,4.19,2.79,2.79,0,0,0,.5,0,5.22,5.22,0,0,0,4.3-1.8l2.9,2.8a9.11,9.11,0,0,1-7.2,3c-4.5,0-8.8-2-8.8-9.7,0-6.2,3.3-9.7,8.3-9.7,5.3,0,8.3,3.9,8.3,9.1v2.1Zm6.8-5.3a3.4,3.4,0,0,0-3.2-2,3.26,3.26,0,0,0-3.2,2,4.45,4.45,0,0,0-.4,2h7.2A4.45,4.45,0,0,0,872.2,1106.2Z"/><path class="cls-1" d="M887,1119.5a5.09,5.09,0,0,1-5.49-4.67,4.46,4.46,0,0,1,0-.73v-20.5h4.7v20.2a1.49,1.49,0,0,0,1.25,1.7,1.7,1.7,0,0,0,.45,0h1.8v4Z"/><path class="cls-1" d="M896.3,1111.5a3.91,3.91,0,0,0,3.6,4.19,2.79,2.79,0,0,0,.5,0,5.22,5.22,0,0,0,4.3-1.8l2.9,2.8a9.11,9.11,0,0,1-7.2,3c-4.5,0-8.8-2-8.8-9.7,0-6.2,3.3-9.7,8.3-9.7,5.3,0,8.3,3.9,8.3,9.1m-5.2-3.2a3.4,3.4,0,0,0-3.2-2,3.26,3.26,0,0,0-3.2,2,4.45,4.45,0,0,0-.4,2h7.2A4.45,4.45,0,0,0,903,1106.2Z"/><path class="cls-1" d="M925.6,1117.4a8.71,8.71,0,0,1-11.8,0c-1.7-1.8-2.1-3.9-2.1-7.4s.4-5.6,2.1-7.3a8.71,8.71,0,0,1,11.8,0c1.7,1.8,2.1,3.9,2.1,7.3S927.3,1115.6,925.6,1117.4Zm-3.7-12a3.12,3.12,0,0,0-2.2-.8,3.28,3.28,0,0,0-2.2.8c-1,1-1.1,2.6-1.1,4.6s.1,3.6,1.1,4.6a3.44,3.44,0,0,0,4.4,0c1-1,1.1-2.7,1.1-4.6s-.1-3.6-1.1-4.6Z"/><path class="cls-1" d="M946.1,1118a6.54,6.54,0,0,1-4.6,1.7,5.73,5.73,0,0,1-4.6-1.9v8.6h-4.7v-25.9h4.6v1.8a5.57,5.57,0,0,1,4.7-2,6.62,6.62,0,0,1,4.6,1.7c1.9,1.9,1.9,5.1,1.9,8S948,1116.1,946.1,1118Zm-6-13.4c-2.8,0-3.2,2.3-3.2,5.4s.4,5.5,3.2,5.5,3.2-2.4,3.2-5.5S943,1104.6,940.1,1104.6Z"/></g><polygon class="cls-13" points="145.92 56.55 145.91 56.56 145.91 56.55 145.92 56.55"/></svg>