<svg xmlns="http://www.w3.org/2000/svg" viewBox="0 0 1765.44 1203.22"><defs><style>.cls-1,.cls-10{fill:#152742;}.cls-1,.cls-14{stroke:#1c3c68;}.cls-1,.cls-14,.cls-15,.cls-16,.cls-17,.cls-18,.cls-19,.cls-2,.cls-3,.cls-5,.cls-6,.cls-7,.cls-8,.cls-9{stroke-linecap:round;stroke-linejoin:round;}.cls-1,.cls-14,.cls-15,.cls-16,.cls-18,.cls-19,.cls-2,.cls-3,.cls-5,.cls-7,.cls-8,.cls-9{stroke-width:6px;}.cls-15,.cls-16,.cls-17,.cls-18,.cls-19,.cls-2,.cls-3,.cls-5,.cls-6,.cls-7,.cls-8,.cls-9{fill:none;}.cls-2,.cls-3,.cls-5,.cls-6,.cls-7,.cls-8,.cls-9{stroke:#34aec5;}.cls-2{stroke-dasharray:24;}.cls-4{fill:#0a4851;}.cls-19,.cls-5{stroke-dasharray:21.9 21.9;}.cls-17,.cls-6{stroke-width:4px;}.cls-16,.cls-7{stroke-dasharray:22.64 22.64;}.cls-18,.cls-8{stroke-dasharray:0 10;}.cls-9{stroke-dasharray:12;}.cls-10{font-size:33.04px;font-family:DINPro-Black, DINPro;font-weight:800;}.cls-11{letter-spacing:-0.01em;}.cls-12{letter-spacing:-0.02em;}.cls-13,.cls-14{fill:#34aec5;}.cls-15,.cls-16,.cls-17,.cls-18,.cls-19{stroke:#152742;}.cls-20,.cls-21{fill:#fff;}.cls-21{font-size:36.36px;font-family:DINPro-Bold, DINPro;font-weight:700;}.cls-22{letter-spacing:-0.07em;}.cls-23{letter-spacing:-0.02em;}</style></defs><g id="sötét"><rect class="cls-1" x="79.52" y="181" width="248.15" height="586.67" rx="26.27"/><rect class="cls-1" x="401.57" y="181" width="248.15" height="586.67" rx="26.27"/><rect class="cls-1" x="723.63" y="181" width="248.15" height="586.67" rx="26.27"/><rect class="cls-1" x="1045.68" y="181" width="248.15" height="586.67" rx="26.27"/><rect class="cls-1" x="1367.74" y="181" width="248.15" height="586.67" rx="26.27"/><rect class="cls-1" x="79.52" y="877.89" width="248.15" height="270.22" rx="26.27"/><rect class="cls-1" x="401.57" y="877.89" width="248.15" height="270.22" rx="26.27"/><rect class="cls-1" x="723.63" y="877.89" width="248.15" height="270.22" rx="26.27"/><rect class="cls-1" x="1045.68" y="877.89" width="248.15" height="270.22" rx="26.27"/><rect class="cls-1" x="1367.74" y="877.89" width="248.15" height="270.22" rx="26.27"/></g><g id="világos"><rect class="cls-2" x="57" y="151.22" width="1587.56" height="643.11" rx="24"/><circle class="cls-3" cx="144.22" cy="1044.08" r="17.44"/><circle class="cls-3" cx="271.81" cy="1044.08" r="17.44"/><polyline class="cls-3" points="119.03 1050.92 104.67 1044.09 104.67 1006.97 133.33 997.42 160.67 981.42 160.67 967.42 226 967.42 226 980.97 250 998.97"/><line class="cls-3" x1="104.67" y1="1017.42" x2="120" y2="1017.42"/><path class="cls-3" d="M133.33,997.42l16.23,11.8H265.21a10.34,10.34,0,0,1,2,.19l25.18,4.79a21.82,21.82,0,0,1,17.73,20.72l.35,10.42a5.45,5.45,0,0,1-5.32,5.58h-9.62"/><line class="cls-3" x1="168.44" y1="1050.92" x2="244.44" y2="1050.92"/><path class="cls-3" d="M195.33,1017.42v33.5"/><line class="cls-3" x1="160.67" y1="981.42" x2="226" y2="981.42"/><line class="cls-3" x1="195.33" y1="981.42" x2="195.33" y2="1002.75"/><line class="cls-3" x1="186.67" y1="967.42" x2="186.67" y2="949.42"/><line class="cls-3" x1="201.56" y1="967.42" x2="201.56" y2="949.42"/><line class="cls-3" x1="178.89" y1="949.42" x2="208.56" y2="949.42"/><path class="cls-3" d="M146.52,966.22a17.21,17.21,0,0,1,1-30.08"/><path class="cls-3" d="M121.18,985.27a48.16,48.16,0,0,1,4.53-71.74"/><path class="cls-3" d="M132.9,976.44a33.67,33.67,0,0,1-2.49-47.54A34.48,34.48,0,0,1,135.9,924"/><path class="cls-3" d="M246.65,934.09a17.22,17.22,0,0,1,1,30.08"/><path class="cls-3" d="M268.5,911.53a48.15,48.15,0,0,1,8.15,67.61,51.06,51.06,0,0,1-3.65,4.13"/><path class="cls-3" d="M258.35,922A33.65,33.65,0,0,1,266.24,969a32.73,32.73,0,0,1-4.89,5.49"/><path class="cls-3" d="M150.44,660.31a17.21,17.21,0,0,1,1-30.08"/><path class="cls-3" d="M125.1,679.41a48.16,48.16,0,0,1,4.53-71.74"/><path class="cls-3" d="M136.82,670.58A33.67,33.67,0,0,1,134.33,623a34.48,34.48,0,0,1,5.49-4.89"/><path class="cls-3" d="M250.57,628.22a17.22,17.22,0,0,1,1,30.08"/><path class="cls-3" d="M272.42,605.67a48.16,48.16,0,0,1,8.23,67.6,49.55,49.55,0,0,1-3.65,4.14"/><path class="cls-3" d="M262.27,616.15a33.65,33.65,0,0,1,7.89,46.94,32.73,32.73,0,0,1-4.89,5.49"/><rect class="cls-3" x="172.28" y="611.43" width="57.63" height="62.22" rx="12.52"/><rect class="cls-3" x="125.21" y="290.46" width="105.9" height="62.22" rx="12.6"/><path class="cls-3" d="M267.73,346.86l-24.32-15.55a5.89,5.89,0,0,1-2.73-5v-9.52a6,6,0,0,1,2.73-5l24.32-15.55a5.92,5.92,0,0,1,9.1,5v40.63a5.91,5.91,0,0,1-5.9,5.93A6,6,0,0,1,267.73,346.86Z"/><path class="cls-3" d="M1225.09,317.27l-39.48-10.53-57.15-15.25a7.49,7.49,0,0,0-9.16,5.3,7.41,7.41,0,0,0-.25,1.93v51.56a7.48,7.48,0,0,0,7.49,7.47,7.33,7.33,0,0,0,1.92-.25l57.15-15.28,39.48-10.53a7.48,7.48,0,0,0,0-14.42Zm-45,8.93c-.06.16-.11.34-.19.51l-.23.48a4.25,4.25,0,0,1-.27.46,5.84,5.84,0,0,1-.68.81h0l-10.82,10.81a5.53,5.53,0,1,1-7.82-7.83h0l1.37-1.37h-28.21a5.54,5.54,0,0,1,0-11.07h28.21l-1.48-1.48a5.53,5.53,0,0,1,7.82-7.82l10.93,10.93a5.87,5.87,0,0,1,.71.87,5.18,5.18,0,0,1,.48.9c.06.15.11.28.16.43v.07a2.51,2.51,0,0,0,.14.52,4.44,4.44,0,0,1,.08.56c0,.2,0,.45,0,.67V325a4.91,4.91,0,0,1-.08.67,1.61,1.61,0,0,1-.08.57Z"/><path class="cls-4" d="M1180.27,325.66a4.91,4.91,0,0,0,.08-.67A4.91,4.91,0,0,1,1180.27,325.66Z"/><path class="cls-4" d="M1180.35,325v-.33A1.22,1.22,0,0,1,1180.35,325Z"/><path class="cls-4" d="M1180.38,324.55V324A5.23,5.23,0,0,1,1180.38,324.55Z"/><path class="cls-4" d="M1179.47,321.51a5.87,5.87,0,0,0-.71-.87A5.87,5.87,0,0,1,1179.47,321.51Z"/><path class="cls-3" d="M1225.09,539.29l-39.48-10.53-57.15-15.25a7.49,7.49,0,0,0-9.16,5.32,7.26,7.26,0,0,0-.25,1.91V572.3a7.48,7.48,0,0,0,7.49,7.47,7.33,7.33,0,0,0,1.92-.25l57.15-15.24,39.48-10.54a7.48,7.48,0,0,0,0-14.45Zm-45,8.93a5.27,5.27,0,0,1-.19.51c-.07.16-.15.32-.23.48a4.25,4.25,0,0,1-.27.46,5.84,5.84,0,0,1-.68.81h0L1167.9,561.3a5.53,5.53,0,0,1-7.82-7.83h0l1.37-1.38h-28.21a5.53,5.53,0,0,1,0-11.06h28.22l-1.48-1.49a5.53,5.53,0,0,1,7.82-7.82l10.93,10.93a5.47,5.47,0,0,1,.71.88,5.1,5.1,0,0,1,.48.89c.06.15.11.29.16.43v.07a2.51,2.51,0,0,0,.14.52,4.44,4.44,0,0,1,.08.56c0,.2,0,.45,0,.67V547a5.05,5.05,0,0,1-.08.68,1.39,1.39,0,0,1-.08.54Z"/><path class="cls-4" d="M1180.27,547.69a5.05,5.05,0,0,0,.08-.68A5.05,5.05,0,0,1,1180.27,547.69Z"/><path class="cls-4" d="M1180.35,547v-.33A1.22,1.22,0,0,1,1180.35,547Z"/><path class="cls-4" d="M1180.38,546.57V546A5.23,5.23,0,0,1,1180.38,546.57Z"/><path class="cls-4" d="M1179.47,543.54a5.47,5.47,0,0,0-.71-.88A5,5,0,0,1,1179.47,543.54Z"/><line class="cls-3" x1="127.99" y1="442.57" x2="158.52" y2="463.72"/><rect class="cls-3" x="170.65" y="446.33" width="57.63" height="62.22" rx="12.52"/><line class="cls-3" x1="158.52" y1="472.91" x2="117.33" y2="461.35"/><line class="cls-3" x1="127.99" y1="520.88" x2="158.52" y2="499.73"/><line class="cls-3" x1="158.52" y1="490.55" x2="117.33" y2="502.1"/><line class="cls-3" x1="158.52" y1="482.39" x2="110.96" y2="482.39"/><line class="cls-3" x1="274.05" y1="443.23" x2="243.53" y2="464.38"/><line class="cls-3" x1="243.53" y1="473.57" x2="284.71" y2="462.01"/><line class="cls-3" x1="274.05" y1="521.55" x2="243.53" y2="500.39"/><line class="cls-3" x1="243.53" y1="491.21" x2="284.71" y2="502.76"/><line class="cls-3" x1="243.53" y1="483.05" x2="291.08" y2="483.05"/><line class="cls-3" x1="443.67" y1="286.46" x2="443.67" y2="507.55"/><line class="cls-3" x1="603.67" y1="286.46" x2="603.67" y2="507.55"/><line class="cls-3" x1="523.67" y1="286.46" x2="523.67" y2="298.46"/><line class="cls-5" x1="523.67" y1="320.36" x2="523.67" y2="484.6"/><line class="cls-3" x1="523.67" y1="495.55" x2="523.67" y2="507.55"/><path class="cls-3" d="M552.2,660.31a47.88,47.88,0,1,0-57.06,0"/><rect class="cls-3" x="489" y="660.31" width="70.22" height="13.34" rx="4.62"/><rect class="cls-3" x="477.11" y="674.19" width="93.11" height="13.34" rx="4.62"/><path class="cls-6" d="M498.76,586h1.49a12,12,0,0,0,12.13,11.87h0v1.45a12,12,0,0,0-11.86,12.14H499a12,12,0,0,0-12.1-11.9h0v-1.46A12,12,0,0,0,498.76,586Z"/><path class="cls-6" d="M532.86,631.55H534a9.46,9.46,0,0,0,9.56,9.35V642a9.46,9.46,0,0,0-9.35,9.56H533a9.46,9.46,0,0,0-9.55-9.37h0v-1.15A9.46,9.46,0,0,0,532.86,631.55Z"/><line class="cls-6" x1="499.65" y1="635.22" x2="500.04" y2="635.22"/><line class="cls-6" x1="519.26" y1="618.63" x2="519.21" y2="618.63"/><line class="cls-6" x1="538.78" y1="601.59" x2="538.72" y2="601.59"/><line class="cls-6" x1="535.37" y1="608.92" x2="535.31" y2="608.92"/><line class="cls-6" x1="538.33" y1="594.03" x2="538.28" y2="594.03"/><rect class="cls-6" x="552.26" y="453.8" width="29.04" height="48.96" rx="9.92"/><rect class="cls-6" x="552.26" y="352.68" width="29.04" height="48.96" rx="9.92"/><rect class="cls-6" x="469.15" y="308.41" width="29.04" height="48.96" rx="9.92"/><polyline class="cls-6" points="483.68 380.81 483.68 401.64 477.65 395.61"/><polyline class="cls-6" points="483.68 401.64 483.68 401.64 489.68 395.64"/><line class="cls-6" x1="483.68" y1="367.03" x2="483.68" y2="401.64"/><polyline class="cls-6" points="566.76 329.53 566.76 308.7 572.79 314.73"/><polyline class="cls-6" points="566.76 308.7 566.76 308.7 560.76 314.7"/><line class="cls-6" x1="566.76" y1="343.3" x2="566.76" y2="308.7"/><polyline class="cls-6" points="566.75 440.03 566.75 419.2 572.78 425.23"/><polyline class="cls-6" points="566.75 419.2 566.75 419.2 560.75 425.2"/><line class="cls-6" x1="566.75" y1="444.92" x2="566.75" y2="419.2"/><line class="cls-3" x1="768" y1="282.09" x2="768" y2="691"/><line class="cls-3" x1="928" y1="282.09" x2="928" y2="691"/><line class="cls-3" x1="848" y1="282.09" x2="848" y2="294.09"/><line class="cls-7" x1="848" y1="316.73" x2="848" y2="667.68"/><line class="cls-3" x1="848" y1="679" x2="848" y2="691"/><rect class="cls-6" x="876.59" y="572.79" width="29.04" height="48.96" rx="9.92"/><rect class="cls-6" x="876.59" y="348.31" width="29.04" height="48.96" rx="9.92"/><rect class="cls-6" x="793.48" y="592.66" width="29.04" height="48.96" rx="9.92"/><polyline class="cls-6" points="808.01 665.06 808.01 685.89 801.99 679.86"/><polyline class="cls-6" points="808.01 685.89 808.01 685.89 814.01 679.88"/><line class="cls-6" x1="808.01" y1="651.28" x2="808.01" y2="685.89"/><polyline class="cls-6" points="891.1 325.16 891.1 304.33 897.13 310.36"/><polyline class="cls-6" points="891.1 304.33 891.1 304.33 885.1 310.33"/><line class="cls-6" x1="891.1" y1="338.94" x2="891.1" y2="304.33"/><polyline class="cls-6" points="888.06 511.3 888.06 490.47 894.09 496.5"/><polyline class="cls-6" points="888.06 490.47 888.06 490.47 882.06 496.47"/><line class="cls-6" x1="888.06" y1="548.33" x2="888.06" y2="490.47"/><path class="cls-8" d="M888.07,564.78v-.56c0-27.46-5-25-14.05-34L827.6,483.84c-9-9-17.82-20.84-21.15-41V346.68"/><polyline class="cls-3" points="795.56 358.55 806.78 347.33 818.06 358.61"/><path class="cls-3" d="M1225.09,428.28l-39.48-10.53-57.15-15.25a7.49,7.49,0,0,0-9.16,5.3,7.41,7.41,0,0,0-.25,1.93v51.56a7.48,7.48,0,0,0,7.49,7.47,7.33,7.33,0,0,0,1.92-.25l57.15-15.29,39.48-10.53a7.48,7.48,0,0,0,0-14.41Zm-45,8.93a5.27,5.27,0,0,1-.19.51c-.07.16-.15.32-.23.48a4.25,4.25,0,0,1-.27.46,5.84,5.84,0,0,1-.68.81h0l-10.82,10.82a5.53,5.53,0,0,1-7.82-7.83h0l1.37-1.38h-28.21a5.53,5.53,0,0,1,0-11.06h28.22l-1.48-1.49a5.53,5.53,0,0,1,7.82-7.82l10.93,10.93a5.47,5.47,0,0,1,.71.88,5.1,5.1,0,0,1,.48.89c.06.15.11.29.16.43v.07a2.51,2.51,0,0,0,.14.52,4.44,4.44,0,0,1,.08.56c0,.2,0,.45,0,.67V436a4.91,4.91,0,0,1-.08.67,1.52,1.52,0,0,1-.08.56Z"/><path class="cls-4" d="M1180.27,436.67a4.91,4.91,0,0,0,.08-.67A4.91,4.91,0,0,1,1180.27,436.67Z"/><path class="cls-4" d="M1180.35,436v-.33A1.22,1.22,0,0,1,1180.35,436Z"/><path class="cls-4" d="M1180.38,435.56V435A5.23,5.23,0,0,1,1180.38,435.56Z"/><path class="cls-4" d="M1179.47,432.53a5.47,5.47,0,0,0-.71-.88A5,5,0,0,1,1179.47,432.53Z"/><line class="cls-3" x1="1058.59" y1="435.51" x2="1119.05" y2="435.51"/><path class="cls-3" d="M1077,436V658.16a16.7,16.7,0,0,0,16.7,16.7h156.6a16.69,16.69,0,0,0,16.7-16.68V436"/><path class="cls-3" d="M1230.64,435h43.84"/><path class="cls-3" d="M1116.18,325.33h-4.34a8,8,0,0,0-8,8V538.56a8,8,0,0,0,8,8h4.34"/><path class="cls-3" d="M1234.52,325.16h4.34a8,8,0,0,1,8,7.95V538.39a8,8,0,0,1-8,8h-4.34"/><line class="cls-3" x1="1077.04" y1="418.98" x2="1077.04" y2="428.82"/><line class="cls-3" x1="1072.12" y1="423.9" x2="1081.96" y2="423.9"/><line class="cls-3" x1="1085.23" y1="446.2" x2="1095.07" y2="446.2"/><circle class="cls-3" cx="1491.57" cy="416.5" r="67.15"/><path class="cls-3" d="M1427.44,396.53l46.56-4.31a193.18,193.18,0,0,1,35.18,0l46.54,4.27"/><path class="cls-3" d="M1474.64,481.49q.28-2.85.28-5.71a55.77,55.77,0,0,0-50.39-55.5"/><path class="cls-3" d="M1508.5,481.49q-.29-2.85-.29-5.71a55.77,55.77,0,0,1,50.39-55.5"/><circle class="cls-3" cx="846.69" cy="1031.62" r="39.6"/><path class="cls-3" d="M808.87,1019.84l27.44-2.52a114.14,114.14,0,0,1,20.75,0l27.45,2.52"/><path class="cls-3" d="M836.7,1070c.11-1.11.17-2.23.17-3.37a32.88,32.88,0,0,0-29.72-32.73"/><path class="cls-3" d="M856.68,1070a31.56,31.56,0,0,1-.17-3.37,32.88,32.88,0,0,1,29.71-32.73"/><rect class="cls-3" x="1527.08" y="526.32" width="39.6" height="70.14" rx="12"/><rect class="cls-3" x="1424.42" y="542.62" width="82.57" height="51.06" rx="12"/><polygon class="cls-3" points="1537.96 551.66 1537.96 574.99 1558.11 563.33 1537.96 551.66"/><rect class="cls-3" x="1450.43" y="555.29" width="10.67" height="25.72" rx="3.64"/><rect class="cls-3" x="1470.31" y="555.29" width="10.67" height="25.72" rx="3.64"/><path class="cls-3" d="M485.36,912.55h83.83A19.81,19.81,0,0,1,589,932.36v94a19.8,19.8,0,0,1-9.09,16.65l-41.33,26.61a19.77,19.77,0,0,1-21.18.16l-42.5-26.43a19.79,19.79,0,0,1-9.34-16.81V932.36a19.8,19.8,0,0,1,19.79-19.81Z"/><path class="cls-3" d="M502,986.68l3.26-3.27a3.22,3.22,0,0,1,4.55,0h0l10.44,10.45a3.24,3.24,0,0,0,4.56,0l26.45-26.45a3.22,3.22,0,0,1,4.55,0h0l3.72,3.73a3.22,3.22,0,0,1,0,4.55h0l-34.38,34.38a3.22,3.22,0,0,1-4.55,0l0,0L502,991.22A3.22,3.22,0,0,1,502,986.68Z"/><path class="cls-3" d="M485,924.78h84.52c5.22.85,9.46,5.09,9.46,10.32v89.77a9.47,9.47,0,0,1-4.34,8L533,1059.68a9.46,9.46,0,0,1-10.12.08L480,1033.13a9.49,9.49,0,0,1-4.46-8v-90C475.56,929.87,479.79,925.63,485,924.78Z"/><path class="cls-3" d="M789,1027.22H772.11a12,12,0,0,1-12-12V931.66a12,12,0,0,1,12-12H922.33a12,12,0,0,1,12,12v83.56a12,12,0,0,1-12,12H906.78"/><line class="cls-3" x1="794.78" y1="992.85" x2="821.74" y2="919.96"/><line class="cls-3" x1="875.67" y1="919.96" x2="902.63" y2="992.85"/><line class="cls-9" x1="847.52" y1="919.96" x2="847.52" y2="979.22"/><circle class="cls-3" cx="1169.67" cy="954.66" r="40"/><path class="cls-3" d="M1194,986.4h2.77a39.11,39.11,0,0,1,39.11,39.11v17H1103.44v-17a39.12,39.12,0,0,1,39.12-39.11h2.77"/><ellipse class="cls-3" cx="1539.41" cy="928.55" rx="36.74" ry="13.33"/><path class="cls-3" d="M1502.52,1016.09c0,7.36,16.45,13.33,36.74,13.33s36.74-6,36.74-13.33"/><path class="cls-3" d="M1502.52,994.51c0,7.36,16.45,13.33,36.74,13.33s36.74-6,36.74-13.33"/><path class="cls-3" d="M1502.52,972.93c0,7.36,16.45,13.33,36.74,13.33s36.74-6,36.74-13.33"/><path class="cls-3" d="M1502.52,951.35c0,7.36,16.45,13.33,36.74,13.33s36.74-6,36.74-13.33"/><line class="cls-3" x1="1502.67" y1="928.55" x2="1502.67" y2="1014.18"/><line class="cls-3" x1="1576.15" y1="930.26" x2="1576.15" y2="1015.89"/><ellipse class="cls-3" cx="1415.91" cy="937.81" rx="8.59" ry="8.37"/><ellipse class="cls-3" cx="1415.91" cy="1009.81" rx="8.59" ry="8.37"/><ellipse class="cls-3" cx="1455.81" cy="939" rx="8.59" ry="8.37"/><line class="cls-3" x1="1415.91" y1="946.19" x2="1415.91" y2="1001.44"/><path class="cls-3" d="M1455.81,947.37v2.74A14.89,14.89,0,0,1,1440.93,965h-10.37a14.88,14.88,0,0,0-14.89,14.87v1.57"/><polygon class="cls-1" points="361.96 515.89 361.96 500.91 341.35 500.91 341.35 474.09 361.96 474.09 361.96 459.11 390.42 487.57 361.96 515.89"/><polygon class="cls-1" points="684.07 515.89 684.07 500.91 663.46 500.91 663.46 474.09 684.07 474.09 684.07 459.11 712.53 487.57 684.07 515.89"/><polygon class="cls-1" points="1006.18 515.89 1006.18 500.91 985.58 500.91 985.58 474.09 1006.18 474.09 1006.18 459.11 1034.64 487.57 1006.18 515.89"/><polygon class="cls-1" points="1328.3 515.89 1328.3 500.91 1307.69 500.91 1307.69 474.09 1328.3 474.09 1328.3 459.11 1356.75 487.57 1328.3 515.89"/></g><g id="sense-think-act"><text class="cls-10" transform="translate(157.08 82.07)">SENSE</text><text class="cls-10" transform="translate(793.48 82.27)">THINK</text><text class="cls-10" transform="translate(1460.81 81.67)"><tspan class="cls-11">A</tspan><tspan class="cls-12" x="21.25" y="0">C</tspan><tspan x="40.71" y="0">T</tspan></text><polygon class="cls-13" points="930.5 71 926.31 75.19 917.85 83.65 913.57 79.37 922.03 70.9 913.66 62.53 917.85 58.34 926.22 66.72 930.5 71"/><polygon class="cls-13" points="947.59 71 943.4 75.19 934.94 83.65 930.66 79.37 939.13 70.9 930.75 62.53 934.94 58.34 943.31 66.72 947.59 71"/><polygon class="cls-13" points="964.68 71 960.49 75.19 952.03 83.65 947.75 79.37 956.22 70.9 947.85 62.53 952.03 58.34 960.4 66.72 964.68 71"/><polygon class="cls-13" points="981.77 71 977.58 75.19 969.12 83.65 964.84 79.37 973.31 70.9 964.94 62.53 969.12 58.34 977.49 66.72 981.77 71"/><polygon class="cls-13" points="998.86 71 994.67 75.19 986.21 83.65 981.93 79.37 990.4 70.9 982.03 62.53 986.21 58.34 994.58 66.72 998.86 71"/><polygon class="cls-13" points="1015.95 71 1011.76 75.19 1003.3 83.65 999.02 79.37 1007.49 70.9 999.12 62.53 1003.3 58.34 1011.67 66.72 1015.95 71"/><polygon class="cls-13" points="1033.04 71 1028.85 75.19 1020.39 83.65 1016.11 79.37 1024.58 70.9 1016.21 62.53 1020.39 58.34 1028.76 66.72 1033.04 71"/><polygon class="cls-13" points="1050.13 71 1045.94 75.19 1037.48 83.65 1033.2 79.37 1041.67 70.9 1033.3 62.53 1037.48 58.34 1045.85 66.72 1050.13 71"/><polygon class="cls-13" points="1067.22 71 1063.03 75.19 1054.57 83.65 1050.3 79.37 1058.76 70.9 1050.39 62.53 1054.57 58.34 1062.94 66.72 1067.22 71"/><polygon class="cls-13" points="1084.31 71 1080.12 75.19 1071.66 83.65 1067.38 79.37 1075.85 70.9 1067.48 62.53 1071.66 58.34 1080.03 66.72 1084.31 71"/><polygon class="cls-13" points="1101.4 71 1097.21 75.19 1088.75 83.65 1084.47 79.37 1092.94 70.9 1084.57 62.53 1088.75 58.34 1097.12 66.72 1101.4 71"/><polygon class="cls-13" points="1118.49 71 1114.3 75.19 1105.84 83.65 1101.57 79.37 1110.03 70.9 1101.66 62.53 1105.84 58.34 1114.21 66.72 1118.49 71"/><polygon class="cls-13" points="1135.58 71 1131.39 75.19 1122.93 83.65 1118.66 79.37 1127.12 70.9 1118.75 62.53 1122.93 58.34 1131.3 66.72 1135.58 71"/><polygon class="cls-13" points="1152.67 71 1148.48 75.19 1140.02 83.65 1135.75 79.37 1144.21 70.9 1135.84 62.53 1140.02 58.34 1148.39 66.72 1152.67 71"/><polygon class="cls-13" points="1169.76 71 1165.57 75.19 1157.11 83.65 1152.84 79.37 1161.3 70.9 1152.93 62.53 1157.11 58.34 1165.48 66.72 1169.76 71"/><polygon class="cls-13" points="1186.85 71 1182.66 75.19 1174.2 83.65 1169.93 79.37 1178.39 70.9 1170.02 62.53 1174.2 58.34 1182.57 66.72 1186.85 71"/><polygon class="cls-13" points="1203.94 71 1199.75 75.19 1191.29 83.65 1187.02 79.37 1195.48 70.9 1187.11 62.53 1191.29 58.34 1199.66 66.72 1203.94 71"/><polygon class="cls-13" points="1221.03 71 1216.85 75.19 1208.38 83.65 1204.11 79.37 1212.57 70.9 1204.2 62.53 1208.38 58.34 1216.75 66.72 1221.03 71"/><polygon class="cls-13" points="1238.13 71 1233.93 75.19 1225.47 83.65 1221.2 79.37 1229.66 70.9 1221.29 62.53 1225.47 58.34 1233.84 66.72 1238.13 71"/><polygon class="cls-13" points="1255.21 71 1251.03 75.19 1242.56 83.65 1238.29 79.37 1246.75 70.9 1238.38 62.53 1242.56 58.34 1250.93 66.72 1255.21 71"/><polygon class="cls-13" points="1272.31 71 1268.12 75.19 1259.65 83.65 1255.38 79.37 1263.84 70.9 1255.47 62.53 1259.65 58.34 1268.02 66.72 1272.31 71"/><polygon class="cls-13" points="1289.4 71 1285.21 75.19 1276.74 83.65 1272.47 79.37 1280.93 70.9 1272.56 62.53 1276.74 58.34 1285.11 66.72 1289.4 71"/><polygon class="cls-13" points="1306.49 71 1302.3 75.19 1293.83 83.65 1289.56 79.37 1298.02 70.9 1289.65 62.53 1293.83 58.34 1302.2 66.72 1306.49 71"/><polygon class="cls-13" points="1323.58 71 1319.39 75.19 1310.92 83.65 1306.65 79.37 1315.11 70.9 1306.74 62.53 1310.92 58.34 1319.29 66.72 1323.58 71"/><polygon class="cls-13" points="1340.67 71 1336.48 75.19 1328.01 83.65 1323.74 79.37 1332.2 70.9 1323.83 62.53 1328.01 58.34 1336.38 66.72 1340.67 71"/><polygon class="cls-13" points="1357.76 71 1353.57 75.19 1345.1 83.65 1340.83 79.37 1349.29 70.9 1340.92 62.53 1345.1 58.34 1353.47 66.72 1357.76 71"/><polygon class="cls-13" points="1374.85 71 1370.66 75.19 1362.19 83.65 1357.92 79.37 1366.38 70.9 1358.01 62.53 1362.19 58.34 1370.57 66.72 1374.85 71"/><polygon class="cls-13" points="1391.94 71 1387.75 75.19 1379.29 83.65 1375.01 79.37 1383.47 70.9 1375.1 62.53 1379.29 58.34 1387.65 66.72 1391.94 71"/><polygon class="cls-13" points="1409.03 71 1404.84 75.19 1396.38 83.65 1392.1 79.37 1400.57 70.9 1392.19 62.53 1396.38 58.34 1404.75 66.72 1409.03 71"/><polygon class="cls-13" points="1428.73 71 1424.54 75.19 1416.08 83.65 1411.8 79.37 1420.27 70.9 1411.9 62.53 1416.08 58.34 1424.45 66.72 1428.73 71"/><polygon class="cls-13" points="1445.82 71 1441.63 75.19 1433.17 83.65 1428.89 79.37 1437.36 70.9 1428.99 62.53 1433.17 58.34 1441.54 66.72 1445.82 71"/><polygon class="cls-13" points="300.8 71 296.61 75.19 288.15 83.65 283.87 79.37 292.34 70.9 283.96 62.53 288.15 58.34 296.52 66.72 300.8 71"/><polygon class="cls-13" points="317.89 71 313.7 75.19 305.24 83.65 300.96 79.37 309.43 70.9 301.06 62.53 305.24 58.34 313.61 66.72 317.89 71"/><polygon class="cls-13" points="334.98 71 330.79 75.19 322.33 83.65 318.05 79.37 326.52 70.9 318.15 62.53 322.33 58.34 330.7 66.72 334.98 71"/><polygon class="cls-13" points="352.07 71 347.88 75.19 339.42 83.65 335.14 79.37 343.61 70.9 335.24 62.53 339.42 58.34 347.79 66.72 352.07 71"/><polygon class="cls-13" points="369.16 71 364.97 75.19 356.51 83.65 352.23 79.37 360.7 70.9 352.33 62.53 356.51 58.34 364.88 66.72 369.16 71"/><polygon class="cls-13" points="386.25 71 382.06 75.19 373.6 83.65 369.32 79.37 377.79 70.9 369.42 62.53 373.6 58.34 381.97 66.72 386.25 71"/><polygon class="cls-13" points="403.34 71 399.15 75.19 390.69 83.65 386.41 79.37 394.88 70.9 386.51 62.53 390.69 58.34 399.06 66.72 403.34 71"/><polygon class="cls-13" points="420.43 71 416.24 75.19 407.78 83.65 403.5 79.37 411.97 70.9 403.6 62.53 407.78 58.34 416.15 66.72 420.43 71"/><polygon class="cls-13" points="437.52 71 433.33 75.19 424.87 83.65 420.6 79.37 429.06 70.9 420.69 62.53 424.87 58.34 433.24 66.72 437.52 71"/><polygon class="cls-13" points="454.61 71 450.42 75.19 441.96 83.65 437.69 79.37 446.15 70.9 437.78 62.53 441.96 58.34 450.33 66.72 454.61 71"/><polygon class="cls-13" points="471.7 71 467.51 75.19 459.05 83.65 454.78 79.37 463.24 70.9 454.87 62.53 459.05 58.34 467.42 66.72 471.7 71"/><polygon class="cls-13" points="488.79 71 484.6 75.19 476.14 83.65 471.87 79.37 480.33 70.9 471.96 62.53 476.14 58.34 484.51 66.72 488.79 71"/><polygon class="cls-13" points="505.88 71 501.69 75.19 493.23 83.65 488.96 79.37 497.42 70.9 489.05 62.53 493.23 58.34 501.6 66.72 505.88 71"/><polygon class="cls-13" points="522.97 71 518.78 75.19 510.32 83.65 506.05 79.37 514.51 70.9 506.14 62.53 510.32 58.34 518.69 66.72 522.97 71"/><polygon class="cls-13" points="540.06 71 535.87 75.19 527.41 83.65 523.14 79.37 531.6 70.9 523.23 62.53 527.41 58.34 535.78 66.72 540.06 71"/><polygon class="cls-13" points="557.15 71 552.96 75.19 544.5 83.65 540.23 79.37 548.69 70.9 540.32 62.53 544.5 58.34 552.87 66.72 557.15 71"/><polygon class="cls-13" points="574.24 71 570.05 75.19 561.59 83.65 557.32 79.37 565.78 70.9 557.41 62.53 561.59 58.34 569.96 66.72 574.24 71"/><polygon class="cls-13" points="591.34 71 587.14 75.19 578.68 83.65 574.41 79.37 582.87 70.9 574.5 62.53 578.68 58.34 587.05 66.72 591.34 71"/><polygon class="cls-13" points="608.42 71 604.24 75.19 595.77 83.65 591.5 79.37 599.96 70.9 591.59 62.53 595.77 58.34 604.14 66.72 608.42 71"/><polygon class="cls-13" points="625.51 71 621.33 75.19 612.86 83.65 608.59 79.37 617.05 70.9 608.68 62.53 612.86 58.34 621.23 66.72 625.51 71"/><polygon class="cls-13" points="642.61 71 638.42 75.19 629.95 83.65 625.68 79.37 634.14 70.9 625.77 62.53 629.95 58.34 638.32 66.72 642.61 71"/><polygon class="cls-13" points="659.7 71 655.51 75.19 647.04 83.65 642.77 79.37 651.23 70.9 642.86 62.53 647.04 58.34 655.41 66.72 659.7 71"/><polygon class="cls-13" points="676.79 71 672.6 75.19 664.13 83.65 659.86 79.37 668.32 70.9 659.95 62.53 664.13 58.34 672.5 66.72 676.79 71"/><polygon class="cls-13" points="693.88 71 689.69 75.19 681.22 83.65 676.95 79.37 685.41 70.9 677.04 62.53 681.22 58.34 689.59 66.72 693.88 71"/><polygon class="cls-13" points="710.97 71 706.78 75.19 698.31 83.65 694.04 79.37 702.5 70.9 694.13 62.53 698.31 58.34 706.68 66.72 710.97 71"/><polygon class="cls-13" points="728.06 71 723.87 75.19 715.4 83.65 711.13 79.37 719.59 70.9 711.22 62.53 715.4 58.34 723.77 66.72 728.06 71"/><polygon class="cls-13" points="745.15 71 740.96 75.19 732.5 83.65 728.22 79.37 736.68 70.9 728.31 62.53 732.5 58.34 740.87 66.72 745.15 71"/><polygon class="cls-13" points="762.24 71 758.05 75.19 749.59 83.65 745.31 79.37 753.77 70.9 745.4 62.53 749.59 58.34 757.96 66.72 762.24 71"/><polygon class="cls-13" points="779.33 71 775.14 75.19 766.68 83.65 762.4 79.37 770.87 70.9 762.49 62.53 766.68 58.34 775.05 66.72 779.33 71"/></g><g id="forditott"><g id="contr"><rect class="cls-14" x="1045.23" y="181.45" width="248.15" height="586.67" rx="26.27"/><path class="cls-15" d="M1224.64,317.72l-39.48-10.53L1128,291.94a7.49,7.49,0,0,0-9.16,5.3,7.86,7.86,0,0,0-.25,1.93v51.56a7.48,7.48,0,0,0,7.49,7.47A7.33,7.33,0,0,0,1128,358l57.15-15.28,39.48-10.53a7.48,7.48,0,0,0,0-14.42Zm-45,8.93c-.06.16-.11.34-.19.51l-.23.48a4.25,4.25,0,0,1-.27.46,5.84,5.84,0,0,1-.68.81h0l-10.82,10.81a5.53,5.53,0,1,1-7.82-7.83h0l1.37-1.37h-28.21a5.54,5.54,0,0,1,0-11.07H1161l-1.48-1.48a5.53,5.53,0,0,1,7.82-7.82l10.93,10.93a5.3,5.3,0,0,1,.71.87,5.18,5.18,0,0,1,.48.9c.06.15.11.28.16.43v.07a2.51,2.51,0,0,0,.14.52,4.44,4.44,0,0,1,.08.56c0,.2,0,.45,0,.67v.33a4.91,4.91,0,0,1-.08.67,1.61,1.61,0,0,1-.08.57Z"/><path class="cls-4" d="M1179.82,326.11a4.91,4.91,0,0,0,.08-.67A4.91,4.91,0,0,1,1179.82,326.11Z"/><path class="cls-4" d="M1179.9,325.44v-.33A1.22,1.22,0,0,1,1179.9,325.44Z"/><path class="cls-4" d="M1179.93,325v-.56A5.23,5.23,0,0,1,1179.93,325Z"/><path class="cls-4" d="M1179,322a5.3,5.3,0,0,0-.71-.87A5.3,5.3,0,0,1,1179,322Z"/><path class="cls-15" d="M1224.64,539.74l-39.48-10.53L1128,514a7.49,7.49,0,0,0-9.16,5.32,7.7,7.7,0,0,0-.25,1.91v51.56a7.48,7.48,0,0,0,7.49,7.47A7.33,7.33,0,0,0,1128,580l57.15-15.24,39.48-10.54a7.48,7.48,0,0,0,0-14.45Zm-45,8.93a5.27,5.27,0,0,1-.19.51c-.07.16-.15.32-.23.48a4.25,4.25,0,0,1-.27.46,5.84,5.84,0,0,1-.68.81h0l-10.82,10.82a5.53,5.53,0,1,1-7.82-7.83h0l1.37-1.38h-28.21a5.53,5.53,0,0,1,0-11.06H1161l-1.48-1.49a5.53,5.53,0,0,1,7.82-7.82l10.93,10.93a5,5,0,0,1,.71.88,5.1,5.1,0,0,1,.48.89c.06.15.11.29.16.43v.07a2.51,2.51,0,0,0,.14.52,4.44,4.44,0,0,1,.08.56c0,.2,0,.45,0,.67v.33a5.05,5.05,0,0,1-.08.68,1.39,1.39,0,0,1-.08.54Z"/><path class="cls-4" d="M1179.82,548.14a5.05,5.05,0,0,0,.08-.68A5.05,5.05,0,0,1,1179.82,548.14Z"/><path class="cls-4" d="M1179.9,547.46v-.33A1.22,1.22,0,0,1,1179.9,547.46Z"/><path class="cls-4" d="M1179.93,547v-.56A5.23,5.23,0,0,1,1179.93,547Z"/><path class="cls-4" d="M1179,544a5,5,0,0,0-.71-.88A5,5,0,0,1,1179,544Z"/><path class="cls-15" d="M1224.64,428.73l-39.48-10.53L1128,403a7.49,7.49,0,0,0-9.16,5.3,7.86,7.86,0,0,0-.25,1.93v51.56a7.48,7.48,0,0,0,7.49,7.47A7.33,7.33,0,0,0,1128,469l57.15-15.29,39.48-10.53a7.48,7.48,0,0,0,0-14.41Zm-45,8.93a5.27,5.27,0,0,1-.19.51c-.07.16-.15.32-.23.48a4.25,4.25,0,0,1-.27.46,5.84,5.84,0,0,1-.68.81h0l-10.82,10.82a5.53,5.53,0,1,1-7.82-7.83h0l1.37-1.38h-28.21a5.53,5.53,0,0,1,0-11.06H1161l-1.48-1.49a5.53,5.53,0,0,1,7.82-7.82l10.93,10.93a5,5,0,0,1,.71.88,5.1,5.1,0,0,1,.48.89c.06.15.11.29.16.43v.07a2.51,2.51,0,0,0,.14.52,4.44,4.44,0,0,1,.08.56c0,.2,0,.45,0,.67v.33a4.91,4.91,0,0,1-.08.67,1.52,1.52,0,0,1-.08.56Z"/><path class="cls-4" d="M1179.82,437.12a4.91,4.91,0,0,0,.08-.67A4.91,4.91,0,0,1,1179.82,437.12Z"/><path class="cls-4" d="M1179.9,436.45v-.33A1.22,1.22,0,0,1,1179.9,436.45Z"/><path class="cls-4" d="M1179.93,436v-.56A5.23,5.23,0,0,1,1179.93,436Z"/><path class="cls-4" d="M1179,433a5,5,0,0,0-.71-.88A5,5,0,0,1,1179,433Z"/><line class="cls-15" x1="1058.14" y1="435.96" x2="1118.6" y2="435.96"/><path class="cls-15" d="M1076.55,436.45V658.61a16.7,16.7,0,0,0,16.7,16.7h156.6a16.68,16.68,0,0,0,16.7-16.68V436.45"/><path class="cls-15" d="M1230.19,435.45H1274"/><path class="cls-15" d="M1115.73,325.78h-4.34a8,8,0,0,0-8,8V539a8,8,0,0,0,8,8h4.34"/><path class="cls-15" d="M1234.07,325.61h4.34a8,8,0,0,1,8,7.95V538.84a8,8,0,0,1-8,8h-4.34"/><line class="cls-15" x1="1076.59" y1="419.43" x2="1076.59" y2="429.27"/><line class="cls-15" x1="1071.67" y1="424.35" x2="1081.51" y2="424.35"/><line class="cls-15" x1="1084.78" y1="446.65" x2="1094.62" y2="446.65"/></g><g id="plan"><rect class="cls-14" x="723.18" y="181.45" width="248.15" height="586.67" rx="26.27"/><line class="cls-15" x1="767.55" y1="282.54" x2="767.55" y2="691.45"/><line class="cls-15" x1="927.55" y1="282.54" x2="927.55" y2="691.45"/><line class="cls-15" x1="847.55" y1="282.54" x2="847.55" y2="294.54"/><line class="cls-16" x1="847.55" y1="317.18" x2="847.55" y2="668.13"/><line class="cls-15" x1="847.55" y1="679.45" x2="847.55" y2="691.45"/><rect class="cls-17" x="876.14" y="573.24" width="29.04" height="48.96" rx="9.92"/><rect class="cls-17" x="876.14" y="348.76" width="29.04" height="48.96" rx="9.92"/><rect class="cls-17" x="793.03" y="593.11" width="29.04" height="48.96" rx="9.92"/><polyline class="cls-17" points="807.56 665.51 807.56 686.34 801.54 680.31"/><polyline class="cls-17" points="807.56 686.34 807.56 686.34 813.56 680.33"/><line class="cls-17" x1="807.56" y1="651.73" x2="807.56" y2="686.34"/><polyline class="cls-17" points="890.65 325.61 890.65 304.78 896.68 310.81"/><polyline class="cls-17" points="890.65 304.78 890.65 304.78 884.65 310.78"/><line class="cls-17" x1="890.65" y1="339.39" x2="890.65" y2="304.78"/><polyline class="cls-17" points="887.61 511.75 887.61 490.92 893.64 496.95"/><polyline class="cls-17" points="887.61 490.92 887.61 490.92 881.61 496.92"/><line class="cls-17" x1="887.61" y1="548.78" x2="887.61" y2="490.92"/><path class="cls-18" d="M887.62,565.23v-.56c0-27.46-5-25-14-34l-46.42-46.38c-9-9-17.82-20.84-21.15-41V347.13"/><polyline class="cls-15" points="795.11 359 806.33 347.78 817.61 359.06"/></g><g id="eszl"><rect class="cls-14" x="401.12" y="181.45" width="248.15" height="586.67" rx="26.27"/><line class="cls-15" x1="443.22" y1="286.91" x2="443.22" y2="508"/><line class="cls-15" x1="603.22" y1="286.91" x2="603.22" y2="508"/><line class="cls-15" x1="523.22" y1="286.91" x2="523.22" y2="298.91"/><line class="cls-19" x1="523.22" y1="320.81" x2="523.22" y2="485.05"/><line class="cls-15" x1="523.22" y1="496" x2="523.22" y2="508"/><path class="cls-15" d="M551.75,660.76a47.88,47.88,0,1,0-57.06,0"/><rect class="cls-15" x="488.55" y="660.76" width="70.22" height="13.34" rx="4.62"/><rect class="cls-15" x="476.66" y="674.64" width="93.11" height="13.34" rx="4.62"/><path class="cls-17" d="M498.31,586.43h1.49a12,12,0,0,0,12.13,11.87h0v1.45a12,12,0,0,0-11.86,12.14h-1.53a12,12,0,0,0-12.1-11.9h0v-1.46A12,12,0,0,0,498.31,586.43Z"/><path class="cls-17" d="M532.41,632h1.14a9.46,9.46,0,0,0,9.56,9.35v1.14a9.46,9.46,0,0,0-9.35,9.56h-1.17a9.46,9.46,0,0,0-9.55-9.37h0v-1.15A9.46,9.46,0,0,0,532.41,632Z"/><line class="cls-17" x1="499.2" y1="635.67" x2="499.59" y2="635.67"/><line class="cls-17" x1="518.81" y1="619.08" x2="518.76" y2="619.08"/><line class="cls-17" x1="538.33" y1="602.04" x2="538.27" y2="602.04"/><line class="cls-17" x1="534.92" y1="609.37" x2="534.86" y2="609.37"/><line class="cls-17" x1="537.88" y1="594.48" x2="537.83" y2="594.48"/><rect class="cls-17" x="551.81" y="454.25" width="29.04" height="48.96" rx="9.92"/><rect class="cls-17" x="551.81" y="353.13" width="29.04" height="48.96" rx="9.92"/><rect class="cls-17" x="468.7" y="308.86" width="29.04" height="48.96" rx="9.92"/><polyline class="cls-17" points="483.23 381.26 483.23 402.09 477.2 396.06"/><polyline class="cls-17" points="483.23 402.09 483.23 402.09 489.23 396.09"/><line class="cls-17" x1="483.23" y1="367.48" x2="483.23" y2="402.09"/><polyline class="cls-17" points="566.31 329.98 566.31 309.15 572.34 315.18"/><polyline class="cls-17" points="566.31 309.15 566.31 309.15 560.31 315.15"/><line class="cls-17" x1="566.31" y1="343.75" x2="566.31" y2="309.15"/><polyline class="cls-17" points="566.3 440.48 566.3 419.65 572.33 425.68"/><polyline class="cls-17" points="566.3 419.65 566.3 419.65 560.3 425.65"/><line class="cls-17" x1="566.3" y1="445.37" x2="566.3" y2="419.65"/></g></g><g id="szöveg_ang"><path class="cls-20" d="M129.94,238.2c-3.91,0-6.88-.84-9.41-3.41l3.26-3.25a8.42,8.42,0,0,0,6.22,2.17c3,0,4.56-1.12,4.56-3.19a2.87,2.87,0,0,0-.8-2.17,3.82,3.82,0,0,0-2.28-.9l-3.11-.44a8.7,8.7,0,0,1-5-2.13,6.8,6.8,0,0,1-1.85-5.07c0-4.6,3.4-7.82,9-7.82,3.54,0,6.11.87,8.32,3l-3.18,3.15a7.21,7.21,0,0,0-5.29-1.78c-2.68,0-4,1.49-4,3.26a2.51,2.51,0,0,0,.76,1.85,4.48,4.48,0,0,0,2.39,1l3,.43a8.59,8.59,0,0,1,4.92,2,7.21,7.21,0,0,1,2,5.47C139.49,235.37,135.33,238.2,129.94,238.2Z"/><path class="cls-20" d="M144.23,238V212.21h17v4.49h-12v6h10.17v4.49H149.26v6.26h12v4.49Z"/><path class="cls-20" d="M181.36,238l-10.2-15.82V238h-5V212.21h4.48L180.85,228V212.21h5V238Z"/><path class="cls-20" d="M199,238.2c-3.91,0-6.88-.84-9.41-3.41l3.26-3.25a8.42,8.42,0,0,0,6.22,2.17c3,0,4.56-1.12,4.56-3.19a2.9,2.9,0,0,0-.79-2.17,3.88,3.88,0,0,0-2.28-.9L197.4,227a8.77,8.77,0,0,1-5-2.13,6.8,6.8,0,0,1-1.85-5.07c0-4.6,3.41-7.82,9-7.82,3.55,0,6.12.87,8.33,3l-3.19,3.15a7.19,7.19,0,0,0-5.28-1.78c-2.68,0-4,1.49-4,3.26a2.51,2.51,0,0,0,.76,1.85,4.48,4.48,0,0,0,2.39,1l3,.43a8.62,8.62,0,0,1,4.93,2,7.26,7.26,0,0,1,2,5.47C208.51,235.37,204.34,238.2,199,238.2Z"/><path class="cls-20" d="M213.24,238V212.21h5V238Z"/><path class="cls-20" d="M239.52,238l-10.21-15.82V238h-5V212.21h4.43L239,228V212.21h5V238Z"/><path class="cls-20" d="M265.9,235.27a9.67,9.67,0,0,1-7.27,2.93,9.41,9.41,0,0,1-6.95-2.83,7.46,7.46,0,0,1-2.1-3.87,47.92,47.92,0,0,1,0-12.81,7.35,7.35,0,0,1,2.1-3.87,9.45,9.45,0,0,1,6.95-2.83c5.86,0,9,3.77,9.7,8.25h-5.07c-.61-2.49-2.13-3.76-4.63-3.76a4.07,4.07,0,0,0-3.22,1.38c-.94,1.19-1.23,2.13-1.23,7.24s.21,6.08,1.23,7.27a4,4,0,0,0,3.22,1.34,4.63,4.63,0,0,0,3.58-1.45,5.06,5.06,0,0,0,1.16-3.44v-1h-4.74v-4.2h9.73v3.76C268.36,231.18,267.68,233.38,265.9,235.27Z"/><path class="cls-20" d="M423.51,228.28h-5V238h-5V212.21h10c5.32,0,8.51,3.66,8.51,8S428.83,228.28,423.51,228.28Zm-.25-11.58h-4.71v7.06h4.71a3.54,3.54,0,1,0,.53-7.06Z"/><path class="cls-20" d="M436.25,238V212.21h17v4.49h-12v6h10.17v4.49H441.28v6.26h11.94v4.49Z"/><path class="cls-20" d="M471.83,238l-5-10.28h-3.61V238h-5V212.21h10.1c5.25,0,8.36,3.58,8.36,7.89a6.94,6.94,0,0,1-4.7,6.77L477.73,238Zm-3.91-21.28h-4.74v6.8h4.74a3.41,3.41,0,0,0,.52-6.8Z"/><path class="cls-20" d="M490.43,238.2a9.41,9.41,0,0,1-6.95-2.83,7.39,7.39,0,0,1-2.1-3.87,46.84,46.84,0,0,1,0-12.81,7.25,7.25,0,0,1,2.1-3.87,9.45,9.45,0,0,1,6.95-2.83c4.95,0,8.61,2.9,9.48,8.15h-5.1c-.55-2.21-1.92-3.66-4.35-3.66a4,4,0,0,0-3.22,1.34c-1.05,1.12-1.27,2.28-1.27,7.28s.22,6.15,1.27,7.27a4,4,0,0,0,3.22,1.34c2.43,0,3.8-1.45,4.35-3.66h5.1C499,235.3,495.35,238.2,490.43,238.2Z"/><path class="cls-20" d="M504.25,238V212.21h17v4.49h-12v6h10.17v4.49H509.28v6.26h11.94v4.49Z"/><path class="cls-20" d="M536.13,228.28h-5V238h-5V212.21h10c5.32,0,8.51,3.66,8.51,8S541.45,228.28,536.13,228.28Zm-.25-11.58h-4.7v7.06h4.7a3.54,3.54,0,1,0,.53-7.06Z"/><path class="cls-20" d="M558.74,216.7V238h-5V216.7H547v-4.49h18.5v4.49Z"/><path class="cls-20" d="M569.53,238V212.21h5V238Z"/><path class="cls-20" d="M596.17,235.37a10,10,0,0,1-13.93,0c-2.61-2.6-2.54-5.82-2.54-10.27s-.07-7.68,2.54-10.28a10,10,0,0,1,13.93,0c2.61,2.6,2.57,5.82,2.57,10.28S598.74,232.77,596.17,235.37Zm-3.73-17.48a4.15,4.15,0,0,0-3.22-1.38,4.26,4.26,0,0,0-3.25,1.38c-1,1.08-1.23,2.28-1.23,7.24s.25,6.15,1.23,7.23a4.22,4.22,0,0,0,3.25,1.38,4.15,4.15,0,0,0,3.22-1.38c1-1.08,1.27-2.28,1.27-7.23S593.42,218.94,592.44,217.89Z"/><path class="cls-20" d="M619.12,238l-10.21-15.82V238h-5V212.21h4.49L618.6,228V212.21h5V238Z"/><path class="cls-20" d="M766.21,228.28h-5V238h-5V212.21h10c5.32,0,8.51,3.66,8.51,8S771.53,228.28,766.21,228.28ZM766,216.7h-4.71v7.06H766a3.54,3.54,0,1,0,.53-7.06Z"/><path class="cls-20" d="M779,238V212.21h5v21.28h11.69V238Z"/><path class="cls-20" d="M814.42,238l-1.52-4.56h-9.16L802.18,238h-5.24l9.37-25.77h4L819.67,238Zm-6-18.17-3.26,9.37h6.41Z"/><path class="cls-20" d="M838.09,238l-10.21-15.82V238h-5V212.21h4.49L837.57,228V212.21h5V238Z"/><path class="cls-20" d="M863.82,238l-10.21-15.82V238h-5V212.21h4.49L863.3,228V212.21h5V238Z"/><path class="cls-20" d="M874.31,238V212.21h5V238Z"/><path class="cls-20" d="M900.58,238l-10.2-15.82V238h-5V212.21h4.49L900.07,228V212.21h5V238Z"/><path class="cls-20" d="M927,235.27a9.7,9.7,0,0,1-7.28,2.93,9.44,9.44,0,0,1-7-2.83,7.46,7.46,0,0,1-2.1-3.87,47.92,47.92,0,0,1,0-12.81,7.35,7.35,0,0,1,2.1-3.87,9.48,9.48,0,0,1,7-2.83c5.87,0,9,3.77,9.7,8.25h-5.06c-.62-2.49-2.14-3.76-4.64-3.76a4.07,4.07,0,0,0-3.22,1.38c-.94,1.19-1.23,2.13-1.23,7.24s.22,6.08,1.23,7.27a4,4,0,0,0,3.22,1.34,4.67,4.67,0,0,0,3.59-1.45,5.05,5.05,0,0,0,1.15-3.44v-1h-4.69v-4.2h9.74v3.76C929.43,231.18,928.74,233.38,927,235.27Z"/><path class="cls-20" d="M1098,238.2a9.39,9.39,0,0,1-7-2.83,7.46,7.46,0,0,1-2.1-3.87,47.92,47.92,0,0,1,0-12.81,7.35,7.35,0,0,1,2.1-3.87,9.43,9.43,0,0,1,7-2.83c5,0,8.61,2.9,9.48,8.15h-5.1c-.54-2.21-1.92-3.66-4.34-3.66a4,4,0,0,0-3.22,1.34c-1,1.12-1.27,2.28-1.27,7.28s.22,6.15,1.27,7.27a4,4,0,0,0,3.22,1.34c2.42,0,3.8-1.45,4.34-3.66h5.1C1106.63,235.3,1102.94,238.2,1098,238.2Z"/><path class="cls-20" d="M1126.28,235.37a9.28,9.28,0,0,1-6.94,2.83,9.39,9.39,0,0,1-7-2.83c-2.61-2.6-2.53-5.82-2.53-10.27s-.08-7.68,2.53-10.28a10,10,0,0,1,13.94,0c2.61,2.6,2.58,5.82,2.58,10.28S1128.89,232.77,1126.28,235.37Zm-3.72-17.48a4.49,4.49,0,0,0-6.48,0c-1,1.08-1.23,2.28-1.23,7.24s.25,6.15,1.23,7.23a4.49,4.49,0,0,0,6.48,0c1-1.08,1.26-2.28,1.26-7.23S1123.53,218.94,1122.56,217.89Z"/><path class="cls-20" d="M1149.23,238,1139,222.16V238h-5V212.21h4.49L1148.74,228V212.21h5V238Z"/><path class="cls-20" d="M1169.57,216.7V238h-5V216.7h-6.74v-4.49h18.5v4.49Z"/><path class="cls-20" d="M1194.07,238l-5-10.28h-3.62V238h-5V212.21h10.1c5.24,0,8.36,3.58,8.36,7.89a7,7,0,0,1-4.71,6.77L1200,238Zm-3.91-21.28h-4.74v6.8h4.74a3.41,3.41,0,1,0,.52-6.8Z"/><path class="cls-20" d="M1219.65,235.37a10,10,0,0,1-13.93,0c-2.61-2.6-2.53-5.82-2.53-10.27s-.08-7.68,2.53-10.28a10,10,0,0,1,13.93,0c2.61,2.6,2.57,5.82,2.57,10.28S1222.26,232.77,1219.65,235.37Zm-3.72-17.48a4.17,4.17,0,0,0-3.23-1.38,4.26,4.26,0,0,0-3.25,1.38c-1,1.08-1.23,2.28-1.23,7.24s.25,6.15,1.23,7.23a4.22,4.22,0,0,0,3.25,1.38,4.17,4.17,0,0,0,3.23-1.38c1-1.08,1.26-2.28,1.26-7.23S1216.9,218.94,1215.93,217.89Z"/><path class="cls-20" d="M1227.36,238V212.21h5v21.28h11.69V238Z"/><path class="cls-20" d="M1407.81,238l-1.52-4.56h-9.16l-1.56,4.56h-5.24l9.37-25.77h4l9.41,25.77Zm-6-18.17-3.26,9.37H1405Z"/><path class="cls-20" d="M1424.49,238.2a9.39,9.39,0,0,1-7-2.83,7.46,7.46,0,0,1-2.1-3.87,47.92,47.92,0,0,1,0-12.81,7.35,7.35,0,0,1,2.1-3.87,9.43,9.43,0,0,1,7-2.83c5,0,8.62,2.9,9.48,8.15h-5.1c-.54-2.21-1.92-3.66-4.34-3.66a4,4,0,0,0-3.22,1.34c-1,1.12-1.27,2.28-1.27,7.28s.22,6.15,1.27,7.27a4,4,0,0,0,3.22,1.34c2.42,0,3.8-1.45,4.34-3.66h5.1C1433.11,235.3,1429.41,238.2,1424.49,238.2Z"/><path class="cls-20" d="M1447.44,216.7V238h-5V216.7h-6.73v-4.49h18.5v4.49Z"/><path class="cls-20" d="M1467.34,238.2c-5.28,0-9.48-3.59-9.48-9V212.21h5V229c0,3,1.73,4.74,4.45,4.74s4.49-1.77,4.49-4.74V212.21h5v16.94C1476.82,234.61,1472.62,238.2,1467.34,238.2Z"/><path class="cls-20" d="M1497.09,238l-1.52-4.56h-9.16l-1.56,4.56h-5.24l9.37-25.77h4l9.41,25.77Zm-6-18.17-3.26,9.37h6.41Z"/><path class="cls-20" d="M1513.19,216.7V238h-5V216.7h-6.73v-4.49H1520v4.49Z"/><path class="cls-20" d="M1538.89,235.37a10,10,0,0,1-13.94,0c-2.6-2.6-2.53-5.82-2.53-10.27s-.07-7.68,2.53-10.28a10,10,0,0,1,13.94,0c2.6,2.6,2.57,5.82,2.57,10.28S1541.49,232.77,1538.89,235.37Zm-3.73-17.48a4.16,4.16,0,0,0-3.22-1.38,4.23,4.23,0,0,0-3.26,1.38c-1,1.08-1.23,2.28-1.23,7.24s.25,6.15,1.23,7.23a4.49,4.49,0,0,0,6.48,0c1-1.08,1.27-2.28,1.27-7.23S1536.14,218.94,1535.16,217.89Z"/><path class="cls-20" d="M1560.28,238l-5-10.28h-3.62V238h-5V212.21h10.08c5.25,0,8.36,3.58,8.36,7.89a7,7,0,0,1-4.7,6.77l5.75,11.11Zm-3.91-21.28h-4.75v6.8h4.75a3.41,3.41,0,1,0,.52-6.8Z"/><path class="cls-20" d="M1577.36,238.2c-3.91,0-6.88-.84-9.41-3.41l3.25-3.25a8.45,8.45,0,0,0,6.23,2.17c3,0,4.56-1.12,4.56-3.19a2.87,2.87,0,0,0-.8-2.17,3.82,3.82,0,0,0-2.28-.9l-3.11-.44a8.77,8.77,0,0,1-5-2.13,6.83,6.83,0,0,1-1.84-5.07c0-4.6,3.4-7.82,9-7.82,3.55,0,6.12.87,8.33,3l-3.19,3.15a7.14,7.14,0,0,0-5.28-1.78c-2.68,0-4,1.49-4,3.26a2.51,2.51,0,0,0,.76,1.85,4.48,4.48,0,0,0,2.39,1l3,.43a8.59,8.59,0,0,1,4.92,2,7.26,7.26,0,0,1,2,5.47C1586.91,235.37,1582.74,238.2,1577.36,238.2Z"/><path class="cls-20" d="M120.08,1118.53c-3.91,0-6.88-.83-9.41-3.4l3.25-3.26a8.45,8.45,0,0,0,6.23,2.17c3,0,4.56-1.12,4.56-3.18a2.88,2.88,0,0,0-.8-2.18,3.88,3.88,0,0,0-2.28-.9l-3.11-.43a8.71,8.71,0,0,1-5-2.14,6.8,6.8,0,0,1-1.85-5.07c0-4.59,3.4-7.81,9-7.81,3.54,0,6.11.86,8.32,3l-3.18,3.15a7.16,7.16,0,0,0-5.29-1.77c-2.68,0-4,1.48-4,3.25a2.51,2.51,0,0,0,.76,1.85,4.4,4.4,0,0,0,2.39,1l3,.44a8.43,8.43,0,0,1,4.92,2,7.19,7.19,0,0,1,2,5.46C129.63,1115.71,125.47,1118.53,120.08,1118.53Z"/><path class="cls-20" d="M133.94,1096.23v-3.83h4.8v3.83Zm.07,22.08v-18.85h4.73v18.85Z"/><path class="cls-20" d="M165.89,1118.31v-11.42c0-2.57-1.62-3.44-3.11-3.44a3,3,0,0,0-3.16,2.83,2.79,2.79,0,0,0,0,.5v11.51h-4.7v-11.4c0-2.57-1.63-3.44-3.11-3.44s-3.15.87-3.15,3.44v11.4H144v-18.83h4.6v1.73a6.63,6.63,0,0,1,4.7-2,5.88,5.88,0,0,1,5,2.39,7.17,7.17,0,0,1,5.64-2.39,6.58,6.58,0,0,1,4.64,1.65,7.1,7.1,0,0,1,2.06,5.36v12Z"/><path class="cls-20" d="M186.52,1118.31v-1.73a6.43,6.43,0,0,1-4.7,2,6.15,6.15,0,0,1-4.46-1.66,7,7,0,0,1-1.91-5.36v-12h4.7v11.38c0,2.57,1.63,3.44,3.11,3.44s3.15-.87,3.15-3.44v-11.4h4.71v18.85Z"/><path class="cls-20" d="M201.74,1118.31a5.11,5.11,0,0,1-5.49-4.72,5,5,0,0,1,0-.67v-20.38h4.7v20.09c0,1.12.47,1.7,1.67,1.7h1.81v4Z"/><path class="cls-20" d="M217.82,1118.31v-1.63a5.7,5.7,0,0,1-4.63,1.81,6.45,6.45,0,0,1-4.81-1.66,6,6,0,0,1-1.56-4.24c0-3,2.07-5.46,6.45-5.46h4.47v-.94c0-2.06-1-3-3.51-3a4,4,0,0,0-3.62,1.56l-3-2.93c1.85-2,3.66-2.61,6.81-2.61,5.28,0,8,2.24,8,6.66v12.41Zm-.1-8H214c-1.7,0-2.64.8-2.64,2.14s.87,2.17,2.71,2.17a3.73,3.73,0,0,0,3-.91,3,3,0,0,0,.69-2.39Z"/><path class="cls-20" d="M233.39,1118.31a5.11,5.11,0,0,1-5.46-4.73,4.85,4.85,0,0,1,0-.66v-9.34h-2V1100h2v-5.57h4.71V1100H236v3.58h-3.33v9c0,1.09.5,1.7,1.62,1.7H236v4Z"/><path class="cls-20" d="M240.15,1096.23v-3.83H245v3.83Zm.08,22.08v-18.85h4.7v18.85Z"/><path class="cls-20" d="M263.21,1116.21a7.81,7.81,0,0,1-5.87,2.32,7.7,7.7,0,0,1-5.82-2.32c-1.7-1.77-2.14-3.9-2.14-7.34s.44-5.54,2.14-7.31a7.66,7.66,0,0,1,5.82-2.32,7.81,7.81,0,0,1,5.87,2.32c1.7,1.77,2.13,3.9,2.13,7.31S264.91,1114.44,263.21,1116.21Zm-3.66-11.9a3,3,0,0,0-2.21-.84,2.88,2.88,0,0,0-2.17.84c-1,1-1.08,2.6-1.08,4.56s.11,3.62,1.08,4.59a2.84,2.84,0,0,0,2.17.84,3,3,0,0,0,2.21-.84c1-1,1.09-2.64,1.09-4.59S260.53,1105.28,259.55,1104.31Z"/><path class="cls-20" d="M280.79,1118.31v-11.42c0-2.57-1.62-3.44-3.11-3.44s-3.15.87-3.15,3.44v11.4h-4.7v-18.83h4.59v1.73a6.47,6.47,0,0,1,4.71-2,6.11,6.11,0,0,1,4.45,1.66,7,7,0,0,1,1.92,5.36v12Z"/><path class="cls-20" d="M481.18,1118.53c-3.91,0-6.88-.83-9.41-3.4l3.26-3.26a8.42,8.42,0,0,0,6.22,2.17c3,0,4.56-1.12,4.56-3.18a2.9,2.9,0,0,0-.79-2.18,4,4,0,0,0-2.28-.9l-3.12-.43a8.85,8.85,0,0,1-5-2.14,6.8,6.8,0,0,1-1.85-5.07c0-4.59,3.41-7.81,9-7.81,3.55,0,6.12.86,8.32,3l-3.18,3.15a7.14,7.14,0,0,0-5.28-1.77c-2.68,0-4,1.48-4,3.25a2.51,2.51,0,0,0,.76,1.85,4.4,4.4,0,0,0,2.39,1l3,.44a8.44,8.44,0,0,1,4.93,2,7.22,7.22,0,0,1,2,5.46C490.74,1115.71,486.57,1118.53,481.18,1118.53Z"/><path class="cls-20" d="M504.74,1118.31v-1.63a5.72,5.72,0,0,1-4.64,1.81,6.45,6.45,0,0,1-4.81-1.66,6.07,6.07,0,0,1-1.55-4.24c0-3,2.07-5.46,6.45-5.46h4.45v-.94c0-2.06-1-3-3.51-3a4,4,0,0,0-3.62,1.56l-3-2.93c1.85-2,3.66-2.61,6.81-2.61,5.28,0,8,2.24,8,6.66v12.41Zm-.11-8h-3.69c-1.7,0-2.64.8-2.64,2.14s.87,2.17,2.71,2.17a3.7,3.7,0,0,0,3-.91,3,3,0,0,0,.69-2.39Z"/><path class="cls-20" d="M519.74,1103.58v14.73H515v-14.73h-2V1100h2v-2.35a5.15,5.15,0,0,1,4.88-5.4,4.28,4.28,0,0,1,.62,0h2.68v4h-1.85c-1.12,0-1.63.62-1.63,1.71V1100h3.48v3.58Z"/><path class="cls-20" d="M529.93,1110.35a3.9,3.9,0,0,0,3.56,4.2h.56a5.18,5.18,0,0,0,4.27-1.78l2.86,2.79a9,9,0,0,1-7.16,3c-4.45,0-8.73-2-8.73-9.66,0-6.16,3.33-9.63,8.22-9.63,5.25,0,8.22,3.84,8.22,9v2.1Zm6.73-5.25a3.52,3.52,0,0,0-6.3,0,5.1,5.1,0,0,0-.43,2h7.16A5.1,5.1,0,0,0,536.66,1105.1Z"/><path class="cls-20" d="M552,1118.31a5.11,5.11,0,0,1-5.46-4.73,4.85,4.85,0,0,1,0-.66v-9.34h-2V1100h2v-5.57h4.71V1100h3.33v3.58h-3.33v9c0,1.09.5,1.7,1.63,1.7h1.7v4Z"/><path class="cls-20" d="M565.83,1121.35a6.6,6.6,0,0,1-1.41,2.43,5.47,5.47,0,0,1-4.06,1.45h-1.84V1121h1.08a2,2,0,0,0,2.33-1.6.3.3,0,0,0,0-.1l.8-2.32-6.44-17.51h5l3.91,11.65,3.76-11.65h5Z"/><path class="cls-20" d="M1116,1118.53c-5.28,0-9.48-3.58-9.48-9v-17h5v16.76c0,3,1.74,4.74,4.45,4.74s4.49-1.77,4.49-4.74v-16.76h5v16.94C1125.47,1115,1121.27,1118.53,1116,1118.53Z"/><path class="cls-20" d="M1131.08,1118.31v-25.77h5v25.77Z"/><path class="cls-20" d="M1151.93,1121h-4.42l10.31-31.1h4.42Z"/><path class="cls-20" d="M1187.25,1118.31v-10.78h-8.72v10.78h-5v-25.77h5v10.54h8.72v-10.54h5v25.77Z"/><path class="cls-20" d="M1216.6,1118.31v-15l-4.92,9.78h-3.41l-5-9.78v15h-5v-25.77h5l6.73,13.94,6.7-13.94h5v25.77Z"/><path class="cls-20" d="M1227.63,1118.31v-25.77h5v25.77Z"/><path class="cls-20" d="M1444.38,1115.6a9.66,9.66,0,0,1-7.28,2.93,9.43,9.43,0,0,1-6.94-2.82,7.38,7.38,0,0,1-2.1-3.88,46.58,46.58,0,0,1,0-12.81,7.29,7.29,0,0,1,2.1-3.87,9.43,9.43,0,0,1,6.94-2.82c5.87,0,9,3.76,9.7,8.25h-5.06c-.62-2.5-2.14-3.77-4.64-3.77a4.11,4.11,0,0,0-3.22,1.38c-.94,1.19-1.23,2.13-1.23,7.24s.22,6.08,1.23,7.27a4,4,0,0,0,3.22,1.34,4.67,4.67,0,0,0,3.59-1.45,5,5,0,0,0,1.16-3.43v-1h-4.75V1104h9.74v3.76C1446.84,1111.51,1446.15,1113.72,1444.38,1115.6Z"/><path class="cls-20" d="M1451.11,1096.23v-3.83h4.81v3.83Zm.07,22.08v-18.85h4.71v18.85Z"/><path class="cls-20" d="M1467,1118.31a5.11,5.11,0,0,1-5.46-4.74c0-.21,0-.43,0-.65v-9.34h-2V1100h2v-5.57h4.7V1100h3.33v3.58h-3.33v9c0,1.09.51,1.7,1.63,1.7h1.7v4Z"/><path class="cls-20" d="M1473.74,1124.28v-11.11h5.18v7.13Z"/><path class="cls-20" d="M1502.79,1118.31v-1.77a5.64,5.64,0,0,1-4.67,2,6.65,6.65,0,0,1-4.63-1.7c-1.89-1.88-1.92-5.14-1.92-8s0-6,1.92-7.93a6.53,6.53,0,0,1,4.59-1.7,5.68,5.68,0,0,1,4.6,1.88v-8.58h4.7v25.77Zm-3.33-14.84c-2.83,0-3.19,2.32-3.19,5.4s.36,5.43,3.19,5.43,3.22-2.36,3.22-5.43-.4-5.4-3.22-5.4Z"/><path class="cls-20" d="M1522.33,1118.31v-1.63a5.73,5.73,0,0,1-4.63,1.81,6.46,6.46,0,0,1-4.82-1.66,6.07,6.07,0,0,1-1.55-4.24c0-3,2.06-5.46,6.44-5.46h4.45v-.94c0-2.06-1-3-3.51-3a4,4,0,0,0-3.62,1.56l-3-2.93c1.84-2,3.65-2.61,6.8-2.61,5.29,0,8,2.24,8,6.66v12.41Zm-.11-8h-3.73c-1.7,0-2.64.8-2.64,2.14s.87,2.17,2.72,2.17a3.7,3.7,0,0,0,3-.91,3,3,0,0,0,.69-2.39Z"/><path class="cls-20" d="M1537.89,1118.31a5.1,5.1,0,0,1-5.45-4.72,5,5,0,0,1,0-.67v-9.34h-2V1100h2v-5.57h4.7V1100h3.33v3.58h-3.33v9c0,1.09.51,1.7,1.63,1.7h1.7v4Z"/><path class="cls-20" d="M1554.28,1118.31v-1.63a5.7,5.7,0,0,1-4.63,1.81,6.45,6.45,0,0,1-4.81-1.66,6,6,0,0,1-1.56-4.24c0-3,2.07-5.46,6.45-5.46h4.45v-.94c0-2.06-1-3-3.51-3a4,4,0,0,0-3.62,1.56l-3-2.93c1.85-2,3.66-2.61,6.81-2.61,5.28,0,8,2.24,8,6.66v12.41Zm-.1-8h-3.73c-1.7,0-2.64.8-2.64,2.14s.87,2.17,2.71,2.17a3.73,3.73,0,0,0,3-.91,3,3,0,0,0,.69-2.39Z"/><path class="cls-20" d="M99.12,739.65v-10h1.94v8.24h4.53v1.74Z"/><path class="cls-20" d="M107.17,739.65v-10h1.94v10Z"/><path class="cls-20" d="M117.67,738.69a3.66,3.66,0,0,1-2.63,1h-3.6v-10H115a3.66,3.66,0,0,1,2.63,1c1.12,1.12,1,2.49,1,4S118.79,737.57,117.67,738.69ZM116.31,732a1.74,1.74,0,0,0-1.46-.62h-1.47v6.48h1.47a1.74,1.74,0,0,0,1.46-.62c.36-.44.42-1.16.42-2.67S116.67,732.47,116.31,732Z"/><path class="cls-20" d="M126.19,739.65l-.58-1.77h-3.55l-.6,1.77h-2l3.63-10h1.52l3.65,10Zm-2.32-7-1.26,3.63h2.48Z"/><path class="cls-20" d="M134.74,739.65l-2-4h-1.4v4h-1.95v-10h3.91a3,3,0,0,1,3.23,2.75c0,.1,0,.21,0,.31a2.68,2.68,0,0,1-1.82,2.62l2.22,4.3Zm-1.51-8.24h-1.84V734h1.84a1.32,1.32,0,1,0,.23-2.63Z"/><path class="cls-20" d="M138.4,742v-4.3h2v2.76Z"/><path class="cls-20" d="M148.52,739.73c-1.45,0-3.26-.78-3.26-3.74s1.81-3.72,3.26-3.72a3.09,3.09,0,0,1,2.41,1l-1.19,1.21a1.48,1.48,0,0,0-1.18-.58,1.29,1.29,0,0,0-1,.48,2.47,2.47,0,0,0-.41,1.61,2.53,2.53,0,0,0,.41,1.63,1.25,1.25,0,0,0,1,.47,1.5,1.5,0,0,0,1.18-.57l1.23,1.22A3.11,3.11,0,0,1,148.52,739.73Z"/><path class="cls-20" d="M156,739.65V739a2.21,2.21,0,0,1-1.8.7,2.45,2.45,0,0,1-1.86-.65,2.36,2.36,0,0,1-.6-1.64c0-1.16.8-2.11,2.49-2.11H156V735c0-.79-.4-1.14-1.36-1.14a1.55,1.55,0,0,0-1.4.6l-1.17-1.14a3.1,3.1,0,0,1,2.64-1c2,0,3.11.86,3.11,2.57v4.81Zm0-3.09h-1.49c-.66,0-1,.31-1,.83s.34.84,1.05.84a1.42,1.42,0,0,0,1.15-.34A1.23,1.23,0,0,0,156,737Z"/><path class="cls-20" d="M168.25,739.65v-4.42a1.21,1.21,0,0,0-2.42,0h0v4.46H164v-4.42a1.22,1.22,0,0,0-2.43-.22.81.81,0,0,0,0,.22v4.42h-1.84v-7.3h1.78v.67a2.58,2.58,0,0,1,1.82-.75,2.27,2.27,0,0,1,1.94.92,2.77,2.77,0,0,1,2.18-.92,2.5,2.5,0,0,1,1.79.64,2.73,2.73,0,0,1,.8,2.07v4.67Z"/><path class="cls-20" d="M173.46,736.56a1.51,1.51,0,0,0,1.38,1.63h.21a2,2,0,0,0,1.66-.69l1.1,1.08a3.47,3.47,0,0,1-2.77,1.15c-1.72,0-3.38-.78-3.38-3.74,0-2.38,1.29-3.72,3.18-3.72a3.21,3.21,0,0,1,3.18,3.48v.81Zm2.6-2a1.37,1.37,0,0,0-1.84-.6,1.39,1.39,0,0,0-.6.6,2,2,0,0,0-.16.79h2.77a2.11,2.11,0,0,0-.17-.82Z"/><path class="cls-20" d="M183.66,734.34a1.2,1.2,0,0,0-1.7-.17,1.21,1.21,0,0,0-.44,1.08v4.4h-1.78v-7.3h1.78v.7a2.48,2.48,0,0,1,1.83-.78,2.24,2.24,0,0,1,1.73.68Z"/><path class="cls-20" d="M189.67,739.65V739a2.2,2.2,0,0,1-1.79.7,2.48,2.48,0,0,1-1.87-.65,2.36,2.36,0,0,1-.6-1.64c0-1.16.8-2.11,2.49-2.11h1.73V735c0-.79-.4-1.14-1.36-1.14a1.55,1.55,0,0,0-1.4.6l-1.13-1.14a3.1,3.1,0,0,1,2.64-1c2,0,3.11.86,3.11,2.57v4.81Zm0-3.09h-1.45c-.65,0-1,.31-1,.83s.34.84,1.05.84a1.42,1.42,0,0,0,1.15-.35,1.14,1.14,0,0,0,.27-.92Z"/><path class="cls-20" d="M193.33,742v-4.3h2v2.76Z"/><path class="cls-20" d="M204.52,734.34a1.2,1.2,0,0,0-1.7-.17,1.21,1.21,0,0,0-.44,1.08v4.4h-1.82v-7.3h1.78v.7a2.48,2.48,0,0,1,1.83-.78,2.17,2.17,0,0,1,1.72.68Z"/><path class="cls-20" d="M210.53,739.65V739a2.23,2.23,0,0,1-1.79.7,2.48,2.48,0,0,1-1.87-.65,2.36,2.36,0,0,1-.6-1.64c0-1.16.8-2.11,2.49-2.11h1.73V735c0-.79-.4-1.14-1.36-1.14a1.55,1.55,0,0,0-1.4.6l-1.17-1.14a3.1,3.1,0,0,1,2.64-1c2,0,3.11.86,3.11,2.57v4.81Zm0-3.09H209c-.66,0-1,.31-1,.83s.34.84,1.05.84a1.42,1.42,0,0,0,1.15-.35,1.14,1.14,0,0,0,.27-.92Z"/><path class="cls-20" d="M218.3,739.65V739a2.2,2.2,0,0,1-1.81.77,2.57,2.57,0,0,1-1.79-.66c-.73-.73-.74-2-.74-3.08s0-2.34.74-3.07a2.55,2.55,0,0,1,1.78-.65,2.22,2.22,0,0,1,1.78.72v-3.32h1.82v10ZM217,733.89c-1.09,0-1.23.9-1.23,2.09s.14,2.1,1.23,2.1,1.25-.91,1.25-2.1S218.1,733.89,217,733.89Z"/><path class="cls-20" d="M225.86,739.65V739a2.2,2.2,0,0,1-1.79.7,2.48,2.48,0,0,1-1.87-.65,2.36,2.36,0,0,1-.6-1.64c0-1.16.8-2.11,2.49-2.11h1.73V735c0-.79-.4-1.14-1.36-1.14a1.55,1.55,0,0,0-1.4.6l-1.17-1.14a3.1,3.1,0,0,1,2.64-1c2,0,3.11.86,3.11,2.57v4.81Zm0-3.09h-1.45c-.66,0-1,.31-1,.83s.34.84,1,.84a1.42,1.42,0,0,0,1.15-.35,1.14,1.14,0,0,0,.27-.92Z"/><path class="cls-20" d="M233.56,734.34a1.21,1.21,0,0,0-1.72-.15,1.23,1.23,0,0,0-.43,1.06v4.4h-1.82v-7.3h1.78v.7a2.46,2.46,0,0,1,1.84-.78,2.17,2.17,0,0,1,1.72.68Z"/><path class="cls-20" d="M235.05,742v-4.3h2v2.76Z"/><path class="cls-20" d="M242.42,739.65v-10h1.94v10Z"/><path class="cls-20" d="M253.74,739.65v-5.82l-1.91,3.79h-1.32l-1.92-3.79v5.82h-1.85v-10h1.92l2.6,5.4,2.59-5.4h1.89v10Z"/><path class="cls-20" d="M261.56,739.73a3.47,3.47,0,0,1-3.66-3.26,1.93,1.93,0,0,1,0-.24v-6.56h1.94v6.49a1.73,1.73,0,0,0,3.46,0h0v-6.49h1.94v6.56a3.47,3.47,0,0,1-3.43,3.51Z"/><path class="cls-20" d="M267.18,742v-4.3h2v2.76Z"/><path class="cls-20" d="M280.74,738.6a3.73,3.73,0,0,1-2.82,1.13,3.67,3.67,0,0,1-2.69-1.09,3,3,0,0,1-.81-1.5,18.2,18.2,0,0,1,0-5,2.91,2.91,0,0,1,.81-1.5,3.67,3.67,0,0,1,2.69-1.09,3.57,3.57,0,0,1,3.75,3.19h-2a1.68,1.68,0,0,0-1.79-1.45,1.61,1.61,0,0,0-1.25.53c-.36.46-.47.82-.47,2.8s.08,2.35.47,2.82a1.56,1.56,0,0,0,1.25.51,1.78,1.78,0,0,0,1.39-.56,2,2,0,0,0,.45-1.33v-.38h-1.84v-1.62h3.77v1.46A4,4,0,0,1,280.74,738.6Z"/><path class="cls-20" d="M287.33,735.89h-1.92v3.76h-2v-10h3.87a3.11,3.11,0,1,1,0,6.22h0Zm-.1-4.48h-1.82v2.73h1.82a1.37,1.37,0,1,0,.23-2.73Z"/><path class="cls-20" d="M295,739.73a4.65,4.65,0,0,1-3.64-1.32l1.26-1.26A3.25,3.25,0,0,0,295,738c1.15,0,1.76-.43,1.76-1.23a1.13,1.13,0,0,0-.3-.84,1.52,1.52,0,0,0-.89-.35l-1.2-.17a3.32,3.32,0,0,1-1.93-.82,2.64,2.64,0,0,1-.72-2c0-1.77,1.32-3,3.48-3a4.35,4.35,0,0,1,3.22,1.16L297.21,732a2.81,2.81,0,0,0-2-.69c-1,0-1.54.58-1.54,1.27a1,1,0,0,0,.29.71,1.68,1.68,0,0,0,.93.39l1.17.17a3.36,3.36,0,0,1,1.91.77,2.83,2.83,0,0,1,.77,2.12C298.74,738.64,297.09,739.73,295,739.73Z"/><path class="cls-20" d="M436.18,739.65v-5.82l-1.91,3.78H433L431,733.83v5.82h-2v-10H431l2.6,5.4,2.59-5.4h1.92v10Z"/><path class="cls-20" d="M444,739.65V739a2.2,2.2,0,0,1-1.79.7,2.45,2.45,0,0,1-1.86-.65,2.29,2.29,0,0,1-.61-1.64c0-1.16.8-2.11,2.5-2.11H444V735c0-.8-.39-1.14-1.36-1.14a1.55,1.55,0,0,0-1.4.6l-1.16-1.14a3.07,3.07,0,0,1,2.63-1c2,0,3.11.87,3.11,2.58v4.81Zm0-3.09H442.6c-.66,0-1,.31-1,.83s.33.84,1,.84a1.43,1.43,0,0,0,1.09-.34A1.22,1.22,0,0,0,444,737Z"/><path class="cls-20" d="M453.14,739.07a2.48,2.48,0,0,1-1.78.66,2.17,2.17,0,0,1-1.76-.73v3.32h-1.86v-10h1.76V733a2.22,2.22,0,0,1,1.82-.77,2.54,2.54,0,0,1,1.78.66c.73.73.75,2,.75,3.07S453.87,738.34,453.14,739.07Zm-2.31-5.18c-1.09,0-1.23.9-1.23,2.09s.14,2.1,1.23,2.1,1.24-.91,1.24-2.1S451.93,733.89,450.83,733.89Z"/><path class="cls-20" d="M461,739.07a2.48,2.48,0,0,1-1.78.66,2.17,2.17,0,0,1-1.76-.73v3.32h-1.82v-10h1.76V733a2.22,2.22,0,0,1,1.82-.77,2.54,2.54,0,0,1,1.78.66c.73.73.75,2,.75,3.07S461.74,738.34,461,739.07Zm-2.31-5.18c-1.09,0-1.23.9-1.23,2.09s.14,2.1,1.23,2.1,1.24-.91,1.24-2.1S459.74,733.89,458.67,733.89Z"/><path class="cls-20" d="M463.43,731.1v-1.48h1.86v1.48Zm0,8.55v-7.3h1.82v7.3Z"/><path class="cls-20" d="M471.55,739.65v-4.42a1.22,1.22,0,0,0-2.42-.31,1.61,1.61,0,0,0,0,.31v4.42h-1.82v-7.3h1.78V733a2.55,2.55,0,0,1,1.82-.76,2.33,2.33,0,0,1,1.72.65,2.69,2.69,0,0,1,.74,2.07v4.67Z"/><path class="cls-20" d="M477.85,742.41a3.4,3.4,0,0,1-2.65-1l1.14-1.15a1.79,1.79,0,0,0,1.4.63,1.38,1.38,0,0,0,1.47-1.28.89.89,0,0,0,0-.23v-.74a2.14,2.14,0,0,1-1.74.73,2.37,2.37,0,0,1-1.73-.65c-.69-.68-.75-1.62-.75-2.9s.06-2.19.75-2.88a2.44,2.44,0,0,1,1.75-.65,2.17,2.17,0,0,1,1.78.77v-.68H481v7a3,3,0,0,1-3,3Zm.18-8.51c-1.07,0-1.19.93-1.19,1.89s.12,1.91,1.19,1.91,1.21-.94,1.21-1.91-.13-1.9-1.21-1.9Z"/><path class="cls-20" d="M483,742v-4.3h2v2.76Z"/><path class="cls-20" d="M494.29,739.65V739a2.2,2.2,0,0,1-1.81.77,2.57,2.57,0,0,1-1.79-.66c-.73-.73-.74-2-.74-3.08s0-2.34.74-3.07a2.54,2.54,0,0,1,1.78-.66,2.23,2.23,0,0,1,1.78.73v-3.32h1.82v10ZM493,733.89c-1.09,0-1.23.9-1.23,2.09s.14,2.1,1.23,2.1,1.25-.91,1.25-2.1S494.09,733.89,493,733.89Z"/><path class="cls-20" d="M499.54,736.56a1.51,1.51,0,0,0,1.38,1.63h.21a2,2,0,0,0,1.66-.69l1.1,1.08a3.47,3.47,0,0,1-2.77,1.15c-1.72,0-3.38-.78-3.38-3.74,0-2.38,1.29-3.73,3.18-3.73a3.22,3.22,0,0,1,3.18,3.49v.81Zm2.6-2a1.36,1.36,0,0,0-1.83-.6,1.34,1.34,0,0,0-.6.6,2,2,0,0,0-.17.79h2.77a2.11,2.11,0,0,0-.17-.82Z"/><path class="cls-20" d="M508.06,739.65a2,2,0,0,1-2.11-1.88v-3.83h-.77v-1.38H506V730.4h1.79v2.16H509v1.38h-1.29v3.51a.57.57,0,0,0,.48.65H509v1.55Z"/><path class="cls-20" d="M512.09,736.56a1.51,1.51,0,0,0,1.38,1.63h.22a2,2,0,0,0,1.65-.69l1.11,1.08a3.47,3.47,0,0,1-2.77,1.15c-1.73,0-3.38-.78-3.38-3.74,0-2.38,1.29-3.73,3.18-3.73a3.22,3.22,0,0,1,3.18,3.49v.81Zm2.61-2a1.37,1.37,0,0,0-1.84-.6,1.39,1.39,0,0,0-.6.6,2.38,2.38,0,0,0-.17.79h2.78a2.27,2.27,0,0,0-.13-.82Z"/><path class="cls-20" d="M521.24,739.73c-1.46,0-3.27-.78-3.27-3.74s1.81-3.73,3.27-3.73a3.14,3.14,0,0,1,2.41,1l-1.24,1.24a1.46,1.46,0,0,0-1.17-.58,1.29,1.29,0,0,0-1,.48,3.37,3.37,0,0,0,0,3.23,1.23,1.23,0,0,0,1,.48,1.48,1.48,0,0,0,1.17-.57l1.24,1.22A3.11,3.11,0,0,1,521.24,739.73Z"/><path class="cls-20" d="M527.34,739.65a2,2,0,0,1-2.11-1.88v-3.83h-.77v-1.38h.77V730.4h1.82v2.16h1.29v1.38h-1.29v3.51c0,.42.19.65.63.65h.66v1.55Z"/><path class="cls-20" d="M530,731.1v-1.48h1.86v1.48Zm0,8.55v-7.3h1.82v7.3Z"/><path class="cls-20" d="M538.88,738.83a3.3,3.3,0,0,1-4.53,0,5.32,5.32,0,0,1,0-5.67,3.3,3.3,0,0,1,4.53,0A5.32,5.32,0,0,1,538.88,738.83Zm-1.42-4.61a1.16,1.16,0,0,0-.85-.32,1.1,1.1,0,0,0-.84.32,4,4,0,0,0,0,3.55,1.1,1.1,0,0,0,.84.32,1.12,1.12,0,0,0,.85-.32,4,4,0,0,0,0-3.55Z"/><path class="cls-20" d="M545.68,739.65v-4.42a1.22,1.22,0,0,0-2.42-.31,1.61,1.61,0,0,0,0,.31v4.42h-1.82v-7.3h1.78V733a2.55,2.55,0,0,1,1.82-.76,2.37,2.37,0,0,1,1.7.63,2.69,2.69,0,0,1,.74,2.07v4.67Z"/><path class="cls-20" d="M549.39,742v-4.3h2v2.76Z"/><path class="cls-20" d="M562,739.07a2.54,2.54,0,0,1-1.78.66,2.11,2.11,0,0,1-1.76-.73v3.32h-1.83v-10h1.77V733a2.22,2.22,0,0,1,1.82-.77,2.59,2.59,0,0,1,1.78.66c.73.73.74,2,.74,3.07S562.74,738.34,562,739.07Zm-2.31-5.18c-1.1,0-1.23.9-1.23,2.09s.13,2.1,1.23,2.1,1.23-.91,1.23-2.1S560.74,733.89,559.67,733.89Z"/><path class="cls-20" d="M568.42,734.34a1.23,1.23,0,0,0-1-.44,1.21,1.21,0,0,0-1.18,1.24s0,.07,0,.11v4.4h-1.83v-7.3h1.78v.7a2.47,2.47,0,0,1,1.84-.79,2.21,2.21,0,0,1,1.72.69Z"/><path class="cls-20" d="M571.82,736.56a1.51,1.51,0,0,0,1.38,1.63h.22a2,2,0,0,0,1.65-.69l1.1,1.08a3.47,3.47,0,0,1-2.77,1.15c-1.72,0-3.37-.78-3.37-3.74,0-2.38,1.28-3.73,3.17-3.73a3.22,3.22,0,0,1,3.18,3.49v.81Zm2.6-2a1.36,1.36,0,0,0-1.83-.6,1.34,1.34,0,0,0-.6.6,2,2,0,0,0-.17.79h2.77a1.8,1.8,0,0,0-.17-.82Z"/><path class="cls-20" d="M582.1,739.65V739a2.2,2.2,0,0,1-1.81.77,2.52,2.52,0,0,1-1.79-.66c-.73-.73-.75-2-.75-3.08s0-2.34.75-3.07a2.54,2.54,0,0,1,1.78-.66,2.19,2.19,0,0,1,1.77.73v-3.32h1.82v10Zm-1.29-5.76c-1.1,0-1.24.9-1.24,2.09s.14,2.1,1.24,2.1,1.24-.91,1.24-2.1S581.9,733.89,580.81,733.89Z"/><path class="cls-20" d="M585.89,731.1v-1.48h1.85v1.48Zm0,8.55v-7.3h1.85v7.3Z"/><path class="cls-20" d="M592.66,739.73c-1.45,0-3.26-.78-3.26-3.74s1.81-3.73,3.26-3.73a3.14,3.14,0,0,1,2.41,1l-1.23,1.24a1.48,1.48,0,0,0-1.18-.58,1.29,1.29,0,0,0-1,.48,3.37,3.37,0,0,0,0,3.23,1.23,1.23,0,0,0,1,.48,1.5,1.5,0,0,0,1.18-.57l1.23,1.22A3.11,3.11,0,0,1,592.66,739.73Z"/><path class="cls-20" d="M598.74,739.65a2,2,0,0,1-2.12-1.87v-3.84h-.77v-1.38h.77V730.4h1.82v2.16h1.3v1.38h-1.29v3.51a.57.57,0,0,0,.48.65h.81v1.55Z"/><path class="cls-20" d="M601.39,731.1v-1.48h1.86v1.48Zm0,8.55v-7.3h1.82v7.3Z"/><path class="cls-20" d="M610.31,738.83a3.3,3.3,0,0,1-4.53,0,5.24,5.24,0,0,1,0-5.67,3.3,3.3,0,0,1,4.53,0A5.32,5.32,0,0,1,610.31,738.83Zm-1.42-4.61a1.16,1.16,0,0,0-.85-.32,1.1,1.1,0,0,0-.84.32,4,4,0,0,0,0,3.55,1.1,1.1,0,0,0,.84.32,1.12,1.12,0,0,0,.85-.32,4,4,0,0,0,0-3.55Z"/><path class="cls-20" d="M617.11,739.65v-4.42a1.22,1.22,0,0,0-2.42-.31,1.61,1.61,0,0,0,0,.31v4.42h-1.83v-7.3h1.78V733a2.55,2.55,0,0,1,1.82-.76,2.4,2.4,0,0,1,1.73.65,2.69,2.69,0,0,1,.74,2.07v4.67Z"/><path class="cls-20" d="M804.29,738.6a3.73,3.73,0,0,1-2.82,1.13,3.67,3.67,0,0,1-2.69-1.09,3,3,0,0,1-.81-1.5,18.2,18.2,0,0,1,0-5,2.91,2.91,0,0,1,.81-1.5,3.67,3.67,0,0,1,2.69-1.09,3.57,3.57,0,0,1,3.75,3.19h-2a1.68,1.68,0,0,0-1.79-1.45,1.61,1.61,0,0,0-1.25.53c-.36.46-.47.82-.47,2.8s.08,2.35.47,2.81a1.54,1.54,0,0,0,1.25.52,1.78,1.78,0,0,0,1.39-.56,2,2,0,0,0,.45-1.33v-.38h-1.84v-1.62h3.77v1.46A4,4,0,0,1,804.29,738.6Z"/><path class="cls-20" d="M809,739.65a2,2,0,0,1-2.13-1.86v-8.12h1.83v7.78c0,.43.18.65.64.65h.7v1.55Z"/><path class="cls-20" d="M816.23,738.83a3.3,3.3,0,0,1-4.53,0,5.32,5.32,0,0,1,0-5.67,3.3,3.3,0,0,1,4.53,0A5.32,5.32,0,0,1,816.23,738.83Zm-1.42-4.61a1.16,1.16,0,0,0-.85-.32,1.1,1.1,0,0,0-.84.32,4,4,0,0,0,0,3.55,1.1,1.1,0,0,0,.84.32,1.12,1.12,0,0,0,.85-.32,4,4,0,0,0,0-3.55Z"/><path class="cls-20" d="M824.15,739.07a2.48,2.48,0,0,1-1.78.66,2.22,2.22,0,0,1-1.82-.77v.69h-1.76v-10h1.82V733a2.17,2.17,0,0,1,1.76-.73,2.54,2.54,0,0,1,1.78.66c.73.73.74,2,.74,3.07S824.88,738.34,824.15,739.07Zm-2.31-5.18c-1.09,0-1.23.9-1.23,2.09s.14,2.1,1.23,2.1,1.23-.91,1.23-2.1S822.93,733.89,821.84,733.89Z"/><path class="cls-20" d="M830.37,739.65V739a2.21,2.21,0,0,1-1.8.7,2.45,2.45,0,0,1-1.86-.65,2.36,2.36,0,0,1-.6-1.64c0-1.16.8-2.11,2.49-2.11h1.72V735c0-.8-.39-1.14-1.35-1.14a1.55,1.55,0,0,0-1.4.6l-1.17-1.14a3.1,3.1,0,0,1,2.64-1c2,0,3.11.87,3.11,2.58v4.81Zm0-3.09h-1.44c-.66,0-1,.31-1,.83s.34.84,1,.84a1.42,1.42,0,0,0,1.15-.35,1.22,1.22,0,0,0,.26-.92Z"/><path class="cls-20" d="M836.16,739.65a2,2,0,0,1-2.13-1.86v-8.12h1.82v7.78a.57.57,0,0,0,.48.65h.87v1.55Z"/><path class="cls-20" d="M845.64,739.65V739a2.2,2.2,0,0,1-1.79.7,2.48,2.48,0,0,1-1.87-.65,2.36,2.36,0,0,1-.6-1.64c0-1.16.8-2.11,2.5-2.11h1.72V735c0-.8-.39-1.14-1.36-1.14a1.55,1.55,0,0,0-1.4.6l-1.16-1.14a3.07,3.07,0,0,1,2.63-1c2,0,3.11.87,3.11,2.58v4.81Zm0-3.09H844.2c-.66,0-1,.31-1,.83s.34.84,1,.84a1.42,1.42,0,0,0,1.15-.35,1.18,1.18,0,0,0,.27-.92Z"/><path class="cls-20" d="M853.62,739.65v-4.42a1.22,1.22,0,0,0-2.42-.31,1.61,1.61,0,0,0,0,.31v4.42h-1.82v-7.3h1.78V733a2.51,2.51,0,0,1,1.82-.76,2.37,2.37,0,0,1,1.76.63,2.69,2.69,0,0,1,.74,2.07v4.67Z"/><path class="cls-20" d="M861.43,739.65V739a2.14,2.14,0,0,1-1.8.77,2.59,2.59,0,0,1-1.8-.66c-.73-.73-.74-2-.74-3.08s0-2.34.74-3.07a2.61,2.61,0,0,1,1.78-.66,2.23,2.23,0,0,1,1.78.73v-3.32h1.82v10Zm-1.29-5.76c-1.09,0-1.23.9-1.23,2.09s.14,2.1,1.23,2.1,1.25-.91,1.25-2.1S861.24,733.89,860.14,733.89Z"/><path class="cls-20" d="M870.56,739.65a2,2,0,0,1-2.13-1.86v-8.12h1.82v7.78c0,.43.18.65.65.65h.7v1.55Z"/><path class="cls-20" d="M877.81,738.83a3,3,0,0,1-2.27.9,3,3,0,0,1-2.25-.9,5.24,5.24,0,0,1,0-5.67,3.29,3.29,0,0,1,4.52,0A5.24,5.24,0,0,1,877.81,738.83Zm-1.41-4.61a1.29,1.29,0,0,0-1.7,0,4,4,0,0,0,0,3.55,1.1,1.1,0,0,0,.84.32,1.14,1.14,0,0,0,.86-.32,4,4,0,0,0,0-3.55Z"/><path class="cls-20" d="M883.27,739.73c-1.45,0-3.26-.78-3.26-3.74s1.81-3.73,3.26-3.73a3.14,3.14,0,0,1,2.41,1l-1.23,1.24a1.48,1.48,0,0,0-1.18-.58,1.29,1.29,0,0,0-1,.48,3.37,3.37,0,0,0,0,3.23,1.23,1.23,0,0,0,1,.48,1.5,1.5,0,0,0,1.18-.57l1.23,1.22A3.11,3.11,0,0,1,883.27,739.73Z"/><path class="cls-20" d="M890.74,739.65V739a2.21,2.21,0,0,1-1.8.7,2.45,2.45,0,0,1-1.86-.65,2.36,2.36,0,0,1-.6-1.64c0-1.16.8-2.11,2.49-2.11h1.77V735c0-.8-.39-1.14-1.35-1.14a1.57,1.57,0,0,0-1.41.6l-1.16-1.14a3.1,3.1,0,0,1,2.64-1c2,0,3.11.87,3.11,2.58v4.81Zm0-3.09H889.3c-.66,0-1,.31-1,.83s.34.84,1.05.84a1.42,1.42,0,0,0,1.15-.35,1.22,1.22,0,0,0,.26-.92Z"/><path class="cls-20" d="M896.57,739.65a2,2,0,0,1-2.13-1.86v-8.12h1.82v7.78a.57.57,0,0,0,.48.65h.87v1.55Z"/><path class="cls-20" d="M1082.26,735.89h-1.92v3.76h-1.95v-10h3.87a3.11,3.11,0,1,1,0,6.22h0Zm-.1-4.48h-1.82v2.73h1.82a1.37,1.37,0,1,0,.23-2.73Z"/><path class="cls-20" d="M1091.24,739.65V739a2.59,2.59,0,0,1-3.54.12A2.71,2.71,0,0,1,1087,737v-4.66h1.78v4.41a1.22,1.22,0,1,0,2.42.31,1.61,1.61,0,0,0,0-.31v-4.41H1093v7.3Z"/><path class="cls-20" d="M1099,734.34a1.23,1.23,0,0,0-1-.44,1.21,1.21,0,0,0-1.18,1.24s0,.07,0,.11v4.4H1095v-7.3h1.78v.7a2.46,2.46,0,0,1,1.84-.78,2.17,2.17,0,0,1,1.72.68Z"/><path class="cls-20" d="M1103.74,739.73a4,4,0,0,1-3.11-1.05l1.19-1.19a2.63,2.63,0,0,0,2,.69c.63,0,1.29-.21,1.29-.76,0-.36-.2-.62-.77-.67l-1.15-.11c-1.32-.13-2.13-.71-2.13-2,0-1.51,1.33-2.32,2.81-2.32a3.85,3.85,0,0,1,2.79.85l-1.12,1.13a2.57,2.57,0,0,0-1.69-.49c-.73,0-1,.34-1,.7s.11.58.76.63l1.14.12c1.45.14,2.18.91,2.18,2.14C1106.79,739,1105.41,739.73,1103.74,739.73Z"/><path class="cls-20" d="M1112.51,739.65V739a2.49,2.49,0,0,1-1.82.76,2.33,2.33,0,0,1-1.72-.64,2.71,2.71,0,0,1-.75-2.08v-4.66H1110v4.41a1.22,1.22,0,1,0,2.43.22.81.81,0,0,0,0-.22v-4.41h1.82v7.3Z"/><path class="cls-20" d="M1116.3,731.1v-1.48h1.86v1.48Zm0,8.55v-7.3h1.82v7.3Z"/><path class="cls-20" d="M1122.46,739.65a2,2,0,0,1-2.11-1.88V734h-.77v-1.39h.77V730.4h1.82v2.16h1.29V734h-1.29v3.5c0,.42.19.66.63.66h.66v1.54Z"/><path class="cls-20" d="M1125,742v-4.3h2v2.76Z"/><path class="cls-20" d="M1140.74,739.65v-4.42a1.21,1.21,0,0,0-2.42,0v4.46h-1.82v-4.42a1.22,1.22,0,0,0-2.43-.22.81.81,0,0,0,0,.22v4.42h-1.82v-7.3H1134v.67a2.58,2.58,0,0,1,1.82-.75,2.25,2.25,0,0,1,1.93.92,2.84,2.84,0,0,1,2.19-.92,2.5,2.5,0,0,1,1.79.64,2.73,2.73,0,0,1,.8,2.07v4.67Z"/><path class="cls-20" d="M1149.57,738.83a3.3,3.3,0,0,1-4.53,0,5.32,5.32,0,0,1,0-5.67,3.34,3.34,0,0,1,4.53,0A5.32,5.32,0,0,1,1149.57,738.83Zm-1.42-4.6a1.17,1.17,0,0,0-.85-.33,1.15,1.15,0,0,0-.84.33A2.44,2.44,0,0,0,1146,736a2.49,2.49,0,0,0,.42,1.78,1.1,1.1,0,0,0,.84.32,1.12,1.12,0,0,0,.85-.32,2.49,2.49,0,0,0,.42-1.78,2.44,2.44,0,0,0-.42-1.76Z"/><path class="cls-20" d="M1156.16,739.65V739a2.17,2.17,0,0,1-1.8.77,2.59,2.59,0,0,1-1.8-.66c-.73-.73-.74-2-.74-3.08s0-2.34.74-3.07a2.6,2.6,0,0,1,1.78-.65,2.22,2.22,0,0,1,1.78.72v-3.32h1.82v10Zm-1.29-5.75c-1.09,0-1.23.9-1.23,2.09s.14,2.1,1.23,2.1,1.25-.91,1.25-2.1-.15-2.1-1.25-2.1Z"/><path class="cls-20" d="M1161.41,736.56a1.51,1.51,0,0,0,1.38,1.63h.22a2,2,0,0,0,1.65-.69l1.11,1.08a3.5,3.5,0,0,1-2.78,1.15c-1.72,0-3.37-.78-3.37-3.74,0-2.38,1.29-3.72,3.18-3.72a3.21,3.21,0,0,1,3.18,3.48v.81Zm2.61-2a1.3,1.3,0,0,0-1.22-.75,1.26,1.26,0,0,0-1.22.75,2,2,0,0,0-.17.79h2.77a1.94,1.94,0,0,0-.16-.82Z"/><path class="cls-20" d="M1169.74,739.65a2,2,0,0,1-2.13-1.86v-8.12h1.82v7.78c0,.43.19.66.65.66h.7v1.54Z"/><path class="cls-20" d="M1180.82,739.07a2.54,2.54,0,0,1-1.78.66,2.14,2.14,0,0,1-1.77-.73v3.32h-1.82v-10h1.77V733a2.19,2.19,0,0,1,1.82-.77,2.6,2.6,0,0,1,1.78.65c.72.73.74,2,.74,3.07S1181.54,738.34,1180.82,739.07Zm-2.32-5.17c-1.09,0-1.23.9-1.23,2.09s.14,2.1,1.23,2.1,1.24-.91,1.24-2.1-.14-2.1-1.24-2.1Z"/><path class="cls-20" d="M1187.26,734.34a1.21,1.21,0,0,0-1.72-.15,1.23,1.23,0,0,0-.43,1.06v4.4h-1.82v-7.3h1.78v.7a2.46,2.46,0,0,1,1.84-.78,2.25,2.25,0,0,1,1.72.68Z"/><path class="cls-20" d="M1190.66,736.56a1.51,1.51,0,0,0,1.38,1.63h.21a2,2,0,0,0,1.66-.69l1.1,1.08a3.47,3.47,0,0,1-2.77,1.15c-1.72,0-3.38-.78-3.38-3.74,0-2.38,1.29-3.72,3.18-3.72a3.21,3.21,0,0,1,3.18,3.48v.81Zm2.6-2a1.26,1.26,0,0,0-1.22-.75,1.3,1.3,0,0,0-1.22.75,2,2,0,0,0-.16.79h2.77a2.11,2.11,0,0,0-.17-.82Z"/><path class="cls-20" d="M1199.18,739.65a2,2,0,0,1-2.11-1.88V734h-.77v-1.39h.77V730.4h1.82v2.16h1.29V734h-1.29v3.5c0,.42.19.66.63.66h.66v1.54Z"/><path class="cls-20" d="M1201.8,731.1v-1.48h1.86v1.48Zm0,8.55v-7.3h1.82v7.3Z"/><path class="cls-20" d="M1208.58,739.73c-1.46,0-3.27-.78-3.27-3.74s1.81-3.72,3.27-3.72a3.1,3.1,0,0,1,2.41,1l-1.24,1.23a1.49,1.49,0,0,0-1.17-.58,1.29,1.29,0,0,0-1,.48,2.47,2.47,0,0,0-.41,1.61,2.53,2.53,0,0,0,.41,1.63,1.25,1.25,0,0,0,1,.47,1.48,1.48,0,0,0,1.17-.57l1.24,1.22A3.13,3.13,0,0,1,1208.58,739.73Z"/><path class="cls-20" d="M1214.68,739.65a2,2,0,0,1-2.12-1.87V734h-.77v-1.39h.77V730.4h1.83v2.16h1.28V734h-1.28v3.5c0,.42.19.66.63.66h.65v1.54Z"/><path class="cls-20" d="M1217.3,731.1v-1.48h1.86v1.48Zm0,8.55v-7.3h1.83v7.3Z"/><path class="cls-20" d="M1224.33,739.65h-1.43l-2.69-7.3h1.92l1.48,4.51,1.47-4.51H1227Z"/><path class="cls-20" d="M1229.36,736.56a1.51,1.51,0,0,0,1.38,1.63h.22a2,2,0,0,0,1.66-.69l1.1,1.08a3.47,3.47,0,0,1-2.77,1.15c-1.72,0-3.38-.78-3.38-3.74,0-2.38,1.29-3.72,3.18-3.72a3.21,3.21,0,0,1,3.18,3.48v.81Zm2.61-2a1.26,1.26,0,0,0-1.22-.75,1.3,1.3,0,0,0-1.22.75,2.38,2.38,0,0,0-.17.79h2.78a2.11,2.11,0,0,0-.17-.82Z"/><path class="cls-20" d="M1235.54,742v-4.3h2v2.76Z"/><path class="cls-20" d="M1244.19,736.56a1.51,1.51,0,0,0,1.38,1.63h.22a2,2,0,0,0,1.65-.69l1.11,1.08a3.49,3.49,0,0,1-2.78,1.15c-1.72,0-3.37-.78-3.37-3.74,0-2.38,1.29-3.72,3.18-3.72a3.21,3.21,0,0,1,3.18,3.48v.81Zm2.61-2a1.37,1.37,0,0,0-1.84-.6,1.39,1.39,0,0,0-.6.6,2,2,0,0,0-.17.79H1247a1.94,1.94,0,0,0-.16-.82Z"/><path class="cls-20" d="M1252.74,739.65a2,2,0,0,1-2.12-1.87V734h-.77v-1.39h.77V730.4h1.82v2.16h1.3V734h-1.29v3.5c0,.42.2.66.63.66h.66v1.54Z"/><path class="cls-20" d="M1258.22,739.73c-1.46,0-3.26-.78-3.26-3.74s1.8-3.72,3.26-3.72a3.09,3.09,0,0,1,2.41,1l-1.23,1.23a1.48,1.48,0,0,0-1.18-.58,1.29,1.29,0,0,0-1,.48,2.48,2.48,0,0,0-.4,1.61,2.6,2.6,0,0,0,.4,1.63,1.29,1.29,0,0,0,1,.47,1.5,1.5,0,0,0,1.18-.57l1.23,1.22A3.11,3.11,0,0,1,1258.22,739.73Z"/><path class="cls-20" d="M1262,739.65v-2.08h2.09v2.08Z"/><path class="cls-20" d="M1406.74,739.73a4.65,4.65,0,0,1-3.64-1.32l1.26-1.26a3.25,3.25,0,0,0,2.41.84c1.15,0,1.76-.43,1.76-1.23a1.13,1.13,0,0,0-.3-.84,1.52,1.52,0,0,0-.89-.35l-1.2-.17a3.32,3.32,0,0,1-1.93-.82,2.64,2.64,0,0,1-.72-2c0-1.77,1.32-3,3.48-3a4.35,4.35,0,0,1,3.22,1.16L1409,732a2.81,2.81,0,0,0-2-.69c-1,0-1.54.58-1.54,1.27a1,1,0,0,0,.29.71,1.68,1.68,0,0,0,.93.39l1.17.17a3.36,3.36,0,0,1,1.91.77,2.83,2.83,0,0,1,.77,2.12C1410.42,738.64,1408.81,739.73,1406.74,739.73Z"/><path class="cls-20" d="M1414.39,739.65a2,2,0,0,1-2.11-1.88V734h-.77v-1.39h.77V730.4h1.82v2.16h1.29V734h-1.29v3.5c0,.42.19.66.63.66h.66v1.54Z"/><path class="cls-20" d="M1418.42,736.56a1.51,1.51,0,0,0,1.38,1.63h.22a2,2,0,0,0,1.65-.69l1.11,1.08a3.47,3.47,0,0,1-2.77,1.15c-1.73,0-3.38-.78-3.38-3.74,0-2.38,1.29-3.72,3.18-3.72a3.21,3.21,0,0,1,3.18,3.48v.81Zm2.61-2a1.37,1.37,0,0,0-1.84-.6,1.39,1.39,0,0,0-.6.6,2.38,2.38,0,0,0-.17.79h2.78a2.11,2.11,0,0,0-.17-.82Z"/><path class="cls-20" d="M1426.1,736.56a1.51,1.51,0,0,0,1.38,1.63h.21a2,2,0,0,0,1.66-.69l1.1,1.08a3.47,3.47,0,0,1-2.77,1.15c-1.72,0-3.38-.78-3.38-3.74,0-2.38,1.29-3.72,3.18-3.72a3.21,3.21,0,0,1,3.18,3.48v.81Zm2.6-2a1.26,1.26,0,0,0-1.22-.75,1.3,1.3,0,0,0-1.22.75,2,2,0,0,0-.16.79h2.77a1.91,1.91,0,0,0-.13-.82Z"/><path class="cls-20" d="M1436.3,734.34a1.2,1.2,0,0,0-1.7-.17,1.21,1.21,0,0,0-.44,1.08v4.4h-1.82v-7.3h1.78v.7a2.48,2.48,0,0,1,1.83-.78,2.24,2.24,0,0,1,1.73.68Z"/><path class="cls-20" d="M1438.68,731.1v-1.48h1.86v1.48Zm0,8.55v-7.3h1.82v7.3Z"/><path class="cls-20" d="M1446.8,739.65v-4.42a1.22,1.22,0,0,0-2.42-.31,1.61,1.61,0,0,0,0,.31v4.42h-1.82v-7.3h1.78V733a2.5,2.5,0,0,1,1.82-.75,2.33,2.33,0,0,1,1.72.64,2.69,2.69,0,0,1,.74,2.07v4.67Z"/><path class="cls-20" d="M1453.1,742.41a3.4,3.4,0,0,1-2.65-1l1.14-1.14a1.88,1.88,0,0,0,1.43.56,1.38,1.38,0,0,0,1.47-1.28,1,1,0,0,0,0-.24v-.74a2.14,2.14,0,0,1-1.74.73,2.37,2.37,0,0,1-1.73-.65c-.69-.68-.75-1.62-.75-2.9s.06-2.19.75-2.88a2.42,2.42,0,0,1,1.75-.64,2.08,2.08,0,0,1,1.77.77v-.69h1.77v7a3,3,0,0,1-2.89,3.11Zm.18-8.51c-1.07,0-1.19.93-1.19,1.89s.12,1.91,1.19,1.91,1.21-.94,1.21-1.91-.13-1.9-1.21-1.9Z"/><path class="cls-20" d="M1458.28,742v-4.3h2v2.76Z"/><path class="cls-20" d="M1469.24,739.65V739a2.2,2.2,0,0,1-1.79.7,2.45,2.45,0,0,1-1.86-.65,2.36,2.36,0,0,1-.6-1.64c0-1.16.79-2.11,2.49-2.11h1.72V735c0-.79-.39-1.14-1.36-1.14a1.55,1.55,0,0,0-1.4.6l-1.16-1.14a3.07,3.07,0,0,1,2.63-1c2,0,3.11.86,3.11,2.57v4.81Zm0-3.09h-1.5c-.66,0-1,.31-1,.83s.33.84,1,.84a1.42,1.42,0,0,0,1.15-.35,1.22,1.22,0,0,0,.26-.92Z"/><path class="cls-20" d="M1475.88,739.73c-1.46,0-3.26-.78-3.26-3.74s1.8-3.72,3.26-3.72a3.09,3.09,0,0,1,2.41,1l-1.23,1.23a1.48,1.48,0,0,0-1.18-.58,1.29,1.29,0,0,0-1,.48,2.48,2.48,0,0,0-.4,1.61,2.6,2.6,0,0,0,.4,1.63,1.29,1.29,0,0,0,1,.47,1.5,1.5,0,0,0,1.18-.57l1.23,1.22A3.11,3.11,0,0,1,1475.88,739.73Z"/><path class="cls-20" d="M1482.35,739.73c-1.46,0-3.27-.78-3.27-3.74s1.81-3.72,3.27-3.72a3.1,3.1,0,0,1,2.41,1l-1.24,1.23a1.46,1.46,0,0,0-1.17-.58,1.29,1.29,0,0,0-1,.48,2.48,2.48,0,0,0-.4,1.61,2.6,2.6,0,0,0,.4,1.63,1.25,1.25,0,0,0,1,.47,1.48,1.48,0,0,0,1.17-.57l1.24,1.22A3.11,3.11,0,0,1,1482.35,739.73Z"/><path class="cls-20" d="M1487.35,736.56a1.51,1.51,0,0,0,1.38,1.63h.21a2,2,0,0,0,1.66-.69l1.1,1.08a3.47,3.47,0,0,1-2.77,1.15c-1.73,0-3.38-.78-3.38-3.74,0-2.38,1.29-3.72,3.18-3.72a3.21,3.21,0,0,1,3.18,3.48v.81Zm2.6-2a1.37,1.37,0,0,0-1.84-.6,1.39,1.39,0,0,0-.6.6,2,2,0,0,0-.16.79h2.77a2.11,2.11,0,0,0-.17-.82Z"/><path class="cls-20" d="M1495.65,739.65a2,2,0,0,1-2.13-1.86v-8.12h1.82v7.78c0,.43.18.66.64.66h.7v1.54Z"/><path class="cls-20" d="M1499.22,736.56a1.51,1.51,0,0,0,1.38,1.63h.21a2,2,0,0,0,1.66-.69l1.1,1.08a3.47,3.47,0,0,1-2.77,1.15c-1.72,0-3.38-.78-3.38-3.74,0-2.38,1.29-3.72,3.18-3.72s3.18,1.48,3.18,3.48v.81Zm2.6-2a1.36,1.36,0,0,0-1.83-.6,1.34,1.34,0,0,0-.6.6,2,2,0,0,0-.17.79H1502a1.8,1.8,0,0,0-.17-.82Z"/><path class="cls-20" d="M1509.42,734.34a1.19,1.19,0,0,0-1-.44,1.23,1.23,0,0,0-1.19,1.25s0,.07,0,.1v4.4h-1.82v-7.3h1.78v.7a2.48,2.48,0,0,1,1.83-.78,2.24,2.24,0,0,1,1.73.68Z"/><path class="cls-20" d="M1515.43,739.65V739a2.2,2.2,0,0,1-1.79.7,2.48,2.48,0,0,1-1.87-.65,2.36,2.36,0,0,1-.6-1.64c0-1.16.8-2.11,2.49-2.11h1.73V735c0-.79-.39-1.14-1.36-1.14a1.55,1.55,0,0,0-1.4.6l-1.16-1.14a3.07,3.07,0,0,1,2.63-1c2,0,3.11.86,3.11,2.57v4.81Zm0-3.09H1514c-.66,0-1,.31-1,.83s.34.84,1,.84a1.42,1.42,0,0,0,1.15-.35,1.14,1.14,0,0,0,.27-.92Z"/><path class="cls-20" d="M1521.45,739.65a2,2,0,0,1-2.12-1.87V734h-.77v-1.39h.77V730.4h1.83v2.16h1.28V734h-1.28v3.5c0,.42.19.66.63.66h.65v1.54Z"/><path class="cls-20" d="M1524.07,731.1v-1.48h1.86v1.48Zm0,8.55v-7.3h1.82v7.3Z"/><path class="cls-20" d="M1533,738.83a3.3,3.3,0,0,1-4.53,0,5.32,5.32,0,0,1,0-5.67,3.34,3.34,0,0,1,4.53,0A5.32,5.32,0,0,1,1533,738.83Zm-1.42-4.6a1.17,1.17,0,0,0-.85-.33,1.15,1.15,0,0,0-.84.33,2.44,2.44,0,0,0-.42,1.76,2.49,2.49,0,0,0,.42,1.78,1.1,1.1,0,0,0,.84.32,1.12,1.12,0,0,0,.85-.32A2.49,2.49,0,0,0,1532,736,2.44,2.44,0,0,0,1531.57,734.23Z"/><path class="cls-20" d="M1539.79,739.65v-4.42a1.22,1.22,0,0,0-2.42-.31,1.61,1.61,0,0,0,0,.31v4.42h-1.82v-7.3h1.77V733a2.51,2.51,0,0,1,1.83-.75,2.33,2.33,0,0,1,1.72.64,2.69,2.69,0,0,1,.74,2.07v4.67Z"/><path class="cls-20" d="M1543.5,742v-4.3h2v2.76Z"/><path class="cls-20" d="M1556.09,739.07a2.54,2.54,0,0,1-1.78.66,2.22,2.22,0,0,1-1.82-.77v.69h-1.75v-10h1.82V733a2.2,2.2,0,0,1,1.77-.72,2.6,2.6,0,0,1,1.78.65c.73.73.74,2,.74,3.07S1556.82,738.34,1556.09,739.07Zm-2.35-5.18c-1.1,0-1.24.9-1.24,2.09s.14,2.1,1.24,2.1,1.23-.91,1.23-2.1S1554.87,733.89,1553.74,733.89Z"/><path class="cls-20" d="M1562.53,734.34a1.21,1.21,0,0,0-1.72-.15,1.23,1.23,0,0,0-.43,1.06v4.4h-1.82v-7.3h1.78v.7a2.46,2.46,0,0,1,1.84-.78,2.25,2.25,0,0,1,1.72.68Z"/><path class="cls-20" d="M1568.53,739.65V739a2.2,2.2,0,0,1-1.79.7,2.45,2.45,0,0,1-1.86-.65,2.29,2.29,0,0,1-.61-1.64c0-1.16.8-2.11,2.5-2.11h1.72V735c0-.79-.39-1.14-1.36-1.14a1.55,1.55,0,0,0-1.4.6l-1.16-1.14a3.07,3.07,0,0,1,2.63-1c2,0,3.11.86,3.11,2.57v4.81Zm0-3.09h-1.44c-.66,0-1,.31-1,.83s.34.84,1,.84a1.42,1.42,0,0,0,1.15-.35,1.14,1.14,0,0,0,.27-.92Z"/><path class="cls-20" d="M1576.65,739.65l-1.79-3-.77.87v2.17h-1.82v-10h1.82v5.66l2.42-3h2.2l-2.6,2.94,2.8,4.36Z"/><path class="cls-20" d="M1581.42,736.56a1.51,1.51,0,0,0,1.38,1.63h.22a2,2,0,0,0,1.65-.69l1.11,1.08a3.47,3.47,0,0,1-2.77,1.15c-1.73,0-3.38-.78-3.38-3.74,0-2.38,1.29-3.72,3.18-3.72a3.21,3.21,0,0,1,3.18,3.48v.81Zm2.61-2a1.37,1.37,0,0,0-1.84-.6,1.39,1.39,0,0,0-.6.6,2.38,2.38,0,0,0-.17.79h2.78a2.11,2.11,0,0,0-.17-.82Z"/><text class="cls-21" transform="translate(746.5 1119.48)">V2X / <tspan class="cls-22" x="94.31" y="0">T</tspan><tspan x="112.67" y="0">e</tspan><tspan class="cls-23" x="132.59" y="0">l</tspan><tspan x="143.5" y="0">eop</tspan></text></g></svg>