<svg xmlns="http://www.w3.org/2000/svg" viewBox="0 0 1765.44 1203.22"><defs><style>.cls-1,.cls-10{fill:#152742;}.cls-1,.cls-14{stroke:#1c3c68;}.cls-1,.cls-14,.cls-15,.cls-2,.cls-3,.cls-5,.cls-6,.cls-7,.cls-8,.cls-9{stroke-linecap:round;stroke-linejoin:round;}.cls-1,.cls-14,.cls-15,.cls-2,.cls-3,.cls-5,.cls-7,.cls-8,.cls-9{stroke-width:6px;}.cls-15,.cls-2,.cls-3,.cls-5,.cls-6,.cls-7,.cls-8,.cls-9{fill:none;}.cls-2,.cls-3,.cls-5,.cls-6,.cls-7,.cls-8,.cls-9{stroke:#34aec5;}.cls-2{stroke-dasharray:24;}.cls-4{fill:#0a4851;}.cls-5{stroke-dasharray:21.9 21.9;}.cls-6{stroke-width:4px;}.cls-7{stroke-dasharray:22.64 22.64;}.cls-8{stroke-dasharray:0 10;}.cls-9{stroke-dasharray:12;}.cls-10{font-size:33.04px;font-family:DINPro-Black, DINPro;font-weight:800;}.cls-11{letter-spacing:-0.01em;}.cls-12{letter-spacing:-0.02em;}.cls-13,.cls-14{fill:#34aec5;}.cls-15{stroke:#152742;}.cls-16,.cls-17{fill:#fff;}.cls-17{font-size:36.36px;font-family:DINPro-Bold, DINPro;font-weight:700;}.cls-18{letter-spacing:-0.07em;}.cls-19{letter-spacing:-0.02em;}</style></defs><g id="sötét"><rect class="cls-1" x="79.52" y="181" width="248.15" height="586.67" rx="26.27"/><rect class="cls-1" x="401.57" y="181" width="248.15" height="586.67" rx="26.27"/><rect class="cls-1" x="723.63" y="181" width="248.15" height="586.67" rx="26.27"/><rect class="cls-1" x="1045.68" y="181" width="248.15" height="586.67" rx="26.27"/><rect class="cls-1" x="1367.74" y="181" width="248.15" height="586.67" rx="26.27"/><rect class="cls-1" x="79.52" y="877.89" width="248.15" height="270.22" rx="26.27"/><rect class="cls-1" x="401.57" y="877.89" width="248.15" height="270.22" rx="26.27"/><rect class="cls-1" x="723.63" y="877.89" width="248.15" height="270.22" rx="26.27"/><rect class="cls-1" x="1045.68" y="877.89" width="248.15" height="270.22" rx="26.27"/><rect class="cls-1" x="1367.74" y="877.89" width="248.15" height="270.22" rx="26.27"/></g><g id="világos"><rect class="cls-2" x="57" y="151.22" width="1587.56" height="643.11" rx="24"/><circle class="cls-3" cx="144.22" cy="1044.08" r="17.44"/><circle class="cls-3" cx="271.81" cy="1044.08" r="17.44"/><polyline class="cls-3" points="119.03 1050.92 104.67 1044.09 104.67 1006.97 133.33 997.42 160.67 981.42 160.67 967.42 226 967.42 226 980.97 250 998.97"/><line class="cls-3" x1="104.67" y1="1017.42" x2="120" y2="1017.42"/><path class="cls-3" d="M133.33,997.42l16.23,11.8H265.21a10.34,10.34,0,0,1,2,.19l25.18,4.79a21.82,21.82,0,0,1,17.73,20.72l.35,10.42a5.45,5.45,0,0,1-5.32,5.58h-9.62"/><line class="cls-3" x1="168.44" y1="1050.92" x2="244.44" y2="1050.92"/><path class="cls-3" d="M195.33,1017.42v33.5"/><line class="cls-3" x1="160.67" y1="981.42" x2="226" y2="981.42"/><line class="cls-3" x1="195.33" y1="981.42" x2="195.33" y2="1002.75"/><line class="cls-3" x1="186.67" y1="967.42" x2="186.67" y2="949.42"/><line class="cls-3" x1="201.56" y1="967.42" x2="201.56" y2="949.42"/><line class="cls-3" x1="178.89" y1="949.42" x2="208.56" y2="949.42"/><path class="cls-3" d="M146.52,966.22a17.21,17.21,0,0,1,1-30.08"/><path class="cls-3" d="M121.18,985.27a48.16,48.16,0,0,1,4.53-71.74"/><path class="cls-3" d="M132.9,976.44a33.67,33.67,0,0,1-2.49-47.54A34.48,34.48,0,0,1,135.9,924"/><path class="cls-3" d="M246.65,934.09a17.22,17.22,0,0,1,1,30.08"/><path class="cls-3" d="M268.5,911.53a48.15,48.15,0,0,1,8.15,67.61,51.06,51.06,0,0,1-3.65,4.13"/><path class="cls-3" d="M258.35,922A33.65,33.65,0,0,1,266.24,969a32.73,32.73,0,0,1-4.89,5.49"/><path class="cls-3" d="M150.44,660.31a17.21,17.21,0,0,1,1-30.08"/><path class="cls-3" d="M125.1,679.41a48.16,48.16,0,0,1,4.53-71.74"/><path class="cls-3" d="M136.82,670.58A33.67,33.67,0,0,1,134.33,623a34.48,34.48,0,0,1,5.49-4.89"/><path class="cls-3" d="M250.57,628.22a17.22,17.22,0,0,1,1,30.08"/><path class="cls-3" d="M272.42,605.67a48.16,48.16,0,0,1,8.23,67.6,49.55,49.55,0,0,1-3.65,4.14"/><path class="cls-3" d="M262.27,616.15a33.65,33.65,0,0,1,7.89,46.94,32.73,32.73,0,0,1-4.89,5.49"/><rect class="cls-3" x="172.28" y="611.43" width="57.63" height="62.22" rx="12.52"/><rect class="cls-3" x="125.21" y="290.46" width="105.9" height="62.22" rx="12.6"/><path class="cls-3" d="M267.73,346.86l-24.32-15.55a5.89,5.89,0,0,1-2.73-5v-9.52a6,6,0,0,1,2.73-5l24.32-15.55a5.92,5.92,0,0,1,9.1,5v40.63a5.91,5.91,0,0,1-5.9,5.93A6,6,0,0,1,267.73,346.86Z"/><path class="cls-3" d="M1225.09,317.27l-39.48-10.53-57.15-15.25a7.49,7.49,0,0,0-9.16,5.3,7.41,7.41,0,0,0-.25,1.93v51.56a7.48,7.48,0,0,0,7.49,7.47,7.33,7.33,0,0,0,1.92-.25l57.15-15.28,39.48-10.53a7.48,7.48,0,0,0,0-14.42Zm-45,8.93c-.06.16-.11.34-.19.51l-.23.48a4.25,4.25,0,0,1-.27.46,5.84,5.84,0,0,1-.68.81h0l-10.82,10.81a5.53,5.53,0,1,1-7.82-7.83h0l1.37-1.37h-28.21a5.54,5.54,0,0,1,0-11.07h28.21l-1.48-1.48a5.53,5.53,0,0,1,7.82-7.82l10.93,10.93a5.87,5.87,0,0,1,.71.87,5.18,5.18,0,0,1,.48.9c.06.15.11.28.16.43v.07a2.51,2.51,0,0,0,.14.52,4.44,4.44,0,0,1,.08.56c0,.2,0,.45,0,.67V325a4.91,4.91,0,0,1-.08.67,1.61,1.61,0,0,1-.08.57Z"/><path class="cls-4" d="M1180.27,325.66a4.91,4.91,0,0,0,.08-.67A4.91,4.91,0,0,1,1180.27,325.66Z"/><path class="cls-4" d="M1180.35,325v-.33A1.22,1.22,0,0,1,1180.35,325Z"/><path class="cls-4" d="M1180.38,324.55V324A5.23,5.23,0,0,1,1180.38,324.55Z"/><path class="cls-4" d="M1179.47,321.51a5.87,5.87,0,0,0-.71-.87A5.87,5.87,0,0,1,1179.47,321.51Z"/><path class="cls-3" d="M1225.09,539.29l-39.48-10.53-57.15-15.25a7.49,7.49,0,0,0-9.16,5.32,7.26,7.26,0,0,0-.25,1.91V572.3a7.48,7.48,0,0,0,7.49,7.47,7.33,7.33,0,0,0,1.92-.25l57.15-15.24,39.48-10.54a7.48,7.48,0,0,0,0-14.45Zm-45,8.93a5.27,5.27,0,0,1-.19.51c-.07.16-.15.32-.23.48a4.25,4.25,0,0,1-.27.46,5.84,5.84,0,0,1-.68.81h0L1167.9,561.3a5.53,5.53,0,0,1-7.82-7.83h0l1.37-1.38h-28.21a5.53,5.53,0,0,1,0-11.06h28.22l-1.48-1.49a5.53,5.53,0,0,1,7.82-7.82l10.93,10.93a5.47,5.47,0,0,1,.71.88,5.1,5.1,0,0,1,.48.89c.06.15.11.29.16.43v.07a2.51,2.51,0,0,0,.14.52,4.44,4.44,0,0,1,.08.56c0,.2,0,.45,0,.67V547a5.05,5.05,0,0,1-.08.68,1.39,1.39,0,0,1-.08.54Z"/><path class="cls-4" d="M1180.27,547.69a5.05,5.05,0,0,0,.08-.68A5.05,5.05,0,0,1,1180.27,547.69Z"/><path class="cls-4" d="M1180.35,547v-.33A1.22,1.22,0,0,1,1180.35,547Z"/><path class="cls-4" d="M1180.38,546.57V546A5.23,5.23,0,0,1,1180.38,546.57Z"/><path class="cls-4" d="M1179.47,543.54a5.47,5.47,0,0,0-.71-.88A5,5,0,0,1,1179.47,543.54Z"/><line class="cls-3" x1="127.99" y1="442.57" x2="158.52" y2="463.72"/><rect class="cls-3" x="170.65" y="446.33" width="57.63" height="62.22" rx="12.52"/><line class="cls-3" x1="158.52" y1="472.91" x2="117.33" y2="461.35"/><line class="cls-3" x1="127.99" y1="520.88" x2="158.52" y2="499.73"/><line class="cls-3" x1="158.52" y1="490.55" x2="117.33" y2="502.1"/><line class="cls-3" x1="158.52" y1="482.39" x2="110.96" y2="482.39"/><line class="cls-3" x1="274.05" y1="443.23" x2="243.53" y2="464.38"/><line class="cls-3" x1="243.53" y1="473.57" x2="284.71" y2="462.01"/><line class="cls-3" x1="274.05" y1="521.55" x2="243.53" y2="500.39"/><line class="cls-3" x1="243.53" y1="491.21" x2="284.71" y2="502.76"/><line class="cls-3" x1="243.53" y1="483.05" x2="291.08" y2="483.05"/><line class="cls-3" x1="443.67" y1="286.46" x2="443.67" y2="507.55"/><line class="cls-3" x1="603.67" y1="286.46" x2="603.67" y2="507.55"/><line class="cls-3" x1="523.67" y1="286.46" x2="523.67" y2="298.46"/><line class="cls-5" x1="523.67" y1="320.36" x2="523.67" y2="484.6"/><line class="cls-3" x1="523.67" y1="495.55" x2="523.67" y2="507.55"/><path class="cls-3" d="M552.2,660.31a47.88,47.88,0,1,0-57.06,0"/><rect class="cls-3" x="489" y="660.31" width="70.22" height="13.34" rx="4.62"/><rect class="cls-3" x="477.11" y="674.19" width="93.11" height="13.34" rx="4.62"/><path class="cls-6" d="M498.76,586h1.49a12,12,0,0,0,12.13,11.87h0v1.45a12,12,0,0,0-11.86,12.14H499a12,12,0,0,0-12.1-11.9h0v-1.46A12,12,0,0,0,498.76,586Z"/><path class="cls-6" d="M532.86,631.55H534a9.46,9.46,0,0,0,9.56,9.35V642a9.46,9.46,0,0,0-9.35,9.56H533a9.46,9.46,0,0,0-9.55-9.37h0v-1.15A9.46,9.46,0,0,0,532.86,631.55Z"/><line class="cls-6" x1="499.65" y1="635.22" x2="500.04" y2="635.22"/><line class="cls-6" x1="519.26" y1="618.63" x2="519.21" y2="618.63"/><line class="cls-6" x1="538.78" y1="601.59" x2="538.72" y2="601.59"/><line class="cls-6" x1="535.37" y1="608.92" x2="535.31" y2="608.92"/><line class="cls-6" x1="538.33" y1="594.03" x2="538.28" y2="594.03"/><rect class="cls-6" x="552.26" y="453.8" width="29.04" height="48.96" rx="9.92"/><rect class="cls-6" x="552.26" y="352.68" width="29.04" height="48.96" rx="9.92"/><rect class="cls-6" x="469.15" y="308.41" width="29.04" height="48.96" rx="9.92"/><polyline class="cls-6" points="483.68 380.81 483.68 401.64 477.65 395.61"/><polyline class="cls-6" points="483.68 401.64 483.68 401.64 489.68 395.64"/><line class="cls-6" x1="483.68" y1="367.03" x2="483.68" y2="401.64"/><polyline class="cls-6" points="566.76 329.53 566.76 308.7 572.79 314.73"/><polyline class="cls-6" points="566.76 308.7 566.76 308.7 560.76 314.7"/><line class="cls-6" x1="566.76" y1="343.3" x2="566.76" y2="308.7"/><polyline class="cls-6" points="566.75 440.03 566.75 419.2 572.78 425.23"/><polyline class="cls-6" points="566.75 419.2 566.75 419.2 560.75 425.2"/><line class="cls-6" x1="566.75" y1="444.92" x2="566.75" y2="419.2"/><line class="cls-3" x1="768" y1="282.09" x2="768" y2="691"/><line class="cls-3" x1="928" y1="282.09" x2="928" y2="691"/><line class="cls-3" x1="848" y1="282.09" x2="848" y2="294.09"/><line class="cls-7" x1="848" y1="316.73" x2="848" y2="667.68"/><line class="cls-3" x1="848" y1="679" x2="848" y2="691"/><rect class="cls-6" x="876.59" y="572.79" width="29.04" height="48.96" rx="9.92"/><rect class="cls-6" x="876.59" y="348.31" width="29.04" height="48.96" rx="9.92"/><rect class="cls-6" x="793.48" y="592.66" width="29.04" height="48.96" rx="9.92"/><polyline class="cls-6" points="808.01 665.06 808.01 685.89 801.99 679.86"/><polyline class="cls-6" points="808.01 685.89 808.01 685.89 814.01 679.88"/><line class="cls-6" x1="808.01" y1="651.28" x2="808.01" y2="685.89"/><polyline class="cls-6" points="891.1 325.16 891.1 304.33 897.13 310.36"/><polyline class="cls-6" points="891.1 304.33 891.1 304.33 885.1 310.33"/><line class="cls-6" x1="891.1" y1="338.94" x2="891.1" y2="304.33"/><polyline class="cls-6" points="888.06 511.3 888.06 490.47 894.09 496.5"/><polyline class="cls-6" points="888.06 490.47 888.06 490.47 882.06 496.47"/><line class="cls-6" x1="888.06" y1="548.33" x2="888.06" y2="490.47"/><path class="cls-8" d="M888.07,564.78v-.56c0-27.46-5-25-14.05-34L827.6,483.84c-9-9-17.82-20.84-21.15-41V346.68"/><polyline class="cls-3" points="795.56 358.55 806.78 347.33 818.06 358.61"/><path class="cls-3" d="M1225.09,428.28l-39.48-10.53-57.15-15.25a7.49,7.49,0,0,0-9.16,5.3,7.41,7.41,0,0,0-.25,1.93v51.56a7.48,7.48,0,0,0,7.49,7.47,7.33,7.33,0,0,0,1.92-.25l57.15-15.29,39.48-10.53a7.48,7.48,0,0,0,0-14.41Zm-45,8.93a5.27,5.27,0,0,1-.19.51c-.07.16-.15.32-.23.48a4.25,4.25,0,0,1-.27.46,5.84,5.84,0,0,1-.68.81h0l-10.82,10.82a5.53,5.53,0,0,1-7.82-7.83h0l1.37-1.38h-28.21a5.53,5.53,0,0,1,0-11.06h28.22l-1.48-1.49a5.53,5.53,0,0,1,7.82-7.82l10.93,10.93a5.47,5.47,0,0,1,.71.88,5.1,5.1,0,0,1,.48.89c.06.15.11.29.16.43v.07a2.51,2.51,0,0,0,.14.52,4.44,4.44,0,0,1,.08.56c0,.2,0,.45,0,.67V436a4.91,4.91,0,0,1-.08.67,1.52,1.52,0,0,1-.08.56Z"/><path class="cls-4" d="M1180.27,436.67a4.91,4.91,0,0,0,.08-.67A4.91,4.91,0,0,1,1180.27,436.67Z"/><path class="cls-4" d="M1180.35,436v-.33A1.22,1.22,0,0,1,1180.35,436Z"/><path class="cls-4" d="M1180.38,435.56V435A5.23,5.23,0,0,1,1180.38,435.56Z"/><path class="cls-4" d="M1179.47,432.53a5.47,5.47,0,0,0-.71-.88A5,5,0,0,1,1179.47,432.53Z"/><line class="cls-3" x1="1058.59" y1="435.51" x2="1119.05" y2="435.51"/><path class="cls-3" d="M1077,436V658.16a16.7,16.7,0,0,0,16.7,16.7h156.6a16.69,16.69,0,0,0,16.7-16.68V436"/><path class="cls-3" d="M1230.64,435h43.84"/><path class="cls-3" d="M1116.18,325.33h-4.34a8,8,0,0,0-8,8V538.56a8,8,0,0,0,8,8h4.34"/><path class="cls-3" d="M1234.52,325.16h4.34a8,8,0,0,1,8,7.95V538.39a8,8,0,0,1-8,8h-4.34"/><line class="cls-3" x1="1077.04" y1="418.98" x2="1077.04" y2="428.82"/><line class="cls-3" x1="1072.12" y1="423.9" x2="1081.96" y2="423.9"/><line class="cls-3" x1="1085.23" y1="446.2" x2="1095.07" y2="446.2"/><circle class="cls-3" cx="1491.57" cy="416.5" r="67.15"/><path class="cls-3" d="M1427.44,396.53l46.56-4.31a193.18,193.18,0,0,1,35.18,0l46.54,4.27"/><path class="cls-3" d="M1474.64,481.49q.28-2.85.28-5.71a55.77,55.77,0,0,0-50.39-55.5"/><path class="cls-3" d="M1508.5,481.49q-.29-2.85-.29-5.71a55.77,55.77,0,0,1,50.39-55.5"/><circle class="cls-3" cx="846.69" cy="1031.62" r="39.6"/><path class="cls-3" d="M808.87,1019.84l27.44-2.52a114.14,114.14,0,0,1,20.75,0l27.45,2.52"/><path class="cls-3" d="M836.7,1070c.11-1.11.17-2.23.17-3.37a32.88,32.88,0,0,0-29.72-32.73"/><path class="cls-3" d="M856.68,1070a31.56,31.56,0,0,1-.17-3.37,32.88,32.88,0,0,1,29.71-32.73"/><rect class="cls-3" x="1527.08" y="526.32" width="39.6" height="70.14" rx="12"/><rect class="cls-3" x="1424.42" y="542.62" width="82.57" height="51.06" rx="12"/><polygon class="cls-3" points="1537.96 551.66 1537.96 574.99 1558.11 563.33 1537.96 551.66"/><rect class="cls-3" x="1450.43" y="555.29" width="10.67" height="25.72" rx="3.64"/><rect class="cls-3" x="1470.31" y="555.29" width="10.67" height="25.72" rx="3.64"/><path class="cls-3" d="M485.36,912.55h83.83A19.81,19.81,0,0,1,589,932.36v94a19.8,19.8,0,0,1-9.09,16.65l-41.33,26.61a19.77,19.77,0,0,1-21.18.16l-42.5-26.43a19.79,19.79,0,0,1-9.34-16.81V932.36a19.8,19.8,0,0,1,19.79-19.81Z"/><path class="cls-3" d="M502,986.68l3.26-3.27a3.22,3.22,0,0,1,4.55,0h0l10.44,10.45a3.24,3.24,0,0,0,4.56,0l26.45-26.45a3.22,3.22,0,0,1,4.55,0h0l3.72,3.73a3.22,3.22,0,0,1,0,4.55h0l-34.38,34.38a3.22,3.22,0,0,1-4.55,0l0,0L502,991.22A3.22,3.22,0,0,1,502,986.68Z"/><path class="cls-3" d="M485,924.78h84.52c5.22.85,9.46,5.09,9.46,10.32v89.77a9.47,9.47,0,0,1-4.34,8L533,1059.68a9.46,9.46,0,0,1-10.12.08L480,1033.13a9.49,9.49,0,0,1-4.46-8v-90C475.56,929.87,479.79,925.63,485,924.78Z"/><path class="cls-3" d="M789,1027.22H772.11a12,12,0,0,1-12-12V931.66a12,12,0,0,1,12-12H922.33a12,12,0,0,1,12,12v83.56a12,12,0,0,1-12,12H906.78"/><line class="cls-3" x1="794.78" y1="992.85" x2="821.74" y2="919.96"/><line class="cls-3" x1="875.67" y1="919.96" x2="902.63" y2="992.85"/><line class="cls-9" x1="847.52" y1="919.96" x2="847.52" y2="979.22"/><circle class="cls-3" cx="1169.67" cy="954.66" r="40"/><path class="cls-3" d="M1194,986.4h2.77a39.11,39.11,0,0,1,39.11,39.11v17H1103.44v-17a39.12,39.12,0,0,1,39.12-39.11h2.77"/><ellipse class="cls-3" cx="1539.41" cy="928.55" rx="36.74" ry="13.33"/><path class="cls-3" d="M1502.52,1016.09c0,7.36,16.45,13.33,36.74,13.33s36.74-6,36.74-13.33"/><path class="cls-3" d="M1502.52,994.51c0,7.36,16.45,13.33,36.74,13.33s36.74-6,36.74-13.33"/><path class="cls-3" d="M1502.52,972.93c0,7.36,16.45,13.33,36.74,13.33s36.74-6,36.74-13.33"/><path class="cls-3" d="M1502.52,951.35c0,7.36,16.45,13.33,36.74,13.33s36.74-6,36.74-13.33"/><line class="cls-3" x1="1502.67" y1="928.55" x2="1502.67" y2="1014.18"/><line class="cls-3" x1="1576.15" y1="930.26" x2="1576.15" y2="1015.89"/><ellipse class="cls-3" cx="1415.91" cy="937.81" rx="8.59" ry="8.37"/><ellipse class="cls-3" cx="1415.91" cy="1009.81" rx="8.59" ry="8.37"/><ellipse class="cls-3" cx="1455.81" cy="939" rx="8.59" ry="8.37"/><line class="cls-3" x1="1415.91" y1="946.19" x2="1415.91" y2="1001.44"/><path class="cls-3" d="M1455.81,947.37v2.74A14.89,14.89,0,0,1,1440.93,965h-10.37a14.88,14.88,0,0,0-14.89,14.87v1.57"/><polygon class="cls-1" points="361.96 515.89 361.96 500.91 341.35 500.91 341.35 474.09 361.96 474.09 361.96 459.11 390.42 487.57 361.96 515.89"/><polygon class="cls-1" points="684.07 515.89 684.07 500.91 663.46 500.91 663.46 474.09 684.07 474.09 684.07 459.11 712.53 487.57 684.07 515.89"/><polygon class="cls-1" points="1006.18 515.89 1006.18 500.91 985.58 500.91 985.58 474.09 1006.18 474.09 1006.18 459.11 1034.64 487.57 1006.18 515.89"/><polygon class="cls-1" points="1328.3 515.89 1328.3 500.91 1307.69 500.91 1307.69 474.09 1328.3 474.09 1328.3 459.11 1356.75 487.57 1328.3 515.89"/></g><g id="sense-think-act"><text class="cls-10" transform="translate(157.08 82.07)">SENSE</text><text class="cls-10" transform="translate(793.48 82.27)">THINK</text><text class="cls-10" transform="translate(1460.81 81.67)"><tspan class="cls-11">A</tspan><tspan class="cls-12" x="21.25" y="0">C</tspan><tspan x="40.71" y="0">T</tspan></text><polygon class="cls-13" points="930.5 71 926.31 75.19 917.85 83.65 913.57 79.37 922.03 70.9 913.66 62.53 917.85 58.34 926.22 66.72 930.5 71"/><polygon class="cls-13" points="947.59 71 943.4 75.19 934.94 83.65 930.66 79.37 939.13 70.9 930.75 62.53 934.94 58.34 943.31 66.72 947.59 71"/><polygon class="cls-13" points="964.68 71 960.49 75.19 952.03 83.65 947.75 79.37 956.22 70.9 947.85 62.53 952.03 58.34 960.4 66.72 964.68 71"/><polygon class="cls-13" points="981.77 71 977.58 75.19 969.12 83.65 964.84 79.37 973.31 70.9 964.94 62.53 969.12 58.34 977.49 66.72 981.77 71"/><polygon class="cls-13" points="998.86 71 994.67 75.19 986.21 83.65 981.93 79.37 990.4 70.9 982.03 62.53 986.21 58.34 994.58 66.72 998.86 71"/><polygon class="cls-13" points="1015.95 71 1011.76 75.19 1003.3 83.65 999.02 79.37 1007.49 70.9 999.12 62.53 1003.3 58.34 1011.67 66.72 1015.95 71"/><polygon class="cls-13" points="1033.04 71 1028.85 75.19 1020.39 83.65 1016.11 79.37 1024.58 70.9 1016.21 62.53 1020.39 58.34 1028.76 66.72 1033.04 71"/><polygon class="cls-13" points="1050.13 71 1045.94 75.19 1037.48 83.65 1033.2 79.37 1041.67 70.9 1033.3 62.53 1037.48 58.34 1045.85 66.72 1050.13 71"/><polygon class="cls-13" points="1067.22 71 1063.03 75.19 1054.57 83.65 1050.3 79.37 1058.76 70.9 1050.39 62.53 1054.57 58.34 1062.94 66.72 1067.22 71"/><polygon class="cls-13" points="1084.31 71 1080.12 75.19 1071.66 83.65 1067.38 79.37 1075.85 70.9 1067.48 62.53 1071.66 58.34 1080.03 66.72 1084.31 71"/><polygon class="cls-13" points="1101.4 71 1097.21 75.19 1088.75 83.65 1084.47 79.37 1092.94 70.9 1084.57 62.53 1088.75 58.34 1097.12 66.72 1101.4 71"/><polygon class="cls-13" points="1118.49 71 1114.3 75.19 1105.84 83.65 1101.57 79.37 1110.03 70.9 1101.66 62.53 1105.84 58.34 1114.21 66.72 1118.49 71"/><polygon class="cls-13" points="1135.58 71 1131.39 75.19 1122.93 83.65 1118.66 79.37 1127.12 70.9 1118.75 62.53 1122.93 58.34 1131.3 66.72 1135.58 71"/><polygon class="cls-13" points="1152.67 71 1148.48 75.19 1140.02 83.65 1135.75 79.37 1144.21 70.9 1135.84 62.53 1140.02 58.34 1148.39 66.72 1152.67 71"/><polygon class="cls-13" points="1169.76 71 1165.57 75.19 1157.11 83.65 1152.84 79.37 1161.3 70.9 1152.93 62.53 1157.11 58.34 1165.48 66.72 1169.76 71"/><polygon class="cls-13" points="1186.85 71 1182.66 75.19 1174.2 83.65 1169.93 79.37 1178.39 70.9 1170.02 62.53 1174.2 58.34 1182.57 66.72 1186.85 71"/><polygon class="cls-13" points="1203.94 71 1199.75 75.19 1191.29 83.65 1187.02 79.37 1195.48 70.9 1187.11 62.53 1191.29 58.34 1199.66 66.72 1203.94 71"/><polygon class="cls-13" points="1221.03 71 1216.85 75.19 1208.38 83.65 1204.11 79.37 1212.57 70.9 1204.2 62.53 1208.38 58.34 1216.75 66.72 1221.03 71"/><polygon class="cls-13" points="1238.13 71 1233.93 75.19 1225.47 83.65 1221.2 79.37 1229.66 70.9 1221.29 62.53 1225.47 58.34 1233.84 66.72 1238.13 71"/><polygon class="cls-13" points="1255.21 71 1251.03 75.19 1242.56 83.65 1238.29 79.37 1246.75 70.9 1238.38 62.53 1242.56 58.34 1250.93 66.72 1255.21 71"/><polygon class="cls-13" points="1272.31 71 1268.12 75.19 1259.65 83.65 1255.38 79.37 1263.84 70.9 1255.47 62.53 1259.65 58.34 1268.02 66.72 1272.31 71"/><polygon class="cls-13" points="1289.4 71 1285.21 75.19 1276.74 83.65 1272.47 79.37 1280.93 70.9 1272.56 62.53 1276.74 58.34 1285.11 66.72 1289.4 71"/><polygon class="cls-13" points="1306.49 71 1302.3 75.19 1293.83 83.65 1289.56 79.37 1298.02 70.9 1289.65 62.53 1293.83 58.34 1302.2 66.72 1306.49 71"/><polygon class="cls-13" points="1323.58 71 1319.39 75.19 1310.92 83.65 1306.65 79.37 1315.11 70.9 1306.74 62.53 1310.92 58.34 1319.29 66.72 1323.58 71"/><polygon class="cls-13" points="1340.67 71 1336.48 75.19 1328.01 83.65 1323.74 79.37 1332.2 70.9 1323.83 62.53 1328.01 58.34 1336.38 66.72 1340.67 71"/><polygon class="cls-13" points="1357.76 71 1353.57 75.19 1345.1 83.65 1340.83 79.37 1349.29 70.9 1340.92 62.53 1345.1 58.34 1353.47 66.72 1357.76 71"/><polygon class="cls-13" points="1374.85 71 1370.66 75.19 1362.19 83.65 1357.92 79.37 1366.38 70.9 1358.01 62.53 1362.19 58.34 1370.57 66.72 1374.85 71"/><polygon class="cls-13" points="1391.94 71 1387.75 75.19 1379.29 83.65 1375.01 79.37 1383.47 70.9 1375.1 62.53 1379.29 58.34 1387.65 66.72 1391.94 71"/><polygon class="cls-13" points="1409.03 71 1404.84 75.19 1396.38 83.65 1392.1 79.37 1400.57 70.9 1392.19 62.53 1396.38 58.34 1404.75 66.72 1409.03 71"/><polygon class="cls-13" points="1428.73 71 1424.54 75.19 1416.08 83.65 1411.8 79.37 1420.27 70.9 1411.9 62.53 1416.08 58.34 1424.45 66.72 1428.73 71"/><polygon class="cls-13" points="1445.82 71 1441.63 75.19 1433.17 83.65 1428.89 79.37 1437.36 70.9 1428.99 62.53 1433.17 58.34 1441.54 66.72 1445.82 71"/><polygon class="cls-13" points="300.8 71 296.61 75.19 288.15 83.65 283.87 79.37 292.34 70.9 283.96 62.53 288.15 58.34 296.52 66.72 300.8 71"/><polygon class="cls-13" points="317.89 71 313.7 75.19 305.24 83.65 300.96 79.37 309.43 70.9 301.06 62.53 305.24 58.34 313.61 66.72 317.89 71"/><polygon class="cls-13" points="334.98 71 330.79 75.19 322.33 83.65 318.05 79.37 326.52 70.9 318.15 62.53 322.33 58.34 330.7 66.72 334.98 71"/><polygon class="cls-13" points="352.07 71 347.88 75.19 339.42 83.65 335.14 79.37 343.61 70.9 335.24 62.53 339.42 58.34 347.79 66.72 352.07 71"/><polygon class="cls-13" points="369.16 71 364.97 75.19 356.51 83.65 352.23 79.37 360.7 70.9 352.33 62.53 356.51 58.34 364.88 66.72 369.16 71"/><polygon class="cls-13" points="386.25 71 382.06 75.19 373.6 83.65 369.32 79.37 377.79 70.9 369.42 62.53 373.6 58.34 381.97 66.72 386.25 71"/><polygon class="cls-13" points="403.34 71 399.15 75.19 390.69 83.65 386.41 79.37 394.88 70.9 386.51 62.53 390.69 58.34 399.06 66.72 403.34 71"/><polygon class="cls-13" points="420.43 71 416.24 75.19 407.78 83.65 403.5 79.37 411.97 70.9 403.6 62.53 407.78 58.34 416.15 66.72 420.43 71"/><polygon class="cls-13" points="437.52 71 433.33 75.19 424.87 83.65 420.6 79.37 429.06 70.9 420.69 62.53 424.87 58.34 433.24 66.72 437.52 71"/><polygon class="cls-13" points="454.61 71 450.42 75.19 441.96 83.65 437.69 79.37 446.15 70.9 437.78 62.53 441.96 58.34 450.33 66.72 454.61 71"/><polygon class="cls-13" points="471.7 71 467.51 75.19 459.05 83.65 454.78 79.37 463.24 70.9 454.87 62.53 459.05 58.34 467.42 66.72 471.7 71"/><polygon class="cls-13" points="488.79 71 484.6 75.19 476.14 83.65 471.87 79.37 480.33 70.9 471.96 62.53 476.14 58.34 484.51 66.72 488.79 71"/><polygon class="cls-13" points="505.88 71 501.69 75.19 493.23 83.65 488.96 79.37 497.42 70.9 489.05 62.53 493.23 58.34 501.6 66.72 505.88 71"/><polygon class="cls-13" points="522.97 71 518.78 75.19 510.32 83.65 506.05 79.37 514.51 70.9 506.14 62.53 510.32 58.34 518.69 66.72 522.97 71"/><polygon class="cls-13" points="540.06 71 535.87 75.19 527.41 83.65 523.14 79.37 531.6 70.9 523.23 62.53 527.41 58.34 535.78 66.72 540.06 71"/><polygon class="cls-13" points="557.15 71 552.96 75.19 544.5 83.65 540.23 79.37 548.69 70.9 540.32 62.53 544.5 58.34 552.87 66.72 557.15 71"/><polygon class="cls-13" points="574.24 71 570.05 75.19 561.59 83.65 557.32 79.37 565.78 70.9 557.41 62.53 561.59 58.34 569.96 66.72 574.24 71"/><polygon class="cls-13" points="591.34 71 587.14 75.19 578.68 83.65 574.41 79.37 582.87 70.9 574.5 62.53 578.68 58.34 587.05 66.72 591.34 71"/><polygon class="cls-13" points="608.42 71 604.24 75.19 595.77 83.65 591.5 79.37 599.96 70.9 591.59 62.53 595.77 58.34 604.14 66.72 608.42 71"/><polygon class="cls-13" points="625.51 71 621.33 75.19 612.86 83.65 608.59 79.37 617.05 70.9 608.68 62.53 612.86 58.34 621.23 66.72 625.51 71"/><polygon class="cls-13" points="642.61 71 638.42 75.19 629.95 83.65 625.68 79.37 634.14 70.9 625.77 62.53 629.95 58.34 638.32 66.72 642.61 71"/><polygon class="cls-13" points="659.7 71 655.51 75.19 647.04 83.65 642.77 79.37 651.23 70.9 642.86 62.53 647.04 58.34 655.41 66.72 659.7 71"/><polygon class="cls-13" points="676.79 71 672.6 75.19 664.13 83.65 659.86 79.37 668.32 70.9 659.95 62.53 664.13 58.34 672.5 66.72 676.79 71"/><polygon class="cls-13" points="693.88 71 689.69 75.19 681.22 83.65 676.95 79.37 685.41 70.9 677.04 62.53 681.22 58.34 689.59 66.72 693.88 71"/><polygon class="cls-13" points="710.97 71 706.78 75.19 698.31 83.65 694.04 79.37 702.5 70.9 694.13 62.53 698.31 58.34 706.68 66.72 710.97 71"/><polygon class="cls-13" points="728.06 71 723.87 75.19 715.4 83.65 711.13 79.37 719.59 70.9 711.22 62.53 715.4 58.34 723.77 66.72 728.06 71"/><polygon class="cls-13" points="745.15 71 740.96 75.19 732.5 83.65 728.22 79.37 736.68 70.9 728.31 62.53 732.5 58.34 740.87 66.72 745.15 71"/><polygon class="cls-13" points="762.24 71 758.05 75.19 749.59 83.65 745.31 79.37 753.77 70.9 745.4 62.53 749.59 58.34 757.96 66.72 762.24 71"/><polygon class="cls-13" points="779.33 71 775.14 75.19 766.68 83.65 762.4 79.37 770.87 70.9 762.49 62.53 766.68 58.34 775.05 66.72 779.33 71"/></g><g id="forditott"><rect class="cls-14" x="79.07" y="878.34" width="248.15" height="270.22" rx="26.27"/><circle class="cls-15" cx="143.77" cy="1044.53" r="17.44"/><circle class="cls-15" cx="271.36" cy="1044.53" r="17.44"/><polyline class="cls-15" points="118.58 1051.37 104.22 1044.54 104.22 1007.42 132.88 997.87 160.22 981.87 160.22 967.87 225.55 967.87 225.55 981.42 249.55 999.42"/><line class="cls-15" x1="104.22" y1="1017.87" x2="119.55" y2="1017.87"/><path class="cls-15" d="M132.88,997.87l16.23,11.8H264.76a10.34,10.34,0,0,1,2,.19l25.18,4.79a21.82,21.82,0,0,1,17.73,20.72l.35,10.42a5.45,5.45,0,0,1-5.32,5.58h-9.62"/><line class="cls-15" x1="167.99" y1="1051.37" x2="243.99" y2="1051.37"/><path class="cls-15" d="M194.88,1017.87v33.5"/><line class="cls-15" x1="160.22" y1="981.87" x2="225.55" y2="981.87"/><line class="cls-15" x1="194.88" y1="981.87" x2="194.88" y2="1003.2"/><line class="cls-15" x1="186.22" y1="967.87" x2="186.22" y2="949.87"/><line class="cls-15" x1="201.11" y1="967.87" x2="201.11" y2="949.87"/><line class="cls-15" x1="178.44" y1="949.87" x2="208.11" y2="949.87"/><path class="cls-15" d="M146.07,966.67a17.22,17.22,0,0,1,1-30.08"/><path class="cls-15" d="M120.73,985.72A48.16,48.16,0,0,1,125.26,914"/><path class="cls-15" d="M132.45,976.89A33.67,33.67,0,0,1,130,929.35a34.48,34.48,0,0,1,5.49-4.89"/><path class="cls-15" d="M246.2,934.54a17.22,17.22,0,0,1,1,30.08"/><path class="cls-15" d="M268.05,912a48.15,48.15,0,0,1,8.15,67.61,51.06,51.06,0,0,1-3.65,4.13"/><path class="cls-15" d="M257.9,922.46a33.65,33.65,0,0,1,7.89,46.94,32.73,32.73,0,0,1-4.89,5.49"/></g><g id="szöveg_hun"><path class="cls-16" d="M99.76,237.47V211.7h17v4.52h-12v6H115v4.48H104.79V233h11.95v4.49Zm9.34-28.25H106l2.32-6.16h5Z"/><path class="cls-16" d="M135.34,237.47l-5-10.28h-3.62v10.28h-5V211.7h10.09c5.25,0,8.36,3.59,8.36,7.89a6.93,6.93,0,0,1-4.7,6.77l5.75,11.11Zm-3.91-21.25h-4.74V223h4.74a3.41,3.41,0,1,0,.37-6.81Z"/><path class="cls-16" d="M143.77,237.47v-4.05l11-17.23H144.24V211.7h16.47v4l-11,17.3h11v4.49Z"/><path class="cls-16" d="M165.16,237.47V211.7h17v4.52h-12v6h10.17v4.48H170.19V233h11.94v4.49Zm9.33-28.25h-3.15l2.32-6.16h5Z"/><path class="cls-16" d="M202,237.47l-6.62-11.72-3.33,4v7.74h-5V211.7h5v11.22l9.09-11.22h6.11L198.71,222l9.16,15.52Z"/><path class="cls-16" d="M211.12,237.47V211.7h17v4.52h-12v6h10.17v4.48H216.15V233h11.94v4.49Z"/><path class="cls-16" d="M233,237.47V211.7h5V233h11.69v4.49Z"/><path class="cls-16" d="M253.82,237.47V211.7h17v4.52h-12v6H269v4.48H258.85V233h11.94v4.49Zm9.34-28.25H260l2.32-6.16h4.95Z"/><path class="cls-16" d="M282.81,237.69c-3.91,0-6.88-.83-9.41-3.4l3.26-3.26a8.42,8.42,0,0,0,6.22,2.17c3,0,4.56-1.12,4.56-3.18a2.9,2.9,0,0,0-.79-2.18,4,4,0,0,0-2.28-.9l-3.12-.43a8.71,8.71,0,0,1-5-2.14,6.8,6.8,0,0,1-1.85-5.07c0-4.59,3.4-7.81,9-7.81,3.54,0,6.11.86,8.32,3l-3.18,3.15a7.16,7.16,0,0,0-5.29-1.77c-2.68,0-4,1.48-4,3.25A2.51,2.51,0,0,0,280,221a4.4,4.4,0,0,0,2.39,1l3,.44a8.43,8.43,0,0,1,4.92,2,7.19,7.19,0,0,1,2,5.46C292.36,234.87,288.2,237.69,282.81,237.69Z"/><path class="cls-16" d="M437.09,237.47V211.7h17v4.52h-12v6h10.17v4.49H442.12V233h11.94v4.49Zm9.34-28.25h-3.15l2.31-6.15h5Z"/><path class="cls-16" d="M466.08,237.69c-3.91,0-6.88-.83-9.41-3.4l3.25-3.26a8.44,8.44,0,0,0,6.23,2.17c3,0,4.56-1.12,4.56-3.18a2.88,2.88,0,0,0-.8-2.18,3.82,3.82,0,0,0-2.28-.9l-3.11-.43a8.71,8.71,0,0,1-5-2.14,6.8,6.8,0,0,1-1.85-5.07c0-4.59,3.4-7.82,9-7.82,3.54,0,6.11.87,8.32,3l-3.18,3.15a7.21,7.21,0,0,0-5.29-1.78c-2.68,0-4,1.49-4,3.26a2.51,2.51,0,0,0,.76,1.85,4.4,4.4,0,0,0,2.39,1l3,.44a8.43,8.43,0,0,1,4.92,2,7.19,7.19,0,0,1,2,5.46C475.63,234.87,471.47,237.69,466.08,237.69Z"/><path class="cls-16" d="M478.81,237.47v-4.05l11-17.23H479.29V211.7h16.46v4l-11,17.3h11v4.49Z"/><path class="cls-16" d="M500.2,237.47V211.7h5V233h11.69v4.49Z"/><path class="cls-16" d="M521,237.47V211.7h17v4.52H526v6h10.17v4.49H526V233h12v4.49Z"/><path class="cls-16" d="M542.91,237.47V211.7h5V233H559.6v4.49Z"/><path class="cls-16" d="M563.71,237.47V211.7h17v4.52h-12v6h10.17v4.49H568.75V233h11.94v4.49Zm9.34-28.25H569.9l2.32-6.15h5Z"/><path class="cls-16" d="M592.7,237.69c-3.91,0-6.87-.83-9.41-3.4l3.26-3.26a8.44,8.44,0,0,0,6.23,2.17c3,0,4.56-1.12,4.56-3.18a2.88,2.88,0,0,0-.8-2.18,3.82,3.82,0,0,0-2.28-.9l-3.11-.43a8.85,8.85,0,0,1-5-2.14,6.83,6.83,0,0,1-1.84-5.07c0-4.59,3.4-7.82,9-7.82,3.55,0,6.12.87,8.33,3l-3.19,3.15a7.19,7.19,0,0,0-5.28-1.78c-2.68,0-4,1.49-4,3.26a2.47,2.47,0,0,0,.76,1.85,4.33,4.33,0,0,0,2.39,1l3,.44a8.43,8.43,0,0,1,4.92,2,7.22,7.22,0,0,1,2,5.46C602.26,234.87,598.1,237.69,592.7,237.69Z"/><path class="cls-16" d="M769.37,216.22V237.5h-5V216.22h-6.73v-4.49H776.1v4.49Z"/><path class="cls-16" d="M780.19,237.47V211.7h17v4.52h-12v6h10.17v4.49H785.22V233h11.94v4.49Z"/><path class="cls-16" d="M815.76,237.47l-5-10.28h-3.62v10.28h-5V211.7h10.1c5.25,0,8.36,3.59,8.36,7.89a6.94,6.94,0,0,1-4.7,6.77l5.75,11.11Zm-3.91-21.25h-4.74V223h4.74a3.41,3.41,0,0,0,.52-6.8Z"/><path class="cls-16" d="M835.12,237.47h-3.76l-8.51-25.77h5.22l5.17,16.8,5.18-16.8h5.25Z"/><path class="cls-16" d="M846.78,237.47V211.7h17v4.52h-12v6H862v4.49H851.81V233h11.94v4.49Z"/><path class="cls-16" d="M867.11,237.47v-4.05l11-17.23H867.58V211.7h16.47v4l-11,17.3h11v4.49Z"/><path class="cls-16" d="M888.5,237.47V211.7h17v4.52h-12v6h10.2v4.49H893.53V233h12v4.49Zm9.34-28.25h-3.15l2.32-6.15h5Z"/><path class="cls-16" d="M917.49,237.69c-3.91,0-6.88-.83-9.41-3.4l3.26-3.26a8.42,8.42,0,0,0,6.22,2.17c3,0,4.56-1.12,4.56-3.18a2.9,2.9,0,0,0-.79-2.18,3.88,3.88,0,0,0-2.28-.9l-3.12-.43a8.85,8.85,0,0,1-5-2.14,6.8,6.8,0,0,1-1.85-5.07c0-4.59,3.41-7.82,9-7.82,3.55,0,6.12.87,8.32,3l-3.18,3.15a7.21,7.21,0,0,0-5.29-1.78c-2.67,0-4,1.49-4,3.26a2.51,2.51,0,0,0,.76,1.85,4.4,4.4,0,0,0,2.39,1l3,.44a8.46,8.46,0,0,1,4.93,2,7.22,7.22,0,0,1,2,5.46C927.05,234.87,922.88,237.69,917.49,237.69Z"/><path class="cls-16" d="M1069.29,237.69c-3.91,0-6.87-.83-9.41-3.4l3.26-3.26a8.44,8.44,0,0,0,6.23,2.17c3,0,4.56-1.12,4.56-3.18a2.88,2.88,0,0,0-.8-2.18,4,4,0,0,0-2.28-.9l-3.11-.43a8.85,8.85,0,0,1-5-2.14,6.83,6.83,0,0,1-1.84-5.07c0-4.59,3.4-7.81,9-7.81,3.55,0,6.12.86,8.33,3l-3.19,3.15a7.14,7.14,0,0,0-5.28-1.77c-2.68,0-4,1.48-4,3.25a2.47,2.47,0,0,0,.76,1.85,4.33,4.33,0,0,0,2.39,1l3,.44a8.43,8.43,0,0,1,4.92,2,7.22,7.22,0,0,1,2,5.46C1078.85,234.87,1074.69,237.69,1069.29,237.69Z"/><path class="cls-16" d="M1082,237.47v-4.05l11-17.2h-10.5v-4.49H1099v4L1088,233h11v4.49Z"/><path class="cls-16" d="M1118.08,237.47l-1.52-4.56h-9.16l-1.56,4.56h-5.24L1110,211.7h4l9.41,25.77Zm-6-18.17-3.26,9.38h6.41Z"/><path class="cls-16" d="M1137.29,237.47h-10.78V211.7h10.35c5,0,8,2.83,8,7.24a6,6,0,0,1-3.18,5.32,6,6,0,0,1,3.54,5.79C1145.18,234.87,1141.89,237.47,1137.29,237.47Zm-.83-21.28h-4.92v5.94h4.92c2.14,0,3.33-1.2,3.33-3s-1.19-2.91-3.33-2.91Zm.33,10.46h-5.25V233h5.25a3.17,3.17,0,0,0,.36-6.33A2.16,2.16,0,0,0,1136.79,226.65Z"/><path class="cls-16" d="M1165,237.47l-1.52-4.56h-9.16l-1.55,4.56h-5.25l9.37-25.77h4l9.41,25.77Zm-6-18.17-3.26,9.38h6.41Zm1-10.09h-3.15l2.32-6.16h5Z"/><path class="cls-16" d="M1173.41,237.47V211.7h5V233h11.69v4.49Z"/><path class="cls-16" d="M1201.17,226.9v10.57h-5V226.9l-7.74-15.2h5.46l4.82,10.39,4.74-10.39h5.46Z"/><path class="cls-16" d="M1210.47,237.47v-4.05l11-17.23h-10.53V211.7h16.47v4l-11,17.3h11v4.49Z"/><path class="cls-16" d="M1246.51,237.47l-1.52-4.56h-9.15l-1.56,4.56H1229l9.38-25.77h3.94l9.41,25.77Zm-6-18.17-3.25,9.38h6.4Zm1-10.09h-3.15l2.32-6.16h5Z"/><path class="cls-16" d="M1262,237.69c-3.91,0-6.88-.83-9.41-3.4l3.25-3.26a8.44,8.44,0,0,0,6.23,2.17c3,0,4.56-1.12,4.56-3.18a2.88,2.88,0,0,0-.8-2.18,3.88,3.88,0,0,0-2.28-.9l-3.11-.43a8.71,8.71,0,0,1-5-2.14,6.8,6.8,0,0,1-1.85-5.07c0-4.59,3.4-7.81,9-7.81,3.54,0,6.11.86,8.32,3l-3.18,3.15a7.16,7.16,0,0,0-5.29-1.77c-2.68,0-4,1.48-4,3.25a2.51,2.51,0,0,0,.76,1.85,4.4,4.4,0,0,0,2.39,1l3,.44a8.43,8.43,0,0,1,4.92,2,7.19,7.19,0,0,1,2,5.46C1271.59,234.87,1267.43,237.69,1262,237.69Z"/><path class="cls-16" d="M1393.94,237.47l-1.52-4.56h-9.16l-1.56,4.56h-5.24l9.37-25.77h3.94l9.41,25.77Zm-6-18.17-3.26,9.38h6.41Z"/><path class="cls-16" d="M1417.35,237.47l-6.62-11.72-3.33,4v7.74h-5V211.7h5v11.22l9.08-11.22h6.12L1414.06,222l9.15,15.52Z"/><path class="cls-16" d="M1436.28,216.22V237.5h-5V216.22h-6.74v-4.49H1443v4.49Z"/><path class="cls-16" d="M1456.18,237.69c-5.28,0-9.48-3.58-9.48-9.05V211.7h5v16.76c0,3,1.74,4.74,4.45,4.74s4.49-1.77,4.49-4.74V211.7h5v16.94C1465.66,234.11,1461.47,237.69,1456.18,237.69Z"/><path class="cls-16" d="M1485.93,237.47l-1.52-4.56h-9.16l-1.55,4.56h-5.25l9.37-25.77h4l9.41,25.77Zm-6-18.17-3.26,9.38h6.41Zm1-10.09h-3.15l2.32-6.16h5Z"/><path class="cls-16" d="M1502,216.22V237.5h-5V216.22h-6.73v-4.49h18.5v4.49Z"/><path class="cls-16" d="M1527.73,234.87a10,10,0,0,1-13.94,0c-2.6-2.61-2.53-5.83-2.53-10.28s-.07-7.68,2.53-10.28a10,10,0,0,1,13.94,0c2.6,2.6,2.57,5.83,2.57,10.28S1530.33,232.22,1527.73,234.87ZM1524,217.35a4.2,4.2,0,0,0-3.22-1.38,4.3,4.3,0,0,0-3.26,1.38c-1,1.08-1.23,2.28-1.23,7.24s.25,6.15,1.23,7.24a4.25,4.25,0,0,0,3.26,1.37,4.15,4.15,0,0,0,3.22-1.37c1-1.09,1.27-2.28,1.27-7.24S1525,218.43,1524,217.35Z"/><path class="cls-16" d="M1549.12,237.47l-5-10.28h-3.62v10.28h-5V211.7h10.09c5.25,0,8.36,3.59,8.36,7.89a6.93,6.93,0,0,1-4.7,6.77l5.75,11.11Zm-3.91-21.25h-4.74V223h4.74a3.41,3.41,0,0,0,.37-6.81Z"/><path class="cls-16" d="M1574.7,234.87a10,10,0,0,1-13.93,0c-2.61-2.61-2.54-5.83-2.54-10.28s-.07-7.68,2.54-10.28a10,10,0,0,1,13.93,0c2.61,2.6,2.57,5.83,2.57,10.28S1577.31,232.22,1574.7,234.87Zm-3.7-17.52a4.2,4.2,0,0,0-3.22-1.38,4.26,4.26,0,0,0-3.25,1.38c-1,1.08-1.23,2.28-1.23,7.24s.25,6.15,1.23,7.24a4.22,4.22,0,0,0,3.25,1.37,4.15,4.15,0,0,0,3.22-1.37c1-1.09,1.27-2.28,1.27-7.24S1572,218.43,1571,217.35Z"/><path class="cls-16" d="M1597.39,237.47l-6.62-11.72-3.33,4v7.74h-5V211.7h5v11.22l9.09-11.22h6.11L1594.1,222l9.16,15.52Z"/><path class="cls-16" d="M120,1119c-3.91,0-6.88-.83-9.41-3.4l3.25-3.26a8.45,8.45,0,0,0,6.23,2.18c3,0,4.56-1.13,4.56-3.19a2.87,2.87,0,0,0-.8-2.17,3.77,3.77,0,0,0-2.28-.91l-3.11-.43a8.68,8.68,0,0,1-5-2.14,6.77,6.77,0,0,1-1.85-5.06c0-4.6,3.4-7.82,9-7.82,3.54,0,6.11.87,8.32,3l-3.18,3.15a7.24,7.24,0,0,0-5.29-1.77c-2.68,0-4,1.48-4,3.26a2.5,2.5,0,0,0,.76,1.84,4.4,4.4,0,0,0,2.39,1l3,.44a8.59,8.59,0,0,1,4.92,2,7.21,7.21,0,0,1,2,5.47C129.51,1116.22,125.35,1119,120,1119Z"/><path class="cls-16" d="M132.59,1118.81v-3.59l8.41-11h-7.89V1100H147v3.58l-8.46,11H147v4.24Z"/><path class="cls-16" d="M151.12,1096.73v-3.84h4.81v3.84Zm.07,22.08V1100h4.7v18.86Z"/><path class="cls-16" d="M183.07,1118.81V1107.4c0-2.56-1.63-3.43-3.11-3.43a3,3,0,0,0-3.16,2.83,2.79,2.79,0,0,0,0,.5v11.51h-4.7V1107.4c0-2.56-1.63-3.43-3.12-3.43s-3.15.87-3.15,3.43v11.41h-4.7V1100h4.6v1.74a6.6,6.6,0,0,1,4.7-2,5.88,5.88,0,0,1,5,2.39,7.2,7.2,0,0,1,5.64-2.39,6.57,6.57,0,0,1,4.63,1.67,7.12,7.12,0,0,1,2.07,5.35v12.06Z"/><path class="cls-16" d="M203.7,1118.81v-1.74a6.43,6.43,0,0,1-4.7,2,6.11,6.11,0,0,1-4.45-1.66,7,7,0,0,1-1.92-5.36v-12h4.71v11.4c0,2.57,1.63,3.44,3.11,3.44s3.15-.87,3.15-3.44V1100h4.71v18.86Z"/><path class="cls-16" d="M218.9,1118.81a5.12,5.12,0,0,1-5.49-4.74,4.85,4.85,0,0,1,0-.66V1093h4.7v20.08c0,1.13.47,1.7,1.67,1.7h1.81v4Z"/><path class="cls-16" d="M235,1118.81v-1.59a5.73,5.73,0,0,1-4.63,1.81,6.46,6.46,0,0,1-4.81-1.67,6,6,0,0,1-1.56-4.23c0-3,2.06-5.47,6.44-5.47h4.45v-.94c0-2.06-1-3-3.51-3a4.06,4.06,0,0,0-3.62,1.56l-3-2.93c1.85-2,3.66-2.61,6.81-2.61,5.28,0,8,2.25,8,6.66v12.42Zm-.11-8h-3.72c-1.7,0-2.65.8-2.65,2.14s.87,2.17,2.72,2.17a3.77,3.77,0,0,0,3-.9,3.17,3.17,0,0,0,.68-2.39Zm-1.59-13.9h-3.15l2.32-6.15h5Z"/><path class="cls-16" d="M252.16,1119c-3.77,0-8.44-2-8.44-9.66s4.67-9.63,8.44-9.63a8,8,0,0,1,6.22,2.53l-3.18,3.19a3.83,3.83,0,0,0-3-1.48,3.27,3.27,0,0,0-2.68,1.23c-.73.9-1,2.17-1,4.16a6.48,6.48,0,0,0,1,4.2,3.27,3.27,0,0,0,2.68,1.23,3.83,3.83,0,0,0,3-1.49l3.18,3.15A8,8,0,0,1,252.16,1119Z"/><path class="cls-16" d="M262,1096.73v-3.84h4.82v3.84Zm.08,22.08V1100h4.7v18.86Z"/><path class="cls-16" d="M285,1116.71a7.83,7.83,0,0,1-5.87,2.31,7.7,7.7,0,0,1-5.82-2.31c-1.7-1.78-2.14-3.91-2.14-7.35s.44-5.54,2.14-7.31a7.75,7.75,0,0,1,5.82-2.32,7.84,7.84,0,0,1,5.87,2.32c1.7,1.77,2.13,3.91,2.13,7.31S286.72,1114.93,285,1116.71Zm-3.66-11.91a3,3,0,0,0-2.21-.83,2.92,2.92,0,0,0-2.17.83c-1,1-1.08,2.6-1.08,4.56s.1,3.62,1.08,4.6a2.88,2.88,0,0,0,2.17.83,3,3,0,0,0,2.21-.83c1-1,1.09-2.65,1.09-4.6s-.09-3.58-1.07-4.56Zm-1-7.86H277.2l2.32-6.15h5Z"/><path class="cls-16" d="M456,1118.81H445.23V1093h10.35c5,0,8,2.82,8,7.23a6.28,6.28,0,0,0,.36,11.12C463.91,1116.22,460.61,1118.81,456,1118.81Zm-.83-21.29h-4.93v5.94h4.93c2.13,0,3.33-1.2,3.33-3s-1.18-2.94-3.31-2.94Zm.32,10.46h-5.25v6.34h5.25a3.18,3.18,0,0,0,.5-6.34Z"/><path class="cls-16" d="M468.61,1096.73v-3.84h4.81v3.84Zm.07,22.08V1100h4.71v18.86Z"/><path class="cls-16" d="M477.33,1118.81v-3.59l8.36-11H477.8V1100h13.9v3.58l-8.47,11h8.47v4.24Z"/><path class="cls-16" d="M501.83,1118.81a5.13,5.13,0,0,1-5.46-4.76c0-.21,0-.43,0-.64v-9.33h-2v-3.59h2v-5.57h4.7v5.57h3.33v3.59h-3.33v9c0,1.09.51,1.7,1.63,1.7h1.7v4Z"/><path class="cls-16" d="M521.59,1116.71a8.55,8.55,0,0,1-11.69,0c-1.7-1.78-2.13-3.91-2.13-7.35s.43-5.54,2.13-7.31a8.53,8.53,0,0,1,11.69,0c1.7,1.77,2.14,3.91,2.14,7.31S523.29,1114.93,521.59,1116.71Zm-3.65-11.91a3,3,0,0,0-2.21-.83,2.88,2.88,0,0,0-2.17.83c-1,1-1.09,2.6-1.09,4.56s.11,3.62,1.09,4.6a2.88,2.88,0,0,0,2.17.83,3,3,0,0,0,2.21-.83c1-1,1.08-2.65,1.08-4.6S518.92,1105.78,517.94,1104.8Z"/><path class="cls-16" d="M539.18,1118.81V1107.4c0-2.56-1.63-3.43-3.11-3.43s-3.15.87-3.15,3.43v11.41h-4.71V1100h4.6v1.73a6.49,6.49,0,0,1,4.71-2,6.16,6.16,0,0,1,4.45,1.67,7,7,0,0,1,1.92,5.35v12.06Z"/><path class="cls-16" d="M555.14,1119c-3,0-5.65-.32-8-2.71l3.07-3.08a6.86,6.86,0,0,0,5,1.78c1.63,0,3.33-.55,3.33-2,0-.94-.5-1.59-2-1.74l-3-.29c-3.4-.32-5.5-1.81-5.5-5.28,0-3.91,3.44-6,7.28-6,2.93,0,5.39.51,7.2,2.21l-2.89,2.93a6.61,6.61,0,0,0-4.38-1.27c-1.89,0-2.68.87-2.68,1.81,0,.69.29,1.49,1.95,1.63l3,.29c3.73.36,5.61,2.35,5.61,5.54C563.14,1117,559.59,1119,555.14,1119Z"/><path class="cls-16" d="M576.75,1118.81v-1.59a5.75,5.75,0,0,1-4.64,1.81,6.46,6.46,0,0,1-4.81-1.67,6.1,6.1,0,0,1-1.56-4.23c0-3,2.07-5.47,6.45-5.47h4.45v-.94c0-2.06-1-3-3.51-3a4,4,0,0,0-3.62,1.56l-3-2.93c1.85-2,3.66-2.61,6.81-2.61,5.28,0,8,2.25,8,6.66v12.42Zm-.11-8h-3.73c-1.7,0-2.64.8-2.64,2.14s.87,2.17,2.71,2.17a3.77,3.77,0,0,0,3-.9,3.12,3.12,0,0,0,.69-2.39Zm-1.6-13.9H571.9l2.31-6.15h5Z"/><path class="cls-16" d="M592.92,1125.93c-2.89,0-4.88-.57-6.84-2.46l2.93-3a4.84,4.84,0,0,0,3.7,1.44,3.57,3.57,0,0,0,3.8-3.9v-1.92A5.53,5.53,0,0,1,592,1118a6.27,6.27,0,0,1-4.49-1.67c-1.77-1.77-1.92-4.19-1.92-7.49s.15-5.68,1.92-7.45a6.34,6.34,0,0,1,4.52-1.67,5.52,5.52,0,0,1,4.6,2v-1.77h4.56v18.2C601.21,1122.64,598,1125.93,592.92,1125.93Zm.47-22c-2.78,0-3.07,2.38-3.07,4.88s.29,4.92,3.07,4.92,3.12-2.42,3.12-4.92-.33-4.84-3.12-4.84Z"/><path class="cls-16" d="M1116.47,1119c-5.29,0-9.49-3.58-9.49-9v-17h5v16.75c0,3,1.73,4.75,4.45,4.75s4.49-1.78,4.49-4.75V1093h5V1110C1126,1115.44,1121.75,1119,1116.47,1119Z"/><path class="cls-16" d="M1131.56,1118.81V1093h5v25.77Z"/><path class="cls-16" d="M1152.4,1121.48H1148l10.31-31.12h4.42Z"/><path class="cls-16" d="M1187.72,1118.81V1108H1179v10.79h-5V1093h5v10.53h8.72V1093h5v25.77Z"/><path class="cls-16" d="M1217.08,1118.81v-15l-4.93,9.77h-3.4l-5-9.77v15h-5V1093h5l6.73,13.93,6.7-13.93h5v25.77Z"/><path class="cls-16" d="M1228.11,1118.81V1093h5v25.77Z"/><path class="cls-16" d="M1424.92,1116.09a9.66,9.66,0,0,1-7.28,2.93,9.47,9.47,0,0,1-7-2.82,7.53,7.53,0,0,1-2.1-3.87,48.27,48.27,0,0,1,0-12.82,7.39,7.39,0,0,1,2.1-3.87,9.47,9.47,0,0,1,7-2.82c5.86,0,9,3.76,9.7,8.25h-5.07c-.61-2.5-2.13-3.76-4.63-3.76a4.15,4.15,0,0,0-3.22,1.37c-.94,1.2-1.23,2.14-1.23,7.24s.22,6.08,1.23,7.28a4,4,0,0,0,3.22,1.34,4.64,4.64,0,0,0,3.58-1.45,5.06,5.06,0,0,0,1.16-3.44v-1h-4.74v-4.2h9.74v3.77C1427.38,1112,1426.69,1114.22,1424.92,1116.09Z"/><path class="cls-16" d="M1431.65,1096.73v-3.84h4.81v3.84Zm.07,22.08V1100h4.7v18.86Z"/><path class="cls-16" d="M1447.57,1118.81a5.13,5.13,0,0,1-5.47-4.75c0-.21,0-.43,0-.65v-9.33h-2v-3.59h2v-5.57h4.71v5.57h3.33v3.59h-3.33v9c0,1.09.51,1.7,1.63,1.7h1.7v4Z"/><path class="cls-16" d="M1454.23,1124.78v-11.11h5.17v7.13Z"/><path class="cls-16" d="M1482.56,1118.81v-1.59a5.73,5.73,0,0,1-4.63,1.81,6.46,6.46,0,0,1-4.81-1.67,6,6,0,0,1-1.56-4.23c0-3,2.06-5.47,6.44-5.47h4.46v-.94c0-2.06-1-3-3.52-3a4,4,0,0,0-3.61,1.56l-3-2.93c1.85-2,3.66-2.61,6.81-2.61,5.28,0,8,2.25,8,6.66v12.42Zm-.1-8h-3.73c-1.7,0-2.65.8-2.65,2.14s.87,2.17,2.72,2.17a3.77,3.77,0,0,0,3-.9,3.13,3.13,0,0,0,.69-2.39Z"/><path class="cls-16" d="M1502.65,1118.81V1117a5.64,5.64,0,0,1-4.67,2,6.65,6.65,0,0,1-4.63-1.7c-1.89-1.88-1.92-5.14-1.92-8s0-6,1.92-7.93a6.53,6.53,0,0,1,4.59-1.7,5.68,5.68,0,0,1,4.6,1.88V1093h4.71v25.77Zm-3.33-14.84c-2.82,0-3.19,2.31-3.19,5.39s.37,5.43,3.19,5.43,3.22-2.35,3.22-5.43-.4-5.39-3.22-5.39Z"/><path class="cls-16" d="M1522.19,1118.81v-1.59a5.76,5.76,0,0,1-4.63,1.81,6.39,6.39,0,0,1-4.81-1.67,6,6,0,0,1-1.56-4.23c0-3,2.06-5.47,6.44-5.47h4.45v-.94c0-2.06-1-3-3.51-3a4.06,4.06,0,0,0-3.62,1.56l-3-2.93c1.84-2,3.65-2.61,6.8-2.61,5.29,0,8,2.25,8,6.66v12.42Zm-.11-8h-3.73c-1.7,0-2.64.8-2.64,2.14s.87,2.17,2.72,2.17a3.77,3.77,0,0,0,3-.9,3.17,3.17,0,0,0,.68-2.39Z"/><path class="cls-16" d="M1537.75,1118.81a5.13,5.13,0,0,1-5.46-4.76c0-.21,0-.43,0-.64v-9.33h-2v-3.59h2v-5.57h4.7v5.57h3.33v3.59H1537v9c0,1.09.51,1.7,1.63,1.7h1.7v4Z"/><path class="cls-16" d="M1557.51,1116.71a8.55,8.55,0,0,1-11.69,0c-1.7-1.78-2.13-3.91-2.13-7.35s.43-5.54,2.13-7.31a8.53,8.53,0,0,1,11.69,0c1.7,1.77,2.14,3.91,2.14,7.31S1559.21,1114.93,1557.51,1116.71Zm-3.65-11.91a3,3,0,0,0-2.21-.83,2.88,2.88,0,0,0-2.17.83c-1,1-1.09,2.6-1.09,4.56s.11,3.62,1.09,4.6a2.88,2.88,0,0,0,2.17.83,3,3,0,0,0,2.21-.83c1-1,1.08-2.65,1.08-4.6S1554.83,1105.78,1553.86,1104.8Z"/><path class="cls-16" d="M1575.46,1118.81l-4.63-7.86-2,2.25v5.61h-4.71V1093h4.71v14.62l6.26-7.71h5.68l-6.73,7.6,7.24,11.26Z"/><path class="cls-16" d="M99,739.14v-9.92h2v8.23h4.52v1.74Z"/><path class="cls-16" d="M107.06,739.14v-9.92h2v10Z"/><path class="cls-16" d="M117.56,738.22a3.6,3.6,0,0,1-2.63.95h-3.6v-9.95h3.6a3.59,3.59,0,0,1,2.63.95c1.13,1.12,1,2.49,1,4S118.69,737.07,117.56,738.22Zm-1.35-6.67a1.74,1.74,0,0,0-1.46-.62h-1.47v6.5h1.47a1.76,1.76,0,0,0,1.46-.61c.36-.45.42-1.17.42-2.68s-.06-2.17-.42-2.62Z"/><path class="cls-16" d="M126.09,739.14l-.59-1.77H122l-.6,1.77h-2l3.6-9.92h1.53l3.64,10Zm-2.33-7-1.26,3.62H125Z"/><path class="cls-16" d="M134.64,739.14l-1.94-4h-1.4v4h-2v-9.92h3.91a3,3,0,0,1,3.22,2.76,1.93,1.93,0,0,1,0,.24,2.67,2.67,0,0,1-1.82,2.62l2.23,4.3Zm-1.51-8.24H131.3v2.64h1.83a1.32,1.32,0,0,0,0-2.64Z"/><path class="cls-16" d="M138.29,741.45v-4.3h2v2.76Z"/><path class="cls-16" d="M149.9,739.14l-1.79-3-.77.87v2.17h-1.82v-10h1.82v5.65l2.42-3H152l-2.6,2.94,2.8,4.36Z"/><path class="cls-16" d="M157.08,739.14v-.63a2.2,2.2,0,0,1-1.79.7,2.45,2.45,0,0,1-1.86-.65,2.32,2.32,0,0,1-.6-1.63c0-1.17.79-2.12,2.49-2.12H157v-.36c0-.8-.39-1.15-1.36-1.15a1.57,1.57,0,0,0-1.4.6l-1.16-1.13a3.07,3.07,0,0,1,2.63-1c2,0,3.11.87,3.11,2.57v4.81Zm0-3.08H155.6c-.66,0-1,.31-1,.82s.33.84,1,.84a1.42,1.42,0,0,0,1.15-.35,1.22,1.22,0,0,0,.26-.92Z"/><path class="cls-16" d="M169.31,739.14v-4.41a1.21,1.21,0,0,0-2.42,0h0v4.46h-1.83v-4.41a1.17,1.17,0,0,0-1-1.32h-.2a1.18,1.18,0,0,0-1.23,1.13,1.34,1.34,0,0,0,0,.2v4.41h-1.82v-7.3h1.78v.67a2.58,2.58,0,0,1,1.82-.75,2.25,2.25,0,0,1,1.93.92,2.84,2.84,0,0,1,2.19-.92,2.59,2.59,0,0,1,1.79.64,2.73,2.73,0,0,1,.8,2.07v4.67Z"/><path class="cls-16" d="M174.51,736.06a1.51,1.51,0,0,0,1.39,1.62.74.74,0,0,0,.21,0,2,2,0,0,0,1.65-.68l1.11,1.07a3.43,3.43,0,0,1-2.77,1.15c-1.73,0-3.38-.78-3.38-3.74,0-2.38,1.29-3.72,3.18-3.72a3.21,3.21,0,0,1,3.18,3.48v.82Zm2.61-2a1.36,1.36,0,0,0-1.82-.62,1.33,1.33,0,0,0-.62.62,2.1,2.1,0,0,0-.17.78h2.78a2.06,2.06,0,0,0-.17-.81Z"/><path class="cls-16" d="M184.72,733.83a1.22,1.22,0,0,0-2.14.91v4.4h-1.82v-7.3h1.77v.7a2.56,2.56,0,0,1,1.84-.78,2.18,2.18,0,0,1,1.72.68Z"/><path class="cls-16" d="M190.73,739.14v-.63a2.21,2.21,0,0,1-1.8.7,2.45,2.45,0,0,1-1.86-.65,2.32,2.32,0,0,1-.6-1.63c0-1.17.8-2.12,2.49-2.12h1.72v-.36c0-.8-.39-1.15-1.35-1.15a1.58,1.58,0,0,0-1.41.6l-1.16-1.13a3.1,3.1,0,0,1,2.64-1c2,0,3.1.87,3.1,2.57v4.81Zm0-3.08h-1.44c-.66,0-1,.31-1,.82s.33.84,1.05.84a1.42,1.42,0,0,0,1.15-.35,1.22,1.22,0,0,0,.26-.92Z"/><path class="cls-16" d="M194.39,741.45v-4.3h2v2.76Z"/><path class="cls-16" d="M205.58,733.83a1.22,1.22,0,0,0-2.14.91v4.4h-1.82v-7.3h1.78v.7a2.48,2.48,0,0,1,1.83-.78,2.18,2.18,0,0,1,1.72.68Z"/><path class="cls-16" d="M211.59,739.14v-.63a2.21,2.21,0,0,1-1.8.7,2.45,2.45,0,0,1-1.86-.65,2.32,2.32,0,0,1-.6-1.63c0-1.17.8-2.12,2.49-2.12h1.72v-.36c0-.8-.39-1.15-1.35-1.15a1.6,1.6,0,0,0-1.41.6l-1.16-1.13a3.07,3.07,0,0,1,2.63-1c2.05,0,3.12.87,3.12,2.57v4.81Zm-.05-3.08H210.1c-.66,0-1,.31-1,.82s.34.84,1,.84a1.42,1.42,0,0,0,1.15-.35,1.22,1.22,0,0,0,.26-.92Z"/><path class="cls-16" d="M219.36,739.14v-.69a2.2,2.2,0,0,1-1.81.77,2.52,2.52,0,0,1-1.79-.66c-.73-.72-.75-2-.75-3.08s0-2.34.75-3.06a2.52,2.52,0,0,1,1.78-.66,2.13,2.13,0,0,1,1.77.73v-3.27h1.82v10Zm-1.29-5.74c-1.1,0-1.24.89-1.24,2.08s.14,2.1,1.24,2.1,1.24-.91,1.24-2.1S219.16,733.4,218.07,733.4Z"/><path class="cls-16" d="M226.92,739.14v-.63a2.21,2.21,0,0,1-1.8.7,2.45,2.45,0,0,1-1.86-.65,2.32,2.32,0,0,1-.6-1.63c0-1.17.8-2.12,2.49-2.12h1.72v-.36c0-.8-.39-1.15-1.36-1.15a1.57,1.57,0,0,0-1.4.6L223,732.77a3.07,3.07,0,0,1,2.63-1c2,0,3.11.87,3.11,2.57v4.81Zm0-3.08h-1.44c-.66,0-1,.31-1,.82s.33.84,1.05.84a1.42,1.42,0,0,0,1.15-.35,1.22,1.22,0,0,0,.26-.92Z"/><path class="cls-16" d="M234.62,733.83a1.21,1.21,0,0,0-1.72-.15,1.23,1.23,0,0,0-.43,1.06v4.4h-1.82v-7.3h1.78v.7a2.46,2.46,0,0,1,1.84-.78,2.27,2.27,0,0,1,1.72.68Z"/><path class="cls-16" d="M236.11,741.45v-4.3h2v2.76Z"/><path class="cls-16" d="M243.48,739.14v-9.92h1.94v10Z"/><path class="cls-16" d="M254.83,739.14v-5.81l-1.9,3.78h-1.32l-1.92-3.78v5.81h-1.94v-9.92h1.91l2.61,5.39,2.59-5.39h1.92v10Z"/><path class="cls-16" d="M262.62,739.22A3.44,3.44,0,0,1,259,736a2.26,2.26,0,0,1,0-.26v-6.5h1.94v6.48a1.73,1.73,0,0,0,3.46,0h0v-6.48h1.94v6.55a3.48,3.48,0,0,1-3.48,3.46Z"/><path class="cls-16" d="M268.24,741.45v-4.3h2v2.76Z"/><path class="cls-16" d="M281.75,738.09a3.72,3.72,0,0,1-2.81,1.13,3.63,3.63,0,0,1-2.69-1.09,2.81,2.81,0,0,1-.81-1.5,18.2,18.2,0,0,1,0-5,2.84,2.84,0,0,1,.81-1.5,3.67,3.67,0,0,1,2.69-1.09,3.56,3.56,0,0,1,3.75,3.2h-2a1.69,1.69,0,0,0-1.79-1.46,1.61,1.61,0,0,0-1.25.53c-.36.46-.47.83-.47,2.8s.08,2.36.47,2.82a1.54,1.54,0,0,0,1.25.52,1.82,1.82,0,0,0,1.39-.56,2,2,0,0,0,.44-1.33v-.34H278.9v-1.63h3.77v1.46A4,4,0,0,1,281.75,738.09Z"/><path class="cls-16" d="M288.39,735.39h-1.92v3.75h-2v-9.92h3.87a3.11,3.11,0,1,1,0,6.22h0Zm-.1-4.49h-1.82v2.73h1.82a1.3,1.3,0,0,0,1.43-1.17,1.09,1.09,0,0,0,0-.18,1.33,1.33,0,0,0-1.27-1.38Z"/><path class="cls-16" d="M296.06,739.22a4.68,4.68,0,0,1-3.64-1.31l1.26-1.26a3.25,3.25,0,0,0,2.41.84c1.15,0,1.76-.44,1.76-1.24a1.09,1.09,0,0,0-.31-.84,1.51,1.51,0,0,0-.88-.35l-1.2-.17a3.29,3.29,0,0,1-1.93-.82,2.63,2.63,0,0,1-.72-2c0-1.78,1.32-3,3.47-3a4.29,4.29,0,0,1,3.23,1.16l-1.24,1.22a2.76,2.76,0,0,0-2-.68c-1,0-1.54.57-1.54,1.26a1,1,0,0,0,.29.71,1.68,1.68,0,0,0,.93.39l1.17.17a3.36,3.36,0,0,1,1.91.77,2.83,2.83,0,0,1,.77,2.12C299.76,738.13,298.15,739.22,296.06,739.22Z"/><path class="cls-16" d="M443.5,730.9v8.24h-1.95V730.9H439v-1.68h7.15V731Z"/><path class="cls-16" d="M448.05,736.06a1.5,1.5,0,0,0,1.37,1.62.81.81,0,0,0,.22,0,2,2,0,0,0,1.66-.68l1.1,1.07a3.43,3.43,0,0,1-2.77,1.15c-1.72,0-3.38-.78-3.38-3.74,0-2.38,1.29-3.72,3.18-3.72a3.21,3.21,0,0,1,3.18,3.48v.82Zm2.6-2a1.26,1.26,0,0,0-1.22-.76,1.28,1.28,0,0,0-1.22.76,1.91,1.91,0,0,0-.16.78h2.77a2.06,2.06,0,0,0-.17-.81Zm-.73-3.35h-1.21l.89-2.38h1.92Z"/><path class="cls-16" d="M458.25,733.83a1.17,1.17,0,0,0-1-.43,1.21,1.21,0,0,0-1.19,1.23s0,.08,0,.11v4.4h-1.82v-7.3H456v.7a2.48,2.48,0,0,1,1.83-.78,2.24,2.24,0,0,1,1.73.68Z"/><path class="cls-16" d="M465,739.14l-1.79-3-.77.87v2.17h-1.82v-10h1.82v5.65l2.42-3h2.2l-2.6,2.94,2.8,4.36Z"/><path class="cls-16" d="M469.82,736.06a1.5,1.5,0,0,0,1.37,1.62.81.81,0,0,0,.22,0,2,2,0,0,0,1.66-.68l1.1,1.07a3.43,3.43,0,0,1-2.77,1.15c-1.72,0-3.38-.78-3.38-3.74,0-2.38,1.29-3.72,3.18-3.72a3.21,3.21,0,0,1,3.18,3.48v.82Zm2.6-2a1.26,1.26,0,0,0-1.22-.76,1.28,1.28,0,0,0-1.22.76,1.91,1.91,0,0,0-.16.78h2.77a2.06,2.06,0,0,0-.17-.81Zm-.73-3.35h-1.22l.9-2.38h1.92Z"/><path class="cls-16" d="M481.42,738.56a2.52,2.52,0,0,1-1.77.66,2.13,2.13,0,0,1-1.77-.73v3.32h-1.82v-10h1.76v.69a2.24,2.24,0,0,1,1.83-.77,2.52,2.52,0,0,1,1.77.66c.73.72.75,2,.75,3.06S482.15,737.84,481.42,738.56Zm-2.31-5.16c-1.09,0-1.23.89-1.23,2.08s.14,2.1,1.23,2.1,1.24-.91,1.24-2.1-.14-2.08-1.24-2.08Z"/><path class="cls-16" d="M483.83,741.45v-4.3h2v2.76Z"/><path class="cls-16" d="M495.09,739.14v-.69a2.2,2.2,0,0,1-1.81.77,2.57,2.57,0,0,1-1.79-.66c-.73-.72-.74-2-.74-3.08s0-2.34.74-3.06a2.52,2.52,0,0,1,1.78-.66,2.13,2.13,0,0,1,1.77.73v-3.27h1.83v10Zm-1.29-5.74c-1.09,0-1.23.89-1.23,2.08s.14,2.1,1.23,2.1,1.24-.91,1.24-2.1S494.89,733.4,493.8,733.4Z"/><path class="cls-16" d="M500.34,736.06a1.5,1.5,0,0,0,1.37,1.62.81.81,0,0,0,.22,0,2,2,0,0,0,1.66-.68l1.1,1.07a3.43,3.43,0,0,1-2.77,1.15c-1.72,0-3.38-.78-3.38-3.74,0-2.38,1.29-3.72,3.18-3.72a3.19,3.19,0,0,1,3.18,3.46V736Zm2.6-2a1.26,1.26,0,0,0-1.22-.76,1.28,1.28,0,0,0-1.22.76,1.91,1.91,0,0,0-.16.78h2.77a2.06,2.06,0,0,0-.17-.81Z"/><path class="cls-16" d="M508.86,739.14a2,2,0,0,1-2.11-1.88v-3.82H506v-1.39h.77v-2.16h1.82v2.16h1.29v1.39h-1.29v3.5c0,.42.19.66.63.66h.66v1.54Z"/><path class="cls-16" d="M512.89,736.06a1.51,1.51,0,0,0,1.39,1.62.74.74,0,0,0,.21,0,2,2,0,0,0,1.65-.68l1.11,1.07a3.43,3.43,0,0,1-2.77,1.15c-1.73,0-3.38-.78-3.38-3.74,0-2.38,1.29-3.72,3.18-3.72a3.21,3.21,0,0,1,3.18,3.48v.82Zm2.61-2a1.36,1.36,0,0,0-1.82-.62,1.33,1.33,0,0,0-.62.62,2.1,2.1,0,0,0-.17.78h2.78a2.06,2.06,0,0,0-.17-.81Z"/><path class="cls-16" d="M523.52,739.14l-1.79-3L521,737v2.17h-1.82v-10H521v5.65l2.42-3h2.2L523,734.78l2.81,4.36Z"/><path class="cls-16" d="M529.76,739.22c-1.45,0-3.26-.78-3.26-3.74s1.81-3.72,3.26-3.72a3.1,3.1,0,0,1,2.41,1L530.94,734a1.47,1.47,0,0,0-1.18-.57,1.25,1.25,0,0,0-1,.47,2.47,2.47,0,0,0-.41,1.61,2.53,2.53,0,0,0,.41,1.63,1.25,1.25,0,0,0,1,.47,1.44,1.44,0,0,0,1.18-.57l1.23,1.22A3.11,3.11,0,0,1,529.76,739.22Z"/><path class="cls-16" d="M533.56,730.59v-1.48h1.86v1.48Zm0,8.55v-7.3h1.83v7.3Z"/><path class="cls-16" d="M542.48,738.33a3.32,3.32,0,0,1-4.53,0,5.34,5.34,0,0,1,0-5.68,3.34,3.34,0,0,1,4.53,0A5.34,5.34,0,0,1,542.48,738.33Zm-1.42-4.61a1.16,1.16,0,0,0-.85-.32,1.1,1.1,0,0,0-.84.32,2.44,2.44,0,0,0-.42,1.76,2.49,2.49,0,0,0,.42,1.78,1.1,1.1,0,0,0,.84.32,1.12,1.12,0,0,0,.85-.32,2.49,2.49,0,0,0,.42-1.78A2.44,2.44,0,0,0,541.06,733.72Zm-.39-3h-1.22l.9-2.38h1.92Z"/><path class="cls-16" d="M545,741.45v-4.3h2v2.76Z"/><path class="cls-16" d="M557.55,738.56a2.52,2.52,0,0,1-1.77.66,2.13,2.13,0,0,1-1.77-.73v3.32h-1.82v-10H554v.69a2.22,2.22,0,0,1,1.82-.77,2.52,2.52,0,0,1,1.77.66c.73.72.75,2,.75,3.06S558.28,737.84,557.55,738.56Zm-2.31-5.16c-1.09,0-1.23.89-1.23,2.08s.14,2.1,1.23,2.1,1.24-.91,1.24-2.1-.14-2.08-1.24-2.08Z"/><path class="cls-16" d="M564,733.83a1.17,1.17,0,0,0-1-.43,1.21,1.21,0,0,0-1.19,1.23s0,.08,0,.11v4.4H560v-7.3h1.78v.7a2.48,2.48,0,0,1,1.83-.78,2.24,2.24,0,0,1,1.73.68Z"/><path class="cls-16" d="M567.39,736.06a1.51,1.51,0,0,0,1.39,1.62.74.74,0,0,0,.21,0,2,2,0,0,0,1.65-.68l1.11,1.07a3.47,3.47,0,0,1-2.75,1.15c-1.73,0-3.38-.78-3.38-3.74,0-2.38,1.29-3.72,3.18-3.72a3.21,3.21,0,0,1,3.2,3.46V736Zm2.61-2a1.36,1.36,0,0,0-1.82-.62,1.33,1.33,0,0,0-.62.62,2.1,2.1,0,0,0-.17.78h2.78A2.06,2.06,0,0,0,570,734Z"/><path class="cls-16" d="M577.67,739.14v-.69a2.14,2.14,0,0,1-1.8.77,2.59,2.59,0,0,1-1.8-.66c-.73-.72-.74-2-.74-3.08s0-2.34.74-3.06a2.54,2.54,0,0,1,1.78-.66,2.16,2.16,0,0,1,1.78.73v-3.27h1.82v10Zm-1.29-5.74c-1.09,0-1.23.89-1.23,2.08s.14,2.1,1.23,2.1,1.25-.91,1.25-2.1S577.48,733.4,576.38,733.4Z"/><path class="cls-16" d="M581.46,730.59v-1.48h1.87v1.48Zm0,8.55v-7.3h1.82v7.3Z"/><path class="cls-16" d="M589.73,739.14l-1.8-3-.77.87v2.17h-1.82v-10h1.82v5.65l2.43-3h2.2l-2.61,2.94,2.8,4.36Z"/><path class="cls-16" d="M596,739.22c-1.46,0-3.26-.78-3.26-3.74s1.8-3.72,3.26-3.72a3.1,3.1,0,0,1,2.41,1L597.18,734a1.47,1.47,0,0,0-1.18-.57,1.29,1.29,0,0,0-1,.47,2.48,2.48,0,0,0-.4,1.61,2.54,2.54,0,0,0,.4,1.63,1.29,1.29,0,0,0,1,.47,1.44,1.44,0,0,0,1.18-.57l1.23,1.22A3.11,3.11,0,0,1,596,739.22Z"/><path class="cls-16" d="M599.76,730.59v-1.48h1.86v1.48Zm0,8.55v-7.3h1.82v7.3Z"/><path class="cls-16" d="M608.68,738.33a3,3,0,0,1-2.27.89,3,3,0,0,1-2.25-.89,5.26,5.26,0,0,1,0-5.68,3.31,3.31,0,0,1,4.52,0A5.26,5.26,0,0,1,608.68,738.33Zm-1.41-4.61a1.29,1.29,0,0,0-1.7,0,2.44,2.44,0,0,0-.42,1.76,2.49,2.49,0,0,0,.42,1.78,1.1,1.1,0,0,0,.84.32,1.14,1.14,0,0,0,.86-.32,2.49,2.49,0,0,0,.42-1.78A2.44,2.44,0,0,0,607.27,733.72Zm-.39-3h-1.22l.89-2.38h1.92Z"/><path class="cls-16" d="M797.65,738.09a3.72,3.72,0,0,1-2.81,1.13,3.63,3.63,0,0,1-2.69-1.09,2.93,2.93,0,0,1-.82-1.5,19,19,0,0,1,0-5,2.93,2.93,0,0,1,.82-1.5,3.67,3.67,0,0,1,2.69-1.09,3.59,3.59,0,0,1,3.75,3.2h-2a1.7,1.7,0,0,0-1.79-1.46,1.61,1.61,0,0,0-1.25.53c-.37.46-.48.83-.48,2.8s.09,2.36.48,2.82a1.53,1.53,0,0,0,1.25.52,1.8,1.8,0,0,0,1.38-.56,2,2,0,0,0,.45-1.33v-.34H794.8v-1.63h3.76v1.46A4,4,0,0,1,797.65,738.09Z"/><path class="cls-16" d="M802.34,739.14a2,2,0,0,1-2.13-1.86v-8.06H802V737c0,.43.18.66.64.66h.71v1.54Z"/><path class="cls-16" d="M809.59,738.33a3,3,0,0,1-2.27.89,3,3,0,0,1-2.25-.89,5.26,5.26,0,0,1,0-5.68,3.31,3.31,0,0,1,4.52,0A5.26,5.26,0,0,1,809.59,738.33Zm-1.41-4.61a1.29,1.29,0,0,0-1.7,0,2.44,2.44,0,0,0-.42,1.76,2.49,2.49,0,0,0,.42,1.78,1.1,1.1,0,0,0,.84.32,1.14,1.14,0,0,0,.86-.32,2.49,2.49,0,0,0,.42-1.78,2.44,2.44,0,0,0-.42-1.76Z"/><path class="cls-16" d="M817.52,738.56a2.54,2.54,0,0,1-1.78.66,2.19,2.19,0,0,1-1.82-.77v.69h-1.77v-9.92H814v3.32a2.13,2.13,0,0,1,1.77-.73,2.54,2.54,0,0,1,1.78.66c.73.72.74,2,.74,3.06A4.26,4.26,0,0,1,817.52,738.56Zm-2.31-5.16c-1.1,0-1.24.89-1.24,2.08s.14,2.1,1.24,2.1,1.23-.91,1.23-2.1-.14-2.08-1.23-2.08Z"/><path class="cls-16" d="M823.73,739.14v-.63a2.2,2.2,0,0,1-1.79.7,2.45,2.45,0,0,1-1.86-.65,2.29,2.29,0,0,1-.61-1.63c0-1.17.8-2.12,2.5-2.12h1.72v-.36c0-.8-.39-1.15-1.36-1.15a1.57,1.57,0,0,0-1.4.6l-1.16-1.13a3,3,0,0,1,2.63-1c2.05,0,3.11.87,3.11,2.57v4.81Zm0-3.08h-1.44c-.66,0-1,.31-1,.82s.34.84,1,.84a1.42,1.42,0,0,0,1.15-.35,1.14,1.14,0,0,0,.27-.92Zm-.62-5.38h-1.22l.9-2.38h1.92Z"/><path class="cls-16" d="M829.53,739.14a2,2,0,0,1-2.13-1.86v-8.06h1.82V737c0,.43.18.66.64.66h.7v1.54Z"/><path class="cls-16" d="M832,730.59v-1.48h1.86v1.48Zm0,8.55v-7.3h1.82v7.3Z"/><path class="cls-16" d="M838.26,739.22a4,4,0,0,1-3.11-1l1.19-1.19a2.68,2.68,0,0,0,1.95.69c.63,0,1.29-.21,1.29-.76,0-.36-.2-.61-.77-.67l-1.15-.11c-1.32-.13-2.13-.7-2.13-2,0-1.51,1.33-2.32,2.82-2.32a3.88,3.88,0,0,1,2.78.85l-1.13,1a2.57,2.57,0,0,0-1.69-.49c-.73,0-1,.33-1,.7s.11.57.76.63l1.15.11c1.44.14,2.17.91,2.17,2.14C841.36,738.45,840,739.22,838.26,739.22Z"/><path class="cls-16" d="M847.56,736.06a1.5,1.5,0,0,0,1.37,1.62.89.89,0,0,0,.23,0,2,2,0,0,0,1.65-.68l1.1,1.07a3.43,3.43,0,0,1-2.77,1.15c-1.72,0-3.38-.78-3.38-3.74,0-2.38,1.29-3.72,3.18-3.72a3.21,3.21,0,0,1,3.18,3.48v.82Zm2.6-2a1.35,1.35,0,0,0-1.8-.63,1.37,1.37,0,0,0-.63.63,1.92,1.92,0,0,0-.17.78h2.77a1.74,1.74,0,0,0-.17-.81Zm-.73-3.35h-1.21l.89-2.38H851Z"/><path class="cls-16" d="M856.2,739.22a3.94,3.94,0,0,1-3.11-1l1.19-1.19a2.67,2.67,0,0,0,1.94.69c.63,0,1.29-.21,1.29-.76,0-.36-.19-.61-.77-.67l-1.15-.11c-1.31-.13-2.13-.7-2.13-2,0-1.51,1.34-2.32,2.82-2.32a3.85,3.85,0,0,1,2.79.85l-1.07,1a2.58,2.58,0,0,0-1.7-.49c-.73,0-1,.33-1,.7s.11.57.75.63l1.15.11c1.44.14,2.17.91,2.17,2.14C859.29,738.45,857.92,739.22,856.2,739.22Z"/><path class="cls-16" d="M866.12,739.14a2,2,0,0,1-2.13-1.86v-8.06h1.82V737c0,.43.19.66.65.66h.7v1.54Z"/><path class="cls-16" d="M873.38,738.33a3.05,3.05,0,0,1-2.27.89,3,3,0,0,1-2.26-.89,5.26,5.26,0,0,1,0-5.68,3,3,0,0,1,2.26-.89,3.05,3.05,0,0,1,2.27.89A5.34,5.34,0,0,1,873.38,738.33ZM872,733.72a1.16,1.16,0,0,0-.85-.32,1.1,1.1,0,0,0-.84.32,2.44,2.44,0,0,0-.42,1.76,2.49,2.49,0,0,0,.42,1.78,1.1,1.1,0,0,0,.84.32,1.14,1.14,0,0,0,.85-.36,2.49,2.49,0,0,0,.42-1.78A2.45,2.45,0,0,0,872,733.72Z"/><path class="cls-16" d="M880.32,739.14l-1.79-3-.77.87v2.17h-1.83v-10h1.83v5.65l2.42-3h2.2l-2.61,2.94,2.8,4.36Z"/><path class="cls-16" d="M887.5,739.14v-.63a2.2,2.2,0,0,1-1.79.7,2.48,2.48,0,0,1-1.87-.65,2.32,2.32,0,0,1-.6-1.63c0-1.17.8-2.12,2.5-2.12h1.72v-.36c0-.8-.39-1.15-1.36-1.15a1.57,1.57,0,0,0-1.4.6l-1.16-1.13a3,3,0,0,1,2.63-1c2.05,0,3.11.87,3.11,2.57v4.81Zm0-3.08H886c-.66,0-1,.31-1,.82s.34.84,1,.84a1.42,1.42,0,0,0,1.15-.35,1.14,1.14,0,0,0,.27-.92Zm-.62-5.38h-1.22l.9-2.38h1.92Z"/><path class="cls-16" d="M893.3,739.14a2,2,0,0,1-2.13-1.86v-8.06H893V737c0,.43.18.66.64.66h.7v1.54Z"/><path class="cls-16" d="M895.76,730.59v-1.48h1.86v1.48Zm0,8.55v-7.3h1.82v7.3Z"/><path class="cls-16" d="M902,739.22a4,4,0,0,1-3.11-1l1.19-1.19a2.68,2.68,0,0,0,1.95.69c.63,0,1.29-.21,1.29-.76,0-.36-.2-.61-.77-.67l-1.15-.11c-1.32-.13-2.13-.7-2.13-2,0-1.51,1.33-2.32,2.82-2.32a3.88,3.88,0,0,1,2.78.85l-1.12,1.14a2.57,2.57,0,0,0-1.69-.49c-.73,0-1,.33-1,.7s.11.57.76.63l1.15.11c1.44.14,2.17.91,2.17,2.14C905.13,738.45,903.75,739.22,902,739.22Z"/><path class="cls-16" d="M1082.55,735.39h-1.92v3.75h-1.94v-9.92h3.86a3.11,3.11,0,1,1,0,6.22h0Zm-.1-4.49h-1.82v2.73h1.82a1.3,1.3,0,0,0,1.44-1.16,1.21,1.21,0,0,0,0-.19,1.33,1.33,0,0,0-1.27-1.38Z"/><path class="cls-16" d="M1091.54,739.14v-.67a2.5,2.5,0,0,1-1.82.75,2.33,2.33,0,0,1-1.72-.64,2.72,2.72,0,0,1-.75-2.07v-4.67h1.82v4.38a1.22,1.22,0,1,0,2.43.22.81.81,0,0,0,0-.22v-4.41h1.82v7.3Z"/><path class="cls-16" d="M1099.32,733.83a1.22,1.22,0,0,0-2.14.91v4.4h-1.82v-7.3h1.78v.7a2.48,2.48,0,0,1,1.83-.78,2.24,2.24,0,0,1,1.73.68Z"/><path class="cls-16" d="M1104,739.22a3.92,3.92,0,0,1-3.1-1l1.19-1.19a2.58,2.58,0,0,0,1.94.69c.63,0,1.29-.21,1.29-.76,0-.36-.19-.61-.77-.67l-1.15-.11c-1.31-.13-2.13-.7-2.13-2,0-1.51,1.33-2.32,2.82-2.32a3.91,3.91,0,0,1,2.79.85l-1.12,1.14a2.58,2.58,0,0,0-1.7-.49c-.73,0-1,.33-1,.7s.12.57.76.63l1.15.11c1.44.14,2.17.91,2.17,2.14C1107.08,738.45,1105.71,739.22,1104,739.22Z"/><path class="cls-16" d="M1112.8,739.14v-.67a2.5,2.5,0,0,1-1.82.75,2.33,2.33,0,0,1-1.72-.64,2.69,2.69,0,0,1-.74-2.07v-4.67h1.82v4.38a1.22,1.22,0,1,0,2.42.31,1.61,1.61,0,0,0,0-.31v-4.41h1.82v7.3Z"/><path class="cls-16" d="M1116.6,730.6v-1.49h1.86v1.49Zm0,8.54v-7.3h1.83v7.3Z"/><path class="cls-16" d="M1122.76,739.14a2,2,0,0,1-2.12-1.87v-3.83h-.77v-1.39h.77v-2.16h1.82v2.16h1.29v1.39h-1.29v3.5c0,.42.2.66.63.66h.66v1.54Z"/><path class="cls-16" d="M1125.33,741.45v-4.3h2v2.76Z"/><path class="cls-16" d="M1141,739.14v-4.41a1.21,1.21,0,0,0-2.42,0h0v4.46h-1.82v-4.41a1.22,1.22,0,0,0-2.42-.31,1.61,1.61,0,0,0,0,.31v4.41h-1.82v-7.3h1.78v.67a2.5,2.5,0,0,1,1.82-.75,2.25,2.25,0,0,1,1.93.92,2.8,2.8,0,0,1,2.18-.92,2.64,2.64,0,0,1,1.8.64,2.75,2.75,0,0,1,.8,2.08v4.66Z"/><path class="cls-16" d="M1149.86,738.33a3,3,0,0,1-2.27.89,3,3,0,0,1-2.25-.89,5.26,5.26,0,0,1,0-5.68,3.31,3.31,0,0,1,4.52,0A5.26,5.26,0,0,1,1149.86,738.33Zm-1.41-4.61a1.29,1.29,0,0,0-1.7,0,2.54,2.54,0,0,0-.42,1.76,2.49,2.49,0,0,0,.42,1.78,1.26,1.26,0,0,0,1.7,0,2.49,2.49,0,0,0,.42-1.78A2.44,2.44,0,0,0,1148.45,733.72Z"/><path class="cls-16" d="M1156.46,739.14v-.69a2.2,2.2,0,0,1-1.81.77,2.56,2.56,0,0,1-1.79-.65c-.73-.73-.75-2-.75-3.09s0-2.34.75-3.06a2.52,2.52,0,0,1,1.78-.66,2.13,2.13,0,0,1,1.77.73v-3.27h1.83v10Zm-1.29-5.74c-1.09,0-1.24.89-1.24,2.08s.15,2.11,1.24,2.11,1.24-.91,1.24-2.11-.15-2.08-1.24-2.08Z"/><path class="cls-16" d="M1161.71,736.06a1.5,1.5,0,0,0,1.37,1.62.81.81,0,0,0,.22,0A2,2,0,0,0,1165,737l1.1,1.08a3.46,3.46,0,0,1-2.77,1.14c-1.73,0-3.38-.78-3.38-3.74,0-2.38,1.29-3.72,3.18-3.72a3.22,3.22,0,0,1,3.18,3.49v.81Zm2.6-2a1.36,1.36,0,0,0-1.82-.62,1.33,1.33,0,0,0-.62.62,1.91,1.91,0,0,0-.16.78h2.77a2.06,2.06,0,0,0-.17-.81Z"/><path class="cls-16" d="M1170,739.14a2,2,0,0,1-2.13-1.86v-8.06h1.82V737c0,.43.18.66.64.66h.7v1.54Z"/><path class="cls-16" d="M1181.11,738.57a2.55,2.55,0,0,1-1.78.65,2.13,2.13,0,0,1-1.76-.72v3.32h-1.82v-10h1.76v.69a2.25,2.25,0,0,1,1.82-.77,2.52,2.52,0,0,1,1.78.66c.73.72.74,2,.74,3.06S1181.84,737.84,1181.11,738.57Zm-2.31-5.17c-1.09,0-1.23.89-1.23,2.08s.14,2.11,1.23,2.11,1.23-.91,1.23-2.11-.14-2.08-1.23-2.08Z"/><path class="cls-16" d="M1187.55,733.83a1.22,1.22,0,0,0-2.14.91v4.4h-1.82v-7.3h1.78v.7a2.44,2.44,0,0,1,1.83-.78,2.18,2.18,0,0,1,1.72.68Z"/><path class="cls-16" d="M1191,736.06a1.51,1.51,0,0,0,1.39,1.62.74.74,0,0,0,.21,0,2,2,0,0,0,1.65-.68l1.11,1.08a3.49,3.49,0,0,1-2.78,1.14c-1.72,0-3.37-.78-3.37-3.74,0-2.38,1.29-3.72,3.18-3.72a3.22,3.22,0,0,1,3.18,3.49v.81Zm2.61-2a1.28,1.28,0,0,0-1.22-.76,1.26,1.26,0,0,0-1.22.76,1.92,1.92,0,0,0-.17.78h2.77a1.91,1.91,0,0,0-.21-.81Z"/><path class="cls-16" d="M1199.48,739.14a2,2,0,0,1-2.12-1.87v-3.83h-.77v-1.39h.77v-2.16h1.82v2.16h1.29v1.39h-1.29v3.5c0,.42.2.66.63.66h.66v1.54Z"/><path class="cls-16" d="M1202.09,730.6v-1.49H1204v1.49Zm0,8.54v-7.3h1.82v7.3Z"/><path class="cls-16" d="M1208.87,739.22c-1.46,0-3.26-.78-3.26-3.74s1.8-3.72,3.26-3.72a3.14,3.14,0,0,1,2.41,1l-1.23,1.23a1.47,1.47,0,0,0-1.18-.57,1.29,1.29,0,0,0-1,.47,2.48,2.48,0,0,0-.4,1.61,2.54,2.54,0,0,0,.4,1.63,1.29,1.29,0,0,0,1,.48,1.48,1.48,0,0,0,1.18-.58l1.23,1.22A3.11,3.11,0,0,1,1208.87,739.22Z"/><path class="cls-16" d="M1215,739.14a2,2,0,0,1-2.11-1.88v-3.82h-.77v-1.39h.77v-2.16h1.82v2.16H1216v1.39h-1.29v3.5c0,.42.2.66.63.66h.66v1.54Z"/><path class="cls-16" d="M1217.59,730.6v-1.49h1.86v1.49Zm0,8.54v-7.3h1.82v7.3Z"/><path class="cls-16" d="M1224.62,739.14h-1.43l-2.69-7.3h1.92l1.49,4.51,1.47-4.51h1.92Z"/><path class="cls-16" d="M1229.66,736.06a1.5,1.5,0,0,0,1.37,1.62.89.89,0,0,0,.23,0,2,2,0,0,0,1.65-.68l1.11,1.08a3.49,3.49,0,0,1-2.78,1.14c-1.72,0-3.37-.78-3.37-3.74,0-2.38,1.29-3.72,3.18-3.72a3.22,3.22,0,0,1,3.18,3.49v.81Zm2.61-2a1.28,1.28,0,0,0-1.22-.76,1.26,1.26,0,0,0-1.22.76,1.92,1.92,0,0,0-.17.78h2.77a1.89,1.89,0,0,0-.16-.81Z"/><path class="cls-16" d="M1235.83,741.45v-4.3h2v2.76Z"/><path class="cls-16" d="M1245.45,739.22a4,4,0,0,1-3.11-1l1.19-1.19a2.63,2.63,0,0,0,2,.69c.63,0,1.29-.21,1.29-.76,0-.36-.2-.61-.77-.67l-1.15-.11c-1.32-.13-2.13-.7-2.13-2,0-1.51,1.33-2.32,2.82-2.32a3.88,3.88,0,0,1,2.78.85l-1.12,1.14a2.57,2.57,0,0,0-1.69-.49c-.73,0-1,.33-1,.7s.11.57.76.63l1.15.11c1.44.14,2.17.91,2.17,2.14C1248.55,738.45,1247.17,739.22,1245.45,739.22Z"/><path class="cls-16" d="M1252.21,739.14a2,2,0,0,1-2.11-1.88v-3.82h-.77v-1.39h.77v-2.16h1.82v2.16h1.29v1.39h-1.29v3.5c0,.42.2.66.63.66h.66v1.54Z"/><path class="cls-16" d="M1260.22,738.57a2.55,2.55,0,0,1-1.78.65,2.22,2.22,0,0,1-1.82-.77v.69h-1.76v-9.92h1.82v3.32a2.11,2.11,0,0,1,1.76-.73,2.52,2.52,0,0,1,1.78.66c.73.72.75,2,.75,3.06S1261,737.84,1260.22,738.57Zm-2.31-5.17c-1.09,0-1.23.89-1.23,2.08s.14,2.11,1.23,2.11,1.23-.91,1.23-2.11-.14-2.08-1.23-2.08Z"/><path class="cls-16" d="M1262.63,739.14v-2.07h2.09v2.07Z"/><path class="cls-16" d="M1427.43,739.14l-2.56-4.54-1.29,1.54v3h-1.95v-9.92h1.95v4.34l3.51-4.34h2.37l-3.31,4,3.55,6Z"/><path class="cls-16" d="M1435.84,738.33a3,3,0,0,1-2.27.89,3,3,0,0,1-2.25-.89,5.26,5.26,0,0,1,0-5.68,3.31,3.31,0,0,1,4.52,0A5.26,5.26,0,0,1,1435.84,738.33Zm-1.41-4.61a1.29,1.29,0,0,0-1.7,0,2.54,2.54,0,0,0-.42,1.76,2.49,2.49,0,0,0,.42,1.78,1.1,1.1,0,0,0,.84.32,1.14,1.14,0,0,0,.86-.32,2.49,2.49,0,0,0,.42-1.78,2.44,2.44,0,0,0-.42-1.76Z"/><path class="cls-16" d="M1442.37,733.83a1.21,1.21,0,0,0-1.72-.15,1.23,1.23,0,0,0-.43,1.06v4.4h-1.82v-7.3h1.78v.7a2.46,2.46,0,0,1,1.84-.78,2.27,2.27,0,0,1,1.72.68Z"/><path class="cls-16" d="M1453.26,739.14v-4.41a1.21,1.21,0,1,0-2.42,0h0v4.46H1449v-4.41a1.22,1.22,0,0,0-2.43-.22.81.81,0,0,0,0,.22v4.41h-1.82v-7.3h1.78v.67a2.58,2.58,0,0,1,1.82-.75,2.25,2.25,0,0,1,1.93.92,2.84,2.84,0,0,1,2.19-.92,2.59,2.59,0,0,1,1.79.64,2.73,2.73,0,0,1,.8,2.07v4.67Z"/><path class="cls-16" d="M1460.78,739.14v-.63a2.21,2.21,0,0,1-1.8.7,2.45,2.45,0,0,1-1.86-.65,2.32,2.32,0,0,1-.6-1.63c0-1.17.8-2.12,2.49-2.12h1.72v-.36c0-.8-.39-1.15-1.35-1.15a1.58,1.58,0,0,0-1.41.6l-1.16-1.13a3.07,3.07,0,0,1,2.63-1c2,0,3.11.87,3.11,2.57v4.81Zm0-3.08h-1.44c-.66,0-1,.31-1,.82s.33.84,1,.84a1.42,1.42,0,0,0,1.15-.35,1.22,1.22,0,0,0,.26-.92Zm-.61-5.38H1459l.89-2.38h1.92Z"/><path class="cls-16" d="M1468.76,739.14v-4.41a1.22,1.22,0,0,0-2.43-.22.81.81,0,0,0,0,.22v4.41h-1.82v-7.3h1.78v.67a2.5,2.5,0,0,1,1.82-.75,2.37,2.37,0,0,1,1.72.64,2.74,2.74,0,0,1,.75,2.07v4.67Z"/><path class="cls-16" d="M1475.25,740.32a2.55,2.55,0,0,1-.54.93,2.12,2.12,0,0,1-1.57.56h-.72v-1.59h.42a.79.79,0,0,0,.91-.65h0l.31-.9-2.49-6.78h1.92l1.51,4.51,1.46-4.51h1.92Z"/><path class="cls-16" d="M1479,739.14v-1.39l3.23-4.27h-3v-1.64h5.38v1.38l-3.28,4.27h3.28v1.64Z"/><path class="cls-16" d="M1489.88,739.14v-.63a2.2,2.2,0,0,1-1.79.7,2.45,2.45,0,0,1-1.86-.65,2.29,2.29,0,0,1-.61-1.63c0-1.17.8-2.12,2.5-2.12h1.72v-.36c0-.8-.39-1.15-1.36-1.15a1.57,1.57,0,0,0-1.4.6l-1.16-1.13a3,3,0,0,1,2.63-1c2,0,3.11.87,3.11,2.57v4.81Zm0-3.08h-1.44c-.66,0-1,.31-1,.82s.34.84,1,.84a1.42,1.42,0,0,0,1.15-.35,1.14,1.14,0,0,0,.27-.92Zm-.62-5.38H1488l.9-2.38h1.92Z"/><path class="cls-16" d="M1496,739.22a4,4,0,0,1-3.11-1l1.19-1.19a2.63,2.63,0,0,0,2,.69c.63,0,1.29-.21,1.29-.76,0-.36-.2-.61-.77-.67l-1.15-.11c-1.32-.13-2.13-.7-2.13-2,0-1.51,1.33-2.32,2.82-2.32a3.88,3.88,0,0,1,2.78.85l-1.12,1.14a2.57,2.57,0,0,0-1.69-.49c-.73,0-1,.33-1,.7s.11.57.76.63l1.15.11c1.44.14,2.17.91,2.17,2.14C1499.11,738.45,1497.74,739.22,1496,739.22Z"/><path class="cls-16" d="M1500.56,741.45v-4.3h2v2.76Z"/><path class="cls-16" d="M1510.31,741.9a3.43,3.43,0,0,1-2.65-.95l1.13-1.15a1.88,1.88,0,0,0,1.43.56,1.38,1.38,0,0,0,1.47-1.28,1,1,0,0,0,0-.24v-.74a2.11,2.11,0,0,1-1.73.73,2.47,2.47,0,0,1-1.74-.64c-.69-.69-.74-1.63-.74-2.9s0-2.2.74-2.89a2.51,2.51,0,0,1,1.75-.64,2.14,2.14,0,0,1,1.78.77v-.69h1.76v7a3,3,0,0,1-2.93,3.07Zm.18-8.5c-1.08,0-1.19.92-1.19,1.89s.11,1.9,1.19,1.9,1.2-.94,1.2-1.9-.12-1.89-1.2-1.89Z"/><path class="cls-16" d="M1519.29,739.14v-.63a2.2,2.2,0,0,1-1.79.7,2.45,2.45,0,0,1-1.86-.65,2.32,2.32,0,0,1-.6-1.63c0-1.17.79-2.12,2.49-2.12h1.72v-.36c0-.8-.39-1.15-1.36-1.15a1.57,1.57,0,0,0-1.4.6l-1.16-1.13a3.07,3.07,0,0,1,2.63-1c2,0,3.11.87,3.11,2.57v4.81Zm0-3.08h-1.44c-.66,0-1,.31-1,.82s.33.84,1,.84a1.42,1.42,0,0,0,1.15-.35,1.22,1.22,0,0,0,.26-.92Zm-.61-5.38h-1.22l.89-2.38h1.92Z"/><path class="cls-16" d="M1522.53,739.14v-1.39l3.23-4.27h-3v-1.64h5.38v1.38l-3.28,4.27h3.28v1.64Z"/><path class="cls-16" d="M1534.4,736.06a1.5,1.5,0,0,0,1.37,1.62.89.89,0,0,0,.23,0,2,2,0,0,0,1.65-.68l1.11,1.07a3.48,3.48,0,0,1-2.76,1.15c-1.72,0-3.37-.78-3.37-3.74,0-2.38,1.29-3.72,3.18-3.72a3.2,3.2,0,0,1,3.19,3.46V736Zm2.6-2a1.35,1.35,0,0,0-1.8-.63,1.37,1.37,0,0,0-.63.63,1.92,1.92,0,0,0-.17.78h2.77a1.74,1.74,0,0,0-.17-.81Zm-.72-3.35h-1.22l.89-2.38h1.92Z"/><path class="cls-16" d="M1543,739.22a3.94,3.94,0,0,1-3.11-1l1.19-1.19a2.63,2.63,0,0,0,2,.69c.63,0,1.28-.21,1.28-.76,0-.36-.19-.61-.77-.67l-1.14-.11c-1.32-.13-2.13-.7-2.13-2,0-1.51,1.33-2.32,2.81-2.32a3.85,3.85,0,0,1,2.79.85l-1.12,1.14a2.58,2.58,0,0,0-1.7-.49c-.72,0-1,.33-1,.7s.11.57.75.63l1.15.11c1.45.14,2.17.91,2.17,2.14C1546.13,738.45,1544.76,739.22,1543,739.22Z"/><path class="cls-16" d="M1553,733.44v5.7h-1.82v-5.7h-.76v-1.39h.76v-.91a2,2,0,0,1,1.9-2.09h1.23v1.54h-.71c-.43,0-.63.24-.63.66v.8h1.34v1.39Z"/><path class="cls-16" d="M1556.9,736.06a1.5,1.5,0,0,0,1.37,1.62.81.81,0,0,0,.22,0,2,2,0,0,0,1.66-.68l1.1,1.07a3.43,3.43,0,0,1-2.77,1.15c-1.72,0-3.38-.78-3.38-3.74,0-2.38,1.29-3.72,3.18-3.72s3.18,1.48,3.18,3.48v.82Zm2.6-2a1.35,1.35,0,0,0-1.8-.63,1.37,1.37,0,0,0-.63.63,1.92,1.92,0,0,0-.17.78h2.77a1.74,1.74,0,0,0-.17-.81Zm-.73-3.35h-1.21l.89-2.38h1.92Z"/><path class="cls-16" d="M1567.52,739.14l-1.79-3-.77.87v2.17h-1.82v-10H1565v5.65l2.42-3h2.2l-2.6,2.94,2.8,4.36Z"/><text class="cls-17" transform="translate(746.39 1119.48)">V2X / <tspan class="cls-18" x="94.31" y="0">T</tspan><tspan x="112.67" y="0">e</tspan><tspan class="cls-19" x="132.59" y="0">l</tspan><tspan x="143.5" y="0">eop</tspan></text></g></svg>