<?xml version="1.0" encoding="utf-8"?>
<svg version="1.1" id="Layer_1" xmlns="http://www.w3.org/2000/svg" xmlns:xlink="http://www.w3.org/1999/xlink" x="0px" y="0px"
	 viewBox="0 0 1765.4 1203.2" style="enable-background:new 0 0 1765.4 1203.2;" xml:space="preserve">
<style type="text/css">
	.st0{fill:#152742;stroke:#1C3C68;stroke-width:6;stroke-linecap:round;stroke-linejoin:round;}
	.st1{fill:none;stroke:#34AEC5;stroke-width:6;stroke-linecap:round;stroke-linejoin:round;stroke-dasharray:24;}
	.st2{fill:none;stroke:#34AEC5;stroke-width:6;stroke-linecap:round;stroke-linejoin:round;}
	.st3{fill:#0A4851;}
	.st4{fill:none;stroke:#34AEC5;stroke-width:6;stroke-linecap:round;stroke-linejoin:round;stroke-dasharray:21.9,21.9;}
	.st5{fill:none;stroke:#34AEC5;stroke-width:4;stroke-linecap:round;stroke-linejoin:round;}
	.st6{fill:none;stroke:#34AEC5;stroke-width:6;stroke-linecap:round;stroke-linejoin:round;stroke-dasharray:22.64,22.64;}
	.st7{fill:none;stroke:#34AEC5;stroke-width:6;stroke-linecap:round;stroke-linejoin:round;stroke-dasharray:0,10;}
	.st8{fill:none;stroke:#34AEC5;stroke-width:6;stroke-linecap:round;stroke-linejoin:round;stroke-dasharray:12;}
	.st9{fill:#34AEC5;stroke:#1C3C68;stroke-width:6;stroke-linecap:round;stroke-linejoin:round;}
	.st10{fill:none;stroke:#152742;stroke-width:6;stroke-linecap:round;stroke-linejoin:round;}
	.st11{fill:none;stroke:#152742;stroke-width:6;stroke-linecap:round;stroke-linejoin:round;stroke-dasharray:12;}
	.st12{fill:#FFFFFF;}
	.st13{enable-background:new    ;}
	.st14{fill:#152742;}
	.st15{fill:#34AEC5;}
</style>
<g id="sötét">
	<path class="st0" d="M105.8,181h195.6c14.5,0,26.3,11.8,26.3,26.3v534.1c0,14.5-11.8,26.3-26.3,26.3H105.8
		c-14.5,0-26.3-11.8-26.3-26.3V207.3C79.5,192.8,91.3,181,105.8,181z"/>
	<path class="st0" d="M427.8,181h195.6c14.5,0,26.3,11.8,26.3,26.3v534.1c0,14.5-11.8,26.3-26.3,26.3H427.8
		c-14.5,0-26.3-11.8-26.3-26.3V207.3C401.6,192.8,413.3,181,427.8,181z"/>
	<path class="st0" d="M749.9,181h195.6c14.5,0,26.3,11.8,26.3,26.3v534.1c0,14.5-11.8,26.3-26.3,26.3H749.9
		c-14.5,0-26.3-11.8-26.3-26.3V207.3C723.6,192.8,735.4,181,749.9,181z"/>
	<path class="st0" d="M1072,181h195.6c14.5,0,26.3,11.8,26.3,26.3v534.1c0,14.5-11.8,26.3-26.3,26.3H1072
		c-14.5,0-26.3-11.8-26.3-26.3V207.3C1045.7,192.8,1057.4,181,1072,181z"/>
	<path class="st0" d="M1394,181h195.6c14.5,0,26.3,11.8,26.3,26.3v534.1c0,14.5-11.8,26.3-26.3,26.3H1394
		c-14.5,0-26.3-11.8-26.3-26.3V207.3C1367.7,192.8,1379.5,181,1394,181z"/>
	<path class="st0" d="M105.8,877.9h195.6c14.5,0,26.3,11.8,26.3,26.3v217.7c0,14.5-11.8,26.3-26.3,26.3H105.8
		c-14.5,0-26.3-11.8-26.3-26.3V904.2C79.5,889.7,91.3,877.9,105.8,877.9z"/>
	<path class="st0" d="M427.8,877.9h195.6c14.5,0,26.3,11.8,26.3,26.3v217.7c0,14.5-11.8,26.3-26.3,26.3H427.8
		c-14.5,0-26.3-11.8-26.3-26.3V904.2C401.6,889.7,413.3,877.9,427.8,877.9z"/>
	<path class="st0" d="M749.9,877.9h195.6c14.5,0,26.3,11.8,26.3,26.3v217.7c0,14.5-11.8,26.3-26.3,26.3H749.9
		c-14.5,0-26.3-11.8-26.3-26.3V904.2C723.6,889.7,735.4,877.9,749.9,877.9z"/>
	<path class="st0" d="M1072,877.9h195.6c14.5,0,26.3,11.8,26.3,26.3v217.7c0,14.5-11.8,26.3-26.3,26.3H1072
		c-14.5,0-26.3-11.8-26.3-26.3V904.2C1045.7,889.7,1057.4,877.9,1072,877.9z"/>
	<path class="st0" d="M1394,877.9h195.6c14.5,0,26.3,11.8,26.3,26.3v217.7c0,14.5-11.8,26.3-26.3,26.3H1394
		c-14.5,0-26.3-11.8-26.3-26.3V904.2C1367.7,889.7,1379.5,877.9,1394,877.9z"/>
</g>
<g id="világos">
	<path class="st1" d="M81,151.2h1539.6c13.3,0,24,10.7,24,24v595.1c0,13.3-10.7,24-24,24H81c-13.3,0-24-10.7-24-24V175.2
		C57,162,67.7,151.2,81,151.2z"/>
	<circle class="st2" cx="144.2" cy="1044.1" r="17.4"/>
	<circle class="st2" cx="271.8" cy="1044.1" r="17.4"/>
	<polyline class="st2" points="119,1050.9 104.7,1044.1 104.7,1007 133.3,997.4 160.7,981.4 160.7,967.4 226,967.4 226,981 250,999 
			"/>
	<line class="st2" x1="104.7" y1="1017.4" x2="120" y2="1017.4"/>
	<path class="st2" d="M133.3,997.4l16.2,11.8h115.6c0.7,0,1.3,0.1,2,0.2l25.2,4.8c10,1.9,17.4,10.5,17.7,20.7l0.4,10.4
		c0.1,3-2.3,5.5-5.3,5.6c0,0,0,0,0,0h-9.6"/>
	<line class="st2" x1="168.4" y1="1050.9" x2="244.4" y2="1050.9"/>
	<path class="st2" d="M195.3,1017.4v33.5"/>
	<line class="st2" x1="160.7" y1="981.4" x2="226" y2="981.4"/>
	<line class="st2" x1="195.3" y1="981.4" x2="195.3" y2="1002.8"/>
	<line class="st2" x1="186.7" y1="967.4" x2="186.7" y2="949.4"/>
	<line class="st2" x1="201.6" y1="967.4" x2="201.6" y2="949.4"/>
	<line class="st2" x1="178.9" y1="949.4" x2="208.6" y2="949.4"/>
	<path class="st2" d="M146.5,966.2c-8.2-4.9-10.8-15.5-5.9-23.6c1.7-2.8,4.1-5,6.9-6.5"/>
	<path class="st2" d="M121.2,985.3c-18.7-18.9-18.5-49.4,0.4-68.1c1.3-1.3,2.7-2.5,4.1-3.6"/>
	<path class="st2" d="M132.9,976.4c-13.8-12.4-14.9-33.7-2.5-47.5c1.6-1.8,3.5-3.5,5.5-4.9"/>
	<path class="st2" d="M246.6,934.1c8.5,4.3,11.8,14.7,7.5,23.2c-1.5,2.9-3.7,5.2-6.5,6.9"/>
	<path class="st2" d="M268.5,911.5c20.9,16.4,24.6,46.7,8.2,67.6c0,0,0,0,0,0c-1.1,1.4-2.4,2.8-3.6,4.1"/>
	<path class="st2" d="M258.4,922c15.2,10.8,18.7,31.8,7.9,46.9c0,0,0,0.1-0.1,0.1c-1.4,2-3.1,3.8-4.9,5.5"/>
	<path class="st2" d="M150.4,660.3c-8.2-4.9-10.8-15.5-5.9-23.6c1.7-2.8,4.1-5,6.9-6.5"/>
	<path class="st2" d="M125.1,679.4c-18.7-18.9-18.5-49.4,0.4-68.1c1.3-1.3,2.7-2.5,4.1-3.6"/>
	<path class="st2" d="M136.8,670.6c-13.8-12.4-15-33.7-2.5-47.5c0,0,0,0,0,0c1.7-1.8,3.5-3.5,5.5-4.9"/>
	<path class="st2" d="M250.6,628.2c8.5,4.3,11.8,14.7,7.5,23.2c-1.5,2.9-3.7,5.2-6.5,6.9"/>
	<path class="st2" d="M272.4,605.7c20.9,16.4,24.6,46.7,8.2,67.6c-1.1,1.4-2.4,2.8-3.6,4.1"/>
	<path class="st2" d="M262.3,616.2c15.1,10.8,18.7,31.8,7.9,46.9c0,0,0,0,0,0c-1.4,2-3.1,3.8-4.9,5.5"/>
	<path class="st2" d="M184.8,611.4h32.6c6.9,0,12.5,5.6,12.5,12.5v37.2c0,6.9-5.6,12.5-12.5,12.5h-32.6c-6.9,0-12.5-5.6-12.5-12.5
		V624C172.3,617,177.9,611.4,184.8,611.4z"/>
	<path class="st2" d="M137.8,290.5h80.7c7,0,12.6,5.6,12.6,12.6v37c0,7-5.6,12.6-12.6,12.6h-80.7c-7,0-12.6-5.6-12.6-12.6v-37
		C125.2,296.1,130.9,290.5,137.8,290.5z"/>
	<path class="st2" d="M267.7,346.9l-24.3-15.5c-1.7-1.1-2.7-3-2.7-5v-9.5c0-2,1-3.9,2.7-5l24.3-15.5c2.8-1.8,6.4-0.9,8.2,1.8
		c0.6,1,0.9,2.1,0.9,3.2v40.6c0,3.3-2.6,5.9-5.9,5.9c0,0,0,0,0,0C269.8,347.8,268.7,347.5,267.7,346.9z"/>
	<path class="st2" d="M1225.1,317.3l-39.5-10.5l-57.2-15.2c-4-1.1-8.1,1.3-9.2,5.3c-0.2,0.6-0.3,1.3-0.2,1.9v51.6
		c0,4.1,3.4,7.5,7.5,7.5l0,0c0.6,0,1.3-0.1,1.9-0.2l57.2-15.3l39.5-10.5c4-1.1,6.3-5.2,5.2-9.2C1229.6,320,1227.6,318,1225.1,317.3
		L1225.1,317.3z M1180.1,326.2c-0.1,0.2-0.1,0.3-0.2,0.5l-0.2,0.5c-0.1,0.2-0.2,0.3-0.3,0.5c-0.2,0.3-0.4,0.6-0.7,0.8l0,0
		l-10.8,10.8c-2.2,2.2-5.7,2.2-7.8,0c-2.2-2.2-2.2-5.7,0-7.8l0,0l0,0l1.4-1.4h-28.2c-3.1-0.1-5.4-2.7-5.3-5.8
		c0.1-2.9,2.4-5.2,5.3-5.3h28.2l-1.5-1.5c-2.1-2.2-2.1-5.7,0.1-7.8c2.1-2.1,5.6-2.1,7.7,0l10.9,10.9c0.3,0.3,0.5,0.6,0.7,0.9
		c0.2,0.3,0.3,0.6,0.5,0.9c0.1,0.1,0.1,0.3,0.2,0.4v0.1c0,0.2,0.1,0.4,0.1,0.5c0,0.2,0.1,0.4,0.1,0.6c0,0.2,0,0.5,0,0.7v0.4
		c0,0.2,0,0.4-0.1,0.7C1180.2,325.9,1180.2,326.1,1180.1,326.2L1180.1,326.2z"/>
	<path class="st3" d="M1180.3,325.7c0-0.2,0.1-0.4,0.1-0.7C1180.3,325.2,1180.3,325.4,1180.3,325.7z"/>
	<path class="st3" d="M1180.3,325v-0.3C1180.4,324.8,1180.4,324.9,1180.3,325z"/>
	<path class="st3" d="M1180.4,324.5V324C1180.4,324.2,1180.4,324.4,1180.4,324.5z"/>
	<path class="st3" d="M1179.5,321.5c-0.2-0.3-0.4-0.6-0.7-0.9C1179,320.9,1179.3,321.2,1179.5,321.5z"/>
	<path class="st2" d="M1225.1,539.3l-39.5-10.5l-57.2-15.2c-4-1.1-8.1,1.3-9.2,5.3c0,0,0,0,0,0c-0.2,0.6-0.3,1.3-0.2,1.9v51.6
		c0,4.1,3.4,7.5,7.5,7.5c0.6,0,1.3-0.1,1.9-0.2l57.2-15.2l39.5-10.5c4-1.1,6.4-5.2,5.3-9.2C1229.7,542,1227.7,540,1225.1,539.3z
		 M1180.1,548.2c-0.1,0.2-0.1,0.3-0.2,0.5c-0.1,0.2-0.2,0.3-0.2,0.5c-0.1,0.2-0.2,0.3-0.3,0.5c-0.2,0.3-0.4,0.6-0.7,0.8l0,0
		l-10.8,10.8c-2.2,2.2-5.7,2.2-7.8,0c-2.2-2.2-2.2-5.7,0-7.8l0,0l0,0l1.4-1.4h-28.2c-3.1,0-5.5-2.5-5.5-5.5c0-3.1,2.5-5.5,5.5-5.5
		h28.2l-1.5-1.5c-2.1-2.2-2.1-5.7,0.1-7.8c2.1-2.1,5.6-2.1,7.7,0l10.9,10.9c0.3,0.3,0.5,0.6,0.7,0.9c0.2,0.3,0.3,0.6,0.5,0.9
		c0.1,0.2,0.1,0.3,0.2,0.4v0.1c0,0.2,0.1,0.4,0.1,0.5c0,0.2,0.1,0.4,0.1,0.6c0,0.2,0,0.5,0,0.7v0.3c0,0.2,0,0.5-0.1,0.7
		C1180.2,547.9,1180.2,548,1180.1,548.2L1180.1,548.2z"/>
	<path class="st3" d="M1180.3,547.7c0-0.2,0.1-0.5,0.1-0.7C1180.3,547.2,1180.3,547.5,1180.3,547.7z"/>
	<path class="st3" d="M1180.3,547v-0.3C1180.4,546.8,1180.4,546.9,1180.3,547z"/>
	<path class="st3" d="M1180.4,546.6V546C1180.4,546.2,1180.4,546.4,1180.4,546.6z"/>
	<path class="st3" d="M1179.5,543.5c-0.2-0.3-0.4-0.6-0.7-0.9C1179,542.9,1179.3,543.2,1179.5,543.5z"/>
	<line class="st2" x1="128" y1="442.6" x2="158.5" y2="463.7"/>
	<path class="st2" d="M183.2,446.3h32.6c6.9,0,12.5,5.6,12.5,12.5V496c0,6.9-5.6,12.5-12.5,12.5h-32.6c-6.9,0-12.5-5.6-12.5-12.5
		v-37.2C170.6,451.9,176.3,446.3,183.2,446.3z"/>
	<line class="st2" x1="158.5" y1="472.9" x2="117.3" y2="461.4"/>
	<line class="st2" x1="128" y1="520.9" x2="158.5" y2="499.7"/>
	<line class="st2" x1="158.5" y1="490.5" x2="117.3" y2="502.1"/>
	<line class="st2" x1="158.5" y1="482.4" x2="111" y2="482.4"/>
	<line class="st2" x1="274" y1="443.2" x2="243.5" y2="464.4"/>
	<line class="st2" x1="243.5" y1="473.6" x2="284.7" y2="462"/>
	<line class="st2" x1="274" y1="521.5" x2="243.5" y2="500.4"/>
	<line class="st2" x1="243.5" y1="491.2" x2="284.7" y2="502.8"/>
	<line class="st2" x1="243.5" y1="483" x2="291.1" y2="483"/>
	<line class="st2" x1="443.7" y1="286.5" x2="443.7" y2="507.5"/>
	<line class="st2" x1="603.7" y1="286.5" x2="603.7" y2="507.5"/>
	<line class="st2" x1="523.7" y1="286.5" x2="523.7" y2="298.5"/>
	<line class="st4" x1="523.7" y1="320.4" x2="523.7" y2="484.6"/>
	<line class="st2" x1="523.7" y1="495.5" x2="523.7" y2="507.5"/>
	<path class="st2" d="M552.2,660.3c21.2-15.8,25.7-45.7,9.9-67c-15.8-21.2-45.7-25.7-67-9.9c-21.2,15.8-25.7,45.7-9.9,67
		c2.8,3.8,6.1,7.1,9.9,9.9"/>
	<path class="st2" d="M493.6,660.3h61c2.6,0,4.6,2.1,4.6,4.6v4.1c0,2.6-2.1,4.6-4.6,4.6h-61c-2.6,0-4.6-2.1-4.6-4.6v-4.1
		C489,662.4,491.1,660.3,493.6,660.3z"/>
	<path class="st2" d="M481.7,674.2h83.9c2.6,0,4.6,2.1,4.6,4.6v4.1c0,2.6-2.1,4.6-4.6,4.6h-83.9c-2.6,0-4.6-2.1-4.6-4.6v-4.1
		C477.1,676.3,479.2,674.2,481.7,674.2z"/>
	<path class="st5" d="M498.8,586h1.5c0.1,6.6,5.5,11.9,12.1,11.9c0,0,0,0,0,0l0,0v1.5c-6.6,0.1-11.9,5.5-11.9,12.1c0,0,0,0,0,0H499
		c-0.1-6.6-5.5-12-12.1-11.9c0,0,0,0,0,0l0,0v-1.5C493.5,598,498.8,592.6,498.8,586z"/>
	<path class="st5" d="M532.9,631.5h1.1c0.1,5.2,4.3,9.4,9.6,9.3v1.1c-5.2,0.1-9.4,4.3-9.3,9.6H533c0-5.2-4.3-9.4-9.5-9.4
		c0,0,0,0,0,0l0,0V641C528.7,641,532.9,636.8,532.9,631.5z"/>
	<line class="st5" x1="499.6" y1="635.2" x2="500" y2="635.2"/>
	<line class="st5" x1="519.3" y1="618.6" x2="519.2" y2="618.6"/>
	<line class="st5" x1="538.8" y1="601.6" x2="538.7" y2="601.6"/>
	<line class="st5" x1="535.4" y1="608.9" x2="535.3" y2="608.9"/>
	<line class="st5" x1="538.3" y1="594" x2="538.3" y2="594"/>
	<path class="st5" d="M562.2,453.8h9.2c5.5,0,9.9,4.4,9.9,9.9v29.1c0,5.5-4.4,9.9-9.9,9.9h-9.2c-5.5,0-9.9-4.4-9.9-9.9v-29.1
		C552.3,458.2,556.7,453.8,562.2,453.8z"/>
	<path class="st5" d="M562.2,352.7h9.2c5.5,0,9.9,4.4,9.9,9.9v29.1c0,5.5-4.4,9.9-9.9,9.9h-9.2c-5.5,0-9.9-4.4-9.9-9.9v-29.1
		C552.3,357.1,556.7,352.7,562.2,352.7z"/>
	<path class="st5" d="M479.1,308.4h9.2c5.5,0,9.9,4.4,9.9,9.9v29.1c0,5.5-4.4,9.9-9.9,9.9h-9.2c-5.5,0-9.9-4.4-9.9-9.9v-29.1
		C469.1,312.9,473.6,308.4,479.1,308.4z"/>
	<polyline class="st5" points="483.7,380.8 483.7,401.6 477.6,395.6 	"/>
	<polyline class="st5" points="483.7,401.6 483.7,401.6 489.7,395.6 	"/>
	<line class="st5" x1="483.7" y1="367" x2="483.7" y2="401.6"/>
	<polyline class="st5" points="566.8,329.5 566.8,308.7 572.8,314.7 	"/>
	<polyline class="st5" points="566.8,308.7 566.8,308.7 560.8,314.7 	"/>
	<line class="st5" x1="566.8" y1="343.3" x2="566.8" y2="308.7"/>
	<polyline class="st5" points="566.8,440 566.8,419.2 572.8,425.2 	"/>
	<polyline class="st5" points="566.8,419.2 566.8,419.2 560.8,425.2 	"/>
	<line class="st5" x1="566.8" y1="444.9" x2="566.8" y2="419.2"/>
	<line class="st2" x1="768" y1="282.1" x2="768" y2="691"/>
	<line class="st2" x1="928" y1="282.1" x2="928" y2="691"/>
	<line class="st2" x1="848" y1="282.1" x2="848" y2="294.1"/>
	<line class="st6" x1="848" y1="316.7" x2="848" y2="667.7"/>
	<line class="st2" x1="848" y1="679" x2="848" y2="691"/>
	<path class="st5" d="M886.5,572.8h9.2c5.5,0,9.9,4.4,9.9,9.9v29.1c0,5.5-4.4,9.9-9.9,9.9h-9.2c-5.5,0-9.9-4.4-9.9-9.9v-29.1
		C876.6,577.2,881,572.8,886.5,572.8z"/>
	<path class="st5" d="M886.5,348.3h9.2c5.5,0,9.9,4.4,9.9,9.9v29.1c0,5.5-4.4,9.9-9.9,9.9h-9.2c-5.5,0-9.9-4.4-9.9-9.9v-29.1
		C876.6,352.8,881,348.3,886.5,348.3z"/>
	<path class="st5" d="M803.4,592.7h9.2c5.5,0,9.9,4.4,9.9,9.9v29.1c0,5.5-4.4,9.9-9.9,9.9h-9.2c-5.5,0-9.9-4.4-9.9-9.9v-29.1
		C793.5,597.1,797.9,592.7,803.4,592.7z"/>
	<polyline class="st5" points="808,665.1 808,685.9 802,679.9 	"/>
	<polyline class="st5" points="808,685.9 808,685.9 814,679.9 	"/>
	<line class="st5" x1="808" y1="651.3" x2="808" y2="685.9"/>
	<polyline class="st5" points="891.1,325.2 891.1,304.3 897.1,310.4 	"/>
	<polyline class="st5" points="891.1,304.3 891.1,304.3 885.1,310.3 	"/>
	<line class="st5" x1="891.1" y1="338.9" x2="891.1" y2="304.3"/>
	<polyline class="st5" points="888.1,511.3 888.1,490.5 894.1,496.5 	"/>
	<polyline class="st5" points="888.1,490.5 888.1,490.5 882.1,496.5 	"/>
	<line class="st5" x1="888.1" y1="548.3" x2="888.1" y2="490.5"/>
	<path class="st7" d="M888.1,564.8v-0.6c0-27.5-5-25-14-34l-46.4-46.4c-9-9-17.8-20.8-21.2-41v-96.2"/>
	<polyline class="st2" points="795.6,358.5 806.8,347.3 818.1,358.6 	"/>
	<path class="st2" d="M1225.1,428.3l-39.5-10.5l-57.2-15.2c-4-1.1-8.1,1.3-9.2,5.3c-0.2,0.6-0.3,1.3-0.2,1.9v51.6
		c0,4.1,3.4,7.5,7.5,7.5l0,0c0.6,0,1.3-0.1,1.9-0.2l57.2-15.3l39.5-10.5c4-1.1,6.3-5.2,5.2-9.2C1229.6,431,1227.6,429,1225.1,428.3
		L1225.1,428.3z M1180.1,437.2c-0.1,0.2-0.1,0.3-0.2,0.5c-0.1,0.2-0.2,0.3-0.2,0.5c-0.1,0.2-0.2,0.3-0.3,0.5
		c-0.2,0.3-0.4,0.6-0.7,0.8l0,0l-10.8,10.8c-2.2,2.2-5.7,2.2-7.8,0c-2.2-2.2-2.2-5.7,0-7.8l0,0l1.4-1.4h-28.2
		c-3.1,0-5.5-2.5-5.5-5.5c0-3.1,2.5-5.5,5.5-5.5h28.2l-1.5-1.5c-2.1-2.2-2.1-5.7,0.1-7.8c2.1-2.1,5.6-2.1,7.7,0l10.9,10.9
		c0.3,0.3,0.5,0.6,0.7,0.9c0.2,0.3,0.3,0.6,0.5,0.9c0.1,0.1,0.1,0.3,0.2,0.4v0.1c0,0.2,0.1,0.4,0.1,0.5c0,0.2,0.1,0.4,0.1,0.6
		c0,0.2,0,0.5,0,0.7v0.3c0,0.2,0,0.4-0.1,0.7C1180.2,436.9,1180.2,437,1180.1,437.2L1180.1,437.2z"/>
	<path class="st3" d="M1180.3,436.7c0-0.2,0.1-0.4,0.1-0.7C1180.3,436.2,1180.3,436.4,1180.3,436.7z"/>
	<path class="st3" d="M1180.3,436v-0.3C1180.4,435.8,1180.4,435.9,1180.3,436z"/>
	<path class="st3" d="M1180.4,435.6V435C1180.4,435.2,1180.4,435.4,1180.4,435.6z"/>
	<path class="st3" d="M1179.5,432.5c-0.2-0.3-0.4-0.6-0.7-0.9C1179,431.9,1179.3,432.2,1179.5,432.5z"/>
	<line class="st2" x1="1058.6" y1="435.5" x2="1119.1" y2="435.5"/>
	<path class="st2" d="M1077,436v222.2c0,9.2,7.5,16.7,16.7,16.7h156.6c9.2,0,16.7-7.5,16.7-16.7V436"/>
	<path class="st2" d="M1230.6,435h43.8"/>
	<path class="st2" d="M1116.2,325.3h-4.3c-4.4,0-8,3.6-8,8v205.2c0,4.4,3.6,8,8,8h4.3"/>
	<path class="st2" d="M1234.5,325.2h4.3c4.4,0,8,3.6,8,8v205.3c0,4.4-3.6,8-8,8h-4.3"/>
	<line class="st2" x1="1077" y1="419" x2="1077" y2="428.8"/>
	<line class="st2" x1="1072.1" y1="423.9" x2="1082" y2="423.9"/>
	<line class="st2" x1="1085.2" y1="446.2" x2="1095.1" y2="446.2"/>
	<circle class="st2" cx="1491.6" cy="416.5" r="67.2"/>
	<path class="st2" d="M1427.4,396.5l46.6-4.3c11.7-1.1,23.5-1.1,35.2,0l46.5,4.3"/>
	<path class="st2" d="M1474.6,481.5c0.2-1.9,0.3-3.8,0.3-5.7c0-28.7-21.8-52.7-50.4-55.5"/>
	<path class="st2" d="M1508.5,481.5c-0.2-1.9-0.3-3.8-0.3-5.7c0-28.7,21.8-52.7,50.4-55.5"/>
	<circle class="st2" cx="846.7" cy="1031.6" r="39.6"/>
	<path class="st2" d="M808.9,1019.8l27.4-2.5c6.9-0.6,13.8-0.6,20.8,0l27.5,2.5"/>
	<path class="st2" d="M836.7,1070c0.1-1.1,0.2-2.2,0.2-3.4c0-16.9-12.9-31.1-29.7-32.7"/>
	<path class="st2" d="M856.7,1070c-0.1-1.1-0.2-2.2-0.2-3.4c0-16.9,12.9-31.1,29.7-32.7"/>
	<path class="st2" d="M1539.1,526.3h15.6c6.6,0,12,5.4,12,12v46.1c0,6.6-5.4,12-12,12h-15.6c-6.6,0-12-5.4-12-12v-46.1
		C1527.1,531.7,1532.5,526.3,1539.1,526.3z"/>
	<path class="st2" d="M1436.4,542.6h58.6c6.6,0,12,5.4,12,12v27.1c0,6.6-5.4,12-12,12h-58.6c-6.6,0-12-5.4-12-12v-27.1
		C1424.4,548,1429.8,542.6,1436.4,542.6z"/>
	<polygon class="st2" points="1538,551.7 1538,575 1558.1,563.3 	"/>
	<path class="st2" d="M1454.1,555.3h3.4c2,0,3.6,1.6,3.6,3.6v18.4c0,2-1.6,3.6-3.6,3.6h-3.4c-2,0-3.6-1.6-3.6-3.6v-18.4
		C1450.4,556.9,1452.1,555.3,1454.1,555.3z"/>
	<path class="st2" d="M1474,555.3h3.4c2,0,3.6,1.6,3.6,3.6v18.4c0,2-1.6,3.6-3.6,3.6h-3.4c-2,0-3.6-1.6-3.6-3.6v-18.4
		C1470.3,556.9,1471.9,555.3,1474,555.3z"/>
	<path class="st2" d="M485.4,912.5h83.8c10.9,0,19.8,8.9,19.8,19.8v94c0,6.7-3.4,13-9.1,16.7l-41.3,26.6c-6.4,4.1-14.7,4.2-21.2,0.2
		l-42.5-26.4c-5.8-3.6-9.3-10-9.3-16.8v-94.2C465.6,921.4,474.4,912.6,485.4,912.5L485.4,912.5L485.4,912.5z"/>
	<path class="st2" d="M502,986.7l3.3-3.3c1.3-1.3,3.3-1.3,4.5,0l0,0l10.4,10.5c1.3,1.3,3.3,1.3,4.6,0l26.5-26.5
		c1.3-1.3,3.3-1.3,4.5,0l0,0l3.7,3.7c1.3,1.3,1.3,3.3,0,4.5l0,0l-34.4,34.4c-1.3,1.3-3.3,1.3-4.5,0l0,0L502,991.2
		C500.8,990,500.8,987.9,502,986.7z"/>
	<path class="st2" d="M485,924.8h84.5c5.2,0.8,9.5,5.1,9.5,10.3v89.8c0,3.2-1.6,6.2-4.3,8l-41.6,26.8c-3.1,2-7,2-10.1,0.1
		l-42.9-26.6c-2.8-1.7-4.4-4.7-4.5-8v-90C475.6,929.9,479.8,925.6,485,924.8z"/>
	<path class="st2" d="M789,1027.2h-16.9c-6.6,0-12-5.4-12-12v-83.6c0-6.6,5.4-12,12-12h150.2c6.6,0,12,5.4,12,12v83.6
		c0,6.6-5.4,12-12,12h-15.5"/>
	<line class="st2" x1="794.8" y1="992.8" x2="821.7" y2="920"/>
	<line class="st2" x1="875.7" y1="920" x2="902.6" y2="992.8"/>
	<line class="st8" x1="847.5" y1="920" x2="847.5" y2="979.2"/>
	<circle class="st2" cx="1169.7" cy="954.7" r="40"/>
	<path class="st2" d="M1194,986.4h2.8c21.6,0,39.1,17.5,39.1,39.1v17h-132.4v-17c0-21.6,17.5-39.1,39.1-39.1h2.8"/>
	<ellipse class="st2" cx="1539.4" cy="928.5" rx="36.7" ry="13.3"/>
	<path class="st2" d="M1502.5,1016.1c0,7.4,16.4,13.3,36.7,13.3s36.7-6,36.7-13.3"/>
	<path class="st2" d="M1502.5,994.5c0,7.4,16.4,13.3,36.7,13.3s36.7-6,36.7-13.3"/>
	<path class="st2" d="M1502.5,972.9c0,7.4,16.4,13.3,36.7,13.3s36.7-6,36.7-13.3"/>
	<path class="st2" d="M1502.5,951.3c0,7.4,16.4,13.3,36.7,13.3s36.7-6,36.7-13.3"/>
	<line class="st2" x1="1502.7" y1="928.5" x2="1502.7" y2="1014.2"/>
	<line class="st2" x1="1576.2" y1="930.3" x2="1576.2" y2="1015.9"/>
	<ellipse class="st2" cx="1415.9" cy="937.8" rx="8.6" ry="8.4"/>
	<ellipse class="st2" cx="1415.9" cy="1009.8" rx="8.6" ry="8.4"/>
	<ellipse class="st2" cx="1455.8" cy="939" rx="8.6" ry="8.4"/>
	<line class="st2" x1="1415.9" y1="946.2" x2="1415.9" y2="1001.4"/>
	<path class="st2" d="M1455.8,947.4v2.7c0,8.2-6.7,14.9-14.9,14.9h-10.4c-8.2,0-14.9,6.7-14.9,14.9l0,0v1.6"/>
	<polygon class="st0" points="362,515.9 362,500.9 341.4,500.9 341.4,474.1 362,474.1 362,459.1 390.4,487.6 	"/>
	<polygon class="st0" points="684.1,515.9 684.1,500.9 663.5,500.9 663.5,474.1 684.1,474.1 684.1,459.1 712.5,487.6 	"/>
	<polygon class="st0" points="1006.2,515.9 1006.2,500.9 985.6,500.9 985.6,474.1 1006.2,474.1 1006.2,459.1 1034.6,487.6 	"/>
	<polygon class="st0" points="1328.3,515.9 1328.3,500.9 1307.7,500.9 1307.7,474.1 1328.3,474.1 1328.3,459.1 1356.8,487.6 	"/>
</g>
<g id="forditott">
	<g id="v2x">
		<path class="st9" d="M749.5,878.3h195.6c14.5,0,26.3,11.8,26.3,26.3v217.7c0,14.5-11.8,26.3-26.3,26.3H749.5
			c-14.5,0-26.3-11.8-26.3-26.3V904.6C723.2,890.1,734.9,878.3,749.5,878.3z"/>
		<circle class="st10" cx="846.2" cy="1032.1" r="39.6"/>
		<path class="st10" d="M808.4,1020.3l27.4-2.5c6.9-0.6,13.8-0.6,20.8,0l27.5,2.5"/>
		<path class="st10" d="M836.2,1070.4c0.1-1.1,0.2-2.2,0.2-3.4c0-16.9-12.9-31.1-29.7-32.7"/>
		<path class="st10" d="M856.2,1070.4c-0.1-1.1-0.2-2.2-0.2-3.4c0-16.9,12.9-31.1,29.7-32.7"/>
		<path class="st10" d="M788.5,1027.7h-16.9c-6.6,0-12-5.4-12-12v-83.6c0-6.6,5.4-12,12-12h150.2c6.6,0,12,5.4,12,12v83.6
			c0,6.6-5.4,12-12,12h-15.5"/>
		<line class="st10" x1="794.3" y1="993.3" x2="821.3" y2="920.4"/>
		<line class="st10" x1="875.2" y1="920.4" x2="902.2" y2="993.3"/>
		<line class="st11" x1="847.1" y1="920.4" x2="847.1" y2="979.7"/>
	</g>
</g>
<g id="szöveg_hun">
	<path class="st12" d="M99.8,237.5v-25.8h17v4.5h-12v6H115v4.5h-10.2v6.3h11.9v4.5L99.8,237.5z M109.1,209.2H106l2.3-6.2h5
		L109.1,209.2z"/>
	<path class="st12" d="M135.3,237.5l-5-10.3h-3.6v10.3h-5v-25.8h10.1c5.2,0,8.4,3.6,8.4,7.9c0.1,3-1.8,5.8-4.7,6.8l5.8,11.1H135.3z
		 M131.4,216.2h-4.7v6.8h4.7c1.9,0.1,3.5-1.3,3.6-3.2s-1.3-3.5-3.2-3.6L131.4,216.2z"/>
	<path class="st12" d="M143.8,237.5v-4.1l11-17.2h-10.5v-4.5h16.5v4l-11,17.3h11v4.5L143.8,237.5z"/>
	<path class="st12" d="M165.2,237.5v-25.8h17v4.5h-12v6h10.2v4.5h-10.1v6.3h11.9v4.5L165.2,237.5z M174.5,209.2h-3.1l2.3-6.2h5
		L174.5,209.2z"/>
	<path class="st12" d="M202,237.5l-6.6-11.7l-3.3,4v7.7h-5v-25.8h5v11.2l9.1-11.2h6.1l-8.5,10.3l9.2,15.5L202,237.5z"/>
	<path class="st12" d="M211.1,237.5v-25.8h17v4.5h-12v6h10.2v4.5h-10.1v6.3h11.9v4.5L211.1,237.5z"/>
	<path class="st12" d="M233,237.5v-25.8h5V233h11.7v4.5L233,237.5z"/>
	<path class="st12" d="M253.8,237.5v-25.8h17v4.5h-12v6H269v4.5h-10.1v6.3h11.9v4.5L253.8,237.5z M263.2,209.2H260l2.3-6.2h5
		L263.2,209.2z"/>
	<path class="st12" d="M282.8,237.7c-3.9,0-6.9-0.8-9.4-3.4l3.3-3.3c1.7,1.5,3.9,2.3,6.2,2.2c3,0,4.6-1.1,4.6-3.2
		c0.1-0.8-0.2-1.6-0.8-2.2c-0.6-0.5-1.4-0.8-2.3-0.9l-3.1-0.4c-1.9-0.2-3.6-0.9-5-2.1c-1.3-1.4-2-3.2-1.9-5.1c0-4.6,3.4-7.8,9-7.8
		c3.5,0,6.1,0.9,8.3,3l-3.2,3.1c-1.5-1.3-3.4-1.9-5.3-1.8c-2.7,0-4,1.5-4,3.2c0,0.7,0.2,1.4,0.8,1.9c0.7,0.6,1.5,0.9,2.4,1l3,0.4
		c1.8,0.1,3.5,0.8,4.9,2c1.4,1.5,2.1,3.4,2,5.5C292.4,234.9,288.2,237.7,282.8,237.7z"/>
	<path class="st12" d="M437.1,237.5v-25.8h17v4.5h-12v6h10.2v4.5h-10.1v6.3h11.9v4.5L437.1,237.5z M446.4,209.2h-3.1l2.3-6.1h5
		L446.4,209.2z"/>
	<path class="st12" d="M466.1,237.7c-3.9,0-6.9-0.8-9.4-3.4l3.2-3.3c1.7,1.5,3.9,2.3,6.2,2.2c3,0,4.6-1.1,4.6-3.2
		c0.1-0.8-0.2-1.6-0.8-2.2c-0.6-0.5-1.4-0.9-2.3-0.9l-3.1-0.4c-1.9-0.2-3.6-0.9-5-2.1c-1.3-1.4-2-3.2-1.9-5.1c0-4.6,3.4-7.8,9-7.8
		c3.5,0,6.1,0.9,8.3,3l-3.2,3.1c-1.5-1.3-3.4-1.9-5.3-1.8c-2.7,0-4,1.5-4,3.3c0,0.7,0.3,1.4,0.8,1.9c0.7,0.6,1.5,0.9,2.4,1l3,0.4
		c1.8,0.1,3.5,0.8,4.9,2c1.4,1.5,2.1,3.4,2,5.5C475.6,234.9,471.5,237.7,466.1,237.7z"/>
	<path class="st12" d="M478.8,237.5v-4.1l11-17.2h-10.5v-4.5h16.5v4l-11,17.3h11v4.5L478.8,237.5z"/>
	<path class="st12" d="M500.2,237.5v-25.8h5V233h11.7v4.5L500.2,237.5z"/>
	<path class="st12" d="M521,237.5v-25.8h17v4.5h-12v6h10.2v4.5H526v6.3h12v4.5L521,237.5z"/>
	<path class="st12" d="M542.9,237.5v-25.8h5V233h11.7v4.5L542.9,237.5z"/>
	<path class="st12" d="M563.7,237.5v-25.8h17v4.5h-12v6h10.2v4.5h-10.1v6.3h11.9v4.5L563.7,237.5z M573.1,209.2h-3.2l2.3-6.1h5
		L573.1,209.2z"/>
	<path class="st12" d="M592.7,237.7c-3.9,0-6.9-0.8-9.4-3.4l3.3-3.3c1.7,1.5,3.9,2.3,6.2,2.2c3,0,4.6-1.1,4.6-3.2
		c0.1-0.8-0.2-1.6-0.8-2.2c-0.6-0.5-1.4-0.9-2.3-0.9l-3.1-0.4c-1.8-0.2-3.6-0.9-5-2.1c-1.3-1.4-1.9-3.2-1.8-5.1c0-4.6,3.4-7.8,9-7.8
		c3.5,0,6.1,0.9,8.3,3l-3.2,3.1c-1.4-1.3-3.4-1.9-5.3-1.8c-2.7,0-4,1.5-4,3.3c0,0.7,0.3,1.4,0.8,1.9c0.7,0.6,1.5,0.9,2.4,1l3,0.4
		c1.8,0.1,3.5,0.8,4.9,2c1.4,1.5,2.1,3.4,2,5.5C602.3,234.9,598.1,237.7,592.7,237.7z"/>
	<path class="st12" d="M769.4,216.2v21.3h-5v-21.3h-6.7v-4.5h18.5v4.5H769.4z"/>
	<path class="st12" d="M780.2,237.5v-25.8h17v4.5h-12v6h10.2v4.5h-10.1v6.3h11.9v4.5L780.2,237.5z"/>
	<path class="st12" d="M815.8,237.5l-5-10.3h-3.6v10.3h-5v-25.8h10.1c5.2,0,8.4,3.6,8.4,7.9c0.1,3-1.8,5.8-4.7,6.8l5.8,11.1H815.8z
		 M811.9,216.2h-4.7v6.8h4.7c1.9,0.1,3.5-1.3,3.6-3.2c0.1-1.9-1.3-3.5-3.1-3.6L811.9,216.2z"/>
	<path class="st12" d="M835.1,237.5h-3.8l-8.5-25.8h5.2l5.2,16.8l5.2-16.8h5.2L835.1,237.5z"/>
	<path class="st12" d="M846.8,237.5v-25.8h17v4.5h-12v6H862v4.5h-10.2v6.3h11.9v4.5L846.8,237.5z"/>
	<path class="st12" d="M867.1,237.5v-4.1l11-17.2h-10.5v-4.5H884v4L873,233h11v4.5L867.1,237.5z"/>
	<path class="st12" d="M888.5,237.5v-25.8h17v4.5h-12v6h10.2v4.5h-10.2v6.3h12v4.5L888.5,237.5z M897.8,209.2h-3.2l2.3-6.1h5
		L897.8,209.2z"/>
	<path class="st12" d="M917.5,237.7c-3.9,0-6.9-0.8-9.4-3.4l3.3-3.3c1.7,1.5,3.9,2.3,6.2,2.2c3,0,4.6-1.1,4.6-3.2
		c0.1-0.8-0.2-1.6-0.8-2.2c-0.6-0.5-1.4-0.9-2.3-0.9l-3.1-0.4c-1.8-0.2-3.6-0.9-5-2.1c-1.3-1.4-2-3.2-1.8-5.1c0-4.6,3.4-7.8,9-7.8
		c3.5,0,6.1,0.9,8.3,3l-3.2,3.1c-1.5-1.3-3.4-1.9-5.3-1.8c-2.7,0-4,1.5-4,3.3c0,0.7,0.3,1.4,0.8,1.9c0.7,0.6,1.5,0.9,2.4,1l3,0.4
		c1.8,0.1,3.5,0.8,4.9,2c1.4,1.5,2.1,3.4,2,5.5C927,234.9,922.9,237.7,917.5,237.7z"/>
	<path class="st12" d="M1069.3,237.7c-3.9,0-6.9-0.8-9.4-3.4l3.3-3.3c1.7,1.5,3.9,2.3,6.2,2.2c3,0,4.6-1.1,4.6-3.2
		c0.1-0.8-0.2-1.6-0.8-2.2c-0.6-0.5-1.4-0.8-2.3-0.9l-3.1-0.4c-1.8-0.2-3.6-0.9-5-2.1c-1.3-1.4-1.9-3.2-1.8-5.1c0-4.6,3.4-7.8,9-7.8
		c3.6,0,6.1,0.9,8.3,3l-3.2,3.1c-1.4-1.3-3.4-1.9-5.3-1.8c-2.7,0-4,1.5-4,3.2c0,0.7,0.3,1.4,0.8,1.9c0.7,0.6,1.5,0.9,2.4,1l3,0.4
		c1.8,0.1,3.5,0.8,4.9,2c1.4,1.5,2.1,3.4,2,5.5C1078.8,234.9,1074.7,237.7,1069.3,237.7z"/>
	<path class="st12" d="M1082,237.5v-4.1l11-17.2h-10.5v-4.5h16.5v4l-11,17.3h11v4.5L1082,237.5z"/>
	<path class="st12" d="M1118.1,237.5l-1.5-4.6h-9.2l-1.6,4.6h-5.2l9.4-25.8h4l9.4,25.8H1118.1z M1112.1,219.3l-3.3,9.4h6.4
		L1112.1,219.3z"/>
	<path class="st12" d="M1137.3,237.5h-10.8v-25.8h10.3c5,0,8,2.8,8,7.2c0,2.2-1.2,4.3-3.2,5.3c2.3,1,3.7,3.3,3.5,5.8
		C1145.2,234.9,1141.9,237.5,1137.3,237.5z M1136.5,216.2h-4.9v5.9h4.9c2.1,0,3.3-1.2,3.3-3S1138.6,216.2,1136.5,216.2L1136.5,216.2
		z M1136.8,226.6h-5.2v6.3h5.2c1.7,0.1,3.2-1.2,3.3-3c0.1-1.7-1.2-3.2-3-3.3l0,0C1137,226.7,1136.9,226.6,1136.8,226.6L1136.8,226.6
		z"/>
	<path class="st12" d="M1165,237.5l-1.5-4.6h-9.2l-1.6,4.6h-5.2l9.4-25.8h4l9.4,25.8H1165z M1159,219.3l-3.3,9.4h6.4L1159,219.3z
		 M1160,209.2h-3.2l2.3-6.2h5L1160,209.2z"/>
	<path class="st12" d="M1173.4,237.5v-25.8h5V233h11.7v4.5L1173.4,237.5z"/>
	<path class="st12" d="M1201.2,226.9v10.6h-5v-10.6l-7.7-15.2h5.5l4.8,10.4l4.7-10.4h5.5L1201.2,226.9z"/>
	<path class="st12" d="M1210.5,237.5v-4.1l11-17.2h-10.5v-4.5h16.5v4l-11,17.3h11v4.5L1210.5,237.5z"/>
	<path class="st12" d="M1246.5,237.5l-1.5-4.6h-9.2l-1.6,4.6h-5.3l9.4-25.8h3.9l9.4,25.8H1246.5z M1240.5,219.3l-3.2,9.4h6.4
		L1240.5,219.3z M1241.5,209.2h-3.2l2.3-6.2h5L1241.5,209.2z"/>
	<path class="st12" d="M1262,237.7c-3.9,0-6.9-0.8-9.4-3.4l3.2-3.3c1.7,1.5,3.9,2.3,6.2,2.2c3,0,4.6-1.1,4.6-3.2
		c0.1-0.8-0.2-1.6-0.8-2.2c-0.6-0.5-1.4-0.9-2.3-0.9l-3.1-0.4c-1.9-0.2-3.6-0.9-5-2.1c-1.3-1.4-2-3.2-1.8-5.1c0-4.6,3.4-7.8,9-7.8
		c3.5,0,6.1,0.9,8.3,3l-3.2,3.1c-1.5-1.3-3.4-1.9-5.3-1.8c-2.7,0-4,1.5-4,3.2c0,0.7,0.3,1.4,0.8,1.9c0.7,0.6,1.5,0.9,2.4,1l3,0.4
		c1.8,0.1,3.5,0.8,4.9,2c1.4,1.5,2.1,3.4,2,5.5C1271.6,234.9,1267.4,237.7,1262,237.7z"/>
	<path class="st12" d="M1393.9,237.5l-1.5-4.6h-9.2l-1.6,4.6h-5.2l9.4-25.8h3.9l9.4,25.8H1393.9z M1387.9,219.3l-3.3,9.4h6.4
		L1387.9,219.3z"/>
	<path class="st12" d="M1417.3,237.5l-6.6-11.7l-3.3,4v7.7h-5v-25.8h5v11.2l9.1-11.2h6.1l-8.5,10.3l9.2,15.5L1417.3,237.5z"/>
	<path class="st12" d="M1436.3,216.2v21.3h-5v-21.3h-6.7v-4.5h18.5v4.5H1436.3z"/>
	<path class="st12" d="M1456.2,237.7c-5.3,0-9.5-3.6-9.5-9.1v-16.9h5v16.8c0,3,1.7,4.7,4.4,4.7s4.5-1.8,4.5-4.7v-16.8h5v16.9
		C1465.7,234.1,1461.5,237.7,1456.2,237.7z"/>
	<path class="st12" d="M1485.9,237.5l-1.5-4.6h-9.2l-1.6,4.6h-5.2l9.4-25.8h4l9.4,25.8H1485.9z M1479.9,219.3l-3.3,9.4h6.4
		L1479.9,219.3z M1480.9,209.2h-3.2l2.3-6.2h5L1480.9,209.2z"/>
	<path class="st12" d="M1502,216.2v21.3h-5v-21.3h-6.7v-4.5h18.5v4.5H1502z"/>
	<path class="st12" d="M1527.7,234.9c-3.9,3.8-10.1,3.8-13.9,0c-2.6-2.6-2.5-5.8-2.5-10.3s-0.1-7.7,2.5-10.3
		c3.9-3.8,10.1-3.8,13.9,0c2.6,2.6,2.6,5.8,2.6,10.3S1530.3,232.2,1527.7,234.9z M1524,217.3c-0.8-0.9-2-1.4-3.2-1.4
		c-1.2,0-2.4,0.5-3.3,1.4c-1,1.1-1.2,2.3-1.2,7.2s0.2,6.1,1.2,7.2c0.8,0.9,2,1.4,3.3,1.4c1.2,0,2.4-0.5,3.2-1.4
		c1-1.1,1.3-2.3,1.3-7.2S1525,218.4,1524,217.3z"/>
	<path class="st12" d="M1549.1,237.5l-5-10.3h-3.6v10.3h-5v-25.8h10.1c5.2,0,8.4,3.6,8.4,7.9c0.1,3-1.8,5.8-4.7,6.8l5.8,11.1H1549.1
		z M1545.2,216.2h-4.7v6.8h4.7c1.9,0.1,3.5-1.3,3.6-3.2s-1.3-3.5-3.2-3.6L1545.2,216.2z"/>
	<path class="st12" d="M1574.7,234.9c-3.9,3.8-10.1,3.8-13.9,0c-2.6-2.6-2.5-5.8-2.5-10.3s-0.1-7.7,2.5-10.3
		c3.9-3.8,10.1-3.8,13.9,0c2.6,2.6,2.6,5.8,2.6,10.3S1577.3,232.2,1574.7,234.9z M1571,217.3c-0.8-0.9-2-1.4-3.2-1.4
		c-1.2,0-2.4,0.5-3.2,1.4c-1,1.1-1.2,2.3-1.2,7.2s0.2,6.1,1.2,7.2c0.8,0.9,2,1.4,3.2,1.4c1.2,0,2.4-0.5,3.2-1.4
		c1-1.1,1.3-2.3,1.3-7.2S1572,218.4,1571,217.3L1571,217.3z"/>
	<path class="st12" d="M1597.4,237.5l-6.6-11.7l-3.3,4v7.7h-5v-25.8h5v11.2l9.1-11.2h6.1l-8.5,10.3l9.2,15.5L1597.4,237.5z"/>
	<path class="st12" d="M120,1119c-3.9,0-6.9-0.8-9.4-3.4l3.2-3.3c1.7,1.5,3.9,2.3,6.2,2.2c3,0,4.6-1.1,4.6-3.2
		c0-0.8-0.2-1.6-0.8-2.2c-0.6-0.5-1.4-0.9-2.3-0.9l-3.1-0.4c-1.9-0.2-3.6-0.9-5-2.1c-1.3-1.4-2-3.2-1.8-5.1c0-4.6,3.4-7.8,9-7.8
		c3.5,0,6.1,0.9,8.3,3l-3.2,3.2c-1.5-1.3-3.4-1.9-5.3-1.8c-2.7,0-4,1.5-4,3.3c0,0.7,0.3,1.4,0.8,1.8c0.7,0.6,1.5,0.9,2.4,1l3,0.4
		c1.8,0.1,3.5,0.8,4.9,2c1.4,1.5,2.1,3.4,2,5.5C129.5,1116.2,125.3,1119,120,1119z"/>
	<path class="st12" d="M132.6,1118.8v-3.6l8.4-11h-7.9v-4.2H147v3.6l-8.5,11h8.5v4.2L132.6,1118.8z"/>
	<path class="st12" d="M151.1,1096.7v-3.8h4.8v3.8H151.1z M151.2,1118.8V1100h4.7v18.9L151.2,1118.8z"/>
	<path class="st12" d="M183.1,1118.8v-11.4c0-2.6-1.6-3.4-3.1-3.4c-1.7-0.1-3.1,1.2-3.2,2.8c0,0.2,0,0.3,0,0.5v11.5h-4.7v-11.4
		c0-2.6-1.6-3.4-3.1-3.4s-3.1,0.9-3.1,3.4v11.4h-4.7V1100h4.6v1.7c1.2-1.3,2.9-2,4.7-2c2-0.1,3.8,0.8,5,2.4c1.4-1.6,3.5-2.5,5.6-2.4
		c1.7-0.1,3.4,0.5,4.6,1.7c1.4,1.4,2.2,3.4,2.1,5.3v12.1L183.1,1118.8z"/>
	<path class="st12" d="M203.7,1118.8v-1.7c-1.2,1.3-2.9,2-4.7,2c-1.6,0.1-3.3-0.5-4.4-1.7c-1.4-1.4-2.1-3.4-1.9-5.4v-12h4.7v11.4
		c0,2.6,1.6,3.4,3.1,3.4s3.1-0.9,3.1-3.4V1100h4.7v18.9L203.7,1118.8z"/>
	<path class="st12" d="M218.9,1118.8c-2.8,0.2-5.3-1.9-5.5-4.7c0,0,0,0,0,0c0-0.2,0-0.4,0-0.7V1093h4.7v20.1c0,1.1,0.5,1.7,1.7,1.7
		h1.8v4L218.9,1118.8z"/>
	<path class="st12" d="M235,1118.8v-1.6c-1.2,1.3-2.9,1.9-4.6,1.8c-1.8,0.1-3.5-0.5-4.8-1.7c-1.1-1.2-1.6-2.7-1.6-4.2
		c0-3,2.1-5.5,6.4-5.5h4.4v-0.9c0-2.1-1-3-3.5-3c-1.4-0.1-2.8,0.4-3.6,1.6l-3-2.9c1.9-2,3.7-2.6,6.8-2.6c5.3,0,8,2.2,8,6.7v12.4
		L235,1118.8z M234.9,1110.8h-3.7c-1.7,0-2.6,0.8-2.6,2.1s0.9,2.2,2.7,2.2c1.1,0.1,2.2-0.2,3-0.9c0.5-0.7,0.8-1.5,0.7-2.4
		L234.9,1110.8z M233.3,1096.9h-3.1l2.3-6.2h5L233.3,1096.9z"/>
	<path class="st12" d="M252.2,1119c-3.8,0-8.4-2-8.4-9.7s4.7-9.6,8.4-9.6c2.3-0.1,4.6,0.8,6.2,2.5l-3.2,3.2c-0.7-0.9-1.8-1.5-3-1.5
		c-1,0-2,0.4-2.7,1.2c-0.7,0.9-1,2.2-1,4.2c-0.2,1.5,0.2,3,1,4.2c0.6,0.8,1.6,1.3,2.7,1.2c1.2,0,2.3-0.6,3-1.5l3.2,3.2
		C256.8,1118.2,254.5,1119.1,252.2,1119z"/>
	<path class="st12" d="M262,1096.7v-3.8h4.8v3.8H262z M262.1,1118.8V1100h4.7v18.9L262.1,1118.8z"/>
	<path class="st12" d="M285,1116.7c-1.5,1.6-3.7,2.4-5.9,2.3c-2.2,0.1-4.3-0.8-5.8-2.3c-1.7-1.8-2.1-3.9-2.1-7.3s0.4-5.5,2.1-7.3
		c1.5-1.6,3.6-2.4,5.8-2.3c2.2-0.1,4.3,0.8,5.9,2.3c1.7,1.8,2.1,3.9,2.1,7.3S286.7,1114.9,285,1116.7z M281.3,1104.8
		c-0.6-0.6-1.4-0.9-2.2-0.8c-0.8,0-1.6,0.3-2.2,0.8c-1,1-1.1,2.6-1.1,4.6s0.1,3.6,1.1,4.6c0.6,0.6,1.4,0.9,2.2,0.8
		c0.8,0,1.6-0.3,2.2-0.8c1-1,1.1-2.7,1.1-4.6S282.3,1105.8,281.3,1104.8L281.3,1104.8z M280.3,1096.9h-3.1l2.3-6.2h5L280.3,1096.9z"
		/>
	<path class="st12" d="M456,1118.8h-10.8V1093h10.4c5,0,8,2.8,8,7.2c-3,1.7-4.1,5.5-2.4,8.6c0.6,1.1,1.6,2,2.7,2.6
		C463.9,1116.2,460.6,1118.8,456,1118.8z M455.2,1097.5h-4.9v5.9h4.9c2.1,0,3.3-1.2,3.3-3S457.3,1097.5,455.2,1097.5L455.2,1097.5z
		 M455.5,1108h-5.2v6.3h5.2c1.8,0.1,3.3-1.2,3.4-3c0.1-1.7-1.2-3.2-2.9-3.4H455.5z"/>
	<path class="st12" d="M468.6,1096.7v-3.8h4.8v3.8H468.6z M468.7,1118.8V1100h4.7v18.9L468.7,1118.8z"/>
	<path class="st12" d="M477.3,1118.8v-3.6l8.4-11h-7.9v-4.2h13.9v3.6l-8.5,11h8.5v4.2L477.3,1118.8z"/>
	<path class="st12" d="M501.8,1118.8c-2.8,0.2-5.3-1.9-5.5-4.8c0-0.2,0-0.4,0-0.6v-9.3h-2v-3.6h2v-5.6h4.7v5.6h3.3v3.6h-3.3v9
		c0,1.1,0.5,1.7,1.6,1.7h1.7v4L501.8,1118.8z"/>
	<path class="st12" d="M521.6,1116.7c-3.3,3.1-8.4,3.1-11.7,0c-1.7-1.8-2.1-3.9-2.1-7.3s0.4-5.5,2.1-7.3c3.3-3.1,8.4-3.1,11.7,0
		c1.7,1.8,2.1,3.9,2.1,7.3S523.3,1114.9,521.6,1116.7z M517.9,1104.8c-0.6-0.6-1.4-0.9-2.2-0.8c-0.8,0-1.6,0.3-2.2,0.8
		c-1,1-1.1,2.6-1.1,4.6s0.1,3.6,1.1,4.6c0.6,0.6,1.4,0.9,2.2,0.8c0.8,0,1.6-0.3,2.2-0.8c1-1,1.1-2.7,1.1-4.6
		S518.9,1105.8,517.9,1104.8L517.9,1104.8z"/>
	<path class="st12" d="M539.2,1118.8v-11.4c0-2.6-1.6-3.4-3.1-3.4s-3.2,0.9-3.2,3.4v11.4h-4.7V1100h4.6v1.7c1.2-1.3,2.9-2,4.7-2
		c1.6-0.1,3.2,0.5,4.5,1.7c1.4,1.4,2.1,3.4,1.9,5.3v12.1H539.2z"/>
	<path class="st12" d="M555.1,1119c-3,0-5.7-0.3-8-2.7l3.1-3.1c1.4,1.2,3.2,1.9,5,1.8c1.6,0,3.3-0.6,3.3-2c0-0.9-0.5-1.6-2-1.7
		l-3-0.3c-3.4-0.3-5.5-1.8-5.5-5.3c0-3.9,3.4-6,7.3-6c2.9,0,5.4,0.5,7.2,2.2l-2.9,2.9c-1.3-0.9-2.8-1.4-4.4-1.3
		c-1.9,0-2.7,0.9-2.7,1.8c0,0.7,0.3,1.5,2,1.6l3,0.3c3.7,0.4,5.6,2.3,5.6,5.5C563.1,1117,559.6,1119,555.1,1119z"/>
	<path class="st12" d="M576.8,1118.8v-1.6c-1.2,1.3-2.9,1.9-4.6,1.8c-1.8,0.1-3.5-0.5-4.8-1.7c-1-1.2-1.6-2.7-1.6-4.2
		c0-3,2.1-5.5,6.5-5.5h4.5v-0.9c0-2.1-1-3-3.5-3c-1.4-0.2-2.8,0.4-3.6,1.6l-3-2.9c1.8-2,3.7-2.6,6.8-2.6c5.3,0,8,2.2,8,6.7v12.4
		L576.8,1118.8z M576.6,1110.8h-3.7c-1.7,0-2.6,0.8-2.6,2.1s0.9,2.2,2.7,2.2c1.1,0.1,2.2-0.2,3-0.9c0.6-0.7,0.8-1.5,0.7-2.4
		L576.6,1110.8z M575,1096.9h-3.1l2.3-6.2h5L575,1096.9z"/>
	<path class="st12" d="M592.9,1125.9c-2.9,0-4.9-0.6-6.8-2.5l2.9-3c1,1,2.3,1.5,3.7,1.4c2,0.1,3.7-1.3,3.8-3.3c0-0.2,0-0.4,0-0.6
		v-1.9c-1.1,1.3-2.8,2-4.5,1.9c-1.7,0.1-3.3-0.5-4.5-1.7c-1.8-1.8-1.9-4.2-1.9-7.5s0.2-5.7,1.9-7.4c1.2-1.1,2.9-1.7,4.5-1.7
		c1.8-0.1,3.5,0.6,4.6,2v-1.8h4.6v18.2C601.2,1122.6,598,1125.9,592.9,1125.9z M593.4,1103.9c-2.8,0-3.1,2.4-3.1,4.9
		s0.3,4.9,3.1,4.9s3.1-2.4,3.1-4.9S596.2,1104,593.4,1103.9L593.4,1103.9z"/>
	<path class="st12" d="M1116.5,1119c-5.3,0-9.5-3.6-9.5-9v-17h5v16.8c0,3,1.7,4.8,4.4,4.8s4.5-1.8,4.5-4.8V1093h5v17
		C1126,1115.4,1121.8,1119,1116.5,1119z"/>
	<path class="st12" d="M1131.6,1118.8V1093h5v25.8L1131.6,1118.8z"/>
	<path class="st12" d="M1152.4,1121.5h-4.4l10.3-31.1h4.4L1152.4,1121.5z"/>
	<path class="st12" d="M1187.7,1118.8V1108h-8.7v10.8h-5V1093h5v10.5h8.7V1093h5v25.8L1187.7,1118.8z"/>
	<path class="st12" d="M1217.1,1118.8v-15l-4.9,9.8h-3.4l-5-9.8v15h-5V1093h5l6.7,13.9l6.7-13.9h5v25.8L1217.1,1118.8z"/>
	<path class="st12" d="M1228.1,1118.8V1093h5v25.8L1228.1,1118.8z"/>
	<path class="st12" d="M1424.9,1116.1c-1.9,2-4.5,3-7.3,2.9c-2.6,0.1-5.2-1-7-2.8c-1.1-1.1-1.8-2.4-2.1-3.9c-0.6-4.3-0.6-8.6,0-12.8
		c0.3-1.5,1-2.8,2.1-3.9c1.8-1.9,4.4-2.9,7-2.8c5.9,0,9,3.8,9.7,8.2h-5.1c-0.6-2.5-2.1-3.8-4.6-3.8c-1.2,0-2.4,0.5-3.2,1.4
		c-0.9,1.2-1.2,2.1-1.2,7.2s0.2,6.1,1.2,7.3c0.8,0.9,2,1.4,3.2,1.3c1.3,0.1,2.7-0.5,3.6-1.4c0.8-1,1.2-2.2,1.2-3.4v-1h-4.7v-4.2h9.7
		v3.8C1427.4,1112,1426.7,1114.2,1424.9,1116.1z"/>
	<path class="st12" d="M1431.7,1096.7v-3.8h4.8v3.8H1431.7z M1431.7,1118.8V1100h4.7v18.9L1431.7,1118.8z"/>
	<path class="st12" d="M1447.6,1118.8c-2.8,0.2-5.3-1.9-5.5-4.8c0-0.2,0-0.4,0-0.7v-9.3h-2v-3.6h2v-5.6h4.7v5.6h3.3v3.6h-3.3v9
		c0,1.1,0.5,1.7,1.6,1.7h1.7v4L1447.6,1118.8z"/>
	<path class="st12" d="M1454.2,1124.8v-11.1h5.2v7.1L1454.2,1124.8z"/>
	<path class="st12" d="M1482.6,1118.8v-1.6c-1.2,1.3-2.9,1.9-4.6,1.8c-1.8,0.1-3.5-0.5-4.8-1.7c-1.1-1.2-1.6-2.7-1.6-4.2
		c0-3,2.1-5.5,6.4-5.5h4.5v-0.9c0-2.1-1-3-3.5-3c-1.4-0.1-2.8,0.4-3.6,1.6l-3-2.9c1.8-2,3.7-2.6,6.8-2.6c5.3,0,8,2.2,8,6.7v12.4
		L1482.6,1118.8z M1482.5,1110.8h-3.7c-1.7,0-2.7,0.8-2.7,2.1s0.9,2.2,2.7,2.2c1.1,0.1,2.2-0.2,3-0.9c0.6-0.7,0.8-1.5,0.7-2.4
		L1482.5,1110.8z"/>
	<path class="st12" d="M1502.7,1118.8v-1.8c-1.2,1.4-2.9,2.1-4.7,2c-1.7,0-3.4-0.6-4.6-1.7c-1.9-1.9-1.9-5.1-1.9-8s0-6,1.9-7.9
		c1.3-1.1,2.9-1.7,4.6-1.7c1.7-0.1,3.4,0.6,4.6,1.9v-8.6h4.7v25.8L1502.7,1118.8z M1499.3,1104c-2.8,0-3.2,2.3-3.2,5.4
		s0.4,5.4,3.2,5.4s3.2-2.3,3.2-5.4S1502.1,1104,1499.3,1104z"/>
	<path class="st12" d="M1522.2,1118.8v-1.6c-1.2,1.3-2.9,1.9-4.6,1.8c-1.8,0.1-3.5-0.5-4.8-1.7c-1.1-1.2-1.6-2.7-1.6-4.2
		c0-3,2.1-5.5,6.4-5.5h4.4v-0.9c0-2.1-1-3-3.5-3c-1.4-0.1-2.8,0.4-3.6,1.6l-3-2.9c1.8-2,3.7-2.6,6.8-2.6c5.3,0,8,2.2,8,6.7v12.4
		L1522.2,1118.8z M1522.1,1110.8h-3.7c-1.7,0-2.6,0.8-2.6,2.1s0.9,2.2,2.7,2.2c1.1,0.1,2.2-0.2,3-0.9c0.5-0.7,0.8-1.5,0.7-2.4
		L1522.1,1110.8z"/>
	<path class="st12" d="M1537.8,1118.8c-2.8,0.2-5.3-1.9-5.5-4.8c0-0.2,0-0.4,0-0.6v-9.3h-2v-3.6h2v-5.6h4.7v5.6h3.3v3.6h-3.3v9
		c0,1.1,0.5,1.7,1.6,1.7h1.7v4L1537.8,1118.8z"/>
	<path class="st12" d="M1557.5,1116.7c-3.3,3.1-8.4,3.1-11.7,0c-1.7-1.8-2.1-3.9-2.1-7.3s0.4-5.5,2.1-7.3c3.3-3.1,8.4-3.1,11.7,0
		c1.7,1.8,2.1,3.9,2.1,7.3S1559.2,1114.9,1557.5,1116.7z M1553.9,1104.8c-0.6-0.6-1.4-0.9-2.2-0.8c-0.8,0-1.6,0.3-2.2,0.8
		c-1,1-1.1,2.6-1.1,4.6s0.1,3.6,1.1,4.6c0.6,0.6,1.4,0.9,2.2,0.8c0.8,0,1.6-0.3,2.2-0.8c1-1,1.1-2.7,1.1-4.6
		S1554.8,1105.8,1553.9,1104.8L1553.9,1104.8z"/>
	<path class="st12" d="M1575.5,1118.8l-4.6-7.9l-2,2.2v5.6h-4.7V1093h4.7v14.6l6.3-7.7h5.7l-6.7,7.6l7.2,11.3L1575.5,1118.8z"/>
	<path class="st12" d="M99,739.1v-9.9h2v8.2h4.5v1.7L99,739.1z"/>
	<path class="st12" d="M107.1,739.1v-9.9h2v10L107.1,739.1z"/>
	<path class="st12" d="M117.6,738.2c-0.7,0.7-1.7,1-2.6,1h-3.6v-10h3.6c1-0.1,1.9,0.3,2.6,1c1.1,1.1,1,2.5,1,4
		S118.7,737.1,117.6,738.2z M116.2,731.5c-0.4-0.4-0.9-0.7-1.5-0.6h-1.5v6.5h1.5c0.6,0,1.1-0.2,1.5-0.6c0.4-0.5,0.4-1.2,0.4-2.7
		S116.6,732,116.2,731.5L116.2,731.5z"/>
	<path class="st12" d="M126.1,739.1l-0.6-1.8H122l-0.6,1.8h-2l3.6-9.9h1.5l3.6,10L126.1,739.1z M123.8,732.1l-1.3,3.6h2.5
		L123.8,732.1z"/>
	<path class="st12" d="M134.6,739.1l-1.9-4h-1.4v4h-2v-9.9h3.9c1.7-0.1,3.1,1.1,3.2,2.8c0,0.1,0,0.2,0,0.2c0,1.2-0.7,2.2-1.8,2.6
		l2.2,4.3H134.6z M133.1,730.9h-1.8v2.6h1.8c0.7,0,1.3-0.6,1.3-1.3S133.9,730.9,133.1,730.9z"/>
	<path class="st12" d="M138.3,741.5v-4.3h2v2.8L138.3,741.5z"/>
	<path class="st12" d="M149.9,739.1l-1.8-3l-0.8,0.9v2.2h-1.8v-10h1.8v5.7l2.4-3h2.2l-2.6,2.9l2.8,4.4L149.9,739.1z"/>
	<path class="st12" d="M157.1,739.1v-0.6c-0.5,0.5-1.1,0.8-1.8,0.7c-0.7,0.1-1.4-0.2-1.9-0.7c-0.4-0.4-0.6-1-0.6-1.6
		c0-1.2,0.8-2.1,2.5-2.1h1.7v-0.4c0-0.8-0.4-1.2-1.4-1.2c-0.5-0.1-1.1,0.2-1.4,0.6l-1.2-1.1c0.7-0.7,1.6-1.1,2.6-1
		c2,0,3.1,0.9,3.1,2.6v4.8L157.1,739.1z M157.1,736.1h-1.5c-0.7,0-1,0.3-1,0.8s0.3,0.8,1,0.8c0.4,0.1,0.8-0.1,1.1-0.3
		c0.2-0.3,0.3-0.6,0.3-0.9L157.1,736.1z"/>
	<path class="st12" d="M169.3,739.1v-4.4c0-0.7-0.5-1.2-1.2-1.2c-0.7,0-1.2,0.5-1.2,1.2l0,0v4.5h-1.8v-4.4c0.1-0.6-0.4-1.2-1-1.3
		c0,0,0,0,0,0h-0.2c-0.7,0-1.2,0.5-1.2,1.1c0,0,0,0,0,0c0,0.1,0,0.1,0,0.2v4.4h-1.8v-7.3h1.8v0.7c0.5-0.5,1.1-0.8,1.8-0.8
		c0.8,0,1.5,0.3,1.9,0.9c0.6-0.6,1.4-0.9,2.2-0.9c0.7,0,1.3,0.2,1.8,0.6c0.5,0.5,0.8,1.3,0.8,2.1v4.7L169.3,739.1z"/>
	<path class="st12" d="M174.5,736.1c-0.1,0.8,0.6,1.6,1.4,1.6c0.1,0,0.1,0,0.2,0c0.6,0,1.2-0.2,1.6-0.7l1.1,1.1
		c-0.7,0.8-1.7,1.2-2.8,1.2c-1.7,0-3.4-0.8-3.4-3.7c0-2.4,1.3-3.7,3.2-3.7c1.8,0,3.2,1.5,3.2,3.2c0,0.1,0,0.2,0,0.3v0.8L174.5,736.1
		z M177.1,734.1c-0.3-0.7-1.1-1-1.8-0.6c-0.3,0.1-0.5,0.3-0.6,0.6c-0.1,0.2-0.2,0.5-0.2,0.8h2.8
		C177.3,734.6,177.2,734.3,177.1,734.1L177.1,734.1z"/>
	<path class="st12" d="M184.7,733.8c-0.4-0.5-1.2-0.6-1.7-0.1c-0.3,0.3-0.5,0.6-0.4,1v4.4h-1.8v-7.3h1.8v0.7
		c0.5-0.5,1.1-0.8,1.8-0.8c0.6,0,1.3,0.2,1.7,0.7L184.7,733.8z"/>
	<path class="st12" d="M190.7,739.1v-0.6c-0.5,0.5-1.1,0.8-1.8,0.7c-0.7,0.1-1.4-0.2-1.9-0.7c-0.4-0.4-0.6-1-0.6-1.6
		c0-1.2,0.8-2.1,2.5-2.1h1.7v-0.4c0-0.8-0.4-1.2-1.4-1.2c-0.5-0.1-1.1,0.2-1.4,0.6l-1.2-1.1c0.7-0.7,1.7-1.1,2.6-1
		c2,0,3.1,0.9,3.1,2.6v4.8L190.7,739.1z M190.7,736.1h-1.4c-0.7,0-1,0.3-1,0.8s0.3,0.8,1.1,0.8c0.4,0.1,0.8-0.1,1.1-0.3
		c0.2-0.3,0.3-0.6,0.3-0.9L190.7,736.1z"/>
	<path class="st12" d="M194.4,741.5v-4.3h2v2.8L194.4,741.5z"/>
	<path class="st12" d="M205.6,733.8c-0.4-0.5-1.2-0.6-1.7-0.1c-0.3,0.3-0.5,0.6-0.4,1v4.4h-1.8v-7.3h1.8v0.7
		c0.5-0.5,1.1-0.8,1.8-0.8c0.6,0,1.3,0.2,1.7,0.7L205.6,733.8z"/>
	<path class="st12" d="M211.6,739.1v-0.6c-0.5,0.5-1.1,0.8-1.8,0.7c-0.7,0.1-1.4-0.2-1.9-0.7c-0.4-0.4-0.6-1-0.6-1.6
		c0-1.2,0.8-2.1,2.5-2.1h1.7v-0.4c0-0.8-0.4-1.2-1.4-1.2c-0.5-0.1-1.1,0.2-1.4,0.6l-1.2-1.1c0.7-0.7,1.6-1.1,2.6-1
		c2.1,0,3.1,0.9,3.1,2.6v4.8L211.6,739.1z M211.5,736.1h-1.4c-0.7,0-1,0.3-1,0.8s0.3,0.8,1,0.8c0.4,0.1,0.8-0.1,1.1-0.3
		c0.2-0.3,0.3-0.6,0.3-0.9L211.5,736.1z"/>
	<path class="st12" d="M219.4,739.1v-0.7c-0.4,0.5-1.1,0.8-1.8,0.8c-0.7,0-1.3-0.2-1.8-0.7c-0.7-0.7-0.8-2-0.8-3.1s0-2.3,0.8-3.1
		c0.5-0.4,1.1-0.7,1.8-0.7c0.7-0.1,1.3,0.2,1.8,0.7v-3.3h1.8v10L219.4,739.1z M218.1,733.4c-1.1,0-1.2,0.9-1.2,2.1s0.1,2.1,1.2,2.1
		s1.2-0.9,1.2-2.1S219.2,733.4,218.1,733.4z"/>
	<path class="st12" d="M226.9,739.1v-0.6c-0.5,0.5-1.1,0.8-1.8,0.7c-0.7,0.1-1.4-0.2-1.9-0.7c-0.4-0.4-0.6-1-0.6-1.6
		c0-1.2,0.8-2.1,2.5-2.1h1.7v-0.4c0-0.8-0.4-1.2-1.4-1.2c-0.5-0.1-1.1,0.2-1.4,0.6l-1.1-1.1c0.7-0.7,1.6-1.1,2.6-1
		c2,0,3.1,0.9,3.1,2.6v4.8L226.9,739.1z M226.9,736.1h-1.4c-0.7,0-1,0.3-1,0.8s0.3,0.8,1.1,0.8c0.4,0.1,0.8-0.1,1.1-0.3
		c0.2-0.3,0.3-0.6,0.3-0.9L226.9,736.1z"/>
	<path class="st12" d="M234.6,733.8c-0.4-0.5-1.2-0.6-1.7-0.2c0,0,0,0,0,0c-0.3,0.3-0.5,0.7-0.4,1.1v4.4h-1.8v-7.3h1.8v0.7
		c0.5-0.5,1.1-0.8,1.8-0.8c0.6,0,1.3,0.2,1.7,0.7L234.6,733.8z"/>
	<path class="st12" d="M236.1,741.5v-4.3h2v2.8L236.1,741.5z"/>
	<path class="st12" d="M243.5,739.1v-9.9h1.9v10L243.5,739.1z"/>
	<path class="st12" d="M254.8,739.1v-5.8l-1.9,3.8h-1.3l-1.9-3.8v5.8h-1.9v-9.9h1.9l2.6,5.4l2.6-5.4h1.9v10L254.8,739.1z"/>
	<path class="st12" d="M262.6,739.2c-1.9,0.1-3.5-1.3-3.6-3.2c0-0.1,0-0.2,0-0.3v-6.5h1.9v6.5c0,1,0.8,1.7,1.7,1.7
		c1,0,1.7-0.8,1.7-1.7l0,0v-6.5h1.9v6.5c0,1.9-1.6,3.5-3.5,3.5L262.6,739.2z"/>
	<path class="st12" d="M268.2,741.5v-4.3h2v2.8L268.2,741.5z"/>
	<path class="st12" d="M281.8,738.1c-0.7,0.8-1.8,1.2-2.8,1.1c-1,0-2-0.4-2.7-1.1c-0.4-0.4-0.7-0.9-0.8-1.5c-0.2-1.7-0.2-3.3,0-5
		c0.1-0.6,0.4-1.1,0.8-1.5c0.7-0.7,1.7-1.1,2.7-1.1c1.9-0.1,3.6,1.3,3.8,3.2h-2c-0.1-0.9-0.9-1.5-1.8-1.5c-0.5,0-0.9,0.2-1.2,0.5
		c-0.4,0.5-0.5,0.8-0.5,2.8s0.1,2.4,0.5,2.8c0.3,0.4,0.8,0.5,1.2,0.5c0.5,0,1-0.2,1.4-0.6c0.3-0.4,0.5-0.8,0.4-1.3v-0.3h-1.8v-1.6
		h3.8v1.5C282.8,736.1,282.5,737.2,281.8,738.1z"/>
	<path class="st12" d="M288.4,735.4h-1.9v3.8h-2v-9.9h3.9c1.7,0,3.1,1.4,3.1,3.1S290.1,735.4,288.4,735.4
		C288.4,735.4,288.3,735.4,288.4,735.4L288.4,735.4L288.4,735.4z M288.3,730.9h-1.8v2.7h1.8c0.7,0.1,1.4-0.4,1.4-1.2c0,0,0,0,0,0
		c0-0.1,0-0.1,0-0.2c0-0.7-0.5-1.3-1.3-1.4H288.3z"/>
	<path class="st12" d="M296.1,739.2c-1.3,0.1-2.7-0.4-3.6-1.3l1.3-1.3c0.7,0.6,1.5,0.9,2.4,0.8c1.1,0,1.8-0.4,1.8-1.2
		c0-0.3-0.1-0.6-0.3-0.8c-0.2-0.2-0.6-0.3-0.9-0.3l-1.2-0.2c-0.7-0.1-1.4-0.3-1.9-0.8c-0.5-0.5-0.8-1.3-0.7-2c0-1.8,1.3-3,3.5-3
		c1.2-0.1,2.4,0.3,3.2,1.2l-1.2,1.2c-0.6-0.5-1.3-0.7-2-0.7c-1,0-1.5,0.6-1.5,1.3c0,0.3,0.1,0.5,0.3,0.7c0.3,0.2,0.6,0.4,0.9,0.4
		l1.2,0.2c0.7,0.1,1.4,0.3,1.9,0.8c0.5,0.6,0.8,1.3,0.8,2.1C299.8,738.1,298.1,739.2,296.1,739.2z"/>
	<path class="st12" d="M443.5,730.9v8.2h-2v-8.2H439v-1.7h7.1v1.8L443.5,730.9z"/>
	<path class="st12" d="M448,736.1c-0.1,0.8,0.5,1.6,1.4,1.6c0,0,0,0,0,0c0.1,0,0.1,0,0.2,0c0.6,0,1.2-0.2,1.7-0.7l1.1,1.1
		c-0.7,0.8-1.7,1.2-2.8,1.2c-1.7,0-3.4-0.8-3.4-3.7c0-2.4,1.3-3.7,3.2-3.7c1.8,0,3.2,1.5,3.2,3.2c0,0.1,0,0.2,0,0.3v0.8L448,736.1z
		 M450.6,734.1c-0.2-0.5-0.7-0.8-1.2-0.8c-0.5,0-1,0.3-1.2,0.8c-0.1,0.2-0.2,0.5-0.2,0.8h2.8C450.8,734.6,450.8,734.3,450.6,734.1
		L450.6,734.1z M449.9,730.7h-1.2l0.9-2.4h1.9L449.9,730.7z"/>
	<path class="st12" d="M458.2,733.8c-0.2-0.3-0.6-0.5-1-0.4c-0.7,0-1.2,0.6-1.2,1.2c0,0,0,0,0,0c0,0,0,0.1,0,0.1v4.4h-1.8v-7.3h1.8
		v0.7c0.5-0.5,1.1-0.8,1.8-0.8c0.6,0,1.3,0.2,1.7,0.7L458.2,733.8z"/>
	<path class="st12" d="M465,739.1l-1.8-3l-0.8,0.9v2.2h-1.8v-10h1.8v5.7l2.4-3h2.2l-2.6,2.9l2.8,4.4L465,739.1z"/>
	<path class="st12" d="M469.8,736.1c-0.1,0.8,0.5,1.6,1.4,1.6c0,0,0,0,0,0c0.1,0,0.1,0,0.2,0c0.6,0,1.2-0.2,1.7-0.7l1.1,1.1
		c-0.7,0.8-1.7,1.2-2.8,1.2c-1.7,0-3.4-0.8-3.4-3.7c0-2.4,1.3-3.7,3.2-3.7c1.8,0,3.2,1.5,3.2,3.2c0,0.1,0,0.2,0,0.3v0.8L469.8,736.1
		z M472.4,734.1c-0.2-0.5-0.7-0.8-1.2-0.8c-0.5,0-1,0.3-1.2,0.8c-0.1,0.2-0.2,0.5-0.2,0.8h2.8C472.6,734.6,472.5,734.3,472.4,734.1
		L472.4,734.1z M471.7,730.7h-1.2l0.9-2.4h1.9L471.7,730.7z"/>
	<path class="st12" d="M481.4,738.6c-0.5,0.4-1.1,0.7-1.8,0.7c-0.7,0.1-1.3-0.2-1.8-0.7v3.3h-1.8v-10h1.8v0.7
		c0.5-0.5,1.1-0.8,1.8-0.8c0.7,0,1.3,0.2,1.8,0.7c0.7,0.7,0.8,2,0.8,3.1S482.1,737.8,481.4,738.6z M479.1,733.4
		c-1.1,0-1.2,0.9-1.2,2.1s0.1,2.1,1.2,2.1s1.2-0.9,1.2-2.1S480.2,733.4,479.1,733.4z"/>
	<path class="st12" d="M483.8,741.5v-4.3h2v2.8L483.8,741.5z"/>
	<path class="st12" d="M495.1,739.1v-0.7c-0.4,0.5-1.1,0.8-1.8,0.8c-0.7,0-1.3-0.2-1.8-0.7c-0.7-0.7-0.7-2-0.7-3.1s0-2.3,0.7-3.1
		c0.5-0.4,1.1-0.7,1.8-0.7c0.7-0.1,1.3,0.2,1.8,0.7v-3.3h1.8v10L495.1,739.1z M493.8,733.4c-1.1,0-1.2,0.9-1.2,2.1s0.1,2.1,1.2,2.1
		s1.2-0.9,1.2-2.1S494.9,733.4,493.8,733.4z"/>
	<path class="st12" d="M500.3,736.1c-0.1,0.8,0.5,1.6,1.4,1.6c0,0,0,0,0,0c0.1,0,0.1,0,0.2,0c0.6,0,1.2-0.2,1.7-0.7l1.1,1.1
		c-0.7,0.8-1.7,1.2-2.8,1.2c-1.7,0-3.4-0.8-3.4-3.7c0-2.4,1.3-3.7,3.2-3.7c1.8,0,3.2,1.4,3.2,3.2c0,0.1,0,0.2,0,0.3v0.8L500.3,736.1
		z M502.9,734.1c-0.2-0.5-0.7-0.8-1.2-0.8c-0.5,0-1,0.3-1.2,0.8c-0.1,0.2-0.2,0.5-0.2,0.8h2.8C503.1,734.6,503.1,734.3,502.9,734.1
		L502.9,734.1z"/>
	<path class="st12" d="M508.9,739.1c-1.1,0.1-2-0.8-2.1-1.9v-3.8H506V732h0.8v-2.2h1.8v2.2h1.3v1.4h-1.3v3.5c0,0.4,0.2,0.7,0.6,0.7
		h0.7v1.5L508.9,739.1z"/>
	<path class="st12" d="M512.9,736.1c-0.1,0.8,0.6,1.6,1.4,1.6c0.1,0,0.1,0,0.2,0c0.6,0,1.2-0.2,1.7-0.7l1.1,1.1
		c-0.7,0.8-1.7,1.2-2.8,1.2c-1.7,0-3.4-0.8-3.4-3.7c0-2.4,1.3-3.7,3.2-3.7c1.8,0,3.2,1.5,3.2,3.2c0,0.1,0,0.2,0,0.3v0.8L512.9,736.1
		z M515.5,734.1c-0.3-0.7-1.1-1-1.8-0.6c-0.3,0.1-0.5,0.3-0.6,0.6c-0.1,0.2-0.2,0.5-0.2,0.8h2.8
		C515.7,734.6,515.6,734.3,515.5,734.1L515.5,734.1z"/>
	<path class="st12" d="M523.5,739.1l-1.8-3L521,737v2.2h-1.8v-10h1.8v5.7l2.4-3h2.2l-2.6,3l2.8,4.4H523.5z"/>
	<path class="st12" d="M529.8,739.2c-1.5,0-3.3-0.8-3.3-3.7s1.8-3.7,3.3-3.7c0.9,0,1.8,0.3,2.4,1l-1.2,1.2c-0.3-0.4-0.7-0.6-1.2-0.6
		c-0.4,0-0.8,0.2-1,0.5c-0.3,0.5-0.5,1-0.4,1.6c-0.1,0.6,0.1,1.1,0.4,1.6c0.2,0.3,0.6,0.5,1,0.5c0.5,0,0.9-0.2,1.2-0.6l1.2,1.2
		C531.5,738.9,530.7,739.3,529.8,739.2z"/>
	<path class="st12" d="M533.6,730.6v-1.5h1.9v1.5H533.6z M533.6,739.1v-7.3h1.8v7.3H533.6z"/>
	<path class="st12" d="M542.5,738.3c-1.3,1.2-3.3,1.2-4.5,0c-1.1-1.7-1.1-3.9,0-5.7c1.3-1.2,3.3-1.2,4.5,0
		C543.6,734.4,543.6,736.6,542.5,738.3z M541.1,733.7c-0.2-0.2-0.5-0.3-0.8-0.3c-0.3,0-0.6,0.1-0.8,0.3c-0.4,0.5-0.5,1.1-0.4,1.8
		c-0.1,0.6,0.1,1.3,0.4,1.8c0.2,0.2,0.5,0.3,0.8,0.3c0.3,0,0.6-0.1,0.8-0.3c0.4-0.5,0.5-1.2,0.4-1.8
		C541.6,734.9,541.4,734.2,541.1,733.7L541.1,733.7z M540.7,730.7h-1.2l0.9-2.4h1.9L540.7,730.7z"/>
	<path class="st12" d="M545,741.5v-4.3h2v2.8L545,741.5z"/>
	<path class="st12" d="M557.5,738.6c-0.5,0.4-1.1,0.7-1.8,0.7c-0.7,0.1-1.3-0.2-1.8-0.7v3.3h-1.8v-10h1.8v0.7
		c0.5-0.5,1.1-0.8,1.8-0.8c0.7,0,1.3,0.2,1.8,0.7c0.7,0.7,0.8,2,0.8,3.1S558.3,737.8,557.5,738.6z M555.2,733.4
		c-1.1,0-1.2,0.9-1.2,2.1s0.1,2.1,1.2,2.1s1.2-0.9,1.2-2.1S556.3,733.4,555.2,733.4z"/>
	<path class="st12" d="M564,733.8c-0.2-0.3-0.6-0.5-1-0.4c-0.7,0-1.2,0.6-1.2,1.2c0,0,0,0,0,0c0,0,0,0.1,0,0.1v4.4H560v-7.3h1.8v0.7
		c0.5-0.5,1.1-0.8,1.8-0.8c0.6,0,1.3,0.2,1.7,0.7L564,733.8z"/>
	<path class="st12" d="M567.4,736.1c-0.1,0.8,0.6,1.6,1.4,1.6c0.1,0,0.1,0,0.2,0c0.6,0,1.2-0.2,1.7-0.7l1.1,1.1
		c-0.7,0.8-1.7,1.2-2.8,1.2c-1.7,0-3.4-0.8-3.4-3.7c0-2.4,1.3-3.7,3.2-3.7c1.8,0,3.2,1.4,3.2,3.2c0,0.1,0,0.2,0,0.2v0.8L567.4,736.1
		z M570,734.1c-0.3-0.7-1.1-1-1.8-0.6c-0.3,0.1-0.5,0.3-0.6,0.6c-0.1,0.2-0.2,0.5-0.2,0.8h2.8C570.2,734.6,570.1,734.3,570,734.1
		L570,734.1z"/>
	<path class="st12" d="M577.7,739.1v-0.7c-0.4,0.5-1.1,0.8-1.8,0.8c-0.7,0-1.3-0.2-1.8-0.7c-0.7-0.7-0.7-2-0.7-3.1s0-2.3,0.7-3.1
		c0.5-0.4,1.1-0.7,1.8-0.7c0.7,0,1.3,0.2,1.8,0.7v-3.3h1.8v10L577.7,739.1z M576.4,733.4c-1.1,0-1.2,0.9-1.2,2.1s0.1,2.1,1.2,2.1
		s1.2-0.9,1.2-2.1S577.5,733.4,576.4,733.4z"/>
	<path class="st12" d="M581.5,730.6v-1.5h1.9v1.5H581.5z M581.5,739.1v-7.3h1.8v7.3H581.5z"/>
	<path class="st12" d="M589.7,739.1l-1.8-3l-0.8,0.9v2.2h-1.8v-10h1.8v5.7l2.4-3h2.2l-2.6,2.9l2.8,4.4L589.7,739.1z"/>
	<path class="st12" d="M596,739.2c-1.5,0-3.3-0.8-3.3-3.7s1.8-3.7,3.3-3.7c0.9,0,1.8,0.3,2.4,1l-1.2,1.2c-0.3-0.4-0.7-0.6-1.2-0.6
		c-0.4,0-0.8,0.2-1,0.5c-0.3,0.5-0.5,1-0.4,1.6c-0.1,0.6,0.1,1.1,0.4,1.6c0.2,0.3,0.6,0.5,1,0.5c0.5,0,0.9-0.2,1.2-0.6l1.2,1.2
		C597.8,738.9,596.9,739.3,596,739.2z"/>
	<path class="st12" d="M599.8,730.6v-1.5h1.9v1.5H599.8z M599.8,739.1v-7.3h1.8v7.3H599.8z"/>
	<path class="st12" d="M608.7,738.3c-0.6,0.6-1.4,0.9-2.3,0.9c-0.8,0-1.7-0.3-2.2-0.9c-1.1-1.7-1.1-3.9,0-5.7c1.3-1.2,3.2-1.2,4.5,0
		C609.8,734.4,609.8,736.6,608.7,738.3z M607.3,733.7c-0.5-0.4-1.2-0.4-1.7,0c-0.4,0.5-0.5,1.1-0.4,1.8c-0.1,0.6,0.1,1.3,0.4,1.8
		c0.2,0.2,0.5,0.3,0.8,0.3c0.3,0,0.6-0.1,0.9-0.3c0.4-0.5,0.5-1.2,0.4-1.8C607.8,734.9,607.6,734.2,607.3,733.7L607.3,733.7z
		 M606.9,730.7h-1.2l0.9-2.4h1.9L606.9,730.7z"/>
	<path class="st12" d="M797.7,738.1c-0.7,0.8-1.8,1.2-2.8,1.1c-1,0-2-0.4-2.7-1.1c-0.4-0.4-0.7-0.9-0.8-1.5c-0.2-1.7-0.2-3.3,0-5
		c0.1-0.6,0.4-1.1,0.8-1.5c0.7-0.7,1.7-1.1,2.7-1.1c1.9-0.1,3.5,1.3,3.8,3.2h-2c-0.1-0.9-0.9-1.5-1.8-1.5c-0.5,0-0.9,0.2-1.2,0.5
		c-0.4,0.5-0.5,0.8-0.5,2.8s0.1,2.4,0.5,2.8c0.3,0.4,0.8,0.6,1.2,0.5c0.5,0,1-0.2,1.4-0.6c0.3-0.4,0.5-0.8,0.5-1.3v-0.3h-1.8v-1.6
		h3.8v1.5C798.7,736.1,798.4,737.2,797.7,738.1z"/>
	<path class="st12" d="M802.3,739.1c-1.1,0.1-2.1-0.8-2.1-1.9v-8.1h1.8v7.8c0,0.4,0.2,0.7,0.6,0.7h0.7v1.5L802.3,739.1z"/>
	<path class="st12" d="M809.6,738.3c-0.6,0.6-1.4,0.9-2.3,0.9c-0.8,0-1.7-0.3-2.2-0.9c-1.1-1.7-1.1-3.9,0-5.7c1.3-1.2,3.2-1.2,4.5,0
		C810.7,734.4,810.7,736.6,809.6,738.3z M808.2,733.7c-0.5-0.4-1.2-0.4-1.7,0c-0.4,0.5-0.5,1.1-0.4,1.8c-0.1,0.6,0.1,1.3,0.4,1.8
		c0.2,0.2,0.5,0.3,0.8,0.3c0.3,0,0.6-0.1,0.9-0.3c0.4-0.5,0.5-1.2,0.4-1.8C808.7,734.9,808.5,734.2,808.2,733.7z"/>
	<path class="st12" d="M817.5,738.6c-0.5,0.4-1.1,0.7-1.8,0.7c-0.7,0-1.4-0.2-1.8-0.8v0.7h-1.8v-9.9h1.9v3.3
		c0.4-0.5,1.1-0.8,1.8-0.7c0.7,0,1.3,0.2,1.8,0.7c0.7,0.7,0.7,2,0.7,3.1C818.4,736.6,818.2,737.7,817.5,738.6z M815.2,733.4
		c-1.1,0-1.2,0.9-1.2,2.1s0.1,2.1,1.2,2.1s1.2-0.9,1.2-2.1S816.3,733.4,815.2,733.4z"/>
	<path class="st12" d="M823.7,739.1v-0.6c-0.5,0.5-1.1,0.8-1.8,0.7c-0.7,0.1-1.4-0.2-1.9-0.7c-0.4-0.4-0.6-1-0.6-1.6
		c0-1.2,0.8-2.1,2.5-2.1h1.7v-0.4c0-0.8-0.4-1.2-1.4-1.2c-0.5-0.1-1.1,0.2-1.4,0.6l-1.2-1.1c0.7-0.7,1.6-1.1,2.6-1
		c2,0,3.1,0.9,3.1,2.6v4.8L823.7,739.1z M823.7,736.1h-1.4c-0.7,0-1,0.3-1,0.8s0.3,0.8,1,0.8c0.4,0.1,0.8-0.1,1.2-0.3
		c0.2-0.3,0.3-0.6,0.3-0.9L823.7,736.1z M823.1,730.7h-1.2l0.9-2.4h1.9L823.1,730.7z"/>
	<path class="st12" d="M829.5,739.1c-1.1,0.1-2.1-0.8-2.1-1.9v-8.1h1.8v7.8c0,0.4,0.2,0.7,0.6,0.7h0.7v1.5L829.5,739.1z"/>
	<path class="st12" d="M832,730.6v-1.5h1.9v1.5H832z M832,739.1v-7.3h1.8v7.3H832z"/>
	<path class="st12" d="M838.3,739.2c-1.1,0.1-2.3-0.2-3.1-1l1.2-1.2c0.5,0.5,1.2,0.7,2,0.7c0.6,0,1.3-0.2,1.3-0.8
		c0-0.4-0.2-0.6-0.8-0.7l-1.2-0.1c-1.3-0.1-2.1-0.7-2.1-2c0-1.5,1.3-2.3,2.8-2.3c1-0.1,2,0.2,2.8,0.8l-1.1,1
		c-0.5-0.4-1.1-0.5-1.7-0.5c-0.7,0-1,0.3-1,0.7s0.1,0.6,0.8,0.6l1.2,0.1c1.4,0.1,2.2,0.9,2.2,2.1C841.4,738.5,840,739.2,838.3,739.2
		z"/>
	<path class="st12" d="M847.6,736.1c-0.1,0.8,0.5,1.6,1.4,1.6c0,0,0,0,0,0c0.1,0,0.2,0,0.2,0c0.6,0,1.2-0.2,1.7-0.7l1.1,1.1
		c-0.7,0.8-1.7,1.2-2.8,1.2c-1.7,0-3.4-0.8-3.4-3.7c0-2.4,1.3-3.7,3.2-3.7c1.8,0,3.2,1.5,3.2,3.2c0,0.1,0,0.2,0,0.3v0.8L847.6,736.1
		z M850.2,734.1c-0.3-0.7-1.1-1-1.8-0.6c-0.3,0.1-0.5,0.4-0.6,0.6c-0.1,0.2-0.2,0.5-0.2,0.8h2.8
		C850.3,734.6,850.3,734.3,850.2,734.1L850.2,734.1z M849.4,730.7h-1.2l0.9-2.4h1.9L849.4,730.7z"/>
	<path class="st12" d="M856.2,739.2c-1.1,0.1-2.3-0.2-3.1-1l1.2-1.2c0.5,0.5,1.2,0.7,1.9,0.7c0.6,0,1.3-0.2,1.3-0.8
		c0-0.4-0.2-0.6-0.8-0.7l-1.2-0.1c-1.3-0.1-2.1-0.7-2.1-2c0-1.5,1.3-2.3,2.8-2.3c1-0.1,2,0.2,2.8,0.8l-1.1,1
		c-0.5-0.4-1.1-0.5-1.7-0.5c-0.7,0-1,0.3-1,0.7s0.1,0.6,0.8,0.6l1.2,0.1c1.4,0.1,2.2,0.9,2.2,2.1
		C859.3,738.5,857.9,739.2,856.2,739.2z"/>
	<path class="st12" d="M866.1,739.1c-1.1,0.1-2.1-0.8-2.1-1.9v-8.1h1.8v7.8c0,0.4,0.2,0.7,0.7,0.7h0.7v1.5L866.1,739.1z"/>
	<path class="st12" d="M873.4,738.3c-0.6,0.6-1.4,0.9-2.3,0.9c-0.8,0-1.7-0.3-2.3-0.9c-1.1-1.7-1.1-3.9,0-5.7
		c0.6-0.6,1.4-0.9,2.3-0.9c0.8,0,1.7,0.3,2.3,0.9C874.5,734.4,874.5,736.6,873.4,738.3z M872,733.7c-0.2-0.2-0.5-0.3-0.8-0.3
		c-0.3,0-0.6,0.1-0.8,0.3c-0.4,0.5-0.5,1.1-0.4,1.8c-0.1,0.6,0.1,1.3,0.4,1.8c0.2,0.2,0.5,0.3,0.8,0.3c0.3,0,0.6-0.1,0.8-0.4
		c0.4-0.5,0.5-1.2,0.4-1.8C872.5,734.8,872.3,734.2,872,733.7z"/>
	<path class="st12" d="M880.3,739.1l-1.8-3l-0.8,0.9v2.2h-1.8v-10h1.8v5.7l2.4-3h2.2l-2.6,2.9l2.8,4.4L880.3,739.1z"/>
	<path class="st12" d="M887.5,739.1v-0.6c-0.5,0.5-1.1,0.8-1.8,0.7c-0.7,0.1-1.4-0.2-1.9-0.7c-0.4-0.4-0.6-1-0.6-1.6
		c0-1.2,0.8-2.1,2.5-2.1h1.7v-0.4c0-0.8-0.4-1.2-1.4-1.2c-0.5-0.1-1.1,0.2-1.4,0.6l-1.2-1.1c0.7-0.7,1.6-1.1,2.6-1
		c2,0,3.1,0.9,3.1,2.6v4.8L887.5,739.1z M887.5,736.1H886c-0.7,0-1,0.3-1,0.8s0.3,0.8,1,0.8c0.4,0.1,0.8-0.1,1.2-0.3
		c0.2-0.3,0.3-0.6,0.3-0.9L887.5,736.1z M886.9,730.7h-1.2l0.9-2.4h1.9L886.9,730.7z"/>
	<path class="st12" d="M893.3,739.1c-1.1,0.1-2.1-0.8-2.1-1.9v-8.1h1.8v7.8c0,0.4,0.2,0.7,0.6,0.7h0.7v1.5L893.3,739.1z"/>
	<path class="st12" d="M895.8,730.6v-1.5h1.9v1.5H895.8z M895.8,739.1v-7.3h1.8v7.3H895.8z"/>
	<path class="st12" d="M902,739.2c-1.1,0.1-2.3-0.2-3.1-1l1.2-1.2c0.5,0.5,1.2,0.7,2,0.7c0.6,0,1.3-0.2,1.3-0.8
		c0-0.4-0.2-0.6-0.8-0.7l-1.2-0.1c-1.3-0.1-2.1-0.7-2.1-2c0-1.5,1.3-2.3,2.8-2.3c1-0.1,2,0.2,2.8,0.8l-1.1,1.1
		c-0.5-0.4-1.1-0.5-1.7-0.5c-0.7,0-1,0.3-1,0.7s0.1,0.6,0.8,0.6l1.2,0.1c1.4,0.1,2.2,0.9,2.2,2.1C905.1,738.5,903.8,739.2,902,739.2
		z"/>
	<path class="st12" d="M1082.6,735.4h-1.9v3.8h-1.9v-9.9h3.9c1.7,0,3.1,1.4,3.1,3.1S1084.3,735.4,1082.6,735.4
		C1082.6,735.4,1082.6,735.4,1082.6,735.4L1082.6,735.4L1082.6,735.4z M1082.5,730.9h-1.8v2.7h1.8c0.7,0.1,1.4-0.4,1.4-1.1
		c0,0,0,0,0,0c0-0.1,0-0.1,0-0.2c0-0.7-0.5-1.3-1.3-1.4H1082.5z"/>
	<path class="st12" d="M1091.5,739.1v-0.7c-0.5,0.5-1.1,0.8-1.8,0.8c-0.6,0-1.3-0.2-1.7-0.6c-0.5-0.6-0.8-1.3-0.8-2.1v-4.7h1.8v4.4
		c-0.1,0.7,0.4,1.3,1.1,1.3c0.7,0.1,1.3-0.4,1.3-1.1c0,0,0,0,0,0c0-0.1,0-0.1,0-0.2v-4.4h1.8v7.3L1091.5,739.1z"/>
	<path class="st12" d="M1099.3,733.8c-0.4-0.5-1.2-0.6-1.7-0.1c-0.3,0.3-0.5,0.6-0.4,1v4.4h-1.8v-7.3h1.8v0.7
		c0.5-0.5,1.1-0.8,1.8-0.8c0.6,0,1.3,0.2,1.7,0.7L1099.3,733.8z"/>
	<path class="st12" d="M1104,739.2c-1.1,0.1-2.3-0.2-3.1-1l1.2-1.2c0.5,0.5,1.2,0.7,1.9,0.7c0.6,0,1.3-0.2,1.3-0.8
		c0-0.4-0.2-0.6-0.8-0.7l-1.2-0.1c-1.3-0.1-2.1-0.7-2.1-2c0-1.5,1.3-2.3,2.8-2.3c1-0.1,2,0.2,2.8,0.8l-1.1,1.1
		c-0.5-0.4-1.1-0.5-1.7-0.5c-0.7,0-1,0.3-1,0.7s0.1,0.6,0.8,0.6l1.2,0.1c1.4,0.1,2.2,0.9,2.2,2.1
		C1107.1,738.5,1105.7,739.2,1104,739.2z"/>
	<path class="st12" d="M1112.8,739.1v-0.7c-0.5,0.5-1.1,0.8-1.8,0.8c-0.6,0-1.3-0.2-1.7-0.6c-0.5-0.6-0.8-1.3-0.7-2.1v-4.7h1.8v4.4
		c-0.1,0.7,0.4,1.3,1,1.4c0.7,0.1,1.3-0.4,1.4-1c0,0,0,0,0,0c0-0.1,0-0.2,0-0.3v-4.4h1.8v7.3L1112.8,739.1z"/>
	<path class="st12" d="M1116.6,730.6v-1.5h1.9v1.5H1116.6z M1116.6,739.1v-7.3h1.8v7.3H1116.6z"/>
	<path class="st12" d="M1122.8,739.1c-1.1,0.1-2.1-0.8-2.1-1.9v-3.8h-0.8V732h0.8v-2.2h1.8v2.2h1.3v1.4h-1.3v3.5
		c0,0.4,0.2,0.7,0.6,0.7h0.7v1.5L1122.8,739.1z"/>
	<path class="st12" d="M1125.3,741.5v-4.3h2v2.8L1125.3,741.5z"/>
	<path class="st12" d="M1141,739.1v-4.4c0-0.7-0.5-1.2-1.2-1.2c-0.7,0-1.2,0.5-1.2,1.2l0,0v4.5h-1.8v-4.4c0.1-0.7-0.4-1.3-1.1-1.4
		c-0.7-0.1-1.3,0.4-1.3,1c0,0.1,0,0.2,0,0.3v4.4h-1.8v-7.3h1.8v0.7c0.5-0.5,1.1-0.8,1.8-0.8c0.8,0,1.5,0.3,1.9,0.9
		c0.6-0.6,1.4-1,2.2-0.9c0.7,0,1.3,0.2,1.8,0.6c0.5,0.5,0.8,1.3,0.8,2.1v4.7L1141,739.1z"/>
	<path class="st12" d="M1149.9,738.3c-0.6,0.6-1.4,0.9-2.3,0.9c-0.8,0-1.7-0.3-2.2-0.9c-1.1-1.7-1.1-3.9,0-5.7
		c1.3-1.2,3.2-1.2,4.5,0C1151,734.4,1151,736.6,1149.9,738.3z M1148.4,733.7c-0.5-0.4-1.2-0.4-1.7,0c-0.4,0.5-0.5,1.1-0.4,1.8
		c-0.1,0.6,0.1,1.3,0.4,1.8c0.5,0.4,1.2,0.4,1.7,0c0.4-0.5,0.5-1.2,0.4-1.8C1149,734.9,1148.8,734.2,1148.4,733.7L1148.4,733.7z"/>
	<path class="st12" d="M1156.5,739.1v-0.7c-0.4,0.5-1.1,0.8-1.8,0.8c-0.7,0-1.3-0.2-1.8-0.7c-0.7-0.7-0.8-2-0.8-3.1s0-2.3,0.8-3.1
		c0.5-0.4,1.1-0.7,1.8-0.7c0.7-0.1,1.3,0.2,1.8,0.7v-3.3h1.8v10L1156.5,739.1z M1155.2,733.4c-1.1,0-1.2,0.9-1.2,2.1
		s0.2,2.1,1.2,2.1s1.2-0.9,1.2-2.1S1156.3,733.4,1155.2,733.4z"/>
	<path class="st12" d="M1161.7,736.1c-0.1,0.8,0.5,1.6,1.4,1.6c0,0,0,0,0,0c0.1,0,0.1,0,0.2,0c0.6,0.1,1.3-0.2,1.7-0.7l1.1,1.1
		c-0.7,0.8-1.7,1.2-2.8,1.1c-1.7,0-3.4-0.8-3.4-3.7c0-2.4,1.3-3.7,3.2-3.7c1.8,0,3.2,1.5,3.2,3.2c0,0.1,0,0.2,0,0.2v0.8
		L1161.7,736.1z M1164.3,734.1c-0.3-0.7-1.1-1-1.8-0.6c-0.3,0.1-0.5,0.3-0.6,0.6c-0.1,0.2-0.2,0.5-0.2,0.8h2.8
		C1164.5,734.6,1164.4,734.3,1164.3,734.1L1164.3,734.1z"/>
	<path class="st12" d="M1170,739.1c-1.1,0.1-2.1-0.8-2.1-1.9v-8.1h1.8v7.8c0,0.4,0.2,0.7,0.6,0.7h0.7v1.5L1170,739.1z"/>
	<path class="st12" d="M1181.1,738.6c-0.5,0.4-1.1,0.7-1.8,0.7c-0.7,0-1.3-0.2-1.8-0.7v3.3h-1.8v-10h1.8v0.7
		c0.5-0.5,1.1-0.8,1.8-0.8c0.7,0,1.3,0.2,1.8,0.7c0.7,0.7,0.7,2,0.7,3.1S1181.8,737.8,1181.1,738.6z M1178.8,733.4
		c-1.1,0-1.2,0.9-1.2,2.1s0.1,2.1,1.2,2.1s1.2-0.9,1.2-2.1S1179.9,733.4,1178.8,733.4z"/>
	<path class="st12" d="M1187.6,733.8c-0.4-0.5-1.2-0.6-1.7-0.1c-0.3,0.3-0.5,0.6-0.4,1v4.4h-1.8v-7.3h1.8v0.7
		c0.5-0.5,1.1-0.8,1.8-0.8c0.6,0,1.3,0.2,1.7,0.7L1187.6,733.8z"/>
	<path class="st12" d="M1191,736.1c-0.1,0.8,0.6,1.6,1.4,1.6c0.1,0,0.1,0,0.2,0c0.6,0,1.2-0.2,1.7-0.7l1.1,1.1
		c-0.7,0.8-1.7,1.2-2.8,1.1c-1.7,0-3.4-0.8-3.4-3.7c0-2.4,1.3-3.7,3.2-3.7c1.8,0,3.2,1.5,3.2,3.2c0,0.1,0,0.2,0,0.2v0.8L1191,736.1z
		 M1193.6,734.1c-0.2-0.5-0.7-0.8-1.2-0.8c-0.5,0-1,0.3-1.2,0.8c-0.1,0.2-0.2,0.5-0.2,0.8h2.8
		C1193.8,734.6,1193.7,734.3,1193.6,734.1L1193.6,734.1z"/>
	<path class="st12" d="M1199.5,739.1c-1.1,0.1-2.1-0.8-2.1-1.9v-3.8h-0.8V732h0.8v-2.2h1.8v2.2h1.3v1.4h-1.3v3.5
		c0,0.4,0.2,0.7,0.6,0.7h0.7v1.5L1199.5,739.1z"/>
	<path class="st12" d="M1202.1,730.6v-1.5h1.9v1.5H1202.1z M1202.1,739.1v-7.3h1.8v7.3H1202.1z"/>
	<path class="st12" d="M1208.9,739.2c-1.5,0-3.3-0.8-3.3-3.7s1.8-3.7,3.3-3.7c0.9,0,1.8,0.3,2.4,1l-1.2,1.2
		c-0.3-0.4-0.7-0.6-1.2-0.6c-0.4,0-0.8,0.2-1,0.5c-0.3,0.5-0.5,1-0.4,1.6c-0.1,0.6,0.1,1.1,0.4,1.6c0.2,0.3,0.6,0.5,1,0.5
		c0.5,0,0.9-0.2,1.2-0.6l1.2,1.2C1210.7,738.9,1209.8,739.3,1208.9,739.2z"/>
	<path class="st12" d="M1215,739.1c-1.1,0.1-2-0.8-2.1-1.9v-3.8h-0.8V732h0.8v-2.2h1.8v2.2h1.3v1.4h-1.3v3.5c0,0.4,0.2,0.7,0.6,0.7
		h0.7v1.5L1215,739.1z"/>
	<path class="st12" d="M1217.6,730.6v-1.5h1.9v1.5H1217.6z M1217.6,739.1v-7.3h1.8v7.3H1217.6z"/>
	<path class="st12" d="M1224.6,739.1h-1.4l-2.7-7.3h1.9l1.5,4.5l1.5-4.5h1.9L1224.6,739.1z"/>
	<path class="st12" d="M1229.7,736.1c-0.1,0.8,0.5,1.6,1.4,1.6c0,0,0,0,0,0c0.1,0,0.2,0,0.2,0c0.6,0,1.2-0.2,1.7-0.7l1.1,1.1
		c-0.7,0.8-1.7,1.2-2.8,1.1c-1.7,0-3.4-0.8-3.4-3.7c0-2.4,1.3-3.7,3.2-3.7c1.8,0,3.2,1.5,3.2,3.2c0,0.1,0,0.2,0,0.2v0.8
		L1229.7,736.1z M1232.3,734.1c-0.2-0.5-0.7-0.8-1.2-0.8c-0.5,0-1,0.3-1.2,0.8c-0.1,0.2-0.2,0.5-0.2,0.8h2.8
		C1232.4,734.6,1232.4,734.3,1232.3,734.1L1232.3,734.1z"/>
	<path class="st12" d="M1235.8,741.5v-4.3h2v2.8L1235.8,741.5z"/>
	<path class="st12" d="M1245.4,739.2c-1.1,0.1-2.3-0.2-3.1-1l1.2-1.2c0.5,0.5,1.3,0.8,2,0.7c0.6,0,1.3-0.2,1.3-0.8
		c0-0.4-0.2-0.6-0.8-0.7l-1.2-0.1c-1.3-0.1-2.1-0.7-2.1-2c0-1.5,1.3-2.3,2.8-2.3c1-0.1,2,0.2,2.8,0.8l-1.1,1.1
		c-0.5-0.4-1.1-0.5-1.7-0.5c-0.7,0-1,0.3-1,0.7s0.1,0.6,0.8,0.6l1.2,0.1c1.4,0.1,2.2,0.9,2.2,2.1
		C1248.6,738.5,1247.2,739.2,1245.4,739.2z"/>
	<path class="st12" d="M1252.2,739.1c-1.1,0.1-2-0.8-2.1-1.9v-3.8h-0.8V732h0.8v-2.2h1.8v2.2h1.3v1.4h-1.3v3.5
		c0,0.4,0.2,0.7,0.6,0.7h0.7v1.5L1252.2,739.1z"/>
	<path class="st12" d="M1260.2,738.6c-0.5,0.4-1.1,0.7-1.8,0.7c-0.7,0-1.4-0.2-1.8-0.8v0.7h-1.8v-9.9h1.8v3.3
		c0.4-0.5,1.1-0.8,1.8-0.7c0.7,0,1.3,0.2,1.8,0.7c0.7,0.7,0.8,2,0.8,3.1S1261,737.8,1260.2,738.6z M1257.9,733.4
		c-1.1,0-1.2,0.9-1.2,2.1s0.1,2.1,1.2,2.1s1.2-0.9,1.2-2.1S1259,733.4,1257.9,733.4z"/>
	<path class="st12" d="M1262.6,739.1v-2.1h2.1v2.1H1262.6z"/>
	<path class="st12" d="M1427.4,739.1l-2.6-4.5l-1.3,1.5v3h-1.9v-9.9h1.9v4.3l3.5-4.3h2.4l-3.3,4l3.6,6L1427.4,739.1z"/>
	<path class="st12" d="M1435.8,738.3c-0.6,0.6-1.4,0.9-2.3,0.9c-0.8,0-1.7-0.3-2.2-0.9c-1.1-1.7-1.1-3.9,0-5.7
		c1.3-1.2,3.2-1.2,4.5,0C1437,734.4,1437,736.6,1435.8,738.3z M1434.4,733.7c-0.5-0.4-1.2-0.4-1.7,0c-0.4,0.5-0.5,1.1-0.4,1.8
		c-0.1,0.6,0.1,1.3,0.4,1.8c0.2,0.2,0.5,0.3,0.8,0.3c0.3,0,0.6-0.1,0.9-0.3c0.4-0.5,0.5-1.2,0.4-1.8
		C1434.9,734.9,1434.8,734.2,1434.4,733.7z"/>
	<path class="st12" d="M1442.4,733.8c-0.4-0.5-1.2-0.6-1.7-0.2c0,0,0,0,0,0c-0.3,0.3-0.5,0.7-0.4,1.1v4.4h-1.8v-7.3h1.8v0.7
		c0.5-0.5,1.1-0.8,1.8-0.8c0.6,0,1.3,0.2,1.7,0.7L1442.4,733.8z"/>
	<path class="st12" d="M1453.3,739.1v-4.4c0-0.7-0.5-1.2-1.2-1.2c-0.7,0-1.2,0.5-1.2,1.2l0,0v4.5h-1.8v-4.4c0.1-0.7-0.4-1.3-1.1-1.3
		c-0.7-0.1-1.3,0.4-1.3,1.1c0,0.1,0,0.1,0,0.2v4.4h-1.8v-7.3h1.8v0.7c0.5-0.5,1.1-0.8,1.8-0.8c0.8,0,1.5,0.3,1.9,0.9
		c0.6-0.6,1.4-0.9,2.2-0.9c0.7,0,1.3,0.2,1.8,0.6c0.5,0.5,0.8,1.3,0.8,2.1v4.7L1453.3,739.1z"/>
	<path class="st12" d="M1460.8,739.1v-0.6c-0.5,0.5-1.1,0.8-1.8,0.7c-0.7,0.1-1.4-0.2-1.9-0.7c-0.4-0.4-0.6-1-0.6-1.6
		c0-1.2,0.8-2.1,2.5-2.1h1.7v-0.4c0-0.8-0.4-1.2-1.3-1.2c-0.5-0.1-1.1,0.2-1.4,0.6l-1.2-1.1c0.7-0.7,1.6-1.1,2.6-1
		c2,0,3.1,0.9,3.1,2.6v4.8L1460.8,739.1z M1460.8,736.1h-1.4c-0.7,0-1,0.3-1,0.8s0.3,0.8,1,0.8c0.4,0.1,0.8-0.1,1.2-0.3
		c0.2-0.3,0.3-0.6,0.3-0.9L1460.8,736.1z M1460.2,730.7h-1.2l0.9-2.4h1.9L1460.2,730.7z"/>
	<path class="st12" d="M1468.8,739.1v-4.4c0.1-0.7-0.4-1.3-1.1-1.3c-0.7-0.1-1.3,0.4-1.3,1.1c0,0.1,0,0.1,0,0.2v4.4h-1.8v-7.3h1.8
		v0.7c0.5-0.5,1.1-0.8,1.8-0.8c0.6,0,1.3,0.2,1.7,0.6c0.5,0.6,0.8,1.3,0.8,2.1v4.7H1468.8z"/>
	<path class="st12" d="M1475.2,740.3c-0.1,0.3-0.3,0.7-0.5,0.9c-0.4,0.4-1,0.6-1.6,0.6h-0.7v-1.6h0.4c0.4,0.1,0.8-0.2,0.9-0.6
		c0,0,0,0,0,0l0,0l0.3-0.9l-2.5-6.8h1.9l1.5,4.5l1.5-4.5h1.9L1475.2,740.3z"/>
	<path class="st12" d="M1479,739.1v-1.4l3.2-4.3h-3v-1.6h5.4v1.4l-3.3,4.3h3.3v1.6L1479,739.1z"/>
	<path class="st12" d="M1489.9,739.1v-0.6c-0.5,0.5-1.1,0.8-1.8,0.7c-0.7,0.1-1.4-0.2-1.9-0.7c-0.4-0.4-0.6-1-0.6-1.6
		c0-1.2,0.8-2.1,2.5-2.1h1.7v-0.4c0-0.8-0.4-1.2-1.4-1.2c-0.5-0.1-1.1,0.2-1.4,0.6l-1.2-1.1c0.7-0.7,1.6-1.1,2.6-1
		c2,0,3.1,0.9,3.1,2.6v4.8L1489.9,739.1z M1489.9,736.1h-1.4c-0.7,0-1,0.3-1,0.8s0.3,0.8,1,0.8c0.4,0.1,0.8-0.1,1.2-0.3
		c0.2-0.3,0.3-0.6,0.3-0.9L1489.9,736.1z M1489.3,730.7h-1.3l0.9-2.4h1.9L1489.3,730.7z"/>
	<path class="st12" d="M1496,739.2c-1.1,0.1-2.3-0.2-3.1-1l1.2-1.2c0.5,0.5,1.3,0.8,2,0.7c0.6,0,1.3-0.2,1.3-0.8
		c0-0.4-0.2-0.6-0.8-0.7l-1.2-0.1c-1.3-0.1-2.1-0.7-2.1-2c0-1.5,1.3-2.3,2.8-2.3c1-0.1,2,0.2,2.8,0.8l-1.1,1.1
		c-0.5-0.4-1.1-0.5-1.7-0.5c-0.7,0-1,0.3-1,0.7s0.1,0.6,0.8,0.6l1.2,0.1c1.4,0.1,2.2,0.9,2.2,2.1
		C1499.1,738.5,1497.7,739.2,1496,739.2z"/>
	<path class="st12" d="M1500.6,741.5v-4.3h2v2.8L1500.6,741.5z"/>
	<path class="st12" d="M1510.3,741.9c-1,0.1-1.9-0.3-2.7-1l1.1-1.2c0.4,0.4,0.9,0.6,1.4,0.6c0.8,0.1,1.4-0.5,1.5-1.3
		c0-0.1,0-0.2,0-0.2v-0.7c-0.4,0.5-1.1,0.8-1.7,0.7c-0.6,0-1.3-0.2-1.7-0.6c-0.7-0.7-0.7-1.6-0.7-2.9s0-2.2,0.7-2.9
		c0.5-0.4,1.1-0.7,1.8-0.6c0.7,0,1.3,0.2,1.8,0.8v-0.7h1.8v7c0,1.7-1.3,3-2.9,3.1c0,0,0,0,0,0L1510.3,741.9z M1510.5,733.4
		c-1.1,0-1.2,0.9-1.2,1.9s0.1,1.9,1.2,1.9s1.2-0.9,1.2-1.9S1511.6,733.4,1510.5,733.4z"/>
	<path class="st12" d="M1519.3,739.1v-0.6c-0.5,0.5-1.1,0.8-1.8,0.7c-0.7,0.1-1.4-0.2-1.9-0.7c-0.4-0.4-0.6-1-0.6-1.6
		c0-1.2,0.8-2.1,2.5-2.1h1.7v-0.4c0-0.8-0.4-1.2-1.4-1.2c-0.5-0.1-1.1,0.2-1.4,0.6l-1.2-1.1c0.7-0.7,1.6-1.1,2.6-1
		c2,0,3.1,0.9,3.1,2.6v4.8L1519.3,739.1z M1519.3,736.1h-1.4c-0.7,0-1,0.3-1,0.8s0.3,0.8,1,0.8c0.4,0.1,0.8-0.1,1.2-0.3
		c0.2-0.3,0.3-0.6,0.3-0.9L1519.3,736.1z M1518.7,730.7h-1.2l0.9-2.4h1.9L1518.7,730.7z"/>
	<path class="st12" d="M1522.5,739.1v-1.4l3.2-4.3h-3v-1.6h5.4v1.4l-3.3,4.3h3.3v1.6L1522.5,739.1z"/>
	<path class="st12" d="M1534.4,736.1c-0.1,0.8,0.5,1.6,1.4,1.6c0,0,0,0,0,0c0.1,0,0.2,0,0.2,0c0.6,0,1.2-0.2,1.7-0.7l1.1,1.1
		c-0.7,0.8-1.7,1.2-2.8,1.2c-1.7,0-3.4-0.8-3.4-3.7c0-2.4,1.3-3.7,3.2-3.7c1.8,0,3.2,1.4,3.2,3.2c0,0.1,0,0.2,0,0.3v0.8
		L1534.4,736.1z M1537,734.1c-0.3-0.7-1.1-1-1.8-0.6c-0.3,0.1-0.5,0.4-0.6,0.6c-0.1,0.2-0.2,0.5-0.2,0.8h2.8
		C1537.2,734.6,1537.1,734.3,1537,734.1L1537,734.1z M1536.3,730.7h-1.2l0.9-2.4h1.9L1536.3,730.7z"/>
	<path class="st12" d="M1543,739.2c-1.1,0.1-2.3-0.2-3.1-1l1.2-1.2c0.5,0.5,1.3,0.8,2,0.7c0.6,0,1.3-0.2,1.3-0.8
		c0-0.4-0.2-0.6-0.8-0.7l-1.1-0.1c-1.3-0.1-2.1-0.7-2.1-2c0-1.5,1.3-2.3,2.8-2.3c1-0.1,2,0.2,2.8,0.8l-1.1,1.1
		c-0.5-0.4-1.1-0.5-1.7-0.5c-0.7,0-1,0.3-1,0.7s0.1,0.6,0.8,0.6l1.2,0.1c1.4,0.1,2.2,0.9,2.2,2.1
		C1546.1,738.5,1544.8,739.2,1543,739.2z"/>
	<path class="st12" d="M1553,733.4v5.7h-1.8v-5.7h-0.8V732h0.8v-0.9c-0.1-1.1,0.8-2,1.9-2.1h1.2v1.5h-0.7c-0.4,0-0.6,0.2-0.6,0.7
		v0.8h1.3v1.4L1553,733.4z"/>
	<path class="st12" d="M1556.9,736.1c-0.1,0.8,0.5,1.6,1.4,1.6c0,0,0,0,0,0c0.1,0,0.1,0,0.2,0c0.6,0,1.2-0.2,1.7-0.7l1.1,1.1
		c-0.7,0.8-1.7,1.2-2.8,1.2c-1.7,0-3.4-0.8-3.4-3.7c0-2.4,1.3-3.7,3.2-3.7s3.2,1.5,3.2,3.5v0.8L1556.9,736.1z M1559.5,734.1
		c-0.3-0.7-1.1-1-1.8-0.6c-0.3,0.1-0.5,0.4-0.6,0.6c-0.1,0.2-0.2,0.5-0.2,0.8h2.8C1559.7,734.6,1559.6,734.3,1559.5,734.1
		L1559.5,734.1z M1558.8,730.7h-1.2l0.9-2.4h1.9L1558.8,730.7z"/>
	<path class="st12" d="M1567.5,739.1l-1.8-3l-0.8,0.9v2.2h-1.8v-10h1.9v5.7l2.4-3h2.2l-2.6,2.9l2.8,4.4L1567.5,739.1z"/>
	<g class="st13">
		<path class="st12" d="M758.8,1119.5H755l-8.5-25.9h5.2l5.2,16.9l5.2-16.9h5.3L758.8,1119.5z"/>
		<path class="st12" d="M769.7,1119.5v-4.3l9.7-11.2c0.9-1.1,1.3-1.9,1.3-3.1c0-1.9-1.1-3.2-3.1-3.2c-1.6,0-3.2,0.8-3.2,3.3h-4.7
			c0-4.7,3.5-7.6,7.9-7.6c4.6,0,7.9,2.9,7.9,7.5c0,2.5-1,3.9-2.8,5.9l-7.2,8.4h10v4.3H769.7z"/>
		<path class="st12" d="M803.2,1119.5l-5-9l-5,9h-5.8l8-13.3l-7.5-12.6h5.7l4.5,8.4l4.5-8.4h5.7l-7.5,12.6l8.1,13.3H803.2z"/>
		<path class="st12" d="M822.1,1122.2h-4.4l10.4-31.3h4.4L822.1,1122.2z"/>
	</g>
	<g class="st13">
		<path class="st12" d="M853.6,1098.1v21.4h-5.1v-21.4h-6.8v-4.5h18.6v4.5H853.6z"/>
	</g>
	<g class="st13">
		<path class="st12" d="M865.4,1111.5c0,2.4,1.5,4.2,4.1,4.2c2.1,0,3.1-0.6,4.3-1.8l2.9,2.8c-1.9,1.9-3.8,3-7.2,3
			c-4.5,0-8.8-2-8.8-9.7c0-6.2,3.3-9.7,8.3-9.7c5.3,0,8.3,3.9,8.3,9.1v2.1H865.4z M872.2,1106.2c-0.5-1.1-1.6-2-3.2-2
			c-1.6,0-2.7,0.8-3.2,2c-0.3,0.7-0.4,1.2-0.4,2h7.2C872.6,1107.4,872.5,1106.9,872.2,1106.2z"/>
	</g>
	<g class="st13">
		<path class="st12" d="M887,1119.5c-3.9,0-5.5-2.7-5.5-5.4v-20.5h4.7v20.2c0,1.1,0.5,1.7,1.7,1.7h1.8v4H887z"/>
	</g>
	<g class="st13">
		<path class="st12" d="M896.3,1111.5c0,2.4,1.5,4.2,4.1,4.2c2.1,0,3.1-0.6,4.3-1.8l2.9,2.8c-1.9,1.9-3.8,3-7.2,3
			c-4.5,0-8.8-2-8.8-9.7c0-6.2,3.3-9.7,8.3-9.7c5.3,0,8.3,3.9,8.3,9.1v2.1H896.3z M903,1106.2c-0.5-1.1-1.6-2-3.2-2
			c-1.6,0-2.7,0.8-3.2,2c-0.3,0.7-0.4,1.2-0.4,2h7.2C903.4,1107.4,903.3,1106.9,903,1106.2z"/>
		<path class="st12" d="M925.6,1117.4c-1.2,1.2-3.1,2.3-5.9,2.3s-4.7-1.1-5.9-2.3c-1.7-1.8-2.1-3.9-2.1-7.4c0-3.4,0.4-5.6,2.1-7.3
			c1.2-1.2,3.1-2.3,5.9-2.3s4.7,1.1,5.9,2.3c1.7,1.8,2.1,3.9,2.1,7.3C927.7,1113.4,927.3,1115.6,925.6,1117.4z M921.9,1105.4
			c-0.5-0.5-1.3-0.8-2.2-0.8s-1.6,0.3-2.2,0.8c-1,1-1.1,2.6-1.1,4.6c0,2,0.1,3.6,1.1,4.6c0.5,0.5,1.2,0.8,2.2,0.8s1.7-0.3,2.2-0.8
			c1-1,1.1-2.7,1.1-4.6C923,1108,922.9,1106.4,921.9,1105.4z"/>
		<path class="st12" d="M946.1,1118c-1.1,1.1-2.8,1.7-4.6,1.7c-1.9,0-3.3-0.5-4.6-1.9v8.6h-4.7v-25.9h4.6v1.8c1.3-1.5,2.7-2,4.7-2
			c1.9,0,3.6,0.7,4.6,1.7c1.9,1.9,1.9,5.1,1.9,8S948,1116.1,946.1,1118z M940.1,1104.6c-2.8,0-3.2,2.3-3.2,5.4s0.4,5.5,3.2,5.5
			s3.2-2.4,3.2-5.5S943,1104.6,940.1,1104.6z"/>
	</g>
</g>
<g id="uj">
	<polygon id="feher_2_" class="st12" points="274.8,70.2 270.3,74.8 261.1,84 150,84 145.5,79.3 154.5,70.1 145.6,61 150,56.5 
		150,56.5 261.1,56.5 270.2,65.6 	"/>
	<polygon id="feher_1_" class="st12" points="911.5,70.3 907.1,74.9 897.9,84.1 786.8,84.1 782.2,79.4 791.3,70.2 782.3,61.1 
		786.8,56.6 786.8,56.6 897.9,56.6 907,65.6 	"/>
	<polygon id="feher" class="st12" points="1542.6,69.7 1538.2,74.3 1529,83.5 1450.4,83.5 1445.8,78.8 1454.9,69.6 1445.9,60.5 
		1450.4,56 1450.4,56 1529,56 1538.1,65 	"/>
	<g id="sense-think-act_1_">
		<path class="st14" d="M165.8,82.2c-3.6,0-6.3-0.8-8.6-3.1l3-3c1.5,1.4,3.6,2.1,5.7,2c2.7,0,4.2-1,4.2-2.9c0-0.7-0.2-1.5-0.7-2
			c-0.6-0.5-1.3-0.8-2.1-0.8l-2.8-0.4c-1.7-0.2-3.3-0.8-4.6-1.9c-1.2-1.2-1.8-2.9-1.7-4.6c0-4.2,3.1-7.1,8.2-7.1
			c2.8-0.2,5.5,0.8,7.6,2.7l-2.9,2.9c-1.3-1.1-3.1-1.7-4.8-1.6c-2.4,0-3.6,1.4-3.6,3c0,0.6,0.2,1.3,0.7,1.7c0.6,0.5,1.4,0.8,2.2,0.9
			l2.8,0.4c1.6,0.1,3.2,0.8,4.5,1.8c1.3,1.3,1.9,3.2,1.8,5C174.5,79.6,170.7,82.2,165.8,82.2z"/>
		<path class="st14" d="M178.8,82V58.4h15.5v4.1h-10.9V68h9.3v4.1h-9.3v5.8h10.9V82H178.8z"/>
		<path class="st14" d="M212.7,82l-9.3-14.4V82h-4.6V58.4h4.1l9.3,14.4V58.4h4.6v23.5L212.7,82L212.7,82z"/>
		<path class="st14" d="M228.8,82.2c-3.6,0-6.3-0.8-8.6-3.1l3-3c1.5,1.4,3.6,2.1,5.7,2c2.7,0,4.2-1,4.2-2.9c0-0.7-0.2-1.5-0.7-2
			c-0.6-0.5-1.3-0.8-2.1-0.8l-2.8-0.4c-1.7-0.2-3.3-0.8-4.6-1.9c-1.2-1.2-1.8-2.9-1.7-4.6c0-4.2,3.1-7.1,8.2-7.1
			c2.8-0.2,5.5,0.8,7.6,2.7l-2.9,2.9c-1.3-1.1-3.1-1.7-4.8-1.6c-2.4,0-3.6,1.4-3.6,3c0,0.6,0.2,1.3,0.7,1.7c0.6,0.5,1.4,0.8,2.2,0.9
			l2.8,0.4c1.6,0.1,3.2,0.8,4.5,1.8c1.3,1.3,1.9,3.2,1.8,5C237.5,79.6,233.7,82.2,228.8,82.2z"/>
		<path class="st14" d="M241.9,82V58.4h15.5v4.1h-10.9V68h9.3v4.1h-9.3v5.8h10.9V82H241.9z"/>
		<path class="st14" d="M804.7,62.7v19.4h-4.6V62.7H794v-4.1h16.9v4.1H804.7z"/>
		<path class="st14" d="M827.1,82.2v-9.8h-8v9.8h-4.6V58.6h4.6v9.6h8v-9.6h4.6v23.5h-4.6V82.2z"/>
		<path class="st14" d="M837.2,82.2V58.6h4.6v23.5h-4.6V82.2z"/>
		<path class="st14" d="M861.2,82.2l-9.3-14.4v14.4h-4.6V58.6h4.1l9.3,14.4V58.6h4.6v23.5h-4.1V82.2z"/>
		<path class="st14" d="M884.5,82.2l-6-10.7l-3,3.6v7.1h-4.6V58.6h4.6v10.3l8.3-10.2h5.6l-7.8,9.3l8.4,14.2L884.5,82.2z"/>
		<path class="st14" d="M1476.4,81.6l-1.4-4.2h-8.4l-1.4,4.2h-4.8l8.6-23.5h3.6l8.6,23.5H1476.4z M1470.9,65l-3,8.6h5.8L1470.9,65z"
			/>
		<path class="st14" d="M1492.2,81.8c-2.4,0-4.6-0.9-6.3-2.6c-1-0.9-1.7-2.2-1.9-3.5c-0.3-1.9-0.5-3.9-0.4-5.8
			c-0.1-1.9,0.1-3.9,0.4-5.8c0.3-1.3,0.9-2.6,1.9-3.5c1.7-1.7,3.9-2.6,6.3-2.6c4.4-0.2,8.2,3,8.7,7.4h-4.7c-0.3-2-2-3.4-4-3.3
			c-1.1-0.1-2.2,0.4-2.9,1.2c-1,1-1.2,2.1-1.2,6.6s0.2,5.6,1.2,6.6c0.7,0.8,1.8,1.3,2.9,1.2c2,0.1,3.7-1.3,4-3.3h4.7
			C1500,79.1,1496.7,81.8,1492.2,81.8z"/>
		<path class="st14" d="M1512.7,62.1v19.4h-4.6V62.1h-6.1V58h16.9v4.1L1512.7,62.1z"/>
		<polygon class="st15" points="930,70.9 925.8,75.1 917.3,83.6 913.1,79.3 921.5,70.8 913.2,62.4 917.3,58.2 925.7,66.6 		"/>
		<polygon class="st15" points="947.1,70.9 942.9,75.1 934.4,83.6 930.2,79.3 938.6,70.8 930.3,62.4 934.4,58.2 942.8,66.6 		"/>
		<polygon class="st15" points="964.2,70.9 960,75.1 951.5,83.6 947.3,79.3 955.7,70.8 947.3,62.4 951.5,58.2 959.9,66.6 		"/>
		<polygon class="st15" points="981.3,70.9 977.1,75.1 968.6,83.6 964.3,79.3 972.8,70.8 964.4,62.4 968.6,58.2 977,66.6 		"/>
		<polygon class="st15" points="998.4,70.9 994.2,75.1 985.7,83.6 981.4,79.3 989.9,70.8 981.5,62.4 985.7,58.2 994.1,66.6 		"/>
		<polygon class="st15" points="1015.5,70.9 1011.3,75.1 1002.8,83.6 998.5,79.3 1007,70.8 998.6,62.4 1002.8,58.2 1011.2,66.6 		
			"/>
		<polygon class="st15" points="1032.5,70.9 1028.3,75.1 1019.9,83.6 1015.6,79.3 1024.1,70.8 1015.7,62.4 1019.9,58.2 1028.3,66.6 
					"/>
		<polygon class="st15" points="1049.6,70.9 1045.4,75.1 1037,83.6 1032.7,79.3 1041.2,70.8 1032.8,62.4 1037,58.2 1045.3,66.6 		
			"/>
		<polygon class="st15" points="1066.7,70.9 1062.5,75.1 1054.1,83.6 1049.8,79.3 1058.3,70.8 1049.9,62.4 1054.1,58.2 1062.4,66.6 
					"/>
		<polygon class="st15" points="1083.8,70.9 1079.6,75.1 1071.2,83.6 1066.9,79.3 1075.3,70.8 1067,62.4 1071.2,58.2 1079.5,66.6 		
			"/>
		<polygon class="st15" points="1100.9,70.9 1096.7,75.1 1088.3,83.6 1084,79.3 1092.4,70.8 1084.1,62.4 1088.3,58.2 1096.6,66.6 		
			"/>
		<polygon class="st15" points="1118,70.9 1113.8,75.1 1105.3,83.6 1101.1,79.3 1109.5,70.8 1101.2,62.4 1105.3,58.2 1113.7,66.6 		
			"/>
		<polygon class="st15" points="1135.1,70.9 1130.9,75.1 1122.4,83.6 1118.2,79.3 1126.6,70.8 1118.3,62.4 1122.4,58.2 1130.8,66.6 
					"/>
		<polygon class="st15" points="1152.2,70.9 1148,75.1 1139.5,83.6 1135.3,79.3 1143.7,70.8 1135.3,62.4 1139.5,58.2 1147.9,66.6 		
			"/>
		<polygon class="st15" points="1169.3,70.9 1165.1,75.1 1156.6,83.6 1152.3,79.3 1160.8,70.8 1152.4,62.4 1156.6,58.2 1165,66.6 		
			"/>
		<polygon class="st15" points="1186.3,70.9 1182.2,75.1 1173.7,83.6 1169.4,79.3 1177.9,70.8 1169.5,62.4 1173.7,58.2 1182.1,66.6 
					"/>
		<polygon class="st15" points="1203.4,70.9 1199.3,75.1 1190.8,83.6 1186.5,79.3 1195,70.8 1186.6,62.4 1190.8,58.2 1199.2,66.6 		
			"/>
		<polygon class="st15" points="1220.5,70.9 1216.3,75.1 1207.9,83.6 1203.6,79.3 1212.1,70.8 1203.7,62.4 1207.9,58.2 1216.3,66.6 
					"/>
		<polygon class="st15" points="1237.6,70.9 1233.4,75.1 1225,83.6 1220.7,79.3 1229.2,70.8 1220.8,62.4 1225,58.2 1233.3,66.6 		
			"/>
		<polygon class="st15" points="1254.7,70.9 1250.5,75.1 1242.1,83.6 1237.8,79.3 1246.3,70.8 1237.9,62.4 1242.1,58.2 1250.4,66.6 
					"/>
		<polygon class="st15" points="1271.8,70.9 1267.6,75.1 1259.2,83.6 1254.9,79.3 1263.3,70.8 1255,62.4 1259.2,58.2 1267.5,66.6 		
			"/>
		<polygon class="st15" points="1288.9,70.9 1284.7,75.1 1276.2,83.6 1272,79.3 1280.4,70.8 1272.1,62.4 1276.2,58.2 1284.6,66.6 		
			"/>
		<polygon class="st15" points="1306,70.9 1301.8,75.1 1293.3,83.6 1289.1,79.3 1297.5,70.8 1289.2,62.4 1293.3,58.2 1301.7,66.6 		
			"/>
		<polygon class="st15" points="1323.1,70.9 1318.9,75.1 1310.4,83.6 1306.2,79.3 1314.6,70.8 1306.2,62.4 1310.4,58.2 1318.8,66.6 
					"/>
		<polygon class="st15" points="1340.2,70.9 1336,75.1 1327.5,83.6 1323.2,79.3 1331.7,70.8 1323.3,62.4 1327.5,58.2 1335.9,66.6 		
			"/>
		<polygon class="st15" points="1357.3,70.9 1353.1,75.1 1344.6,83.6 1340.3,79.3 1348.8,70.8 1340.4,62.4 1344.6,58.2 1353,66.6 		
			"/>
		<polygon class="st15" points="1374.3,70.9 1370.2,75.1 1361.7,83.6 1357.4,79.3 1365.9,70.8 1357.5,62.4 1361.7,58.2 1370.1,66.6 
					"/>
		<polygon class="st15" points="1391.4,70.9 1387.3,75.1 1378.8,83.6 1374.5,79.3 1383,70.8 1374.6,62.4 1378.8,58.2 1387.2,66.6 		
			"/>
		<polygon class="st15" points="1408.5,70.9 1404.3,75.1 1395.9,83.6 1391.6,79.3 1400.1,70.8 1391.7,62.4 1395.9,58.2 1404.3,66.6 
					"/>
		<polygon class="st15" points="1428.2,70.9 1424,75.1 1415.6,83.6 1411.3,79.3 1419.8,70.8 1411.4,62.4 1415.6,58.2 1423.9,66.6 		
			"/>
		<polygon class="st15" points="1445.3,70.9 1441.1,75.1 1432.7,83.6 1428.4,79.3 1436.9,70.8 1428.5,62.4 1432.7,58.2 1441,66.6 		
			"/>
		<polygon class="st15" points="300.3,70.9 296.1,75.1 287.6,83.6 283.4,79.3 291.8,70.8 283.5,62.4 287.6,58.2 296,66.6 		"/>
		<polygon class="st15" points="317.4,70.9 313.2,75.1 304.7,83.6 300.5,79.3 308.9,70.8 300.6,62.4 304.7,58.2 313.1,66.6 		"/>
		<polygon class="st15" points="334.5,70.9 330.3,75.1 321.8,83.6 317.5,79.3 326,70.8 317.6,62.4 321.8,58.2 330.2,66.6 		"/>
		<polygon class="st15" points="351.6,70.9 347.4,75.1 338.9,83.6 334.6,79.3 343.1,70.8 334.7,62.4 338.9,58.2 347.3,66.6 		"/>
		<polygon class="st15" points="368.7,70.9 364.5,75.1 356,83.6 351.7,79.3 360.2,70.8 351.8,62.4 356,58.2 364.4,66.6 		"/>
		<polygon class="st15" points="385.7,70.9 381.6,75.1 373.1,83.6 368.8,79.3 377.3,70.8 368.9,62.4 373.1,58.2 381.5,66.6 		"/>
		<polygon class="st15" points="402.8,70.9 398.6,75.1 390.2,83.6 385.9,79.3 394.4,70.8 386,62.4 390.2,58.2 398.6,66.6 		"/>
		<polygon class="st15" points="419.9,70.9 415.7,75.1 407.3,83.6 403,79.3 411.5,70.8 403.1,62.4 407.3,58.2 415.6,66.6 		"/>
		<polygon class="st15" points="437,70.9 432.8,75.1 424.4,83.6 420.1,79.3 428.6,70.8 420.2,62.4 424.4,58.2 432.7,66.6 		"/>
		<polygon class="st15" points="454.1,70.9 449.9,75.1 441.5,83.6 437.2,79.3 445.6,70.8 437.3,62.4 441.5,58.2 449.8,66.6 		"/>
		<polygon class="st15" points="471.2,70.9 467,75.1 458.5,83.6 454.3,79.3 462.7,70.8 454.4,62.4 458.5,58.2 466.9,66.6 		"/>
		<polygon class="st15" points="488.3,70.9 484.1,75.1 475.6,83.6 471.4,79.3 479.8,70.8 471.5,62.4 475.6,58.2 484,66.6 		"/>
		<polygon class="st15" points="505.4,70.9 501.2,75.1 492.7,83.6 488.5,79.3 496.9,70.8 488.5,62.4 492.7,58.2 501.1,66.6 		"/>
		<polygon class="st15" points="522.5,70.9 518.3,75.1 509.8,83.6 505.5,79.3 514,70.8 505.6,62.4 509.8,58.2 518.2,66.6 		"/>
		<polygon class="st15" points="539.6,70.9 535.4,75.1 526.9,83.6 522.6,79.3 531.1,70.8 522.7,62.4 526.9,58.2 535.3,66.6 		"/>
		<polygon class="st15" points="556.7,70.9 552.5,75.1 544,83.6 539.7,79.3 548.2,70.8 539.8,62.4 544,58.2 552.4,66.6 		"/>
		<polygon class="st15" points="573.7,70.9 569.5,75.1 561.1,83.6 556.8,79.3 565.3,70.8 556.9,62.4 561.1,58.2 569.5,66.6 		"/>
		<polygon class="st15" points="590.8,70.9 586.6,75.1 578.2,83.6 573.9,79.3 582.4,70.8 574,62.4 578.2,58.2 586.5,66.6 		"/>
		<polygon class="st15" points="607.9,70.9 603.7,75.1 595.3,83.6 591,79.3 599.5,70.8 591.1,62.4 595.3,58.2 603.6,66.6 		"/>
		<polygon class="st15" points="625,70.9 620.8,75.1 612.4,83.6 608.1,79.3 616.5,70.8 608.2,62.4 612.4,58.2 620.7,66.6 		"/>
		<polygon class="st15" points="642.1,70.9 637.9,75.1 629.5,83.6 625.2,79.3 633.6,70.8 625.3,62.4 629.5,58.2 637.8,66.6 		"/>
		<polygon class="st15" points="659.2,70.9 655,75.1 646.5,83.6 642.3,79.3 650.7,70.8 642.4,62.4 646.5,58.2 654.9,66.6 		"/>
		<polygon class="st15" points="676.3,70.9 672.1,75.1 663.6,83.6 659.4,79.3 667.8,70.8 659.5,62.4 663.6,58.2 672,66.6 		"/>
		<polygon class="st15" points="693.4,70.9 689.2,75.1 680.7,83.6 676.5,79.3 684.9,70.8 676.5,62.4 680.7,58.2 689.1,66.6 		"/>
		<polygon class="st15" points="710.5,70.9 706.3,75.1 697.8,83.6 693.5,79.3 702,70.8 693.6,62.4 697.8,58.2 706.2,66.6 		"/>
		<polygon class="st15" points="727.6,70.9 723.4,75.1 714.9,83.6 710.6,79.3 719.1,70.8 710.7,62.4 714.9,58.2 723.3,66.6 		"/>
		<polygon class="st15" points="744.7,70.9 740.5,75.1 732,83.6 727.7,79.3 736.2,70.8 727.8,62.4 732,58.2 740.4,66.6 		"/>
		<polygon class="st15" points="761.7,70.9 757.5,75.1 749.1,83.6 744.8,79.3 753.3,70.8 744.9,62.4 749.1,58.2 757.5,66.6 		"/>
		<polygon class="st15" points="778.8,70.9 774.6,75.1 766.2,83.6 761.9,79.3 770.4,70.8 762,62.4 766.2,58.2 774.5,66.6 		"/>
	</g>
	<polygon class="st15" points="145.5,56.4 145.5,56.4 145.5,56.4 	"/>
</g>
</svg>
