<svg xmlns="http://www.w3.org/2000/svg" viewBox="0 0 1765.44 1081"><defs><style>.cls-1{fill:#152742;stroke:#1c3c68;}.cls-1,.cls-2,.cls-4,.cls-5,.cls-6,.cls-7,.cls-8,.cls-9{stroke-linecap:round;stroke-linejoin:round;}.cls-1,.cls-2,.cls-4,.cls-6,.cls-7,.cls-8,.cls-9{stroke-width:6px;}.cls-2,.cls-4,.cls-5,.cls-6,.cls-7,.cls-8,.cls-9{fill:none;stroke:#34aec5;}.cls-3{fill:#0a4851;}.cls-4{stroke-dasharray:21.9 21.9;}.cls-5{stroke-width:4px;}.cls-6{stroke-dasharray:22.64 22.64;}.cls-7{stroke-dasharray:0 10;}.cls-8{stroke-dasharray:12;}.cls-9{stroke-dasharray:24;}.cls-10{fill:#fff;}</style></defs><g id="Layer_2" data-name="Layer 2"><rect class="cls-1" x="79.52" y="90.78" width="248.15" height="586.67" rx="26.27"/><rect class="cls-1" x="401.57" y="90.78" width="248.15" height="586.67" rx="26.27"/><rect class="cls-1" x="723.63" y="90.78" width="248.15" height="586.67" rx="26.27"/><rect class="cls-1" x="1045.68" y="90.78" width="248.15" height="586.67" rx="26.27"/><rect class="cls-1" x="1367.74" y="90.78" width="248.15" height="586.67" rx="26.27"/><rect class="cls-1" x="79.52" y="755.67" width="248.15" height="270.22" rx="26.27"/><rect class="cls-1" x="401.57" y="755.67" width="248.15" height="270.22" rx="26.27"/><rect class="cls-1" x="723.63" y="755.67" width="248.15" height="270.22" rx="26.27"/><rect class="cls-1" x="1045.68" y="755.67" width="248.15" height="270.22" rx="26.27"/><rect class="cls-1" x="1367.74" y="755.67" width="248.15" height="270.22" rx="26.27"/></g><g id="Layer_1" data-name="Layer 1"><circle class="cls-2" cx="144.22" cy="921.86" r="17.44"/><circle class="cls-2" cx="271.81" cy="921.86" r="17.44"/><polyline class="cls-2" points="119.03 928.7 104.67 921.87 104.67 884.75 133.33 875.2 160.67 859.2 160.67 845.2 226 845.2 226 858.75 250 876.75"/><line class="cls-2" x1="104.67" y1="895.2" x2="120" y2="895.2"/><path class="cls-2" d="M133.33,875.2,149.56,887H265.21a10.45,10.45,0,0,1,2,.19l25.18,4.79a21.82,21.82,0,0,1,17.73,20.72l.35,10.42A5.45,5.45,0,0,1,305,928.7h-9.47"/><line class="cls-2" x1="168.44" y1="928.7" x2="244.44" y2="928.7"/><path class="cls-2" d="M195.33,895.2v33.5"/><line class="cls-2" x1="160.67" y1="859.2" x2="226" y2="859.2"/><line class="cls-2" x1="195.33" y1="859.2" x2="195.33" y2="880.53"/><line class="cls-2" x1="186.67" y1="845.2" x2="186.67" y2="827.2"/><line class="cls-2" x1="201.56" y1="845.2" x2="201.56" y2="827.2"/><line class="cls-2" x1="178.89" y1="827.2" x2="208.56" y2="827.2"/><path class="cls-2" d="M146.52,844a17.22,17.22,0,0,1,1-30.08"/><path class="cls-2" d="M121.18,863.05a48.15,48.15,0,0,1,4.53-71.74"/><path class="cls-2" d="M132.9,854.22a33.66,33.66,0,0,1,3-52.43"/><path class="cls-2" d="M246.65,811.87a17.22,17.22,0,0,1,1,30.08"/><path class="cls-2" d="M268.5,789.31A48.15,48.15,0,0,1,273,861.05"/><path class="cls-2" d="M258.35,799.79a33.66,33.66,0,0,1,3,52.43"/><path class="cls-2" d="M150.44,570.09a17.22,17.22,0,0,1,1-30.08"/><path class="cls-2" d="M125.1,589.19a48.15,48.15,0,0,1,4.53-71.74"/><path class="cls-2" d="M136.82,580.36a33.66,33.66,0,0,1,3-52.43"/><path class="cls-2" d="M250.57,538a17.22,17.22,0,0,1,1,30.08"/><path class="cls-2" d="M272.42,515.45A48.15,48.15,0,0,1,277,587.19"/><path class="cls-2" d="M262.27,525.93a33.66,33.66,0,0,1,3,52.43"/><rect class="cls-2" x="172.28" y="521.21" width="57.63" height="62.22" rx="12.52"/><rect class="cls-2" x="125.21" y="200.24" width="105.9" height="62.22" rx="12.6"/><path class="cls-2" d="M267.73,256.64l-24.32-15.55a5.9,5.9,0,0,1-2.73-5v-9.52a5.93,5.93,0,0,1,2.73-5l24.32-15.55a5.92,5.92,0,0,1,9.1,5v40.63A5.91,5.91,0,0,1,267.73,256.64Z"/><path class="cls-2" d="M1225.09,227.05l-39.48-10.53-57.15-15.25a7.48,7.48,0,0,0-9.41,7.23v51.56a7.48,7.48,0,0,0,9.41,7.22L1185.61,252l39.48-10.53A7.48,7.48,0,0,0,1225.09,227.05Zm-45,8.93c-.06.16-.11.34-.19.51s-.15.32-.23.48-.17.31-.27.46a6.63,6.63,0,0,1-.68.81h0l-10.82,10.81a5.53,5.53,0,0,1-7.82-7.83l1.37-1.37h-28.21a5.54,5.54,0,0,1,0-11.07h28.21l-1.48-1.48a5.53,5.53,0,0,1,7.82-7.82l10.93,10.93a5.3,5.3,0,0,1,.71.87,5.18,5.18,0,0,1,.48.9c.06.15.11.28.16.43a.25.25,0,0,1,0,.07c0,.17.1.35.14.52s.06.36.08.56,0,.45,0,.67,0,.22,0,.33a4.91,4.91,0,0,1-.08.67C1180.23,235.63,1180.18,235.8,1180.13,236Z"/><path class="cls-3" d="M1180.27,235.44a4.91,4.91,0,0,0,.08-.67A4.91,4.91,0,0,1,1180.27,235.44Z"/><path class="cls-3" d="M1180.35,234.77c0-.11,0-.22,0-.33C1180.37,234.55,1180.36,234.66,1180.35,234.77Z"/><path class="cls-3" d="M1180.38,234.33s0,.07,0,.11c0-.22,0-.45,0-.67A5,5,0,0,1,1180.38,234.33Z"/><path class="cls-3" d="M1179.47,231.29a5.3,5.3,0,0,0-.71-.87A5.3,5.3,0,0,1,1179.47,231.29Z"/><path class="cls-2" d="M1225.09,449.07l-39.48-10.53-57.15-15.25a7.49,7.49,0,0,0-9.41,7.23v51.56a7.48,7.48,0,0,0,9.41,7.22l57.15-15.24,39.48-10.54A7.48,7.48,0,0,0,1225.09,449.07Zm-45,8.93a5.27,5.27,0,0,1-.19.51c-.07.16-.15.32-.23.48s-.17.31-.27.46a6.63,6.63,0,0,1-.68.81h0l-10.82,10.82a5.53,5.53,0,0,1-7.82-7.83l1.37-1.38h-28.21a5.53,5.53,0,1,1,0-11.06h28.21l-1.48-1.49a5.53,5.53,0,0,1,7.82-7.82l10.93,10.93a5.37,5.37,0,0,1,.71.88,5.1,5.1,0,0,1,.48.89c.06.15.11.29.16.43a.25.25,0,0,1,0,.07c0,.17.1.35.14.52s.06.36.08.56,0,.45,0,.67,0,.22,0,.33a5.25,5.25,0,0,1-.08.68C1180.23,457.65,1180.18,457.83,1180.13,458Z"/><path class="cls-3" d="M1180.27,457.47a5.25,5.25,0,0,0,.08-.68A5.05,5.05,0,0,1,1180.27,457.47Z"/><path class="cls-3" d="M1180.35,456.79c0-.11,0-.22,0-.33C1180.37,456.57,1180.36,456.68,1180.35,456.79Z"/><path class="cls-3" d="M1180.38,456.35s0,.07,0,.11c0-.22,0-.45,0-.67A5.12,5.12,0,0,1,1180.38,456.35Z"/><path class="cls-3" d="M1179.47,453.32a5.37,5.37,0,0,0-.71-.88A5,5,0,0,1,1179.47,453.32Z"/><line class="cls-2" x1="127.99" y1="352.35" x2="158.52" y2="373.5"/><rect class="cls-2" x="170.65" y="356.11" width="57.63" height="62.22" rx="12.52"/><line class="cls-2" x1="158.52" y1="382.69" x2="117.33" y2="371.13"/><line class="cls-2" x1="127.99" y1="430.66" x2="158.52" y2="409.51"/><line class="cls-2" x1="158.52" y1="400.33" x2="117.33" y2="411.88"/><line class="cls-2" x1="158.52" y1="392.17" x2="110.96" y2="392.17"/><line class="cls-2" x1="274.05" y1="353.01" x2="243.53" y2="374.16"/><line class="cls-2" x1="243.53" y1="383.35" x2="284.71" y2="371.79"/><line class="cls-2" x1="274.05" y1="431.33" x2="243.53" y2="410.17"/><line class="cls-2" x1="243.53" y1="400.99" x2="284.71" y2="412.54"/><line class="cls-2" x1="243.53" y1="392.83" x2="291.08" y2="392.83"/><line class="cls-2" x1="443.67" y1="196.24" x2="443.67" y2="417.33"/><line class="cls-2" x1="603.67" y1="196.24" x2="603.67" y2="417.33"/><line class="cls-2" x1="523.67" y1="196.24" x2="523.67" y2="208.24"/><line class="cls-4" x1="523.67" y1="230.14" x2="523.67" y2="394.38"/><line class="cls-2" x1="523.67" y1="405.33" x2="523.67" y2="417.33"/><path class="cls-2" d="M552.2,570.09a47.88,47.88,0,1,0-57.06,0"/><rect class="cls-2" x="489" y="570.09" width="70.22" height="13.34" rx="4.62"/><rect class="cls-2" x="477.11" y="583.97" width="93.11" height="13.34" rx="4.62"/><path class="cls-5" d="M498.76,495.76l1.49,0a12,12,0,0,0,12.14,11.87v1.45a12,12,0,0,0-11.86,12.14H499a12,12,0,0,0-12.13-11.9v-1.46A12,12,0,0,0,498.76,495.76Z"/><path class="cls-5" d="M532.86,541.33H534a9.46,9.46,0,0,0,9.56,9.35v1.14a9.46,9.46,0,0,0-9.35,9.56h-1.17a9.46,9.46,0,0,0-9.56-9.37v-1.15A9.46,9.46,0,0,0,532.86,541.33Z"/><line class="cls-5" x1="499.65" y1="545" x2="500.04" y2="545"/><line class="cls-5" x1="519.26" y1="528.41" x2="519.21" y2="528.41"/><line class="cls-5" x1="538.78" y1="511.37" x2="538.72" y2="511.37"/><line class="cls-5" x1="535.37" y1="518.7" x2="535.31" y2="518.7"/><line class="cls-5" x1="538.33" y1="503.81" x2="538.28" y2="503.81"/><rect class="cls-5" x="552.26" y="363.58" width="29.04" height="48.96" rx="9.92"/><rect class="cls-5" x="552.26" y="262.46" width="29.04" height="48.96" rx="9.92"/><rect class="cls-5" x="469.15" y="218.19" width="29.04" height="48.96" rx="9.92"/><polyline class="cls-5" points="483.68 290.59 483.68 311.42 477.65 305.39"/><polyline class="cls-5" points="483.68 311.42 483.68 311.42 489.68 305.42"/><line class="cls-5" x1="483.68" y1="276.81" x2="483.68" y2="311.42"/><polyline class="cls-5" points="566.76 239.31 566.76 218.48 572.79 224.51"/><polyline class="cls-5" points="566.76 218.48 566.76 218.48 560.76 224.48"/><line class="cls-5" x1="566.76" y1="253.08" x2="566.76" y2="218.48"/><polyline class="cls-5" points="566.75 349.81 566.75 328.98 572.78 335.01"/><polyline class="cls-5" points="566.75 328.98 566.75 328.98 560.75 334.98"/><line class="cls-5" x1="566.75" y1="354.7" x2="566.75" y2="328.98"/><line class="cls-2" x1="768" y1="191.87" x2="768" y2="600.78"/><line class="cls-2" x1="928" y1="191.87" x2="928" y2="600.78"/><line class="cls-2" x1="848" y1="191.87" x2="848" y2="203.87"/><line class="cls-6" x1="848" y1="226.51" x2="848" y2="577.46"/><line class="cls-2" x1="848" y1="588.78" x2="848" y2="600.78"/><rect class="cls-5" x="876.59" y="482.57" width="29.04" height="48.96" rx="9.92"/><rect class="cls-5" x="876.59" y="258.09" width="29.04" height="48.96" rx="9.92"/><rect class="cls-5" x="793.48" y="502.44" width="29.04" height="48.96" rx="9.92"/><polyline class="cls-5" points="808.01 574.84 808.01 595.67 801.99 589.64"/><polyline class="cls-5" points="808.01 595.67 808.01 595.67 814.01 589.66"/><line class="cls-5" x1="808.01" y1="561.06" x2="808.01" y2="595.67"/><polyline class="cls-5" points="891.1 234.94 891.1 214.11 897.13 220.14"/><polyline class="cls-5" points="891.1 214.11 891.1 214.11 885.1 220.11"/><line class="cls-5" x1="891.1" y1="248.72" x2="891.1" y2="214.11"/><polyline class="cls-5" points="888.06 421.08 888.06 400.25 894.09 406.28"/><polyline class="cls-5" points="888.06 400.25 888.06 400.25 882.06 406.25"/><line class="cls-5" x1="888.06" y1="458.11" x2="888.06" y2="400.25"/><path class="cls-7" d="M888.07,474.56V474c0-27.46-5-25-14.05-34L827.6,393.62c-9-9-17.82-20.84-21.15-41V256.46"/><polyline class="cls-2" points="795.56 268.33 806.78 257.11 818.06 268.39"/><path class="cls-2" d="M1225.09,338.06l-39.48-10.53-57.15-15.25a7.48,7.48,0,0,0-9.41,7.23v51.56a7.48,7.48,0,0,0,9.41,7.22L1185.61,363l39.48-10.53A7.48,7.48,0,0,0,1225.09,338.06Zm-45,8.93a5.27,5.27,0,0,1-.19.51c-.07.16-.15.32-.23.48s-.17.31-.27.46a6.63,6.63,0,0,1-.68.81h0l-10.82,10.82a5.53,5.53,0,0,1-7.82-7.83l1.37-1.38h-28.21a5.53,5.53,0,1,1,0-11.06h28.21l-1.48-1.49a5.53,5.53,0,0,1,7.82-7.82l10.93,10.93a5.37,5.37,0,0,1,.71.88,5.1,5.1,0,0,1,.48.89c.06.15.11.29.16.43a.25.25,0,0,1,0,.07c0,.17.1.35.14.52s.06.36.08.56,0,.45,0,.67,0,.22,0,.33a4.91,4.91,0,0,1-.08.67C1180.23,346.64,1180.18,346.81,1180.13,347Z"/><path class="cls-3" d="M1180.27,346.45a4.91,4.91,0,0,0,.08-.67A4.72,4.72,0,0,1,1180.27,346.45Z"/><path class="cls-3" d="M1180.35,345.78c0-.11,0-.22,0-.33C1180.37,345.56,1180.36,345.67,1180.35,345.78Z"/><path class="cls-3" d="M1180.38,345.34s0,.07,0,.11c0-.22,0-.45,0-.67A5.12,5.12,0,0,1,1180.38,345.34Z"/><path class="cls-3" d="M1179.47,342.31a5.37,5.37,0,0,0-.71-.88A5,5,0,0,1,1179.47,342.31Z"/><line class="cls-2" x1="1058.59" y1="345.29" x2="1119.05" y2="345.29"/><path class="cls-2" d="M1077,345.78V567.94a16.7,16.7,0,0,0,16.7,16.7H1250.3a16.69,16.69,0,0,0,16.7-16.7V345.78"/><path class="cls-2" d="M1230.64,344.78h43.84"/><path class="cls-2" d="M1116.18,235.11h-4.34a8,8,0,0,0-8,8V448.34a8,8,0,0,0,8,8h4.34"/><path class="cls-2" d="M1234.52,234.94h4.34a8,8,0,0,1,8,7.95V448.17a8,8,0,0,1-8,8h-4.34"/><line class="cls-2" x1="1077.04" y1="328.76" x2="1077.04" y2="338.6"/><line class="cls-2" x1="1072.12" y1="333.68" x2="1081.96" y2="333.68"/><line class="cls-2" x1="1085.23" y1="355.98" x2="1095.07" y2="355.98"/><circle class="cls-2" cx="1491.57" cy="326.28" r="67.15"/><path class="cls-2" d="M1427.44,306.31,1474,302a193.18,193.18,0,0,1,35.18,0l46.54,4.27"/><path class="cls-2" d="M1474.64,391.27a56.71,56.71,0,0,0,.28-5.71,55.76,55.76,0,0,0-50.39-55.5"/><path class="cls-2" d="M1508.5,391.27a56.7,56.7,0,0,1-.29-5.71,55.76,55.76,0,0,1,50.39-55.5"/><circle class="cls-2" cx="846.69" cy="909.4" r="39.6"/><path class="cls-2" d="M808.87,897.62l27.44-2.52a114.14,114.14,0,0,1,20.75,0l27.45,2.52"/><path class="cls-2" d="M836.7,947.73c.11-1.11.17-2.23.17-3.37a32.88,32.88,0,0,0-29.72-32.73"/><path class="cls-2" d="M856.68,947.73a31.29,31.29,0,0,1-.17-3.37,32.88,32.88,0,0,1,29.71-32.73"/><rect class="cls-2" x="1527.08" y="436.1" width="39.6" height="70.14" rx="12"/><rect class="cls-2" x="1424.42" y="452.4" width="82.57" height="51.06" rx="12"/><polygon class="cls-2" points="1537.96 461.44 1537.96 484.77 1558.11 473.11 1537.96 461.44"/><rect class="cls-2" x="1450.43" y="465.07" width="10.67" height="25.72" rx="3.64"/><rect class="cls-2" x="1470.31" y="465.07" width="10.67" height="25.72" rx="3.64"/><path class="cls-2" d="M485.36,790.33h83.83A19.81,19.81,0,0,1,589,810.14v94a19.8,19.8,0,0,1-9.09,16.65l-41.33,26.61a19.79,19.79,0,0,1-21.18.16l-42.5-26.43a19.79,19.79,0,0,1-9.34-16.81V810.14A19.8,19.8,0,0,1,485.36,790.33Z"/><path class="cls-2" d="M502,864.46l3.26-3.27a3.22,3.22,0,0,1,4.56,0l10.44,10.45a3.24,3.24,0,0,0,4.56,0l26.45-26.45a3.22,3.22,0,0,1,4.56,0l3.72,3.73a3.22,3.22,0,0,1,0,4.56l-34.38,34.38a3.22,3.22,0,0,1-4.57,0L502,869A3.22,3.22,0,0,1,502,864.46Z"/><path class="cls-2" d="M485,802.56h84.52c5.22.85,9.46,5.09,9.46,10.32v89.77a9.48,9.48,0,0,1-4.34,8L533,937.46a9.46,9.46,0,0,1-10.12.08L480,910.91a9.49,9.49,0,0,1-4.46-8v-90C475.56,807.65,479.79,803.41,485,802.56Z"/><path class="cls-2" d="M789,905H772.11a12,12,0,0,1-12-12V809.44a12,12,0,0,1,12-12H922.33a12,12,0,0,1,12,12V893a12,12,0,0,1-12,12H906.78"/><line class="cls-2" x1="794.78" y1="870.63" x2="821.74" y2="797.74"/><line class="cls-2" x1="875.67" y1="797.74" x2="902.63" y2="870.63"/><line class="cls-8" x1="847.52" y1="797.74" x2="847.52" y2="857"/><circle class="cls-2" cx="1169.67" cy="832.44" r="40"/><path class="cls-2" d="M1194,864.18h2.77a39.11,39.11,0,0,1,39.11,39.11v17H1103.44v-17a39.12,39.12,0,0,1,39.12-39.11h2.77"/><ellipse class="cls-2" cx="1539.41" cy="806.33" rx="36.74" ry="13.33"/><path class="cls-2" d="M1502.52,893.87c0,7.36,16.45,13.33,36.74,13.33s36.74-6,36.74-13.33"/><path class="cls-2" d="M1502.52,872.29c0,7.36,16.45,13.33,36.74,13.33s36.74-6,36.74-13.33"/><path class="cls-2" d="M1502.52,850.71c0,7.36,16.45,13.33,36.74,13.33s36.74-6,36.74-13.33"/><path class="cls-2" d="M1502.52,829.13c0,7.36,16.45,13.33,36.74,13.33s36.74-6,36.74-13.33"/><line class="cls-2" x1="1502.67" y1="806.33" x2="1502.67" y2="891.96"/><line class="cls-2" x1="1576.15" y1="808.04" x2="1576.15" y2="893.67"/><ellipse class="cls-2" cx="1415.91" cy="815.59" rx="8.59" ry="8.37"/><ellipse class="cls-2" cx="1415.91" cy="887.59" rx="8.59" ry="8.37"/><ellipse class="cls-2" cx="1455.81" cy="816.78" rx="8.59" ry="8.37"/><line class="cls-2" x1="1415.91" y1="823.97" x2="1415.91" y2="879.22"/><path class="cls-2" d="M1455.81,825.15v2.74a14.89,14.89,0,0,1-14.88,14.89h-10.37a14.88,14.88,0,0,0-14.89,14.89v1.55"/><polygon class="cls-1" points="361.96 425.67 361.96 410.69 341.35 410.69 341.35 383.87 361.96 383.87 361.96 368.89 390.42 397.35 361.96 425.67"/><polygon class="cls-1" points="684.07 425.67 684.07 410.69 663.46 410.69 663.46 383.87 684.07 383.87 684.07 368.89 712.53 397.35 684.07 425.67"/><polygon class="cls-1" points="1006.18 425.67 1006.18 410.69 985.58 410.69 985.58 383.87 1006.18 383.87 1006.18 368.89 1034.64 397.35 1006.18 425.67"/><polygon class="cls-1" points="1328.3 425.67 1328.3 410.69 1307.69 410.69 1307.69 383.87 1328.3 383.87 1328.3 368.89 1356.75 397.35 1328.3 425.67"/><rect class="cls-9" x="57" y="61" width="1587.56" height="643.11" rx="24"/></g><g id="magy_görb"><path class="cls-10" d="M99.76,147.25V121.48h17V126H104.79V132H115v4.48H104.79v6.26h11.95v4.49ZM109.1,119H106l2.32-6.16h5Z"/><path class="cls-10" d="M135.34,147.25l-5-10.28h-3.62v10.28h-5V121.48h10.09c5.25,0,8.36,3.59,8.36,7.89a6.93,6.93,0,0,1-4.7,6.77l5.75,11.11ZM131.43,126h-4.74v6.81h4.74a3.41,3.41,0,1,0,0-6.81Z"/><path class="cls-10" d="M143.77,147.25V143.2l11-17.23H144.24v-4.49h16.47v4l-11,17.3h11v4.49Z"/><path class="cls-10" d="M165.16,147.25V121.48h17V126H170.19V132h10.17v4.48H170.19v6.26h11.94v4.49ZM174.49,119h-3.15l2.32-6.16h5Z"/><path class="cls-10" d="M202,147.25l-6.62-11.72-3.33,4v7.74h-5V121.48h5V132.7l9.09-11.22h6.11l-8.54,10.25,9.16,15.52Z"/><path class="cls-10" d="M211.12,147.25V121.48h17V126H216.15V132h10.17v4.48H216.15v6.26h11.94v4.49Z"/><path class="cls-10" d="M233,147.25V121.48h5v21.28h11.69v4.49Z"/><path class="cls-10" d="M253.82,147.25V121.48h17V126H258.85V132H269v4.48H258.85v6.26h11.94v4.49ZM263.16,119H260l2.32-6.16h4.95Z"/><path class="cls-10" d="M282.81,147.47c-3.91,0-6.88-.83-9.41-3.4l3.26-3.26a8.4,8.4,0,0,0,6.22,2.17c3,0,4.56-1.12,4.56-3.18a2.89,2.89,0,0,0-.79-2.18,3.92,3.92,0,0,0-2.28-.9l-3.12-.43a8.77,8.77,0,0,1-5-2.14,6.82,6.82,0,0,1-1.85-5.07c0-4.59,3.4-7.81,9-7.81,3.54,0,6.11.86,8.32,3l-3.18,3.15a7.17,7.17,0,0,0-5.29-1.77c-2.68,0-4,1.48-4,3.25a2.51,2.51,0,0,0,.76,1.85,4.41,4.41,0,0,0,2.39,1l3,.44a8.42,8.42,0,0,1,4.92,2,7.18,7.18,0,0,1,2,5.46C292.36,144.65,288.2,147.47,282.81,147.47Z"/><path class="cls-10" d="M437.09,147.25V121.48h17V126H442.12v6h10.17v4.49H442.12v6.26h11.94v4.49ZM446.43,119h-3.15l2.31-6.15h5Z"/><path class="cls-10" d="M466.08,147.47c-3.91,0-6.88-.83-9.41-3.4l3.25-3.26a8.44,8.44,0,0,0,6.23,2.17c3,0,4.56-1.12,4.56-3.18a2.86,2.86,0,0,0-.8-2.18,3.8,3.8,0,0,0-2.28-.9l-3.11-.43a8.74,8.74,0,0,1-5-2.14,6.82,6.82,0,0,1-1.85-5.07c0-4.59,3.4-7.82,9-7.82,3.54,0,6.11.87,8.32,3l-3.18,3.15a7.18,7.18,0,0,0-5.29-1.78c-2.68,0-4,1.49-4,3.26a2.51,2.51,0,0,0,.76,1.85,4.41,4.41,0,0,0,2.39,1l3,.44a8.42,8.42,0,0,1,4.92,2,7.18,7.18,0,0,1,2,5.46C475.63,144.65,471.47,147.47,466.08,147.47Z"/><path class="cls-10" d="M478.81,147.25V143.2l11-17.23H479.29v-4.49h16.46v4l-11,17.3h11v4.49Z"/><path class="cls-10" d="M500.2,147.25V121.48h5v21.28h11.69v4.49Z"/><path class="cls-10" d="M521,147.25V121.48h17V126H526v6h10.17v4.49H526v6.26h12v4.49Z"/><path class="cls-10" d="M542.91,147.25V121.48h5v21.28h11.69v4.49Z"/><path class="cls-10" d="M563.71,147.25V121.48h17V126H568.75v6h10.17v4.49H568.75v6.26h11.94v4.49ZM573.05,119H569.9l2.32-6.15h5Z"/><path class="cls-10" d="M592.7,147.47c-3.91,0-6.87-.83-9.41-3.4l3.26-3.26a8.44,8.44,0,0,0,6.23,2.17c3,0,4.56-1.12,4.56-3.18a2.9,2.9,0,0,0-.8-2.18,3.83,3.83,0,0,0-2.28-.9l-3.11-.43a8.8,8.8,0,0,1-5-2.14,6.82,6.82,0,0,1-1.84-5.07c0-4.59,3.4-7.82,9-7.82,3.55,0,6.12.87,8.33,3l-3.19,3.15a7.16,7.16,0,0,0-5.28-1.78c-2.68,0-4,1.49-4,3.26a2.48,2.48,0,0,0,.76,1.85,4.38,4.38,0,0,0,2.39,1l3,.44a8.45,8.45,0,0,1,4.92,2,7.22,7.22,0,0,1,2,5.46C602.26,144.65,598.1,147.47,592.7,147.47Z"/><path class="cls-10" d="M769.37,126v21.28h-5V126h-6.73v-4.49H776.1V126Z"/><path class="cls-10" d="M780.19,147.25V121.48h17V126H785.22v6h10.17v4.49H785.22v6.26h11.94v4.49Z"/><path class="cls-10" d="M815.76,147.25l-5-10.28h-3.62v10.28h-5V121.48h10.1c5.25,0,8.36,3.59,8.36,7.89a6.94,6.94,0,0,1-4.7,6.77l5.75,11.11ZM811.85,126h-4.74v6.8h4.74a3.41,3.41,0,1,0,0-6.8Z"/><path class="cls-10" d="M835.12,147.25h-3.76l-8.51-25.77h5.22l5.17,16.8,5.18-16.8h5.25Z"/><path class="cls-10" d="M846.78,147.25V121.48h17V126H851.81v6H862v4.49H851.81v6.26h11.94v4.49Z"/><path class="cls-10" d="M867.11,147.25V143.2l11-17.23H867.58v-4.49h16.47v4l-11,17.3h11v4.49Z"/><path class="cls-10" d="M888.5,147.25V121.48h17V126h-12v6H903.7v4.49H893.53v6.26h12v4.49ZM897.84,119h-3.15l2.32-6.15h5Z"/><path class="cls-10" d="M917.49,147.47c-3.91,0-6.88-.83-9.41-3.4l3.26-3.26a8.42,8.42,0,0,0,6.22,2.17c3,0,4.56-1.12,4.56-3.18a2.89,2.89,0,0,0-.79-2.18,3.86,3.86,0,0,0-2.28-.9l-3.12-.43a8.8,8.8,0,0,1-5-2.14,6.82,6.82,0,0,1-1.85-5.07c0-4.59,3.41-7.82,9-7.82,3.55,0,6.12.87,8.32,3l-3.18,3.15a7.17,7.17,0,0,0-5.29-1.78c-2.67,0-4,1.49-4,3.26a2.51,2.51,0,0,0,.76,1.85,4.41,4.41,0,0,0,2.39,1l3,.44a8.46,8.46,0,0,1,4.93,2,7.22,7.22,0,0,1,2,5.46C927.05,144.65,922.88,147.47,917.49,147.47Z"/><path class="cls-10" d="M1069.29,147.47c-3.91,0-6.87-.83-9.41-3.4l3.26-3.26a8.44,8.44,0,0,0,6.23,2.17c3,0,4.56-1.12,4.56-3.18a2.9,2.9,0,0,0-.8-2.18,3.92,3.92,0,0,0-2.28-.9l-3.11-.43a8.8,8.8,0,0,1-5-2.14,6.82,6.82,0,0,1-1.84-5.07c0-4.59,3.4-7.81,9-7.81,3.55,0,6.12.86,8.33,3l-3.19,3.15a7.15,7.15,0,0,0-5.28-1.77c-2.68,0-4,1.48-4,3.25a2.48,2.48,0,0,0,.76,1.85,4.38,4.38,0,0,0,2.39,1l3,.44a8.45,8.45,0,0,1,4.92,2,7.22,7.22,0,0,1,2,5.46C1078.85,144.65,1074.69,147.47,1069.29,147.47Z"/><path class="cls-10" d="M1082,147.25V143.2L1093,126H1082.5v-4.49H1099v4l-11,17.3h11v4.49Z"/><path class="cls-10" d="M1118.08,147.25l-1.52-4.56h-9.16l-1.56,4.56h-5.24l9.37-25.77h4l9.41,25.77Zm-6-18.17-3.26,9.38h6.41Z"/><path class="cls-10" d="M1137.29,147.25h-10.78V121.48h10.35c5,0,8,2.83,8,7.24a6,6,0,0,1-3.18,5.32,6,6,0,0,1,3.54,5.79C1145.18,144.65,1141.89,147.25,1137.29,147.25Zm-.83-21.28h-4.92v5.94h4.92c2.14,0,3.33-1.2,3.33-3S1138.6,126,1136.46,126Zm.33,10.46h-5.25v6.33h5.25a3.17,3.17,0,1,0,0-6.33Z"/><path class="cls-10" d="M1165,147.25l-1.52-4.56h-9.16l-1.55,4.56h-5.25l9.37-25.77h4l9.41,25.77Zm-6-18.17-3.26,9.38h6.41Zm1-10.09h-3.15l2.32-6.16h5Z"/><path class="cls-10" d="M1173.41,147.25V121.48h5v21.28h11.69v4.49Z"/><path class="cls-10" d="M1201.17,136.68v10.57h-5V136.68l-7.74-15.2h5.46l4.82,10.39,4.74-10.39h5.46Z"/><path class="cls-10" d="M1210.47,147.25V143.2l11-17.23h-10.53v-4.49h16.47v4l-11,17.3h11v4.49Z"/><path class="cls-10" d="M1246.51,147.25l-1.52-4.56h-9.15l-1.56,4.56H1229l9.38-25.77h3.94l9.41,25.77Zm-6-18.17-3.25,9.38h6.4Zm1-10.09h-3.15l2.32-6.16h5Z"/><path class="cls-10" d="M1262,147.47c-3.91,0-6.88-.83-9.41-3.4l3.25-3.26a8.44,8.44,0,0,0,6.23,2.17c3,0,4.56-1.12,4.56-3.18a2.86,2.86,0,0,0-.8-2.18,3.86,3.86,0,0,0-2.28-.9l-3.11-.43a8.74,8.74,0,0,1-5-2.14,6.82,6.82,0,0,1-1.85-5.07c0-4.59,3.4-7.81,9-7.81,3.54,0,6.11.86,8.32,3l-3.18,3.15a7.17,7.17,0,0,0-5.29-1.77c-2.68,0-4,1.48-4,3.25a2.51,2.51,0,0,0,.76,1.85,4.41,4.41,0,0,0,2.39,1l3,.44a8.42,8.42,0,0,1,4.92,2,7.18,7.18,0,0,1,2,5.46C1271.59,144.65,1267.43,147.47,1262,147.47Z"/><path class="cls-10" d="M1393.94,147.25l-1.52-4.56h-9.16l-1.56,4.56h-5.24l9.37-25.77h3.94l9.41,25.77Zm-6-18.17-3.26,9.38h6.41Z"/><path class="cls-10" d="M1417.35,147.25l-6.62-11.72-3.33,4v7.74h-5V121.48h5V132.7l9.08-11.22h6.12l-8.54,10.25,9.15,15.52Z"/><path class="cls-10" d="M1436.28,126v21.28h-5V126h-6.74v-4.49H1443V126Z"/><path class="cls-10" d="M1456.18,147.47c-5.28,0-9.48-3.58-9.48-9.05V121.48h5v16.76c0,3,1.74,4.74,4.45,4.74s4.49-1.77,4.49-4.74V121.48h5v16.94C1465.66,143.89,1461.47,147.47,1456.18,147.47Z"/><path class="cls-10" d="M1485.93,147.25l-1.52-4.56h-9.16l-1.55,4.56h-5.25l9.37-25.77h4l9.41,25.77Zm-6-18.17-3.26,9.38h6.41Zm1-10.09h-3.15l2.32-6.16h5Z"/><path class="cls-10" d="M1502,126v21.28h-5V126h-6.73v-4.49h18.5V126Z"/><path class="cls-10" d="M1527.73,144.65a10,10,0,0,1-13.94,0c-2.6-2.61-2.53-5.83-2.53-10.28s-.07-7.68,2.53-10.28a10,10,0,0,1,13.94,0c2.6,2.6,2.57,5.83,2.57,10.28S1530.33,142,1527.73,144.65ZM1524,127.13a4.18,4.18,0,0,0-3.22-1.38,4.28,4.28,0,0,0-3.26,1.38c-1,1.08-1.23,2.28-1.23,7.24s.25,6.15,1.23,7.24a4.28,4.28,0,0,0,3.26,1.37,4.17,4.17,0,0,0,3.22-1.37c1-1.09,1.27-2.28,1.27-7.24S1525,128.21,1524,127.13Z"/><path class="cls-10" d="M1549.12,147.25l-5-10.28h-3.62v10.28h-5V121.48h10.09c5.25,0,8.36,3.59,8.36,7.89a6.93,6.93,0,0,1-4.7,6.77l5.75,11.11ZM1545.21,126h-4.74v6.81h4.74a3.41,3.41,0,1,0,0-6.81Z"/><path class="cls-10" d="M1574.7,144.65a10,10,0,0,1-13.93,0c-2.61-2.61-2.54-5.83-2.54-10.28s-.07-7.68,2.54-10.28a10,10,0,0,1,13.93,0c2.61,2.6,2.57,5.83,2.57,10.28S1577.31,142,1574.7,144.65ZM1571,127.13a4.18,4.18,0,0,0-3.22-1.38,4.26,4.26,0,0,0-3.25,1.38c-1,1.08-1.23,2.28-1.23,7.24s.25,6.15,1.23,7.24a4.25,4.25,0,0,0,3.25,1.37,4.17,4.17,0,0,0,3.22-1.37c1-1.09,1.27-2.28,1.27-7.24S1572,128.21,1571,127.13Z"/><path class="cls-10" d="M1597.39,147.25l-6.62-11.72-3.33,4v7.74h-5V121.48h5V132.7l9.09-11.22h6.11l-8.54,10.25,9.16,15.52Z"/><path class="cls-10" d="M120,996.8c-3.91,0-6.88-.83-9.41-3.4l3.25-3.26a8.45,8.45,0,0,0,6.23,2.18c3,0,4.56-1.13,4.56-3.19a2.84,2.84,0,0,0-.8-2.17,3.8,3.8,0,0,0-2.28-.91l-3.11-.43a8.67,8.67,0,0,1-5-2.14,6.8,6.8,0,0,1-1.85-5.06c0-4.6,3.4-7.82,9-7.82,3.54,0,6.11.87,8.32,3l-3.18,3.15a7.21,7.21,0,0,0-5.29-1.77c-2.68,0-4,1.48-4,3.26a2.48,2.48,0,0,0,.76,1.84,4.41,4.41,0,0,0,2.39,1l3,.44a8.55,8.55,0,0,1,4.92,2,7.21,7.21,0,0,1,2,5.47C129.51,994,125.35,996.8,120,996.8Z"/><path class="cls-10" d="M132.59,996.59V993L141,982h-7.89v-4.23H147v3.58l-8.46,11H147v4.24Z"/><path class="cls-10" d="M151.12,974.51v-3.84h4.81v3.84Zm.07,22.08V977.73h4.7v18.86Z"/><path class="cls-10" d="M183.07,996.59V985.18c0-2.56-1.63-3.43-3.11-3.43a3,3,0,0,0-3.15,3.33v11.51h-4.7V985.18c0-2.56-1.63-3.43-3.12-3.43s-3.15.87-3.15,3.43v11.41h-4.7V977.73h4.6v1.74a6.57,6.57,0,0,1,4.7-2,5.86,5.86,0,0,1,5,2.39,7.2,7.2,0,0,1,5.64-2.39,6.56,6.56,0,0,1,4.63,1.67,7.1,7.1,0,0,1,2.07,5.35v12.06Z"/><path class="cls-10" d="M203.7,996.59v-1.74A6.47,6.47,0,0,1,199,996.8a6.12,6.12,0,0,1-4.45-1.66,7,7,0,0,1-1.92-5.36v-12h4.71v11.4c0,2.57,1.63,3.44,3.11,3.44s3.15-.87,3.15-3.44v-11.4h4.71v18.86Z"/><path class="cls-10" d="M218.9,996.59a5.13,5.13,0,0,1-5.5-5.4V970.82h4.7V990.9c0,1.13.47,1.7,1.67,1.7h1.81v4Z"/><path class="cls-10" d="M235,996.59V995a5.74,5.74,0,0,1-4.63,1.81,6.44,6.44,0,0,1-4.81-1.67,6,6,0,0,1-1.56-4.23c0-3,2.06-5.47,6.44-5.47h4.45v-.94c0-2.06-1-3-3.51-3a4.06,4.06,0,0,0-3.62,1.56l-3-2.93c1.85-2,3.66-2.61,6.81-2.61,5.28,0,8,2.25,8,6.66v12.42Zm-.11-8h-3.72c-1.7,0-2.65.8-2.65,2.14s.87,2.17,2.72,2.17a3.76,3.76,0,0,0,3-.9,3.16,3.16,0,0,0,.68-2.39Zm-1.59-13.9h-3.15l2.32-6.15h5Z"/><path class="cls-10" d="M252.16,996.8c-3.77,0-8.44-2-8.44-9.66s4.67-9.63,8.44-9.63a8,8,0,0,1,6.22,2.53l-3.18,3.19a3.81,3.81,0,0,0-3-1.48,3.25,3.25,0,0,0-2.68,1.23c-.73.9-1,2.17-1,4.16a6.48,6.48,0,0,0,1,4.2,3.28,3.28,0,0,0,2.68,1.23,3.82,3.82,0,0,0,3-1.49l3.18,3.15A8,8,0,0,1,252.16,996.8Z"/><path class="cls-10" d="M262,974.51v-3.84h4.82v3.84Zm.08,22.08V977.73h4.7v18.86Z"/><path class="cls-10" d="M285,994.49a7.83,7.83,0,0,1-5.87,2.31,7.72,7.72,0,0,1-5.82-2.31c-1.7-1.78-2.14-3.91-2.14-7.35s.44-5.54,2.14-7.31a7.73,7.73,0,0,1,5.82-2.32,7.83,7.83,0,0,1,5.87,2.32c1.7,1.77,2.13,3.91,2.13,7.31S286.72,992.71,285,994.49Zm-3.66-11.91a3,3,0,0,0-2.21-.83,2.91,2.91,0,0,0-2.17.83c-1,1-1.08,2.6-1.08,4.56s.1,3.62,1.08,4.6a2.91,2.91,0,0,0,2.17.83,3,3,0,0,0,2.21-.83c1-1,1.09-2.65,1.09-4.6S282.34,983.56,281.36,982.58Zm-1-7.86H277.2l2.32-6.15h5Z"/><path class="cls-10" d="M456,996.59H445.23V970.82h10.35c5,0,8,2.82,8,7.23a6,6,0,0,1-3.19,5.33,6,6,0,0,1,3.55,5.79C463.91,994,460.61,996.59,456,996.59Zm-.83-21.29h-4.93v5.94h4.93c2.13,0,3.33-1.2,3.33-3S457.32,975.3,455.19,975.3Zm.32,10.46h-5.25v6.34h5.25a3.18,3.18,0,1,0,0-6.34Z"/><path class="cls-10" d="M468.61,974.51v-3.84h4.81v3.84Zm.07,22.08V977.73h4.71v18.86Z"/><path class="cls-10" d="M477.33,996.59V993l8.36-11H477.8v-4.23h13.9v3.58l-8.47,11h8.47v4.24Z"/><path class="cls-10" d="M501.83,996.59a5.12,5.12,0,0,1-5.46-5.4v-9.33h-2v-3.59h2V972.7h4.7v5.57h3.33v3.59h-3.33v9c0,1.09.51,1.7,1.63,1.7h1.7v4Z"/><path class="cls-10" d="M521.59,994.49a8.55,8.55,0,0,1-11.69,0c-1.7-1.78-2.13-3.91-2.13-7.35s.43-5.54,2.13-7.31a8.52,8.52,0,0,1,11.69,0c1.7,1.77,2.14,3.91,2.14,7.31S523.29,992.71,521.59,994.49Zm-3.65-11.91a3,3,0,0,0-2.21-.83,2.89,2.89,0,0,0-2.17.83c-1,1-1.09,2.6-1.09,4.56s.11,3.62,1.09,4.6a2.89,2.89,0,0,0,2.17.83,3,3,0,0,0,2.21-.83c1-1,1.08-2.65,1.08-4.6S518.92,983.56,517.94,982.58Z"/><path class="cls-10" d="M539.18,996.59V985.18c0-2.56-1.63-3.43-3.11-3.43s-3.15.87-3.15,3.43v11.41h-4.71V977.73h4.6v1.73a6.47,6.47,0,0,1,4.71-2,6.12,6.12,0,0,1,4.45,1.67,7,7,0,0,1,1.92,5.35v12.06Z"/><path class="cls-10" d="M555.14,996.8c-3,0-5.65-.32-8-2.71l3.07-3.08a6.85,6.85,0,0,0,5,1.78c1.63,0,3.33-.55,3.33-2,0-.94-.5-1.59-2-1.74l-3-.29c-3.4-.32-5.5-1.81-5.5-5.28,0-3.91,3.44-6,7.28-6,2.93,0,5.39.51,7.2,2.21l-2.89,2.93a6.56,6.56,0,0,0-4.38-1.27c-1.89,0-2.68.87-2.68,1.81,0,.69.29,1.49,1.95,1.63l3,.29c3.73.36,5.61,2.35,5.61,5.54C563.14,994.81,559.59,996.8,555.14,996.8Z"/><path class="cls-10" d="M576.75,996.59V995a5.77,5.77,0,0,1-4.64,1.81,6.44,6.44,0,0,1-4.81-1.67,6.06,6.06,0,0,1-1.56-4.23c0-3,2.07-5.47,6.45-5.47h4.45v-.94c0-2.06-1-3-3.51-3a4,4,0,0,0-3.62,1.56l-3-2.93c1.85-2,3.66-2.61,6.81-2.61,5.28,0,8,2.25,8,6.66v12.42Zm-.11-8h-3.73c-1.7,0-2.64.8-2.64,2.14s.87,2.17,2.71,2.17a3.76,3.76,0,0,0,3-.9,3.11,3.11,0,0,0,.69-2.39Zm-1.6-13.9H571.9l2.31-6.15h5Z"/><path class="cls-10" d="M592.92,1003.71c-2.89,0-4.88-.57-6.84-2.46l2.93-3a4.82,4.82,0,0,0,3.7,1.44c2.82,0,3.8-2,3.8-3.9v-1.92a5.55,5.55,0,0,1-4.49,1.88,6.27,6.27,0,0,1-4.49-1.67c-1.77-1.77-1.92-4.19-1.92-7.49s.15-5.68,1.92-7.45a6.37,6.37,0,0,1,4.52-1.67,5.52,5.52,0,0,1,4.6,2v-1.77h4.56V995.9C601.21,1000.42,598,1003.71,592.92,1003.71Zm.47-22c-2.78,0-3.07,2.38-3.07,4.88s.29,4.92,3.07,4.92,3.12-2.42,3.12-4.92S596.18,981.75,593.39,981.75Z"/><path class="cls-10" d="M754,975.3v21.29h-5V975.3h-6.73v-4.48h18.5v4.48Z"/><path class="cls-10" d="M765.79,988.62a3.89,3.89,0,0,0,4.12,4.2,5.23,5.23,0,0,0,4.27-1.77l2.86,2.78a9,9,0,0,1-7.16,3c-4.46,0-8.73-2-8.73-9.66,0-6.15,3.33-9.63,8.22-9.63,5.25,0,8.21,3.84,8.21,9v2.1Zm6.73-5.24a3.51,3.51,0,0,0-6.3,0,5,5,0,0,0-.43,2H773A5,5,0,0,0,772.52,983.38Z"/><path class="cls-10" d="M787.25,996.59a5.12,5.12,0,0,1-5.5-5.4V970.82h4.7V990.9c0,1.13.47,1.7,1.67,1.7h1.8v4Z"/><path class="cls-10" d="M796.47,988.62a3.9,3.9,0,0,0,4.13,4.2,5.23,5.23,0,0,0,4.27-1.77l2.86,2.78a9,9,0,0,1-7.17,3c-4.45,0-8.72-2-8.72-9.66,0-6.15,3.33-9.63,8.22-9.63,5.25,0,8.21,3.84,8.21,9v2.1Zm6.74-5.24a3.51,3.51,0,0,0-6.3,0,5.2,5.2,0,0,0-.44,2h7.17A5,5,0,0,0,803.21,983.38Z"/><path class="cls-10" d="M825.64,994.49a8.55,8.55,0,0,1-11.69,0c-1.7-1.78-2.13-3.91-2.13-7.35s.43-5.54,2.13-7.31a8.52,8.52,0,0,1,11.69,0c1.71,1.77,2.14,3.91,2.14,7.31S827.35,992.71,825.64,994.49ZM822,982.58a3,3,0,0,0-2.21-.83,2.89,2.89,0,0,0-2.17.83c-1,1-1.09,2.6-1.09,4.56s.11,3.62,1.09,4.6a2.89,2.89,0,0,0,2.17.83,3,3,0,0,0,2.21-.83c1-1,1.08-2.65,1.08-4.6S823,983.56,822,982.58Z"/><path class="cls-10" d="M846.13,995.1a6.57,6.57,0,0,1-4.6,1.7,5.56,5.56,0,0,1-4.56-1.88v8.58h-4.7V977.73h4.56v1.77a5.71,5.71,0,0,1,4.7-2,6.57,6.57,0,0,1,4.6,1.7c1.88,1.88,1.92,5.11,1.92,7.93S848,993.22,846.13,995.1Zm-6-13.35c-2.83,0-3.19,2.31-3.19,5.39s.36,5.43,3.19,5.43,3.18-2.36,3.18-5.43S843,981.75,840.16,981.75Z"/><path class="cls-10" d="M856.22,988.62a3.9,3.9,0,0,0,4.13,4.2,5.23,5.23,0,0,0,4.27-1.77l2.86,2.78a9,9,0,0,1-7.17,3c-4.45,0-8.72-2-8.72-9.66,0-6.15,3.33-9.63,8.22-9.63,5.24,0,8.21,3.84,8.21,9v2.1Zm6.74-5.24a3.51,3.51,0,0,0-6.3,0,5.2,5.2,0,0,0-.44,2h7.17A5.2,5.2,0,0,0,863,983.38Z"/><path class="cls-10" d="M882.61,982.87a3.13,3.13,0,0,0-2.5-1.12c-1.45,0-3,1.08-3,3.47v11.37h-4.71V977.73H877v1.81a6.35,6.35,0,0,1,4.74-2,5.66,5.66,0,0,1,4.45,1.78Z"/><path class="cls-10" d="M898.13,996.59V995a5.75,5.75,0,0,1-4.63,1.81,6.46,6.46,0,0,1-4.82-1.67,6.05,6.05,0,0,1-1.55-4.23c0-3,2.06-5.47,6.44-5.47H898v-.94c0-2.06-1-3-3.51-3a4.06,4.06,0,0,0-3.62,1.56l-3-2.93c1.84-2,3.65-2.61,6.8-2.61,5.29,0,8,2.25,8,6.66v12.42Zm-.11-8h-3.73c-1.7,0-2.64.8-2.64,2.14s.87,2.17,2.72,2.17a3.73,3.73,0,0,0,3-.9,3.11,3.11,0,0,0,.69-2.39Zm-1.59-13.9h-3.15l2.32-6.15h5Z"/><path class="cls-10" d="M915.29,996.8c-3.77,0-8.44-2-8.44-9.66s4.67-9.63,8.44-9.63a8,8,0,0,1,6.22,2.53l-3.18,3.19a3.81,3.81,0,0,0-3-1.48,3.23,3.23,0,0,0-2.68,1.23c-.73.9-1.05,2.17-1.05,4.16a6.48,6.48,0,0,0,1.05,4.2,3.25,3.25,0,0,0,2.68,1.23,3.82,3.82,0,0,0,3-1.49l3.18,3.15A8,8,0,0,1,915.29,996.8Z"/><path class="cls-10" d="M925.09,974.51v-3.84h4.82v3.84Zm.07,22.08V977.73h4.71v18.86Z"/><path class="cls-10" d="M948.15,994.49a7.83,7.83,0,0,1-5.87,2.31,7.71,7.71,0,0,1-5.82-2.31c-1.71-1.78-2.14-3.91-2.14-7.35s.43-5.54,2.14-7.31a7.71,7.71,0,0,1,5.82-2.32,7.83,7.83,0,0,1,5.87,2.32c1.7,1.77,2.13,3.91,2.13,7.31S949.85,992.71,948.15,994.49Zm-3.66-11.91a3,3,0,0,0-2.21-.83,2.89,2.89,0,0,0-2.17.83c-1,1-1.09,2.6-1.09,4.56s.11,3.62,1.09,4.6a2.89,2.89,0,0,0,2.17.83,3,3,0,0,0,2.21-.83c1-1,1.09-2.65,1.09-4.6S945.47,983.56,944.49,982.58Zm-1-7.86h-3.15l2.31-6.15h5Z"/><path class="cls-10" d="M1116.47,996.8c-5.29,0-9.49-3.58-9.49-9V970.82h5v16.75c0,3,1.73,4.75,4.45,4.75s4.49-1.78,4.49-4.75V970.82h5v16.93C1126,993.22,1121.75,996.8,1116.47,996.8Z"/><path class="cls-10" d="M1131.56,996.59V970.82h5v25.77Z"/><path class="cls-10" d="M1152.4,999.26H1148l10.31-31.12h4.42Z"/><path class="cls-10" d="M1187.72,996.59V985.8H1179v10.79h-5V970.82h5v10.53h8.72V970.82h5v25.77Z"/><path class="cls-10" d="M1217.08,996.59v-15l-4.93,9.77h-3.4l-5-9.77v15h-5V970.82h5l6.73,13.93,6.7-13.93h5v25.77Z"/><path class="cls-10" d="M1228.11,996.59V970.82h5v25.77Z"/><path class="cls-10" d="M1424.92,993.87a9.67,9.67,0,0,1-7.28,2.93,9.45,9.45,0,0,1-7-2.82,7.49,7.49,0,0,1-2.1-3.87,48,48,0,0,1,0-12.82,7.34,7.34,0,0,1,2.1-3.87,9.45,9.45,0,0,1,7-2.82c5.86,0,9,3.76,9.7,8.25h-5.07c-.61-2.5-2.13-3.76-4.63-3.76a4.12,4.12,0,0,0-3.22,1.37c-.94,1.2-1.23,2.14-1.23,7.24s.22,6.08,1.23,7.28a4,4,0,0,0,3.22,1.34,4.66,4.66,0,0,0,3.58-1.45,5.07,5.07,0,0,0,1.16-3.44v-1h-4.74v-4.2h9.74V986C1427.38,989.78,1426.69,992,1424.92,993.87Z"/><path class="cls-10" d="M1431.65,974.51v-3.84h4.81v3.84Zm.07,22.08V977.73h4.7v18.86Z"/><path class="cls-10" d="M1447.57,996.59a5.12,5.12,0,0,1-5.47-5.4v-9.33h-2v-3.59h2V972.7h4.71v5.57h3.33v3.59h-3.33v9c0,1.09.51,1.7,1.63,1.7h1.7v4Z"/><path class="cls-10" d="M1454.23,1002.56V991.45h5.17v7.13Z"/><path class="cls-10" d="M1482.56,996.59V995a5.74,5.74,0,0,1-4.63,1.81,6.44,6.44,0,0,1-4.81-1.67,6,6,0,0,1-1.56-4.23c0-3,2.06-5.47,6.44-5.47h4.46v-.94c0-2.06-1-3-3.52-3a4,4,0,0,0-3.61,1.56l-3-2.93c1.85-2,3.66-2.61,6.81-2.61,5.28,0,8,2.25,8,6.66v12.42Zm-.1-8h-3.73c-1.7,0-2.65.8-2.65,2.14s.87,2.17,2.72,2.17a3.76,3.76,0,0,0,3-.9,3.15,3.15,0,0,0,.69-2.39Z"/><path class="cls-10" d="M1502.65,996.59v-1.78a5.65,5.65,0,0,1-4.67,2,6.64,6.64,0,0,1-4.63-1.7c-1.89-1.88-1.92-5.14-1.92-8s0-6,1.92-7.93a6.56,6.56,0,0,1,4.59-1.7,5.67,5.67,0,0,1,4.6,1.88v-8.57h4.71v25.77Zm-3.33-14.84c-2.82,0-3.19,2.31-3.19,5.39s.37,5.43,3.19,5.43,3.22-2.35,3.22-5.43S1502.14,981.75,1499.32,981.75Z"/><path class="cls-10" d="M1522.19,996.59V995a5.75,5.75,0,0,1-4.63,1.81,6.42,6.42,0,0,1-4.81-1.67,6,6,0,0,1-1.56-4.23c0-3,2.06-5.47,6.44-5.47h4.45v-.94c0-2.06-1-3-3.51-3a4.06,4.06,0,0,0-3.62,1.56l-3-2.93c1.84-2,3.65-2.61,6.8-2.61,5.29,0,8,2.25,8,6.66v12.42Zm-.11-8h-3.73c-1.7,0-2.64.8-2.64,2.14s.87,2.17,2.72,2.17a3.77,3.77,0,0,0,3-.9,3.16,3.16,0,0,0,.68-2.39Z"/><path class="cls-10" d="M1537.75,996.59a5.12,5.12,0,0,1-5.46-5.4v-9.33h-2v-3.59h2V972.7h4.7v5.57h3.33v3.59H1537v9c0,1.09.51,1.7,1.63,1.7h1.7v4Z"/><path class="cls-10" d="M1557.51,994.49a8.55,8.55,0,0,1-11.69,0c-1.7-1.78-2.13-3.91-2.13-7.35s.43-5.54,2.13-7.31a8.52,8.52,0,0,1,11.69,0c1.7,1.77,2.14,3.91,2.14,7.31S1559.21,992.71,1557.51,994.49Zm-3.65-11.91a3,3,0,0,0-2.21-.83,2.89,2.89,0,0,0-2.17.83c-1,1-1.09,2.6-1.09,4.56s.11,3.62,1.09,4.6a2.89,2.89,0,0,0,2.17.83,3,3,0,0,0,2.21-.83c1-1,1.08-2.65,1.08-4.6S1554.83,983.56,1553.86,982.58Z"/><path class="cls-10" d="M1575.46,996.59l-4.63-7.86-2,2.25v5.61h-4.71V970.82h4.71v14.62l6.26-7.71h5.68l-6.73,7.6,7.24,11.26Z"/><path class="cls-10" d="M99,648.92V639H101v8.23h4.52v1.74Z"/><path class="cls-10" d="M107.06,648.92V639h2v10Z"/><path class="cls-10" d="M117.56,648a3.64,3.64,0,0,1-2.63.95h-3.6V639h3.6a3.6,3.6,0,0,1,2.63.95c1.13,1.12,1,2.49,1,4S118.69,646.85,117.56,648Zm-1.35-6.67a1.74,1.74,0,0,0-1.46-.62h-1.47v6.5h1.47a1.77,1.77,0,0,0,1.46-.61c.36-.45.42-1.17.42-2.68S116.57,641.75,116.21,641.3Z"/><path class="cls-10" d="M126.09,648.92l-.59-1.77H122l-.6,1.77h-2L123,639h1.53l3.64,10Zm-2.33-7-1.26,3.62H125Z"/><path class="cls-10" d="M134.64,648.92l-1.94-4h-1.4v4h-2V639h3.91a3,3,0,0,1,3.23,3,2.68,2.68,0,0,1-1.82,2.62l2.23,4.3Zm-1.51-8.24H131.3v2.64h1.83a1.32,1.32,0,1,0,0-2.64Z"/><path class="cls-10" d="M138.29,651.23v-4.3h2v2.76Z"/><path class="cls-10" d="M149.9,648.92l-1.79-3-.77.87v2.17h-1.82V639h1.82v5.65l2.42-3H152l-2.6,2.94,2.8,4.36Z"/><path class="cls-10" d="M157.08,648.92v-.63a2.21,2.21,0,0,1-1.79.7,2.45,2.45,0,0,1-1.86-.65,2.32,2.32,0,0,1-.6-1.63c0-1.17.79-2.12,2.49-2.12H157v-.36c0-.8-.39-1.15-1.36-1.15a1.58,1.58,0,0,0-1.4.6l-1.16-1.13a3.05,3.05,0,0,1,2.63-1c2.05,0,3.11.87,3.11,2.57v4.81Zm0-3.08H155.6c-.66,0-1,.31-1,.82s.33.84,1,.84a1.45,1.45,0,0,0,1.15-.35,1.21,1.21,0,0,0,.26-.92Z"/><path class="cls-10" d="M169.31,648.92v-4.41a1.21,1.21,0,1,0-2.42,0v4.46h-1.83v-4.41a1.17,1.17,0,0,0-1.2-1.33,1.18,1.18,0,0,0-1.22,1.33v4.41h-1.82v-7.3h1.78v.67a2.56,2.56,0,0,1,1.82-.75,2.25,2.25,0,0,1,1.93.92,2.81,2.81,0,0,1,2.19-.92,2.55,2.55,0,0,1,1.79.64,2.75,2.75,0,0,1,.8,2.07v4.67Z"/><path class="cls-10" d="M174.51,645.84a1.51,1.51,0,0,0,1.6,1.62,2,2,0,0,0,1.65-.68l1.11,1.07A3.45,3.45,0,0,1,176.1,649c-1.73,0-3.38-.78-3.38-3.74,0-2.38,1.29-3.72,3.18-3.72s3.18,1.48,3.18,3.48v.82Zm2.61-2a1.36,1.36,0,0,0-2.44,0,2.13,2.13,0,0,0-.17.78h2.78A2.13,2.13,0,0,0,177.12,643.81Z"/><path class="cls-10" d="M184.72,643.61a1.22,1.22,0,0,0-2.14.91v4.4h-1.82v-7.3h1.77v.7a2.51,2.51,0,0,1,1.84-.78,2.2,2.2,0,0,1,1.72.68Z"/><path class="cls-10" d="M190.73,648.92v-.63a2.23,2.23,0,0,1-1.8.7,2.46,2.46,0,0,1-1.86-.65,2.32,2.32,0,0,1-.6-1.63c0-1.17.8-2.12,2.49-2.12h1.72v-.36c0-.8-.39-1.15-1.35-1.15a1.58,1.58,0,0,0-1.41.6l-1.16-1.13a3.07,3.07,0,0,1,2.64-1c2,0,3.1.87,3.1,2.57v4.81Zm0-3.08h-1.44c-.66,0-1,.31-1,.82s.33.84,1.05.84a1.44,1.44,0,0,0,1.15-.35,1.21,1.21,0,0,0,.26-.92Z"/><path class="cls-10" d="M194.39,651.23v-4.3h2v2.76Z"/><path class="cls-10" d="M205.58,643.61a1.22,1.22,0,0,0-2.14.91v4.4h-1.82v-7.3h1.78v.7a2.46,2.46,0,0,1,1.83-.78,2.2,2.2,0,0,1,1.72.68Z"/><path class="cls-10" d="M211.59,648.92v-.63a2.23,2.23,0,0,1-1.8.7,2.46,2.46,0,0,1-1.86-.65,2.32,2.32,0,0,1-.6-1.63c0-1.17.8-2.12,2.49-2.12h1.72v-.36c0-.8-.39-1.15-1.35-1.15a1.6,1.6,0,0,0-1.41.6l-1.16-1.13a3.06,3.06,0,0,1,2.63-1c2.05,0,3.12.87,3.12,2.57v4.81Zm-.05-3.08H210.1c-.66,0-1,.31-1,.82s.34.84,1,.84a1.44,1.44,0,0,0,1.15-.35,1.21,1.21,0,0,0,.26-.92Z"/><path class="cls-10" d="M219.36,648.92v-.69a2.21,2.21,0,0,1-1.81.77,2.53,2.53,0,0,1-1.79-.66c-.73-.72-.75-2-.75-3.08s0-2.34.75-3.06a2.51,2.51,0,0,1,1.78-.66,2.14,2.14,0,0,1,1.77.73V639h1.82v10Zm-1.29-5.74c-1.1,0-1.24.89-1.24,2.08s.14,2.1,1.24,2.1,1.24-.91,1.24-2.1S219.16,643.18,218.07,643.18Z"/><path class="cls-10" d="M226.92,648.92v-.63a2.23,2.23,0,0,1-1.8.7,2.46,2.46,0,0,1-1.86-.65,2.32,2.32,0,0,1-.6-1.63c0-1.17.8-2.12,2.49-2.12h1.72v-.36c0-.8-.39-1.15-1.36-1.15a1.58,1.58,0,0,0-1.4.6L223,642.55a3.06,3.06,0,0,1,2.63-1c2,0,3.11.87,3.11,2.57v4.81Zm0-3.08h-1.44c-.66,0-1,.31-1,.82s.33.84,1.05.84a1.44,1.44,0,0,0,1.15-.35,1.21,1.21,0,0,0,.26-.92Z"/><path class="cls-10" d="M234.62,643.61a1.22,1.22,0,0,0-2.15.91v4.4h-1.82v-7.3h1.78v.7a2.47,2.47,0,0,1,1.84-.78,2.22,2.22,0,0,1,1.72.68Z"/><path class="cls-10" d="M236.11,651.23v-4.3h2v2.76Z"/><path class="cls-10" d="M243.48,648.92V639h1.94v10Z"/><path class="cls-10" d="M254.83,648.92v-5.81l-1.9,3.78h-1.32l-1.92-3.78v5.81h-1.94V639h1.91l2.61,5.39,2.59-5.39h1.92v10Z"/><path class="cls-10" d="M262.62,649a3.46,3.46,0,0,1-3.67-3.5V639h1.94v6.48a1.73,1.73,0,1,0,3.46,0V639h1.94v6.55A3.47,3.47,0,0,1,262.62,649Z"/><path class="cls-10" d="M268.24,651.23v-4.3h2v2.76Z"/><path class="cls-10" d="M281.75,647.87a3.74,3.74,0,0,1-2.81,1.13,3.64,3.64,0,0,1-2.69-1.09,2.82,2.82,0,0,1-.81-1.5,18.17,18.17,0,0,1,0-5,2.82,2.82,0,0,1,.81-1.5,3.68,3.68,0,0,1,2.69-1.09,3.57,3.57,0,0,1,3.75,3.2h-2a1.69,1.69,0,0,0-1.79-1.46,1.59,1.59,0,0,0-1.25.53c-.36.46-.47.83-.47,2.8s.08,2.36.47,2.82a1.56,1.56,0,0,0,1.25.52,1.84,1.84,0,0,0,1.39-.56,2,2,0,0,0,.44-1.33V645h-1.83v-1.63h3.77v1.46A4,4,0,0,1,281.75,647.87Z"/><path class="cls-10" d="M288.39,645.17h-1.92v3.75h-2V639h3.87a3.11,3.11,0,1,1,0,6.22Zm-.1-4.49h-1.82v2.73h1.82a1.31,1.31,0,0,0,1.44-1.35A1.33,1.33,0,0,0,288.29,640.68Z"/><path class="cls-10" d="M296.06,649a4.69,4.69,0,0,1-3.64-1.31l1.26-1.26a3.26,3.26,0,0,0,2.41.84c1.15,0,1.76-.44,1.76-1.24a1.08,1.08,0,0,0-.31-.84,1.48,1.48,0,0,0-.88-.35l-1.2-.17a3.32,3.32,0,0,1-1.93-.82,2.63,2.63,0,0,1-.72-2c0-1.78,1.32-3,3.47-3a4.31,4.31,0,0,1,3.23,1.16l-1.24,1.22a2.76,2.76,0,0,0-2-.68c-1,0-1.54.57-1.54,1.26a1,1,0,0,0,.29.71,1.71,1.71,0,0,0,.93.39l1.17.17a3.36,3.36,0,0,1,1.91.77,2.81,2.81,0,0,1,.77,2.12C299.76,647.91,298.15,649,296.06,649Z"/><path class="cls-10" d="M443.5,640.68v8.24h-1.95v-8.24H439V639h7.15v1.73Z"/><path class="cls-10" d="M448.05,645.84a1.5,1.5,0,0,0,1.59,1.62,2,2,0,0,0,1.66-.68l1.1,1.07a3.44,3.44,0,0,1-2.77,1.15c-1.72,0-3.38-.78-3.38-3.74,0-2.38,1.29-3.72,3.18-3.72s3.18,1.48,3.18,3.48v.82Zm2.6-2a1.25,1.25,0,0,0-1.22-.76,1.27,1.27,0,0,0-1.22.76,1.94,1.94,0,0,0-.16.78h2.77A1.94,1.94,0,0,0,450.65,643.81Zm-.73-3.35h-1.21l.89-2.38h1.92Z"/><path class="cls-10" d="M458.25,643.61a1.19,1.19,0,0,0-1-.43,1.21,1.21,0,0,0-1.18,1.34v4.4h-1.82v-7.3h1.78v.7a2.46,2.46,0,0,1,1.83-.78,2.23,2.23,0,0,1,1.73.68Z"/><path class="cls-10" d="M465,648.92l-1.79-3-.77.87v2.17h-1.82V639h1.82v5.65l2.42-3h2.2l-2.6,2.94,2.8,4.36Z"/><path class="cls-10" d="M469.82,645.84a1.5,1.5,0,0,0,1.59,1.62,2,2,0,0,0,1.66-.68l1.1,1.07A3.44,3.44,0,0,1,471.4,649c-1.72,0-3.38-.78-3.38-3.74,0-2.38,1.29-3.72,3.18-3.72s3.18,1.48,3.18,3.48v.82Zm2.6-2a1.25,1.25,0,0,0-1.22-.76,1.27,1.27,0,0,0-1.22.76,1.94,1.94,0,0,0-.16.78h2.77A1.94,1.94,0,0,0,472.42,643.81Zm-.73-3.35h-1.22l.9-2.38h1.92Z"/><path class="cls-10" d="M481.42,648.34a2.5,2.5,0,0,1-1.77.66,2.14,2.14,0,0,1-1.77-.73v3.32h-1.82v-10h1.76v.69a2.25,2.25,0,0,1,1.83-.77,2.5,2.5,0,0,1,1.77.66c.73.72.75,2,.75,3.06S482.15,647.62,481.42,648.34Zm-2.31-5.16c-1.09,0-1.23.89-1.23,2.08s.14,2.1,1.23,2.1,1.24-.91,1.24-2.1S480.21,643.18,479.11,643.18Z"/><path class="cls-10" d="M483.83,651.23v-4.3h2v2.76Z"/><path class="cls-10" d="M495.09,648.92v-.69a2.21,2.21,0,0,1-1.81.77,2.55,2.55,0,0,1-1.79-.66c-.73-.72-.74-2-.74-3.08s0-2.34.74-3.06a2.51,2.51,0,0,1,1.78-.66,2.14,2.14,0,0,1,1.77.73V639h1.83v10Zm-1.29-5.74c-1.09,0-1.23.89-1.23,2.08s.14,2.1,1.23,2.1,1.24-.91,1.24-2.1S494.89,643.18,493.8,643.18Z"/><path class="cls-10" d="M500.34,645.84a1.5,1.5,0,0,0,1.59,1.62,2,2,0,0,0,1.66-.68l1.1,1.07a3.44,3.44,0,0,1-2.77,1.15c-1.72,0-3.38-.78-3.38-3.74,0-2.38,1.29-3.72,3.18-3.72S504.9,643,504.9,645v.82Zm2.6-2a1.25,1.25,0,0,0-1.22-.76,1.27,1.27,0,0,0-1.22.76,1.94,1.94,0,0,0-.16.78h2.77A1.94,1.94,0,0,0,502.94,643.81Z"/><path class="cls-10" d="M508.86,648.92a2,2,0,0,1-2.11-2.09v-3.61H506v-1.39h.77v-2.16h1.82v2.16h1.29v1.39h-1.29v3.5c0,.42.19.66.63.66h.66v1.54Z"/><path class="cls-10" d="M512.89,645.84a1.51,1.51,0,0,0,1.6,1.62,2,2,0,0,0,1.65-.68l1.11,1.07a3.45,3.45,0,0,1-2.77,1.15c-1.73,0-3.38-.78-3.38-3.74,0-2.38,1.29-3.72,3.18-3.72s3.18,1.48,3.18,3.48v.82Zm2.61-2a1.36,1.36,0,0,0-2.44,0,2.13,2.13,0,0,0-.17.78h2.78A2.13,2.13,0,0,0,515.5,643.81Z"/><path class="cls-10" d="M523.52,648.92l-1.79-3-.77.87v2.17h-1.82V639H521v5.65l2.42-3h2.2L523,644.56l2.81,4.36Z"/><path class="cls-10" d="M529.76,649c-1.45,0-3.26-.78-3.26-3.74s1.81-3.72,3.26-3.72a3.08,3.08,0,0,1,2.41,1l-1.23,1.23a1.46,1.46,0,0,0-1.18-.57,1.25,1.25,0,0,0-1,.47,2.47,2.47,0,0,0-.41,1.61,2.53,2.53,0,0,0,.41,1.63,1.25,1.25,0,0,0,1,.47,1.46,1.46,0,0,0,1.18-.57l1.23,1.22A3.12,3.12,0,0,1,529.76,649Z"/><path class="cls-10" d="M533.56,640.37v-1.48h1.86v1.48Zm0,8.55v-7.3h1.83v7.3Z"/><path class="cls-10" d="M542.48,648.11a3.33,3.33,0,0,1-4.53,0,5.33,5.33,0,0,1,0-5.68,3.33,3.33,0,0,1,4.53,0,5.33,5.33,0,0,1,0,5.68Zm-1.42-4.61a1.15,1.15,0,0,0-.85-.32,1.11,1.11,0,0,0-.84.32,2.45,2.45,0,0,0-.42,1.76,2.49,2.49,0,0,0,.42,1.78,1.11,1.11,0,0,0,.84.32,1.15,1.15,0,0,0,.85-.32,2.49,2.49,0,0,0,.42-1.78A2.45,2.45,0,0,0,541.06,643.5Zm-.39-3h-1.22l.9-2.38h1.92Z"/><path class="cls-10" d="M545,651.23v-4.3h2v2.76Z"/><path class="cls-10" d="M557.55,648.34a2.5,2.5,0,0,1-1.77.66,2.14,2.14,0,0,1-1.77-.73v3.32h-1.82v-10H554v.69a2.21,2.21,0,0,1,1.82-.77,2.5,2.5,0,0,1,1.77.66c.73.72.75,2,.75,3.06S558.28,647.62,557.55,648.34Zm-2.31-5.16c-1.09,0-1.23.89-1.23,2.08s.14,2.1,1.23,2.1,1.24-.91,1.24-2.1S556.34,643.18,555.24,643.18Z"/><path class="cls-10" d="M564,643.61a1.19,1.19,0,0,0-1-.43,1.21,1.21,0,0,0-1.18,1.34v4.4H560v-7.3h1.78v.7a2.46,2.46,0,0,1,1.83-.78,2.23,2.23,0,0,1,1.73.68Z"/><path class="cls-10" d="M567.39,645.84a1.51,1.51,0,0,0,1.6,1.62,2,2,0,0,0,1.65-.68l1.11,1.07A3.45,3.45,0,0,1,569,649c-1.73,0-3.38-.78-3.38-3.74,0-2.38,1.29-3.72,3.18-3.72S572,643,572,645v.82Zm2.61-2a1.36,1.36,0,0,0-2.44,0,2.13,2.13,0,0,0-.17.78h2.78A2.13,2.13,0,0,0,570,643.81Z"/><path class="cls-10" d="M577.67,648.92v-.69a2.17,2.17,0,0,1-1.8.77,2.58,2.58,0,0,1-1.8-.66c-.73-.72-.74-2-.74-3.08s0-2.34.74-3.06a2.54,2.54,0,0,1,1.78-.66,2.17,2.17,0,0,1,1.78.73V639h1.82v10Zm-1.29-5.74c-1.09,0-1.23.89-1.23,2.08s.14,2.1,1.23,2.1,1.25-.91,1.25-2.1S577.48,643.18,576.38,643.18Z"/><path class="cls-10" d="M581.46,640.37v-1.48h1.87v1.48Zm0,8.55v-7.3h1.82v7.3Z"/><path class="cls-10" d="M589.73,648.92l-1.8-3-.77.87v2.17h-1.82V639h1.82v5.65l2.43-3h2.2l-2.61,2.94,2.8,4.36Z"/><path class="cls-10" d="M596,649c-1.46,0-3.26-.78-3.26-3.74s1.8-3.72,3.26-3.72a3.09,3.09,0,0,1,2.41,1l-1.23,1.23a1.46,1.46,0,0,0-1.18-.57,1.28,1.28,0,0,0-1,.47,2.47,2.47,0,0,0-.4,1.61,2.54,2.54,0,0,0,.4,1.63,1.28,1.28,0,0,0,1,.47,1.46,1.46,0,0,0,1.18-.57l1.23,1.22A3.13,3.13,0,0,1,596,649Z"/><path class="cls-10" d="M599.76,640.37v-1.48h1.86v1.48Zm0,8.55v-7.3h1.82v7.3Z"/><path class="cls-10" d="M608.68,648.11a3,3,0,0,1-2.27.89,3,3,0,0,1-2.25-.89,5.27,5.27,0,0,1,0-5.68,3,3,0,0,1,2.25-.89,3,3,0,0,1,2.27.89,5.27,5.27,0,0,1,0,5.68Zm-1.41-4.61a1.15,1.15,0,0,0-.86-.32,1.12,1.12,0,0,0-.84.32,2.45,2.45,0,0,0-.42,1.76,2.49,2.49,0,0,0,.42,1.78,1.12,1.12,0,0,0,.84.32,1.15,1.15,0,0,0,.86-.32,2.49,2.49,0,0,0,.42-1.78A2.45,2.45,0,0,0,607.27,643.5Zm-.39-3h-1.22l.89-2.38h1.92Z"/><path class="cls-10" d="M797.65,647.87a3.74,3.74,0,0,1-2.81,1.13,3.63,3.63,0,0,1-2.69-1.09,2.9,2.9,0,0,1-.82-1.5,19.3,19.3,0,0,1,0-5,2.9,2.9,0,0,1,.82-1.5,3.66,3.66,0,0,1,2.69-1.09,3.58,3.58,0,0,1,3.75,3.2h-2a1.7,1.7,0,0,0-1.79-1.46,1.59,1.59,0,0,0-1.25.53c-.37.46-.48.83-.48,2.8s.09,2.36.48,2.82a1.53,1.53,0,0,0,1.25.52,1.82,1.82,0,0,0,1.38-.56,2,2,0,0,0,.45-1.33V645h-1.83v-1.63h3.76v1.46A4,4,0,0,1,797.65,647.87Z"/><path class="cls-10" d="M802.34,648.92a2,2,0,0,1-2.13-2.09V639H802v7.77c0,.43.18.66.64.66h.71v1.54Z"/><path class="cls-10" d="M809.59,648.11a3,3,0,0,1-2.27.89,3,3,0,0,1-2.25-.89,5.27,5.27,0,0,1,0-5.68,3,3,0,0,1,2.25-.89,3,3,0,0,1,2.27.89,5.27,5.27,0,0,1,0,5.68Zm-1.41-4.61a1.15,1.15,0,0,0-.86-.32,1.12,1.12,0,0,0-.84.32,2.45,2.45,0,0,0-.42,1.76,2.49,2.49,0,0,0,.42,1.78,1.12,1.12,0,0,0,.84.32,1.15,1.15,0,0,0,.86-.32,2.49,2.49,0,0,0,.42-1.78A2.45,2.45,0,0,0,808.18,643.5Z"/><path class="cls-10" d="M817.52,648.34a2.54,2.54,0,0,1-1.78.66,2.21,2.21,0,0,1-1.82-.77v.69h-1.77V639H814v3.32a2.15,2.15,0,0,1,1.77-.73,2.54,2.54,0,0,1,1.78.66c.73.72.74,2,.74,3.06S818.25,647.62,817.52,648.34Zm-2.31-5.16c-1.1,0-1.24.89-1.24,2.08s.14,2.1,1.24,2.1,1.23-.91,1.23-2.1S816.3,643.18,815.21,643.18Z"/><path class="cls-10" d="M823.73,648.92v-.63a2.21,2.21,0,0,1-1.79.7,2.45,2.45,0,0,1-1.86-.65,2.28,2.28,0,0,1-.61-1.63c0-1.17.8-2.12,2.5-2.12h1.72v-.36c0-.8-.39-1.15-1.36-1.15a1.58,1.58,0,0,0-1.4.6l-1.16-1.13a3,3,0,0,1,2.63-1c2.05,0,3.11.87,3.11,2.57v4.81Zm0-3.08h-1.44c-.66,0-1,.31-1,.82s.34.84,1,.84a1.43,1.43,0,0,0,1.15-.35,1.17,1.17,0,0,0,.27-.92Zm-.62-5.38h-1.22l.9-2.38h1.92Z"/><path class="cls-10" d="M829.53,648.92a2,2,0,0,1-2.13-2.09V639h1.82v7.77c0,.43.18.66.64.66h.7v1.54Z"/><path class="cls-10" d="M832,640.37v-1.48h1.86v1.48Zm0,8.55v-7.3h1.82v7.3Z"/><path class="cls-10" d="M838.26,649a4,4,0,0,1-3.11-1l1.19-1.19a2.68,2.68,0,0,0,1.95.69c.63,0,1.29-.21,1.29-.76,0-.36-.2-.61-.77-.67l-1.15-.11c-1.32-.13-2.13-.7-2.13-2,0-1.51,1.33-2.32,2.82-2.32a3.85,3.85,0,0,1,2.78.85L840,643.53a2.51,2.51,0,0,0-1.69-.49c-.73,0-1,.33-1,.7s.11.57.76.63l1.15.11c1.44.14,2.17.91,2.17,2.14C841.36,648.23,840,649,838.26,649Z"/><path class="cls-10" d="M847.56,645.84a1.5,1.5,0,0,0,1.6,1.62,2,2,0,0,0,1.65-.68l1.1,1.07a3.44,3.44,0,0,1-2.77,1.15c-1.72,0-3.38-.78-3.38-3.74,0-2.38,1.29-3.72,3.18-3.72s3.18,1.48,3.18,3.48v.82Zm2.6-2a1.35,1.35,0,0,0-2.43,0,1.79,1.79,0,0,0-.17.78h2.77A1.79,1.79,0,0,0,850.16,643.81Zm-.73-3.35h-1.21l.89-2.38H851Z"/><path class="cls-10" d="M856.2,649a3.94,3.94,0,0,1-3.11-1l1.19-1.19a2.65,2.65,0,0,0,1.94.69c.63,0,1.29-.21,1.29-.76,0-.36-.19-.61-.77-.67l-1.15-.11c-1.31-.13-2.13-.7-2.13-2,0-1.51,1.34-2.32,2.82-2.32a3.86,3.86,0,0,1,2.79.85L858,643.53a2.54,2.54,0,0,0-1.7-.49c-.73,0-1,.33-1,.7s.11.57.75.63l1.15.11c1.44.14,2.17.91,2.17,2.14C859.29,648.23,857.92,649,856.2,649Z"/><path class="cls-10" d="M866.12,648.92a2,2,0,0,1-2.13-2.09V639h1.82v7.77c0,.43.19.66.65.66h.7v1.54Z"/><path class="cls-10" d="M873.38,648.11a3.07,3.07,0,0,1-2.27.89,3,3,0,0,1-2.26-.89,5.27,5.27,0,0,1,0-5.68,3,3,0,0,1,2.26-.89,3.07,3.07,0,0,1,2.27.89,5.33,5.33,0,0,1,0,5.68ZM872,643.5a1.15,1.15,0,0,0-.85-.32,1.11,1.11,0,0,0-.84.32,2.45,2.45,0,0,0-.42,1.76,2.49,2.49,0,0,0,.42,1.78,1.11,1.11,0,0,0,.84.32A1.15,1.15,0,0,0,872,647a2.49,2.49,0,0,0,.42-1.78A2.45,2.45,0,0,0,872,643.5Z"/><path class="cls-10" d="M880.32,648.92l-1.79-3-.77.87v2.17h-1.83V639h1.83v5.65l2.42-3h2.2l-2.61,2.94,2.8,4.36Z"/><path class="cls-10" d="M887.5,648.92v-.63a2.21,2.21,0,0,1-1.79.7,2.49,2.49,0,0,1-1.87-.65,2.32,2.32,0,0,1-.6-1.63c0-1.17.8-2.12,2.5-2.12h1.72v-.36c0-.8-.39-1.15-1.36-1.15a1.58,1.58,0,0,0-1.4.6l-1.16-1.13a3,3,0,0,1,2.63-1c2.05,0,3.11.87,3.11,2.57v4.81Zm0-3.08H886c-.66,0-1,.31-1,.82s.34.84,1,.84a1.43,1.43,0,0,0,1.15-.35,1.17,1.17,0,0,0,.27-.92Zm-.62-5.38h-1.22l.9-2.38h1.92Z"/><path class="cls-10" d="M893.3,648.92a2,2,0,0,1-2.13-2.09V639H893v7.77c0,.43.18.66.64.66h.7v1.54Z"/><path class="cls-10" d="M895.76,640.37v-1.48h1.86v1.48Zm0,8.55v-7.3h1.82v7.3Z"/><path class="cls-10" d="M902,649a4,4,0,0,1-3.11-1l1.19-1.19a2.67,2.67,0,0,0,1.95.69c.63,0,1.29-.21,1.29-.76,0-.36-.2-.61-.77-.67l-1.15-.11c-1.32-.13-2.13-.7-2.13-2,0-1.51,1.33-2.32,2.82-2.32a3.85,3.85,0,0,1,2.78.85l-1.12,1.14a2.51,2.51,0,0,0-1.69-.49c-.73,0-1,.33-1,.7s.11.57.76.63l1.15.11c1.44.14,2.17.91,2.17,2.14C905.13,648.23,903.75,649,902,649Z"/><path class="cls-10" d="M1082.55,645.17h-1.92v3.75h-1.94V639h3.86a3.11,3.11,0,1,1,0,6.22Zm-.1-4.49h-1.82v2.73h1.82a1.31,1.31,0,0,0,1.45-1.35A1.33,1.33,0,0,0,1082.45,640.68Z"/><path class="cls-10" d="M1091.54,648.92v-.67a2.52,2.52,0,0,1-1.82.75,2.33,2.33,0,0,1-1.72-.64,2.71,2.71,0,0,1-.75-2.07v-4.67h1.82V646a1.22,1.22,0,1,0,2.43,0v-4.41h1.82v7.3Z"/><path class="cls-10" d="M1099.32,643.61a1.22,1.22,0,0,0-2.14.91v4.4h-1.82v-7.3h1.78v.7a2.46,2.46,0,0,1,1.83-.78,2.23,2.23,0,0,1,1.73.68Z"/><path class="cls-10" d="M1104,649a3.93,3.93,0,0,1-3.1-1l1.19-1.19a2.6,2.6,0,0,0,1.94.69c.63,0,1.29-.21,1.29-.76,0-.36-.19-.61-.77-.67l-1.15-.11c-1.31-.13-2.13-.7-2.13-2,0-1.51,1.33-2.32,2.82-2.32a3.88,3.88,0,0,1,2.79.85l-1.12,1.14a2.54,2.54,0,0,0-1.7-.49c-.73,0-1,.33-1,.7s.12.57.76.63l1.15.11c1.44.14,2.17.91,2.17,2.14C1107.08,648.23,1105.71,649,1104,649Z"/><path class="cls-10" d="M1112.8,648.92v-.67a2.48,2.48,0,0,1-1.82.75,2.36,2.36,0,0,1-1.72-.64,2.7,2.7,0,0,1-.74-2.07v-4.67h1.82V646a1.22,1.22,0,1,0,2.42,0v-4.41h1.82v7.3Z"/><path class="cls-10" d="M1116.6,640.38v-1.49h1.86v1.49Zm0,8.54v-7.3h1.83v7.3Z"/><path class="cls-10" d="M1122.76,648.92a2,2,0,0,1-2.12-2.09v-3.61h-.77v-1.39h.77v-2.16h1.82v2.16h1.29v1.39h-1.29v3.5c0,.42.2.66.63.66h.66v1.54Z"/><path class="cls-10" d="M1125.33,651.23v-4.3h2v2.76Z"/><path class="cls-10" d="M1141,648.92v-4.41a1.21,1.21,0,1,0-2.42,0v4.46h-1.82v-4.41a1.22,1.22,0,1,0-2.42,0v4.41h-1.82v-7.3h1.78v.67a2.52,2.52,0,0,1,1.82-.75,2.25,2.25,0,0,1,1.93.92,2.79,2.79,0,0,1,2.18-.92,2.59,2.59,0,0,1,1.8.64,2.76,2.76,0,0,1,.8,2.08v4.66Z"/><path class="cls-10" d="M1149.86,648.11a3,3,0,0,1-2.27.89,3,3,0,0,1-2.25-.89,5.27,5.27,0,0,1,0-5.68,3,3,0,0,1,2.25-.89,3,3,0,0,1,2.27.89,5.27,5.27,0,0,1,0,5.68Zm-1.41-4.61a1.15,1.15,0,0,0-.86-.32,1.12,1.12,0,0,0-.84.32,2.5,2.5,0,0,0-.42,1.76,2.54,2.54,0,0,0,.42,1.78,1.13,1.13,0,0,0,.84.33,1.16,1.16,0,0,0,.86-.33,2.49,2.49,0,0,0,.42-1.78A2.45,2.45,0,0,0,1148.45,643.5Z"/><path class="cls-10" d="M1156.46,648.92v-.69a2.21,2.21,0,0,1-1.81.77,2.57,2.57,0,0,1-1.79-.65c-.73-.73-.75-2-.75-3.09s0-2.34.75-3.06a2.51,2.51,0,0,1,1.78-.66,2.14,2.14,0,0,1,1.77.73V639h1.83v10Zm-1.29-5.74c-1.09,0-1.24.89-1.24,2.08s.15,2.11,1.24,2.11,1.24-.91,1.24-2.11S1156.26,643.18,1155.17,643.18Z"/><path class="cls-10" d="M1161.71,645.84a1.5,1.5,0,0,0,1.59,1.62,2,2,0,0,0,1.66-.68l1.1,1.08a3.48,3.48,0,0,1-2.77,1.14c-1.73,0-3.38-.78-3.38-3.74,0-2.38,1.29-3.72,3.18-3.72s3.18,1.48,3.18,3.49v.81Zm2.6-2a1.36,1.36,0,0,0-2.44,0,1.94,1.94,0,0,0-.16.78h2.77A2.13,2.13,0,0,0,1164.31,643.81Z"/><path class="cls-10" d="M1170,648.92a2,2,0,0,1-2.13-2.09V639h1.82v7.77c0,.43.18.66.64.66h.7v1.54Z"/><path class="cls-10" d="M1181.11,648.35a2.55,2.55,0,0,1-1.78.65,2.14,2.14,0,0,1-1.76-.72v3.32h-1.82v-10h1.76v.69a2.23,2.23,0,0,1,1.82-.77,2.51,2.51,0,0,1,1.78.66c.73.72.74,2,.74,3.06S1181.84,647.62,1181.11,648.35Zm-2.31-5.17c-1.09,0-1.23.89-1.23,2.08s.14,2.11,1.23,2.11,1.23-.91,1.23-2.11S1179.89,643.18,1178.8,643.18Z"/><path class="cls-10" d="M1187.55,643.61a1.22,1.22,0,0,0-2.14.91v4.4h-1.82v-7.3h1.78v.7a2.45,2.45,0,0,1,1.83-.78,2.2,2.2,0,0,1,1.72.68Z"/><path class="cls-10" d="M1191,645.84a1.51,1.51,0,0,0,1.6,1.62,2,2,0,0,0,1.65-.68l1.11,1.08a3.5,3.5,0,0,1-2.78,1.14c-1.72,0-3.37-.78-3.37-3.74,0-2.38,1.29-3.72,3.18-3.72s3.18,1.48,3.18,3.49v.81Zm2.61-2a1.27,1.27,0,0,0-1.22-.76,1.25,1.25,0,0,0-1.22.76,1.94,1.94,0,0,0-.17.78h2.77A1.94,1.94,0,0,0,1193.56,643.81Z"/><path class="cls-10" d="M1199.48,648.92a2,2,0,0,1-2.12-2.09v-3.61h-.77v-1.39h.77v-2.16h1.82v2.16h1.29v1.39h-1.29v3.5c0,.42.2.66.63.66h.66v1.54Z"/><path class="cls-10" d="M1202.09,640.38v-1.49H1204v1.49Zm0,8.54v-7.3h1.82v7.3Z"/><path class="cls-10" d="M1208.87,649c-1.46,0-3.26-.78-3.26-3.74s1.8-3.72,3.26-3.72a3.11,3.11,0,0,1,2.41,1l-1.23,1.23a1.46,1.46,0,0,0-1.18-.57,1.28,1.28,0,0,0-1,.47,2.47,2.47,0,0,0-.4,1.61,2.54,2.54,0,0,0,.4,1.63,1.29,1.29,0,0,0,1,.48,1.47,1.47,0,0,0,1.18-.58l1.23,1.22A3.12,3.12,0,0,1,1208.87,649Z"/><path class="cls-10" d="M1215,648.92a2,2,0,0,1-2.11-2.09v-3.61h-.77v-1.39h.77v-2.16h1.82v2.16H1216v1.39h-1.29v3.5c0,.42.2.66.63.66h.66v1.54Z"/><path class="cls-10" d="M1217.59,640.38v-1.49h1.86v1.49Zm0,8.54v-7.3h1.82v7.3Z"/><path class="cls-10" d="M1224.62,648.92h-1.43l-2.69-7.3h1.92l1.49,4.51,1.47-4.51h1.92Z"/><path class="cls-10" d="M1229.66,645.84a1.5,1.5,0,0,0,1.6,1.62,2,2,0,0,0,1.65-.68l1.11,1.08a3.5,3.5,0,0,1-2.78,1.14c-1.72,0-3.37-.78-3.37-3.74,0-2.38,1.29-3.72,3.18-3.72s3.18,1.48,3.18,3.49v.81Zm2.61-2a1.27,1.27,0,0,0-1.22-.76,1.25,1.25,0,0,0-1.22.76,1.94,1.94,0,0,0-.17.78h2.77A1.94,1.94,0,0,0,1232.27,643.81Z"/><path class="cls-10" d="M1235.83,651.23v-4.3h2v2.76Z"/><path class="cls-10" d="M1245.45,649a4,4,0,0,1-3.11-1l1.19-1.19a2.64,2.64,0,0,0,2,.69c.63,0,1.29-.21,1.29-.76,0-.36-.2-.61-.77-.67l-1.15-.11c-1.32-.13-2.13-.7-2.13-2,0-1.51,1.33-2.32,2.82-2.32a3.85,3.85,0,0,1,2.78.85l-1.12,1.14a2.51,2.51,0,0,0-1.69-.49c-.73,0-1,.33-1,.7s.11.57.76.63l1.15.11c1.44.14,2.17.91,2.17,2.14C1248.55,648.23,1247.17,649,1245.45,649Z"/><path class="cls-10" d="M1252.21,648.92a2,2,0,0,1-2.11-2.09v-3.61h-.77v-1.39h.77v-2.16h1.82v2.16h1.29v1.39h-1.29v3.5c0,.42.2.66.63.66h.66v1.54Z"/><path class="cls-10" d="M1260.22,648.35a2.55,2.55,0,0,1-1.78.65,2.23,2.23,0,0,1-1.82-.77v.69h-1.76V639h1.82v3.32a2.13,2.13,0,0,1,1.76-.73,2.51,2.51,0,0,1,1.78.66c.73.72.75,2,.75,3.06S1261,647.62,1260.22,648.35Zm-2.31-5.17c-1.09,0-1.23.89-1.23,2.08s.14,2.11,1.23,2.11,1.23-.91,1.23-2.11S1259,643.18,1257.91,643.18Z"/><path class="cls-10" d="M1262.63,648.92v-2.07h2.09v2.07Z"/><path class="cls-10" d="M1427.43,648.92l-2.56-4.54-1.29,1.54v3h-1.95V639h1.95v4.34l3.51-4.34h2.37l-3.31,4,3.55,6Z"/><path class="cls-10" d="M1435.84,648.11a3,3,0,0,1-2.27.89,3,3,0,0,1-2.25-.89,5.27,5.27,0,0,1,0-5.68,3,3,0,0,1,2.25-.89,3,3,0,0,1,2.27.89,5.27,5.27,0,0,1,0,5.68Zm-1.41-4.61a1.15,1.15,0,0,0-.86-.32,1.12,1.12,0,0,0-.84.32,2.5,2.5,0,0,0-.42,1.76,2.54,2.54,0,0,0,.42,1.78,1.12,1.12,0,0,0,.84.32,1.15,1.15,0,0,0,.86-.32,2.49,2.49,0,0,0,.42-1.78A2.45,2.45,0,0,0,1434.43,643.5Z"/><path class="cls-10" d="M1442.37,643.61a1.22,1.22,0,0,0-2.15.91v4.4h-1.82v-7.3h1.78v.7a2.47,2.47,0,0,1,1.84-.78,2.22,2.22,0,0,1,1.72.68Z"/><path class="cls-10" d="M1453.26,648.92v-4.41a1.21,1.21,0,1,0-2.42,0v4.46H1449v-4.41a1.22,1.22,0,1,0-2.43,0v4.41h-1.82v-7.3h1.78v.67a2.56,2.56,0,0,1,1.82-.75,2.25,2.25,0,0,1,1.93.92,2.81,2.81,0,0,1,2.19-.92,2.55,2.55,0,0,1,1.79.64,2.75,2.75,0,0,1,.8,2.07v4.67Z"/><path class="cls-10" d="M1460.78,648.92v-.63a2.23,2.23,0,0,1-1.8.7,2.46,2.46,0,0,1-1.86-.65,2.32,2.32,0,0,1-.6-1.63c0-1.17.8-2.12,2.49-2.12h1.72v-.36c0-.8-.39-1.15-1.35-1.15a1.58,1.58,0,0,0-1.41.6l-1.16-1.13a3.06,3.06,0,0,1,2.63-1c2,0,3.11.87,3.11,2.57v4.81Zm0-3.08h-1.44c-.66,0-1,.31-1,.82s.33.84,1,.84a1.44,1.44,0,0,0,1.15-.35,1.21,1.21,0,0,0,.26-.92Zm-.61-5.38h-1.22l.89-2.38h1.92Z"/><path class="cls-10" d="M1468.76,648.92v-4.41a1.22,1.22,0,1,0-2.43,0v4.41h-1.82v-7.3h1.78v.67a2.52,2.52,0,0,1,1.82-.75,2.37,2.37,0,0,1,1.72.64,2.71,2.71,0,0,1,.75,2.07v4.67Z"/><path class="cls-10" d="M1475.25,650.1a2.56,2.56,0,0,1-.54.93,2.13,2.13,0,0,1-1.57.56h-.72V650h.42a.79.79,0,0,0,.91-.66l.31-.9-2.49-6.78h1.92l1.51,4.51,1.46-4.51h1.92Z"/><path class="cls-10" d="M1479,648.92v-1.39l3.23-4.27h-3v-1.64h5.38V643l-3.28,4.27h3.28v1.64Z"/><path class="cls-10" d="M1489.88,648.92v-.63a2.21,2.21,0,0,1-1.79.7,2.45,2.45,0,0,1-1.86-.65,2.28,2.28,0,0,1-.61-1.63c0-1.17.8-2.12,2.5-2.12h1.72v-.36c0-.8-.39-1.15-1.36-1.15a1.58,1.58,0,0,0-1.4.6l-1.16-1.13a3,3,0,0,1,2.63-1c2,0,3.11.87,3.11,2.57v4.81Zm0-3.08h-1.44c-.66,0-1,.31-1,.82s.34.84,1.05.84a1.43,1.43,0,0,0,1.15-.35,1.17,1.17,0,0,0,.27-.92Zm-.62-5.38H1488l.9-2.38h1.92Z"/><path class="cls-10" d="M1496,649a4,4,0,0,1-3.11-1l1.19-1.19a2.68,2.68,0,0,0,2,.69c.63,0,1.29-.21,1.29-.76,0-.36-.2-.61-.77-.67l-1.15-.11c-1.32-.13-2.13-.7-2.13-2,0-1.51,1.33-2.32,2.82-2.32a3.85,3.85,0,0,1,2.78.85l-1.12,1.14a2.51,2.51,0,0,0-1.69-.49c-.73,0-1,.33-1,.7s.11.57.76.63l1.15.11c1.44.14,2.17.91,2.17,2.14C1499.11,648.23,1497.74,649,1496,649Z"/><path class="cls-10" d="M1500.56,651.23v-4.3h2v2.76Z"/><path class="cls-10" d="M1510.31,651.68a3.45,3.45,0,0,1-2.65-.95l1.13-1.15a1.88,1.88,0,0,0,1.43.56,1.38,1.38,0,0,0,1.47-1.52v-.74a2.1,2.1,0,0,1-1.73.73,2.44,2.44,0,0,1-1.74-.64c-.69-.69-.74-1.63-.74-2.9s0-2.2.74-2.89a2.48,2.48,0,0,1,1.75-.64,2.13,2.13,0,0,1,1.78.77v-.69h1.76v7A3,3,0,0,1,1510.31,651.68Zm.18-8.5c-1.08,0-1.19.92-1.19,1.89s.11,1.9,1.19,1.9,1.2-.94,1.2-1.9S1511.57,643.18,1510.49,643.18Z"/><path class="cls-10" d="M1519.29,648.92v-.63a2.21,2.21,0,0,1-1.79.7,2.46,2.46,0,0,1-1.86-.65,2.32,2.32,0,0,1-.6-1.63c0-1.17.79-2.12,2.49-2.12h1.72v-.36c0-.8-.39-1.15-1.36-1.15a1.58,1.58,0,0,0-1.4.6l-1.16-1.13a3.05,3.05,0,0,1,2.63-1c2,0,3.11.87,3.11,2.57v4.81Zm0-3.08h-1.44c-.66,0-1,.31-1,.82s.33.84,1,.84a1.44,1.44,0,0,0,1.15-.35,1.21,1.21,0,0,0,.26-.92Zm-.61-5.38h-1.22l.89-2.38h1.92Z"/><path class="cls-10" d="M1522.53,648.92v-1.39l3.23-4.27h-3v-1.64h5.38V643l-3.28,4.27h3.28v1.64Z"/><path class="cls-10" d="M1534.4,645.84a1.5,1.5,0,0,0,1.6,1.62,2,2,0,0,0,1.65-.68l1.11,1.07A3.47,3.47,0,0,1,1536,649c-1.72,0-3.37-.78-3.37-3.74,0-2.38,1.29-3.72,3.18-3.72S1539,643,1539,645v.82Zm2.6-2a1.35,1.35,0,0,0-2.43,0,1.94,1.94,0,0,0-.17.78h2.77A1.79,1.79,0,0,0,1537,643.81Zm-.72-3.35h-1.22l.89-2.38h1.92Z"/><path class="cls-10" d="M1543,649a3.94,3.94,0,0,1-3.11-1l1.19-1.19a2.67,2.67,0,0,0,2,.69c.63,0,1.28-.21,1.28-.76,0-.36-.19-.61-.77-.67l-1.14-.11c-1.32-.13-2.13-.7-2.13-2,0-1.51,1.33-2.32,2.81-2.32a3.86,3.86,0,0,1,2.79.85l-1.12,1.14a2.54,2.54,0,0,0-1.7-.49c-.72,0-1,.33-1,.7s.11.57.75.63l1.15.11c1.45.14,2.17.91,2.17,2.14C1546.13,648.23,1544.76,649,1543,649Z"/><path class="cls-10" d="M1553,643.22v5.7h-1.82v-5.7h-.76v-1.39h.76v-.91a2,2,0,0,1,2.13-2.09h1v1.54h-.71c-.43,0-.63.24-.63.66v.8h1.34v1.39Z"/><path class="cls-10" d="M1556.9,645.84a1.5,1.5,0,0,0,1.59,1.62,2,2,0,0,0,1.66-.68l1.1,1.07a3.44,3.44,0,0,1-2.77,1.15c-1.72,0-3.38-.78-3.38-3.74,0-2.38,1.29-3.72,3.18-3.72,2,0,3.18,1.48,3.18,3.48v.82Zm2.6-2a1.35,1.35,0,0,0-2.43,0,1.79,1.79,0,0,0-.17.78h2.77A1.79,1.79,0,0,0,1559.5,643.81Zm-.73-3.35h-1.21l.89-2.38h1.92Z"/><path class="cls-10" d="M1567.52,648.92l-1.79-3-.77.87v2.17h-1.82V639H1565v5.65l2.42-3h2.2l-2.6,2.94,2.8,4.36Z"/></g></svg>