<svg xmlns="http://www.w3.org/2000/svg" viewBox="0 0 1765.44 1081"><defs><style>.cls-1{fill:#152742;stroke:#1c3c68;}.cls-1,.cls-2,.cls-4,.cls-5,.cls-6,.cls-7,.cls-8,.cls-9{stroke-linecap:round;stroke-linejoin:round;}.cls-1,.cls-2,.cls-4,.cls-6,.cls-7,.cls-8,.cls-9{stroke-width:6px;}.cls-2,.cls-4,.cls-5,.cls-6,.cls-7,.cls-8,.cls-9{fill:none;stroke:#34aec5;}.cls-3{fill:#0a4851;}.cls-4{stroke-dasharray:21.9 21.9;}.cls-5{stroke-width:4px;}.cls-6{stroke-dasharray:22.64 22.64;}.cls-7{stroke-dasharray:0 10;}.cls-8{stroke-dasharray:12;}.cls-9{stroke-dasharray:24;}.cls-10{fill:#fff;}</style></defs><g id="Layer_2" data-name="Layer 2"><rect class="cls-1" x="79.52" y="90.78" width="248.15" height="586.67" rx="26.27"/><rect class="cls-1" x="401.57" y="90.78" width="248.15" height="586.67" rx="26.27"/><rect class="cls-1" x="723.63" y="90.78" width="248.15" height="586.67" rx="26.27"/><rect class="cls-1" x="1045.68" y="90.78" width="248.15" height="586.67" rx="26.27"/><rect class="cls-1" x="1367.74" y="90.78" width="248.15" height="586.67" rx="26.27"/><rect class="cls-1" x="79.52" y="755.67" width="248.15" height="270.22" rx="26.27"/><rect class="cls-1" x="401.57" y="755.67" width="248.15" height="270.22" rx="26.27"/><rect class="cls-1" x="723.63" y="755.67" width="248.15" height="270.22" rx="26.27"/><rect class="cls-1" x="1045.68" y="755.67" width="248.15" height="270.22" rx="26.27"/><rect class="cls-1" x="1367.74" y="755.67" width="248.15" height="270.22" rx="26.27"/></g><g id="Layer_1" data-name="Layer 1"><circle class="cls-2" cx="144.22" cy="921.86" r="17.44"/><circle class="cls-2" cx="271.81" cy="921.86" r="17.44"/><polyline class="cls-2" points="119.03 928.7 104.67 921.87 104.67 884.75 133.33 875.2 160.67 859.2 160.67 845.2 226 845.2 226 858.75 250 876.75"/><line class="cls-2" x1="104.67" y1="895.2" x2="120" y2="895.2"/><path class="cls-2" d="M133.33,875.2,149.56,887H265.21a10.45,10.45,0,0,1,2,.19l25.18,4.79a21.82,21.82,0,0,1,17.73,20.72l.35,10.42A5.45,5.45,0,0,1,305,928.7h-9.47"/><line class="cls-2" x1="168.44" y1="928.7" x2="244.44" y2="928.7"/><path class="cls-2" d="M195.33,895.2v33.5"/><line class="cls-2" x1="160.67" y1="859.2" x2="226" y2="859.2"/><line class="cls-2" x1="195.33" y1="859.2" x2="195.33" y2="880.53"/><line class="cls-2" x1="186.67" y1="845.2" x2="186.67" y2="827.2"/><line class="cls-2" x1="201.56" y1="845.2" x2="201.56" y2="827.2"/><line class="cls-2" x1="178.89" y1="827.2" x2="208.56" y2="827.2"/><path class="cls-2" d="M146.52,844a17.22,17.22,0,0,1,1-30.08"/><path class="cls-2" d="M121.18,863.05a48.15,48.15,0,0,1,4.53-71.74"/><path class="cls-2" d="M132.9,854.22a33.66,33.66,0,0,1,3-52.43"/><path class="cls-2" d="M246.65,811.87a17.22,17.22,0,0,1,1,30.08"/><path class="cls-2" d="M268.5,789.31A48.15,48.15,0,0,1,273,861.05"/><path class="cls-2" d="M258.35,799.79a33.66,33.66,0,0,1,3,52.43"/><path class="cls-2" d="M150.44,570.09a17.22,17.22,0,0,1,1-30.08"/><path class="cls-2" d="M125.1,589.19a48.15,48.15,0,0,1,4.53-71.74"/><path class="cls-2" d="M136.82,580.36a33.66,33.66,0,0,1,3-52.43"/><path class="cls-2" d="M250.57,538a17.22,17.22,0,0,1,1,30.08"/><path class="cls-2" d="M272.42,515.45A48.15,48.15,0,0,1,277,587.19"/><path class="cls-2" d="M262.27,525.93a33.66,33.66,0,0,1,3,52.43"/><rect class="cls-2" x="172.28" y="521.21" width="57.63" height="62.22" rx="12.52"/><rect class="cls-2" x="125.21" y="200.24" width="105.9" height="62.22" rx="12.6"/><path class="cls-2" d="M267.73,256.64l-24.32-15.55a5.9,5.9,0,0,1-2.73-5v-9.52a5.93,5.93,0,0,1,2.73-5l24.32-15.55a5.92,5.92,0,0,1,9.1,5v40.63A5.91,5.91,0,0,1,267.73,256.64Z"/><path class="cls-2" d="M1225.09,227.05l-39.48-10.53-57.15-15.25a7.48,7.48,0,0,0-9.41,7.23v51.56a7.48,7.48,0,0,0,9.41,7.22L1185.61,252l39.48-10.53A7.48,7.48,0,0,0,1225.09,227.05Zm-45,8.93c-.06.16-.11.34-.19.51s-.15.32-.23.48-.17.31-.27.46a6.63,6.63,0,0,1-.68.81h0l-10.82,10.81a5.53,5.53,0,0,1-7.82-7.83l1.37-1.37h-28.21a5.54,5.54,0,0,1,0-11.07h28.21l-1.48-1.48a5.53,5.53,0,0,1,7.82-7.82l10.93,10.93a5.3,5.3,0,0,1,.71.87,5.18,5.18,0,0,1,.48.9c.06.15.11.28.16.43a.25.25,0,0,1,0,.07c0,.17.1.35.14.52s.06.36.08.56,0,.45,0,.67,0,.22,0,.33a4.91,4.91,0,0,1-.08.67C1180.23,235.63,1180.18,235.8,1180.13,236Z"/><path class="cls-3" d="M1180.27,235.44a4.91,4.91,0,0,0,.08-.67A4.91,4.91,0,0,1,1180.27,235.44Z"/><path class="cls-3" d="M1180.35,234.77c0-.11,0-.22,0-.33C1180.37,234.55,1180.36,234.66,1180.35,234.77Z"/><path class="cls-3" d="M1180.38,234.33s0,.07,0,.11c0-.22,0-.45,0-.67A5,5,0,0,1,1180.38,234.33Z"/><path class="cls-3" d="M1179.47,231.29a5.3,5.3,0,0,0-.71-.87A5.3,5.3,0,0,1,1179.47,231.29Z"/><path class="cls-2" d="M1225.09,449.07l-39.48-10.53-57.15-15.25a7.49,7.49,0,0,0-9.41,7.23v51.56a7.48,7.48,0,0,0,9.41,7.22l57.15-15.24,39.48-10.54A7.48,7.48,0,0,0,1225.09,449.07Zm-45,8.93a5.27,5.27,0,0,1-.19.51c-.07.16-.15.32-.23.48s-.17.31-.27.46a6.63,6.63,0,0,1-.68.81h0l-10.82,10.82a5.53,5.53,0,0,1-7.82-7.83l1.37-1.38h-28.21a5.53,5.53,0,1,1,0-11.06h28.21l-1.48-1.49a5.53,5.53,0,0,1,7.82-7.82l10.93,10.93a5.37,5.37,0,0,1,.71.88,5.1,5.1,0,0,1,.48.89c.06.15.11.29.16.43a.25.25,0,0,1,0,.07c0,.17.1.35.14.52s.06.36.08.56,0,.45,0,.67,0,.22,0,.33a5.25,5.25,0,0,1-.08.68C1180.23,457.65,1180.18,457.83,1180.13,458Z"/><path class="cls-3" d="M1180.27,457.47a5.25,5.25,0,0,0,.08-.68A5.05,5.05,0,0,1,1180.27,457.47Z"/><path class="cls-3" d="M1180.35,456.79c0-.11,0-.22,0-.33C1180.37,456.57,1180.36,456.68,1180.35,456.79Z"/><path class="cls-3" d="M1180.38,456.35s0,.07,0,.11c0-.22,0-.45,0-.67A5.12,5.12,0,0,1,1180.38,456.35Z"/><path class="cls-3" d="M1179.47,453.32a5.37,5.37,0,0,0-.71-.88A5,5,0,0,1,1179.47,453.32Z"/><line class="cls-2" x1="127.99" y1="352.35" x2="158.52" y2="373.5"/><rect class="cls-2" x="170.65" y="356.11" width="57.63" height="62.22" rx="12.52"/><line class="cls-2" x1="158.52" y1="382.69" x2="117.33" y2="371.13"/><line class="cls-2" x1="127.99" y1="430.66" x2="158.52" y2="409.51"/><line class="cls-2" x1="158.52" y1="400.33" x2="117.33" y2="411.88"/><line class="cls-2" x1="158.52" y1="392.17" x2="110.96" y2="392.17"/><line class="cls-2" x1="274.05" y1="353.01" x2="243.53" y2="374.16"/><line class="cls-2" x1="243.53" y1="383.35" x2="284.71" y2="371.79"/><line class="cls-2" x1="274.05" y1="431.33" x2="243.53" y2="410.17"/><line class="cls-2" x1="243.53" y1="400.99" x2="284.71" y2="412.54"/><line class="cls-2" x1="243.53" y1="392.83" x2="291.08" y2="392.83"/><line class="cls-2" x1="443.67" y1="196.24" x2="443.67" y2="417.33"/><line class="cls-2" x1="603.67" y1="196.24" x2="603.67" y2="417.33"/><line class="cls-2" x1="523.67" y1="196.24" x2="523.67" y2="208.24"/><line class="cls-4" x1="523.67" y1="230.14" x2="523.67" y2="394.38"/><line class="cls-2" x1="523.67" y1="405.33" x2="523.67" y2="417.33"/><path class="cls-2" d="M552.2,570.09a47.88,47.88,0,1,0-57.06,0"/><rect class="cls-2" x="489" y="570.09" width="70.22" height="13.34" rx="4.62"/><rect class="cls-2" x="477.11" y="583.97" width="93.11" height="13.34" rx="4.62"/><path class="cls-5" d="M498.76,495.76l1.49,0a12,12,0,0,0,12.14,11.87v1.45a12,12,0,0,0-11.86,12.14H499a12,12,0,0,0-12.13-11.9v-1.46A12,12,0,0,0,498.76,495.76Z"/><path class="cls-5" d="M532.86,541.33H534a9.46,9.46,0,0,0,9.56,9.35v1.14a9.46,9.46,0,0,0-9.35,9.56h-1.17a9.46,9.46,0,0,0-9.56-9.37v-1.15A9.46,9.46,0,0,0,532.86,541.33Z"/><line class="cls-5" x1="499.65" y1="545" x2="500.04" y2="545"/><line class="cls-5" x1="519.26" y1="528.41" x2="519.21" y2="528.41"/><line class="cls-5" x1="538.78" y1="511.37" x2="538.72" y2="511.37"/><line class="cls-5" x1="535.37" y1="518.7" x2="535.31" y2="518.7"/><line class="cls-5" x1="538.33" y1="503.81" x2="538.28" y2="503.81"/><rect class="cls-5" x="552.26" y="363.58" width="29.04" height="48.96" rx="9.92"/><rect class="cls-5" x="552.26" y="262.46" width="29.04" height="48.96" rx="9.92"/><rect class="cls-5" x="469.15" y="218.19" width="29.04" height="48.96" rx="9.92"/><polyline class="cls-5" points="483.68 290.59 483.68 311.42 477.65 305.39"/><polyline class="cls-5" points="483.68 311.42 483.68 311.42 489.68 305.42"/><line class="cls-5" x1="483.68" y1="276.81" x2="483.68" y2="311.42"/><polyline class="cls-5" points="566.76 239.31 566.76 218.48 572.79 224.51"/><polyline class="cls-5" points="566.76 218.48 566.76 218.48 560.76 224.48"/><line class="cls-5" x1="566.76" y1="253.08" x2="566.76" y2="218.48"/><polyline class="cls-5" points="566.75 349.81 566.75 328.98 572.78 335.01"/><polyline class="cls-5" points="566.75 328.98 566.75 328.98 560.75 334.98"/><line class="cls-5" x1="566.75" y1="354.7" x2="566.75" y2="328.98"/><line class="cls-2" x1="768" y1="191.87" x2="768" y2="600.78"/><line class="cls-2" x1="928" y1="191.87" x2="928" y2="600.78"/><line class="cls-2" x1="848" y1="191.87" x2="848" y2="203.87"/><line class="cls-6" x1="848" y1="226.51" x2="848" y2="577.46"/><line class="cls-2" x1="848" y1="588.78" x2="848" y2="600.78"/><rect class="cls-5" x="876.59" y="482.57" width="29.04" height="48.96" rx="9.92"/><rect class="cls-5" x="876.59" y="258.09" width="29.04" height="48.96" rx="9.92"/><rect class="cls-5" x="793.48" y="502.44" width="29.04" height="48.96" rx="9.92"/><polyline class="cls-5" points="808.01 574.84 808.01 595.67 801.99 589.64"/><polyline class="cls-5" points="808.01 595.67 808.01 595.67 814.01 589.66"/><line class="cls-5" x1="808.01" y1="561.06" x2="808.01" y2="595.67"/><polyline class="cls-5" points="891.1 234.94 891.1 214.11 897.13 220.14"/><polyline class="cls-5" points="891.1 214.11 891.1 214.11 885.1 220.11"/><line class="cls-5" x1="891.1" y1="248.72" x2="891.1" y2="214.11"/><polyline class="cls-5" points="888.06 421.08 888.06 400.25 894.09 406.28"/><polyline class="cls-5" points="888.06 400.25 888.06 400.25 882.06 406.25"/><line class="cls-5" x1="888.06" y1="458.11" x2="888.06" y2="400.25"/><path class="cls-7" d="M888.07,474.56V474c0-27.46-5-25-14.05-34L827.6,393.62c-9-9-17.82-20.84-21.15-41V256.46"/><polyline class="cls-2" points="795.56 268.33 806.78 257.11 818.06 268.39"/><path class="cls-2" d="M1225.09,338.06l-39.48-10.53-57.15-15.25a7.48,7.48,0,0,0-9.41,7.23v51.56a7.48,7.48,0,0,0,9.41,7.22L1185.61,363l39.48-10.53A7.48,7.48,0,0,0,1225.09,338.06Zm-45,8.93a5.27,5.27,0,0,1-.19.51c-.07.16-.15.32-.23.48s-.17.31-.27.46a6.63,6.63,0,0,1-.68.81h0l-10.82,10.82a5.53,5.53,0,0,1-7.82-7.83l1.37-1.38h-28.21a5.53,5.53,0,1,1,0-11.06h28.21l-1.48-1.49a5.53,5.53,0,0,1,7.82-7.82l10.93,10.93a5.37,5.37,0,0,1,.71.88,5.1,5.1,0,0,1,.48.89c.06.15.11.29.16.43a.25.25,0,0,1,0,.07c0,.17.1.35.14.52s.06.36.08.56,0,.45,0,.67,0,.22,0,.33a4.91,4.91,0,0,1-.08.67C1180.23,346.64,1180.18,346.81,1180.13,347Z"/><path class="cls-3" d="M1180.27,346.45a4.91,4.91,0,0,0,.08-.67A4.72,4.72,0,0,1,1180.27,346.45Z"/><path class="cls-3" d="M1180.35,345.78c0-.11,0-.22,0-.33C1180.37,345.56,1180.36,345.67,1180.35,345.78Z"/><path class="cls-3" d="M1180.38,345.34s0,.07,0,.11c0-.22,0-.45,0-.67A5.12,5.12,0,0,1,1180.38,345.34Z"/><path class="cls-3" d="M1179.47,342.31a5.37,5.37,0,0,0-.71-.88A5,5,0,0,1,1179.47,342.31Z"/><line class="cls-2" x1="1058.59" y1="345.29" x2="1119.05" y2="345.29"/><path class="cls-2" d="M1077,345.78V567.94a16.7,16.7,0,0,0,16.7,16.7H1250.3a16.69,16.69,0,0,0,16.7-16.7V345.78"/><path class="cls-2" d="M1230.64,344.78h43.84"/><path class="cls-2" d="M1116.18,235.11h-4.34a8,8,0,0,0-8,8V448.34a8,8,0,0,0,8,8h4.34"/><path class="cls-2" d="M1234.52,234.94h4.34a8,8,0,0,1,8,7.95V448.17a8,8,0,0,1-8,8h-4.34"/><line class="cls-2" x1="1077.04" y1="328.76" x2="1077.04" y2="338.6"/><line class="cls-2" x1="1072.12" y1="333.68" x2="1081.96" y2="333.68"/><line class="cls-2" x1="1085.23" y1="355.98" x2="1095.07" y2="355.98"/><circle class="cls-2" cx="1491.57" cy="326.28" r="67.15"/><path class="cls-2" d="M1427.44,306.31,1474,302a193.18,193.18,0,0,1,35.18,0l46.54,4.27"/><path class="cls-2" d="M1474.64,391.27a56.71,56.71,0,0,0,.28-5.71,55.76,55.76,0,0,0-50.39-55.5"/><path class="cls-2" d="M1508.5,391.27a56.7,56.7,0,0,1-.29-5.71,55.76,55.76,0,0,1,50.39-55.5"/><circle class="cls-2" cx="846.69" cy="909.4" r="39.6"/><path class="cls-2" d="M808.87,897.62l27.44-2.52a114.14,114.14,0,0,1,20.75,0l27.45,2.52"/><path class="cls-2" d="M836.7,947.73c.11-1.11.17-2.23.17-3.37a32.88,32.88,0,0,0-29.72-32.73"/><path class="cls-2" d="M856.68,947.73a31.29,31.29,0,0,1-.17-3.37,32.88,32.88,0,0,1,29.71-32.73"/><rect class="cls-2" x="1527.08" y="436.1" width="39.6" height="70.14" rx="12"/><rect class="cls-2" x="1424.42" y="452.4" width="82.57" height="51.06" rx="12"/><polygon class="cls-2" points="1537.96 461.44 1537.96 484.77 1558.11 473.11 1537.96 461.44"/><rect class="cls-2" x="1450.43" y="465.07" width="10.67" height="25.72" rx="3.64"/><rect class="cls-2" x="1470.31" y="465.07" width="10.67" height="25.72" rx="3.64"/><path class="cls-2" d="M485.36,790.33h83.83A19.81,19.81,0,0,1,589,810.14v94a19.8,19.8,0,0,1-9.09,16.65l-41.33,26.61a19.79,19.79,0,0,1-21.18.16l-42.5-26.43a19.79,19.79,0,0,1-9.34-16.81V810.14A19.8,19.8,0,0,1,485.36,790.33Z"/><path class="cls-2" d="M502,864.46l3.26-3.27a3.22,3.22,0,0,1,4.56,0l10.44,10.45a3.24,3.24,0,0,0,4.56,0l26.45-26.45a3.22,3.22,0,0,1,4.56,0l3.72,3.73a3.22,3.22,0,0,1,0,4.56l-34.38,34.38a3.22,3.22,0,0,1-4.57,0L502,869A3.22,3.22,0,0,1,502,864.46Z"/><path class="cls-2" d="M485,802.56h84.52c5.22.85,9.46,5.09,9.46,10.32v89.77a9.48,9.48,0,0,1-4.34,8L533,937.46a9.46,9.46,0,0,1-10.12.08L480,910.91a9.49,9.49,0,0,1-4.46-8v-90C475.56,807.65,479.79,803.41,485,802.56Z"/><path class="cls-2" d="M789,905H772.11a12,12,0,0,1-12-12V809.44a12,12,0,0,1,12-12H922.33a12,12,0,0,1,12,12V893a12,12,0,0,1-12,12H906.78"/><line class="cls-2" x1="794.78" y1="870.63" x2="821.74" y2="797.74"/><line class="cls-2" x1="875.67" y1="797.74" x2="902.63" y2="870.63"/><line class="cls-8" x1="847.52" y1="797.74" x2="847.52" y2="857"/><circle class="cls-2" cx="1169.67" cy="832.44" r="40"/><path class="cls-2" d="M1194,864.18h2.77a39.11,39.11,0,0,1,39.11,39.11v17H1103.44v-17a39.12,39.12,0,0,1,39.12-39.11h2.77"/><ellipse class="cls-2" cx="1539.41" cy="806.33" rx="36.74" ry="13.33"/><path class="cls-2" d="M1502.52,893.87c0,7.36,16.45,13.33,36.74,13.33s36.74-6,36.74-13.33"/><path class="cls-2" d="M1502.52,872.29c0,7.36,16.45,13.33,36.74,13.33s36.74-6,36.74-13.33"/><path class="cls-2" d="M1502.52,850.71c0,7.36,16.45,13.33,36.74,13.33s36.74-6,36.74-13.33"/><path class="cls-2" d="M1502.52,829.13c0,7.36,16.45,13.33,36.74,13.33s36.74-6,36.74-13.33"/><line class="cls-2" x1="1502.67" y1="806.33" x2="1502.67" y2="891.96"/><line class="cls-2" x1="1576.15" y1="808.04" x2="1576.15" y2="893.67"/><ellipse class="cls-2" cx="1415.91" cy="815.59" rx="8.59" ry="8.37"/><ellipse class="cls-2" cx="1415.91" cy="887.59" rx="8.59" ry="8.37"/><ellipse class="cls-2" cx="1455.81" cy="816.78" rx="8.59" ry="8.37"/><line class="cls-2" x1="1415.91" y1="823.97" x2="1415.91" y2="879.22"/><path class="cls-2" d="M1455.81,825.15v2.74a14.89,14.89,0,0,1-14.88,14.89h-10.37a14.88,14.88,0,0,0-14.89,14.89v1.55"/><polygon class="cls-1" points="361.96 425.67 361.96 410.69 341.35 410.69 341.35 383.87 361.96 383.87 361.96 368.89 390.42 397.35 361.96 425.67"/><polygon class="cls-1" points="684.07 425.67 684.07 410.69 663.46 410.69 663.46 383.87 684.07 383.87 684.07 368.89 712.53 397.35 684.07 425.67"/><polygon class="cls-1" points="1006.18 425.67 1006.18 410.69 985.58 410.69 985.58 383.87 1006.18 383.87 1006.18 368.89 1034.64 397.35 1006.18 425.67"/><polygon class="cls-1" points="1328.3 425.67 1328.3 410.69 1307.69 410.69 1307.69 383.87 1328.3 383.87 1328.3 368.89 1356.75 397.35 1328.3 425.67"/><rect class="cls-9" x="57" y="61" width="1587.56" height="643.11" rx="24"/></g><g id="angol_görb"><path class="cls-10" d="M134.2,147.31c-3.91,0-6.88-.84-9.41-3.41l3.26-3.25a8.4,8.4,0,0,0,6.22,2.17c3,0,4.56-1.12,4.56-3.19a2.85,2.85,0,0,0-.8-2.17,3.8,3.8,0,0,0-2.28-.9l-3.11-.44a8.7,8.7,0,0,1-5-2.13,6.82,6.82,0,0,1-1.85-5.07c0-4.6,3.4-7.82,9-7.82,3.54,0,6.11.87,8.32,3l-3.18,3.15a7.18,7.18,0,0,0-5.29-1.78c-2.68,0-4,1.49-4,3.26a2.51,2.51,0,0,0,.76,1.85,4.49,4.49,0,0,0,2.39,1l3,.43a8.55,8.55,0,0,1,4.92,2,7.22,7.22,0,0,1,2,5.47C143.75,144.48,139.59,147.31,134.2,147.31Z"/><path class="cls-10" d="M148.49,147.09V121.32h17v4.49H153.52v6h10.17v4.49H153.52v6.26h11.95v4.49Z"/><path class="cls-10" d="M185.62,147.09l-10.2-15.82v15.82h-5V121.32h4.48l10.21,15.78V121.32h5v25.77Z"/><path class="cls-10" d="M203.21,147.31c-3.91,0-6.88-.84-9.41-3.41l3.26-3.25a8.43,8.43,0,0,0,6.22,2.17c3,0,4.56-1.12,4.56-3.19a2.89,2.89,0,0,0-.79-2.17,3.86,3.86,0,0,0-2.28-.9l-3.11-.44a8.73,8.73,0,0,1-5-2.13,6.82,6.82,0,0,1-1.85-5.07c0-4.6,3.41-7.82,9-7.82,3.55,0,6.12.87,8.33,3l-3.19,3.15a7.16,7.16,0,0,0-5.28-1.78c-2.68,0-4,1.49-4,3.26a2.51,2.51,0,0,0,.76,1.85,4.49,4.49,0,0,0,2.39,1l3,.43a8.59,8.59,0,0,1,4.93,2,7.26,7.26,0,0,1,2,5.47C212.77,144.48,208.6,147.31,203.21,147.31Z"/><path class="cls-10" d="M217.5,147.09V121.32h5v25.77Z"/><path class="cls-10" d="M243.78,147.09l-10.21-15.82v15.82h-5V121.32H233l10.21,15.78V121.32h5v25.77Z"/><path class="cls-10" d="M270.16,144.38a9.68,9.68,0,0,1-7.27,2.93,9.42,9.42,0,0,1-6.95-2.83,7.45,7.45,0,0,1-2.1-3.87,35.16,35.16,0,0,1-.43-6.4,35.21,35.21,0,0,1,.43-6.41,7.3,7.3,0,0,1,2.1-3.87,9.42,9.42,0,0,1,6.95-2.83c5.86,0,9,3.77,9.7,8.25h-5.07c-.61-2.49-2.13-3.76-4.63-3.76a4.08,4.08,0,0,0-3.22,1.38c-.94,1.19-1.23,2.13-1.23,7.24s.21,6.08,1.23,7.27a4,4,0,0,0,3.22,1.34,4.62,4.62,0,0,0,3.58-1.45,5.07,5.07,0,0,0,1.16-3.44v-1h-4.74v-4.2h9.73v3.76C272.62,140.29,271.94,142.49,270.16,144.38Z"/><path class="cls-10" d="M427.77,137.39h-5v9.7h-5V121.32h10c5.32,0,8.51,3.66,8.51,8S433.09,137.39,427.77,137.39Zm-.25-11.58h-4.71v7.06h4.71a3.54,3.54,0,1,0,0-7.06Z"/><path class="cls-10" d="M440.51,147.09V121.32h17v4.49H445.54v6h10.17v4.49H445.54v6.26h11.94v4.49Z"/><path class="cls-10" d="M476.09,147.09l-5-10.28h-3.61v10.28h-5V121.32h10.1c5.25,0,8.36,3.58,8.36,7.89a6.94,6.94,0,0,1-4.7,6.77l5.75,11.11Zm-3.91-21.28h-4.74v6.8h4.74a3.41,3.41,0,1,0,0-6.8Z"/><path class="cls-10" d="M494.69,147.31a9.42,9.42,0,0,1-6.95-2.83,7.38,7.38,0,0,1-2.1-3.87,35,35,0,0,1-.44-6.4,35,35,0,0,1,.44-6.41,7.23,7.23,0,0,1,2.1-3.87,9.42,9.42,0,0,1,6.95-2.83c4.95,0,8.61,2.9,9.48,8.15h-5.1c-.55-2.21-1.92-3.66-4.35-3.66a4,4,0,0,0-3.22,1.34c-1.05,1.12-1.27,2.28-1.27,7.28s.22,6.15,1.27,7.27a4,4,0,0,0,3.22,1.34c2.43,0,3.8-1.45,4.35-3.66h5.1C503.3,144.41,499.61,147.31,494.69,147.31Z"/><path class="cls-10" d="M508.51,147.09V121.32h17v4.49H513.54v6h10.17v4.49H513.54v6.26h11.94v4.49Z"/><path class="cls-10" d="M540.39,137.39h-4.95v9.7h-5V121.32h10c5.32,0,8.51,3.66,8.51,8S545.71,137.39,540.39,137.39Zm-.25-11.58h-4.7v7.06h4.7a3.54,3.54,0,1,0,0-7.06Z"/><path class="cls-10" d="M563,125.81v21.28h-5V125.81h-6.73v-4.49h18.5v4.49Z"/><path class="cls-10" d="M573.79,147.09V121.32h5v25.77Z"/><path class="cls-10" d="M600.43,144.48a10,10,0,0,1-13.93,0c-2.61-2.6-2.54-5.82-2.54-10.27s-.07-7.68,2.54-10.28a10,10,0,0,1,13.93,0c2.61,2.6,2.57,5.82,2.57,10.28S603,141.88,600.43,144.48ZM596.7,127a4.14,4.14,0,0,0-3.22-1.38,4.23,4.23,0,0,0-3.25,1.38c-1,1.08-1.23,2.28-1.23,7.24s.25,6.15,1.23,7.23a4.23,4.23,0,0,0,3.25,1.38,4.14,4.14,0,0,0,3.22-1.38c1-1.08,1.27-2.28,1.27-7.23S597.68,128.05,596.7,127Z"/><path class="cls-10" d="M623.38,147.09l-10.21-15.82v15.82h-5V121.32h4.49l10.2,15.78V121.32h5v25.77Z"/><path class="cls-10" d="M770.47,137.39h-5v9.7h-5V121.32h10c5.32,0,8.51,3.66,8.51,8S775.79,137.39,770.47,137.39Zm-.25-11.58h-4.71v7.06h4.71a3.54,3.54,0,1,0,0-7.06Z"/><path class="cls-10" d="M783.21,147.09V121.32h5V142.6h11.69v4.49Z"/><path class="cls-10" d="M818.68,147.09l-1.52-4.56H808l-1.56,4.56H801.2l9.37-25.77h3.95l9.41,25.77Zm-6-18.17-3.26,9.37h6.41Z"/><path class="cls-10" d="M842.35,147.09l-10.21-15.82v15.82h-5V121.32h4.49l10.2,15.78V121.32h5v25.77Z"/><path class="cls-10" d="M868.08,147.09l-10.21-15.82v15.82h-5V121.32h4.49l10.2,15.78V121.32h5v25.77Z"/><path class="cls-10" d="M878.57,147.09V121.32h5v25.77Z"/><path class="cls-10" d="M904.84,147.09l-10.2-15.82v15.82h-5V121.32h4.49l10.2,15.78V121.32h5v25.77Z"/><path class="cls-10" d="M931.23,144.38a9.69,9.69,0,0,1-7.28,2.93,9.44,9.44,0,0,1-7-2.83,7.45,7.45,0,0,1-2.1-3.87,35.16,35.16,0,0,1-.43-6.4,35.21,35.21,0,0,1,.43-6.41,7.3,7.3,0,0,1,2.1-3.87,9.44,9.44,0,0,1,7-2.83c5.87,0,9,3.77,9.7,8.25h-5.06c-.62-2.49-2.14-3.76-4.64-3.76a4.09,4.09,0,0,0-3.22,1.38c-.94,1.19-1.23,2.13-1.23,7.24s.22,6.08,1.23,7.27a4,4,0,0,0,3.22,1.34,4.64,4.64,0,0,0,3.59-1.45,5.07,5.07,0,0,0,1.15-3.44v-1H924v-4.2h9.74v3.76C933.69,140.29,933,142.49,931.23,144.38Z"/><path class="cls-10" d="M1102.28,147.31a9.42,9.42,0,0,1-7-2.83,7.45,7.45,0,0,1-2.1-3.87,35.16,35.16,0,0,1-.43-6.4,35.21,35.21,0,0,1,.43-6.41,7.3,7.3,0,0,1,2.1-3.87,9.42,9.42,0,0,1,7-2.83c5,0,8.61,2.9,9.48,8.15h-5.1c-.54-2.21-1.92-3.66-4.34-3.66a4,4,0,0,0-3.22,1.34c-1,1.12-1.27,2.28-1.27,7.28s.22,6.15,1.27,7.27a4,4,0,0,0,3.22,1.34c2.42,0,3.8-1.45,4.34-3.66h5.1C1110.89,144.41,1107.2,147.31,1102.28,147.31Z"/><path class="cls-10" d="M1130.54,144.48a9.29,9.29,0,0,1-6.94,2.83,9.4,9.4,0,0,1-7-2.83c-2.61-2.6-2.53-5.82-2.53-10.27s-.08-7.68,2.53-10.28a9.4,9.4,0,0,1,7-2.83,9.29,9.29,0,0,1,6.94,2.83c2.61,2.6,2.58,5.82,2.58,10.28S1133.15,141.88,1130.54,144.48ZM1126.82,127a4.18,4.18,0,0,0-3.22-1.38,4.23,4.23,0,0,0-3.26,1.38c-1,1.08-1.23,2.28-1.23,7.24s.25,6.15,1.23,7.23a4.23,4.23,0,0,0,3.26,1.38,4.18,4.18,0,0,0,3.22-1.38c1-1.08,1.26-2.28,1.26-7.23S1127.79,128.05,1126.82,127Z"/><path class="cls-10" d="M1153.49,147.09l-10.21-15.82v15.82h-5V121.32h4.49L1153,137.1V121.32h5v25.77Z"/><path class="cls-10" d="M1173.83,125.81v21.28h-5V125.81h-6.74v-4.49h18.5v4.49Z"/><path class="cls-10" d="M1198.33,147.09l-5-10.28h-3.62v10.28h-5V121.32h10.1c5.24,0,8.36,3.58,8.36,7.89a7,7,0,0,1-4.71,6.77l5.76,11.11Zm-3.91-21.28h-4.74v6.8h4.74a3.41,3.41,0,1,0,0-6.8Z"/><path class="cls-10" d="M1223.91,144.48a10,10,0,0,1-13.93,0c-2.61-2.6-2.53-5.82-2.53-10.27s-.08-7.68,2.53-10.28a10,10,0,0,1,13.93,0c2.61,2.6,2.57,5.82,2.57,10.28S1226.52,141.88,1223.91,144.48ZM1220.19,127a4.18,4.18,0,0,0-3.23-1.38,4.23,4.23,0,0,0-3.25,1.38c-1,1.08-1.23,2.28-1.23,7.24s.25,6.15,1.23,7.23a4.23,4.23,0,0,0,3.25,1.38,4.18,4.18,0,0,0,3.23-1.38c1-1.08,1.26-2.28,1.26-7.23S1221.16,128.05,1220.19,127Z"/><path class="cls-10" d="M1231.62,147.09V121.32h5V142.6h11.69v4.49Z"/><path class="cls-10" d="M1412.07,147.09l-1.52-4.56h-9.16l-1.56,4.56h-5.24l9.37-25.77h4l9.41,25.77Zm-6-18.17-3.26,9.37h6.41Z"/><path class="cls-10" d="M1428.75,147.31a9.42,9.42,0,0,1-7-2.83,7.45,7.45,0,0,1-2.1-3.87,35.16,35.16,0,0,1-.43-6.4,35.21,35.21,0,0,1,.43-6.41,7.3,7.3,0,0,1,2.1-3.87,9.42,9.42,0,0,1,7-2.83c5,0,8.62,2.9,9.48,8.15h-5.1c-.54-2.21-1.92-3.66-4.34-3.66a4,4,0,0,0-3.22,1.34c-1,1.12-1.27,2.28-1.27,7.28s.22,6.15,1.27,7.27a4,4,0,0,0,3.22,1.34c2.42,0,3.8-1.45,4.34-3.66h5.1C1437.37,144.41,1433.67,147.31,1428.75,147.31Z"/><path class="cls-10" d="M1451.7,125.81v21.28h-5V125.81h-6.73v-4.49h18.5v4.49Z"/><path class="cls-10" d="M1471.6,147.31c-5.28,0-9.48-3.59-9.48-9.05V121.32h5v16.76c0,3,1.73,4.74,4.45,4.74s4.49-1.77,4.49-4.74V121.32h5v16.94C1481.08,143.72,1476.88,147.31,1471.6,147.31Z"/><path class="cls-10" d="M1501.35,147.09l-1.52-4.56h-9.16l-1.56,4.56h-5.24l9.37-25.77h4l9.41,25.77Zm-6-18.17-3.26,9.37h6.41Z"/><path class="cls-10" d="M1517.45,125.81v21.28h-5V125.81h-6.73v-4.49h18.49v4.49Z"/><path class="cls-10" d="M1543.15,144.48a10,10,0,0,1-13.94,0c-2.6-2.6-2.53-5.82-2.53-10.27s-.07-7.68,2.53-10.28a10,10,0,0,1,13.94,0c2.6,2.6,2.57,5.82,2.57,10.28S1545.75,141.88,1543.15,144.48ZM1539.42,127a4.16,4.16,0,0,0-3.22-1.38,4.23,4.23,0,0,0-3.26,1.38c-1,1.08-1.23,2.28-1.23,7.24s.25,6.15,1.23,7.23a4.23,4.23,0,0,0,3.26,1.38,4.16,4.16,0,0,0,3.22-1.38c1-1.08,1.27-2.28,1.27-7.23S1540.4,128.05,1539.42,127Z"/><path class="cls-10" d="M1564.54,147.09l-5-10.28h-3.62v10.28h-5V121.32H1561c5.25,0,8.36,3.58,8.36,7.89a7,7,0,0,1-4.7,6.77l5.75,11.11Zm-3.91-21.28h-4.75v6.8h4.75a3.41,3.41,0,1,0,0-6.8Z"/><path class="cls-10" d="M1581.62,147.31c-3.91,0-6.88-.84-9.41-3.41l3.25-3.25a8.44,8.44,0,0,0,6.23,2.17c3,0,4.56-1.12,4.56-3.19a2.85,2.85,0,0,0-.8-2.17,3.8,3.8,0,0,0-2.28-.9l-3.11-.44a8.73,8.73,0,0,1-5-2.13,6.82,6.82,0,0,1-1.84-5.07c0-4.6,3.4-7.82,9-7.82,3.55,0,6.12.87,8.33,3l-3.19,3.15a7.14,7.14,0,0,0-5.28-1.78c-2.68,0-4,1.49-4,3.26a2.51,2.51,0,0,0,.76,1.85,4.45,4.45,0,0,0,2.39,1l3,.43a8.59,8.59,0,0,1,4.92,2,7.26,7.26,0,0,1,2,5.47C1591.17,144.48,1587,147.31,1581.62,147.31Z"/><path class="cls-10" d="M124.34,996.64c-3.91,0-6.88-.83-9.41-3.4l3.25-3.26a8.44,8.44,0,0,0,6.23,2.17c3,0,4.56-1.12,4.56-3.18a2.86,2.86,0,0,0-.8-2.18,3.86,3.86,0,0,0-2.28-.9l-3.11-.43a8.74,8.74,0,0,1-5-2.14,6.82,6.82,0,0,1-1.85-5.07c0-4.59,3.4-7.81,9-7.81,3.54,0,6.11.86,8.32,3l-3.18,3.15a7.17,7.17,0,0,0-5.29-1.77c-2.68,0-4,1.48-4,3.25a2.51,2.51,0,0,0,.76,1.85,4.41,4.41,0,0,0,2.39,1l3,.44a8.42,8.42,0,0,1,4.92,2,7.18,7.18,0,0,1,2,5.46C133.89,993.82,129.73,996.64,124.34,996.64Z"/><path class="cls-10" d="M138.2,974.34v-3.83H143v3.83Zm.07,22.08V977.57H143v18.85Z"/><path class="cls-10" d="M170.15,996.42V985c0-2.57-1.62-3.44-3.11-3.44a3,3,0,0,0-3.15,3.33v11.51h-4.7V985c0-2.57-1.63-3.44-3.11-3.44s-3.15.87-3.15,3.44v11.4h-4.71V977.57h4.6v1.73a6.62,6.62,0,0,1,4.7-1.95,5.86,5.86,0,0,1,5,2.39,7.16,7.16,0,0,1,5.64-2.39A6.58,6.58,0,0,1,172.8,979a7.12,7.12,0,0,1,2.06,5.36v12Z"/><path class="cls-10" d="M190.78,996.42v-1.73a6.46,6.46,0,0,1-4.7,1.95,6.17,6.17,0,0,1-4.46-1.66,7,7,0,0,1-1.91-5.36v-12h4.7V989c0,2.57,1.63,3.44,3.11,3.44s3.15-.87,3.15-3.44v-11.4h4.71v18.85Z"/><path class="cls-10" d="M206,996.42a5.12,5.12,0,0,1-5.5-5.39V970.65h4.7v20.09c0,1.12.47,1.7,1.67,1.7h1.81v4Z"/><path class="cls-10" d="M222.08,996.42v-1.63a5.71,5.71,0,0,1-4.63,1.81,6.43,6.43,0,0,1-4.81-1.66,6,6,0,0,1-1.56-4.24c0-3,2.07-5.46,6.45-5.46H222v-.94c0-2.06-1-3-3.51-3a4,4,0,0,0-3.62,1.56l-3-2.93c1.85-2,3.66-2.61,6.81-2.61,5.28,0,8,2.24,8,6.66v12.41Zm-.1-8h-3.73c-1.7,0-2.64.8-2.64,2.14s.87,2.17,2.71,2.17a3.72,3.72,0,0,0,3-.91,3.09,3.09,0,0,0,.69-2.39Z"/><path class="cls-10" d="M237.65,996.42a5.11,5.11,0,0,1-5.47-5.39v-9.34h-2v-3.58h2v-5.57h4.71v5.57h3.33v3.58h-3.33v9c0,1.09.5,1.7,1.62,1.7h1.71v4Z"/><path class="cls-10" d="M244.41,974.34v-3.83h4.82v3.83Zm.08,22.08V977.57h4.7v18.85Z"/><path class="cls-10" d="M267.47,994.32a7.83,7.83,0,0,1-5.87,2.32,7.71,7.71,0,0,1-5.82-2.32c-1.7-1.77-2.14-3.9-2.14-7.34s.44-5.54,2.14-7.31a7.67,7.67,0,0,1,5.82-2.32,7.8,7.8,0,0,1,5.87,2.32c1.7,1.77,2.13,3.9,2.13,7.31S269.17,992.55,267.47,994.32Zm-3.66-11.9a3,3,0,0,0-2.21-.84,2.86,2.86,0,0,0-2.17.84c-1,1-1.08,2.6-1.08,4.56s.11,3.62,1.08,4.59a2.86,2.86,0,0,0,2.17.84,3,3,0,0,0,2.21-.84c1-1,1.09-2.64,1.09-4.59S264.79,983.39,263.81,982.42Z"/><path class="cls-10" d="M285.05,996.42V985c0-2.57-1.62-3.44-3.11-3.44s-3.15.87-3.15,3.44v11.4h-4.7V977.57h4.59v1.73a6.48,6.48,0,0,1,4.71-1.95,6.12,6.12,0,0,1,4.45,1.66,7,7,0,0,1,1.92,5.36v12Z"/><path class="cls-10" d="M485.44,996.64c-3.91,0-6.88-.83-9.41-3.4l3.26-3.26a8.42,8.42,0,0,0,6.22,2.17c3,0,4.56-1.12,4.56-3.18a2.89,2.89,0,0,0-.79-2.18,3.92,3.92,0,0,0-2.28-.9l-3.12-.43a8.8,8.8,0,0,1-5-2.14,6.82,6.82,0,0,1-1.85-5.07c0-4.59,3.41-7.81,9-7.81,3.55,0,6.12.86,8.32,3l-3.18,3.15a7.15,7.15,0,0,0-5.28-1.77c-2.68,0-4,1.48-4,3.25a2.51,2.51,0,0,0,.76,1.85,4.41,4.41,0,0,0,2.39,1l3,.44a8.46,8.46,0,0,1,4.93,2,7.22,7.22,0,0,1,2,5.46C495,993.82,490.83,996.64,485.44,996.64Z"/><path class="cls-10" d="M509,996.42v-1.63a5.73,5.73,0,0,1-4.64,1.81,6.43,6.43,0,0,1-4.81-1.66A6.07,6.07,0,0,1,498,990.7c0-3,2.07-5.46,6.45-5.46h4.45v-.94c0-2.06-1-3-3.51-3a4,4,0,0,0-3.62,1.56l-3-2.93c1.85-2,3.66-2.61,6.81-2.61,5.28,0,8,2.24,8,6.66v12.41Zm-.11-8H505.2c-1.7,0-2.64.8-2.64,2.14s.87,2.17,2.71,2.17a3.71,3.71,0,0,0,3-.91,3.09,3.09,0,0,0,.69-2.39Z"/><path class="cls-10" d="M524,981.69v14.73h-4.7V981.69h-2v-3.58h2v-2.35a5.15,5.15,0,0,1,5.5-5.4h2.68v4h-1.85c-1.12,0-1.63.62-1.63,1.71v2.06h3.48v3.58Z"/><path class="cls-10" d="M534.19,988.46a3.89,3.89,0,0,0,4.12,4.2,5.19,5.19,0,0,0,4.27-1.78l2.86,2.79a9,9,0,0,1-7.16,3c-4.45,0-8.73-2-8.73-9.66,0-6.16,3.33-9.63,8.22-9.63,5.25,0,8.22,3.84,8.22,9v2.1Zm6.73-5.25a3.52,3.52,0,0,0-6.3,0,5.11,5.11,0,0,0-.43,2h7.16A5.11,5.11,0,0,0,540.92,983.21Z"/><path class="cls-10" d="M556.23,996.42a5.11,5.11,0,0,1-5.47-5.39v-9.34h-2v-3.58h2v-5.57h4.71v5.57h3.33v3.58h-3.33v9c0,1.09.5,1.7,1.63,1.7h1.7v4Z"/><path class="cls-10" d="M570.09,999.46a6.75,6.75,0,0,1-1.41,2.43,5.49,5.49,0,0,1-4.06,1.45h-1.84V999.1h1.08a2,2,0,0,0,2.35-1.7l.8-2.32-6.44-17.51h5l3.91,11.65,3.76-11.65h5Z"/><path class="cls-10" d="M749.76,975.14v21.28h-5V975.14H738v-4.49h18.5v4.49Z"/><path class="cls-10" d="M761.52,988.46a3.89,3.89,0,0,0,4.12,4.2,5.19,5.19,0,0,0,4.27-1.78l2.86,2.79a9,9,0,0,1-7.16,3c-4.45,0-8.73-2-8.73-9.66,0-6.16,3.33-9.63,8.22-9.63,5.25,0,8.22,3.84,8.22,9v2.1Zm6.73-5.25a3.52,3.52,0,0,0-6.3,0,5.11,5.11,0,0,0-.43,2h7.16A5.11,5.11,0,0,0,768.25,983.21Z"/><path class="cls-10" d="M783,996.42a5.12,5.12,0,0,1-5.5-5.39V970.65h4.7v20.09c0,1.12.47,1.7,1.67,1.7h1.81v4Z"/><path class="cls-10" d="M792.21,988.46a3.89,3.89,0,0,0,4.12,4.2,5.2,5.2,0,0,0,4.27-1.78l2.86,2.79a9,9,0,0,1-7.16,3c-4.46,0-8.73-2-8.73-9.66,0-6.16,3.33-9.63,8.22-9.63,5.25,0,8.21,3.84,8.21,9v2.1Zm6.73-5.25a3.52,3.52,0,0,0-6.3,0,5.11,5.11,0,0,0-.43,2h7.16A5.11,5.11,0,0,0,798.94,983.21Z"/><path class="cls-10" d="M821.38,994.32a7.83,7.83,0,0,1-5.87,2.32,7.74,7.74,0,0,1-5.83-2.32c-1.7-1.77-2.13-3.9-2.13-7.34s.43-5.54,2.13-7.31a7.7,7.7,0,0,1,5.83-2.32,7.8,7.8,0,0,1,5.87,2.32c1.7,1.77,2.13,3.9,2.13,7.31S823.08,992.55,821.38,994.32Zm-3.66-11.9a3,3,0,0,0-2.21-.84,2.86,2.86,0,0,0-2.17.84c-1,1-1.09,2.6-1.09,4.56s.11,3.62,1.09,4.59a2.86,2.86,0,0,0,2.17.84,3,3,0,0,0,2.21-.84c1-1,1.09-2.64,1.09-4.59S818.7,983.39,817.72,982.42Z"/><path class="cls-10" d="M841.86,994.94a6.57,6.57,0,0,1-4.6,1.7,5.59,5.59,0,0,1-4.56-1.88v8.58H828V977.57h4.56v1.77a5.71,5.71,0,0,1,4.7-2,6.57,6.57,0,0,1,4.6,1.7c1.88,1.88,1.92,5.1,1.92,7.93S843.74,993.06,841.86,994.94Zm-6-13.36c-2.83,0-3.19,2.32-3.19,5.4s.36,5.43,3.19,5.43,3.18-2.36,3.18-5.43S838.71,981.58,835.89,981.58Z"/><path class="cls-10" d="M852,988.46a3.9,3.9,0,0,0,4.13,4.2,5.2,5.2,0,0,0,4.27-1.78l2.86,2.79a9,9,0,0,1-7.17,3c-4.45,0-8.72-2-8.72-9.66,0-6.16,3.33-9.63,8.22-9.63,5.25,0,8.21,3.84,8.21,9v2.1Zm6.74-5.25a3.52,3.52,0,0,0-6.3,0,5.3,5.3,0,0,0-.44,2h7.17A5.29,5.29,0,0,0,858.69,983.21Z"/><path class="cls-10" d="M878.34,982.71a3.13,3.13,0,0,0-2.5-1.13c-1.45,0-3,1.09-3,3.48v11.36h-4.71V977.57h4.6v1.81a6.39,6.39,0,0,1,4.74-2,5.68,5.68,0,0,1,4.45,1.77Z"/><path class="cls-10" d="M893.86,996.42v-1.63a5.71,5.71,0,0,1-4.63,1.81,6.42,6.42,0,0,1-4.81-1.66,6,6,0,0,1-1.56-4.24c0-3,2.06-5.46,6.44-5.46h4.45v-.94c0-2.06-1-3-3.51-3a4,4,0,0,0-3.62,1.56l-3-2.93c1.85-2,3.66-2.61,6.8-2.61,5.29,0,8,2.24,8,6.66v12.41Zm-.11-8H890c-1.71,0-2.65.8-2.65,2.14s.87,2.17,2.72,2.17a3.74,3.74,0,0,0,3-.91,3.13,3.13,0,0,0,.68-2.39Z"/><path class="cls-10" d="M909.42,996.42A5.11,5.11,0,0,1,904,991v-9.34h-2v-3.58h2v-5.57h4.7v5.57H912v3.58h-3.33v9c0,1.09.51,1.7,1.63,1.7H912v4Z"/><path class="cls-10" d="M916.19,974.34v-3.83H921v3.83Zm.07,22.08V977.57H921v18.85Z"/><path class="cls-10" d="M939.24,994.32a8.52,8.52,0,0,1-11.69,0c-1.7-1.77-2.13-3.9-2.13-7.34s.43-5.54,2.13-7.31a8.52,8.52,0,0,1,11.69,0c1.71,1.77,2.14,3.9,2.14,7.31S941,992.55,939.24,994.32Zm-3.65-11.9a3,3,0,0,0-2.21-.84,2.86,2.86,0,0,0-2.17.84c-1,1-1.09,2.6-1.09,4.56s.11,3.62,1.09,4.59a2.86,2.86,0,0,0,2.17.84,3,3,0,0,0,2.21-.84c1-1,1.08-2.64,1.08-4.59S936.57,983.39,935.59,982.42Z"/><path class="cls-10" d="M956.83,996.42V985c0-2.57-1.63-3.44-3.11-3.44s-3.15.87-3.15,3.44v11.4h-4.7V977.57h4.59v1.73a6.47,6.47,0,0,1,4.71-1.95,6.12,6.12,0,0,1,4.45,1.66,7,7,0,0,1,1.92,5.36v12Z"/><path class="cls-10" d="M1120.25,996.64c-5.28,0-9.48-3.58-9.48-9V970.65h5v16.76c0,3,1.74,4.74,4.45,4.74s4.49-1.77,4.49-4.74V970.65h5v16.94C1129.73,993.06,1125.53,996.64,1120.25,996.64Z"/><path class="cls-10" d="M1135.34,996.42V970.65h5v25.77Z"/><path class="cls-10" d="M1156.19,999.1h-4.42L1162.08,968h4.42Z"/><path class="cls-10" d="M1191.51,996.42V985.64h-8.72v10.78h-5V970.65h5v10.54h8.72V970.65h5v25.77Z"/><path class="cls-10" d="M1220.86,996.42v-15l-4.92,9.78h-3.41l-5-9.78v15h-5V970.65h5l6.73,13.94,6.7-13.94h5v25.77Z"/><path class="cls-10" d="M1231.89,996.42V970.65h5v25.77Z"/><path class="cls-10" d="M1448.64,993.71a9.65,9.65,0,0,1-7.28,2.93,9.43,9.43,0,0,1-6.94-2.82,7.41,7.41,0,0,1-2.1-3.88,46.84,46.84,0,0,1,0-12.81,7.27,7.27,0,0,1,2.1-3.87,9.43,9.43,0,0,1,6.94-2.82c5.87,0,9,3.76,9.7,8.25H1446c-.62-2.5-2.14-3.77-4.64-3.77a4.11,4.11,0,0,0-3.22,1.38c-.94,1.19-1.23,2.13-1.23,7.24s.22,6.08,1.23,7.27a4,4,0,0,0,3.22,1.34,4.64,4.64,0,0,0,3.59-1.45,5,5,0,0,0,1.16-3.43v-1h-4.75v-4.2h9.74v3.76C1451.1,989.62,1450.41,991.83,1448.64,993.71Z"/><path class="cls-10" d="M1455.37,974.34v-3.83h4.81v3.83Zm.07,22.08V977.57h4.71v18.85Z"/><path class="cls-10" d="M1471.29,996.42a5.11,5.11,0,0,1-5.46-5.39v-9.34h-2v-3.58h2v-5.57h4.7v5.57h3.33v3.58h-3.33v9c0,1.09.51,1.7,1.63,1.7h1.7v4Z"/><path class="cls-10" d="M1478,1002.39V991.28h5.18v7.13Z"/><path class="cls-10" d="M1507.05,996.42v-1.77a5.65,5.65,0,0,1-4.67,2,6.64,6.64,0,0,1-4.63-1.7c-1.89-1.88-1.92-5.14-1.92-8s0-6.05,1.92-7.93a6.56,6.56,0,0,1,4.59-1.7,5.67,5.67,0,0,1,4.6,1.88v-8.58h4.7v25.77Zm-3.33-14.84c-2.83,0-3.19,2.32-3.19,5.4s.36,5.43,3.19,5.43,3.22-2.36,3.22-5.43S1506.54,981.58,1503.72,981.58Z"/><path class="cls-10" d="M1526.59,996.42v-1.63a5.72,5.72,0,0,1-4.63,1.81,6.46,6.46,0,0,1-4.82-1.66,6.06,6.06,0,0,1-1.55-4.24c0-3,2.06-5.46,6.44-5.46h4.45v-.94c0-2.06-1-3-3.51-3a4,4,0,0,0-3.62,1.56l-3-2.93c1.84-2,3.65-2.61,6.8-2.61,5.29,0,8,2.24,8,6.66v12.41Zm-.11-8h-3.73c-1.7,0-2.64.8-2.64,2.14s.87,2.17,2.72,2.17a3.7,3.7,0,0,0,3-.91,3.09,3.09,0,0,0,.69-2.39Z"/><path class="cls-10" d="M1542.15,996.42a5.1,5.1,0,0,1-5.46-5.39v-9.34h-2v-3.58h2v-5.57h4.7v5.57h3.33v3.58h-3.33v9c0,1.09.51,1.7,1.63,1.7h1.7v4Z"/><path class="cls-10" d="M1558.54,996.42v-1.63a5.71,5.71,0,0,1-4.63,1.81,6.43,6.43,0,0,1-4.81-1.66,6,6,0,0,1-1.56-4.24c0-3,2.07-5.46,6.45-5.46h4.45v-.94c0-2.06-1-3-3.51-3a4,4,0,0,0-3.62,1.56l-3-2.93c1.85-2,3.66-2.61,6.81-2.61,5.28,0,8,2.24,8,6.66v12.41Zm-.1-8h-3.73c-1.7,0-2.64.8-2.64,2.14s.87,2.17,2.71,2.17a3.72,3.72,0,0,0,3-.91,3.09,3.09,0,0,0,.69-2.39Z"/><path class="cls-10" d="M103.38,648.76v-10h1.94V647h4.53v1.74Z"/><path class="cls-10" d="M111.43,648.76v-10h1.94v10Z"/><path class="cls-10" d="M121.93,647.8a3.64,3.64,0,0,1-2.63,1h-3.6v-10h3.6a3.64,3.64,0,0,1,2.63,1c1.12,1.12,1,2.49,1,4S123.05,646.68,121.93,647.8Zm-1.36-6.66a1.73,1.73,0,0,0-1.46-.62h-1.47V647h1.47a1.73,1.73,0,0,0,1.46-.62c.36-.44.42-1.16.42-2.67S120.93,641.58,120.57,641.14Z"/><path class="cls-10" d="M130.45,648.76l-.58-1.77h-3.55l-.6,1.77h-2l3.63-10h1.52l3.65,10Zm-2.32-7-1.26,3.63h2.48Z"/><path class="cls-10" d="M139,648.76l-1.95-4h-1.4v4h-1.95v-10h3.91a3,3,0,0,1,3.24,3.06,2.69,2.69,0,0,1-1.82,2.62l2.22,4.3Zm-1.51-8.24h-1.84v2.63h1.84a1.32,1.32,0,1,0,0-2.63Z"/><path class="cls-10" d="M142.66,651.07v-4.3h2v2.76Z"/><path class="cls-10" d="M152.78,648.84c-1.45,0-3.26-.78-3.26-3.74s1.81-3.72,3.26-3.72a3.08,3.08,0,0,1,2.41,1L154,643.59a1.47,1.47,0,0,0-1.18-.58,1.26,1.26,0,0,0-1,.48,2.47,2.47,0,0,0-.41,1.61,2.53,2.53,0,0,0,.41,1.63,1.25,1.25,0,0,0,1,.47,1.49,1.49,0,0,0,1.18-.57l1.23,1.22A3.12,3.12,0,0,1,152.78,648.84Z"/><path class="cls-10" d="M160.29,648.76v-.63a2.23,2.23,0,0,1-1.8.7,2.48,2.48,0,0,1-1.86-.65,2.33,2.33,0,0,1-.6-1.64c0-1.16.8-2.11,2.49-2.11h1.73v-.37c0-.79-.4-1.14-1.36-1.14a1.54,1.54,0,0,0-1.4.6l-1.17-1.14a3.09,3.09,0,0,1,2.64-1c2,0,3.11.86,3.11,2.57v4.81Zm0-3.09H158.8c-.66,0-1,.31-1,.83s.34.84,1.05.84A1.44,1.44,0,0,0,160,647a1.21,1.21,0,0,0,.27-.92Z"/><path class="cls-10" d="M172.51,648.76v-4.42a1.21,1.21,0,1,0-2.42,0v4.46h-1.82v-4.42a1.22,1.22,0,1,0-2.43,0v4.42H164v-7.3h1.78v.67a2.56,2.56,0,0,1,1.82-.75,2.27,2.27,0,0,1,1.94.92,2.77,2.77,0,0,1,2.18-.92,2.51,2.51,0,0,1,1.79.64,2.74,2.74,0,0,1,.8,2.07v4.67Z"/><path class="cls-10" d="M177.72,645.67a1.51,1.51,0,0,0,1.59,1.63,2,2,0,0,0,1.66-.69l1.1,1.08a3.47,3.47,0,0,1-2.77,1.15c-1.72,0-3.38-.78-3.38-3.74,0-2.38,1.29-3.72,3.18-3.72s3.18,1.48,3.18,3.48v.81Zm2.6-2a1.37,1.37,0,0,0-2.44,0,2,2,0,0,0-.16.79h2.77A2,2,0,0,0,180.32,643.64Z"/><path class="cls-10" d="M187.92,643.45a1.21,1.21,0,0,0-2.14.91v4.4H184v-7.3h1.78v.7a2.46,2.46,0,0,1,1.83-.78,2.23,2.23,0,0,1,1.73.68Z"/><path class="cls-10" d="M193.93,648.76v-.63a2.21,2.21,0,0,1-1.79.7,2.49,2.49,0,0,1-1.87-.65,2.33,2.33,0,0,1-.6-1.64c0-1.16.8-2.11,2.49-2.11h1.73v-.37c0-.79-.4-1.14-1.36-1.14a1.55,1.55,0,0,0-1.4.6L190,642.38a3.09,3.09,0,0,1,2.64-1c2,0,3.11.86,3.11,2.57v4.81Zm0-3.09h-1.45c-.65,0-1,.31-1,.83s.34.84,1.05.84a1.43,1.43,0,0,0,1.15-.35,1.17,1.17,0,0,0,.27-.92Z"/><path class="cls-10" d="M197.59,651.07v-4.3h2v2.76Z"/><path class="cls-10" d="M208.78,643.45a1.21,1.21,0,0,0-2.14.91v4.4h-1.82v-7.3h1.78v.7a2.46,2.46,0,0,1,1.83-.78,2.19,2.19,0,0,1,1.72.68Z"/><path class="cls-10" d="M214.79,648.76v-.63a2.23,2.23,0,0,1-1.79.7,2.49,2.49,0,0,1-1.87-.65,2.33,2.33,0,0,1-.6-1.64c0-1.16.8-2.11,2.49-2.11h1.73v-.37c0-.79-.4-1.14-1.36-1.14a1.54,1.54,0,0,0-1.4.6l-1.17-1.14a3.09,3.09,0,0,1,2.64-1c2,0,3.11.86,3.11,2.57v4.81Zm0-3.09H213.3c-.66,0-1,.31-1,.83s.34.84,1.05.84a1.44,1.44,0,0,0,1.15-.35,1.17,1.17,0,0,0,.27-.92Z"/><path class="cls-10" d="M222.56,648.76v-.69a2.21,2.21,0,0,1-1.81.77,2.55,2.55,0,0,1-1.79-.66c-.73-.73-.74-2-.74-3.08s0-2.34.74-3.07a2.55,2.55,0,0,1,1.78-.65,2.2,2.2,0,0,1,1.78.72v-3.32h1.82v10ZM221.27,643c-1.09,0-1.23.9-1.23,2.09s.14,2.1,1.23,2.1,1.25-.91,1.25-2.1S222.36,643,221.27,643Z"/><path class="cls-10" d="M230.12,648.76v-.63a2.21,2.21,0,0,1-1.79.7,2.49,2.49,0,0,1-1.87-.65,2.33,2.33,0,0,1-.6-1.64c0-1.16.8-2.11,2.49-2.11h1.73v-.37c0-.79-.4-1.14-1.36-1.14a1.54,1.54,0,0,0-1.4.6l-1.17-1.14a3.09,3.09,0,0,1,2.64-1c2,0,3.11.86,3.11,2.57v4.81Zm0-3.09h-1.45c-.66,0-1,.31-1,.83s.34.84,1,.84a1.43,1.43,0,0,0,1.15-.35,1.17,1.17,0,0,0,.27-.92Z"/><path class="cls-10" d="M237.82,643.45a1.22,1.22,0,0,0-2.15.91v4.4h-1.82v-7.3h1.78v.7a2.47,2.47,0,0,1,1.84-.78,2.2,2.2,0,0,1,1.72.68Z"/><path class="cls-10" d="M239.31,651.07v-4.3h2v2.76Z"/><path class="cls-10" d="M246.68,648.76v-10h1.94v10Z"/><path class="cls-10" d="M258,648.76v-5.82l-1.91,3.79h-1.32l-1.92-3.79v5.82H251v-10h1.92l2.6,5.4,2.59-5.4H260v10Z"/><path class="cls-10" d="M265.82,648.84a3.47,3.47,0,0,1-3.67-3.5v-6.56h1.94v6.49a1.73,1.73,0,1,0,3.46,0v-6.49h1.94v6.56A3.47,3.47,0,0,1,265.82,648.84Z"/><path class="cls-10" d="M271.44,651.07v-4.3h2v2.76Z"/><path class="cls-10" d="M285,647.71a3.76,3.76,0,0,1-2.82,1.13,3.66,3.66,0,0,1-2.69-1.09,2.92,2.92,0,0,1-.81-1.5,18.17,18.17,0,0,1,0-5,2.89,2.89,0,0,1,.81-1.5,3.66,3.66,0,0,1,2.69-1.09,3.57,3.57,0,0,1,3.75,3.19h-2a1.69,1.69,0,0,0-1.79-1.45,1.59,1.59,0,0,0-1.25.53c-.36.46-.47.82-.47,2.8s.08,2.35.47,2.82a1.55,1.55,0,0,0,1.25.51,1.8,1.8,0,0,0,1.39-.56,2,2,0,0,0,.45-1.33v-.38h-1.84v-1.62h3.77v1.46A4,4,0,0,1,285,647.71Z"/><path class="cls-10" d="M291.59,645h-1.92v3.76h-1.95v-10h3.87a3.11,3.11,0,1,1,0,6.22Zm-.1-4.48h-1.82v2.73h1.82a1.37,1.37,0,1,0,0-2.73Z"/><path class="cls-10" d="M299.26,648.84a4.67,4.67,0,0,1-3.64-1.32l1.26-1.26a3.27,3.27,0,0,0,2.41.84c1.15,0,1.76-.43,1.76-1.23a1.11,1.11,0,0,0-.3-.84,1.51,1.51,0,0,0-.89-.35l-1.2-.17a3.32,3.32,0,0,1-1.93-.82,2.64,2.64,0,0,1-.72-2c0-1.77,1.32-3,3.48-3a4.3,4.3,0,0,1,3.22,1.16l-1.24,1.22a2.78,2.78,0,0,0-2-.69c-1,0-1.54.58-1.54,1.27a1,1,0,0,0,.29.71,1.71,1.71,0,0,0,.93.39l1.17.17a3.36,3.36,0,0,1,1.91.77,2.8,2.8,0,0,1,.77,2.12C303,647.75,301.35,648.84,299.26,648.84Z"/><path class="cls-10" d="M440.44,648.76v-5.82l-1.91,3.78h-1.31l-1.92-3.78v5.82h-1.95v-10h1.92l2.6,5.4,2.59-5.4h1.92v10Z"/><path class="cls-10" d="M448.3,648.76v-.63a2.21,2.21,0,0,1-1.79.7,2.45,2.45,0,0,1-1.86-.65,2.29,2.29,0,0,1-.61-1.64c0-1.16.8-2.11,2.5-2.11h1.72v-.37c0-.8-.39-1.14-1.36-1.14a1.55,1.55,0,0,0-1.4.6l-1.16-1.14a3.07,3.07,0,0,1,2.63-1c2,0,3.11.87,3.11,2.58v4.81Zm0-3.09h-1.44c-.66,0-1,.31-1,.83s.33.84,1.05.84A1.45,1.45,0,0,0,448,647a1.22,1.22,0,0,0,.26-.92Z"/><path class="cls-10" d="M457.4,648.18a2.51,2.51,0,0,1-1.78.66,2.16,2.16,0,0,1-1.76-.73v3.32H452v-10h1.76v.68a2.23,2.23,0,0,1,1.82-.77,2.55,2.55,0,0,1,1.78.66c.73.73.75,2,.75,3.07S458.13,647.45,457.4,648.18ZM455.09,643c-1.09,0-1.23.9-1.23,2.09s.14,2.1,1.23,2.1,1.24-.91,1.24-2.1S456.19,643,455.09,643Z"/><path class="cls-10" d="M465.24,648.18a2.51,2.51,0,0,1-1.78.66,2.16,2.16,0,0,1-1.76-.73v3.32h-1.82v-10h1.76v.68a2.23,2.23,0,0,1,1.82-.77,2.55,2.55,0,0,1,1.78.66c.73.73.75,2,.75,3.07S466,647.45,465.24,648.18ZM462.93,643c-1.09,0-1.23.9-1.23,2.09s.14,2.1,1.23,2.1,1.24-.91,1.24-2.1S464,643,462.93,643Z"/><path class="cls-10" d="M467.69,640.21v-1.48h1.86v1.48Zm0,8.55v-7.3h1.82v7.3Z"/><path class="cls-10" d="M475.81,648.76v-4.42a1.22,1.22,0,1,0-2.42,0v4.42h-1.82v-7.3h1.78v.67a2.51,2.51,0,0,1,1.82-.76,2.34,2.34,0,0,1,1.72.65,2.69,2.69,0,0,1,.74,2.07v4.67Z"/><path class="cls-10" d="M482.11,651.52a3.42,3.42,0,0,1-2.65-1l1.14-1.15A1.83,1.83,0,0,0,482,650a1.38,1.38,0,0,0,1.47-1.51v-.74a2.15,2.15,0,0,1-1.74.73,2.39,2.39,0,0,1-1.73-.65c-.69-.68-.75-1.62-.75-2.9s.06-2.19.75-2.88a2.43,2.43,0,0,1,1.75-.65,2.15,2.15,0,0,1,1.78.77v-.68h1.76v7A3,3,0,0,1,482.11,651.52Zm.18-8.51c-1.07,0-1.19.93-1.19,1.89s.12,1.91,1.19,1.91,1.21-.94,1.21-1.91S483.37,643,482.29,643Z"/><path class="cls-10" d="M487.29,651.07v-4.3h2v2.76Z"/><path class="cls-10" d="M498.55,648.76v-.69a2.21,2.21,0,0,1-1.81.77,2.55,2.55,0,0,1-1.79-.66c-.73-.73-.74-2-.74-3.08s0-2.34.74-3.07a2.55,2.55,0,0,1,1.78-.66,2.2,2.2,0,0,1,1.78.73v-3.32h1.82v10ZM497.26,643c-1.09,0-1.23.9-1.23,2.09s.14,2.1,1.23,2.1,1.25-.91,1.25-2.1S498.35,643,497.26,643Z"/><path class="cls-10" d="M503.8,645.67a1.51,1.51,0,0,0,1.59,1.63,2,2,0,0,0,1.66-.69l1.1,1.08a3.47,3.47,0,0,1-2.77,1.15c-1.72,0-3.38-.78-3.38-3.74,0-2.38,1.29-3.73,3.18-3.73s3.18,1.49,3.18,3.49v.81Zm2.6-2a1.36,1.36,0,0,0-2.43,0,1.86,1.86,0,0,0-.17.79h2.77A2,2,0,0,0,506.4,643.64Z"/><path class="cls-10" d="M512.32,648.76a2,2,0,0,1-2.11-2.09v-3.62h-.77v-1.38h.77v-2.16H512v2.16h1.29v1.38H512v3.51a.57.57,0,0,0,.63.65h.66v1.55Z"/><path class="cls-10" d="M516.35,645.67a1.51,1.51,0,0,0,1.6,1.63,2,2,0,0,0,1.65-.69l1.11,1.08a3.48,3.48,0,0,1-2.77,1.15c-1.73,0-3.38-.78-3.38-3.74,0-2.38,1.29-3.73,3.18-3.73s3.18,1.49,3.18,3.49v.81Zm2.61-2a1.37,1.37,0,0,0-2.44,0,2.23,2.23,0,0,0-.17.79h2.78A2.23,2.23,0,0,0,519,643.64Z"/><path class="cls-10" d="M525.5,648.84c-1.46,0-3.27-.78-3.27-3.74s1.81-3.73,3.27-3.73a3.12,3.12,0,0,1,2.41,1l-1.24,1.24a1.45,1.45,0,0,0-1.17-.58,1.28,1.28,0,0,0-1,.48,3.39,3.39,0,0,0,0,3.23,1.25,1.25,0,0,0,1,.48,1.47,1.47,0,0,0,1.17-.57l1.24,1.22A3.13,3.13,0,0,1,525.5,648.84Z"/><path class="cls-10" d="M531.6,648.76a2,2,0,0,1-2.11-2.09v-3.62h-.77v-1.38h.77v-2.16h1.82v2.16h1.29v1.38h-1.29v3.51c0,.42.19.65.63.65h.66v1.55Z"/><path class="cls-10" d="M534.22,640.21v-1.48h1.86v1.48Zm0,8.55v-7.3h1.82v7.3Z"/><path class="cls-10" d="M543.14,647.94a3.3,3.3,0,0,1-4.53,0,5.31,5.31,0,0,1,0-5.67,3.3,3.3,0,0,1,4.53,0,5.31,5.31,0,0,1,0,5.67Zm-1.42-4.61a1.15,1.15,0,0,0-.85-.32,1.11,1.11,0,0,0-.84.32,2.47,2.47,0,0,0-.42,1.77,2.49,2.49,0,0,0,.42,1.78,1.11,1.11,0,0,0,.84.32,1.15,1.15,0,0,0,.85-.32,2.49,2.49,0,0,0,.42-1.78A2.47,2.47,0,0,0,541.72,643.33Z"/><path class="cls-10" d="M549.94,648.76v-4.42a1.22,1.22,0,1,0-2.42,0v4.42H545.7v-7.3h1.78v.67a2.51,2.51,0,0,1,1.82-.76A2.35,2.35,0,0,1,551,642a2.69,2.69,0,0,1,.74,2.07v4.67Z"/><path class="cls-10" d="M553.65,651.07v-4.3h2v2.76Z"/><path class="cls-10" d="M566.24,648.18a2.54,2.54,0,0,1-1.78.66,2.15,2.15,0,0,1-1.76-.73v3.32h-1.83v-10h1.77v.68a2.21,2.21,0,0,1,1.82-.77,2.59,2.59,0,0,1,1.78.66c.73.73.74,2,.74,3.07S567,647.45,566.24,648.18ZM563.93,643c-1.1,0-1.23.9-1.23,2.09s.13,2.1,1.23,2.1,1.23-.91,1.23-2.1S565,643,563.93,643Z"/><path class="cls-10" d="M572.68,643.45a1.22,1.22,0,0,0-1-.44,1.21,1.21,0,0,0-1.17,1.35v4.4h-1.83v-7.3h1.78v.7a2.48,2.48,0,0,1,1.84-.79,2.21,2.21,0,0,1,1.72.69Z"/><path class="cls-10" d="M576.08,645.67a1.51,1.51,0,0,0,1.6,1.63,2,2,0,0,0,1.65-.69l1.1,1.08a3.47,3.47,0,0,1-2.77,1.15c-1.72,0-3.37-.78-3.37-3.74,0-2.38,1.28-3.73,3.17-3.73s3.18,1.49,3.18,3.49v.81Zm2.6-2a1.36,1.36,0,0,0-2.43,0,1.86,1.86,0,0,0-.17.79h2.77A1.86,1.86,0,0,0,578.68,643.64Z"/><path class="cls-10" d="M586.36,648.76v-.69a2.21,2.21,0,0,1-1.81.77,2.53,2.53,0,0,1-1.79-.66c-.73-.73-.75-2-.75-3.08s0-2.34.75-3.07a2.55,2.55,0,0,1,1.78-.66,2.17,2.17,0,0,1,1.77.73v-3.32h1.82v10ZM585.07,643c-1.1,0-1.24.9-1.24,2.09s.14,2.1,1.24,2.1,1.24-.91,1.24-2.1S586.16,643,585.07,643Z"/><path class="cls-10" d="M590.15,640.21v-1.48H592v1.48Zm0,8.55v-7.3H592v7.3Z"/><path class="cls-10" d="M596.92,648.84c-1.45,0-3.26-.78-3.26-3.74s1.81-3.73,3.26-3.73a3.11,3.11,0,0,1,2.41,1l-1.23,1.24a1.47,1.47,0,0,0-1.18-.58,1.26,1.26,0,0,0-1,.48,3.39,3.39,0,0,0,0,3.23,1.23,1.23,0,0,0,1,.48,1.49,1.49,0,0,0,1.18-.57l1.23,1.22A3.12,3.12,0,0,1,596.92,648.84Z"/><path class="cls-10" d="M603,648.76a2,2,0,0,1-2.12-2.09v-3.62h-.77v-1.38h.77v-2.16h1.82v2.16H604v1.38h-1.29v3.51a.57.57,0,0,0,.63.65H604v1.55Z"/><path class="cls-10" d="M605.65,640.21v-1.48h1.86v1.48Zm0,8.55v-7.3h1.82v7.3Z"/><path class="cls-10" d="M614.57,647.94a3.3,3.3,0,0,1-4.53,0,5.26,5.26,0,0,1,0-5.67,3.3,3.3,0,0,1,4.53,0,5.31,5.31,0,0,1,0,5.67Zm-1.42-4.61a1.15,1.15,0,0,0-.85-.32,1.11,1.11,0,0,0-.84.32,2.47,2.47,0,0,0-.42,1.77,2.49,2.49,0,0,0,.42,1.78,1.11,1.11,0,0,0,.84.32,1.15,1.15,0,0,0,.85-.32,2.49,2.49,0,0,0,.42-1.78A2.47,2.47,0,0,0,613.15,643.33Z"/><path class="cls-10" d="M621.37,648.76v-4.42a1.22,1.22,0,1,0-2.42,0v4.42h-1.83v-7.3h1.78v.67a2.53,2.53,0,0,1,1.82-.76,2.38,2.38,0,0,1,1.73.65,2.69,2.69,0,0,1,.74,2.07v4.67Z"/><path class="cls-10" d="M808.55,647.71a3.76,3.76,0,0,1-2.82,1.13,3.66,3.66,0,0,1-2.69-1.09,2.92,2.92,0,0,1-.81-1.5,18.17,18.17,0,0,1,0-5,2.89,2.89,0,0,1,.81-1.5,3.66,3.66,0,0,1,2.69-1.09,3.57,3.57,0,0,1,3.75,3.19h-2a1.69,1.69,0,0,0-1.79-1.45,1.59,1.59,0,0,0-1.25.53c-.36.46-.47.82-.47,2.8s.08,2.35.47,2.81a1.56,1.56,0,0,0,1.25.52,1.8,1.8,0,0,0,1.39-.56,2,2,0,0,0,.45-1.33v-.38h-1.84v-1.62h3.77v1.46A4,4,0,0,1,808.55,647.71Z"/><path class="cls-10" d="M813.23,648.76a2,2,0,0,1-2.13-2.09v-7.89h1.83v7.78c0,.43.18.65.64.65h.7v1.55Z"/><path class="cls-10" d="M820.49,647.94a3.3,3.3,0,0,1-4.53,0,5.31,5.31,0,0,1,0-5.67,3.3,3.3,0,0,1,4.53,0,5.31,5.31,0,0,1,0,5.67Zm-1.42-4.61a1.15,1.15,0,0,0-.85-.32,1.11,1.11,0,0,0-.84.32,2.47,2.47,0,0,0-.42,1.77,2.49,2.49,0,0,0,.42,1.78,1.11,1.11,0,0,0,.84.32,1.15,1.15,0,0,0,.85-.32,2.49,2.49,0,0,0,.42-1.78A2.47,2.47,0,0,0,819.07,643.33Z"/><path class="cls-10" d="M828.41,648.18a2.51,2.51,0,0,1-1.78.66,2.23,2.23,0,0,1-1.82-.77v.69h-1.76v-10h1.82v3.32a2.15,2.15,0,0,1,1.76-.73,2.55,2.55,0,0,1,1.78.66c.73.73.74,2,.74,3.07S829.14,647.45,828.41,648.18ZM826.1,643c-1.09,0-1.23.9-1.23,2.09s.14,2.1,1.23,2.1,1.23-.91,1.23-2.1S827.19,643,826.1,643Z"/><path class="cls-10" d="M834.63,648.76v-.63a2.23,2.23,0,0,1-1.8.7,2.48,2.48,0,0,1-1.86-.65,2.33,2.33,0,0,1-.6-1.64c0-1.16.8-2.11,2.49-2.11h1.72v-.37c0-.8-.39-1.14-1.35-1.14a1.54,1.54,0,0,0-1.4.6l-1.17-1.14a3.1,3.1,0,0,1,2.64-1c2,0,3.11.87,3.11,2.58v4.81Zm0-3.09h-1.44c-.66,0-1,.31-1,.83s.34.84,1,.84a1.44,1.44,0,0,0,1.15-.35,1.22,1.22,0,0,0,.26-.92Z"/><path class="cls-10" d="M840.42,648.76a2,2,0,0,1-2.13-2.09v-7.89h1.82v7.78a.57.57,0,0,0,.65.65h.7v1.55Z"/><path class="cls-10" d="M849.9,648.76v-.63a2.21,2.21,0,0,1-1.79.7,2.49,2.49,0,0,1-1.87-.65,2.33,2.33,0,0,1-.6-1.64c0-1.16.8-2.11,2.5-2.11h1.72v-.37c0-.8-.39-1.14-1.36-1.14a1.55,1.55,0,0,0-1.4.6l-1.16-1.14a3.07,3.07,0,0,1,2.63-1c2,0,3.11.87,3.11,2.58v4.81Zm0-3.09h-1.44c-.66,0-1,.31-1,.83s.34.84,1.05.84a1.43,1.43,0,0,0,1.15-.35,1.18,1.18,0,0,0,.27-.92Z"/><path class="cls-10" d="M857.88,648.76v-4.42a1.22,1.22,0,1,0-2.42,0v4.42h-1.82v-7.3h1.78v.67a2.49,2.49,0,0,1,1.82-.76A2.37,2.37,0,0,1,859,642a2.69,2.69,0,0,1,.74,2.07v4.67Z"/><path class="cls-10" d="M865.69,648.76v-.69a2.17,2.17,0,0,1-1.8.77,2.58,2.58,0,0,1-1.8-.66c-.73-.73-.74-2-.74-3.08s0-2.34.74-3.07a2.59,2.59,0,0,1,1.78-.66,2.2,2.2,0,0,1,1.78.73v-3.32h1.82v10ZM864.4,643c-1.09,0-1.23.9-1.23,2.09s.14,2.1,1.23,2.1,1.25-.91,1.25-2.1S865.5,643,864.4,643Z"/><path class="cls-10" d="M874.82,648.76a2,2,0,0,1-2.13-2.09v-7.89h1.82v7.78c0,.43.18.65.65.65h.7v1.55Z"/><path class="cls-10" d="M882.07,647.94a3,3,0,0,1-2.27.9,3,3,0,0,1-2.25-.9,5.26,5.26,0,0,1,0-5.67,3,3,0,0,1,2.25-.9,3,3,0,0,1,2.27.9,5.26,5.26,0,0,1,0,5.67Zm-1.41-4.61a1.15,1.15,0,0,0-.86-.32,1.12,1.12,0,0,0-.84.32,2.47,2.47,0,0,0-.42,1.77,2.49,2.49,0,0,0,.42,1.78,1.12,1.12,0,0,0,.84.32,1.15,1.15,0,0,0,.86-.32,2.49,2.49,0,0,0,.42-1.78A2.47,2.47,0,0,0,880.66,643.33Z"/><path class="cls-10" d="M887.53,648.84c-1.45,0-3.26-.78-3.26-3.74s1.81-3.73,3.26-3.73a3.11,3.11,0,0,1,2.41,1l-1.23,1.24a1.47,1.47,0,0,0-1.18-.58,1.26,1.26,0,0,0-1,.48,3.39,3.39,0,0,0,0,3.23,1.23,1.23,0,0,0,1,.48,1.49,1.49,0,0,0,1.18-.57l1.23,1.22A3.12,3.12,0,0,1,887.53,648.84Z"/><path class="cls-10" d="M895,648.76v-.63a2.23,2.23,0,0,1-1.8.7,2.46,2.46,0,0,1-1.86-.65,2.33,2.33,0,0,1-.6-1.64c0-1.16.8-2.11,2.49-2.11H895v-.37c0-.8-.39-1.14-1.35-1.14a1.57,1.57,0,0,0-1.41.6l-1.16-1.14a3.1,3.1,0,0,1,2.64-1c2,0,3.11.87,3.11,2.58v4.81Zm0-3.09h-1.44c-.66,0-1,.31-1,.83s.34.84,1.05.84a1.44,1.44,0,0,0,1.15-.35,1.22,1.22,0,0,0,.26-.92Z"/><path class="cls-10" d="M900.83,648.76a2,2,0,0,1-2.13-2.09v-7.89h1.82v7.78a.57.57,0,0,0,.65.65h.7v1.55Z"/><path class="cls-10" d="M1086.52,645h-1.92v3.76h-1.95v-10h3.87a3.11,3.11,0,1,1,0,6.22Zm-.1-4.48h-1.82v2.73h1.82a1.37,1.37,0,1,0,0-2.73Z"/><path class="cls-10" d="M1095.5,648.76v-.68a2.45,2.45,0,0,1-1.82.76,2.41,2.41,0,0,1-1.72-.64,2.71,2.71,0,0,1-.74-2.08v-4.66H1093v4.41a1.22,1.22,0,1,0,2.42,0v-4.41h1.82v7.3Z"/><path class="cls-10" d="M1103.29,643.45a1.22,1.22,0,0,0-1-.44,1.21,1.21,0,0,0-1.17,1.35v4.4h-1.83v-7.3h1.78v.7a2.47,2.47,0,0,1,1.84-.78,2.2,2.2,0,0,1,1.72.68Z"/><path class="cls-10" d="M1108,648.84a4,4,0,0,1-3.11-1.05l1.19-1.19a2.67,2.67,0,0,0,2,.69c.63,0,1.29-.21,1.29-.76,0-.36-.2-.62-.77-.67l-1.15-.11c-1.32-.13-2.13-.71-2.13-2,0-1.51,1.33-2.32,2.81-2.32a3.86,3.86,0,0,1,2.79.85l-1.12,1.13a2.57,2.57,0,0,0-1.69-.49c-.73,0-1,.34-1,.7s.11.58.76.63l1.14.12c1.45.14,2.18.91,2.18,2.14C1111.05,648.07,1109.67,648.84,1108,648.84Z"/><path class="cls-10" d="M1116.77,648.76v-.68a2.49,2.49,0,0,1-1.82.76,2.37,2.37,0,0,1-1.72-.64,2.72,2.72,0,0,1-.75-2.08v-4.66h1.82v4.41a1.22,1.22,0,1,0,2.43,0v-4.41h1.82v7.3Z"/><path class="cls-10" d="M1120.56,640.21v-1.48h1.86v1.48Zm0,8.55v-7.3h1.82v7.3Z"/><path class="cls-10" d="M1126.72,648.76a2,2,0,0,1-2.11-2.09v-3.61h-.77v-1.39h.77v-2.16h1.82v2.16h1.29v1.39h-1.29v3.5c0,.42.19.66.63.66h.66v1.54Z"/><path class="cls-10" d="M1129.3,651.07v-4.3h2v2.76Z"/><path class="cls-10" d="M1145,648.76v-4.42a1.21,1.21,0,1,0-2.42,0v4.46h-1.82v-4.42a1.22,1.22,0,1,0-2.43,0v4.42h-1.82v-7.3h1.78v.67a2.56,2.56,0,0,1,1.82-.75,2.25,2.25,0,0,1,1.93.92,2.81,2.81,0,0,1,2.19-.92,2.51,2.51,0,0,1,1.79.64,2.74,2.74,0,0,1,.8,2.07v4.67Z"/><path class="cls-10" d="M1153.83,647.94a3.3,3.3,0,0,1-4.53,0,5.31,5.31,0,0,1,0-5.67,3.33,3.33,0,0,1,4.53,0,5.31,5.31,0,0,1,0,5.67Zm-1.42-4.6a1.15,1.15,0,0,0-.85-.33,1.11,1.11,0,0,0-.84.33,2.43,2.43,0,0,0-.42,1.76,2.49,2.49,0,0,0,.42,1.78,1.11,1.11,0,0,0,.84.32,1.15,1.15,0,0,0,.85-.32,2.49,2.49,0,0,0,.42-1.78A2.43,2.43,0,0,0,1152.41,643.34Z"/><path class="cls-10" d="M1160.42,648.76v-.69a2.19,2.19,0,0,1-1.8.77,2.58,2.58,0,0,1-1.8-.66c-.73-.73-.74-2-.74-3.08s0-2.34.74-3.07a2.58,2.58,0,0,1,1.78-.65,2.2,2.2,0,0,1,1.78.72v-3.32h1.82v10Zm-1.29-5.75c-1.09,0-1.23.9-1.23,2.09s.14,2.1,1.23,2.1,1.25-.91,1.25-2.1S1160.23,643,1159.13,643Z"/><path class="cls-10" d="M1165.67,645.67a1.51,1.51,0,0,0,1.6,1.63,2,2,0,0,0,1.65-.69l1.11,1.08a3.5,3.5,0,0,1-2.78,1.15c-1.72,0-3.37-.78-3.37-3.74,0-2.38,1.29-3.72,3.18-3.72s3.18,1.48,3.18,3.48v.81Zm2.61-2a1.28,1.28,0,0,0-1.22-.75,1.26,1.26,0,0,0-1.22.75,2,2,0,0,0-.17.79h2.77A2,2,0,0,0,1168.28,643.64Z"/><path class="cls-10" d="M1174,648.76a2,2,0,0,1-2.13-2.09v-7.89h1.82v7.78c0,.43.19.66.65.66h.7v1.54Z"/><path class="cls-10" d="M1185.08,648.18a2.54,2.54,0,0,1-1.78.66,2.17,2.17,0,0,1-1.77-.73v3.32h-1.82v-10h1.77v.69a2.18,2.18,0,0,1,1.82-.77,2.58,2.58,0,0,1,1.78.65c.72.73.74,2,.74,3.07S1185.8,647.45,1185.08,648.18Zm-2.32-5.17c-1.09,0-1.23.9-1.23,2.09s.14,2.1,1.23,2.1,1.24-.91,1.24-2.1S1183.86,643,1182.76,643Z"/><path class="cls-10" d="M1191.52,643.45a1.22,1.22,0,0,0-2.15.91v4.4h-1.82v-7.3h1.78v.7a2.47,2.47,0,0,1,1.84-.78,2.22,2.22,0,0,1,1.72.68Z"/><path class="cls-10" d="M1194.92,645.67a1.51,1.51,0,0,0,1.59,1.63,2,2,0,0,0,1.66-.69l1.1,1.08a3.47,3.47,0,0,1-2.77,1.15c-1.72,0-3.38-.78-3.38-3.74,0-2.38,1.29-3.72,3.18-3.72s3.18,1.48,3.18,3.48v.81Zm2.6-2a1.26,1.26,0,0,0-1.22-.75,1.28,1.28,0,0,0-1.22.75,2,2,0,0,0-.16.79h2.77A2,2,0,0,0,1197.52,643.64Z"/><path class="cls-10" d="M1203.44,648.76a2,2,0,0,1-2.11-2.09v-3.61h-.77v-1.39h.77v-2.16h1.82v2.16h1.29v1.39h-1.29v3.5c0,.42.19.66.63.66h.66v1.54Z"/><path class="cls-10" d="M1206.06,640.21v-1.48h1.86v1.48Zm0,8.55v-7.3h1.82v7.3Z"/><path class="cls-10" d="M1212.84,648.84c-1.46,0-3.27-.78-3.27-3.74s1.81-3.72,3.27-3.72a3.1,3.1,0,0,1,2.41,1l-1.24,1.23a1.47,1.47,0,0,0-1.17-.58,1.28,1.28,0,0,0-1,.48,2.47,2.47,0,0,0-.41,1.61,2.53,2.53,0,0,0,.41,1.63,1.27,1.27,0,0,0,1,.47,1.49,1.49,0,0,0,1.17-.57l1.24,1.22A3.15,3.15,0,0,1,1212.84,648.84Z"/><path class="cls-10" d="M1218.94,648.76a2,2,0,0,1-2.12-2.09v-3.61h-.77v-1.39h.77v-2.16h1.83v2.16h1.28v1.39h-1.28v3.5c0,.42.19.66.63.66h.65v1.54Z"/><path class="cls-10" d="M1221.56,640.21v-1.48h1.86v1.48Zm0,8.55v-7.3h1.83v7.3Z"/><path class="cls-10" d="M1228.59,648.76h-1.43l-2.69-7.3h1.92l1.48,4.51,1.47-4.51h1.92Z"/><path class="cls-10" d="M1233.62,645.67a1.51,1.51,0,0,0,1.6,1.63,2,2,0,0,0,1.66-.69l1.1,1.08a3.47,3.47,0,0,1-2.77,1.15c-1.72,0-3.38-.78-3.38-3.74,0-2.38,1.29-3.72,3.18-3.72s3.18,1.48,3.18,3.48v.81Zm2.61-2a1.26,1.26,0,0,0-1.22-.75,1.28,1.28,0,0,0-1.22.75,2.23,2.23,0,0,0-.17.79h2.78A2.23,2.23,0,0,0,1236.23,643.64Z"/><path class="cls-10" d="M1239.8,651.07v-4.3h2v2.76Z"/><path class="cls-10" d="M1248.45,645.67a1.51,1.51,0,0,0,1.6,1.63,2,2,0,0,0,1.65-.69l1.11,1.08a3.49,3.49,0,0,1-2.78,1.15c-1.72,0-3.37-.78-3.37-3.74,0-2.38,1.29-3.72,3.18-3.72s3.18,1.48,3.18,3.48v.81Zm2.61-2a1.37,1.37,0,0,0-2.44,0,2,2,0,0,0-.17.79h2.77A2,2,0,0,0,1251.06,643.64Z"/><path class="cls-10" d="M1257,648.76a2,2,0,0,1-2.12-2.09v-3.61h-.77v-1.39h.77v-2.16h1.82v2.16H1258v1.39h-1.29v3.5c0,.42.2.66.63.66h.66v1.54Z"/><path class="cls-10" d="M1262.48,648.84c-1.46,0-3.26-.78-3.26-3.74s1.8-3.72,3.26-3.72a3.08,3.08,0,0,1,2.41,1l-1.23,1.23a1.47,1.47,0,0,0-1.18-.58,1.29,1.29,0,0,0-1,.48,2.47,2.47,0,0,0-.4,1.61,2.54,2.54,0,0,0,.4,1.63,1.28,1.28,0,0,0,1,.47,1.49,1.49,0,0,0,1.18-.57l1.23,1.22A3.12,3.12,0,0,1,1262.48,648.84Z"/><path class="cls-10" d="M1266.23,648.76v-2.08h2.09v2.08Z"/><path class="cls-10" d="M1411,648.84a4.67,4.67,0,0,1-3.64-1.32l1.26-1.26a3.26,3.26,0,0,0,2.41.84c1.15,0,1.76-.43,1.76-1.23a1.11,1.11,0,0,0-.3-.84,1.51,1.51,0,0,0-.89-.35l-1.2-.17a3.32,3.32,0,0,1-1.93-.82,2.64,2.64,0,0,1-.72-2c0-1.77,1.32-3,3.48-3a4.3,4.3,0,0,1,3.22,1.16l-1.24,1.22a2.78,2.78,0,0,0-2-.69c-1,0-1.54.58-1.54,1.27a1,1,0,0,0,.29.71,1.71,1.71,0,0,0,.93.39l1.17.17a3.36,3.36,0,0,1,1.91.77,2.8,2.8,0,0,1,.77,2.12C1414.68,647.75,1413.07,648.84,1411,648.84Z"/><path class="cls-10" d="M1418.65,648.76a2,2,0,0,1-2.11-2.09v-3.61h-.77v-1.39h.77v-2.16h1.82v2.16h1.29v1.39h-1.29v3.5c0,.42.19.66.63.66h.66v1.54Z"/><path class="cls-10" d="M1422.68,645.67a1.51,1.51,0,0,0,1.6,1.63,2,2,0,0,0,1.65-.69l1.11,1.08a3.48,3.48,0,0,1-2.77,1.15c-1.73,0-3.38-.78-3.38-3.74,0-2.38,1.29-3.72,3.18-3.72s3.18,1.48,3.18,3.48v.81Zm2.61-2a1.37,1.37,0,0,0-2.44,0,2.23,2.23,0,0,0-.17.79h2.78A2.23,2.23,0,0,0,1425.29,643.64Z"/><path class="cls-10" d="M1430.36,645.67a1.51,1.51,0,0,0,1.59,1.63,2,2,0,0,0,1.66-.69l1.1,1.08a3.47,3.47,0,0,1-2.77,1.15c-1.72,0-3.38-.78-3.38-3.74,0-2.38,1.29-3.72,3.18-3.72s3.18,1.48,3.18,3.48v.81Zm2.6-2a1.26,1.26,0,0,0-1.22-.75,1.28,1.28,0,0,0-1.22.75,2,2,0,0,0-.16.79h2.77A2,2,0,0,0,1433,643.64Z"/><path class="cls-10" d="M1440.56,643.45a1.21,1.21,0,0,0-2.14.91v4.4h-1.82v-7.3h1.78v.7a2.46,2.46,0,0,1,1.83-.78,2.23,2.23,0,0,1,1.73.68Z"/><path class="cls-10" d="M1442.94,640.21v-1.48h1.86v1.48Zm0,8.55v-7.3h1.82v7.3Z"/><path class="cls-10" d="M1451.06,648.76v-4.42a1.22,1.22,0,1,0-2.42,0v4.42h-1.82v-7.3h1.78v.67a2.5,2.5,0,0,1,1.82-.75,2.33,2.33,0,0,1,1.72.64,2.69,2.69,0,0,1,.74,2.07v4.67Z"/><path class="cls-10" d="M1457.36,651.52a3.42,3.42,0,0,1-2.65-1l1.14-1.14a1.87,1.87,0,0,0,1.43.56,1.38,1.38,0,0,0,1.47-1.52v-.74a2.15,2.15,0,0,1-1.74.73,2.39,2.39,0,0,1-1.73-.65c-.69-.68-.75-1.62-.75-2.9s.06-2.19.75-2.88a2.42,2.42,0,0,1,1.75-.64,2.09,2.09,0,0,1,1.77.77v-.69h1.77v7A3,3,0,0,1,1457.36,651.52Zm.18-8.51c-1.07,0-1.19.93-1.19,1.89s.12,1.91,1.19,1.91,1.21-.94,1.21-1.91S1458.62,643,1457.54,643Z"/><path class="cls-10" d="M1462.54,651.07v-4.3h2v2.76Z"/><path class="cls-10" d="M1473.5,648.76v-.63a2.21,2.21,0,0,1-1.79.7,2.45,2.45,0,0,1-1.86-.65,2.33,2.33,0,0,1-.6-1.64c0-1.16.79-2.11,2.49-2.11h1.72v-.37c0-.79-.39-1.14-1.36-1.14a1.55,1.55,0,0,0-1.4.6l-1.16-1.14a3.07,3.07,0,0,1,2.63-1c2,0,3.11.86,3.11,2.57v4.81Zm0-3.09H1472c-.66,0-1,.31-1,.83s.33.84,1,.84a1.45,1.45,0,0,0,1.15-.35,1.21,1.21,0,0,0,.26-.92Z"/><path class="cls-10" d="M1480.14,648.84c-1.46,0-3.26-.78-3.26-3.74s1.8-3.72,3.26-3.72a3.08,3.08,0,0,1,2.41,1l-1.23,1.23a1.47,1.47,0,0,0-1.18-.58,1.29,1.29,0,0,0-1,.48,2.47,2.47,0,0,0-.4,1.61,2.54,2.54,0,0,0,.4,1.63,1.28,1.28,0,0,0,1,.47,1.49,1.49,0,0,0,1.18-.57l1.23,1.22A3.12,3.12,0,0,1,1480.14,648.84Z"/><path class="cls-10" d="M1486.61,648.84c-1.46,0-3.27-.78-3.27-3.74s1.81-3.72,3.27-3.72a3.09,3.09,0,0,1,2.41,1l-1.24,1.23a1.45,1.45,0,0,0-1.17-.58,1.28,1.28,0,0,0-1,.48,2.47,2.47,0,0,0-.4,1.61,2.54,2.54,0,0,0,.4,1.63,1.27,1.27,0,0,0,1,.47,1.47,1.47,0,0,0,1.17-.57l1.24,1.22A3.13,3.13,0,0,1,1486.61,648.84Z"/><path class="cls-10" d="M1491.61,645.67a1.51,1.51,0,0,0,1.59,1.63,2,2,0,0,0,1.66-.69l1.1,1.08a3.48,3.48,0,0,1-2.77,1.15c-1.73,0-3.38-.78-3.38-3.74,0-2.38,1.29-3.72,3.18-3.72s3.18,1.48,3.18,3.48v.81Zm2.6-2a1.37,1.37,0,0,0-2.44,0,2,2,0,0,0-.16.79h2.77A2,2,0,0,0,1494.21,643.64Z"/><path class="cls-10" d="M1499.91,648.76a2,2,0,0,1-2.13-2.09v-7.89h1.82v7.78c0,.43.18.66.64.66h.7v1.54Z"/><path class="cls-10" d="M1503.48,645.67a1.51,1.51,0,0,0,1.59,1.63,2,2,0,0,0,1.66-.69l1.1,1.08a3.47,3.47,0,0,1-2.77,1.15c-1.72,0-3.38-.78-3.38-3.74,0-2.38,1.29-3.72,3.18-3.72,2,0,3.18,1.48,3.18,3.48v.81Zm2.6-2a1.36,1.36,0,0,0-2.43,0,1.86,1.86,0,0,0-.17.79h2.77A1.86,1.86,0,0,0,1506.08,643.64Z"/><path class="cls-10" d="M1513.68,643.45a1.2,1.2,0,0,0-1-.44,1.22,1.22,0,0,0-1.18,1.35v4.4h-1.82v-7.3h1.78v.7a2.46,2.46,0,0,1,1.83-.78,2.23,2.23,0,0,1,1.73.68Z"/><path class="cls-10" d="M1519.69,648.76v-.63a2.21,2.21,0,0,1-1.79.7,2.49,2.49,0,0,1-1.87-.65,2.33,2.33,0,0,1-.6-1.64c0-1.16.8-2.11,2.49-2.11h1.73v-.37c0-.79-.39-1.14-1.36-1.14a1.55,1.55,0,0,0-1.4.6l-1.16-1.14a3.06,3.06,0,0,1,2.63-1c2,0,3.11.86,3.11,2.57v4.81Zm0-3.09h-1.44c-.66,0-1,.31-1,.83s.34.84,1,.84a1.43,1.43,0,0,0,1.15-.35,1.17,1.17,0,0,0,.27-.92Z"/><path class="cls-10" d="M1525.71,648.76a2,2,0,0,1-2.12-2.09v-3.61h-.77v-1.39h.77v-2.16h1.83v2.16h1.28v1.39h-1.28v3.5c0,.42.19.66.63.66h.65v1.54Z"/><path class="cls-10" d="M1528.33,640.21v-1.48h1.86v1.48Zm0,8.55v-7.3h1.82v7.3Z"/><path class="cls-10" d="M1537.25,647.94a3.3,3.3,0,0,1-4.53,0,5.31,5.31,0,0,1,0-5.67,3.33,3.33,0,0,1,4.53,0,5.31,5.31,0,0,1,0,5.67Zm-1.42-4.6a1.15,1.15,0,0,0-.85-.33,1.11,1.11,0,0,0-.84.33,2.43,2.43,0,0,0-.42,1.76,2.49,2.49,0,0,0,.42,1.78,1.11,1.11,0,0,0,.84.32,1.15,1.15,0,0,0,.85-.32,2.49,2.49,0,0,0,.42-1.78A2.43,2.43,0,0,0,1535.83,643.34Z"/><path class="cls-10" d="M1544.05,648.76v-4.42a1.22,1.22,0,1,0-2.42,0v4.42h-1.82v-7.3h1.77v.67a2.52,2.52,0,0,1,1.83-.75,2.36,2.36,0,0,1,1.72.64,2.69,2.69,0,0,1,.74,2.07v4.67Z"/><path class="cls-10" d="M1547.76,651.07v-4.3h2v2.76Z"/><path class="cls-10" d="M1560.35,648.18a2.54,2.54,0,0,1-1.78.66,2.21,2.21,0,0,1-1.82-.77v.69H1555v-10h1.82v3.32a2.18,2.18,0,0,1,1.77-.72,2.58,2.58,0,0,1,1.78.65c.73.73.74,2,.74,3.07S1561.08,647.45,1560.35,648.18ZM1558,643c-1.1,0-1.24.9-1.24,2.09s.14,2.1,1.24,2.1,1.23-.91,1.23-2.1S1559.13,643,1558,643Z"/><path class="cls-10" d="M1566.79,643.45a1.22,1.22,0,0,0-2.15.91v4.4h-1.82v-7.3h1.78v.7a2.47,2.47,0,0,1,1.84-.78,2.22,2.22,0,0,1,1.72.68Z"/><path class="cls-10" d="M1572.79,648.76v-.63a2.21,2.21,0,0,1-1.79.7,2.45,2.45,0,0,1-1.86-.65,2.29,2.29,0,0,1-.61-1.64c0-1.16.8-2.11,2.5-2.11h1.72v-.37c0-.79-.39-1.14-1.36-1.14a1.55,1.55,0,0,0-1.4.6l-1.16-1.14a3.06,3.06,0,0,1,2.63-1c2,0,3.11.86,3.11,2.57v4.81Zm0-3.09h-1.44c-.66,0-1,.31-1,.83s.34.84,1,.84a1.43,1.43,0,0,0,1.15-.35,1.17,1.17,0,0,0,.27-.92Z"/><path class="cls-10" d="M1580.91,648.76l-1.79-3-.77.87v2.17h-1.82v-10h1.82v5.66l2.42-3h2.2l-2.6,2.94,2.8,4.36Z"/><path class="cls-10" d="M1585.68,645.67a1.51,1.51,0,0,0,1.6,1.63,2,2,0,0,0,1.65-.69l1.11,1.08a3.48,3.48,0,0,1-2.77,1.15c-1.73,0-3.38-.78-3.38-3.74,0-2.38,1.29-3.72,3.18-3.72s3.18,1.48,3.18,3.48v.81Zm2.61-2a1.37,1.37,0,0,0-2.44,0,2.23,2.23,0,0,0-.17.79h2.78A2.23,2.23,0,0,0,1588.29,643.64Z"/></g></svg>