<?xml version="1.0" encoding="utf-8"?>

<svg version="1.1" id="Layer_1" xmlns="http://www.w3.org/2000/svg" xmlns:xlink="http://www.w3.org/1999/xlink" x="0px" y="0px"
	 viewBox="0 0 1765.4 1203.2" style="enable-background:new 0 0 1765.4 1203.2;" xml:space="preserve">
<style type="text/css">
	.st0{fill:#152742;stroke:#1C3C68;stroke-width:6;stroke-linecap:round;stroke-linejoin:round;}
	.st1{fill:none;stroke:#34AEC5;stroke-width:6;stroke-linecap:round;stroke-linejoin:round;stroke-dasharray:24;}
	.st2{fill:none;stroke:#34AEC5;stroke-width:6;stroke-linecap:round;stroke-linejoin:round;}
	.st3{fill:#0A4851;}
	.st4{fill:none;stroke:#34AEC5;stroke-width:6;stroke-linecap:round;stroke-linejoin:round;stroke-dasharray:21.9,21.9;}
	.st5{fill:none;stroke:#34AEC5;stroke-width:4;stroke-linecap:round;stroke-linejoin:round;}
	.st6{fill:none;stroke:#34AEC5;stroke-width:6;stroke-linecap:round;stroke-linejoin:round;stroke-dasharray:22.64,22.64;}
	.st7{fill:none;stroke:#34AEC5;stroke-width:6;stroke-linecap:round;stroke-linejoin:round;stroke-dasharray:0,10;}
	.st8{fill:none;stroke:#34AEC5;stroke-width:6;stroke-linecap:round;stroke-linejoin:round;stroke-dasharray:12;}
	.st9{fill:#34AEC5;stroke:#1C3C68;stroke-width:6;stroke-linecap:round;stroke-linejoin:round;}
	.st10{fill:none;stroke:#152742;stroke-width:6;stroke-linecap:round;stroke-linejoin:round;}
	.st11{fill:none;stroke:#152742;stroke-width:6;stroke-linecap:round;stroke-linejoin:round;stroke-dasharray:22.64,22.64;}
	.st12{fill:none;stroke:#152742;stroke-width:4;stroke-linecap:round;stroke-linejoin:round;}
	.st13{fill:none;stroke:#152742;stroke-width:6;stroke-linecap:round;stroke-linejoin:round;stroke-dasharray:0,10;}
	.st14{fill:none;stroke:#152742;stroke-width:6;stroke-linecap:round;stroke-linejoin:round;stroke-dasharray:21.9,21.9;}
	.st15{fill:#FFFFFF;}
	.st16{enable-background:new    ;}
	.st17{fill:#152742;}
	.st18{fill:#34AEC5;}
</style>
<g id="sötét">
	<path class="st0" d="M105.8,181h195.6c14.5,0,26.3,11.8,26.3,26.3v534.1c0,14.5-11.8,26.3-26.3,26.3H105.8
		c-14.5,0-26.3-11.8-26.3-26.3V207.3C79.5,192.8,91.3,181,105.8,181z"/>
	<path class="st0" d="M427.8,181h195.6c14.5,0,26.3,11.8,26.3,26.3v534.1c0,14.5-11.8,26.3-26.3,26.3H427.8
		c-14.5,0-26.3-11.8-26.3-26.3V207.3C401.6,192.8,413.3,181,427.8,181z"/>
	<path class="st0" d="M749.9,181h195.6c14.5,0,26.3,11.8,26.3,26.3v534.1c0,14.5-11.8,26.3-26.3,26.3H749.9
		c-14.5,0-26.3-11.8-26.3-26.3V207.3C723.6,192.8,735.4,181,749.9,181z"/>
	<path class="st0" d="M1072,181h195.6c14.5,0,26.3,11.8,26.3,26.3v534.1c0,14.5-11.8,26.3-26.3,26.3H1072
		c-14.5,0-26.3-11.8-26.3-26.3V207.3C1045.7,192.8,1057.4,181,1072,181z"/>
	<path class="st0" d="M1394,181h195.6c14.5,0,26.3,11.8,26.3,26.3v534.1c0,14.5-11.8,26.3-26.3,26.3H1394
		c-14.5,0-26.3-11.8-26.3-26.3V207.3C1367.7,192.8,1379.5,181,1394,181z"/>
	<path class="st0" d="M105.8,877.9h195.6c14.5,0,26.3,11.8,26.3,26.3v217.7c0,14.5-11.8,26.3-26.3,26.3H105.8
		c-14.5,0-26.3-11.8-26.3-26.3V904.2C79.5,889.7,91.3,877.9,105.8,877.9z"/>
	<path class="st0" d="M427.8,877.9h195.6c14.5,0,26.3,11.8,26.3,26.3v217.7c0,14.5-11.8,26.3-26.3,26.3H427.8
		c-14.5,0-26.3-11.8-26.3-26.3V904.2C401.6,889.7,413.3,877.9,427.8,877.9z"/>
	<path class="st0" d="M749.9,877.9h195.6c14.5,0,26.3,11.8,26.3,26.3v217.7c0,14.5-11.8,26.3-26.3,26.3H749.9
		c-14.5,0-26.3-11.8-26.3-26.3V904.2C723.6,889.7,735.4,877.9,749.9,877.9z"/>
	<path class="st0" d="M1072,877.9h195.6c14.5,0,26.3,11.8,26.3,26.3v217.7c0,14.5-11.8,26.3-26.3,26.3H1072
		c-14.5,0-26.3-11.8-26.3-26.3V904.2C1045.7,889.7,1057.4,877.9,1072,877.9z"/>
	<path class="st0" d="M1394,877.9h195.6c14.5,0,26.3,11.8,26.3,26.3v217.7c0,14.5-11.8,26.3-26.3,26.3H1394
		c-14.5,0-26.3-11.8-26.3-26.3V904.2C1367.7,889.7,1379.5,877.9,1394,877.9z"/>
</g>
<g id="világos">
	<path class="st1" d="M81,151.2h1539.6c13.3,0,24,10.7,24,24v595.1c0,13.3-10.7,24-24,24H81c-13.3,0-24-10.7-24-24V175.2
		C57,162,67.7,151.2,81,151.2z"/>
	<circle class="st2" cx="144.2" cy="1044.1" r="17.4"/>
	<circle class="st2" cx="271.8" cy="1044.1" r="17.4"/>
	<polyline class="st2" points="119,1050.9 104.7,1044.1 104.7,1007 133.3,997.4 160.7,981.4 160.7,967.4 226,967.4 226,981 250,999 
			"/>
	<line class="st2" x1="104.7" y1="1017.4" x2="120" y2="1017.4"/>
	<path class="st2" d="M133.3,997.4l16.2,11.8h115.6c0.7,0,1.3,0.1,2,0.2l25.2,4.8c10,1.9,17.4,10.5,17.7,20.7l0.4,10.4
		c0.1,3-2.3,5.5-5.3,5.6c0,0,0,0,0,0h-9.6"/>
	<line class="st2" x1="168.4" y1="1050.9" x2="244.4" y2="1050.9"/>
	<path class="st2" d="M195.3,1017.4v33.5"/>
	<line class="st2" x1="160.7" y1="981.4" x2="226" y2="981.4"/>
	<line class="st2" x1="195.3" y1="981.4" x2="195.3" y2="1002.8"/>
	<line class="st2" x1="186.7" y1="967.4" x2="186.7" y2="949.4"/>
	<line class="st2" x1="201.6" y1="967.4" x2="201.6" y2="949.4"/>
	<line class="st2" x1="178.9" y1="949.4" x2="208.6" y2="949.4"/>
	<path class="st2" d="M146.5,966.2c-8.2-4.9-10.8-15.5-5.9-23.6c1.7-2.8,4.1-5,6.9-6.5"/>
	<path class="st2" d="M121.2,985.3c-18.7-18.9-18.5-49.4,0.4-68.1c1.3-1.3,2.7-2.5,4.1-3.6"/>
	<path class="st2" d="M132.9,976.4c-13.8-12.4-14.9-33.7-2.5-47.5c1.6-1.8,3.5-3.5,5.5-4.9"/>
	<path class="st2" d="M246.6,934.1c8.5,4.3,11.8,14.7,7.5,23.2c-1.5,2.9-3.7,5.2-6.5,6.9"/>
	<path class="st2" d="M268.5,911.5c20.9,16.4,24.6,46.7,8.2,67.6c0,0,0,0,0,0c-1.1,1.4-2.4,2.8-3.6,4.1"/>
	<path class="st2" d="M258.4,922c15.2,10.8,18.7,31.8,7.9,46.9c0,0,0,0.1-0.1,0.1c-1.4,2-3.1,3.8-4.9,5.5"/>
	<path class="st2" d="M150.4,660.3c-8.2-4.9-10.8-15.5-5.9-23.6c1.7-2.8,4.1-5,6.9-6.5"/>
	<path class="st2" d="M125.1,679.4c-18.7-18.9-18.5-49.4,0.4-68.1c1.3-1.3,2.7-2.5,4.1-3.6"/>
	<path class="st2" d="M136.8,670.6c-13.8-12.4-15-33.7-2.5-47.5c0,0,0,0,0,0c1.7-1.8,3.5-3.5,5.5-4.9"/>
	<path class="st2" d="M250.6,628.2c8.5,4.3,11.8,14.7,7.5,23.2c-1.5,2.9-3.7,5.2-6.5,6.9"/>
	<path class="st2" d="M272.4,605.7c20.9,16.4,24.6,46.7,8.2,67.6c-1.1,1.4-2.4,2.8-3.6,4.1"/>
	<path class="st2" d="M262.3,616.2c15.1,10.8,18.7,31.8,7.9,46.9c0,0,0,0,0,0c-1.4,2-3.1,3.8-4.9,5.5"/>
	<path class="st2" d="M184.8,611.4h32.6c6.9,0,12.5,5.6,12.5,12.5v37.2c0,6.9-5.6,12.5-12.5,12.5h-32.6c-6.9,0-12.5-5.6-12.5-12.5
		V624C172.3,617,177.9,611.4,184.8,611.4z"/>
	<path class="st2" d="M137.8,290.5h80.7c7,0,12.6,5.6,12.6,12.6v37c0,7-5.6,12.6-12.6,12.6h-80.7c-7,0-12.6-5.6-12.6-12.6v-37
		C125.2,296.1,130.9,290.5,137.8,290.5z"/>
	<path class="st2" d="M267.7,346.9l-24.3-15.5c-1.7-1.1-2.7-3-2.7-5v-9.5c0-2,1-3.9,2.7-5l24.3-15.5c2.8-1.8,6.4-0.9,8.2,1.8
		c0.6,1,0.9,2.1,0.9,3.2v40.6c0,3.3-2.6,5.9-5.9,5.9c0,0,0,0,0,0C269.8,347.8,268.7,347.5,267.7,346.9z"/>
	<path class="st2" d="M1225.1,317.3l-39.5-10.5l-57.2-15.2c-4-1.1-8.1,1.3-9.2,5.3c-0.2,0.6-0.3,1.3-0.2,1.9v51.6
		c0,4.1,3.4,7.5,7.5,7.5l0,0c0.6,0,1.3-0.1,1.9-0.2l57.2-15.3l39.5-10.5c4-1.1,6.3-5.2,5.2-9.2C1229.6,320,1227.6,318,1225.1,317.3
		L1225.1,317.3z M1180.1,326.2c-0.1,0.2-0.1,0.3-0.2,0.5l-0.2,0.5c-0.1,0.2-0.2,0.3-0.3,0.5c-0.2,0.3-0.4,0.6-0.7,0.8l0,0
		l-10.8,10.8c-2.2,2.2-5.7,2.2-7.8,0c-2.2-2.2-2.2-5.7,0-7.8l0,0l0,0l1.4-1.4h-28.2c-3.1-0.1-5.4-2.7-5.3-5.8
		c0.1-2.9,2.4-5.2,5.3-5.3h28.2l-1.5-1.5c-2.1-2.2-2.1-5.7,0.1-7.8c2.1-2.1,5.6-2.1,7.7,0l10.9,10.9c0.3,0.3,0.5,0.6,0.7,0.9
		c0.2,0.3,0.3,0.6,0.5,0.9c0.1,0.1,0.1,0.3,0.2,0.4v0.1c0,0.2,0.1,0.4,0.1,0.5c0,0.2,0.1,0.4,0.1,0.6c0,0.2,0,0.5,0,0.7v0.4
		c0,0.2,0,0.4-0.1,0.7C1180.2,325.9,1180.2,326.1,1180.1,326.2L1180.1,326.2z"/>
	<path class="st3" d="M1180.3,325.7c0-0.2,0.1-0.4,0.1-0.7C1180.3,325.2,1180.3,325.4,1180.3,325.7z"/>
	<path class="st3" d="M1180.3,325v-0.3C1180.4,324.8,1180.4,324.9,1180.3,325z"/>
	<path class="st3" d="M1180.4,324.5V324C1180.4,324.2,1180.4,324.4,1180.4,324.5z"/>
	<path class="st3" d="M1179.5,321.5c-0.2-0.3-0.4-0.6-0.7-0.9C1179,320.9,1179.3,321.2,1179.5,321.5z"/>
	<path class="st2" d="M1225.1,539.3l-39.5-10.5l-57.2-15.2c-4-1.1-8.1,1.3-9.2,5.3c0,0,0,0,0,0c-0.2,0.6-0.3,1.3-0.2,1.9v51.6
		c0,4.1,3.4,7.5,7.5,7.5c0.6,0,1.3-0.1,1.9-0.2l57.2-15.2l39.5-10.5c4-1.1,6.4-5.2,5.3-9.2C1229.7,542,1227.7,540,1225.1,539.3z
		 M1180.1,548.2c-0.1,0.2-0.1,0.3-0.2,0.5c-0.1,0.2-0.2,0.3-0.2,0.5c-0.1,0.2-0.2,0.3-0.3,0.5c-0.2,0.3-0.4,0.6-0.7,0.8l0,0
		l-10.8,10.8c-2.2,2.2-5.7,2.2-7.8,0c-2.2-2.2-2.2-5.7,0-7.8l0,0l0,0l1.4-1.4h-28.2c-3.1,0-5.5-2.5-5.5-5.5c0-3.1,2.5-5.5,5.5-5.5
		h28.2l-1.5-1.5c-2.1-2.2-2.1-5.7,0.1-7.8c2.1-2.1,5.6-2.1,7.7,0l10.9,10.9c0.3,0.3,0.5,0.6,0.7,0.9c0.2,0.3,0.3,0.6,0.5,0.9
		c0.1,0.2,0.1,0.3,0.2,0.4v0.1c0,0.2,0.1,0.4,0.1,0.5c0,0.2,0.1,0.4,0.1,0.6c0,0.2,0,0.5,0,0.7v0.3c0,0.2,0,0.5-0.1,0.7
		C1180.2,547.9,1180.2,548,1180.1,548.2L1180.1,548.2z"/>
	<path class="st3" d="M1180.3,547.7c0-0.2,0.1-0.5,0.1-0.7C1180.3,547.2,1180.3,547.5,1180.3,547.7z"/>
	<path class="st3" d="M1180.3,547v-0.3C1180.4,546.8,1180.4,546.9,1180.3,547z"/>
	<path class="st3" d="M1180.4,546.6V546C1180.4,546.2,1180.4,546.4,1180.4,546.6z"/>
	<path class="st3" d="M1179.5,543.5c-0.2-0.3-0.4-0.6-0.7-0.9C1179,542.9,1179.3,543.2,1179.5,543.5z"/>
	<line class="st2" x1="128" y1="442.6" x2="158.5" y2="463.7"/>
	<path class="st2" d="M183.2,446.3h32.6c6.9,0,12.5,5.6,12.5,12.5V496c0,6.9-5.6,12.5-12.5,12.5h-32.6c-6.9,0-12.5-5.6-12.5-12.5
		v-37.2C170.6,451.9,176.3,446.3,183.2,446.3z"/>
	<line class="st2" x1="158.5" y1="472.9" x2="117.3" y2="461.4"/>
	<line class="st2" x1="128" y1="520.9" x2="158.5" y2="499.7"/>
	<line class="st2" x1="158.5" y1="490.5" x2="117.3" y2="502.1"/>
	<line class="st2" x1="158.5" y1="482.4" x2="111" y2="482.4"/>
	<line class="st2" x1="274" y1="443.2" x2="243.5" y2="464.4"/>
	<line class="st2" x1="243.5" y1="473.6" x2="284.7" y2="462"/>
	<line class="st2" x1="274" y1="521.5" x2="243.5" y2="500.4"/>
	<line class="st2" x1="243.5" y1="491.2" x2="284.7" y2="502.8"/>
	<line class="st2" x1="243.5" y1="483" x2="291.1" y2="483"/>
	<line class="st2" x1="443.7" y1="286.5" x2="443.7" y2="507.5"/>
	<line class="st2" x1="603.7" y1="286.5" x2="603.7" y2="507.5"/>
	<line class="st2" x1="523.7" y1="286.5" x2="523.7" y2="298.5"/>
	<line class="st4" x1="523.7" y1="320.4" x2="523.7" y2="484.6"/>
	<line class="st2" x1="523.7" y1="495.5" x2="523.7" y2="507.5"/>
	<path class="st2" d="M552.2,660.3c21.2-15.8,25.7-45.7,9.9-67c-15.8-21.2-45.7-25.7-67-9.9c-21.2,15.8-25.7,45.7-9.9,67
		c2.8,3.8,6.1,7.1,9.9,9.9"/>
	<path class="st2" d="M493.6,660.3h61c2.6,0,4.6,2.1,4.6,4.6v4.1c0,2.6-2.1,4.6-4.6,4.6h-61c-2.6,0-4.6-2.1-4.6-4.6v-4.1
		C489,662.4,491.1,660.3,493.6,660.3z"/>
	<path class="st2" d="M481.7,674.2h83.9c2.6,0,4.6,2.1,4.6,4.6v4.1c0,2.6-2.1,4.6-4.6,4.6h-83.9c-2.6,0-4.6-2.1-4.6-4.6v-4.1
		C477.1,676.3,479.2,674.2,481.7,674.2z"/>
	<path class="st5" d="M498.8,586h1.5c0.1,6.6,5.5,11.9,12.1,11.9c0,0,0,0,0,0l0,0v1.5c-6.6,0.1-11.9,5.5-11.9,12.1c0,0,0,0,0,0H499
		c-0.1-6.6-5.5-12-12.1-11.9c0,0,0,0,0,0l0,0v-1.5C493.5,598,498.8,592.6,498.8,586z"/>
	<path class="st5" d="M532.9,631.5h1.1c0.1,5.2,4.3,9.4,9.6,9.3v1.1c-5.2,0.1-9.4,4.3-9.3,9.6H533c0-5.2-4.3-9.4-9.5-9.4
		c0,0,0,0,0,0l0,0V641C528.7,641,532.9,636.8,532.9,631.5z"/>
	<line class="st5" x1="499.6" y1="635.2" x2="500" y2="635.2"/>
	<line class="st5" x1="519.3" y1="618.6" x2="519.2" y2="618.6"/>
	<line class="st5" x1="538.8" y1="601.6" x2="538.7" y2="601.6"/>
	<line class="st5" x1="535.4" y1="608.9" x2="535.3" y2="608.9"/>
	<line class="st5" x1="538.3" y1="594" x2="538.3" y2="594"/>
	<path class="st5" d="M562.2,453.8h9.2c5.5,0,9.9,4.4,9.9,9.9v29.1c0,5.5-4.4,9.9-9.9,9.9h-9.2c-5.5,0-9.9-4.4-9.9-9.9v-29.1
		C552.3,458.2,556.7,453.8,562.2,453.8z"/>
	<path class="st5" d="M562.2,352.7h9.2c5.5,0,9.9,4.4,9.9,9.9v29.1c0,5.5-4.4,9.9-9.9,9.9h-9.2c-5.5,0-9.9-4.4-9.9-9.9v-29.1
		C552.3,357.1,556.7,352.7,562.2,352.7z"/>
	<path class="st5" d="M479.1,308.4h9.2c5.5,0,9.9,4.4,9.9,9.9v29.1c0,5.5-4.4,9.9-9.9,9.9h-9.2c-5.5,0-9.9-4.4-9.9-9.9v-29.1
		C469.1,312.9,473.6,308.4,479.1,308.4z"/>
	<polyline class="st5" points="483.7,380.8 483.7,401.6 477.6,395.6 	"/>
	<polyline class="st5" points="483.7,401.6 483.7,401.6 489.7,395.6 	"/>
	<line class="st5" x1="483.7" y1="367" x2="483.7" y2="401.6"/>
	<polyline class="st5" points="566.8,329.5 566.8,308.7 572.8,314.7 	"/>
	<polyline class="st5" points="566.8,308.7 566.8,308.7 560.8,314.7 	"/>
	<line class="st5" x1="566.8" y1="343.3" x2="566.8" y2="308.7"/>
	<polyline class="st5" points="566.8,440 566.8,419.2 572.8,425.2 	"/>
	<polyline class="st5" points="566.8,419.2 566.8,419.2 560.8,425.2 	"/>
	<line class="st5" x1="566.8" y1="444.9" x2="566.8" y2="419.2"/>
	<line class="st2" x1="768" y1="282.1" x2="768" y2="691"/>
	<line class="st2" x1="928" y1="282.1" x2="928" y2="691"/>
	<line class="st2" x1="848" y1="282.1" x2="848" y2="294.1"/>
	<line class="st6" x1="848" y1="316.7" x2="848" y2="667.7"/>
	<line class="st2" x1="848" y1="679" x2="848" y2="691"/>
	<path class="st5" d="M886.5,572.8h9.2c5.5,0,9.9,4.4,9.9,9.9v29.1c0,5.5-4.4,9.9-9.9,9.9h-9.2c-5.5,0-9.9-4.4-9.9-9.9v-29.1
		C876.6,577.2,881,572.8,886.5,572.8z"/>
	<path class="st5" d="M886.5,348.3h9.2c5.5,0,9.9,4.4,9.9,9.9v29.1c0,5.5-4.4,9.9-9.9,9.9h-9.2c-5.5,0-9.9-4.4-9.9-9.9v-29.1
		C876.6,352.8,881,348.3,886.5,348.3z"/>
	<path class="st5" d="M803.4,592.7h9.2c5.5,0,9.9,4.4,9.9,9.9v29.1c0,5.5-4.4,9.9-9.9,9.9h-9.2c-5.5,0-9.9-4.4-9.9-9.9v-29.1
		C793.5,597.1,797.9,592.7,803.4,592.7z"/>
	<polyline class="st5" points="808,665.1 808,685.9 802,679.9 	"/>
	<polyline class="st5" points="808,685.9 808,685.9 814,679.9 	"/>
	<line class="st5" x1="808" y1="651.3" x2="808" y2="685.9"/>
	<polyline class="st5" points="891.1,325.2 891.1,304.3 897.1,310.4 	"/>
	<polyline class="st5" points="891.1,304.3 891.1,304.3 885.1,310.3 	"/>
	<line class="st5" x1="891.1" y1="338.9" x2="891.1" y2="304.3"/>
	<polyline class="st5" points="888.1,511.3 888.1,490.5 894.1,496.5 	"/>
	<polyline class="st5" points="888.1,490.5 888.1,490.5 882.1,496.5 	"/>
	<line class="st5" x1="888.1" y1="548.3" x2="888.1" y2="490.5"/>
	<path class="st7" d="M888.1,564.8v-0.6c0-27.5-5-25-14-34l-46.4-46.4c-9-9-17.8-20.8-21.2-41v-96.2"/>
	<polyline class="st2" points="795.6,358.5 806.8,347.3 818.1,358.6 	"/>
	<path class="st2" d="M1225.1,428.3l-39.5-10.5l-57.2-15.2c-4-1.1-8.1,1.3-9.2,5.3c-0.2,0.6-0.3,1.3-0.2,1.9v51.6
		c0,4.1,3.4,7.5,7.5,7.5l0,0c0.6,0,1.3-0.1,1.9-0.2l57.2-15.3l39.5-10.5c4-1.1,6.3-5.2,5.2-9.2C1229.6,431,1227.6,429,1225.1,428.3
		L1225.1,428.3z M1180.1,437.2c-0.1,0.2-0.1,0.3-0.2,0.5c-0.1,0.2-0.2,0.3-0.2,0.5c-0.1,0.2-0.2,0.3-0.3,0.5
		c-0.2,0.3-0.4,0.6-0.7,0.8l0,0l-10.8,10.8c-2.2,2.2-5.7,2.2-7.8,0c-2.2-2.2-2.2-5.7,0-7.8l0,0l1.4-1.4h-28.2
		c-3.1,0-5.5-2.5-5.5-5.5c0-3.1,2.5-5.5,5.5-5.5h28.2l-1.5-1.5c-2.1-2.2-2.1-5.7,0.1-7.8c2.1-2.1,5.6-2.1,7.7,0l10.9,10.9
		c0.3,0.3,0.5,0.6,0.7,0.9c0.2,0.3,0.3,0.6,0.5,0.9c0.1,0.1,0.1,0.3,0.2,0.4v0.1c0,0.2,0.1,0.4,0.1,0.5c0,0.2,0.1,0.4,0.1,0.6
		c0,0.2,0,0.5,0,0.7v0.3c0,0.2,0,0.4-0.1,0.7C1180.2,436.9,1180.2,437,1180.1,437.2L1180.1,437.2z"/>
	<path class="st3" d="M1180.3,436.7c0-0.2,0.1-0.4,0.1-0.7C1180.3,436.2,1180.3,436.4,1180.3,436.7z"/>
	<path class="st3" d="M1180.3,436v-0.3C1180.4,435.8,1180.4,435.9,1180.3,436z"/>
	<path class="st3" d="M1180.4,435.6V435C1180.4,435.2,1180.4,435.4,1180.4,435.6z"/>
	<path class="st3" d="M1179.5,432.5c-0.2-0.3-0.4-0.6-0.7-0.9C1179,431.9,1179.3,432.2,1179.5,432.5z"/>
	<line class="st2" x1="1058.6" y1="435.5" x2="1119.1" y2="435.5"/>
	<path class="st2" d="M1077,436v222.2c0,9.2,7.5,16.7,16.7,16.7h156.6c9.2,0,16.7-7.5,16.7-16.7V436"/>
	<path class="st2" d="M1230.6,435h43.8"/>
	<path class="st2" d="M1116.2,325.3h-4.3c-4.4,0-8,3.6-8,8v205.2c0,4.4,3.6,8,8,8h4.3"/>
	<path class="st2" d="M1234.5,325.2h4.3c4.4,0,8,3.6,8,8v205.3c0,4.4-3.6,8-8,8h-4.3"/>
	<line class="st2" x1="1077" y1="419" x2="1077" y2="428.8"/>
	<line class="st2" x1="1072.1" y1="423.9" x2="1082" y2="423.9"/>
	<line class="st2" x1="1085.2" y1="446.2" x2="1095.1" y2="446.2"/>
	<circle class="st2" cx="1491.6" cy="416.5" r="67.2"/>
	<path class="st2" d="M1427.4,396.5l46.6-4.3c11.7-1.1,23.5-1.1,35.2,0l46.5,4.3"/>
	<path class="st2" d="M1474.6,481.5c0.2-1.9,0.3-3.8,0.3-5.7c0-28.7-21.8-52.7-50.4-55.5"/>
	<path class="st2" d="M1508.5,481.5c-0.2-1.9-0.3-3.8-0.3-5.7c0-28.7,21.8-52.7,50.4-55.5"/>
	<circle class="st2" cx="846.7" cy="1031.6" r="39.6"/>
	<path class="st2" d="M808.9,1019.8l27.4-2.5c6.9-0.6,13.8-0.6,20.8,0l27.5,2.5"/>
	<path class="st2" d="M836.7,1070c0.1-1.1,0.2-2.2,0.2-3.4c0-16.9-12.9-31.1-29.7-32.7"/>
	<path class="st2" d="M856.7,1070c-0.1-1.1-0.2-2.2-0.2-3.4c0-16.9,12.9-31.1,29.7-32.7"/>
	<path class="st2" d="M1539.1,526.3h15.6c6.6,0,12,5.4,12,12v46.1c0,6.6-5.4,12-12,12h-15.6c-6.6,0-12-5.4-12-12v-46.1
		C1527.1,531.7,1532.5,526.3,1539.1,526.3z"/>
	<path class="st2" d="M1436.4,542.6h58.6c6.6,0,12,5.4,12,12v27.1c0,6.6-5.4,12-12,12h-58.6c-6.6,0-12-5.4-12-12v-27.1
		C1424.4,548,1429.8,542.6,1436.4,542.6z"/>
	<polygon class="st2" points="1538,551.7 1538,575 1558.1,563.3 	"/>
	<path class="st2" d="M1454.1,555.3h3.4c2,0,3.6,1.6,3.6,3.6v18.4c0,2-1.6,3.6-3.6,3.6h-3.4c-2,0-3.6-1.6-3.6-3.6v-18.4
		C1450.4,556.9,1452.1,555.3,1454.1,555.3z"/>
	<path class="st2" d="M1474,555.3h3.4c2,0,3.6,1.6,3.6,3.6v18.4c0,2-1.6,3.6-3.6,3.6h-3.4c-2,0-3.6-1.6-3.6-3.6v-18.4
		C1470.3,556.9,1471.9,555.3,1474,555.3z"/>
	<path class="st2" d="M485.4,912.5h83.8c10.9,0,19.8,8.9,19.8,19.8v94c0,6.7-3.4,13-9.1,16.7l-41.3,26.6c-6.4,4.1-14.7,4.2-21.2,0.2
		l-42.5-26.4c-5.8-3.6-9.3-10-9.3-16.8v-94.2C465.6,921.4,474.4,912.6,485.4,912.5L485.4,912.5L485.4,912.5z"/>
	<path class="st2" d="M502,986.7l3.3-3.3c1.3-1.3,3.3-1.3,4.5,0l0,0l10.4,10.5c1.3,1.3,3.3,1.3,4.6,0l26.5-26.5
		c1.3-1.3,3.3-1.3,4.5,0l0,0l3.7,3.7c1.3,1.3,1.3,3.3,0,4.5l0,0l-34.4,34.4c-1.3,1.3-3.3,1.3-4.5,0l0,0L502,991.2
		C500.8,990,500.8,987.9,502,986.7z"/>
	<path class="st2" d="M485,924.8h84.5c5.2,0.8,9.5,5.1,9.5,10.3v89.8c0,3.2-1.6,6.2-4.3,8l-41.6,26.8c-3.1,2-7,2-10.1,0.1
		l-42.9-26.6c-2.8-1.7-4.4-4.7-4.5-8v-90C475.6,929.9,479.8,925.6,485,924.8z"/>
	<path class="st2" d="M789,1027.2h-16.9c-6.6,0-12-5.4-12-12v-83.6c0-6.6,5.4-12,12-12h150.2c6.6,0,12,5.4,12,12v83.6
		c0,6.6-5.4,12-12,12h-15.5"/>
	<line class="st2" x1="794.8" y1="992.8" x2="821.7" y2="920"/>
	<line class="st2" x1="875.7" y1="920" x2="902.6" y2="992.8"/>
	<line class="st8" x1="847.5" y1="920" x2="847.5" y2="979.2"/>
	<circle class="st2" cx="1169.7" cy="954.7" r="40"/>
	<path class="st2" d="M1194,986.4h2.8c21.6,0,39.1,17.5,39.1,39.1v17h-132.4v-17c0-21.6,17.5-39.1,39.1-39.1h2.8"/>
	<ellipse class="st2" cx="1539.4" cy="928.5" rx="36.7" ry="13.3"/>
	<path class="st2" d="M1502.5,1016.1c0,7.4,16.4,13.3,36.7,13.3s36.7-6,36.7-13.3"/>
	<path class="st2" d="M1502.5,994.5c0,7.4,16.4,13.3,36.7,13.3s36.7-6,36.7-13.3"/>
	<path class="st2" d="M1502.5,972.9c0,7.4,16.4,13.3,36.7,13.3s36.7-6,36.7-13.3"/>
	<path class="st2" d="M1502.5,951.3c0,7.4,16.4,13.3,36.7,13.3s36.7-6,36.7-13.3"/>
	<line class="st2" x1="1502.7" y1="928.5" x2="1502.7" y2="1014.2"/>
	<line class="st2" x1="1576.2" y1="930.3" x2="1576.2" y2="1015.9"/>
	<ellipse class="st2" cx="1415.9" cy="937.8" rx="8.6" ry="8.4"/>
	<ellipse class="st2" cx="1415.9" cy="1009.8" rx="8.6" ry="8.4"/>
	<ellipse class="st2" cx="1455.8" cy="939" rx="8.6" ry="8.4"/>
	<line class="st2" x1="1415.9" y1="946.2" x2="1415.9" y2="1001.4"/>
	<path class="st2" d="M1455.8,947.4v2.7c0,8.2-6.7,14.9-14.9,14.9h-10.4c-8.2,0-14.9,6.7-14.9,14.9l0,0v1.6"/>
	<polygon class="st0" points="362,515.9 362,500.9 341.4,500.9 341.4,474.1 362,474.1 362,459.1 390.4,487.6 	"/>
	<polygon class="st0" points="684.1,515.9 684.1,500.9 663.5,500.9 663.5,474.1 684.1,474.1 684.1,459.1 712.5,487.6 	"/>
	<polygon class="st0" points="1006.2,515.9 1006.2,500.9 985.6,500.9 985.6,474.1 1006.2,474.1 1006.2,459.1 1034.6,487.6 	"/>
	<polygon class="st0" points="1328.3,515.9 1328.3,500.9 1307.7,500.9 1307.7,474.1 1328.3,474.1 1328.3,459.1 1356.8,487.6 	"/>
</g>
<g id="forditott">
	<g id="contr">
		<path class="st9" d="M1071.5,181.4h195.6c14.5,0,26.3,11.8,26.3,26.3v534.1c0,14.5-11.8,26.3-26.3,26.3h-195.6
			c-14.5,0-26.3-11.8-26.3-26.3V207.7C1045.2,193.2,1057,181.4,1071.5,181.4z"/>
		<path class="st10" d="M1224.6,317.7l-39.5-10.5l-57.2-15.2c-4-1.1-8.1,1.3-9.2,5.3c-0.2,0.6-0.2,1.3-0.2,1.9v51.6
			c0,4.1,3.4,7.5,7.5,7.5l0,0c0.6,0,1.3,0,1.9-0.2l57.2-15.3l39.5-10.5c4-1.1,6.3-5.2,5.2-9.2
			C1229.1,320.5,1227.2,318.5,1224.6,317.7L1224.6,317.7z M1179.6,326.6c-0.1,0.2-0.1,0.3-0.2,0.5l-0.2,0.5
			c-0.1,0.2-0.2,0.3-0.3,0.5c-0.2,0.3-0.4,0.6-0.7,0.8l0,0l-10.8,10.8c-2.2,2.2-5.7,2.2-7.8,0c-2.2-2.2-2.2-5.7,0-7.8l0,0l1.4-1.4
			h-28.2c-3.1-0.1-5.4-2.7-5.3-5.8c0.1-2.9,2.4-5.2,5.3-5.3h28.2l-1.5-1.5c-2.1-2.2-2.1-5.7,0.1-7.8c2.1-2.1,5.6-2.1,7.7,0
			l10.9,10.9c0.3,0.3,0.5,0.6,0.7,0.9c0.2,0.3,0.3,0.6,0.5,0.9c0.1,0.1,0.1,0.3,0.2,0.4v0.1c0,0.2,0.1,0.4,0.1,0.5
			c0,0.2,0.1,0.4,0.1,0.6c0,0.2,0,0.5,0,0.7v0.3c0,0.2,0,0.4-0.1,0.7C1179.8,326.3,1179.7,326.5,1179.6,326.6L1179.6,326.6z"/>
		<path class="st3" d="M1179.8,326.1c0-0.2,0.1-0.4,0.1-0.7C1179.9,325.7,1179.9,325.9,1179.8,326.1z"/>
		<path class="st3" d="M1179.9,325.4v-0.3C1179.9,325.2,1179.9,325.3,1179.9,325.4z"/>
		<path class="st3" d="M1179.9,325v-0.6C1179.9,324.6,1179.9,324.8,1179.9,325z"/>
		<path class="st3" d="M1179,322c-0.2-0.3-0.4-0.6-0.7-0.9C1178.6,321.4,1178.8,321.7,1179,322z"/>
		<path class="st10" d="M1224.6,539.7l-39.5-10.5L1128,514c-4-1.1-8.1,1.3-9.2,5.3c0,0,0,0,0,0c-0.2,0.6-0.2,1.3-0.2,1.9v51.6
			c0,4.1,3.4,7.5,7.5,7.5c0.6,0,1.3-0.1,1.9-0.3l57.2-15.2l39.5-10.5c4-1.1,6.4-5.2,5.3-9.2C1229.2,542.5,1227.2,540.5,1224.6,539.7
			L1224.6,539.7z M1179.6,548.7c-0.1,0.2-0.1,0.3-0.2,0.5c-0.1,0.2-0.2,0.3-0.2,0.5c-0.1,0.2-0.2,0.3-0.3,0.5
			c-0.2,0.3-0.4,0.6-0.7,0.8l0,0l-10.8,10.8c-2.2,2.2-5.7,2.2-7.8,0c-2.2-2.2-2.2-5.7,0-7.8l0,0l1.4-1.4h-28.2
			c-3.1,0-5.5-2.5-5.5-5.5c0-3.1,2.5-5.5,5.5-5.5h28.2l-1.5-1.5c-2.1-2.2-2.1-5.7,0.1-7.8c2.1-2.1,5.6-2.1,7.7,0l10.9,10.9
			c0.3,0.3,0.5,0.6,0.7,0.9c0.2,0.3,0.3,0.6,0.5,0.9c0.1,0.2,0.1,0.3,0.2,0.4v0.1c0,0.2,0.1,0.4,0.1,0.5c0,0.2,0.1,0.4,0.1,0.6
			c0,0.2,0,0.5,0,0.7v0.3c0,0.2,0,0.5-0.1,0.7C1179.8,548.3,1179.7,548.5,1179.6,548.7L1179.6,548.7z"/>
		<path class="st3" d="M1179.8,548.1c0-0.2,0.1-0.5,0.1-0.7C1179.9,547.7,1179.9,547.9,1179.8,548.1z"/>
		<path class="st3" d="M1179.9,547.5v-0.3C1179.9,547.2,1179.9,547.4,1179.9,547.5z"/>
		<path class="st3" d="M1179.9,547v-0.6C1179.9,546.6,1179.9,546.8,1179.9,547z"/>
		<path class="st3" d="M1179,544c-0.2-0.3-0.4-0.6-0.7-0.9C1178.6,543.4,1178.8,543.7,1179,544z"/>
		<path class="st10" d="M1224.6,428.7l-39.5-10.5L1128,403c-4-1.1-8.1,1.3-9.2,5.3c-0.2,0.6-0.2,1.3-0.2,1.9v51.6
			c0,4.1,3.4,7.5,7.5,7.5l0,0c0.6,0,1.3-0.1,1.9-0.3l57.2-15.3l39.5-10.5c4-1.1,6.3-5.2,5.2-9.2
			C1229.1,431.4,1227.2,429.5,1224.6,428.7L1224.6,428.7z M1179.6,437.7c-0.1,0.2-0.1,0.3-0.2,0.5c-0.1,0.2-0.2,0.3-0.2,0.5
			c-0.1,0.2-0.2,0.3-0.3,0.5c-0.2,0.3-0.4,0.6-0.7,0.8l0,0l-10.8,10.8c-2.2,2.2-5.7,2.2-7.8,0c-2.2-2.2-2.2-5.7,0-7.8l0,0l1.4-1.4
			h-28.2c-3.1,0-5.5-2.5-5.5-5.5c0-3.1,2.5-5.5,5.5-5.5h28.2l-1.5-1.5c-2.1-2.2-2.1-5.7,0.1-7.8c2.1-2.1,5.6-2.1,7.7,0l10.9,10.9
			c0.3,0.3,0.5,0.6,0.7,0.9c0.2,0.3,0.3,0.6,0.5,0.9c0.1,0.1,0.1,0.3,0.2,0.4v0.1c0,0.2,0.1,0.4,0.1,0.5c0,0.2,0.1,0.4,0.1,0.6
			c0,0.2,0,0.5,0,0.7v0.3c0,0.2,0,0.4-0.1,0.7C1179.8,437.3,1179.7,437.5,1179.6,437.7L1179.6,437.7z"/>
		<path class="st3" d="M1179.8,437.1c0-0.2,0.1-0.4,0.1-0.7C1179.9,436.7,1179.9,436.9,1179.8,437.1z"/>
		<path class="st3" d="M1179.9,436.5v-0.3C1179.9,436.2,1179.9,436.3,1179.9,436.5z"/>
		<path class="st3" d="M1179.9,436v-0.6C1179.9,435.6,1179.9,435.8,1179.9,436z"/>
		<path class="st3" d="M1179,433c-0.2-0.3-0.4-0.6-0.7-0.9C1178.6,432.4,1178.8,432.7,1179,433z"/>
		<line class="st10" x1="1058.1" y1="436" x2="1118.6" y2="436"/>
		<path class="st10" d="M1076.6,436.5v222.2c0,9.2,7.5,16.7,16.7,16.7h156.6c9.2,0,16.7-7.4,16.7-16.7c0,0,0,0,0,0V436.5"/>
		<path class="st10" d="M1230.2,435.5h43.8"/>
		<path class="st10" d="M1115.7,325.8h-4.3c-4.4,0-8,3.6-8,8V539c0,4.4,3.6,8,8,8h4.3"/>
		<path class="st10" d="M1234.1,325.6h4.3c4.4,0,8,3.6,8,8v205.3c0,4.4-3.6,8-8,8h-4.3"/>
		<line class="st10" x1="1076.6" y1="419.4" x2="1076.6" y2="429.3"/>
		<line class="st10" x1="1071.7" y1="424.4" x2="1081.5" y2="424.4"/>
		<line class="st10" x1="1084.8" y1="446.6" x2="1094.6" y2="446.6"/>
	</g>
	<g id="plan">
		<path class="st9" d="M749.5,181.4h195.6c14.5,0,26.3,11.8,26.3,26.3v534.1c0,14.5-11.8,26.3-26.3,26.3H749.5
			c-14.5,0-26.3-11.8-26.3-26.3V207.7C723.2,193.2,734.9,181.4,749.5,181.4z"/>
		<line class="st10" x1="767.5" y1="282.5" x2="767.5" y2="691.5"/>
		<line class="st10" x1="927.5" y1="282.5" x2="927.5" y2="691.5"/>
		<line class="st10" x1="847.5" y1="282.5" x2="847.5" y2="294.5"/>
		<line class="st11" x1="847.5" y1="317.2" x2="847.5" y2="668.1"/>
		<line class="st10" x1="847.5" y1="679.5" x2="847.5" y2="691.5"/>
		<path class="st12" d="M886.1,573.2h9.2c5.5,0,9.9,4.4,9.9,9.9v29.1c0,5.5-4.4,9.9-9.9,9.9h-9.2c-5.5,0-9.9-4.4-9.9-9.9v-29.1
			C876.1,577.7,880.6,573.2,886.1,573.2z"/>
		<path class="st12" d="M886.1,348.8h9.2c5.5,0,9.9,4.4,9.9,9.9v29.1c0,5.5-4.4,9.9-9.9,9.9h-9.2c-5.5,0-9.9-4.4-9.9-9.9v-29.1
			C876.1,353.2,880.6,348.8,886.1,348.8z"/>
		<path class="st12" d="M803,593.1h9.2c5.5,0,9.9,4.4,9.9,9.9v29.1c0,5.5-4.4,9.9-9.9,9.9H803c-5.5,0-9.9-4.4-9.9-9.9V603
			C793,597.6,797.5,593.1,803,593.1z"/>
		<polyline class="st12" points="807.6,665.5 807.6,686.3 801.5,680.3 		"/>
		<polyline class="st12" points="807.6,686.3 807.6,686.3 813.6,680.3 		"/>
		<line class="st12" x1="807.6" y1="651.7" x2="807.6" y2="686.3"/>
		<polyline class="st12" points="890.7,325.6 890.7,304.8 896.7,310.8 		"/>
		<polyline class="st12" points="890.7,304.8 890.7,304.8 884.7,310.8 		"/>
		<line class="st12" x1="890.7" y1="339.4" x2="890.7" y2="304.8"/>
		<polyline class="st12" points="887.6,511.8 887.6,490.9 893.6,497 		"/>
		<polyline class="st12" points="887.6,490.9 887.6,490.9 881.6,496.9 		"/>
		<line class="st12" x1="887.6" y1="548.8" x2="887.6" y2="490.9"/>
		<path class="st13" d="M887.6,565.2v-0.6c0-27.5-5-25-14-34l-46.4-46.4c-9-9-17.8-20.8-21.2-41v-96.2"/>
		<polyline class="st10" points="795.1,359 806.3,347.8 817.6,359.1 		"/>
	</g>
	<g id="eszl">
		<path class="st9" d="M427.4,181.4H623c14.5,0,26.3,11.8,26.3,26.3v534.1c0,14.5-11.8,26.3-26.3,26.3H427.4
			c-14.5,0-26.3-11.8-26.3-26.3V207.7C401.1,193.2,412.9,181.4,427.4,181.4z"/>
		<line class="st10" x1="443.2" y1="286.9" x2="443.2" y2="508"/>
		<line class="st10" x1="603.2" y1="286.9" x2="603.2" y2="508"/>
		<line class="st10" x1="523.2" y1="286.9" x2="523.2" y2="298.9"/>
		<line class="st14" x1="523.2" y1="320.8" x2="523.2" y2="485"/>
		<line class="st10" x1="523.2" y1="496" x2="523.2" y2="508"/>
		<path class="st10" d="M551.8,660.8c21.2-15.8,25.7-45.7,9.9-67c-15.8-21.2-45.7-25.7-67-9.9c-21.2,15.8-25.7,45.7-9.9,67
			c2.8,3.8,6.1,7.1,9.9,9.9"/>
		<path class="st10" d="M493.2,660.8h61c2.6,0,4.6,2.1,4.6,4.6v4.1c0,2.6-2.1,4.6-4.6,4.6h-61c-2.6,0-4.6-2.1-4.6-4.6v-4.1
			C488.5,662.8,490.6,660.8,493.2,660.8z"/>
		<path class="st10" d="M481.3,674.6h83.9c2.6,0,4.6,2.1,4.6,4.6v4.1c0,2.6-2.1,4.6-4.6,4.6h-83.9c-2.6,0-4.6-2.1-4.6-4.6v-4.1
			C476.7,676.7,478.7,674.6,481.3,674.6z"/>
		<path class="st12" d="M498.3,586.4h1.5c0.1,6.6,5.5,11.9,12.1,11.9c0,0,0,0,0,0l0,0v1.5c-6.6,0.1-11.9,5.5-11.9,12.1c0,0,0,0,0,0
			h-1.5c-0.1-6.6-5.5-12-12.1-11.9c0,0,0,0,0,0l0,0v-1.5C493.1,598.5,498.4,593,498.3,586.4z"/>
		<path class="st12" d="M532.4,632h1.1c0.1,5.2,4.3,9.4,9.6,9.3v1.1c-5.2,0.1-9.4,4.3-9.3,9.6h-1.2c0-5.2-4.3-9.4-9.5-9.4
			c0,0,0,0,0,0l0,0v-1.2C528.3,641.5,532.4,637.2,532.4,632z"/>
		<line class="st12" x1="499.2" y1="635.7" x2="499.6" y2="635.7"/>
		<line class="st12" x1="518.8" y1="619.1" x2="518.8" y2="619.1"/>
		<line class="st12" x1="538.3" y1="602" x2="538.3" y2="602"/>
		<line class="st12" x1="534.9" y1="609.4" x2="534.9" y2="609.4"/>
		<line class="st12" x1="537.9" y1="594.5" x2="537.8" y2="594.5"/>
		<path class="st12" d="M561.7,454.2h9.2c5.5,0,9.9,4.4,9.9,9.9v29.1c0,5.5-4.4,9.9-9.9,9.9h-9.2c-5.5,0-9.9-4.4-9.9-9.9v-29.1
			C551.8,458.7,556.3,454.2,561.7,454.2z"/>
		<path class="st12" d="M561.7,353.1h9.2c5.5,0,9.9,4.4,9.9,9.9v29.1c0,5.5-4.4,9.9-9.9,9.9h-9.2c-5.5,0-9.9-4.4-9.9-9.9v-29.1
			C551.8,357.6,556.3,353.1,561.7,353.1z"/>
		<path class="st12" d="M478.6,308.9h9.2c5.5,0,9.9,4.4,9.9,9.9v29.1c0,5.5-4.4,9.9-9.9,9.9h-9.2c-5.5,0-9.9-4.4-9.9-9.9v-29.1
			C468.7,313.3,473.1,308.9,478.6,308.9z"/>
		<polyline class="st12" points="483.2,381.3 483.2,402.1 477.2,396.1 		"/>
		<polyline class="st12" points="483.2,402.1 483.2,402.1 489.2,396.1 		"/>
		<line class="st12" x1="483.2" y1="367.5" x2="483.2" y2="402.1"/>
		<polyline class="st12" points="566.3,330 566.3,309.1 572.3,315.2 		"/>
		<polyline class="st12" points="566.3,309.1 566.3,309.1 560.3,315.1 		"/>
		<line class="st12" x1="566.3" y1="343.8" x2="566.3" y2="309.1"/>
		<polyline class="st12" points="566.3,440.5 566.3,419.6 572.3,425.7 		"/>
		<polyline class="st12" points="566.3,419.6 566.3,419.6 560.3,425.6 		"/>
		<line class="st12" x1="566.3" y1="445.4" x2="566.3" y2="419.6"/>
	</g>
</g>
<g id="szöveg_ang">
	<path class="st15" d="M129.9,238.2c-3.9,0-6.9-0.8-9.4-3.4l3.3-3.2c1.7,1.5,3.9,2.3,6.2,2.2c3,0,4.6-1.1,4.6-3.2
		c0-0.8-0.2-1.6-0.8-2.2c-0.6-0.5-1.4-0.9-2.3-0.9l-3.1-0.4c-1.9-0.2-3.6-0.9-5-2.1c-1.3-1.4-2-3.2-1.8-5.1c0-4.6,3.4-7.8,9-7.8
		c3.5,0,6.1,0.9,8.3,3l-3.2,3.1c-1.5-1.3-3.4-1.9-5.3-1.8c-2.7,0-4,1.5-4,3.3c0,0.7,0.3,1.4,0.8,1.9c0.7,0.6,1.5,0.9,2.4,1l3,0.4
		c1.8,0.1,3.5,0.8,4.9,2c1.4,1.5,2.1,3.4,2,5.5C139.5,235.4,135.3,238.2,129.9,238.2z"/>
	<path class="st15" d="M144.2,238v-25.8h17v4.5h-12v6h10.2v4.5h-10.1v6.3h12v4.5L144.2,238z"/>
	<path class="st15" d="M181.4,238l-10.2-15.8V238h-5v-25.8h4.5l10.2,15.8v-15.8h5V238H181.4z"/>
	<path class="st15" d="M199,238.2c-3.9,0-6.9-0.8-9.4-3.4l3.3-3.2c1.7,1.5,3.9,2.3,6.2,2.2c3,0,4.6-1.1,4.6-3.2
		c0-0.8-0.2-1.6-0.8-2.2c-0.6-0.5-1.4-0.9-2.3-0.9l-3.2-0.4c-1.9-0.2-3.6-0.9-5-2.1c-1.3-1.4-2-3.2-1.9-5.1c0-4.6,3.4-7.8,9-7.8
		c3.6,0,6.1,0.9,8.3,3l-3.2,3.1c-1.4-1.3-3.4-1.9-5.3-1.8c-2.7,0-4,1.5-4,3.3c0,0.7,0.3,1.4,0.8,1.9c0.7,0.6,1.5,0.9,2.4,1l3,0.4
		c1.8,0.1,3.5,0.8,4.9,2c1.4,1.5,2.1,3.4,2,5.5C208.5,235.4,204.3,238.2,199,238.2z"/>
	<path class="st15" d="M213.2,238v-25.8h5V238H213.2z"/>
	<path class="st15" d="M239.5,238l-10.2-15.8V238h-5v-25.8h4.4L239,228v-15.8h5V238H239.5z"/>
	<path class="st15" d="M265.9,235.3c-1.9,2-4.5,3-7.3,2.9c-2.6,0.1-5.1-1-6.9-2.8c-1.1-1-1.8-2.4-2.1-3.9c-0.6-4.3-0.6-8.6,0-12.8
		c0.3-1.5,1-2.8,2.1-3.9c1.8-1.9,4.3-2.9,6.9-2.8c5.9,0,9,3.8,9.7,8.2h-5.1c-0.6-2.5-2.1-3.8-4.6-3.8c-1.2,0-2.4,0.5-3.2,1.4
		c-0.9,1.2-1.2,2.1-1.2,7.2s0.2,6.1,1.2,7.3c0.8,0.9,2,1.4,3.2,1.3c1.3,0.1,2.7-0.5,3.6-1.4c0.8-1,1.2-2.2,1.2-3.4v-1h-4.7v-4.2h9.7
		v3.8C268.4,231.2,267.7,233.4,265.9,235.3z"/>
	<path class="st15" d="M423.5,228.3h-5v9.7h-5v-25.8h10c5.3,0,8.5,3.7,8.5,8S428.8,228.3,423.5,228.3z M423.3,216.7h-4.7v7.1h4.7
		c1.9,0.2,3.7-1.3,3.8-3.2c0.2-1.9-1.3-3.7-3.2-3.8c0,0,0,0,0,0H423.3z"/>
	<path class="st15" d="M436.2,238v-25.8h17v4.5h-12v6h10.2v4.5h-10.1v6.3h11.9v4.5L436.2,238z"/>
	<path class="st15" d="M471.8,238l-5-10.3h-3.6V238h-5v-25.8h10.1c5.2,0,8.4,3.6,8.4,7.9c0.1,3-1.8,5.8-4.7,6.8l5.8,11.1H471.8z
		 M467.9,216.7h-4.7v6.8h4.7c1.9,0.1,3.5-1.3,3.6-3.2c0.1-1.9-1.3-3.5-3.1-3.6H467.9z"/>
	<path class="st15" d="M490.4,238.2c-2.6,0.1-5.1-1-7-2.8c-1.1-1-1.8-2.4-2.1-3.9c-0.6-4.2-0.6-8.6,0-12.8c0.3-1.5,1-2.8,2.1-3.9
		c1.8-1.9,4.3-2.9,7-2.8c5,0,8.6,2.9,9.5,8.1h-5.1c-0.5-2.2-1.9-3.7-4.4-3.7c-1.2-0.1-2.4,0.4-3.2,1.3c-1,1.1-1.3,2.3-1.3,7.3
		s0.2,6.1,1.3,7.3c0.8,0.9,2,1.4,3.2,1.3c2.4,0,3.8-1.4,4.4-3.7h5.1C499,235.3,495.4,238.2,490.4,238.2z"/>
	<path class="st15" d="M504.2,238v-25.8h17v4.5h-12v6h10.2v4.5h-10.1v6.3h11.9v4.5L504.2,238z"/>
	<path class="st15" d="M536.1,228.3h-5v9.7h-5v-25.8h10c5.3,0,8.5,3.7,8.5,8S541.5,228.3,536.1,228.3z M535.9,216.7h-4.7v7.1h4.7
		c1.9,0.2,3.7-1.3,3.8-3.2c0.2-1.9-1.3-3.7-3.2-3.8c0,0,0,0,0,0H535.9z"/>
	<path class="st15" d="M558.7,216.7V238h-5v-21.3H547v-4.5h18.5v4.5H558.7z"/>
	<path class="st15" d="M569.5,238v-25.8h5V238H569.5z"/>
	<path class="st15" d="M596.2,235.4c-3.9,3.8-10.1,3.8-13.9,0c-2.6-2.6-2.5-5.8-2.5-10.3s-0.1-7.7,2.5-10.3c3.9-3.8,10.1-3.8,13.9,0
		c2.6,2.6,2.6,5.8,2.6,10.3S598.7,232.8,596.2,235.4z M592.4,217.9c-0.8-0.9-2-1.4-3.2-1.4c-1.2,0-2.4,0.5-3.2,1.4
		c-1,1.1-1.2,2.3-1.2,7.2s0.2,6.1,1.2,7.2c0.8,0.9,2,1.4,3.2,1.4c1.2,0,2.4-0.5,3.2-1.4c1-1.1,1.3-2.3,1.3-7.2
		S593.4,218.9,592.4,217.9z"/>
	<path class="st15" d="M619.1,238l-10.2-15.8V238h-5v-25.8h4.5l10.2,15.8v-15.8h5V238H619.1z"/>
	<path class="st15" d="M766.2,228.3h-5v9.7h-5v-25.8h10c5.3,0,8.5,3.7,8.5,8S771.5,228.3,766.2,228.3z M766,216.7h-4.7v7.1h4.7
		c1.9,0.2,3.7-1.3,3.8-3.2c0.2-1.9-1.3-3.7-3.2-3.8c0,0,0,0,0,0H766z"/>
	<path class="st15" d="M779,238v-25.8h5v21.3h11.7v4.5H779z"/>
	<path class="st15" d="M814.4,238l-1.5-4.6h-9.2l-1.6,4.6h-5.2l9.4-25.8h4l9.4,25.8H814.4z M808.4,219.8l-3.3,9.4h6.4L808.4,219.8z"
		/>
	<path class="st15" d="M838.1,238l-10.2-15.8V238h-5v-25.8h4.5l10.2,15.8v-15.8h5V238H838.1z"/>
	<path class="st15" d="M863.8,238l-10.2-15.8V238h-5v-25.8h4.5l10.2,15.8v-15.8h5V238H863.8z"/>
	<path class="st15" d="M874.3,238v-25.8h5V238H874.3z"/>
	<path class="st15" d="M900.6,238l-10.2-15.8V238h-5v-25.8h4.5l10.2,15.8v-15.8h5V238H900.6z"/>
	<path class="st15" d="M927,235.3c-1.9,2-4.5,3-7.3,2.9c-2.6,0.1-5.2-1-7-2.8c-1.1-1-1.8-2.4-2.1-3.9c-0.6-4.3-0.6-8.6,0-12.8
		c0.3-1.5,1-2.8,2.1-3.9c1.8-1.9,4.4-2.9,7-2.8c5.9,0,9,3.8,9.7,8.2h-5.1c-0.6-2.5-2.1-3.8-4.6-3.8c-1.2,0-2.4,0.5-3.2,1.4
		c-0.9,1.2-1.2,2.1-1.2,7.2s0.2,6.1,1.2,7.3c0.8,0.9,2,1.4,3.2,1.3c1.4,0.1,2.7-0.5,3.6-1.4c0.8-1,1.2-2.2,1.2-3.4v-1h-4.7v-4.2h9.7
		v3.8C929.4,231.2,928.7,233.4,927,235.3z"/>
	<path class="st15" d="M1098,238.2c-2.6,0.1-5.2-0.9-7-2.8c-1.1-1-1.8-2.4-2.1-3.9c-0.6-4.3-0.6-8.6,0-12.8c0.3-1.5,1-2.8,2.1-3.9
		c1.8-1.9,4.4-2.9,7-2.8c5,0,8.6,2.9,9.5,8.1h-5.1c-0.5-2.2-1.9-3.7-4.3-3.7c-1.2-0.1-2.4,0.4-3.2,1.3c-1,1.1-1.3,2.3-1.3,7.3
		s0.2,6.1,1.3,7.3c0.8,0.9,2,1.4,3.2,1.3c2.4,0,3.8-1.4,4.3-3.7h5.1C1106.6,235.3,1102.9,238.2,1098,238.2z"/>
	<path class="st15" d="M1126.3,235.4c-1.8,1.9-4.3,2.9-6.9,2.8c-2.6,0.1-5.2-0.9-7-2.8c-2.6-2.6-2.5-5.8-2.5-10.3s-0.1-7.7,2.5-10.3
		c3.9-3.8,10.1-3.8,13.9,0c2.6,2.6,2.6,5.8,2.6,10.3S1128.9,232.8,1126.3,235.4z M1122.6,217.9c-1.7-1.8-4.6-1.8-6.3-0.1
		c0,0-0.1,0.1-0.1,0.1c-1,1.1-1.2,2.3-1.2,7.2s0.2,6.1,1.2,7.2c1.7,1.8,4.6,1.8,6.3,0.1c0,0,0.1-0.1,0.1-0.1c1-1.1,1.3-2.3,1.3-7.2
		S1123.5,218.9,1122.6,217.9z"/>
	<path class="st15" d="M1149.2,238l-10.2-15.8V238h-5v-25.8h4.5l10.2,15.8v-15.8h5V238H1149.2z"/>
	<path class="st15" d="M1169.6,216.7V238h-5v-21.3h-6.7v-4.5h18.5v4.5H1169.6z"/>
	<path class="st15" d="M1194.1,238l-5-10.3h-3.6V238h-5v-25.8h10.1c5.2,0,8.4,3.6,8.4,7.9c0.1,3-1.8,5.8-4.7,6.8l5.8,11.1H1194.1z
		 M1190.2,216.7h-4.7v6.8h4.7c1.9,0.2,3.5-1.2,3.7-3.1c0.2-1.9-1.2-3.5-3.1-3.7c0,0,0,0,0,0H1190.2z"/>
	<path class="st15" d="M1219.7,235.4c-3.9,3.8-10.1,3.8-13.9,0c-2.6-2.6-2.5-5.8-2.5-10.3s-0.1-7.7,2.5-10.3
		c3.9-3.8,10.1-3.8,13.9,0c2.6,2.6,2.6,5.8,2.6,10.3S1222.3,232.8,1219.7,235.4z M1215.9,217.9c-0.8-0.9-2-1.4-3.2-1.4
		c-1.2,0-2.4,0.5-3.2,1.4c-1,1.1-1.2,2.3-1.2,7.2s0.2,6.1,1.2,7.2c0.8,0.9,2,1.4,3.2,1.4c1.2,0,2.4-0.5,3.2-1.4
		c1-1.1,1.3-2.3,1.3-7.2S1216.9,218.9,1215.9,217.9z"/>
	<path class="st15" d="M1227.4,238v-25.8h5v21.3h11.7v4.5H1227.4z"/>
	<path class="st15" d="M1407.8,238l-1.5-4.6h-9.2l-1.6,4.6h-5.2l9.4-25.8h4l9.4,25.8H1407.8z M1401.8,219.8l-3.3,9.4h6.4
		L1401.8,219.8z"/>
	<path class="st15" d="M1424.5,238.2c-2.6,0.1-5.2-0.9-7-2.8c-1.1-1-1.8-2.4-2.1-3.9c-0.6-4.3-0.6-8.6,0-12.8c0.3-1.5,1-2.8,2.1-3.9
		c1.8-1.9,4.4-2.9,7-2.8c5,0,8.6,2.9,9.5,8.1h-5.1c-0.5-2.2-1.9-3.7-4.3-3.7c-1.2-0.1-2.4,0.4-3.2,1.3c-1,1.1-1.3,2.3-1.3,7.3
		s0.2,6.1,1.3,7.3c0.8,0.9,2,1.4,3.2,1.3c2.4,0,3.8-1.4,4.3-3.7h5.1C1433.1,235.3,1429.4,238.2,1424.5,238.2z"/>
	<path class="st15" d="M1447.4,216.7V238h-5v-21.3h-6.7v-4.5h18.5v4.5H1447.4z"/>
	<path class="st15" d="M1467.3,238.2c-5.3,0-9.5-3.6-9.5-9v-17h5V229c0,3,1.7,4.7,4.4,4.7s4.5-1.8,4.5-4.7v-16.8h5v16.9
		C1476.8,234.6,1472.6,238.2,1467.3,238.2z"/>
	<path class="st15" d="M1497.1,238l-1.5-4.6h-9.2l-1.6,4.6h-5.2l9.4-25.8h4l9.4,25.8H1497.1z M1491.1,219.8l-3.3,9.4h6.4
		L1491.1,219.8z"/>
	<path class="st15" d="M1513.2,216.7V238h-5v-21.3h-6.7v-4.5h18.5v4.5H1513.2z"/>
	<path class="st15" d="M1538.9,235.4c-3.9,3.8-10.1,3.8-13.9,0c-2.6-2.6-2.5-5.8-2.5-10.3s-0.1-7.7,2.5-10.3
		c3.9-3.8,10.1-3.8,13.9,0c2.6,2.6,2.6,5.8,2.6,10.3S1541.5,232.8,1538.9,235.4z M1535.2,217.9c-0.8-0.9-2-1.4-3.2-1.4
		c-1.2,0-2.4,0.5-3.3,1.4c-1,1.1-1.2,2.3-1.2,7.2s0.2,6.1,1.2,7.2c1.7,1.8,4.6,1.8,6.3,0.1c0,0,0.1-0.1,0.1-0.1
		c1-1.1,1.3-2.3,1.3-7.2S1536.1,218.9,1535.2,217.9z"/>
	<path class="st15" d="M1560.3,238l-5-10.3h-3.6V238h-5v-25.8h10.1c5.2,0,8.4,3.6,8.4,7.9c0.1,3-1.8,5.8-4.7,6.8l5.8,11.1
		L1560.3,238z M1556.4,216.7h-4.8v6.8h4.8c1.9,0.2,3.5-1.2,3.7-3.1c0.2-1.9-1.2-3.5-3.1-3.7c0,0,0,0,0,0H1556.4z"/>
	<path class="st15" d="M1577.4,238.2c-3.9,0-6.9-0.8-9.4-3.4l3.2-3.2c1.7,1.5,3.9,2.3,6.2,2.2c3,0,4.6-1.1,4.6-3.2
		c0-0.8-0.2-1.6-0.8-2.2c-0.6-0.5-1.4-0.9-2.3-0.9l-3.1-0.4c-1.9-0.2-3.6-0.9-5-2.1c-1.3-1.4-1.9-3.2-1.8-5.1c0-4.6,3.4-7.8,9-7.8
		c3.6,0,6.1,0.9,8.3,3l-3.2,3.1c-1.4-1.3-3.4-1.9-5.3-1.8c-2.7,0-4,1.5-4,3.3c0,0.7,0.3,1.4,0.8,1.9c0.7,0.6,1.5,0.9,2.4,1l3,0.4
		c1.8,0.1,3.5,0.8,4.9,2c1.4,1.5,2.1,3.4,2,5.5C1586.9,235.4,1582.7,238.2,1577.4,238.2z"/>
	<path class="st15" d="M120.1,1118.5c-3.9,0-6.9-0.8-9.4-3.4l3.2-3.3c1.7,1.5,3.9,2.3,6.2,2.2c3,0,4.6-1.1,4.6-3.2
		c0.1-0.8-0.2-1.6-0.8-2.2c-0.6-0.5-1.4-0.9-2.3-0.9l-3.1-0.4c-1.9-0.2-3.6-0.9-5-2.1c-1.3-1.4-2-3.2-1.8-5.1c0-4.6,3.4-7.8,9-7.8
		c3.5,0,6.1,0.9,8.3,3l-3.2,3.2c-1.5-1.3-3.4-1.9-5.3-1.8c-2.7,0-4,1.5-4,3.2c0,0.7,0.3,1.4,0.8,1.8c0.7,0.6,1.5,0.9,2.4,1l3,0.4
		c1.8,0.1,3.5,0.8,4.9,2c1.4,1.5,2.1,3.4,2,5.5C129.6,1115.7,125.5,1118.5,120.1,1118.5z"/>
	<path class="st15" d="M133.9,1096.2v-3.8h4.8v3.8H133.9z M134,1118.3v-18.8h4.7v18.8H134z"/>
	<path class="st15" d="M165.9,1118.3v-11.4c0-2.6-1.6-3.4-3.1-3.4c-1.7-0.1-3.1,1.2-3.2,2.8c0,0.2,0,0.3,0,0.5v11.5h-4.7v-11.4
		c0-2.6-1.6-3.4-3.1-3.4s-3.1,0.9-3.1,3.4v11.4H144v-18.8h4.6v1.7c1.2-1.3,2.9-2,4.7-2c2-0.1,3.8,0.8,5,2.4c1.4-1.6,3.5-2.5,5.6-2.4
		c1.7-0.1,3.4,0.5,4.6,1.7c1.4,1.4,2.2,3.4,2.1,5.4v12L165.9,1118.3z"/>
	<path class="st15" d="M186.5,1118.3v-1.7c-1.2,1.3-2.9,2-4.7,2c-1.6,0.1-3.3-0.5-4.5-1.7c-1.4-1.4-2.1-3.4-1.9-5.4v-12h4.7v11.4
		c0,2.6,1.6,3.4,3.1,3.4s3.1-0.9,3.1-3.4v-11.4h4.7v18.8L186.5,1118.3z"/>
	<path class="st15" d="M201.7,1118.3c-2.8,0.2-5.3-1.9-5.5-4.7c0,0,0,0,0,0c0-0.2,0-0.4,0-0.7v-20.4h4.7v20.1c0,1.1,0.5,1.7,1.7,1.7
		h1.8v4L201.7,1118.3z"/>
	<path class="st15" d="M217.8,1118.3v-1.6c-1.2,1.3-2.9,1.9-4.6,1.8c-1.8,0.1-3.5-0.5-4.8-1.7c-1.1-1.2-1.6-2.7-1.6-4.2
		c0-3,2.1-5.5,6.4-5.5h4.5v-0.9c0-2.1-1-3-3.5-3c-1.4-0.2-2.8,0.4-3.6,1.6l-3-2.9c1.9-2,3.7-2.6,6.8-2.6c5.3,0,8,2.2,8,6.7v12.4
		L217.8,1118.3z M217.7,1110.3H214c-1.7,0-2.6,0.8-2.6,2.1s0.9,2.2,2.7,2.2c1.1,0.2,2.2-0.2,3-0.9c0.6-0.7,0.8-1.5,0.7-2.4
		L217.7,1110.3z"/>
	<path class="st15" d="M233.4,1118.3c-2.8,0.2-5.3-1.9-5.5-4.7c0-0.2,0-0.4,0-0.7v-9.3h-2v-3.6h2v-5.6h4.7v5.6h3.4v3.6h-3.3v9
		c0,1.1,0.5,1.7,1.6,1.7h1.7v4L233.4,1118.3z"/>
	<path class="st15" d="M240.1,1096.2v-3.8h4.9v3.8H240.1z M240.2,1118.3v-18.8h4.7v18.8H240.2z"/>
	<path class="st15" d="M263.2,1116.2c-1.5,1.6-3.7,2.4-5.9,2.3c-2.2,0.1-4.3-0.8-5.8-2.3c-1.7-1.8-2.1-3.9-2.1-7.3s0.4-5.5,2.1-7.3
		c1.5-1.6,3.6-2.4,5.8-2.3c2.2-0.1,4.3,0.8,5.9,2.3c1.7,1.8,2.1,3.9,2.1,7.3S264.9,1114.4,263.2,1116.2z M259.5,1104.3
		c-0.6-0.6-1.4-0.9-2.2-0.8c-0.8,0-1.6,0.3-2.2,0.8c-1,1-1.1,2.6-1.1,4.6s0.1,3.6,1.1,4.6c0.6,0.6,1.4,0.9,2.2,0.8
		c0.8,0,1.6-0.3,2.2-0.8c1-1,1.1-2.6,1.1-4.6S260.5,1105.3,259.5,1104.3L259.5,1104.3z"/>
	<path class="st15" d="M280.8,1118.3v-11.4c0-2.6-1.6-3.4-3.1-3.4s-3.1,0.9-3.1,3.4v11.4h-4.7v-18.8h4.6v1.7c1.2-1.3,2.9-2,4.7-2
		c1.6-0.1,3.3,0.5,4.5,1.7c1.4,1.4,2.1,3.4,1.9,5.4v12L280.8,1118.3z"/>
	<path class="st15" d="M481.2,1118.5c-3.9,0-6.9-0.8-9.4-3.4l3.3-3.3c1.7,1.5,3.9,2.3,6.2,2.2c3,0,4.6-1.1,4.6-3.2
		c0.1-0.8-0.2-1.6-0.8-2.2c-0.6-0.5-1.4-0.8-2.3-0.9l-3.1-0.4c-1.8-0.2-3.6-0.9-5-2.1c-1.3-1.4-2-3.2-1.9-5.1c0-4.6,3.4-7.8,9-7.8
		c3.5,0,6.1,0.9,8.3,3l-3.2,3.2c-1.4-1.3-3.4-1.9-5.3-1.8c-2.7,0-4,1.5-4,3.2c0,0.7,0.3,1.4,0.8,1.8c0.7,0.6,1.5,0.9,2.4,1l3,0.4
		c1.8,0.1,3.5,0.8,4.9,2c1.4,1.5,2.1,3.4,2,5.5C490.7,1115.7,486.6,1118.5,481.2,1118.5z"/>
	<path class="st15" d="M504.7,1118.3v-1.6c-1.2,1.3-2.9,1.9-4.6,1.8c-1.8,0.1-3.5-0.5-4.8-1.7c-1-1.2-1.6-2.7-1.5-4.2
		c0-3,2.1-5.5,6.5-5.5h4.5v-0.9c0-2.1-1-3-3.5-3c-1.4-0.2-2.8,0.4-3.6,1.6l-3-2.9c1.9-2,3.7-2.6,6.8-2.6c5.3,0,8,2.2,8,6.7v12.4
		L504.7,1118.3z M504.6,1110.3h-3.7c-1.7,0-2.6,0.8-2.6,2.1s0.9,2.2,2.7,2.2c1.1,0.2,2.2-0.2,3-0.9c0.6-0.7,0.8-1.5,0.7-2.4
		L504.6,1110.3z"/>
	<path class="st15" d="M519.7,1103.6v14.7H515v-14.7h-2v-3.6h2v-2.3c-0.1-2.8,2-5.3,4.9-5.4c0.2,0,0.4,0,0.6,0h2.7v4h-1.8
		c-1.1,0-1.6,0.6-1.6,1.7v2h3.5v3.6H519.7z"/>
	<path class="st15" d="M529.9,1110.3c-0.2,2.1,1.4,4,3.6,4.2h0.6c1.6,0.1,3.2-0.5,4.3-1.8l2.9,2.8c-1.8,2-4.4,3.1-7.2,3
		c-4.5,0-8.7-2-8.7-9.7c0-6.2,3.3-9.6,8.2-9.6c5.2,0,8.2,3.8,8.2,9v2.1L529.9,1110.3z M536.7,1105.1c-0.9-1.7-3-2.4-4.7-1.6
		c-0.7,0.3-1.2,0.9-1.6,1.6c-0.3,0.6-0.4,1.3-0.4,2h7.2C537.1,1106.4,536.9,1105.7,536.7,1105.1z"/>
	<path class="st15" d="M552,1118.3c-2.8,0.2-5.3-1.9-5.5-4.7c0-0.2,0-0.4,0-0.7v-9.3h-2v-3.6h2v-5.6h4.7v5.6h3.3v3.6h-3.3v9
		c0,1.1,0.5,1.7,1.6,1.7h1.7v4L552,1118.3z"/>
	<path class="st15" d="M565.8,1121.3c-0.3,0.9-0.8,1.7-1.4,2.4c-1.1,1-2.6,1.5-4.1,1.4h-1.8v-4.2h1.1c1.1,0.2,2.1-0.5,2.3-1.6
		c0,0,0-0.1,0-0.1l0.8-2.3l-6.4-17.5h5l3.9,11.7l3.8-11.7h5L565.8,1121.3z"/>
	<path class="st15" d="M1116,1118.5c-5.3,0-9.5-3.6-9.5-9v-17h5v16.8c0,3,1.7,4.7,4.4,4.7s4.5-1.8,4.5-4.7v-16.8h5v16.9
		C1125.5,1115,1121.3,1118.5,1116,1118.5z"/>
	<path class="st15" d="M1131.1,1118.3v-25.8h5v25.8H1131.1z"/>
	<path class="st15" d="M1151.9,1121h-4.4l10.3-31.1h4.4L1151.9,1121z"/>
	<path class="st15" d="M1187.2,1118.3v-10.8h-8.7v10.8h-5v-25.8h5v10.5h8.7v-10.5h5v25.8H1187.2z"/>
	<path class="st15" d="M1216.6,1118.3v-15l-4.9,9.8h-3.4l-5-9.8v15h-5v-25.8h5l6.7,13.9l6.7-13.9h5v25.8H1216.6z"/>
	<path class="st15" d="M1227.6,1118.3v-25.8h5v25.8H1227.6z"/>
	<path class="st15" d="M1444.4,1115.6c-1.9,2-4.5,3-7.3,2.9c-2.6,0.1-5.1-1-6.9-2.8c-1.1-1-1.8-2.4-2.1-3.9c-0.6-4.2-0.6-8.6,0-12.8
		c0.3-1.5,1-2.8,2.1-3.9c1.8-1.9,4.3-2.9,6.9-2.8c5.9,0,9,3.8,9.7,8.2h-5.1c-0.6-2.5-2.1-3.8-4.6-3.8c-1.2,0-2.4,0.5-3.2,1.4
		c-0.9,1.2-1.2,2.1-1.2,7.2s0.2,6.1,1.2,7.3c0.8,0.9,2,1.4,3.2,1.3c1.4,0.1,2.7-0.5,3.6-1.4c0.8-1,1.2-2.2,1.2-3.4v-1h-4.8v-4.2h9.7
		v3.8C1446.8,1111.5,1446.2,1113.7,1444.4,1115.6z"/>
	<path class="st15" d="M1451.1,1096.2v-3.8h4.8v3.8H1451.1z M1451.2,1118.3v-18.8h4.7v18.8H1451.2z"/>
	<path class="st15" d="M1467,1118.3c-2.8,0.2-5.3-1.9-5.5-4.7c0,0,0,0,0,0c0-0.2,0-0.4,0-0.7v-9.3h-2v-3.6h2v-5.6h4.7v5.6h3.3v3.6
		h-3.3v9c0,1.1,0.5,1.7,1.6,1.7h1.7v4L1467,1118.3z"/>
	<path class="st15" d="M1473.7,1124.3v-11.1h5.2v7.1L1473.7,1124.3z"/>
	<path class="st15" d="M1502.8,1118.3v-1.8c-1.2,1.4-2.9,2.1-4.7,2c-1.7,0-3.4-0.6-4.6-1.7c-1.9-1.9-1.9-5.1-1.9-8s0-6,1.9-7.9
		c1.3-1.1,2.9-1.7,4.6-1.7c1.7-0.1,3.4,0.6,4.6,1.9v-8.6h4.7v25.8L1502.8,1118.3z M1499.5,1103.5c-2.8,0-3.2,2.3-3.2,5.4
		s0.4,5.4,3.2,5.4s3.2-2.4,3.2-5.4S1502.3,1103.5,1499.5,1103.5z"/>
	<path class="st15" d="M1522.3,1118.3v-1.6c-1.2,1.3-2.9,1.9-4.6,1.8c-1.8,0.1-3.5-0.5-4.8-1.7c-1-1.2-1.6-2.7-1.6-4.2
		c0-3,2.1-5.5,6.4-5.5h4.4v-0.9c0-2.1-1-3-3.5-3c-1.4-0.2-2.8,0.4-3.6,1.6l-3-2.9c1.8-2,3.7-2.6,6.8-2.6c5.3,0,8,2.2,8,6.7v12.4
		L1522.3,1118.3z M1522.2,1110.3h-3.7c-1.7,0-2.6,0.8-2.6,2.1s0.9,2.2,2.7,2.2c1.1,0.2,2.2-0.2,3-0.9c0.6-0.7,0.8-1.5,0.7-2.4
		L1522.2,1110.3z"/>
	<path class="st15" d="M1537.9,1118.3c-2.8,0.2-5.2-1.9-5.4-4.7c0-0.2,0-0.4,0-0.7v-9.3h-2v-3.6h2v-5.6h4.7v5.6h3.3v3.6h-3.3v9
		c0,1.1,0.5,1.7,1.6,1.7h1.7v4L1537.9,1118.3z"/>
	<path class="st15" d="M1554.3,1118.3v-1.6c-1.2,1.3-2.9,1.9-4.6,1.8c-1.8,0.1-3.5-0.5-4.8-1.7c-1.1-1.2-1.6-2.7-1.6-4.2
		c0-3,2.1-5.5,6.4-5.5h4.4v-0.9c0-2.1-1-3-3.5-3c-1.4-0.2-2.8,0.4-3.6,1.6l-3-2.9c1.8-2,3.7-2.6,6.8-2.6c5.3,0,8,2.2,8,6.7v12.4
		L1554.3,1118.3z M1554.2,1110.3h-3.7c-1.7,0-2.6,0.8-2.6,2.1s0.9,2.2,2.7,2.2c1.1,0.2,2.2-0.2,3-0.9c0.6-0.7,0.8-1.5,0.7-2.4
		L1554.2,1110.3z"/>
	<path class="st15" d="M99.1,739.7v-10h1.9v8.2h4.5v1.7L99.1,739.7z"/>
	<path class="st15" d="M107.2,739.7v-10h1.9v10H107.2z"/>
	<path class="st15" d="M117.7,738.7c-0.7,0.7-1.7,1-2.6,1h-3.6v-10h3.6c1,0,1.9,0.3,2.6,1c1.1,1.1,1,2.5,1,4
		S118.8,737.6,117.7,738.7z M116.3,732c-0.4-0.4-0.9-0.7-1.5-0.6h-1.5v6.5h1.5c0.6,0,1.1-0.2,1.5-0.6c0.4-0.4,0.4-1.2,0.4-2.7
		S116.7,732.5,116.3,732z"/>
	<path class="st15" d="M126.2,739.7l-0.6-1.8h-3.6l-0.6,1.8h-2l3.6-10h1.5l3.7,10H126.2z M123.9,732.7l-1.3,3.6h2.5L123.9,732.7z"/>
	<path class="st15" d="M134.7,739.7l-2-4h-1.4v4h-1.9v-10h3.9c1.7-0.1,3.1,1.1,3.2,2.8c0,0.1,0,0.2,0,0.3c0,1.2-0.7,2.2-1.8,2.6
		l2.2,4.3L134.7,739.7z M133.2,731.4h-1.8v2.6h1.8c0.7,0.1,1.4-0.5,1.4-1.2c0.1-0.7-0.5-1.4-1.2-1.4L133.2,731.4z"/>
	<path class="st15" d="M138.4,742v-4.3h2v2.8L138.4,742z"/>
	<path class="st15" d="M148.5,739.7c-1.4,0-3.3-0.8-3.3-3.7s1.8-3.7,3.3-3.7c0.9,0,1.8,0.3,2.4,1l-1.2,1.2c-0.3-0.4-0.7-0.6-1.2-0.6
		c-0.4,0-0.8,0.2-1,0.5c-0.3,0.5-0.5,1-0.4,1.6c-0.1,0.6,0.1,1.1,0.4,1.6c0.2,0.3,0.6,0.5,1,0.5c0.5,0,0.9-0.2,1.2-0.6l1.2,1.2
		C150.3,739.4,149.4,739.8,148.5,739.7z"/>
	<path class="st15" d="M156,739.7V739c-0.5,0.5-1.1,0.8-1.8,0.7c-0.7,0.1-1.4-0.2-1.9-0.7c-0.4-0.4-0.6-1-0.6-1.6
		c0-1.2,0.8-2.1,2.5-2.1h1.8V735c0-0.8-0.4-1.1-1.4-1.1c-0.5-0.1-1.1,0.2-1.4,0.6l-1.2-1.1c0.7-0.7,1.7-1.1,2.6-1
		c2,0,3.1,0.9,3.1,2.6v4.8L156,739.7z M156,736.6h-1.5c-0.7,0-1,0.3-1,0.8s0.3,0.8,1.1,0.8c0.4,0.1,0.8-0.1,1.1-0.3
		c0.2-0.2,0.3-0.6,0.3-0.9V736.6z"/>
	<path class="st15" d="M168.2,739.7v-4.4c0-0.7-0.5-1.2-1.2-1.2c-0.7,0-1.2,0.5-1.2,1.2l0,0v4.5H164v-4.4c0.1-0.7-0.4-1.3-1.1-1.3
		c-0.7-0.1-1.2,0.4-1.3,1.1c0,0.1,0,0.1,0,0.2v4.4h-1.8v-7.3h1.8v0.7c0.5-0.5,1.1-0.8,1.8-0.8c0.8,0,1.5,0.3,1.9,0.9
		c0.6-0.6,1.4-1,2.2-0.9c0.7,0,1.3,0.2,1.8,0.6c0.5,0.5,0.8,1.3,0.8,2.1v4.7L168.2,739.7z"/>
	<path class="st15" d="M173.5,736.6c-0.1,0.8,0.5,1.6,1.4,1.6c0,0,0,0,0,0h0.2c0.6,0,1.2-0.2,1.7-0.7l1.1,1.1
		c-0.7,0.8-1.7,1.2-2.8,1.2c-1.7,0-3.4-0.8-3.4-3.7c0-2.4,1.3-3.7,3.2-3.7c1.8,0,3.2,1.5,3.2,3.2c0,0.1,0,0.2,0,0.3v0.8L173.5,736.6
		z M176.1,734.6c-0.3-0.7-1.2-0.9-1.8-0.6c-0.3,0.1-0.5,0.3-0.6,0.6c-0.1,0.2-0.2,0.5-0.2,0.8h2.8
		C176.2,735.1,176.2,734.8,176.1,734.6L176.1,734.6z"/>
	<path class="st15" d="M183.7,734.3c-0.4-0.5-1.2-0.6-1.7-0.2c0,0,0,0,0,0c-0.3,0.3-0.5,0.7-0.4,1.1v4.4h-1.8v-7.3h1.8v0.7
		c0.5-0.5,1.1-0.8,1.8-0.8c0.6,0,1.3,0.2,1.7,0.7L183.7,734.3z"/>
	<path class="st15" d="M189.7,739.7V739c-0.5,0.5-1.1,0.8-1.8,0.7c-0.7,0.1-1.4-0.2-1.9-0.7c-0.4-0.4-0.6-1-0.6-1.6
		c0-1.2,0.8-2.1,2.5-2.1h1.7V735c0-0.8-0.4-1.1-1.4-1.1c-0.5-0.1-1.1,0.2-1.4,0.6l-1.1-1.1c0.7-0.7,1.7-1.1,2.6-1
		c2,0,3.1,0.9,3.1,2.6v4.8L189.7,739.7z M189.7,736.6h-1.4c-0.6,0-1,0.3-1,0.8s0.3,0.8,1.1,0.8c0.4,0.1,0.8-0.1,1.1-0.3
		c0.2-0.3,0.3-0.6,0.3-0.9L189.7,736.6z"/>
	<path class="st15" d="M193.3,742v-4.3h2v2.8L193.3,742z"/>
	<path class="st15" d="M204.5,734.3c-0.4-0.5-1.2-0.6-1.7-0.2c0,0,0,0,0,0c-0.3,0.3-0.5,0.7-0.4,1.1v4.4h-1.8v-7.3h1.8v0.7
		c0.5-0.5,1.1-0.8,1.8-0.8c0.6,0,1.3,0.2,1.7,0.7L204.5,734.3z"/>
	<path class="st15" d="M210.5,739.7V739c-0.5,0.5-1.1,0.7-1.8,0.7c-0.7,0.1-1.4-0.2-1.9-0.7c-0.4-0.4-0.6-1-0.6-1.6
		c0-1.2,0.8-2.1,2.5-2.1h1.7V735c0-0.8-0.4-1.1-1.4-1.1c-0.5-0.1-1.1,0.2-1.4,0.6l-1.2-1.1c0.7-0.7,1.7-1.1,2.6-1
		c2,0,3.1,0.9,3.1,2.6v4.8L210.5,739.7z M210.5,736.6H209c-0.7,0-1,0.3-1,0.8s0.3,0.8,1.1,0.8c0.4,0.1,0.8-0.1,1.1-0.3
		c0.2-0.3,0.3-0.6,0.3-0.9L210.5,736.6z"/>
	<path class="st15" d="M218.3,739.7V739c-0.4,0.5-1.1,0.8-1.8,0.8c-0.7,0-1.3-0.2-1.8-0.7c-0.7-0.7-0.7-2-0.7-3.1s0-2.3,0.7-3.1
		c0.5-0.4,1.1-0.7,1.8-0.7c0.7,0,1.3,0.2,1.8,0.7v-3.3h1.8v10L218.3,739.7z M217,733.9c-1.1,0-1.2,0.9-1.2,2.1s0.1,2.1,1.2,2.1
		s1.2-0.9,1.2-2.1S218.1,733.9,217,733.9z"/>
	<path class="st15" d="M225.9,739.7V739c-0.5,0.5-1.1,0.8-1.8,0.7c-0.7,0.1-1.4-0.2-1.9-0.7c-0.4-0.4-0.6-1-0.6-1.6
		c0-1.2,0.8-2.1,2.5-2.1h1.7V735c0-0.8-0.4-1.1-1.4-1.1c-0.5-0.1-1.1,0.2-1.4,0.6l-1.2-1.1c0.7-0.7,1.7-1.1,2.6-1
		c2,0,3.1,0.9,3.1,2.6v4.8L225.9,739.7z M225.9,736.6h-1.4c-0.7,0-1,0.3-1,0.8s0.3,0.8,1,0.8c0.4,0.1,0.8-0.1,1.1-0.3
		c0.2-0.3,0.3-0.6,0.3-0.9L225.9,736.6z"/>
	<path class="st15" d="M233.6,734.3c-0.4-0.5-1.2-0.6-1.7-0.2c0,0,0,0,0,0c-0.3,0.3-0.5,0.7-0.4,1.1v4.4h-1.8v-7.3h1.8v0.7
		c0.5-0.5,1.1-0.8,1.8-0.8c0.6,0,1.3,0.2,1.7,0.7L233.6,734.3z"/>
	<path class="st15" d="M235.1,742v-4.3h2v2.8L235.1,742z"/>
	<path class="st15" d="M242.4,739.7v-10h1.9v10H242.4z"/>
	<path class="st15" d="M253.7,739.7v-5.8l-1.9,3.8h-1.3l-1.9-3.8v5.8h-1.9v-10h1.9l2.6,5.4l2.6-5.4h1.9v10H253.7z"/>
	<path class="st15" d="M261.6,739.7c-1.9,0.1-3.5-1.4-3.7-3.3c0-0.1,0-0.2,0-0.2v-6.6h1.9v6.5c0,1,0.8,1.7,1.7,1.7
		c1,0,1.7-0.8,1.7-1.7l0,0v-6.5h1.9v6.6c0,1.9-1.5,3.5-3.4,3.5c0,0,0,0,0,0L261.6,739.7z"/>
	<path class="st15" d="M267.2,742v-4.3h2v2.8L267.2,742z"/>
	<path class="st15" d="M280.7,738.6c-0.7,0.8-1.8,1.2-2.8,1.1c-1,0-2-0.4-2.7-1.1c-0.4-0.4-0.7-0.9-0.8-1.5c-0.2-1.7-0.2-3.3,0-5
		c0.1-0.6,0.4-1.1,0.8-1.5c0.7-0.7,1.7-1.1,2.7-1.1c1.9-0.1,3.6,1.3,3.8,3.2h-2c-0.1-0.9-0.9-1.5-1.8-1.5c-0.5,0-0.9,0.2-1.2,0.5
		c-0.4,0.5-0.5,0.8-0.5,2.8s0.1,2.3,0.5,2.8c0.3,0.4,0.8,0.5,1.2,0.5c0.5,0,1-0.2,1.4-0.6c0.3-0.4,0.5-0.8,0.5-1.3v-0.4h-1.8v-1.6
		h3.8v1.5C281.8,736.6,281.5,737.7,280.7,738.6z"/>
	<path class="st15" d="M287.3,735.9h-1.9v3.8h-2v-10h3.9c1.7,0,3.1,1.4,3.1,3.1S289,735.9,287.3,735.9
		C287.3,735.9,287.3,735.9,287.3,735.9L287.3,735.9L287.3,735.9z M287.2,731.4h-1.8v2.7h1.8c0.8,0.1,1.4-0.5,1.5-1.2
		c0.1-0.8-0.5-1.4-1.2-1.5c0,0,0,0,0,0H287.2z"/>
	<path class="st15" d="M295,739.7c-1.3,0.1-2.7-0.4-3.6-1.3l1.3-1.3c0.6,0.6,1.5,0.9,2.4,0.9c1.1,0,1.8-0.4,1.8-1.2
		c0-0.3-0.1-0.6-0.3-0.8c-0.3-0.2-0.6-0.3-0.9-0.3l-1.2-0.2c-0.7-0.1-1.4-0.3-1.9-0.8c-0.5-0.5-0.8-1.3-0.7-2c0-1.8,1.3-3,3.5-3
		c1.2-0.1,2.4,0.3,3.2,1.2l-1.2,1.2c-0.6-0.5-1.3-0.7-2-0.7c-1,0-1.5,0.6-1.5,1.3c0,0.3,0.1,0.5,0.3,0.7c0.3,0.2,0.6,0.4,0.9,0.4
		l1.2,0.2c0.7,0.1,1.4,0.3,1.9,0.8c0.5,0.6,0.8,1.3,0.8,2.1C298.7,738.6,297.1,739.7,295,739.7z"/>
	<path class="st15" d="M436.2,739.7v-5.8l-1.9,3.8H433l-2-3.8v5.8h-2v-10h2l2.6,5.4l2.6-5.4h1.9v10H436.2z"/>
	<path class="st15" d="M444,739.7V739c-0.5,0.5-1.1,0.8-1.8,0.7c-0.7,0.1-1.4-0.2-1.9-0.7c-0.4-0.4-0.6-1-0.6-1.6
		c0-1.2,0.8-2.1,2.5-2.1h1.8V735c0-0.8-0.4-1.1-1.4-1.1c-0.5-0.1-1.1,0.2-1.4,0.6l-1.2-1.1c0.7-0.7,1.6-1.1,2.6-1
		c2,0,3.1,0.9,3.1,2.6v4.8L444,739.7z M444,736.6h-1.4c-0.7,0-1,0.3-1,0.8s0.3,0.8,1,0.8c0.4,0,0.8-0.1,1.1-0.3
		c0.2-0.2,0.3-0.6,0.3-0.9V736.6z"/>
	<path class="st15" d="M453.1,739.1c-0.5,0.4-1.1,0.7-1.8,0.7c-0.7,0-1.3-0.2-1.8-0.7v3.3h-1.9v-10h1.8v0.7c0.5-0.5,1.1-0.8,1.8-0.8
		c0.7,0,1.3,0.2,1.8,0.7c0.7,0.7,0.8,2,0.8,3.1S453.9,738.3,453.1,739.1z M450.8,733.9c-1.1,0-1.2,0.9-1.2,2.1s0.1,2.1,1.2,2.1
		s1.2-0.9,1.2-2.1S451.9,733.9,450.8,733.9L450.8,733.9z"/>
	<path class="st15" d="M461,739.1c-0.5,0.4-1.1,0.7-1.8,0.7c-0.7,0-1.3-0.2-1.8-0.7v3.3h-1.8v-10h1.8v0.7c0.5-0.5,1.1-0.8,1.8-0.8
		c0.7,0,1.3,0.2,1.8,0.7c0.7,0.7,0.8,2,0.8,3.1S461.7,738.3,461,739.1z M458.7,733.9c-1.1,0-1.2,0.9-1.2,2.1s0.1,2.1,1.2,2.1
		s1.2-0.9,1.2-2.1S459.7,733.9,458.7,733.9L458.7,733.9z"/>
	<path class="st15" d="M463.4,731.1v-1.5h1.9v1.5H463.4z M463.4,739.6v-7.3h1.8v7.3H463.4z"/>
	<path class="st15" d="M471.5,739.7v-4.4c0.1-0.7-0.4-1.3-1.1-1.4c-0.7-0.1-1.3,0.4-1.3,1c0,0.1,0,0.2,0,0.3v4.4h-1.8v-7.3h1.8v0.6
		c0.5-0.5,1.1-0.8,1.8-0.8c0.6,0,1.3,0.2,1.7,0.7c0.5,0.6,0.8,1.3,0.7,2.1v4.7L471.5,739.7z"/>
	<path class="st15" d="M477.9,742.4c-1,0.1-2-0.3-2.6-1l1.1-1.2c0.3,0.4,0.9,0.6,1.4,0.6c0.8,0.1,1.4-0.5,1.5-1.3c0-0.1,0-0.2,0-0.2
		v-0.7c-0.4,0.5-1.1,0.8-1.7,0.7c-0.6,0-1.3-0.2-1.7-0.7c-0.7-0.7-0.8-1.6-0.8-2.9s0.1-2.2,0.8-2.9c0.5-0.4,1.1-0.7,1.8-0.7
		c0.7,0,1.3,0.2,1.8,0.8v-0.7h1.7v7c0,1.7-1.3,3-3,3L477.9,742.4z M478,733.9c-1.1,0-1.2,0.9-1.2,1.9s0.1,1.9,1.2,1.9
		s1.2-0.9,1.2-1.9S479.1,733.9,478,733.9L478,733.9z"/>
	<path class="st15" d="M483,742v-4.3h2v2.8L483,742z"/>
	<path class="st15" d="M494.3,739.7V739c-0.4,0.5-1.1,0.8-1.8,0.8c-0.7,0-1.3-0.2-1.8-0.7c-0.7-0.7-0.7-2-0.7-3.1s0-2.3,0.7-3.1
		c0.5-0.4,1.1-0.7,1.8-0.7c0.7,0,1.3,0.2,1.8,0.7v-3.3h1.8v10L494.3,739.7z M493,733.9c-1.1,0-1.2,0.9-1.2,2.1s0.1,2.1,1.2,2.1
		s1.2-0.9,1.2-2.1S494.1,733.9,493,733.9z"/>
	<path class="st15" d="M499.5,736.6c-0.1,0.8,0.5,1.6,1.4,1.6c0,0,0,0,0,0h0.2c0.6,0,1.2-0.2,1.7-0.7l1.1,1.1
		c-0.7,0.8-1.7,1.2-2.8,1.2c-1.7,0-3.4-0.8-3.4-3.7c0-2.4,1.3-3.7,3.2-3.7c1.8,0,3.2,1.5,3.2,3.2c0,0.1,0,0.2,0,0.2v0.8L499.5,736.6
		z M502.1,734.6c-0.3-0.7-1.2-0.9-1.8-0.6c0,0,0,0,0,0c-0.3,0.1-0.5,0.3-0.6,0.6c-0.1,0.2-0.2,0.5-0.2,0.8h2.8
		C502.3,735.1,502.3,734.8,502.1,734.6L502.1,734.6z"/>
	<path class="st15" d="M508.1,739.7c-1.1,0.1-2-0.8-2.1-1.9v-3.8h-0.8v-1.4h0.8v-2.2h1.8v2.2h1.2v1.4h-1.3v3.5
		c0,0.3,0.2,0.6,0.5,0.6c0,0,0,0,0,0h0.8v1.5H508.1z"/>
	<path class="st15" d="M512.1,736.6c-0.1,0.8,0.5,1.6,1.4,1.6c0,0,0,0,0,0h0.2c0.6,0,1.2-0.2,1.7-0.7l1.1,1.1
		c-0.7,0.8-1.7,1.2-2.8,1.2c-1.7,0-3.4-0.8-3.4-3.7c0-2.4,1.3-3.7,3.2-3.7c1.8,0,3.2,1.5,3.2,3.2c0,0.1,0,0.2,0,0.2v0.8L512.1,736.6
		z M514.7,734.6c-0.3-0.7-1.2-0.9-1.8-0.6c-0.3,0.1-0.5,0.3-0.6,0.6c-0.1,0.3-0.2,0.5-0.2,0.8h2.8
		C514.9,735.1,514.8,734.8,514.7,734.6L514.7,734.6z"/>
	<path class="st15" d="M521.2,739.7c-1.5,0-3.3-0.8-3.3-3.7s1.8-3.7,3.3-3.7c0.9,0,1.8,0.3,2.4,1l-1.2,1.2c-0.3-0.4-0.7-0.6-1.2-0.6
		c-0.4,0-0.8,0.2-1,0.5c-0.5,1-0.5,2.2,0,3.2c0.2,0.3,0.6,0.5,1,0.5c0.5,0,0.9-0.2,1.2-0.6l1.2,1.2
		C523,739.4,522.1,739.8,521.2,739.7z"/>
	<path class="st15" d="M527.3,739.7c-1.1,0.1-2-0.8-2.1-1.9v-3.8h-0.8v-1.4h0.8v-2.2h1.8v2.2h1.3v1.4h-1.3v3.5
		c0,0.4,0.2,0.7,0.6,0.7h0.7v1.5H527.3z"/>
	<path class="st15" d="M530,731.1v-1.5h1.9v1.5H530z M530,739.6v-7.3h1.8v7.3H530z"/>
	<path class="st15" d="M538.9,738.8c-1.3,1.2-3.3,1.2-4.5,0c-1.1-1.7-1.1-3.9,0-5.7c1.3-1.2,3.3-1.2,4.5,0
		C540,734.9,540,737.1,538.9,738.8z M537.5,734.2c-0.2-0.2-0.5-0.3-0.8-0.3c-0.3,0-0.6,0.1-0.8,0.3c-0.6,1.1-0.6,2.4,0,3.5
		c0.2,0.2,0.5,0.3,0.8,0.3c0.3,0,0.6-0.1,0.8-0.3C538,736.7,538,735.3,537.5,734.2z"/>
	<path class="st15" d="M545.7,739.7v-4.4c0.1-0.7-0.4-1.3-1.1-1.4c-0.7-0.1-1.3,0.4-1.3,1c0,0.1,0,0.2,0,0.3v4.4h-1.8v-7.3h1.8v0.6
		c0.5-0.5,1.1-0.8,1.8-0.8c0.6,0,1.2,0.2,1.7,0.6c0.5,0.6,0.8,1.3,0.7,2.1v4.7L545.7,739.7z"/>
	<path class="st15" d="M549.4,742v-4.3h2v2.8L549.4,742z"/>
	<path class="st15" d="M562,739.1c-0.5,0.4-1.1,0.7-1.8,0.7c-0.7,0.1-1.3-0.2-1.8-0.7v3.3h-1.8v-10h1.8v0.7c0.5-0.5,1.1-0.8,1.8-0.8
		c0.7,0,1.3,0.2,1.8,0.7c0.7,0.7,0.7,2,0.7,3.1S562.7,738.3,562,739.1z M559.7,733.9c-1.1,0-1.2,0.9-1.2,2.1s0.1,2.1,1.2,2.1
		s1.2-0.9,1.2-2.1S560.7,733.9,559.7,733.9L559.7,733.9z"/>
	<path class="st15" d="M568.4,734.3c-0.2-0.3-0.6-0.5-1-0.4c-0.7,0-1.2,0.6-1.2,1.2c0,0,0,0,0,0c0,0,0,0.1,0,0.1v4.4h-1.8v-7.3h1.8
		v0.7c0.5-0.5,1.1-0.8,1.8-0.8c0.6,0,1.3,0.2,1.7,0.7L568.4,734.3z"/>
	<path class="st15" d="M571.8,736.6c-0.1,0.8,0.5,1.6,1.4,1.6c0,0,0,0,0,0h0.2c0.6,0,1.2-0.2,1.7-0.7l1.1,1.1
		c-0.7,0.8-1.7,1.2-2.8,1.2c-1.7,0-3.4-0.8-3.4-3.7c0-2.4,1.3-3.7,3.2-3.7c1.8,0,3.2,1.5,3.2,3.2c0,0.1,0,0.2,0,0.2v0.8L571.8,736.6
		z M574.4,734.6c-0.3-0.7-1.2-0.9-1.8-0.6c0,0,0,0,0,0c-0.3,0.1-0.5,0.3-0.6,0.6c-0.1,0.2-0.2,0.5-0.2,0.8h2.8
		C574.6,735.1,574.5,734.8,574.4,734.6L574.4,734.6z"/>
	<path class="st15" d="M582.1,739.7V739c-0.4,0.5-1.1,0.8-1.8,0.8c-0.7,0-1.3-0.2-1.8-0.7c-0.7-0.7-0.8-2-0.8-3.1s0-2.3,0.8-3.1
		c0.5-0.4,1.1-0.7,1.8-0.7c0.7,0,1.3,0.2,1.8,0.7v-3.3h1.8v10L582.1,739.7z M580.8,733.9c-1.1,0-1.2,0.9-1.2,2.1s0.1,2.1,1.2,2.1
		s1.2-0.9,1.2-2.1S581.9,733.9,580.8,733.9z"/>
	<path class="st15" d="M585.9,731.1v-1.5h1.8v1.5H585.9z M585.9,739.6v-7.3h1.8v7.3H585.9z"/>
	<path class="st15" d="M592.7,739.7c-1.5,0-3.3-0.8-3.3-3.7s1.8-3.7,3.3-3.7c0.9,0,1.8,0.3,2.4,1l-1.2,1.2c-0.3-0.4-0.7-0.6-1.2-0.6
		c-0.4,0-0.8,0.2-1,0.5c-0.5,1-0.5,2.2,0,3.2c0.2,0.3,0.6,0.5,1,0.5c0.5,0,0.9-0.2,1.2-0.6l1.2,1.2
		C594.4,739.4,593.6,739.8,592.7,739.7z"/>
	<path class="st15" d="M598.7,739.7c-1.1,0.1-2.1-0.8-2.1-1.9v-3.8h-0.8v-1.4h0.8v-2.2h1.8v2.2h1.3v1.4h-1.3v3.5
		c0,0.3,0.2,0.6,0.5,0.6c0,0,0,0,0,0h0.8v1.5H598.7z"/>
	<path class="st15" d="M601.4,731.1v-1.5h1.9v1.5H601.4z M601.4,739.6v-7.3h1.8v7.3H601.4z"/>
	<path class="st15" d="M610.3,738.8c-1.3,1.2-3.3,1.2-4.5,0c-1.1-1.7-1.1-3.9,0-5.7c1.3-1.2,3.3-1.2,4.5,0
		C611.4,734.9,611.4,737.1,610.3,738.8z M608.9,734.2c-0.2-0.2-0.5-0.3-0.8-0.3c-0.3,0-0.6,0.1-0.8,0.3c-0.6,1.1-0.6,2.4,0,3.5
		c0.2,0.2,0.5,0.3,0.8,0.3c0.3,0,0.6-0.1,0.8-0.3C609.4,736.7,609.4,735.3,608.9,734.2z"/>
	<path class="st15" d="M617.1,739.7v-4.4c0.1-0.7-0.4-1.3-1.1-1.4c-0.7-0.1-1.3,0.4-1.3,1c0,0.1,0,0.2,0,0.3v4.4h-1.8v-7.3h1.8v0.6
		c0.5-0.5,1.1-0.8,1.8-0.8c0.6,0,1.3,0.2,1.7,0.7c0.5,0.6,0.8,1.3,0.7,2.1v4.7L617.1,739.7z"/>
	<path class="st15" d="M804.3,738.6c-0.7,0.8-1.8,1.2-2.8,1.1c-1,0-2-0.4-2.7-1.1c-0.4-0.4-0.7-0.9-0.8-1.5c-0.2-1.7-0.2-3.3,0-5
		c0.1-0.6,0.4-1.1,0.8-1.5c0.7-0.7,1.7-1.1,2.7-1.1c1.9-0.1,3.6,1.3,3.8,3.2h-2c-0.1-0.9-0.9-1.5-1.8-1.5c-0.5,0-0.9,0.2-1.2,0.5
		c-0.4,0.5-0.5,0.8-0.5,2.8s0.1,2.3,0.5,2.8c0.3,0.4,0.8,0.5,1.2,0.5c0.5,0,1-0.2,1.4-0.6c0.3-0.4,0.5-0.8,0.5-1.3v-0.4h-1.8v-1.6
		h3.8v1.5C805.3,736.6,805,737.7,804.3,738.6z"/>
	<path class="st15" d="M809,739.7c-1.1,0.1-2.1-0.8-2.1-1.9v-8.1h1.8v7.8c0,0.4,0.2,0.7,0.6,0.7h0.7v1.5L809,739.7z"/>
	<path class="st15" d="M816.2,738.8c-1.3,1.2-3.3,1.2-4.5,0c-1.1-1.7-1.1-3.9,0-5.7c1.3-1.2,3.3-1.2,4.5,0
		C817.3,734.9,817.3,737.1,816.2,738.8z M814.8,734.2c-0.2-0.2-0.5-0.3-0.8-0.3c-0.3,0-0.6,0.1-0.8,0.3c-0.6,1.1-0.6,2.4,0,3.5
		c0.2,0.2,0.5,0.3,0.8,0.3c0.3,0,0.6-0.1,0.8-0.3C815.4,736.7,815.4,735.3,814.8,734.2z"/>
	<path class="st15" d="M824.2,739.1c-0.5,0.4-1.1,0.7-1.8,0.7c-0.7,0-1.4-0.2-1.8-0.8v0.7h-1.8v-10h1.8v3.4c0.4-0.5,1.1-0.8,1.8-0.7
		c0.7,0,1.3,0.2,1.8,0.7c0.7,0.7,0.7,2,0.7,3.1S824.9,738.3,824.2,739.1z M821.8,733.9c-1.1,0-1.2,0.9-1.2,2.1s0.1,2.1,1.2,2.1
		s1.2-0.9,1.2-2.1S822.9,733.9,821.8,733.9z"/>
	<path class="st15" d="M830.4,739.7V739c-0.5,0.5-1.1,0.8-1.8,0.7c-0.7,0.1-1.4-0.2-1.9-0.7c-0.4-0.4-0.6-1-0.6-1.6
		c0-1.2,0.8-2.1,2.5-2.1h1.7V735c0-0.8-0.4-1.1-1.3-1.1c-0.5-0.1-1.1,0.2-1.4,0.6l-1.2-1.1c0.7-0.7,1.7-1.1,2.6-1
		c2,0,3.1,0.9,3.1,2.6v4.8L830.4,739.7z M830.4,736.6h-1.4c-0.7,0-1,0.3-1,0.8s0.3,0.8,1,0.8c0.4,0.1,0.8-0.1,1.2-0.3
		c0.2-0.3,0.3-0.6,0.3-0.9L830.4,736.6z"/>
	<path class="st15" d="M836.2,739.7c-1.1,0.1-2.1-0.8-2.1-1.9v-8.1h1.8v7.8c0,0.3,0.2,0.6,0.5,0.6c0,0,0,0,0,0h0.9v1.5L836.2,739.7z
		"/>
	<path class="st15" d="M845.6,739.7V739c-0.5,0.5-1.1,0.8-1.8,0.7c-0.7,0.1-1.4-0.2-1.9-0.7c-0.4-0.4-0.6-1-0.6-1.6
		c0-1.2,0.8-2.1,2.5-2.1h1.7V735c0-0.8-0.4-1.1-1.4-1.1c-0.5-0.1-1.1,0.2-1.4,0.6l-1.2-1.1c0.7-0.7,1.6-1.1,2.6-1
		c2,0,3.1,0.9,3.1,2.6v4.8L845.6,739.7z M845.6,736.6h-1.4c-0.7,0-1,0.3-1,0.8s0.3,0.8,1,0.8c0.4,0.1,0.8-0.1,1.2-0.3
		c0.2-0.3,0.3-0.6,0.3-0.9L845.6,736.6z"/>
	<path class="st15" d="M853.6,739.7v-4.4c0.1-0.7-0.4-1.3-1.1-1.4c-0.7-0.1-1.3,0.4-1.3,1c0,0.1,0,0.2,0,0.3v4.4h-1.8v-7.3h1.8v0.6
		c0.5-0.5,1.1-0.8,1.8-0.8c0.6,0,1.3,0.2,1.8,0.6c0.5,0.6,0.8,1.3,0.7,2.1v4.7L853.6,739.7z"/>
	<path class="st15" d="M861.4,739.7V739c-0.4,0.5-1.1,0.8-1.8,0.8c-0.7,0-1.3-0.2-1.8-0.7c-0.7-0.7-0.7-2-0.7-3.1s0-2.3,0.7-3.1
		c0.5-0.4,1.1-0.7,1.8-0.7c0.7,0,1.3,0.2,1.8,0.7v-3.3h1.8v10L861.4,739.7z M860.1,733.9c-1.1,0-1.2,0.9-1.2,2.1s0.1,2.1,1.2,2.1
		s1.2-0.9,1.2-2.1S861.2,733.9,860.1,733.9z"/>
	<path class="st15" d="M870.6,739.7c-1.1,0.1-2.1-0.8-2.1-1.9v-8.1h1.8v7.8c0,0.4,0.2,0.7,0.7,0.7h0.7v1.5L870.6,739.7z"/>
	<path class="st15" d="M877.8,738.8c-0.6,0.6-1.4,0.9-2.3,0.9c-0.8,0-1.7-0.3-2.2-0.9c-1.1-1.7-1.1-3.9,0-5.7c1.3-1.2,3.3-1.2,4.5,0
		C878.9,734.9,878.9,737.1,877.8,738.8z M876.4,734.2c-0.5-0.4-1.2-0.4-1.7,0c-0.6,1.1-0.6,2.4,0,3.5c0.2,0.2,0.5,0.3,0.8,0.3
		c0.3,0,0.6-0.1,0.9-0.3C877,736.7,877,735.3,876.4,734.2z"/>
	<path class="st15" d="M883.3,739.7c-1.5,0-3.3-0.8-3.3-3.7s1.8-3.7,3.3-3.7c0.9,0,1.8,0.3,2.4,1l-1.2,1.2c-0.3-0.4-0.7-0.6-1.2-0.6
		c-0.4,0-0.8,0.2-1,0.5c-0.5,1-0.5,2.2,0,3.2c0.2,0.3,0.6,0.5,1,0.5c0.5,0,0.9-0.2,1.2-0.6l1.2,1.2
		C885.1,739.4,884.2,739.8,883.3,739.7z"/>
	<path class="st15" d="M890.7,739.7V739c-0.5,0.5-1.1,0.8-1.8,0.7c-0.7,0.1-1.4-0.2-1.9-0.7c-0.4-0.4-0.6-1-0.6-1.6
		c0-1.2,0.8-2.1,2.5-2.1h1.8V735c0-0.8-0.4-1.1-1.3-1.1c-0.5-0.1-1.1,0.2-1.4,0.6l-1.2-1.1c0.7-0.7,1.7-1.1,2.6-1
		c2,0,3.1,0.9,3.1,2.6v4.8L890.7,739.7z M890.7,736.6h-1.4c-0.7,0-1,0.3-1,0.8s0.3,0.8,1,0.8c0.4,0.1,0.8-0.1,1.2-0.3
		c0.2-0.3,0.3-0.6,0.3-0.9L890.7,736.6z"/>
	<path class="st15" d="M896.6,739.7c-1.1,0.1-2.1-0.8-2.1-1.9v-8.1h1.8v7.8c0,0.3,0.2,0.6,0.5,0.6c0,0,0,0,0,0h0.9v1.5L896.6,739.7z
		"/>
	<path class="st15" d="M1082.3,735.9h-1.9v3.8h-1.9v-10h3.9c1.7,0,3.1,1.4,3.1,3.1S1084,735.9,1082.3,735.9
		C1082.3,735.9,1082.3,735.9,1082.3,735.9L1082.3,735.9L1082.3,735.9z M1082.2,731.4h-1.8v2.7h1.8c0.8,0.1,1.4-0.5,1.5-1.2
		c0.1-0.8-0.5-1.4-1.2-1.5c0,0,0,0,0,0H1082.2z"/>
	<path class="st15" d="M1091.2,739.7V739c-1,1-2.5,1-3.5,0.1c-0.5-0.6-0.8-1.3-0.7-2.1v-4.7h1.8v4.4c-0.1,0.7,0.4,1.3,1,1.4
		c0.7,0.1,1.3-0.4,1.4-1c0,0,0,0,0,0c0-0.1,0-0.2,0-0.3v-4.4h1.8v7.3L1091.2,739.7z"/>
	<path class="st15" d="M1099,734.3c-0.2-0.3-0.6-0.5-1-0.4c-0.7,0-1.2,0.6-1.2,1.2c0,0,0,0,0,0c0,0,0,0.1,0,0.1v4.4h-1.8v-7.3h1.8
		v0.7c0.5-0.5,1.1-0.8,1.8-0.8c0.6,0,1.3,0.2,1.7,0.7L1099,734.3z"/>
	<path class="st15" d="M1103.7,739.7c-1.1,0.1-2.3-0.3-3.1-1l1.2-1.2c0.5,0.5,1.3,0.8,2,0.7c0.6,0,1.3-0.2,1.3-0.8
		c0-0.4-0.2-0.6-0.8-0.7l-1.2-0.1c-1.3-0.1-2.1-0.7-2.1-2c0-1.5,1.3-2.3,2.8-2.3c1-0.1,2,0.2,2.8,0.8l-1.1,1.1
		c-0.5-0.4-1.1-0.5-1.7-0.5c-0.7,0-1,0.3-1,0.7s0.1,0.6,0.8,0.6l1.1,0.1c1.4,0.1,2.2,0.9,2.2,2.1
		C1106.8,739,1105.4,739.7,1103.7,739.7z"/>
	<path class="st15" d="M1112.5,739.7V739c-0.5,0.5-1.1,0.8-1.8,0.8c-0.6,0-1.3-0.2-1.7-0.6c-0.5-0.6-0.8-1.3-0.8-2.1v-4.7h1.8v4.4
		c-0.1,0.7,0.4,1.3,1.1,1.3c0.7,0.1,1.3-0.4,1.3-1.1c0,0,0,0,0,0c0-0.1,0-0.1,0-0.2v-4.4h1.8v7.3L1112.5,739.7z"/>
	<path class="st15" d="M1116.3,731.1v-1.5h1.9v1.5H1116.3z M1116.3,739.6v-7.3h1.8v7.3H1116.3z"/>
	<path class="st15" d="M1122.5,739.7c-1.1,0.1-2-0.8-2.1-1.9V734h-0.8v-1.4h0.8v-2.2h1.8v2.2h1.3v1.4h-1.3v3.5
		c0,0.4,0.2,0.7,0.6,0.7h0.7v1.5L1122.5,739.7z"/>
	<path class="st15" d="M1125,742v-4.3h2v2.8L1125,742z"/>
	<path class="st15" d="M1140.7,739.7v-4.4c0-0.7-0.5-1.2-1.2-1.2c-0.7,0-1.2,0.5-1.2,1.2v4.5h-1.8v-4.4c0.1-0.7-0.4-1.3-1.1-1.3
		c-0.7-0.1-1.3,0.4-1.3,1.1c0,0.1,0,0.1,0,0.2v4.4h-1.8v-7.3h1.8v0.7c0.5-0.5,1.1-0.8,1.8-0.8c0.8,0,1.5,0.3,1.9,0.9
		c0.6-0.6,1.4-0.9,2.2-0.9c0.7,0,1.3,0.2,1.8,0.6c0.5,0.5,0.8,1.3,0.8,2.1v4.7L1140.7,739.7z"/>
	<path class="st15" d="M1149.6,738.8c-1.3,1.2-3.3,1.2-4.5,0c-1.1-1.7-1.1-3.9,0-5.7c1.3-1.2,3.3-1.2,4.5,0
		C1150.7,734.9,1150.7,737.1,1149.6,738.8z M1148.1,734.2c-0.2-0.2-0.5-0.3-0.8-0.3c-0.3,0-0.6,0.1-0.8,0.3
		c-0.4,0.5-0.5,1.1-0.5,1.8c-0.1,0.6,0.1,1.3,0.4,1.8c0.2,0.2,0.5,0.3,0.8,0.3c0.3,0,0.6-0.1,0.8-0.3c0.4-0.5,0.5-1.2,0.4-1.8
		C1148.6,735.4,1148.5,734.8,1148.1,734.2L1148.1,734.2z"/>
	<path class="st15" d="M1156.2,739.7V739c-0.4,0.5-1.1,0.8-1.8,0.8c-0.7,0-1.3-0.2-1.8-0.7c-0.7-0.7-0.7-2-0.7-3.1s0-2.3,0.7-3.1
		c0.5-0.4,1.1-0.7,1.8-0.7c0.7,0,1.3,0.2,1.8,0.7v-3.3h1.8v10L1156.2,739.7z M1154.9,733.9c-1.1,0-1.2,0.9-1.2,2.1s0.1,2.1,1.2,2.1
		s1.2-0.9,1.2-2.1S1156,733.9,1154.9,733.9L1154.9,733.9z"/>
	<path class="st15" d="M1161.4,736.6c-0.1,0.8,0.5,1.6,1.4,1.6c0,0,0,0,0,0h0.2c0.6,0,1.2-0.2,1.7-0.7l1.1,1.1
		c-0.7,0.8-1.7,1.2-2.8,1.2c-1.7,0-3.4-0.8-3.4-3.7c0-2.4,1.3-3.7,3.2-3.7c1.8,0,3.2,1.5,3.2,3.2c0,0.1,0,0.2,0,0.3v0.8
		L1161.4,736.6z M1164,734.6c-0.2-0.5-0.7-0.8-1.2-0.8c-0.5,0-1,0.3-1.2,0.8c-0.1,0.2-0.2,0.5-0.2,0.8h2.8
		C1164.2,735.1,1164.1,734.8,1164,734.6L1164,734.6z"/>
	<path class="st15" d="M1169.7,739.7c-1.1,0.1-2.1-0.8-2.1-1.9v-8.1h1.8v7.8c0,0.4,0.2,0.7,0.7,0.7h0.7v1.5H1169.7z"/>
	<path class="st15" d="M1180.8,739.1c-0.5,0.4-1.1,0.7-1.8,0.7c-0.7,0-1.3-0.2-1.8-0.7v3.3h-1.8v-10h1.8v0.7
		c0.4-0.5,1.1-0.8,1.8-0.8c0.7,0,1.3,0.2,1.8,0.7c0.7,0.7,0.7,2,0.7,3.1S1181.5,738.3,1180.8,739.1z M1178.5,733.9
		c-1.1,0-1.2,0.9-1.2,2.1s0.1,2.1,1.2,2.1s1.2-0.9,1.2-2.1S1179.6,733.9,1178.5,733.9L1178.5,733.9z"/>
	<path class="st15" d="M1187.3,734.3c-0.4-0.5-1.2-0.6-1.7-0.2c0,0,0,0,0,0c-0.3,0.3-0.5,0.7-0.4,1.1v4.4h-1.8v-7.3h1.8v0.7
		c0.5-0.5,1.1-0.8,1.8-0.8c0.6,0,1.3,0.2,1.7,0.7L1187.3,734.3z"/>
	<path class="st15" d="M1190.7,736.6c-0.1,0.8,0.5,1.6,1.4,1.6c0,0,0,0,0,0h0.2c0.6,0,1.2-0.2,1.7-0.7l1.1,1.1
		c-0.7,0.8-1.7,1.2-2.8,1.2c-1.7,0-3.4-0.8-3.4-3.7c0-2.4,1.3-3.7,3.2-3.7c1.8,0,3.2,1.5,3.2,3.2c0,0.1,0,0.2,0,0.3v0.8
		L1190.7,736.6z M1193.3,734.6c-0.2-0.5-0.7-0.8-1.2-0.8c-0.5,0-1,0.3-1.2,0.8c-0.1,0.2-0.2,0.5-0.2,0.8h2.8
		C1193.4,735.1,1193.4,734.8,1193.3,734.6L1193.3,734.6z"/>
	<path class="st15" d="M1199.2,739.7c-1.1,0.1-2-0.8-2.1-1.9V734h-0.8v-1.4h0.8v-2.2h1.8v2.2h1.3v1.4h-1.3v3.5
		c0,0.4,0.2,0.7,0.6,0.7h0.7v1.5L1199.2,739.7z"/>
	<path class="st15" d="M1201.8,731.1v-1.5h1.9v1.5H1201.8z M1201.8,739.6v-7.3h1.8v7.3H1201.8z"/>
	<path class="st15" d="M1208.6,739.7c-1.5,0-3.3-0.8-3.3-3.7s1.8-3.7,3.3-3.7c0.9,0,1.8,0.3,2.4,1l-1.2,1.2
		c-0.3-0.4-0.7-0.6-1.2-0.6c-0.4,0-0.8,0.2-1,0.5c-0.3,0.5-0.5,1-0.4,1.6c-0.1,0.6,0.1,1.1,0.4,1.6c0.2,0.3,0.6,0.5,1,0.5
		c0.5,0,0.9-0.2,1.2-0.6l1.2,1.2C1210.4,739.4,1209.5,739.8,1208.6,739.7z"/>
	<path class="st15" d="M1214.7,739.7c-1.1,0.1-2.1-0.8-2.1-1.9V734h-0.8v-1.4h0.8v-2.2h1.8v2.2h1.3v1.4h-1.3v3.5
		c0,0.4,0.2,0.7,0.6,0.7h0.7v1.5L1214.7,739.7z"/>
	<path class="st15" d="M1217.3,731.1v-1.5h1.9v1.5H1217.3z M1217.3,739.6v-7.3h1.8v7.3H1217.3z"/>
	<path class="st15" d="M1224.3,739.7h-1.4l-2.7-7.3h1.9l1.5,4.5l1.5-4.5h1.9L1224.3,739.7z"/>
	<path class="st15" d="M1229.4,736.6c-0.1,0.8,0.5,1.6,1.4,1.6c0,0,0,0,0,0h0.2c0.6,0,1.2-0.2,1.7-0.7l1.1,1.1
		c-0.7,0.8-1.7,1.2-2.8,1.2c-1.7,0-3.4-0.8-3.4-3.7c0-2.4,1.3-3.7,3.2-3.7c1.8,0,3.2,1.5,3.2,3.2c0,0.1,0,0.2,0,0.3v0.8
		L1229.4,736.6z M1232,734.6c-0.2-0.5-0.7-0.8-1.2-0.8c-0.5,0-1,0.3-1.2,0.8c-0.1,0.3-0.2,0.5-0.2,0.8h2.8
		C1232.1,735.1,1232.1,734.8,1232,734.6L1232,734.6z"/>
	<path class="st15" d="M1235.5,742v-4.3h2v2.8L1235.5,742z"/>
	<path class="st15" d="M1244.2,736.6c-0.1,0.8,0.5,1.6,1.4,1.6c0,0,0,0,0,0h0.2c0.6,0,1.2-0.2,1.7-0.7l1.1,1.1
		c-0.7,0.8-1.7,1.2-2.8,1.2c-1.7,0-3.4-0.8-3.4-3.7c0-2.4,1.3-3.7,3.2-3.7c1.8,0,3.2,1.5,3.2,3.2c0,0.1,0,0.2,0,0.3v0.8
		L1244.2,736.6z M1246.8,734.6c-0.3-0.7-1.2-0.9-1.8-0.6c-0.3,0.1-0.5,0.3-0.6,0.6c-0.1,0.2-0.2,0.5-0.2,0.8h2.8
		C1247,735.1,1247,734.8,1246.8,734.6L1246.8,734.6z"/>
	<path class="st15" d="M1252.7,739.7c-1.1,0.1-2.1-0.8-2.1-1.9V734h-0.8v-1.4h0.8v-2.2h1.8v2.2h1.3v1.4h-1.3v3.5
		c0,0.4,0.2,0.7,0.6,0.7h0.7v1.5L1252.7,739.7z"/>
	<path class="st15" d="M1258.2,739.7c-1.5,0-3.3-0.8-3.3-3.7s1.8-3.7,3.3-3.7c0.9,0,1.8,0.3,2.4,1l-1.2,1.2
		c-0.3-0.4-0.7-0.6-1.2-0.6c-0.4,0-0.8,0.2-1,0.5c-0.3,0.5-0.5,1-0.4,1.6c-0.1,0.6,0.1,1.1,0.4,1.6c0.2,0.3,0.6,0.5,1,0.5
		c0.5,0,0.9-0.2,1.2-0.6l1.2,1.2C1260,739.4,1259.1,739.8,1258.2,739.7z"/>
	<path class="st15" d="M1262,739.7v-2.1h2.1v2.1H1262z"/>
	<path class="st15" d="M1406.7,739.7c-1.3,0.1-2.7-0.4-3.6-1.3l1.3-1.3c0.7,0.6,1.5,0.9,2.4,0.8c1.2,0,1.8-0.4,1.8-1.2
		c0-0.3-0.1-0.6-0.3-0.8c-0.3-0.2-0.6-0.3-0.9-0.3l-1.2-0.2c-0.7-0.1-1.4-0.3-1.9-0.8c-0.5-0.5-0.8-1.3-0.7-2c0-1.8,1.3-3,3.5-3
		c1.2-0.1,2.4,0.3,3.2,1.2l-1.2,1.3c-0.6-0.5-1.3-0.7-2-0.7c-1,0-1.5,0.6-1.5,1.3c0,0.3,0.1,0.5,0.3,0.7c0.3,0.2,0.6,0.4,0.9,0.4
		l1.2,0.2c0.7,0.1,1.4,0.3,1.9,0.8c0.5,0.6,0.8,1.3,0.8,2.1C1410.4,738.6,1408.8,739.7,1406.7,739.7z"/>
	<path class="st15" d="M1414.4,739.7c-1.1,0.1-2-0.8-2.1-1.9V734h-0.8v-1.4h0.8v-2.2h1.8v2.2h1.3v1.4h-1.3v3.5
		c0,0.4,0.2,0.7,0.6,0.7h0.7v1.5L1414.4,739.7z"/>
	<path class="st15" d="M1418.4,736.6c-0.1,0.8,0.5,1.6,1.4,1.6c0,0,0,0,0,0h0.2c0.6,0,1.2-0.2,1.7-0.7l1.1,1.1
		c-0.7,0.8-1.7,1.2-2.8,1.2c-1.7,0-3.4-0.8-3.4-3.7c0-2.4,1.3-3.7,3.2-3.7c1.8,0,3.2,1.5,3.2,3.2c0,0.1,0,0.2,0,0.3v0.8
		L1418.4,736.6z M1421,734.6c-0.3-0.7-1.2-0.9-1.8-0.6c-0.3,0.1-0.5,0.3-0.6,0.6c-0.1,0.3-0.2,0.5-0.2,0.8h2.8
		C1421.2,735.1,1421.1,734.8,1421,734.6L1421,734.6z"/>
	<path class="st15" d="M1426.1,736.6c-0.1,0.8,0.5,1.6,1.4,1.6c0,0,0,0,0,0h0.2c0.6,0,1.2-0.2,1.7-0.7l1.1,1.1
		c-0.7,0.8-1.7,1.2-2.8,1.2c-1.7,0-3.4-0.8-3.4-3.7c0-2.4,1.3-3.7,3.2-3.7c1.8,0,3.2,1.5,3.2,3.2c0,0.1,0,0.2,0,0.3v0.8
		L1426.1,736.6z M1428.7,734.6c-0.2-0.5-0.7-0.8-1.2-0.8c-0.5,0-1,0.3-1.2,0.8c-0.1,0.2-0.2,0.5-0.2,0.8h2.8
		C1428.9,735.1,1428.8,734.8,1428.7,734.6L1428.7,734.6z"/>
	<path class="st15" d="M1436.3,734.3c-0.4-0.5-1.2-0.6-1.7-0.2c0,0,0,0,0,0c-0.3,0.3-0.5,0.7-0.4,1.1v4.4h-1.8v-7.3h1.8v0.7
		c0.5-0.5,1.1-0.8,1.8-0.8c0.6,0,1.3,0.2,1.7,0.7L1436.3,734.3z"/>
	<path class="st15" d="M1438.7,731.1v-1.5h1.9v1.5H1438.7z M1438.7,739.6v-7.3h1.8v7.3H1438.7z"/>
	<path class="st15" d="M1446.8,739.7v-4.4c0.1-0.7-0.4-1.3-1.1-1.4c-0.7-0.1-1.3,0.4-1.3,1c0,0.1,0,0.2,0,0.3v4.4h-1.8v-7.3h1.8v0.6
		c0.5-0.5,1.1-0.8,1.8-0.8c0.6,0,1.3,0.2,1.7,0.6c0.5,0.6,0.8,1.3,0.7,2.1v4.7L1446.8,739.7z"/>
	<path class="st15" d="M1453.1,742.4c-1,0.1-2-0.3-2.7-1l1.1-1.1c0.4,0.4,0.9,0.6,1.4,0.6c0.8,0.1,1.4-0.5,1.5-1.3
		c0-0.1,0-0.2,0-0.2v-0.7c-0.4,0.5-1.1,0.8-1.7,0.7c-0.6,0-1.3-0.2-1.7-0.7c-0.7-0.7-0.8-1.6-0.8-2.9s0.1-2.2,0.8-2.9
		c0.5-0.4,1.1-0.7,1.8-0.6c0.7,0,1.3,0.2,1.8,0.8v-0.7h1.8v7c0.1,1.7-1.2,3-2.9,3.1c0,0,0,0,0,0L1453.1,742.4z M1453.3,733.9
		c-1.1,0-1.2,0.9-1.2,1.9s0.1,1.9,1.2,1.9s1.2-0.9,1.2-1.9S1454.4,733.9,1453.3,733.9L1453.3,733.9z"/>
	<path class="st15" d="M1458.3,742v-4.3h2v2.8L1458.3,742z"/>
	<path class="st15" d="M1469.2,739.7V739c-0.5,0.5-1.1,0.8-1.8,0.7c-0.7,0.1-1.4-0.2-1.9-0.7c-0.4-0.4-0.6-1-0.6-1.6
		c0-1.2,0.8-2.1,2.5-2.1h1.7V735c0-0.8-0.4-1.1-1.4-1.1c-0.5-0.1-1.1,0.2-1.4,0.6l-1.2-1.1c0.7-0.7,1.6-1.1,2.6-1
		c2,0,3.1,0.9,3.1,2.6v4.8L1469.2,739.7z M1469.2,736.6h-1.5c-0.7,0-1,0.3-1,0.8s0.3,0.8,1,0.8c0.4,0.1,0.8-0.1,1.2-0.3
		c0.2-0.3,0.3-0.6,0.3-0.9L1469.2,736.6z"/>
	<path class="st15" d="M1475.9,739.7c-1.5,0-3.3-0.8-3.3-3.7s1.8-3.7,3.3-3.7c0.9,0,1.8,0.3,2.4,1l-1.2,1.2
		c-0.3-0.4-0.7-0.6-1.2-0.6c-0.4,0-0.8,0.2-1,0.5c-0.3,0.5-0.5,1-0.4,1.6c-0.1,0.6,0.1,1.1,0.4,1.6c0.2,0.3,0.6,0.5,1,0.5
		c0.5,0,0.9-0.2,1.2-0.6l1.2,1.2C1477.7,739.4,1476.8,739.8,1475.9,739.7z"/>
	<path class="st15" d="M1482.3,739.7c-1.5,0-3.3-0.8-3.3-3.7s1.8-3.7,3.3-3.7c0.9,0,1.8,0.3,2.4,1l-1.2,1.2
		c-0.3-0.4-0.7-0.6-1.2-0.6c-0.4,0-0.8,0.2-1,0.5c-0.3,0.5-0.5,1-0.4,1.6c-0.1,0.6,0.1,1.1,0.4,1.6c0.2,0.3,0.6,0.5,1,0.5
		c0.5,0,0.9-0.2,1.2-0.6l1.2,1.2C1484.1,739.4,1483.3,739.8,1482.3,739.7z"/>
	<path class="st15" d="M1487.3,736.6c-0.1,0.8,0.5,1.6,1.4,1.6c0,0,0,0,0,0h0.2c0.6,0,1.2-0.2,1.7-0.7l1.1,1.1
		c-0.7,0.8-1.7,1.2-2.8,1.2c-1.7,0-3.4-0.8-3.4-3.7c0-2.4,1.3-3.7,3.2-3.7c1.8,0,3.2,1.5,3.2,3.2c0,0.1,0,0.2,0,0.3v0.8
		L1487.3,736.6z M1489.9,734.6c-0.3-0.7-1.2-0.9-1.8-0.6c-0.3,0.1-0.5,0.3-0.6,0.6c-0.1,0.2-0.2,0.5-0.2,0.8h2.8
		C1490.1,735.1,1490.1,734.8,1489.9,734.6L1489.9,734.6z"/>
	<path class="st15" d="M1495.7,739.7c-1.1,0.1-2.1-0.8-2.1-1.9v-8.1h1.8v7.8c0,0.4,0.2,0.7,0.6,0.7h0.7v1.5H1495.7z"/>
	<path class="st15" d="M1499.2,736.6c-0.1,0.8,0.5,1.6,1.4,1.6c0,0,0,0,0,0h0.2c0.6,0,1.2-0.2,1.7-0.7l1.1,1.1
		c-0.7,0.8-1.7,1.2-2.8,1.2c-1.7,0-3.4-0.8-3.4-3.7c0-2.4,1.3-3.7,3.2-3.7s3.2,1.5,3.2,3.5v0.8L1499.2,736.6z M1501.8,734.6
		c-0.3-0.7-1.2-0.9-1.8-0.6c0,0,0,0,0,0c-0.3,0.1-0.5,0.3-0.6,0.6c-0.1,0.2-0.2,0.5-0.2,0.8h2.8C1502,735.1,1502,734.8,1501.8,734.6
		L1501.8,734.6z"/>
	<path class="st15" d="M1509.4,734.3c-0.2-0.3-0.6-0.5-1-0.4c-0.7,0-1.2,0.6-1.2,1.2c0,0,0,0.1,0,0.1v4.4h-1.8v-7.3h1.8v0.7
		c0.5-0.5,1.1-0.8,1.8-0.8c0.6,0,1.3,0.2,1.7,0.7L1509.4,734.3z"/>
	<path class="st15" d="M1515.4,739.7V739c-0.5,0.5-1.1,0.8-1.8,0.7c-0.7,0.1-1.4-0.2-1.9-0.7c-0.4-0.4-0.6-1-0.6-1.6
		c0-1.2,0.8-2.1,2.5-2.1h1.7V735c0-0.8-0.4-1.1-1.4-1.1c-0.5-0.1-1.1,0.2-1.4,0.6l-1.2-1.1c0.7-0.7,1.6-1.1,2.6-1
		c2,0,3.1,0.9,3.1,2.6v4.8L1515.4,739.7z M1515.4,736.6h-1.4c-0.7,0-1,0.3-1,0.8s0.3,0.8,1,0.8c0.4,0.1,0.8-0.1,1.2-0.3
		c0.2-0.3,0.3-0.6,0.3-0.9L1515.4,736.6z"/>
	<path class="st15" d="M1521.4,739.7c-1.1,0.1-2.1-0.8-2.1-1.9V734h-0.8v-1.4h0.8v-2.2h1.8v2.2h1.3v1.4h-1.3v3.5
		c0,0.4,0.2,0.7,0.6,0.7h0.7v1.5L1521.4,739.7z"/>
	<path class="st15" d="M1524.1,731.1v-1.5h1.9v1.5H1524.1z M1524.1,739.6v-7.3h1.8v7.3H1524.1z"/>
	<path class="st15" d="M1533,738.8c-1.3,1.2-3.3,1.2-4.5,0c-1.1-1.7-1.1-3.9,0-5.7c1.3-1.2,3.3-1.2,4.5,0
		C1534.1,734.9,1534.1,737.1,1533,738.8z M1531.6,734.2c-0.2-0.2-0.5-0.3-0.8-0.3c-0.3,0-0.6,0.1-0.8,0.3c-0.4,0.5-0.5,1.1-0.4,1.8
		c-0.1,0.6,0.1,1.3,0.4,1.8c0.2,0.2,0.5,0.3,0.8,0.3c0.3,0,0.6-0.1,0.8-0.3c0.4-0.5,0.5-1.1,0.4-1.8
		C1532.1,735.4,1531.9,734.7,1531.6,734.2L1531.6,734.2z"/>
	<path class="st15" d="M1539.8,739.7v-4.4c0.1-0.7-0.4-1.3-1.1-1.4c-0.7-0.1-1.3,0.4-1.3,1c0,0.1,0,0.2,0,0.3v4.4h-1.8v-7.3h1.8v0.6
		c0.5-0.5,1.1-0.8,1.8-0.8c0.6,0,1.3,0.2,1.7,0.6c0.5,0.6,0.8,1.3,0.7,2.1v4.7L1539.8,739.7z"/>
	<path class="st15" d="M1543.5,742v-4.3h2v2.8L1543.5,742z"/>
	<path class="st15" d="M1556.1,739.1c-0.5,0.4-1.1,0.7-1.8,0.7c-0.7,0-1.4-0.2-1.8-0.8v0.7h-1.8v-10h1.8v3.4
		c0.4-0.5,1.1-0.8,1.8-0.7c0.7,0,1.3,0.2,1.8,0.7c0.7,0.7,0.7,2,0.7,3.1S1556.8,738.3,1556.1,739.1z M1553.7,733.9
		c-1.1,0-1.2,0.9-1.2,2.1s0.1,2.1,1.2,2.1s1.2-0.9,1.2-2.1S1554.9,733.9,1553.7,733.9z"/>
	<path class="st15" d="M1562.5,734.3c-0.4-0.5-1.2-0.6-1.7-0.2c0,0,0,0,0,0c-0.3,0.3-0.5,0.7-0.4,1.1v4.4h-1.8v-7.3h1.8v0.7
		c0.5-0.5,1.1-0.8,1.8-0.8c0.6,0,1.3,0.2,1.7,0.7L1562.5,734.3z"/>
	<path class="st15" d="M1568.5,739.7V739c-0.5,0.5-1.1,0.8-1.8,0.7c-0.7,0.1-1.4-0.2-1.9-0.7c-0.4-0.4-0.6-1-0.6-1.6
		c0-1.2,0.8-2.1,2.5-2.1h1.7V735c0-0.8-0.4-1.1-1.4-1.1c-0.5-0.1-1.1,0.2-1.4,0.6l-1.2-1.1c0.7-0.7,1.6-1.1,2.6-1
		c2,0,3.1,0.9,3.1,2.6v4.8L1568.5,739.7z M1568.5,736.6h-1.4c-0.7,0-1,0.3-1,0.8s0.3,0.8,1,0.8c0.4,0.1,0.8-0.1,1.2-0.3
		c0.2-0.3,0.3-0.6,0.3-0.9L1568.5,736.6z"/>
	<path class="st15" d="M1576.7,739.7l-1.8-3l-0.8,0.9v2.2h-1.8v-10h1.8v5.7l2.4-3h2.2l-2.6,2.9l2.8,4.4L1576.7,739.7z"/>
	<path class="st15" d="M1581.4,736.6c-0.1,0.8,0.5,1.6,1.4,1.6c0,0,0,0,0,0h0.2c0.6,0,1.2-0.2,1.7-0.7l1.1,1.1
		c-0.7,0.8-1.7,1.2-2.8,1.2c-1.7,0-3.4-0.8-3.4-3.7c0-2.4,1.3-3.7,3.2-3.7c1.8,0,3.2,1.5,3.2,3.2c0,0.1,0,0.2,0,0.3v0.8
		L1581.4,736.6z M1584,734.6c-0.3-0.7-1.2-0.9-1.8-0.6c-0.3,0.1-0.5,0.3-0.6,0.6c-0.1,0.3-0.2,0.5-0.2,0.8h2.8
		C1584.2,735.1,1584.1,734.8,1584,734.6L1584,734.6z"/>
	<g class="st16">
		<path class="st15" d="M758.9,1119.5h-3.8l-8.5-25.9h5.2l5.2,16.9l5.2-16.9h5.3L758.9,1119.5z"/>
		<path class="st15" d="M769.8,1119.5v-4.3l9.7-11.2c0.9-1.1,1.3-1.9,1.3-3.1c0-1.9-1.1-3.2-3.1-3.2c-1.6,0-3.2,0.8-3.2,3.3h-4.7
			c0-4.7,3.5-7.6,7.9-7.6c4.6,0,7.9,2.9,7.9,7.5c0,2.5-1,3.9-2.8,5.9l-7.2,8.4h10v4.3H769.8z"/>
		<path class="st15" d="M803.3,1119.5l-5-9l-5,9h-5.8l8-13.3l-7.5-12.6h5.7l4.5,8.4l4.5-8.4h5.7l-7.5,12.6l8.1,13.3H803.3z"/>
		<path class="st15" d="M822.2,1122.2h-4.4l10.4-31.3h4.4L822.2,1122.2z"/>
	</g>
	<g class="st16">
		<path class="st15" d="M853.7,1098.1v21.4h-5.1v-21.4h-6.8v-4.5h18.6v4.5H853.7z"/>
	</g>
	<g class="st16">
		<path class="st15" d="M865.5,1111.5c0,2.4,1.5,4.2,4.1,4.2c2.1,0,3.1-0.6,4.3-1.8l2.9,2.8c-1.9,1.9-3.8,3-7.2,3
			c-4.5,0-8.8-2-8.8-9.7c0-6.2,3.3-9.7,8.3-9.7c5.3,0,8.3,3.9,8.3,9.1v2.1H865.5z M872.3,1106.2c-0.5-1.1-1.6-2-3.2-2
			c-1.6,0-2.7,0.8-3.2,2c-0.3,0.7-0.4,1.2-0.4,2h7.2C872.7,1107.4,872.6,1106.9,872.3,1106.2z"/>
	</g>
	<g class="st16">
		<path class="st15" d="M887.1,1119.5c-3.9,0-5.5-2.7-5.5-5.4v-20.5h4.7v20.2c0,1.1,0.5,1.7,1.7,1.7h1.8v4H887.1z"/>
	</g>
	<g class="st16">
		<path class="st15" d="M896.4,1111.5c0,2.4,1.5,4.2,4.1,4.2c2.1,0,3.1-0.6,4.3-1.8l2.9,2.8c-1.9,1.9-3.8,3-7.2,3
			c-4.5,0-8.8-2-8.8-9.7c0-6.2,3.3-9.7,8.3-9.7c5.3,0,8.3,3.9,8.3,9.1v2.1H896.4z M903.1,1106.2c-0.5-1.1-1.6-2-3.2-2
			s-2.7,0.8-3.2,2c-0.3,0.7-0.4,1.2-0.4,2h7.2C903.5,1107.4,903.4,1106.9,903.1,1106.2z"/>
		<path class="st15" d="M925.7,1117.4c-1.2,1.2-3.1,2.3-5.9,2.3c-2.8,0-4.7-1.1-5.9-2.3c-1.7-1.8-2.1-3.9-2.1-7.4
			c0-3.4,0.4-5.6,2.1-7.3c1.2-1.2,3.1-2.3,5.9-2.3c2.8,0,4.7,1.1,5.9,2.3c1.7,1.8,2.1,3.9,2.1,7.3
			C927.8,1113.4,927.4,1115.6,925.7,1117.4z M922,1105.4c-0.5-0.5-1.3-0.8-2.2-0.8s-1.6,0.3-2.2,0.8c-1,1-1.1,2.6-1.1,4.6
			c0,2,0.1,3.6,1.1,4.6c0.5,0.5,1.2,0.8,2.2,0.8s1.7-0.3,2.2-0.8c1-1,1.1-2.7,1.1-4.6C923.1,1108,923,1106.4,922,1105.4z"/>
		<path class="st15" d="M946.2,1118c-1.1,1.1-2.8,1.7-4.6,1.7c-1.9,0-3.3-0.5-4.6-1.9v8.6h-4.7v-25.9h4.6v1.8c1.3-1.5,2.7-2,4.7-2
			c1.9,0,3.6,0.7,4.6,1.7c1.9,1.9,1.9,5.1,1.9,8S948.1,1116.1,946.2,1118z M940.2,1104.6c-2.8,0-3.2,2.3-3.2,5.4s0.4,5.5,3.2,5.5
			s3.2-2.4,3.2-5.5S943.1,1104.6,940.2,1104.6z"/>
	</g>
</g>
<g id="uj">
	<polygon id="feher_2_" class="st15" points="275.3,70.4 270.9,74.9 261.6,84.1 150.5,84.1 146,79.4 155.1,70.2 146.1,61.2 
		150.5,56.6 150.5,56.6 261.6,56.6 270.7,65.7 	"/>
	<polygon id="feher_1_" class="st15" points="912.1,70.4 907.6,75 898.4,84.2 787.3,84.2 782.7,79.5 791.8,70.3 782.8,61.2 
		787.3,56.7 787.3,56.7 898.4,56.7 907.5,65.8 	"/>
	<polygon id="feher" class="st15" points="1543.1,69.8 1538.7,74.4 1529.5,83.6 1450.9,83.6 1446.3,78.9 1455.4,69.7 1446.4,60.6 
		1450.9,56.1 1450.9,56.1 1529.5,56.1 1538.6,65.2 	"/>
	<g id="sense-think-act_1_">
		<path class="st17" d="M166.4,82.3c-3.6,0-6.3-0.8-8.6-3.1l3-3c1.5,1.4,3.6,2.1,5.7,2c2.7,0,4.2-1,4.2-2.9c0-0.7-0.2-1.5-0.7-2
			c-0.6-0.5-1.3-0.8-2.1-0.8l-2.8-0.4c-1.7-0.2-3.3-0.8-4.6-1.9c-1.2-1.2-1.8-2.9-1.7-4.6c0-4.2,3.1-7.1,8.2-7.1
			c2.8-0.2,5.5,0.8,7.6,2.7l-2.9,2.9c-1.3-1.1-3.1-1.7-4.8-1.6c-2.4,0-3.6,1.4-3.6,3c0,0.6,0.2,1.3,0.7,1.7c0.6,0.5,1.4,0.8,2.2,0.9
			l2.8,0.4c1.6,0.1,3.2,0.8,4.5,1.8c1.3,1.3,1.9,3.2,1.8,5C175.1,79.7,171.3,82.3,166.4,82.3z"/>
		<path class="st17" d="M179.4,82.1V58.5h15.5v4.1H184v5.5h9.3v4.1H184V78h10.9v4.1H179.4z"/>
		<path class="st17" d="M213.3,82.1L204,67.7v14.4h-4.6V58.5h4.1l9.3,14.4V58.5h4.6V82L213.3,82.1L213.3,82.1z"/>
		<path class="st17" d="M229.4,82.3c-3.6,0-6.3-0.8-8.6-3.1l3-3c1.5,1.4,3.6,2.1,5.7,2c2.7,0,4.2-1,4.2-2.9c0-0.7-0.2-1.5-0.7-2
			c-0.6-0.5-1.3-0.8-2.1-0.8l-2.8-0.4c-1.7-0.2-3.3-0.8-4.6-1.9c-1.2-1.2-1.8-2.9-1.7-4.6c0-4.2,3.1-7.1,8.2-7.1
			c2.8-0.2,5.5,0.8,7.6,2.7l-2.9,2.9c-1.3-1.1-3.1-1.7-4.8-1.6c-2.4,0-3.6,1.4-3.6,3c0,0.6,0.2,1.3,0.7,1.7c0.6,0.5,1.4,0.8,2.2,0.9
			l2.8,0.4c1.6,0.1,3.2,0.8,4.5,1.8c1.3,1.3,1.9,3.2,1.8,5C238.1,79.7,234.3,82.3,229.4,82.3z"/>
		<path class="st17" d="M242.5,82.1V58.5H258v4.1h-10.9v5.5h9.3v4.1h-9.3V78H258v4.1H242.5z"/>
		<path class="st17" d="M805.3,62.8v19.4h-4.6V62.8h-6.1v-4.1h16.9v4.1H805.3z"/>
		<path class="st17" d="M827.7,82.3v-9.8h-8v9.8h-4.6V58.7h4.6v9.6h8v-9.6h4.6v23.5h-4.6V82.3z"/>
		<path class="st17" d="M837.8,82.3V58.7h4.6v23.5h-4.6V82.3z"/>
		<path class="st17" d="M861.8,82.3l-9.3-14.4v14.4h-4.6V58.7h4.1l9.3,14.4V58.7h4.6v23.5h-4.1V82.3z"/>
		<path class="st17" d="M885.1,82.3l-6-10.7l-3,3.6v7.1h-4.6V58.7h4.6V69l8.3-10.2h5.6l-7.8,9.3l8.4,14.2L885.1,82.3z"/>
		<path class="st17" d="M1477,81.7l-1.4-4.2h-8.4l-1.4,4.2h-4.8l8.6-23.5h3.6l8.6,23.5H1477z M1471.5,65.1l-3,8.6h5.8L1471.5,65.1z"
			/>
		<path class="st17" d="M1492.8,81.9c-2.4,0-4.6-0.9-6.3-2.6c-1-0.9-1.7-2.2-1.9-3.5c-0.3-1.9-0.5-3.9-0.4-5.8
			c-0.1-1.9,0.1-3.9,0.4-5.8c0.3-1.3,0.9-2.6,1.9-3.5c1.7-1.7,3.9-2.6,6.3-2.6c4.4-0.2,8.2,3,8.7,7.4h-4.7c-0.3-2-2-3.4-4-3.3
			c-1.1-0.1-2.2,0.4-2.9,1.2c-1,1-1.2,2.1-1.2,6.6s0.2,5.6,1.2,6.6c0.7,0.8,1.8,1.3,2.9,1.2c2,0.1,3.7-1.3,4-3.3h4.7
			C1500.6,79.2,1497.3,81.9,1492.8,81.9z"/>
		<path class="st17" d="M1513.3,62.2v19.4h-4.6V62.2h-6.1v-4.1h16.9v4.1L1513.3,62.2z"/>
		<polygon class="st18" points="930.6,71 926.4,75.2 917.9,83.7 913.7,79.4 922.1,70.9 913.8,62.5 917.9,58.3 926.3,66.7 		"/>
		<polygon class="st18" points="947.7,71 943.5,75.2 935,83.7 930.8,79.4 939.2,70.9 930.9,62.5 935,58.3 943.4,66.7 		"/>
		<polygon class="st18" points="964.8,71 960.6,75.2 952.1,83.7 947.9,79.4 956.3,70.9 947.9,62.5 952.1,58.3 960.5,66.7 		"/>
		<polygon class="st18" points="981.9,71 977.7,75.2 969.2,83.7 964.9,79.4 973.4,70.9 965,62.5 969.2,58.3 977.6,66.7 		"/>
		<polygon class="st18" points="999,71 994.8,75.2 986.3,83.7 982,79.4 990.5,70.9 982.1,62.5 986.3,58.3 994.7,66.7 		"/>
		<polygon class="st18" points="1016.1,71 1011.9,75.2 1003.4,83.7 999.1,79.4 1007.6,70.9 999.2,62.5 1003.4,58.3 1011.8,66.7 		
			"/>
		<polygon class="st18" points="1033.1,71 1028.9,75.2 1020.5,83.7 1016.2,79.4 1024.7,70.9 1016.3,62.5 1020.5,58.3 1028.9,66.7 		
			"/>
		<polygon class="st18" points="1050.2,71 1046,75.2 1037.6,83.7 1033.3,79.4 1041.8,70.9 1033.4,62.5 1037.6,58.3 1045.9,66.7 		
			"/>
		<polygon class="st18" points="1067.3,71 1063.1,75.2 1054.7,83.7 1050.4,79.4 1058.9,70.9 1050.5,62.5 1054.7,58.3 1063,66.7 		
			"/>
		<polygon class="st18" points="1084.4,71 1080.2,75.2 1071.8,83.7 1067.5,79.4 1075.9,70.9 1067.6,62.5 1071.8,58.3 1080.1,66.7 		
			"/>
		<polygon class="st18" points="1101.5,71 1097.3,75.2 1088.9,83.7 1084.6,79.4 1093,70.9 1084.7,62.5 1088.9,58.3 1097.2,66.7 		
			"/>
		<polygon class="st18" points="1118.6,71 1114.4,75.2 1105.9,83.7 1101.7,79.4 1110.1,70.9 1101.8,62.5 1105.9,58.3 1114.3,66.7 		
			"/>
		<polygon class="st18" points="1135.7,71 1131.5,75.2 1123,83.7 1118.8,79.4 1127.2,70.9 1118.9,62.5 1123,58.3 1131.4,66.7 		"/>
		<polygon class="st18" points="1152.8,71 1148.6,75.2 1140.1,83.7 1135.9,79.4 1144.3,70.9 1135.9,62.5 1140.1,58.3 1148.5,66.7 		
			"/>
		<polygon class="st18" points="1169.9,71 1165.7,75.2 1157.2,83.7 1152.9,79.4 1161.4,70.9 1153,62.5 1157.2,58.3 1165.6,66.7 		
			"/>
		<polygon class="st18" points="1186.9,71 1182.8,75.2 1174.3,83.7 1170,79.4 1178.5,70.9 1170.1,62.5 1174.3,58.3 1182.7,66.7 		
			"/>
		<polygon class="st18" points="1204,71 1199.9,75.2 1191.4,83.7 1187.1,79.4 1195.6,70.9 1187.2,62.5 1191.4,58.3 1199.8,66.7 		
			"/>
		<polygon class="st18" points="1221.1,71 1216.9,75.2 1208.5,83.7 1204.2,79.4 1212.7,70.9 1204.3,62.5 1208.5,58.3 1216.9,66.7 		
			"/>
		<polygon class="st18" points="1238.2,71 1234,75.2 1225.6,83.7 1221.3,79.4 1229.8,70.9 1221.4,62.5 1225.6,58.3 1233.9,66.7 		
			"/>
		<polygon class="st18" points="1255.3,71 1251.1,75.2 1242.7,83.7 1238.4,79.4 1246.9,70.9 1238.5,62.5 1242.7,58.3 1251,66.7 		
			"/>
		<polygon class="st18" points="1272.4,71 1268.2,75.2 1259.8,83.7 1255.5,79.4 1263.9,70.9 1255.6,62.5 1259.8,58.3 1268.1,66.7 		
			"/>
		<polygon class="st18" points="1289.5,71 1285.3,75.2 1276.8,83.7 1272.6,79.4 1281,70.9 1272.7,62.5 1276.8,58.3 1285.2,66.7 		
			"/>
		<polygon class="st18" points="1306.6,71 1302.4,75.2 1293.9,83.7 1289.7,79.4 1298.1,70.9 1289.8,62.5 1293.9,58.3 1302.3,66.7 		
			"/>
		<polygon class="st18" points="1323.7,71 1319.5,75.2 1311,83.7 1306.8,79.4 1315.2,70.9 1306.8,62.5 1311,58.3 1319.4,66.7 		"/>
		<polygon class="st18" points="1340.8,71 1336.6,75.2 1328.1,83.7 1323.8,79.4 1332.3,70.9 1323.9,62.5 1328.1,58.3 1336.5,66.7 		
			"/>
		<polygon class="st18" points="1357.9,71 1353.7,75.2 1345.2,83.7 1340.9,79.4 1349.4,70.9 1341,62.5 1345.2,58.3 1353.6,66.7 		
			"/>
		<polygon class="st18" points="1374.9,71 1370.8,75.2 1362.3,83.7 1358,79.4 1366.5,70.9 1358.1,62.5 1362.3,58.3 1370.7,66.7 		
			"/>
		<polygon class="st18" points="1392,71 1387.9,75.2 1379.4,83.7 1375.1,79.4 1383.6,70.9 1375.2,62.5 1379.4,58.3 1387.8,66.7 		
			"/>
		<polygon class="st18" points="1409.1,71 1404.9,75.2 1396.5,83.7 1392.2,79.4 1400.7,70.9 1392.3,62.5 1396.5,58.3 1404.9,66.7 		
			"/>
		<polygon class="st18" points="1428.8,71 1424.6,75.2 1416.2,83.7 1411.9,79.4 1420.4,70.9 1412,62.5 1416.2,58.3 1424.5,66.7 		
			"/>
		<polygon class="st18" points="1445.9,71 1441.7,75.2 1433.3,83.7 1429,79.4 1437.5,70.9 1429.1,62.5 1433.3,58.3 1441.6,66.7 		
			"/>
		<polygon class="st18" points="300.9,71 296.7,75.2 288.2,83.7 284,79.4 292.4,70.9 284.1,62.5 288.2,58.3 296.6,66.7 		"/>
		<polygon class="st18" points="318,71 313.8,75.2 305.3,83.7 301.1,79.4 309.5,70.9 301.2,62.5 305.3,58.3 313.7,66.7 		"/>
		<polygon class="st18" points="335.1,71 330.9,75.2 322.4,83.7 318.1,79.4 326.6,70.9 318.2,62.5 322.4,58.3 330.8,66.7 		"/>
		<polygon class="st18" points="352.2,71 348,75.2 339.5,83.7 335.2,79.4 343.7,70.9 335.3,62.5 339.5,58.3 347.9,66.7 		"/>
		<polygon class="st18" points="369.3,71 365.1,75.2 356.6,83.7 352.3,79.4 360.8,70.9 352.4,62.5 356.6,58.3 365,66.7 		"/>
		<polygon class="st18" points="386.3,71 382.2,75.2 373.7,83.7 369.4,79.4 377.9,70.9 369.5,62.5 373.7,58.3 382.1,66.7 		"/>
		<polygon class="st18" points="403.4,71 399.2,75.2 390.8,83.7 386.5,79.4 395,70.9 386.6,62.5 390.8,58.3 399.2,66.7 		"/>
		<polygon class="st18" points="420.5,71 416.3,75.2 407.9,83.7 403.6,79.4 412.1,70.9 403.7,62.5 407.9,58.3 416.2,66.7 		"/>
		<polygon class="st18" points="437.6,71 433.4,75.2 425,83.7 420.7,79.4 429.2,70.9 420.8,62.5 425,58.3 433.3,66.7 		"/>
		<polygon class="st18" points="454.7,71 450.5,75.2 442.1,83.7 437.8,79.4 446.2,70.9 437.9,62.5 442.1,58.3 450.4,66.7 		"/>
		<polygon class="st18" points="471.8,71 467.6,75.2 459.1,83.7 454.9,79.4 463.3,70.9 455,62.5 459.1,58.3 467.5,66.7 		"/>
		<polygon class="st18" points="488.9,71 484.7,75.2 476.2,83.7 472,79.4 480.4,70.9 472.1,62.5 476.2,58.3 484.6,66.7 		"/>
		<polygon class="st18" points="506,71 501.8,75.2 493.3,83.7 489.1,79.4 497.5,70.9 489.1,62.5 493.3,58.3 501.7,66.7 		"/>
		<polygon class="st18" points="523.1,71 518.9,75.2 510.4,83.7 506.1,79.4 514.6,70.9 506.2,62.5 510.4,58.3 518.8,66.7 		"/>
		<polygon class="st18" points="540.2,71 536,75.2 527.5,83.7 523.2,79.4 531.7,70.9 523.3,62.5 527.5,58.3 535.9,66.7 		"/>
		<polygon class="st18" points="557.3,71 553.1,75.2 544.6,83.7 540.3,79.4 548.8,70.9 540.4,62.5 544.6,58.3 553,66.7 		"/>
		<polygon class="st18" points="574.3,71 570.1,75.2 561.7,83.7 557.4,79.4 565.9,70.9 557.5,62.5 561.7,58.3 570.1,66.7 		"/>
		<polygon class="st18" points="591.4,71 587.2,75.2 578.8,83.7 574.5,79.4 583,70.9 574.6,62.5 578.8,58.3 587.1,66.7 		"/>
		<polygon class="st18" points="608.5,71 604.3,75.2 595.9,83.7 591.6,79.4 600.1,70.9 591.7,62.5 595.9,58.3 604.2,66.7 		"/>
		<polygon class="st18" points="625.6,71 621.4,75.2 613,83.7 608.7,79.4 617.1,70.9 608.8,62.5 613,58.3 621.3,66.7 		"/>
		<polygon class="st18" points="642.7,71 638.5,75.2 630.1,83.7 625.8,79.4 634.2,70.9 625.9,62.5 630.1,58.3 638.4,66.7 		"/>
		<polygon class="st18" points="659.8,71 655.6,75.2 647.1,83.7 642.9,79.4 651.3,70.9 643,62.5 647.1,58.3 655.5,66.7 		"/>
		<polygon class="st18" points="676.9,71 672.7,75.2 664.2,83.7 660,79.4 668.4,70.9 660.1,62.5 664.2,58.3 672.6,66.7 		"/>
		<polygon class="st18" points="694,71 689.8,75.2 681.3,83.7 677.1,79.4 685.5,70.9 677.1,62.5 681.3,58.3 689.7,66.7 		"/>
		<polygon class="st18" points="711.1,71 706.9,75.2 698.4,83.7 694.1,79.4 702.6,70.9 694.2,62.5 698.4,58.3 706.8,66.7 		"/>
		<polygon class="st18" points="728.2,71 724,75.2 715.5,83.7 711.2,79.4 719.7,70.9 711.3,62.5 715.5,58.3 723.9,66.7 		"/>
		<polygon class="st18" points="745.3,71 741.1,75.2 732.6,83.7 728.3,79.4 736.8,70.9 728.4,62.5 732.6,58.3 741,66.7 		"/>
		<polygon class="st18" points="762.3,71 758.1,75.2 749.7,83.7 745.4,79.4 753.9,70.9 745.5,62.5 749.7,58.3 758.1,66.7 		"/>
		<polygon class="st18" points="779.4,71 775.2,75.2 766.8,83.7 762.5,79.4 771,70.9 762.6,62.5 766.8,58.3 775.1,66.7 		"/>
	</g>
	<polygon class="st18" points="146,56.5 146,56.5 146,56.5 	"/>
</g>
</svg>
