<svg xmlns="http://www.w3.org/2000/svg" viewBox="0 0 552.89 211.56"><defs><style>.a,.c{fill:#34aec5;}.b{opacity:0.25;}.c{fill-rule:evenodd;}</style></defs><path class="a" d="M204.75,38.41a33.77,33.77,0,0,0-5.54.47c-4.9.87-5.79,2.68-5.79,6v4.42H205v1.47H189.07a7.25,7.25,0,0,0-7.24,5.88,21.68,21.68,0,0,0,0,11.77c.83,3.44,2.79,5.88,6.16,5.88h4V69a7.35,7.35,0,0,1,7.23-7.2h11.58a5.84,5.84,0,0,0,5.79-5.89v-11c0-3.14-2.65-5.49-5.79-6A36.24,36.24,0,0,0,204.75,38.41ZM198.48,42a2.21,2.21,0,1,1-2.17,2.22A2.2,2.2,0,0,1,198.48,42Z"/><path class="a" d="M218,50.79v5.15a7.44,7.44,0,0,1-7.24,7.35H199.21a5.9,5.9,0,0,0-5.79,5.88v11c0,3.14,2.73,5,5.79,5.89a19.5,19.5,0,0,0,11.58,0c2.92-.85,5.79-2.55,5.79-5.89V75.79H205V74.32h17.37c3.36,0,4.62-2.35,5.79-5.88s1.16-7.12,0-11.77c-.83-3.35-2.42-5.88-5.79-5.88Zm-6.51,27.95a2.21,2.21,0,1,1-2.18,2.2A2.18,2.18,0,0,1,211.52,78.74Z"/><path class="a" d="M65.19,49a4.14,4.14,0,0,0-1.43-1.5L44.52,36.36a4.47,4.47,0,0,0-4,0L21.25,47.47a4.46,4.46,0,0,0-2,3.49V73.17a4.08,4.08,0,0,0,.59,2,4.23,4.23,0,0,0,1.42,1.51l19.24,11.1a4.47,4.47,0,0,0,4,0l19.24-11.1a4.46,4.46,0,0,0,2-3.5V51A4.19,4.19,0,0,0,65.19,49ZM42.51,77.58A15.52,15.52,0,1,1,55.94,54.3l-4.43,2.57-2.28,1.31a7.76,7.76,0,0,0-14.48,3.88A7.76,7.76,0,0,0,49.22,66L52.81,68l3.13,1.82A15.57,15.57,0,0,1,42.51,77.58ZM58,62.93H56.3v1.72H54.57V62.93H52.85V61.2h1.72V59.48H56.3V61.2H58Zm6.47,0H62.76v1.72H61V62.93H59.31V61.2H61V59.48h1.72V61.2h1.73Z"/><polygon class="a" points="51.51 56.87 49.23 58.19 49.23 58.19 51.51 56.87"/><path class="a" d="M52.81,68,49.22,66h0Z"/><path class="a" d="M182,141.8l18.87-2.57v18.2l-18.87.11Zm18.86,17.73,0,18.22L182,175.16V159.41Zm2.29-20.64,25-3.65v22l-25,.2Zm25,20.81v21.86l-25-3.53,0-18.37Z"/><ellipse class="a" cx="390.21" cy="155.57" rx="7.61" ry="7.62"/><ellipse class="a" cx="421.89" cy="138.87" rx="7.61" ry="7.62"/><path class="a" d="M407.37,175.18a18.53,18.53,0,0,1-12.64-9.65,10.86,10.86,0,0,1-6.5.8,24.76,24.76,0,0,0,17.83,15,25.06,25.06,0,0,0,5.4.55,10.87,10.87,0,0,1-2.23-6.37C408.61,175.41,408,175.31,407.37,175.18Z"/><ellipse class="a" cx="420.18" cy="175.22" rx="7.61" ry="7.62"/><path class="a" d="M430.76,172.42A24.94,24.94,0,0,0,432,143.18a11,11,0,0,1-4.28,5,18.68,18.68,0,0,1-.61,18.55A10.88,10.88,0,0,1,430.76,172.42Z"/><path class="a" d="M389.62,144.65l.58,0a10.9,10.9,0,0,1,5.77,1.65,18.54,18.54,0,0,1,14.94-8,11,11,0,0,1,2.31-6.18A25,25,0,0,0,389.62,144.65Z"/><path class="a" d="M429.31,46.26,420.48,42a2.68,2.68,0,0,0-3.05.52L388.5,68.9a1.78,1.78,0,0,0,0,2.64l2.36,2.15a1.8,1.8,0,0,0,2.29.1L428,47.36a1.78,1.78,0,0,1,2.85,1.42v-.11A2.67,2.67,0,0,0,429.31,46.26Z"/><path class="a" d="M429.31,79.89l-8.83,4.25a2.66,2.66,0,0,1-3.05-.52L388.5,57.25a1.79,1.79,0,0,1,0-2.65l2.36-2.14a1.8,1.8,0,0,1,2.29-.11L428,78.78a1.77,1.77,0,0,0,2.85-1.41v.1A2.69,2.69,0,0,1,429.31,79.89Z"/><path class="a" d="M420.48,84.14a2.66,2.66,0,0,1-3.05-.52,1.57,1.57,0,0,0,2.68-1.11V43.63a1.57,1.57,0,0,0-2.68-1.11,2.68,2.68,0,0,1,3.05-.52l8.83,4.25a2.69,2.69,0,0,1,1.52,2.42V77.48a2.66,2.66,0,0,1-1.52,2.41Z"/><g class="b"><path class="c" d="M418.33,84.22a2.64,2.64,0,0,0,2.13-.08l8.83-4.25a2.67,2.67,0,0,0,1.51-2.41V48.67a2.7,2.7,0,0,0-1.51-2.42L420.46,42a2.7,2.7,0,0,0-3,.52l-16.9,15.42-7.37-5.59a1.78,1.78,0,0,0-2.28.11L388.5,54.6a1.79,1.79,0,0,0,0,2.65l6.38,5.82L388.5,68.9a1.78,1.78,0,0,0,0,2.64l2.36,2.15a1.78,1.78,0,0,0,2.28.1l7.37-5.59,16.9,15.42A2.61,2.61,0,0,0,418.33,84.22Zm1.76-30.88-12.83,9.73,12.83,9.74Z"/></g><path class="c" d="M418.36,84.22a2.62,2.62,0,0,0,2.12-.08l8.83-4.25a2.66,2.66,0,0,0,1.52-2.41V48.67a2.69,2.69,0,0,0-1.52-2.42L420.48,42a2.66,2.66,0,0,0-2.72.25,2.08,2.08,0,0,0-.32.27L400.53,57.94l-7.36-5.59a1.78,1.78,0,0,0-2.28.11l-2.36,2.14a1.79,1.79,0,0,0,0,2.65l6.38,5.82-6.38,5.83a1.78,1.78,0,0,0,0,2.64l2.36,2.15a1.78,1.78,0,0,0,2.28.1l7.36-5.59,16.91,15.42A2.53,2.53,0,0,0,418.36,84.22Zm1.76-30.88-12.83,9.73,12.83,9.74Z"/><circle class="a" cx="32.01" cy="144.1" r="4.82"/><circle class="a" cx="32.01" cy="157.65" r="4.82"/><circle class="a" cx="32.01" cy="171.21" r="4.82"/><circle class="a" cx="44.93" cy="144.1" r="4.82"/><circle class="a" cx="44.93" cy="157.65" r="4.82"/><circle class="a" cx="44.93" cy="171.21" r="4.82"/><circle class="a" cx="57.85" cy="144.1" r="4.82"/><circle class="a" cx="57.85" cy="157.65" r="4.82"/><circle class="a" cx="57.85" cy="171.21" r="4.82"/><path class="a" d="M90.09,60.74A2.8,2.8,0,0,0,89,59.82a3.34,3.34,0,0,0-1.46-.32,3,3,0,0,0-1.21.24,2.85,2.85,0,0,0-1.58,1.66,3.32,3.32,0,0,0-.22,1.23,3,3,0,0,0,.85,2.21,2.94,2.94,0,0,0,2.21.87A3.12,3.12,0,0,0,89,65.38a3.27,3.27,0,0,0,1.14-.87V68l-.07,0c-.59.18-1.06.31-1.4.38a5,5,0,0,1-1.12.12,6.11,6.11,0,0,1-2.27-.44,6.57,6.57,0,0,1-2-1.23A5.25,5.25,0,0,1,81.89,65a6.1,6.1,0,0,1-.45-2.37,6,6,0,0,1,.43-2.24,5.56,5.56,0,0,1,1.23-1.9,6.21,6.21,0,0,1,2-1.35,6,6,0,0,1,2.33-.48,7,7,0,0,1,2.68.57Z"/><path class="a" d="M95,60.56h2.25v2.72h2.71v2.25H97.22v2.73H95V65.53H92.25V63.28H95Z"/><path class="a" d="M105.26,60.56h2.25v2.72h2.71v2.25h-2.71v2.73h-2.25V65.53h-2.72V63.28h2.72Z"/><path class="a" d="M247.65,57h4.5a4.53,4.53,0,0,1,3,.92,3.45,3.45,0,0,1,1.1,2.8,3.76,3.76,0,0,1-1,2.9,4.3,4.3,0,0,1-3,.94h-1.66v3.75h-2.94Zm2.94,5.19h.49q.54,0,.87,0a2.11,2.11,0,0,0,.61-.16,1.09,1.09,0,0,0,.47-.41,1.56,1.56,0,0,0,.17-.78A1.68,1.68,0,0,0,253,60a1,1,0,0,0-.44-.44,1.72,1.72,0,0,0-.62-.16c-.23,0-.53,0-.89,0h-.49Z"/><path class="a" d="M256.38,60.56h3.15l2.05,4,2-4h3.11L260.53,72.1h-3.06l2.63-4.89Z"/><path class="a" d="M270.3,68.26h-2.73V62.81h-.89V60.56h.89V58.25h2.73v2.31h1.54v2.25H270.3Z"/><path class="a" d="M275.44,55.81v5.73h0a3.19,3.19,0,0,1,1.07-.93,3.06,3.06,0,0,1,1.39-.3,2.67,2.67,0,0,1,2.16.87,3.56,3.56,0,0,1,.74,2.37v4.71H278.1v-4a4.83,4.83,0,0,0-.05-.71,1.93,1.93,0,0,0-.17-.56,1,1,0,0,0-.38-.41,1.18,1.18,0,0,0-.63-.15,1.2,1.2,0,0,0-1.09.53,2.35,2.35,0,0,0-.34,1.3v4h-2.73V55.81Z"/><path class="a" d="M288.46,60.58a4.77,4.77,0,0,1,1.49.81,3.77,3.77,0,0,1,1,1.29,4,4,0,0,1,.37,1.74,3.86,3.86,0,0,1-1.37,3,4.55,4.55,0,0,1-1.49.8,5.57,5.57,0,0,1-1.78.28,5.75,5.75,0,0,1-1.77-.27,4.5,4.5,0,0,1-1.48-.8,3.93,3.93,0,0,1-1-1.3,4,4,0,0,1-.36-1.72,4.1,4.1,0,0,1,.36-1.74,3.79,3.79,0,0,1,1-1.29,4.72,4.72,0,0,1,1.48-.81,5.94,5.94,0,0,1,3.54,0Zm-3,2.6a1.71,1.71,0,0,0-.47,1.24,1.76,1.76,0,1,0,3.51,0,1.72,1.72,0,0,0-.48-1.24,1.89,1.89,0,0,0-2.56,0Z"/><path class="a" d="M295.29,61.55h0a2.78,2.78,0,0,1,1.05-1,3.2,3.2,0,0,1,1.41-.28,2.7,2.7,0,0,1,2.19.84,3.58,3.58,0,0,1,.7,2.35v4.76h-2.73V64.51a6.67,6.67,0,0,0,0-.83,1.88,1.88,0,0,0-.15-.61,1,1,0,0,0-.37-.43,1.47,1.47,0,0,0-1.76.33,2.28,2.28,0,0,0-.33,1.3v4h-2.73v-7.7h2.73Z"/><path class="a" d="M458.52,63.82,461.26,57h3.2l-4.83,11.31h-2.28L452.59,57h3.2Z"/><path class="a" d="M471.4,59.86a3.46,3.46,0,0,0-.92-.55,2.66,2.66,0,0,0-1-.2,1.54,1.54,0,0,0-.86.25.78.78,0,0,0-.4.69.73.73,0,0,0,.36.66,4.53,4.53,0,0,0,.95.42l.75.23a6.08,6.08,0,0,1,1.12.43,3.76,3.76,0,0,1,.88.62,2.38,2.38,0,0,1,.58.87,3.05,3.05,0,0,1,.21,1.17,5.2,5.2,0,0,1-.27,1.71,3,3,0,0,1-.9,1.33,4,4,0,0,1-1.47.8,5.65,5.65,0,0,1-1.74.27,6.76,6.76,0,0,1-2.08-.34,7.2,7.2,0,0,1-1.9-1l1.26-2.37a5.7,5.7,0,0,0,1.26.85,3,3,0,0,0,1.35.32,1.7,1.7,0,0,0,1-.3,1,1,0,0,0,.42-.84.8.8,0,0,0-.16-.49,1.41,1.41,0,0,0-.41-.35,3,3,0,0,0-.52-.24l-.61-.18-.09,0a13.43,13.43,0,0,1-1.33-.45,3.45,3.45,0,0,1-.91-.55,2.18,2.18,0,0,1-.61-.87,3.67,3.67,0,0,1-.21-1.33,4,4,0,0,1,.29-1.55,3.35,3.35,0,0,1,.81-1.2,3.51,3.51,0,0,1,1.24-.77,4.41,4.41,0,0,1,1.56-.27,7.12,7.12,0,0,1,1.83.25,7.35,7.35,0,0,1,1.71.68Z"/><path class="a" d="M487.66,60.74a2.8,2.8,0,0,0-1.12-.92,3.34,3.34,0,0,0-1.46-.32,3,3,0,0,0-1.21.24,2.94,2.94,0,0,0-1,.66,3.14,3.14,0,0,0-.63,1,3.53,3.53,0,0,0-.21,1.23,3,3,0,0,0,.84,2.21,3,3,0,0,0,2.22.87,3.12,3.12,0,0,0,1.39-.33,3.27,3.27,0,0,0,1.14-.87V68l-.07,0c-.59.18-1.06.31-1.41.38a4.84,4.84,0,0,1-1.11.12,6.11,6.11,0,0,1-2.27-.44,6.57,6.57,0,0,1-2-1.23,5.25,5.25,0,0,1-1.36-1.9,6.33,6.33,0,0,1,0-4.61,5.73,5.73,0,0,1,1.24-1.9,6.21,6.21,0,0,1,2-1.35,6,6,0,0,1,2.33-.48,7,7,0,0,1,2.68.57Z"/><path class="a" d="M495.25,60.58a4.77,4.77,0,0,1,1.49.81,3.77,3.77,0,0,1,1,1.29,4.11,4.11,0,0,1,.37,1.74,4,4,0,0,1-.37,1.71,3.71,3.71,0,0,1-1,1.3,4.4,4.4,0,0,1-1.48.8,5.57,5.57,0,0,1-1.78.28,5.75,5.75,0,0,1-1.77-.27,4.5,4.5,0,0,1-1.48-.8,3.93,3.93,0,0,1-1-1.3,4,4,0,0,1-.36-1.72,4.1,4.1,0,0,1,.36-1.74,3.79,3.79,0,0,1,1-1.29,4.72,4.72,0,0,1,1.48-.81,5.94,5.94,0,0,1,3.54,0Zm-3.05,2.6a1.71,1.71,0,0,0-.47,1.24,1.76,1.76,0,1,0,3.51,0,1.72,1.72,0,0,0-.48-1.24,1.89,1.89,0,0,0-2.56,0Z"/><path class="a" d="M505.14,67.4h0a2.22,2.22,0,0,1-1,.83,3.23,3.23,0,0,1-1.35.28,3.79,3.79,0,0,1-1.54-.32,3.88,3.88,0,0,1-1.25-.9,4.27,4.27,0,0,1-.81-1.32,4.37,4.37,0,0,1-.28-1.57,4.59,4.59,0,0,1,.27-1.57,4.11,4.11,0,0,1,.81-1.31,3.88,3.88,0,0,1,1.23-.89,3.77,3.77,0,0,1,2.87-.07,2.7,2.7,0,0,1,1.06.75v-5.5h2.73V68.26h-2.73Zm-2.95-4.22a1.71,1.71,0,0,0-.47,1.24,1.76,1.76,0,1,0,3.51,0,1.72,1.72,0,0,0-.48-1.24,1.89,1.89,0,0,0-2.56,0Z"/><path class="a" d="M517.48,64.87h-5.74a1.51,1.51,0,0,0,1.71,1.71,1.41,1.41,0,0,0,1.3-.71h2.63a3.08,3.08,0,0,1-1.41,2,5.21,5.21,0,0,1-5.73-.41,3.79,3.79,0,0,1-1.23-3,4.65,4.65,0,0,1,.3-1.71,3.74,3.74,0,0,1,.88-1.31,3.81,3.81,0,0,1,1.36-.82,5.26,5.26,0,0,1,1.72-.27,4.12,4.12,0,0,1,3.1,1.14,4.32,4.32,0,0,1,1.11,3.13ZM515,63.29a1.44,1.44,0,0,0-.54-.88,1.63,1.63,0,0,0-1-.33,1.79,1.79,0,0,0-1.06.31,1.42,1.42,0,0,0-.56.9Z"/><path class="a" d="M91.41,162.21H87.75L85,157.86h0v4.35H82V150.9H86.4a4.41,4.41,0,0,1,2.85.87,3.15,3.15,0,0,1,1.08,2.61,3.41,3.41,0,0,1-.65,2.1,2.76,2.76,0,0,1-1.82,1.09ZM85,156h.28a5.94,5.94,0,0,0,.76-.05,2.25,2.25,0,0,0,.65-.21,1.12,1.12,0,0,0,.46-.43,1.61,1.61,0,0,0,0-1.44,1.14,1.14,0,0,0-.46-.44,2.24,2.24,0,0,0-.65-.2,5.94,5.94,0,0,0-.76,0H85Z"/><path class="a" d="M100.24,151a6.38,6.38,0,0,1,2,1.22,5.68,5.68,0,0,1,1.39,1.86,5.42,5.42,0,0,1,.5,2.31,6.67,6.67,0,0,1-.47,2.51,5.87,5.87,0,0,1-1.3,2,6,6,0,0,1-2,1.29,7.11,7.11,0,0,1-5,0,5.85,5.85,0,0,1-3.3-3.29,6.58,6.58,0,0,1-.46-2.5,5.42,5.42,0,0,1,.5-2.31,5.68,5.68,0,0,1,1.39-1.86,6.38,6.38,0,0,1,2-1.22,6.61,6.61,0,0,1,4.69,0Zm-3.57,2.66a3.52,3.52,0,0,0-1,.67,3.08,3.08,0,0,0-.69,1,2.57,2.57,0,0,0-.25,1.11,3.42,3.42,0,0,0,.25,1.33,3.22,3.22,0,0,0,.69,1.08,3.05,3.05,0,0,0,1,.72,3.27,3.27,0,0,0,2.46,0,3.09,3.09,0,0,0,1-.72,3.22,3.22,0,0,0,.69-1.08,3.42,3.42,0,0,0,.25-1.33,2.64,2.64,0,0,0-.25-1.12,3,3,0,0,0-.69-1,3.25,3.25,0,0,0-1-.66,3.21,3.21,0,0,0-1.23-.24A3.16,3.16,0,0,0,96.67,153.61Z"/><path class="a" d="M111.72,153.81a3.57,3.57,0,0,0-.92-.55,2.82,2.82,0,0,0-1-.2,1.57,1.57,0,0,0-.86.25.8.8,0,0,0-.4.69.73.73,0,0,0,.36.66,4.53,4.53,0,0,0,.95.42l.75.23a6.08,6.08,0,0,1,1.12.43,3.76,3.76,0,0,1,.88.62,2.4,2.4,0,0,1,.59.87,3.26,3.26,0,0,1,.2,1.17,5.3,5.3,0,0,1-.27,1.72,3,3,0,0,1-.9,1.32,4.21,4.21,0,0,1-1.47.81,6,6,0,0,1-1.74.26,6.52,6.52,0,0,1-2.08-.34,7,7,0,0,1-1.9-.95l1.26-2.37a5.7,5.7,0,0,0,1.26.85,3,3,0,0,0,1.35.32,1.77,1.77,0,0,0,1-.29,1,1,0,0,0,.42-.85.76.76,0,0,0-.16-.49,1.43,1.43,0,0,0-.41-.35,2.71,2.71,0,0,0-.52-.24l-.61-.18-.09,0a13.43,13.43,0,0,1-1.33-.45,3.35,3.35,0,0,1-.91-.55,2.14,2.14,0,0,1-.61-.87,3.64,3.64,0,0,1-.21-1.33,4.08,4.08,0,0,1,.29-1.55,3.54,3.54,0,0,1,.81-1.2,3.66,3.66,0,0,1,1.24-.77,4.41,4.41,0,0,1,1.56-.27,7.12,7.12,0,0,1,1.83.25,7.35,7.35,0,0,1,1.71.68Z"/><path class="a" d="M251.67,158.2h0l2.37-7.3h2.34l2.22,7.3h0l2.13-7.3h3.06l-3.62,11.31h-3l-2-6.56h0L253,162.21h-3l-3.38-11.31h3.06Z"/><path class="a" d="M267,150.48a1.52,1.52,0,1,1-1.08-.45A1.47,1.47,0,0,1,267,150.48Zm.28,11.73h-2.73v-7.7h2.73Z"/><path class="a" d="M271.78,155.5h0a2.78,2.78,0,0,1,1.05-1,3.2,3.2,0,0,1,1.41-.28,2.67,2.67,0,0,1,2.19.85,3.54,3.54,0,0,1,.71,2.34v4.76h-2.73v-3.75c0-.32,0-.6,0-.83a1.88,1.88,0,0,0-.16-.61,1,1,0,0,0-.36-.43,1.3,1.3,0,0,0-.67-.16,1.25,1.25,0,0,0-1.1.49,2.3,2.3,0,0,0-.33,1.3v4h-2.73v-7.7h2.73Z"/><path class="a" d="M284.76,161.35h0a2.22,2.22,0,0,1-1,.83,3.23,3.23,0,0,1-1.35.28,3.74,3.74,0,0,1-2.79-1.22,4.05,4.05,0,0,1-.81-1.32,4.33,4.33,0,0,1-.28-1.57,4.49,4.49,0,0,1,.27-1.56,4.05,4.05,0,0,1,.81-1.32,3.88,3.88,0,0,1,1.23-.89,3.72,3.72,0,0,1,1.54-.32,3.57,3.57,0,0,1,1.33.25,2.7,2.7,0,0,1,1.06.75v-5.5h2.73v12.45h-2.73Zm-2.95-4.22a1.77,1.77,0,0,0-.47,1.24,1.74,1.74,0,0,0,.47,1.24,1.7,1.7,0,0,0,1.28.48,1.63,1.63,0,0,0,1.76-1.72,1.77,1.77,0,0,0-.47-1.24,1.72,1.72,0,0,0-1.29-.5A1.68,1.68,0,0,0,281.81,157.13Z"/><path class="a" d="M295,154.54a4.55,4.55,0,0,1,1.49.8,3.71,3.71,0,0,1,1,1.3,4.21,4.21,0,0,1,0,3.45,3.77,3.77,0,0,1-1,1.29,4.61,4.61,0,0,1-1.48.81,5.86,5.86,0,0,1-1.78.27,5.75,5.75,0,0,1-1.77-.27,4.33,4.33,0,0,1-1.48-.8,3.83,3.83,0,0,1-1-1.3,4,4,0,0,1-.36-1.72,4,4,0,0,1,.36-1.73,3.74,3.74,0,0,1,1-1.3,4.5,4.5,0,0,1,1.48-.8,5.73,5.73,0,0,1,3.54,0Zm-3,2.59a1.77,1.77,0,0,0-.47,1.24,1.74,1.74,0,0,0,.47,1.24,1.76,1.76,0,0,0,3-1.24,1.74,1.74,0,0,0-.48-1.24,1.89,1.89,0,0,0-2.56,0Z"/><path class="a" d="M303,158.68l1.94-4.17h1.62l1.93,4.17,1.94-4.17h3l-4,7.7H307.6L305.7,158l-1.91,4.22H302l-4-7.7h3Z"/><path class="a" d="M319.15,156.49a3.37,3.37,0,0,0-.72-.27,3,3,0,0,0-.75-.1,1.33,1.33,0,0,0-.58.13.42.42,0,0,0-.27.39.44.44,0,0,0,.3.43,3.54,3.54,0,0,0,.78.22l.15,0a3.47,3.47,0,0,1,1.64.74,2,2,0,0,1,.59,1.54,2.6,2.6,0,0,1-.3,1.28,2.42,2.42,0,0,1-.82.89,3.66,3.66,0,0,1-1.17.52,5,5,0,0,1-1.34.17,5.81,5.81,0,0,1-3.1-.88l1-1.91a4.59,4.59,0,0,0,1.06.55,3.05,3.05,0,0,0,1.1.23,1.17,1.17,0,0,0,.58-.15.47.47,0,0,0,.27-.43.48.48,0,0,0-.28-.46,4.42,4.42,0,0,0-.9-.28l-.53-.12a4.73,4.73,0,0,1-.67-.24,1.86,1.86,0,0,1-.52-.36,1.67,1.67,0,0,1-.38-.57,2.4,2.4,0,0,1-.14-.85,2.47,2.47,0,0,1,.28-1.2,2.33,2.33,0,0,1,.76-.86,3.46,3.46,0,0,1,1.1-.51,4.71,4.71,0,0,1,1.25-.16,6.12,6.12,0,0,1,2.54.49Z"/><path class="a" d="M463.41,150.9v6.36a10.8,10.8,0,0,1-.22,2.32,3.45,3.45,0,0,1-1,1.67,3.85,3.85,0,0,1-1.66,1,7.4,7.4,0,0,1-4.17,0,3.89,3.89,0,0,1-1.67-1,3.45,3.45,0,0,1-1-1.67,10.87,10.87,0,0,1-.21-2.32V150.9h2.94v5.95a10.35,10.35,0,0,0,0,1.19,2.91,2.91,0,0,0,.25.93,1.63,1.63,0,0,0,.6.7,2.41,2.41,0,0,0,2.18,0,1.68,1.68,0,0,0,.61-.69,2.9,2.9,0,0,0,.24-.93,10.43,10.43,0,0,0,.06-1.2V150.9Z"/><path class="a" d="M465.12,149.76h2.73v5.5a2.66,2.66,0,0,1,1-.75,3.57,3.57,0,0,1,1.33-.25,3.77,3.77,0,0,1,1.55.32,3.67,3.67,0,0,1,1.23.89,4,4,0,0,1,.8,1.32,4.49,4.49,0,0,1,.28,1.56,4.43,4.43,0,0,1-.29,1.58,4.2,4.2,0,0,1-.8,1.32,3.74,3.74,0,0,1-2.8,1.21,3.33,3.33,0,0,1-1.33-.27,2.26,2.26,0,0,1-1-.84h0v.86h-2.73Zm3.11,7.37a1.73,1.73,0,0,0-.47,1.24,1.76,1.76,0,1,0,3.51,0,1.74,1.74,0,0,0-.48-1.24,1.89,1.89,0,0,0-2.56,0Z"/><path class="a" d="M478.12,154.51v4.11a2.23,2.23,0,0,0,.29,1.24,1.22,1.22,0,0,0,1.08.43,1.2,1.2,0,0,0,1.07-.43,2.23,2.23,0,0,0,.29-1.24v-4.11h2.73v4.64a3.55,3.55,0,0,1-.31,1.57,2.51,2.51,0,0,1-.85,1,3.76,3.76,0,0,1-1.29.55,7,7,0,0,1-1.64.17,7.09,7.09,0,0,1-1.65-.17,3.76,3.76,0,0,1-1.29-.55,2.65,2.65,0,0,1-.85-1,3.55,3.55,0,0,1-.31-1.57v-4.64Z"/><path class="a" d="M488.05,155.5h0a2.78,2.78,0,0,1,1.05-1,3.2,3.2,0,0,1,1.41-.28,2.67,2.67,0,0,1,2.19.85,3.54,3.54,0,0,1,.71,2.34v4.76h-2.73v-3.75c0-.32,0-.6,0-.83a2.18,2.18,0,0,0-.16-.61,1,1,0,0,0-.37-.43,1.47,1.47,0,0,0-1.76.33,2.3,2.3,0,0,0-.33,1.3v4h-2.73v-7.7h2.73Z"/><path class="a" d="M498.22,162.21h-2.73v-5.45h-.88v-2.25h.88V152.2h2.73v2.31h1.55v2.25h-1.55Z"/><path class="a" d="M503.32,154.51v4.11a2.23,2.23,0,0,0,.29,1.24,1.22,1.22,0,0,0,1.08.43,1.2,1.2,0,0,0,1.07-.43,2.23,2.23,0,0,0,.29-1.24v-4.11h2.73v4.64a3.55,3.55,0,0,1-.31,1.57,2.51,2.51,0,0,1-.85,1,3.76,3.76,0,0,1-1.29.55,7,7,0,0,1-1.64.17,7.09,7.09,0,0,1-1.65-.17,3.76,3.76,0,0,1-1.29-.55,2.65,2.65,0,0,1-.85-1,3.55,3.55,0,0,1-.31-1.57v-4.64Z"/></svg>