<svg xmlns="http://www.w3.org/2000/svg" xmlns:xlink="http://www.w3.org/1999/xlink" viewBox="0 0 737.01 737.01"><defs><style>.a{isolation:isolate;}.b,.r,.s,.t{fill:none;stroke-linecap:round;stroke-linejoin:round;}.b{stroke:#32aec5;stroke-width:2px;}.c,.m{fill:#32aec5;}.c{opacity:0.3;mix-blend-mode:multiply;}.d{fill:#1b6f7a;}.e{fill:#43b1c7;}.f{fill:#51b4c9;}.g{fill:#ef4438;}.h{fill:#5db7cb;}.i{fill:#e5e5e5;}.j{fill:#66bacd;}.k{fill:#6d4542;}.l{fill:#734c48;}.n{opacity:0.6;mix-blend-mode:screen;fill:url(#a);}.o{fill:#fff;}.p{fill:#05897b;}.q{fill:#0377be;}.r{stroke:#0777be;}.r,.s,.t{stroke-width:9px;}.s{stroke:#ef4438;}.t{stroke:#05897b;}</style><linearGradient id="a" x1="663.87" y1="245.05" x2="689.47" y2="292.5" gradientUnits="userSpaceOnUse"><stop offset="0" stop-color="#fff"/><stop offset="1"/></linearGradient></defs><g class="a"><path class="b" d="M304.59,499.11s0-58.66,69.34-75.85"/><path class="b" d="M259.85,244.3s-6.22,8.89-13.33.29-.89-21-.89-21,5.93-9.48,13.34-9.19"/><path class="b" d="M272.59,448.15s-26.07-21.33-22.51-85.33-15-69.34-15-69.34S218.59,277,222.82,248.15s24-38.22,24-38.22,6.52-4.45,12.44.89c5,4.54-1.55,19.11.67,26.66s1.33,21.11,4.44,24,6,7.11,5.34,7.11,4.44,4,4.22,5.78l-.22,1.78h0s1.77,3.78,1.33,4.67,13.55,10.66,14.67,17.11,42.22,75.33,50.88,82.89,31.78,41.33,31.78,41.33,7.34-.67,10.67,3.56,25.78,37.77,27.11,39.55"/><path class="b" d="M253.63,274.82c11-1.19,13.93-5.34,13.93-5.34"/><path class="b" d="M259.85,280.45c3.56,1.18,12.15-5.63,12.15-5.63"/><path class="b" d="M216.89,305.34,195,275.41s-14.23-16.89-21-21.33-25.78-24.3-11.85-37.93c0,0,8.89-7.11,25.48,11.85s32.89,23.41,32.89,23.41"/><path class="b" d="M215.11,308.59s-27.85-.29-39.7,5.34S133.63,332,128,333.78s-46.52,12.74-44.44,28.74,3.85,17.78,11.85,18.07,43.26-11.85,45.63-14.81,27.26-6.52,35.55-13.93c0,0,26.08,3.86,34.38-1.18"/><path class="b" d="M301.34,497.34h-1.19s-54.22-28.75-54.81-51"/><path class="b" d="M199.41,355.41s-17.19,1.48-17.48,15.7,10.66,35.86,24,41.78,30.52,13.63,33.78,16.3,10.49,5.47,13.11,4.07c3.33-1.78,3.11-8.44,3.11-8.44s-6.45-26.74-7.93-29.11-13.33-8.3-17.18-10.37-4.45-2.08-4.45-3.26-.59-6.52-.29-8.3a18.72,18.72,0,0,0,.29-2.67"/><path class="b" d="M228.15,326.37S248,352.45,245,360.45"/><path class="b" d="M217.19,313.34S221.93,332,218.37,340s-1.18,19,2.67,22.22,7.11,10.08,9.78,14.23"/><path class="b" d="M198.52,363.11s22.52,1.78,24.59,11.56"/><path class="b" d="M189.93,402.22s.29,15.71,5,22.52,5.33,13.63,22.22,18.37c12.6,3.54,21.92,3.26,25.78,1.48s10.66-4.74,9.48-7.7"/><path class="b" d="M307,502.08s-2.38,5.92,3,19"/><path class="b" d="M226.08,403.11s-3.86,8.22,0,14.14,17.18,12.83,17.18,12.83,8.3-3.95,1.48-17.76S226.08,403.11,226.08,403.11Z"/><path class="b" d="M225.4,425.63s-2.31-.3,0,5.67,12.44,10.75,16.78,9.85,4.34-6,4-7.16"/><polygon class="c" points="454.26 271.26 639.31 378.24 722.7 330.09 537.65 223.11 454.26 271.26"/><polygon class="d" points="640.19 307.72 597.91 332.13 594.49 329.67 591.96 315.4 597.91 311.47 640.19 287.06 640.19 307.72"/><polygon class="d" points="525.97 239.74 483.69 264.15 480.26 261.69 477.74 247.42 483.69 243.49 525.97 219.08 525.97 239.74"/><path class="e" d="M719.93,317.42c0,2-1.24,3.49-2.74,4.77a48.88,48.88,0,0,1-6.39,4.39l-1.69,1,0-.05a1.89,1.89,0,0,0,.6-1.36,99.29,99.29,0,0,1,1.52-15.36c1.47-.88,2.37-1.43,2.5-1.53.67-.46,3.41-2.44,4.45-3.3.7-.59,1.77-1.55,1.77-2.41Z"/><path class="f" d="M719.93,297.62v5.93c0,.86-1.07,1.82-1.77,2.41-1,.86-3.78,2.84-4.45,3.3-.13.1-1,.65-2.5,1.53,0-.09,0-.18,0-.26s.23-1.26.46-2.51a57.26,57.26,0,0,0,6.32-6A6.82,6.82,0,0,0,719.93,297.62Z"/><path class="g" d="M719.93,297.54v.08a6.82,6.82,0,0,1-1.9,4.43,57.26,57.26,0,0,1-6.32,6c.35-1.86.76-4.11.82-4.38.93-4.62,1.75-7.89,2.51-10.43h0c.1-.1,1.35-1.47,1.81-2a13.57,13.57,0,0,0,2.42-3.46,6.58,6.58,0,0,0,.66-2.66Z"/><path class="f" d="M718.63,275.89a47.86,47.86,0,0,1,1.31,7.29c0,.53,0,.5,0,.7v1.21a6.58,6.58,0,0,1-.66,2.66,13.57,13.57,0,0,1-2.42,3.46c-.46.53-1.71,1.9-1.81,2h0a57.54,57.54,0,0,1,2.59-7h0a12.3,12.3,0,0,0,1.34-4.54A15.89,15.89,0,0,0,718.63,275.89Z"/><path class="h" d="M625.59,351.18h0a10.49,10.49,0,0,1-.45,3.11,5.3,5.3,0,0,1-3.31,3.71c-.56-1.51-2.26-4.08-3.37-8.31,1.19-.47,1.37-2.48,1.37-2.48C622.09,349.39,624.59,350.44,625.59,351.18Z"/><path class="h" d="M615.33,348.93h0a4.27,4.27,0,0,0,.44.3,3.28,3.28,0,0,0,2.59.5l.11,0c1.11,4.23,2.81,6.8,3.37,8.31a7.57,7.57,0,0,1-6.06-1,15.28,15.28,0,0,1-2.35-1.64h0A42.84,42.84,0,0,1,615.33,348.93Z"/><path class="f" d="M625.48,351.34c-.3-.22-.75-.47-1.26-.77a21.65,21.65,0,0,1-4.51-3.22l.27-.28a21.34,21.34,0,0,0,4.43,3.16,12,12,0,0,1,1.3.8Z"/><path class="f" d="M621.66,358.07a15.8,15.8,0,0,0-.77-1.67,33.55,33.55,0,0,1-2.6-6.66l.38-.1a33.14,33.14,0,0,0,2.58,6.58,18.65,18.65,0,0,1,.78,1.71Z"/><path class="f" d="M613.63,355.42l-.18-.06h-.21v-.07c.11-.32.2-.73.32-1.25a29.71,29.71,0,0,1,1.58-5.18l.36.15a30,30,0,0,0-1.56,5.12C613.83,354.65,613.74,355.07,613.63,355.42Z"/><path class="i" d="M607.12,195.4a4.57,4.57,0,0,1,.5,4,3.74,3.74,0,0,1-1.23,1.87,3.58,3.58,0,0,1-.37.28l-4.95-2.85-1-.58a15.92,15.92,0,0,1,3.76-2.64L605,195l.48-.15a1.45,1.45,0,0,1,1.48.36Z"/><path class="j" d="M606.27,194.27c.29.37.57.75.85,1.13l-.18-.22a1.45,1.45,0,0,0-1.48-.36L605,195l-1.16.48a15.92,15.92,0,0,0-3.76,2.64l-1.73-1v0a6.73,6.73,0,0,1,2.72-2l3.25-1.33A1.67,1.67,0,0,1,606.27,194.27Z"/><path class="k" d="M595.65,205.79l-1.14,1-1.84-5.52,3-1.45a9.53,9.53,0,0,0-.79,1.68l-.22,3.5A1.35,1.35,0,0,0,595.65,205.79Z"/><path class="l" d="M590.94,200.42l2.91-1.41.48-.23,1.32,1.08-3,1.45-1.36-.78A.54.54,0,0,0,590.94,200.42Z"/><path class="j" d="M718.63,275.89a15.89,15.89,0,0,1,.35,5.77c-7-8.5-15.48-18.37-23.18-26.33L694.46,254c-4-4.09-8.86-4.11-14.28-2.17a111.11,111.11,0,0,0-27.85,15.37,15.15,15.15,0,0,0-4.17,4.67,14.53,14.53,0,0,0-1.45,8.19,35.29,35.29,0,0,0,2.92,10c3.55,8.74,6.38,17.37,9.26,26.3-2.52-1.23-11.08-4.67-12.53-5.34s-2.59-1.28-3.05-1.55c0,0-.06-.06-.06,0-1.59-4.87-3.32-9.9-5.15-14.72a39.82,39.82,0,0,1-2-8.7c-.51-3.65-.56-6.3.18-8.65.79-2.51,2.47-4.68,5.45-7.36a79.61,79.61,0,0,1,7-5.52,151.24,151.24,0,0,1,28.48-15.88,53.8,53.8,0,0,1,7.92-2.67,11.26,11.26,0,0,1,5.66-.25,7.06,7.06,0,0,1,1.69.76h0a20.31,20.31,0,0,1,4.86,4.47c.45.44.9.88,1.31,1.3,4.83,4.85,10.55,11,17.73,19.37l0,0A11,11,0,0,1,718.63,275.89Z"/><path class="h" d="M663.35,317.56l54.28-31.35a57.54,57.54,0,0,0-2.59,7l-46.87,27.06c-.16-.16-.32-.32-.49-.47A9.89,9.89,0,0,0,663.35,317.56Z"/><path class="m" d="M668.17,320.27,715,293.21c-.76,2.54-1.58,5.81-2.51,10.43-.06.27-.47,2.52-.82,4.38a0,0,0,0,0,0,0l-38.07,22a36.4,36.4,0,0,0-2.52-5.74A17.67,17.67,0,0,0,668.17,320.27Z"/><path class="h" d="M711.71,308c-.23,1.25-.43,2.33-.46,2.51s0,.17,0,.26c-7,4.18-26.62,15.8-36.88,21.46-.22-.76-.45-1.51-.71-2.24l38.07-22A0,0,0,0,1,711.71,308Z"/><path class="e" d="M711.21,310.79a99.29,99.29,0,0,0-1.52,15.36,1.89,1.89,0,0,1-.6,1.36l0,.05-33.18,19.16,0-.05a1.55,1.55,0,0,0,.36-1.23h0a49.52,49.52,0,0,0-1.94-13.18C684.59,326.59,704.24,315,711.21,310.79Zm-7.78,15.74V321c0-.66-.53-.89-1.19-.51l-17.79,10.2a2.46,2.46,0,0,0-1.19,1.87v5.57c0,.66.53.88,1.19.5l17.79-10.2A2.45,2.45,0,0,0,703.43,326.53Z"/><path class="i" d="M703.43,321v5.56a2.45,2.45,0,0,1-1.19,1.87l-17.79,10.2c-.66.38-1.19.16-1.19-.5v-5.57a2.46,2.46,0,0,1,1.19-1.87l17.79-10.2C702.9,320.08,703.43,320.31,703.43,321Z"/><path class="j" d="M692.47,246.43a7.06,7.06,0,0,0-1.69-.76,11.26,11.26,0,0,0-5.66.25,53.8,53.8,0,0,0-7.92,2.67,151.24,151.24,0,0,0-28.48,15.88,79.61,79.61,0,0,0-7,5.52c-3,2.68-4.66,4.85-5.45,7.36l0,0c-.72-2.67-69.51-41.06-73.9-42.27a19.37,19.37,0,0,0-9,0,5,5,0,0,0,2.74-1.95,7.67,7.67,0,0,1,4.52-3.11c3.48-1.17,11.63-2.76,22-7.13,8.62-3.63,18.12-9,24.34-16,3.91-4.38,3.64-6.37,4.79-6.67a1.21,1.21,0,0,1,.84.09l.06,0,.19.1,79.47,45.88.21.13Z"/><path class="g" d="M673.62,330h0c-3.4,1.47-9.32,3.55-11.13,4.1a31.85,31.85,0,0,1-12,1.48c-3-.25-11.26-1.53-11.57-4.53a2.16,2.16,0,0,1,.2-1.35,7.34,7.34,0,0,1,2.57-2.47,39.51,39.51,0,0,1,5.58-2.83c2.86-1.18,5.27-1.21,8.7-1.53,5.07-.48,7.29-1.18,12.2-2.62a17.67,17.67,0,0,1,2.93,4A36.4,36.4,0,0,1,673.62,330Z"/><path class="f" d="M658.89,316.35a11.74,11.74,0,0,0,4.44,1.21h0a9.89,9.89,0,0,1,4.33,2.24c.17.15.33.31.49.47-4.91,1.44-7.13,2.14-12.2,2.62-3.43.32-5.84.35-8.7,1.53a39.51,39.51,0,0,0-5.58,2.83,7.34,7.34,0,0,0-2.57,2.47,2.16,2.16,0,0,0-.2,1.35c.31,3,8.52,4.28,11.57,4.53a31.85,31.85,0,0,0,12-1.48c1.81-.55,7.73-2.63,11.13-4.1h0c.26.73.49,1.48.71,2.24h0c-1.21.67-11.24,5.6-12.12,6-1.88.87-3.81,1.7-5.76,2.46-9.1,3.52-15.45,4.13-21.31,3.27v0c-5.06-10.63-14.72-20.82-22.75-24.56a22.48,22.48,0,0,1,0-2.59l5.77,3.33c2.22,1.28,4.62,1.32,7,1.31a21.77,21.77,0,0,0,11.29-2.74c2.22-1.34,4.71-3.69,5.6-5.87.33-.79,1.24-3.36,1.26-3.43s0,0,.06,0c.46.27,1.65.89,3.05,1.55S656.37,315.12,658.89,316.35Z"/><path class="m" d="M637.27,354.87c.41.23.83.45,1.29.67a10,10,0,0,1-4.32,5.32l-6,3.46c2.45-1.41,4.08-4.54,4.48-7.39a21.4,21.4,0,0,0,.21-3c0-6.19-2.62-12.31-6-17.65-.27-.42-.53-.84-.81-1.25a42.75,42.75,0,0,1,7.77,15.49,13.08,13.08,0,0,0,.38,1.36,3.51,3.51,0,0,0,1.27,2h0l1.57.91Z"/><path class="e" d="M606.7,335.3a9.2,9.2,0,0,0-1,4.4,17.45,17.45,0,0,0,1,5.55h0a23.09,23.09,0,0,0,6.74,10.1h0a15.28,15.28,0,0,0,2.35,1.64,7.57,7.57,0,0,0,6.06,1,5.3,5.3,0,0,0,3.31-3.71,10.49,10.49,0,0,0,.45-3.11,21.17,21.17,0,0,0-3.77-11.12c-2.24-3.37-5.26-6.11-8.4-7.08a7.91,7.91,0,0,0-1-.26A5.05,5.05,0,0,0,606.7,335.3ZM630,354a11.7,11.7,0,0,1-1.32,6.24,8.49,8.49,0,0,1-5,4,10.19,10.19,0,0,1-6.32-.84c-7.24-3.05-15-12.88-16.34-24-.34-2.9-.28-6,1.16-8.46a8.39,8.39,0,0,1,5-4,10.07,10.07,0,0,1,6.33.83C621.66,331.19,629.74,342.64,630,354Z"/><path class="h" d="M621.84,340.06a21.17,21.17,0,0,1,3.77,11.12h0c-1-.74-3.5-1.79-5.74-4h0a7.65,7.65,0,0,0-1.37-4.05C619.59,342,621.16,340.7,621.84,340.06Z"/><path class="h" d="M621.84,340.06c-.68.64-2.25,1.9-3.36,3.09a7.89,7.89,0,0,0-1.56-1.74,4.88,4.88,0,0,0-1.5-.84c-1.44-3.33-1.58-6.23-2-7.59h0C616.58,334,619.6,336.69,621.84,340.06Z"/><path class="e" d="M618.57,347.13a2.34,2.34,0,0,1-.27,1.25,1.66,1.66,0,0,1-1,.79A2,2,0,0,1,616,349c-2.48-1-3.94-4.92-3-6.49C614.41,340.05,618.48,343.46,618.57,347.13Z"/><path class="m" d="M618.8,327.32a21.25,21.25,0,0,0-2.28-1.33c-3.37-1.7-7.53-2.67-10.67-1l4.42-2.55a23.84,23.84,0,0,1,7.69,4.23Z"/><path class="h" d="M615.34,348.93h0a42.84,42.84,0,0,0-1.89,6.42,23.09,23.09,0,0,1-6.74-10.1,49.61,49.61,0,0,0,6-.18h0A7.69,7.69,0,0,0,615.34,348.93Z"/><path class="h" d="M615.42,340.57a2,2,0,0,0-2.1.36l0,0a3.09,3.09,0,0,0-.36.45h0c-3.42-2.6-5.09-5-6.23-6.09a5.05,5.05,0,0,1,5.7-2.58,7.91,7.91,0,0,1,1,.26h0C613.84,334.34,614,337.24,615.42,340.57Z"/><path class="h" d="M573.15,281.79c4.84,2.52,9.07,4.71,10.12,5.23,6.79,3.36,20.6,9.86,30.56,14-.61,6.15-1.37,13.58-1.46,15.58a1.27,1.27,0,0,0,0,.2l-46.17-26.66c0-.32.12-.65.18-1,.6-2.89,1.71-6.67,2.58-9.47a.3.3,0,0,0,0-.08Zm33.35,22.73c1.68.7,2.7.37,3.44-1.77-3.18-1.37-6.63-2.9-9.79-4.33a6.93,6.93,0,0,0,3.09,4.31A21.7,21.7,0,0,0,606.5,304.52Z"/><path class="h" d="M616,349a2,2,0,0,0,1.27.17,1.66,1.66,0,0,0,1-.79,2.34,2.34,0,0,0,.27-1.25c-.09-3.67-4.16-7.08-5.57-4.62C612.1,344.08,613.56,348,616,349Zm2.44.69-.11,0a3.28,3.28,0,0,1-2.59-.5,4.27,4.27,0,0,1-.44-.3,7.69,7.69,0,0,1-2.63-3.86,4.46,4.46,0,0,1,.23-3.67,3.09,3.09,0,0,1,.36-.45l0,0a2,2,0,0,1,2.1-.36,4.88,4.88,0,0,1,1.5.84,7.89,7.89,0,0,1,1.56,1.74,7.65,7.65,0,0,1,1.37,4.05h0S619.67,349.22,618.48,349.69Z"/><path class="h" d="M612.71,345.07h0a49.61,49.61,0,0,1-6,.18h0a17.45,17.45,0,0,1-1-5.55,9.2,9.2,0,0,1,1-4.4c1.14,1.05,2.81,3.49,6.23,6.09h0A4.46,4.46,0,0,0,612.71,345.07Z"/><path class="f" d="M612.36,316.82a22.48,22.48,0,0,0,0,2.59,16.86,16.86,0,0,0-10.19-1.66,9.55,9.55,0,0,0-5.63,3.22,20.4,20.4,0,0,0-1.89,3.32c-1.11-.62-13.56-7.78-28.49-16.37-.18-2.42-.29-5-.34-7a72,72,0,0,1,.07-8.3,16.9,16.9,0,0,1,.27-2.42Z"/><path class="j" d="M612.54,200.29a1.21,1.21,0,0,0-.84-.09c-1.15.3-.88,2.29-4.79,6.67-6.22,7-15.72,12.38-24.34,16-10.37,4.37-18.52,6-22,7.13a7.67,7.67,0,0,0-4.52,3.11,5,5,0,0,1-2.74,1.95h0c-1.72.54-3.31.44-7.58,1-1.3.16-2,.24-3.81.55,1.39-.7,1.7-2.44,2.57-4.38a9.08,9.08,0,0,1,3.49-4.29,31.15,31.15,0,0,1,6.47,0c4.29.33,3.89.4,5.57.29,8.89-.59,24.21-5.54,35.11-12.61a45.42,45.42,0,0,0,10.44-9c1.23-1.55,3-4.19,2-5.91a1.67,1.67,0,0,0-1.07-.79l-.87-.33a.91.91,0,0,0-.18-.61,3.36,3.36,0,0,0-1.39-1.15,4.22,4.22,0,0,0-1.34-.37l.15,0a32.39,32.39,0,0,1,6.85,1.61c.71.26,1,.42,1.41.55a8,8,0,0,1,1.4.64Z"/><path class="e" d="M609.94,302.75c-.74,2.14-1.76,2.47-3.44,1.77a21.7,21.7,0,0,1-3.26-1.79,6.93,6.93,0,0,1-3.09-4.31C603.31,299.85,606.76,301.38,609.94,302.75Z"/><path class="m" d="M601.08,339.35c1.3,11.1,9.1,20.93,16.34,24a10.19,10.19,0,0,0,6.32.84,8.49,8.49,0,0,0,5-4A11.7,11.7,0,0,0,630,354c-.3-11.32-8.38-22.77-16.5-26.2a10.07,10.07,0,0,0-6.33-.83,8.39,8.39,0,0,0-5,4C600.8,333.4,600.74,336.45,601.08,339.35ZM619.79,365c-9.76-2.9-18.47-15.73-19.4-26.82a19.81,19.81,0,0,1,.41-6.16h0a10.49,10.49,0,0,1,4.8-6.93l.23-.13h0c3.14-1.64,7.3-.67,10.67,1a21.25,21.25,0,0,1,2.28,1.33,49.52,49.52,0,0,1,7.36,7.74c.28.41.54.83.81,1.25,3.35,5.34,6,11.46,6,17.65a21.4,21.4,0,0,1-.21,3c-.4,2.85-2,6-4.48,7.39A10.7,10.7,0,0,1,619.79,365Z"/><path class="j" d="M605.46,199a.91.91,0,0,1,.18.61,25.84,25.84,0,0,0-6.13-1.43,5.15,5.15,0,0,1,3.15-.71h.07a4.22,4.22,0,0,1,1.34.37A3.36,3.36,0,0,1,605.46,199Z"/><path class="j" d="M599.51,198.15h0a25.38,25.38,0,0,1,6.25,1.16c.29.1.79.13,1.09.25.51.21.46.66.73,1.14,1,1.72-.81,4.36-2,5.91a45.42,45.42,0,0,1-10.44,9c-10.9,7.07-26.22,12-35.11,12.61-1.68.11-1.28,0-5.57-.29a31.15,31.15,0,0,0-6.47,0h0Q573.74,213,599.51,198.15Z"/><path class="e" d="M599.51,198.15Q573.74,213.08,548,227.91h0c-4.91.48-13.45,2.08-36.33,6.1L575.2,197.3h0c3,0,13.88.26,15,.3,2.57.08,6.46.24,9,.52Z"/><path class="m" d="M580.25,252.4l2.74,1.48c-.93,2.48-7.84,21.82-9.84,27.91L569,279.63C571.26,273.81,579.2,254.85,580.25,252.4Z"/><path class="e" d="M575.2,197.3a5.5,5.5,0,0,1,3.26-.72c5.87.06,18.25.18,24.2.86a5.15,5.15,0,0,0-3.15.71h0l-.24,0c-2.56-.28-6.45-.44-9-.52C589.08,197.56,578.24,197.35,575.2,197.3Z"/><path class="m" d="M577.23,250.78l3,1.62c-1,2.45-9,21.41-11.26,27.23l-4.53-2.37c.8-1.72,11.16-23.37,11.55-24.14S576.82,251.52,577.23,250.78Z"/><path class="h" d="M564.46,277.26l4.53,2.37a.3.3,0,0,1,0,.08c-.87,2.8-2,6.58-2.58,9.47-.06.33-.13.66-.18,1l-48.9-28.23A75.92,75.92,0,0,1,519,252c8.48,4.9,33.59,18.93,37.34,21C557.61,273.67,560.74,275.32,564.46,277.26Zm-3,5.77c1.91.86,2.94.51,3.67-1.92-3.27-1.73-6.78-3.61-10-5.38a6.8,6.8,0,0,0,3.13,5.46A23,23,0,0,0,561.46,283Z"/><path class="f" d="M565.85,300.88c0,2,.16,4.62.34,7-16.69-9.59-36.48-21-47-27h0c-.79-4.35-1.51-9.7-1.72-12-.13-1.46-.19-2.92-.26-4.37a20.24,20.24,0,0,1,.06-2.54l48.9,28.23a16.9,16.9,0,0,0-.27,2.42A72,72,0,0,0,565.85,300.88Z"/><path class="e" d="M565.13,281.11c-.73,2.43-1.76,2.78-3.67,1.92a23,23,0,0,1-3.23-1.84,6.8,6.8,0,0,1-3.13-5.46C558.35,277.5,561.86,279.38,565.13,281.11Z"/><path class="e" d="M548,227.92a9.08,9.08,0,0,0-3.49,4.29c-.87,1.94-1.24,3.94-2.63,4.64-3,.51-9.05,1.38-26,4.52l-.18,0-1.47.26-.66.11c-5.5,1-5.87-5.46-1.89-7.75h0C534.5,230,543,228.4,548,227.92Z"/><path class="h" d="M531.15,193.85h0a131.29,131.29,0,0,1,31.49-1.34,24.76,24.76,0,0,1,4.82.84h0c3.87,1.11,7.17,2.07,11,3.23a5.5,5.5,0,0,0-3.26.72h-.48c-1-.29-8.4-2.63-11.28-3.46a16,16,0,0,0-3.23-.54,128,128,0,0,0-29.84,1.19c-2.71.29-5.32.19-7.48.87a9.4,9.4,0,0,0-1.73.75v0a11,11,0,0,1,3-1.17A65,65,0,0,1,531.15,193.85Z"/><path class="j" d="M477.08,221.54q22.05-12.72,44.07-25.46v0a9.4,9.4,0,0,1,1.73-.75c2.16-.68,4.77-.58,7.48-.87a128,128,0,0,1,29.84-1.19,16,16,0,0,1,3.23.54c2.88.83,10.33,3.17,11.28,3.46h.48L511.62,234l-.73.12h0c-1.17-.17-10.6-1.37-14.07-1.85a13.72,13.72,0,0,1-2.94-.71c-4-1.52-8.29-3.68-11.12-6.87a16.12,16.12,0,0,0-4.49-3A3.8,3.8,0,0,0,477.08,221.54Z"/><path class="h" d="M474.28,226.9v-.11a.08.08,0,0,0,0,0,0,0,0,0,0,0,0v0a10.41,10.41,0,0,1,.79-3,4.84,4.84,0,0,1,2-2.2,3.8,3.8,0,0,1,1.19.16,16.12,16.12,0,0,1,4.49,3c2.83,3.19,7.15,5.35,11.12,6.87a13.72,13.72,0,0,0,2.94.71c3.47.48,12.9,1.68,14.07,1.85h0l.73-.12h0c-4,2.29-3.61,8.78,1.89,7.75l.66-.11,1.47-.26-7.33,1.35a4.23,4.23,0,0,1-1.33,0c-1.16-.16-10.45-1.35-13.93-1.75-1.28.29-15-4.9-17.68-10a.65.65,0,0,0-.15-.24c-.16-.19-.8-1-1.12-1a.14.14,0,0,0-.13.15A19.77,19.77,0,0,1,474.28,226.9Z"/><path class="m" d="M506.82,267.6A63.37,63.37,0,0,1,513.9,283a2.8,2.8,0,0,0,.78,1.12l.22.14,3,1.73a10,10,0,0,1-4.33,5.35l-6,3.46c2.45-1.41,4.08-4.53,4.48-7.39a21.29,21.29,0,0,0,.21-3C512.26,278.54,509.92,272.73,506.82,267.6Z"/><path class="e" d="M486,265.73a9.21,9.21,0,0,0-1,4.41,17.68,17.68,0,0,0,1,5.55,23.3,23.3,0,0,0,6.73,10.11,14.24,14.24,0,0,0,2.36,1.63,7.56,7.56,0,0,0,6.06,1,5.28,5.28,0,0,0,3.31-3.71,10.8,10.8,0,0,0,.45-3.1,21.15,21.15,0,0,0-3.77-11.13c-2.25-3.38-5.27-6.12-8.4-7.08a7.72,7.72,0,0,0-1-.25A5,5,0,0,0,486,265.73Zm23.34,18.66a11.8,11.8,0,0,1-1.33,6.24,8.44,8.44,0,0,1-5,4,10.07,10.07,0,0,1-6.33-.84c-5.63-2.37-10.52-8.23-13.25-13.72a30.92,30.92,0,0,1-3.09-10.26c-.34-2.9-.28-5.95,1.16-8.46a8.46,8.46,0,0,1,5-4,10.14,10.14,0,0,1,6.33.83C501,261.64,509.07,273.11,509.37,284.39Z"/><path class="h" d="M504.91,281.62c-1-.73-3.51-1.81-5.74-4h0a7.64,7.64,0,0,0-1.37-4.06c1.12-1.2,2.68-2.45,3.36-3.09a21.15,21.15,0,0,1,3.77,11.13Z"/><path class="h" d="M504.91,281.62h0a10.8,10.8,0,0,1-.45,3.1,5.28,5.28,0,0,1-3.31,3.71c-.55-1.5-2.25-4.06-3.37-8.32a2.75,2.75,0,0,0,1.37-2.47C501.4,279.81,503.94,280.89,504.91,281.62Z"/><path class="h" d="M501.16,270.49c-.68.64-2.24,1.89-3.36,3.09a7.82,7.82,0,0,0-1.56-1.74,4.88,4.88,0,0,0-1.5-.84c-1.43-3.31-1.58-6.25-2-7.59h0C495.89,264.37,498.91,267.11,501.16,270.49Z"/><path class="h" d="M497.8,280.11c1.12,4.26,2.82,6.82,3.37,8.32a7.56,7.56,0,0,1-6.06-1,14.24,14.24,0,0,1-2.36-1.63h0a42.64,42.64,0,0,1,1.9-6.43,4.27,4.27,0,0,0,.44.3,3.28,3.28,0,0,0,2.59.5Z"/><path class="e" d="M497.89,277.56a2.41,2.41,0,0,1-.26,1.25,1.72,1.72,0,0,1-1,.8,2.09,2.09,0,0,1-1.27-.17c-2.47-1.05-3.94-4.93-3-6.49C493.74,270.49,497.79,273.9,497.89,277.56Z"/><path class="m" d="M492,253a36,36,0,0,1,6.78,5.2,20.88,20.88,0,0,0-3-1.81c-3.37-1.7-7.55-2.67-10.68-1l5.41-3.12h0C491.08,252.52,491.57,252.78,492,253Z"/><path class="h" d="M494.74,271a2,2,0,0,0-2.11.39h0a2.17,2.17,0,0,0-.36.44h0a48.49,48.49,0,0,1-6.23-6.1,5,5,0,0,1,5.7-2.57,7.72,7.72,0,0,1,1,.25h0C493.16,264.75,493.31,267.69,494.74,271Z"/><path class="h" d="M494.66,279.36a42.64,42.64,0,0,0-1.9,6.43h0A23.3,23.3,0,0,1,486,275.69a52.29,52.29,0,0,0,6-.18A7.73,7.73,0,0,0,494.66,279.36Z"/><path class="h" d="M493,241c3.48.4,12.77,1.59,13.93,1.75a4.23,4.23,0,0,0,1.33,0l7.33-1.35.18,0c7.51-1.33,24.31-4.34,25.29-4.52a2.69,2.69,0,0,0,.8-.26c1.85-.31,2.51-.39,3.81-.55,4.27-.53,5.86-.43,7.58-1h0a19.37,19.37,0,0,1,9,0c4.39,1.21,73.18,39.6,73.9,42.27l0,0c-.74,2.35-.69,5-.18,8.65a39.82,39.82,0,0,0,2,8.7c1.83,4.82,3.56,9.85,5.15,14.72,0,.07-.93,2.64-1.26,3.43-.89,2.18-3.38,4.53-5.6,5.87a21.77,21.77,0,0,1-11.29,2.74c-2.35,0-4.75,0-7-1.31l-5.77-3.33a1.27,1.27,0,0,1,0-.2c.09-2,.85-9.43,1.46-15.58,2.91,1.22,5.49,2.24,7.47,2.92a18.55,18.55,0,0,0,5.32,1.19,2.41,2.41,0,0,0,2.39-1.27,7.92,7.92,0,0,0,.53-3c.13-4.39-.78-16-1.07-17.92a7.15,7.15,0,0,0-.82-2.52,11.81,11.81,0,0,0-3.13-3.33,73.49,73.49,0,0,0-8.64-5.45C612.45,269.75,597,261.4,583,253.88l-2.74-1.48-3-1.62c-10.07-5.42-18.17-9.76-18.37-9.85a24.82,24.82,0,0,0-3.9-1.48,5.13,5.13,0,0,0-2,0c-1.05.15-2.44.47-3.46.71-10.48,2.5-21.24,6.2-30.5,11.85a75.92,75.92,0,0,0-1.72,9.91l-14.51-8.38a14.13,14.13,0,0,1-3.49-3.37A76.65,76.65,0,0,1,493,241Z"/><path class="h" d="M492.26,271.83h0a4.48,4.48,0,0,0-.24,3.68,52.29,52.29,0,0,1-6,.18,17.68,17.68,0,0,1-1-5.55,9.21,9.21,0,0,1,1-4.41A48.49,48.49,0,0,0,492.26,271.83Z"/><path class="h" d="M496.63,279.61a1.72,1.72,0,0,0,1-.8,2.41,2.41,0,0,0,.26-1.25c-.1-3.66-4.15-7.07-5.57-4.61-.9,1.56.57,5.44,3,6.49A2.09,2.09,0,0,0,496.63,279.61Zm2.54-2h0a2.75,2.75,0,0,1-1.37,2.47l-.11.05a3.28,3.28,0,0,1-2.59-.5,4.27,4.27,0,0,1-.44-.3,7.73,7.73,0,0,1-2.63-3.85,4.48,4.48,0,0,1,.24-3.68,2.17,2.17,0,0,1,.36-.44h0a2,2,0,0,1,2.11-.39,4.88,4.88,0,0,1,1.5.84,7.82,7.82,0,0,1,1.56,1.74A7.64,7.64,0,0,1,499.17,277.64Z"/><path class="m" d="M483.49,280c2.73,5.49,7.62,11.35,13.25,13.72a10.07,10.07,0,0,0,6.33.84,8.44,8.44,0,0,0,5-4,11.8,11.8,0,0,0,1.33-6.24c-.3-11.28-8.36-22.75-16.51-26.2a10.14,10.14,0,0,0-6.33-.83,8.46,8.46,0,0,0-5,4c-1.44,2.51-1.5,5.56-1.16,8.46A30.92,30.92,0,0,0,483.49,280Zm1.66-24.64h0c3.13-1.65,7.31-.68,10.68,1a20.88,20.88,0,0,1,3,1.81c.48.45.94.9,1.39,1.37a46,46,0,0,1,6.61,8l0,0c3.1,5.13,5.44,10.94,5.44,16.79a21.29,21.29,0,0,1-.21,3c-.4,2.86-2,6-4.48,7.39-3.54,2.05-7.8,1.34-11.42-.51-9.56-4.9-17.31-18.51-16.45-29.14a16.23,16.23,0,0,1,.61-3.35,0,0,0,0,0,0,0,10.32,10.32,0,0,1,4.61-6.19Z"/><path class="e" d="M676.27,345.44h0a49.52,49.52,0,0,0-1.94-13.18h0c-1.21.67-11.24,5.6-12.12,6-1.88.87-3.81,1.7-5.76,2.46-9.1,3.52-15.45,4.13-21.31,3.27v0c-5.06-10.63-14.72-20.82-22.75-24.56a16.86,16.86,0,0,0-10.19-1.66,9.55,9.55,0,0,0-5.63,3.22,20.4,20.4,0,0,0-1.89,3.32c-1.11-.62-13.56-7.78-28.49-16.37-16.69-9.59-36.48-21-47-27l-4.12-2.38a61.06,61.06,0,0,0-18.16-25.78c-3.9-3.2-11.41-8.3-15.4-5.16a8.32,8.32,0,0,0-2.54,4.81A30.12,30.12,0,0,1,474.17,240a14.3,14.3,0,0,1-.22-1.88v6.44h0a17.46,17.46,0,0,0,.2,2.44,31.31,31.31,0,0,0,6.17,14.74,0,0,0,0,0,0,0h0c.22-4.17.78-10,4.91-10.63a10,10,0,0,1,5.35,1.18c.5.25,1,.51,1.44.76a36,36,0,0,1,6.78,5.2c.48.45.94.9,1.39,1.37a46,46,0,0,1,6.61,8l0,0A63.37,63.37,0,0,1,513.9,283a2.8,2.8,0,0,0,.78,1.12l.22.14,3,1.73,80,46.2a1.71,1.71,0,0,1-.64-1.43,9.68,9.68,0,0,1,.47-3.09c1.44-4.54,5.87-7.31,12.49-5.22h0a23.84,23.84,0,0,1,7.69,4.23l.84.68a49.52,49.52,0,0,1,7.36,7.74,42.75,42.75,0,0,1,7.77,15.49,13.08,13.08,0,0,0,.38,1.36,3.51,3.51,0,0,0,1.27,2h0l1.57.91.11.07c.41.23.83.45,1.29.67a46.92,46.92,0,0,0,7.34,2.78h.15a49.33,49.33,0,0,0,14.89-3.85,129.08,129.08,0,0,0,12.31-6.22l2.68-1.54,0-.05A1.55,1.55,0,0,0,676.27,345.44Z"/><path class="i" d="M474,232.65h0c.45,0,2.17,2.4,2.85,4.24a4.78,4.78,0,0,1,.33,1.71A42.14,42.14,0,0,1,477,244c-.14.9-.4,1.22-.92.46a17.45,17.45,0,0,1-1.81-5.26,16,16,0,0,1-.28-2.23h0Z"/><path class="f" d="M474.23,239.17a17.45,17.45,0,0,0,1.81,5.26c.52.76.78.44.92-.46a42.14,42.14,0,0,0,.19-5.39,4.78,4.78,0,0,0-.33-1.71c-.68-1.84-2.4-4.24-2.85-4.24h0V230h0a.14.14,0,0,1,.13-.15c.32,0,1,.85,1.12,1a.65.65,0,0,1,.15.24c2.65,5.06,16.4,10.25,17.68,10a76.65,76.65,0,0,0,6.26,9.14,14.13,14.13,0,0,0,3.49,3.37l14.51,8.38a20.24,20.24,0,0,0-.06,2.54c.07,1.45.13,2.91.26,4.37.21,2.34.93,7.69,1.72,12h0l-4.12-2.38a61.06,61.06,0,0,0-18.16-25.78c-3.9-3.2-11.41-8.3-15.4-5.17a8.38,8.38,0,0,0-2.54,4.82A30.12,30.12,0,0,1,474.17,240a14.3,14.3,0,0,1-.22-1.88v-1.19h0A16,16,0,0,0,474.23,239.17Z"/><path class="e" d="M628.47,282.94c.29,1.94,1.2,13.53,1.07,17.92a7.92,7.92,0,0,1-.53,3,2.41,2.41,0,0,1-2.39,1.27A18.55,18.55,0,0,1,621.3,304c-2-.68-4.56-1.7-7.47-2.92.34-3.42.63-6.43.75-7.89.25-3.25,1.18-20.54,1.3-21.51a73.49,73.49,0,0,1,8.64,5.45,11.81,11.81,0,0,1,3.13,3.33A7.15,7.15,0,0,1,628.47,282.94Z"/><path class="e" d="M615.88,271.64c-.12,1-1,18.26-1.3,21.51-.12,1.46-.41,4.47-.75,7.89-10-4.16-23.77-10.66-30.56-14-1-.52-5.28-2.71-10.12-5.23,2-6.09,8.91-25.43,9.84-27.91C597,261.4,612.45,269.75,615.88,271.64Z"/><path class="e" d="M577.23,250.78c-.41.74-.87,1.64-1.22,2.34s-10.75,22.42-11.55,24.14c-3.72-1.94-6.85-3.59-8.11-4.27-3.75-2-28.86-16.07-37.34-21,9.26-5.65,20-9.35,30.5-11.85,1-.24,2.41-.56,3.46-.71a5.13,5.13,0,0,1,2,0,24.82,24.82,0,0,1,3.9,1.48C559.06,241,567.16,245.36,577.23,250.78Z"/><path class="f" d="M499.43,288.9a9.27,9.27,0,0,1-4.42-1.29,14.65,14.65,0,0,1-2.38-1.66,23.61,23.61,0,0,1-6.8-10.2h0a17.67,17.67,0,0,1-1-5.61,9.47,9.47,0,0,1,1-4.5,5.22,5.22,0,0,1,5.91-2.68,9.64,9.64,0,0,1,1.06.26c3,.92,6.09,3.53,8.5,7.16a21.06,21.06,0,0,1,3.8,11.24,10.58,10.58,0,0,1-.45,3.16,5.5,5.5,0,0,1-3.43,3.84A5.67,5.67,0,0,1,499.43,288.9ZM486.2,275.62a23.26,23.26,0,0,0,6.68,10,14.48,14.48,0,0,0,2.32,1.61,7.42,7.42,0,0,0,5.91,1,5.08,5.08,0,0,0,3.18-3.58,10.1,10.1,0,0,0,.44-3,20.71,20.71,0,0,0-3.73-11c-2.37-3.56-5.39-6.11-8.3-7a6.78,6.78,0,0,0-1-.25,4.84,4.84,0,0,0-5.49,2.48,8.91,8.91,0,0,0-1,4.31,17.42,17.42,0,0,0,1,5.48Z"/><path class="f" d="M613.31,355.51a23.32,23.32,0,0,1-6.8-10.19l.38-.13a22.68,22.68,0,0,0,6.68,10Z"/><path class="f" d="M620.1,358.47a9.15,9.15,0,0,1-4.41-1.3,16,16,0,0,1-2.38-1.66l.26-.3a16.47,16.47,0,0,0,2.31,1.62,7.4,7.4,0,0,0,5.9,1,5.09,5.09,0,0,0,3.19-3.58,10.17,10.17,0,0,0,.44-3.05,20.85,20.85,0,0,0-3.73-11c-2.36-3.55-5.38-6.1-8.3-7-.35-.1-.69-.19-1-.25a4.85,4.85,0,0,0-5.49,2.48,8.91,8.91,0,0,0-1,4.31,17.77,17.77,0,0,0,1,5.49l-.37.13a17.78,17.78,0,0,1-1-5.62,9.47,9.47,0,0,1,1-4.5,5.22,5.22,0,0,1,5.91-2.67,9.07,9.07,0,0,1,1.06.26c3,.93,6.1,3.54,8.5,7.16a21.12,21.12,0,0,1,3.8,11.23,10.65,10.65,0,0,1-.45,3.17,5.46,5.46,0,0,1-3.44,3.83A5.37,5.37,0,0,1,620.1,358.47Z"/><path class="f" d="M497,280.44a3.93,3.93,0,0,1-2-.61,4.58,4.58,0,0,1-.46-.31,8,8,0,0,1-2.7-4,4.61,4.61,0,0,1,.26-3.83,2.18,2.18,0,0,1,.33-.42h0l.06-.06a2.19,2.19,0,0,1,2.31-.43,4.81,4.81,0,0,1,1.56.87,7.68,7.68,0,0,1,1.6,1.79,7.86,7.86,0,0,1,1.41,4.16h0a2.91,2.91,0,0,1-1.48,2.63l-.13.06A2.73,2.73,0,0,1,497,280.44Zm-4.19-9,0,0a2.12,2.12,0,0,0-.33.41,4.26,4.26,0,0,0-.22,3.51,7.54,7.54,0,0,0,2.55,3.75,4,4,0,0,0,.43.29,3.14,3.14,0,0,0,2.43.48h0l.08,0a2.53,2.53,0,0,0,1.26-2.29h0a8,8,0,0,0-2.85-5.64,4.58,4.58,0,0,0-1.44-.81A1.86,1.86,0,0,0,492.81,271.48Z"/><path class="m" d="M626.58,305.35a18.62,18.62,0,0,1-5.34-1.21c-1.87-.64-4.39-1.62-7.49-2.91-9.91-4.15-23.84-10.7-30.57-14-.91-.46-4.32-2.21-10.12-5.23L567.41,279l-3-1.59c-4.17-2.19-7-3.67-8.1-4.28-3.53-1.91-28.63-15.93-37.35-21l.19-.34c8.72,5,33.81,19,37.35,21,1.12.6,3.92,2.08,8.1,4.27l3.05,1.59,5.64,2.94c5.8,3,9.21,4.77,10.12,5.22,6.72,3.33,20.64,9.88,30.54,14,3.1,1.3,5.61,2.27,7.46,2.91a18.07,18.07,0,0,0,5.26,1.18,2.19,2.19,0,0,0,2.21-1.15,7.57,7.57,0,0,0,.51-2.95c.14-4.46-.79-16-1.07-17.88a6.86,6.86,0,0,0-.8-2.45,11.88,11.88,0,0,0-3.07-3.28,75,75,0,0,0-8.62-5.43l.19-.34a73.06,73.06,0,0,1,8.67,5.46,12.12,12.12,0,0,1,3.18,3.4,7.26,7.26,0,0,1,.84,2.58c.28,1.87,1.21,13.47,1.08,17.95a7.69,7.69,0,0,1-.56,3.11,2.57,2.57,0,0,1-2.56,1.38Z"/><path class="m" d="M566.19,307.93H566c-.15-2.09-.28-4.66-.34-7v-.28a63.68,63.68,0,0,1,0-6.68l.05-1.35a19.32,19.32,0,0,1,.27-2.44c.06-.33.12-.65.19-1,.6-2.91,1.74-6.77,2.59-9.49l0-.08c2.26-5.8,10.19-24.74,11.26-27.25l.11-.25.37.15-.11.26c-1.08,2.5-9,21.44-11.26,27.22a.47.47,0,0,1,0,.09c-.84,2.69-2,6.53-2.57,9.42-.07.34-.13.66-.19,1a20.34,20.34,0,0,0-.27,2.39l-.05,1.35a60.71,60.71,0,0,0,0,6.65v.28c.07,2.37.19,4.94.34,7Z"/><path class="m" d="M612.2,319.43a20.74,20.74,0,0,1,0-2.62,1.41,1.41,0,0,1,0-.2c.08-1.76.67-7.62,1.23-13.29l.23-2.3c.4-3.93.65-6.59.75-7.88.13-1.67.44-7.16.72-12,.26-4.55.49-8.52.57-9.39-2.94-1.62-14-7.58-32.77-17.7l-2.75-1.47-2-1.1-1-.53c-10.06-5.41-18.13-9.74-18.35-9.84a24.18,24.18,0,0,0-3.87-1.47,5,5,0,0,0-1.92,0c-.81.12-2,.36-3.44.71-12,2.87-22.22,6.83-30.37,11.79a76.68,76.68,0,0,0-1.7,9.79,20.18,20.18,0,0,0-.05,2.52l0,.86c.06,1.15.11,2.34.21,3.51.22,2.41,1,7.82,1.72,12l-.38.07c-.77-4.2-1.51-9.62-1.73-12.05-.1-1.18-.16-2.37-.21-3.52l-.05-.86a19.34,19.34,0,0,1,.06-2.57,76.23,76.23,0,0,1,1.72-9.93l0-.08.07-.05c8.2-5,18.48-9,30.56-11.87,1.48-.35,2.65-.6,3.48-.72a5.33,5.33,0,0,1,2.07,0,24.56,24.56,0,0,1,3.93,1.49c.21.09,8.11,4.33,18.38,9.86l1,.52,2,1.1,2.74,1.47C602.14,264,613.21,269.94,616,271.47l.12.06,0,.13c-.05.47-.31,4.85-.57,9.5-.3,5.08-.6,10.34-.73,12-.1,1.3-.35,3.95-.75,7.89l-.23,2.3c-.56,5.67-1.14,11.52-1.23,13.27,0,.07,0,.13,0,.19a22.11,22.11,0,0,0,0,2.58Z"/><path class="f" d="M504.8,281.77c-.29-.21-.73-.46-1.24-.76a21.43,21.43,0,0,1-4.53-3.23l-.06-.06v-.08h.2l.14-.14a21,21,0,0,0,4.45,3.17,14.59,14.59,0,0,1,1.27.79Z"/><path class="f" d="M501,288.5c-.17-.44-.44-1-.76-1.65a33,33,0,0,1-2.62-6.69l.38-.1a33.09,33.09,0,0,0,2.59,6.62,17.41,17.41,0,0,1,.78,1.68Z"/><path class="f" d="M493,285.85l-.38-.12a12.88,12.88,0,0,0,.32-1.27,29.66,29.66,0,0,1,1.58-5.17l.37.15a28.19,28.19,0,0,0-1.56,5.11C493.16,285.08,493.06,285.5,493,285.85Z"/><path class="f" d="M488.3,275.9h-1.18c-.45,0-.8,0-1.09,0l0-.39c.3,0,.67,0,1.12,0a35.88,35.88,0,0,0,4.88-.18l0,.39A36.53,36.53,0,0,1,488.3,275.9Z"/><path class="f" d="M492.14,272a33.9,33.9,0,0,1-5.09-4.86,15.89,15.89,0,0,0-1.16-1.25l.27-.29h0c.32.31.7.74,1.18,1.28a32.61,32.61,0,0,0,5,4.8Z"/><path class="f" d="M494.56,271.08a25.81,25.81,0,0,1-1.66-6,14.34,14.34,0,0,0-.33-1.59l.38-.11c.12.41.22,1,.34,1.63a25.41,25.41,0,0,0,1.63,5.94Z"/><path class="f" d="M497.94,273.72l-.28-.27a33.26,33.26,0,0,1,2.5-2.33l.87-.77.05-.06h.08v.18l.15.15h0l-.88.78A32.66,32.66,0,0,0,497.94,273.72Z"/><path class="f" d="M609,345.47l-1.18,0h-1.15v-.39h0c.32,0,.69,0,1.17,0a36.34,36.34,0,0,0,4.81-.18l0,.39A35.2,35.2,0,0,1,609,345.47Z"/><path class="f" d="M612.81,341.55a33.5,33.5,0,0,1-5.06-4.83c-.45-.52-.85-1-1.18-1.28l.26-.29h0a16.66,16.66,0,0,1,1.21,1.3,32.67,32.67,0,0,0,5,4.78Z"/><path class="f" d="M615.24,340.65a25.36,25.36,0,0,1-1.65-6c-.12-.65-.22-1.21-.34-1.61l.38-.12a14.43,14.43,0,0,1,.34,1.66,25.23,25.23,0,0,0,1.63,5.91Z"/><path class="f" d="M618.63,343.29l-.29-.27a34.17,34.17,0,0,1,2.52-2.36c.34-.29.64-.54.85-.74l.28.27h0c-.22.21-.52.46-.86.76A33.32,33.32,0,0,0,618.63,343.29Z"/><path class="f" d="M617.68,350a3.88,3.88,0,0,1-2-.62l-.47-.31a8,8,0,0,1-2.69-4,4.64,4.64,0,0,1,.26-3.84,2.76,2.76,0,0,1,.38-.48,2.24,2.24,0,0,1,2.32-.43,4.94,4.94,0,0,1,1.56.88,8.29,8.29,0,0,1,3,5.94v0c0,.08-.2,2.13-1.48,2.64l-.13,0A2.67,2.67,0,0,1,617.68,350Zm-3.07-9.38a1.56,1.56,0,0,0-1.15.44,2,2,0,0,0-.35.43,4.24,4.24,0,0,0-.21,3.5,7.5,7.5,0,0,0,2.55,3.76,4,4,0,0,0,.43.29,3.08,3.08,0,0,0,2.43.48l.09,0c1-.41,1.24-2.18,1.25-2.31a7.49,7.49,0,0,0-1.33-3.94,7.63,7.63,0,0,0-1.53-1.7,4.48,4.48,0,0,0-1.43-.8A2.6,2.6,0,0,0,614.61,340.64Z"/><path class="f" d="M519.11,248l-2.34,9.73-1,.28a8,8,0,0,0,.83-2.37l-.3-4.12a2,2,0,0,0-.51-.77,1.53,1.53,0,0,0-.4-.26Z"/><path class="j" d="M519.11,248l-3.7,2.49-.32-.11h0l-2-.48,4.32-2.9Z"/><path class="f" d="M516.73,247a.7.7,0,0,1,.67,0l-4.32,2.9-.54-.13,4.09-2.76Z"/><path class="i" d="M516.32,251.56l.3,4.12a8,8,0,0,1-.83,2.37h0a28.2,28.2,0,0,1-2.79,4.15l-2.15,2.48a6.6,6.6,0,0,1-1.88,1.44,1,1,0,0,1-.65.07c-.33-.08-.57-.38-.77-.85-.86-2-.64-5.51-.21-7.63a8.48,8.48,0,0,1,1.21-3.08,6.46,6.46,0,0,1,.44-.59l1.1-1.26a10.66,10.66,0,0,1,2.47-1.87,3.87,3.87,0,0,1,2.53-.5h0l.32.11a1.53,1.53,0,0,1,.4.26A2,2,0,0,1,516.32,251.56Z"/><path class="f" d="M508.32,266.2h0l-2.41-.58a1.39,1.39,0,0,1-.51-.24,4.84,4.84,0,0,1-1.61-3.56,13.35,13.35,0,0,1,0-2.19l.06-.79a3.5,3.5,0,0,1,.32-1.29l3.19.17c-.43,2.12-.65,5.63.21,7.63C507.75,265.82,508,266.12,508.32,266.2Z"/><path class="j" d="M505.91,265.62c-2.27-.56-3.32-2.64-3.58-5a13.23,13.23,0,0,1,0-2.18c0-.14,0-.62.06-.72a3.64,3.64,0,0,1,.75-2.49l4.74-5.47.29-.22a5.69,5.69,0,0,1,2.88-.11h0l1.52.36.54.13,2,.48a3.87,3.87,0,0,0-2.53.5,10.66,10.66,0,0,0-2.47,1.87l-1.1,1.26a6.46,6.46,0,0,0-.44.59,8.48,8.48,0,0,0-1.21,3.08l-3.19-.17a3.5,3.5,0,0,0-.32,1.29l-.06.79a13.35,13.35,0,0,0,0,2.19,4.84,4.84,0,0,0,1.61,3.56A1.39,1.39,0,0,0,505.91,265.62Z"/><path class="e" d="M719,281.66a12.3,12.3,0,0,1-1.34,4.54h0l-51,29.46-3.27,1.89h0a11.56,11.56,0,0,1-4.44-1.21c-2.88-8.93-5.71-17.56-9.26-26.3a35.2,35.2,0,0,1-2.92-10,14.62,14.62,0,0,1,1.45-8.19,15.28,15.28,0,0,1,4.17-4.67,112.51,112.51,0,0,1,26.25-14.77l1.61-.6c5.41-1.94,10.26-1.92,14.27,2.17l1.34,1.38C703.5,263.3,712,273.16,719,281.66Z"/><path class="n" d="M719,281.66a12.3,12.3,0,0,1-1.34,4.54h0l-51,29.46c4.42-19.93,8.76-44.26,12-63.29l1.61-.6c5.41-1.94,10.26-1.92,14.27,2.17l1.34,1.38C703.5,263.3,712,273.16,719,281.66Z"/><path class="m" d="M663.4,317.76h0a11.82,11.82,0,0,1-4.54-1.23l-.08,0,0-.08c-2.88-8.91-5.74-17.62-9.26-26.28a36.08,36.08,0,0,1-2.94-10.1,14.87,14.87,0,0,1,1.48-8.31,15.46,15.46,0,0,1,4.22-4.72,112.46,112.46,0,0,1,26.3-14.8l1.61-.6c6.21-2.23,10.81-1.53,14.48,2.21.46.46.9.92,1.35,1.38,9.21,9.54,18.48,20.6,23.19,26.34l.05.07v.08a12.7,12.7,0,0,1-1.36,4.62l0,.05-.06,0Zm-4.34-1.55a11.31,11.31,0,0,0,4.24,1.15l54.19-31.29a12.07,12.07,0,0,0,1.29-4.35c-4.72-5.76-13.95-16.76-23.12-26.26l-1.34-1.37c-3.55-3.62-8-4.29-14.07-2.12l-1.6.59a112.35,112.35,0,0,0-26.2,14.75,14.8,14.8,0,0,0-4.11,4.6,14.35,14.35,0,0,0-1.43,8.08,35.69,35.69,0,0,0,2.9,10C653.32,298.63,656.19,307.32,659.06,316.21Z"/><path class="o" d="M690.78,245.67c-2.67-.63-5.4.19-7.89,1.15s-5.15,1.63-7.6,2.79a145,145,0,0,0-14.4,7.42,121.52,121.52,0,0,0-13.6,8.81c-4.1,3.35-9.17,6.26-11,11.51,1.68-5.37,6.72-8.45,10.82-11.82a117.8,117.8,0,0,1,13.54-9,145,145,0,0,1,14.54-7.28c2.47-1.13,5.12-1.8,7.67-2.7S688.13,244.94,690.78,245.67Z"/><path class="o" d="M561.33,229.77c9.45-2.73,18.93-5.57,27.64-10.18a72.68,72.68,0,0,0,12.45-7.81c3.79-3.08,7.4-6.58,9.59-11-2,4.56-5.54,8.22-9.35,11.33a72.89,72.89,0,0,1-12.43,8,109.28,109.28,0,0,1-13.67,5.66C570.9,227.4,566.09,228.55,561.33,229.77Z"/><path class="g" d="M334.26,649.19h-6.73l-5.1-8h-.06v8H317V628.4h8.08a8.09,8.09,0,0,1,5.24,1.6,5.81,5.81,0,0,1,2,4.8,6.33,6.33,0,0,1-1.2,3.86,5.08,5.08,0,0,1-3.35,2Zm-11.89-11.47h.53a8.74,8.74,0,0,0,1.39-.1,3.6,3.6,0,0,0,1.19-.37,2.11,2.11,0,0,0,.85-.8,2.53,2.53,0,0,0,.32-1.32,2.57,2.57,0,0,0-.32-1.33,2.15,2.15,0,0,0-.85-.79,3.86,3.86,0,0,0-1.19-.38,10.15,10.15,0,0,0-1.39-.09h-.53Z"/><path class="p" d="M380.22,636.89a23.92,23.92,0,0,1-.45,4.58,9.63,9.63,0,0,1-1.67,3.64,9.15,9.15,0,0,1-3.7,3.08,11.61,11.61,0,0,1-4.88,1,12.42,12.42,0,0,1-4.47-.78,10.3,10.3,0,0,1-3.53-2.25,10,10,0,0,1-2.29-3.49,12.06,12.06,0,0,1-.79-4.45,12.48,12.48,0,0,1,.81-4.58,10,10,0,0,1,5.9-5.83,12.71,12.71,0,0,1,4.57-.79,10.71,10.71,0,0,1,5.65,1.46,9.61,9.61,0,0,1,3.72,4.36L374,635a5.28,5.28,0,0,0-1.73-2.43,4.5,4.5,0,0,0-2.76-.88,4.81,4.81,0,0,0-2.29.55,5,5,0,0,0-1.71,1.51,7.12,7.12,0,0,0-1.05,2.12,8.08,8.08,0,0,0,0,4.77,6.75,6.75,0,0,0,1.06,2.11,5.06,5.06,0,0,0,1.74,1.48,5,5,0,0,0,2.33.53,4.74,4.74,0,0,0,3-.93,3.7,3.7,0,0,0,1.35-2.68h-4.42v-4.25Z"/><path class="q" d="M405.11,649.19V628.4h7.72a7.17,7.17,0,0,1,4.56,1.28A5,5,0,0,1,419,633.8a5.67,5.67,0,0,1-.54,2.57,3.71,3.71,0,0,1-1.75,1.68v.06a4.52,4.52,0,0,1,3.2,1.65A5.87,5.87,0,0,1,421,643.4a5.38,5.38,0,0,1-.63,2.69,5.07,5.07,0,0,1-1.66,1.81,7.18,7.18,0,0,1-2.39,1,13,13,0,0,1-2.85.3Zm5.4-12.63h.61a7.45,7.45,0,0,0,1.1-.07,2.73,2.73,0,0,0,.93-.29,1.58,1.58,0,0,0,.66-.62,2.44,2.44,0,0,0,0-2.13,1.49,1.49,0,0,0-.72-.61,3.39,3.39,0,0,0-1-.25,10.64,10.64,0,0,0-1.2-.05h-.39Zm0,8.5h.69c.65,0,1.19,0,1.64-.06a5.17,5.17,0,0,0,1.3-.26,2.17,2.17,0,0,0,1-.66,1.86,1.86,0,0,0,.37-1.23,2.16,2.16,0,0,0-.31-1.23,1.93,1.93,0,0,0-.9-.67,4.8,4.8,0,0,0-1.35-.29c-.52,0-1.14-.07-1.88-.07h-.55Z"/><path class="g" d="M316,662.29h6.64l3.17,5.38,3.18-5.38h6.64L329,672l7.69,11.12h-6.51l-4.36-6.79-4.77,6.79h-6.53L322.66,672Z"/><path class="p" d="M359,662.29h6.48l3.89,5.66,3.89-5.66h6.48L372,673.11v10h-5.4v-10Z"/><path class="q" d="M421.41,678.51v4.58H403.59l9.85-16.22h-8.17v-4.58h17.21l-9.79,16.22Z"/><path class="g" d="M87.13,139.14h8.09l3.86,6.55,3.86-6.55H111l-8.09,11.78,9.36,13.53h-7.92l-5.3-8.26-5.81,8.26h-8l9.9-13.53Z"/><path class="g" d="M481.13,177.36h8.09l3.86,6.55,3.86-6.55H505l-8.09,11.78,9.36,13.53h-7.92l-5.3-8.26-5.81,8.26h-7.95l9.9-13.53Z"/><path class="p" d="M24.15,414.85H32l4.73,6.88,4.73-6.88h7.89L40.06,428v12.15H33.48V428Z"/><path class="p" d="M481.27,302h7.88l4.73,6.88,4.74-6.88h7.88l-9.33,13.15v12.15h-6.58V315.11Z"/><path class="q" d="M259.57,123.39V129H237.89l12-19.73h-9.93v-5.57h20.94L249,123.39Z"/><path class="q" d="M594.91,143.39V149H573.23l12-19.73h-9.94v-5.57h21L584.3,143.39Z"/><polyline class="r" points="249.93 194.37 249.93 145.48 234.82 161.48"/><line class="r" x1="249.93" y1="145.48" x2="264.59" y2="160.15"/><polyline class="r" points="584.37 207.26 584.37 158.37 569.26 174.37"/><line class="r" x1="584.37" y1="158.37" x2="599.04" y2="173.04"/><polyline class="s" points="149.33 208.84 116.63 172.5 116.1 194.5"/><line class="s" x1="116.63" y1="172.5" x2="137.34" y2="173.59"/><polyline class="s" points="558.47 213.79 519.43 184.37 523.11 206.07"/><line class="s" x1="519.43" y1="184.37" x2="539.97" y2="181.49"/><polyline class="t" points="77.96 376.69 34.58 399.22 55.74 405.26"/><line class="t" x1="34.58" y1="399.22" x2="40.83" y2="379.44"/><polyline class="t" points="553.86 269.83 514.62 299 536.48 301.58"/><line class="t" x1="514.62" y1="299" x2="517.64" y2="278.48"/></g></svg>