<?xml version="1.0" encoding="utf-8"?>
<!-- Generator: Adobe Illustrator 22.0.1, SVG Export Plug-In . SVG Version: 6.00 Build 0)  -->
<svg version="1.1" id="Layer_1" xmlns="http://www.w3.org/2000/svg" xmlns:xlink="http://www.w3.org/1999/xlink" x="0px" y="0px"
	 viewBox="0 0 400 400" style="enable-background:new 0 0 400 400;" xml:space="preserve">
<style type="text/css">
	.st0{fill:none;stroke:#000000;stroke-miterlimit:10;stroke-dasharray:12;}
	.st1{font-family:'Calibri';}
	.st2{font-size:12px;}
	.st3{fill:none;stroke:#000000;stroke-miterlimit:10;}
	.st4{font-size:9.8925px;}
	.st5{font-size:16.0493px;}
</style>
<line class="st0" x1="156" y1="85.5" x2="156" y2="347.3"/>
<text transform="matrix(1 0 0 1 62.8403 117.3853)" class="st1 st2">map</text>
<ellipse class="st3" cx="73.7" cy="114.4" rx="32.5" ry="17.8"/>
<g>
	<g>
		<line class="st3" x1="73.7" y1="132.1" x2="73.7" y2="147.7"/>
		<g>
			<polygon points="71.2,147 73.7,151.3 76.2,147 			"/>
		</g>
	</g>
</g>
<text transform="matrix(1 0 0 1 63.0487 172.4269)" class="st1 st2">gps</text>
<ellipse class="st3" cx="73.9" cy="169.4" rx="32.5" ry="17.8"/>
<g>
	<g>
		<line class="st3" x1="73.9" y1="187.2" x2="73.9" y2="202.8"/>
		<g>
			<polygon points="71.4,202.1 73.9,206.4 76.4,202.1 			"/>
		</g>
	</g>
</g>
<text transform="matrix(1 0 0 1 51.218 226.9269)" class="st1 st2">base_link</text>
<ellipse class="st3" cx="74.2" cy="223.9" rx="32.5" ry="17.8"/>
<text transform="matrix(1 0 0 1 8.8013 274.4883)" class="st1 st4">velodyne_left</text>
<ellipse class="st3" cx="36.5" cy="271.2" rx="32.5" ry="17.8"/>
<text transform="matrix(1 0 0 1 93.968 274.3436)" class="st1 st2">zed_front</text>
<ellipse class="st3" cx="117.2" cy="270.6" rx="32.5" ry="17.8"/>
<text transform="matrix(1 0 0 1 64.5513 318.9269)" class="st1 st2">laser</text>
<ellipse class="st3" cx="76.5" cy="315.9" rx="32.5" ry="17.8"/>
<g>
	<g>
		<line class="st3" x1="56.9" y1="239" x2="46.2" y2="250.8"/>
		<g>
			<polygon points="44.8,248.6 43.7,253.5 48.5,252 			"/>
		</g>
	</g>
</g>
<g>
	<g>
		<line class="st3" x1="75.1" y1="241.4" x2="75.1" y2="294.4"/>
		<g>
			<polygon points="72.6,293.7 75.1,298 77.6,293.7 			"/>
		</g>
	</g>
</g>
<g>
	<g>
		<line class="st3" x1="93.7" y1="238.5" x2="104.4" y2="250.3"/>
		<g>
			<polygon points="102.1,251.5 106.8,253 105.8,248.1 			"/>
		</g>
	</g>
</g>
<text transform="matrix(1 0 0 1 221.3083 119.0622)" class="st1 st2">map</text>
<ellipse class="st3" cx="232.1" cy="116" rx="32.5" ry="17.8"/>
<g>
	<g>
		<line class="st3" x1="232.1" y1="133.8" x2="232.1" y2="149.4"/>
		<g>
			<polygon points="229.6,148.7 232.1,153 234.6,148.7 			"/>
		</g>
	</g>
</g>
<text transform="matrix(1 0 0 1 213.0167 174.1039)" class="st1 st2">ndt_map</text>
<ellipse class="st3" cx="232.3" cy="171.1" rx="32.5" ry="17.8"/>
<g>
	<g>
		<line class="st3" x1="232.3" y1="188.8" x2="232.3" y2="204.5"/>
		<g>
			<polygon points="229.8,203.7 232.3,208.1 234.8,203.7 			"/>
		</g>
	</g>
</g>
<text transform="matrix(1 0 0 1 209.686 228.6039)" class="st1 st2">base_link</text>
<ellipse class="st3" cx="232.7" cy="225.6" rx="32.5" ry="17.8"/>
<text transform="matrix(1 0 0 1 165.0193 263.9152)" class="st1 st4">sensor_a</text>
<ellipse class="st3" cx="184.6" cy="262" rx="24.4" ry="10.3"/>
<text transform="matrix(1 0 0 1 214.7693 267.4152)" class="st1 st4">sensor_b</text>
<ellipse class="st3" cx="234.4" cy="265.5" rx="24.4" ry="10.3"/>
<text transform="matrix(1 0 0 1 269.1443 262.9152)" class="st1 st4">...</text>
<ellipse class="st3" cx="272.3" cy="261.5" rx="8.5" ry="6.8"/>
<g>
	<g>
		<line class="st3" x1="215.4" y1="240.7" x2="204.6" y2="252.5"/>
		<g>
			<polygon points="203.3,250.3 202.2,255.2 207,253.7 			"/>
		</g>
	</g>
</g>
<g>
	<g>
		<line class="st3" x1="233.6" y1="243.1" x2="233.6" y2="251.9"/>
		<g>
			<polygon points="231.1,251.2 233.6,255.5 236.1,251.2 			"/>
		</g>
	</g>
</g>
<g>
	<g>
		<line class="st3" x1="252.1" y1="240.2" x2="267" y2="252.2"/>
		<g>
			<polygon points="264.8,253.7 269.7,254.5 268,249.8 			"/>
		</g>
	</g>
</g>
<text transform="matrix(1 0 0 1 176.3332 44.2845)" class="st1 st5">Examples</text>
<line class="st0" x1="291.7" y1="85.5" x2="291.7" y2="347.3"/>
<text transform="matrix(1 0 0 1 337.3083 120.0622)" class="st1 st2">map</text>
<ellipse class="st3" cx="348.1" cy="117" rx="32.5" ry="17.8"/>
<g>
	<g>
		<line class="st3" x1="348.1" y1="134.8" x2="348.1" y2="150.4"/>
		<g>
			<polygon points="345.6,149.7 348.1,154 350.6,149.7 			"/>
		</g>
	</g>
</g>
<text transform="matrix(1 0 0 1 329.0167 175.1039)" class="st1 st2">kalman_f</text>
<ellipse class="st3" cx="348.3" cy="172.1" rx="32.5" ry="17.8"/>
<g>
	<g>
		<line class="st3" x1="348.3" y1="189.8" x2="348.3" y2="205.5"/>
		<g>
			<polygon points="345.8,204.7 348.3,209.1 350.8,204.7 			"/>
		</g>
	</g>
</g>
<text transform="matrix(1 0 0 1 325.686 229.6039)" class="st1 st2">base_link</text>
<ellipse class="st3" cx="348.7" cy="226.6" rx="32.5" ry="17.8"/>
<text transform="matrix(1 0 0 1 385.1443 263.9152)" class="st1 st4">...</text>
<ellipse class="st3" cx="388.3" cy="262.5" rx="8.5" ry="6.8"/>
<g>
	<g>
		<line class="st3" x1="331.4" y1="241.7" x2="320.6" y2="253.5"/>
		<g>
			<polygon points="319.3,251.3 318.2,256.2 323,254.7 			"/>
		</g>
	</g>
</g>
<g>
	<g>
		<line class="st3" x1="349.6" y1="244.1" x2="349.6" y2="252.9"/>
		<g>
			<polygon points="347.1,252.2 349.6,256.5 352.1,252.2 			"/>
		</g>
	</g>
</g>
<g>
	<g>
		<line class="st3" x1="368.1" y1="241.2" x2="383" y2="253.2"/>
		<g>
			<polygon points="380.8,254.7 385.7,255.5 384,250.8 			"/>
		</g>
	</g>
</g>
<text transform="matrix(1 0 0 1 346.3109 264.5819)" class="st1 st4">...</text>
<ellipse class="st3" cx="349.4" cy="263.2" rx="8.5" ry="6.8"/>
<text transform="matrix(1 0 0 1 366.8109 288.4152)" class="st1 st4">...</text>
<ellipse class="st3" cx="369.9" cy="287" rx="8.5" ry="6.8"/>
<text transform="matrix(1 0 0 1 311.3109 264.0819)" class="st1 st4">...</text>
<ellipse class="st3" cx="314.4" cy="262.7" rx="8.5" ry="6.8"/>
<g>
	<g>
		<line class="st3" x1="362.4" y1="290.5" x2="351.6" y2="302.4"/>
		<g>
			<polygon points="350.3,300.1 349.2,305 354,303.5 			"/>
		</g>
	</g>
</g>
<text transform="matrix(1 0 0 1 342.3109 312.9152)" class="st1 st4">...</text>
<ellipse class="st3" cx="345.4" cy="311.5" rx="8.5" ry="6.8"/>
<g>
	<g>
		<line class="st3" x1="361.7" y1="243.3" x2="368.3" y2="277.3"/>
		<g>
			<polygon points="365.7,277.1 369,280.8 370.6,276.1 			"/>
		</g>
	</g>
</g>
</svg>
