<?xml version="1.0" encoding="utf-8"?>
<!-- Generator: Adobe Illustrator 22.0.1, SVG Export Plug-In . SVG Version: 6.00 Build 0)  -->
<svg version="1.1" id="Layer_1" xmlns="http://www.w3.org/2000/svg" xmlns:xlink="http://www.w3.org/1999/xlink" x="0px" y="0px"
	 viewBox="0 0 2242 1194" style="enable-background:new 0 0 2242 1194;" xml:space="preserve">
<style type="text/css">
	.st0{fill:#EF4857;stroke:#000000;stroke-linecap:square;stroke-linejoin:round;}
	.st1{stroke:#000000;stroke-linecap:square;stroke-linejoin:round;}
	.st2{fill:none;stroke:#000000;stroke-linecap:square;stroke-linejoin:round;}
	.st3{fill:#FFC916;stroke:#000000;stroke-linecap:square;stroke-linejoin:round;}
	.st4{fill:#FFC815;stroke:#000000;stroke-linecap:square;stroke-linejoin:round;}
</style>
<title>Qt SVG Document</title>
<desc>Generated with Qt</desc>
<g transform="matrix(1,0,0,1,0,0)">
</g>
<g transform="matrix(1,0,0,1,0,0)">
</g>
<g transform="matrix(2,0,0,2,0.0044,1194)">
</g>
<g transform="matrix(2,0,0,2,0.0044,1194)">
</g>
<g transform="matrix(2,0,0,2,0.0044,1194)">
</g>
<g transform="matrix(2,0,0,2,0.0044,1194)">
</g>
<g transform="matrix(2,0,0,2,0.0044,1194)">
</g>
<g transform="matrix(2,0,0,2,0.0044,1194)">
</g>
<g transform="matrix(2,0,0,2,1155.01,382)">
</g>
<g transform="matrix(2,0,0,2,1155.01,382)">
</g>
<g transform="matrix(2,0,0,2,1155.01,382)">
</g>
<g transform="matrix(2,0,0,2,1155.01,382)">
</g>
<g transform="matrix(2,0,0,2,0.0044,1194)">
</g>
<g transform="matrix(2,0,0,2,0.0044,1194)">
</g>
<g transform="matrix(2,0,0,2,0.0044,1194)">
</g>
<g transform="matrix(2,0,0,2,0.0044,1194)">
	<ellipse class="st0" cx="589.1" cy="-540" rx="26.5" ry="17.5"/>
</g>
<g transform="matrix(2,0,0,2,0.0044,1194)">
</g>
<g transform="matrix(2,0,0,2,1929.78,128)">
</g>
<g transform="matrix(2,0,0,2,1929.78,128)">
</g>
<g transform="matrix(2,0,0,2,1929.78,128)">
	<path vector-effect="none" class="st1" d="M-382.4-7.7c0.2-0.5,0.5-0.9,0.9-1.1c0.4-0.2,0.8-0.4,1.4-0.4s0.9,0.2,1.3,0.5
		c0.3,0.4,0.5,1,0.5,2V-3h-0.5v-3.6c0-0.8-0.1-1.4-0.3-1.7s-0.5-0.4-0.9-0.4c-0.6,0-1,0.2-1.5,0.5c-0.5,0.4-0.7,1-0.7,1.8V-3h-0.5
		v-3.6c0-0.8-0.1-1.4-0.3-1.7c-0.2-0.3-0.5-0.5-0.9-0.5c-0.6,0-1,0.2-1.5,0.5c-0.5,0.4-0.7,1-0.7,1.8V-3h-0.5v-6h0.5v1.1
		c0.2-0.4,0.5-0.7,0.8-0.9c0.4-0.2,0.8-0.3,1.4-0.3c0.4,0,0.7,0.1,1,0.3C-382.8-8.6-382.6-8.3-382.4-7.7 M-373.6-6.4
		c-0.8,0-1.4,0.1-1.7,0.4c-0.3,0.3-0.5,0.7-0.5,1.2c0,0.5,0.1,0.9,0.4,1.1c0.3,0.2,0.6,0.3,1,0.3c0.8,0,1.3-0.3,1.6-1
		c0.3-0.6,0.5-1.3,0.5-1.8v-0.4H-373.6 M-371.8-6.4V-3h-0.5v-1.6c-0.3,0.8-0.6,1.3-1.1,1.5c-0.4,0.2-0.7,0.3-1.1,0.3
		c-0.6,0-1.1-0.2-1.4-0.5c-0.3-0.3-0.5-0.8-0.5-1.4s0.2-1.1,0.7-1.5c0.4-0.4,1.2-0.6,2.2-0.6h1.2v-0.1c0-0.5-0.2-1-0.5-1.3
		c-0.3-0.3-0.8-0.5-1.5-0.5c-0.3,0-0.7,0.1-1,0.2c-0.2,0.1-0.5,0.3-0.9,0.5v-0.5c0.3-0.2,0.6-0.3,0.9-0.4c0.4-0.1,0.8-0.2,1.1-0.2
		c0.7,0,1.3,0.2,1.8,0.6C-372-8.2-371.8-7.5-371.8-6.4 M-368.8-4.4v3.6h-0.5V-9h0.5v1.4c0.2-0.5,0.5-0.9,0.7-1.1
		c0.4-0.3,0.8-0.4,1.2-0.4c0.7,0,1.3,0.3,1.8,0.9c0.5,0.6,0.7,1.3,0.7,2.3s-0.2,1.7-0.7,2.3c-0.5,0.6-1.1,0.9-1.8,0.9
		c-0.4,0-0.8-0.2-1.2-0.5C-368.4-3.5-368.6-3.8-368.8-4.4 M-365.6-3.9C-365.2-4.3-365-5-365-6s-0.2-1.7-0.6-2.1
		c-0.4-0.4-0.9-0.6-1.3-0.6c-0.4,0-0.9,0.2-1.3,0.6c-0.4,0.4-0.6,1.1-0.6,2.1s0.2,1.7,0.6,2.1c0.4,0.4,0.8,0.6,1.3,0.6
		C-366.4-3.3-366-3.5-365.6-3.9"/>
</g>
<g transform="matrix(2,0,0,2,1929.78,128)">
</g>
<g transform="matrix(2,0,0,2,1929.78,128)">
</g>
<g transform="matrix(2,0,0,2,0.0044,1194)">
</g>
<g transform="matrix(2,0,0,2,0.0044,1194)">
</g>
<g transform="matrix(2,0,0,2,0.0044,1194)">
</g>
<g transform="matrix(2,0,0,2,0.0044,1194)">
	<ellipse class="st2" cx="604.1" cy="-39.5" rx="78.8" ry="17.5"/>
</g>
<g transform="matrix(2,0,0,2,0.0044,1194)">
</g>
<g transform="matrix(2,0,0,2,1592.89,1144)">
</g>
<g transform="matrix(2,0,0,2,1592.89,1144)">
</g>
<g transform="matrix(2,0,0,2,1592.89,1144)">
	<path vector-effect="none" class="st1" d="M-239.5-16.1c-0.1,0-0.2-0.1-0.3-0.1c-0.1,0-0.3,0-0.5,0c-0.6,0-1.1,0.2-1.5,0.7
		c-0.3,0.4-0.5,1-0.5,1.9v3.2h-0.5v-6h0.5v1.1c0.2-0.3,0.4-0.6,0.7-0.8c0.4-0.3,0.9-0.5,1.4-0.5c0.1,0,0.3,0,0.4,0
		c0.1,0,0.2,0,0.3,0V-16.1 M-238.3-16.5h0.5v6h-0.5V-16.5 M-238.3-18.9h0.5v0.7h-0.5V-18.9 M-231.2-13.6c0-0.8-0.2-1.5-0.5-1.9
		c-0.3-0.5-0.8-0.7-1.4-0.7c-0.6,0-1.1,0.2-1.4,0.7c-0.3,0.5-0.5,1.1-0.5,1.9c0,0.8,0.2,1.5,0.5,1.9c0.3,0.5,0.8,0.7,1.4,0.7
		c0.6,0,1.1-0.2,1.4-0.7C-231.4-12.1-231.2-12.7-231.2-13.6 M-230.7-11.2c0,1.3-0.2,2.1-0.7,2.5c-0.5,0.4-1.1,0.6-1.8,0.6
		c-0.4,0-0.7,0-1-0.1c-0.3-0.1-0.6-0.1-0.9-0.3v-0.6c0.3,0.2,0.6,0.3,0.9,0.4c0.3,0.1,0.6,0.1,0.9,0.1c0.6,0,1.1-0.1,1.5-0.4
		c0.4-0.3,0.6-0.9,0.6-2.1v-1c-0.2,0.4-0.4,0.7-0.6,1c-0.4,0.4-0.8,0.5-1.3,0.5c-0.8,0-1.4-0.3-1.8-0.8c-0.4-0.5-0.6-1.3-0.6-2.3
		c0-1,0.2-1.7,0.6-2.3c0.4-0.5,1-0.8,1.8-0.8c0.5,0,0.9,0.2,1.3,0.5c0.3,0.2,0.5,0.6,0.7,1v-1.3h0.5V-11.2 M-224.1-14.1v3.6h-0.5
		v-3.6c0-0.8-0.1-1.3-0.4-1.6c-0.3-0.3-0.7-0.5-1.2-0.5c-0.6,0-1.1,0.2-1.5,0.5c-0.4,0.4-0.5,0.9-0.5,1.8v3.4h-0.5v-8.4h0.5v3.5
		c0.1-0.3,0.3-0.6,0.6-0.8c0.3-0.3,0.8-0.4,1.5-0.4c0.6,0,1.1,0.2,1.4,0.6C-224.2-15.6-224.1-15-224.1-14.1 M-221.1-18.2v1.7h2v0.4
		h-2v3.6c0,0.5,0.1,0.8,0.2,1c0.3,0.4,0.6,0.6,1.1,0.6h0.8v0.4h-0.8c-0.5,0-0.9-0.1-1.3-0.4c-0.3-0.3-0.5-0.8-0.5-1.6v-3.6h-0.7
		v-0.4h0.7v-1.7H-221.1 M-213-8.3v0.4h-5.7v-0.4H-213 M-208.2-15.5c-0.4-0.5-0.8-0.7-1.5-0.7c-0.6,0-1.1,0.2-1.5,0.7
		c-0.4,0.5-0.5,1.1-0.5,2c0,0.9,0.2,1.5,0.5,2c0.4,0.5,0.8,0.7,1.5,0.7c0.6,0,1.1-0.2,1.5-0.7c0.4-0.5,0.5-1.2,0.5-2
		C-207.7-14.3-207.9-15-208.2-15.5 M-209.7-16.7c0.8,0,1.4,0.3,1.8,0.9c0.4,0.6,0.7,1.3,0.7,2.3c0,1-0.2,1.8-0.7,2.3
		c-0.4,0.6-1.1,0.9-1.8,0.9c-0.8,0-1.4-0.3-1.8-0.9c-0.4-0.6-0.7-1.4-0.7-2.3c0-1,0.2-1.7,0.7-2.3
		C-211.1-16.4-210.5-16.7-209.7-16.7 M-201.7-16.3v0.5c-0.4-0.2-0.6-0.3-0.7-0.3c-0.3-0.1-0.6-0.1-0.9-0.1c-0.6,0-1,0.1-1.3,0.3
		c-0.3,0.2-0.4,0.5-0.4,1c0,0.3,0.1,0.6,0.4,0.7c0.2,0.2,0.6,0.3,1,0.4l0.3,0.1c0.6,0.1,1,0.3,1.3,0.5c0.3,0.3,0.5,0.6,0.5,1
		c0,0.6-0.2,1-0.5,1.3c-0.4,0.3-0.9,0.5-1.7,0.5c-0.4,0-0.8,0-1-0.1c-0.3-0.1-0.6-0.2-0.9-0.3v-0.6c0.4,0.3,0.7,0.4,0.8,0.4
		c0.4,0.1,0.7,0.1,1.1,0.1c0.6,0,1-0.1,1.3-0.4c0.3-0.3,0.4-0.6,0.4-1c0-0.3-0.1-0.6-0.3-0.7c-0.3-0.2-0.7-0.4-1.3-0.5l-0.3-0.1
		c-0.5-0.1-0.9-0.3-1.2-0.5c-0.3-0.3-0.5-0.6-0.5-1c0-0.6,0.2-1.1,0.6-1.4c0.4-0.3,0.9-0.4,1.5-0.4c0.5,0,0.8,0,1,0.1
		C-202.1-16.5-201.9-16.4-201.7-16.3 M-199-10.9h1.8V-18l-2.2,0.9v-0.5l2.2-0.9h0.5v7.6h1.8v0.4h-4.1V-10.9 M-190.7-18.5h0.6l-2.8,9
		h-0.6L-190.7-18.5 M-185.1-15.5c-0.4-0.5-0.8-0.7-1.5-0.7c-0.6,0-1.1,0.2-1.5,0.7c-0.4,0.5-0.5,1.1-0.5,2c0,0.9,0.2,1.5,0.5,2
		c0.4,0.5,0.8,0.7,1.5,0.7c0.6,0,1.1-0.2,1.5-0.7c0.4-0.5,0.5-1.2,0.5-2C-184.6-14.3-184.8-15-185.1-15.5 M-186.6-16.7
		c0.8,0,1.4,0.3,1.8,0.9c0.4,0.6,0.7,1.3,0.7,2.3c0,1-0.2,1.8-0.7,2.3c-0.4,0.6-1.1,0.9-1.8,0.9c-0.8,0-1.4-0.3-1.8-0.9
		c-0.4-0.6-0.7-1.4-0.7-2.3c0-1,0.2-1.7,0.7-2.3C-187.9-16.4-187.3-16.7-186.6-16.7 M-178.6-16.3v0.5c-0.4-0.2-0.6-0.3-0.7-0.3
		c-0.3-0.1-0.6-0.1-0.9-0.1c-0.6,0-1,0.1-1.3,0.3c-0.3,0.2-0.4,0.5-0.4,1c0,0.3,0.1,0.6,0.4,0.7c0.2,0.2,0.6,0.3,1,0.4l0.3,0.1
		c0.6,0.1,1,0.3,1.3,0.5c0.3,0.3,0.5,0.6,0.5,1c0,0.6-0.2,1-0.5,1.3c-0.4,0.3-0.9,0.5-1.7,0.5c-0.4,0-0.8,0-1-0.1
		c-0.3-0.1-0.6-0.2-0.9-0.3v-0.6c0.4,0.3,0.7,0.4,0.8,0.4c0.4,0.1,0.7,0.1,1.1,0.1c0.6,0,1-0.1,1.3-0.4c0.3-0.3,0.4-0.6,0.4-1
		c0-0.3-0.1-0.6-0.3-0.7c-0.3-0.2-0.7-0.4-1.3-0.5l-0.3-0.1c-0.5-0.1-0.9-0.3-1.2-0.5c-0.3-0.3-0.5-0.6-0.5-1c0-0.6,0.2-1.1,0.6-1.4
		c0.4-0.3,0.9-0.4,1.5-0.4c0.5,0,0.8,0,1,0.1C-179-16.5-178.8-16.4-178.6-16.3 M-175.9-10.9h1.8V-18l-2.2,0.9v-0.5l2.2-0.9h0.5v7.6
		h1.8v0.4h-4.1V-10.9 M-164.9-8.3v0.4h-5.7v-0.4H-164.9 M-163.8-18.9h0.5v8.4h-0.5V-18.9 M-160.7-16.5h0.5v6h-0.5V-16.5
		 M-160.7-18.9h0.5v0.7h-0.5V-18.9 M-153.7-15.1v-3.7h0.5v8.4h-0.5v-1.4c-0.2,0.5-0.5,0.9-0.8,1.1c-0.4,0.3-0.8,0.5-1.1,0.5
		c-0.7,0-1.3-0.3-1.8-0.9c-0.5-0.6-0.7-1.3-0.7-2.3s0.2-1.7,0.7-2.3c0.5-0.6,1.1-0.9,1.8-0.9c0.4,0,0.7,0.1,1.1,0.4
		C-154.2-16-153.9-15.7-153.7-15.1 M-156.9-15.6c-0.4,0.4-0.6,1.1-0.6,2.1s0.2,1.7,0.6,2.1c0.4,0.4,0.9,0.6,1.3,0.6
		c0.4,0,0.9-0.2,1.3-0.6c0.4-0.4,0.6-1.1,0.6-2.1s-0.2-1.7-0.6-2.1c-0.4-0.4-0.8-0.6-1.3-0.6C-156.1-16.2-156.5-16-156.9-15.6
		 M-148.3-13.9c-0.8,0-1.4,0.1-1.7,0.4c-0.3,0.3-0.5,0.7-0.5,1.2c0,0.5,0.1,0.9,0.4,1.1c0.3,0.2,0.6,0.3,1,0.3c0.8,0,1.3-0.3,1.6-1
		c0.3-0.6,0.5-1.3,0.5-1.8v-0.4H-148.3 M-146.5-13.9v3.4h-0.5v-1.6c-0.3,0.8-0.6,1.3-1.1,1.5c-0.4,0.2-0.7,0.3-1.1,0.3
		c-0.6,0-1.1-0.2-1.4-0.5c-0.3-0.3-0.5-0.8-0.5-1.4s0.2-1.1,0.7-1.5c0.4-0.4,1.2-0.6,2.2-0.6h1.2v-0.1c0-0.5-0.2-1-0.5-1.3
		c-0.3-0.3-0.8-0.5-1.5-0.5c-0.3,0-0.7,0.1-1,0.2c-0.2,0.1-0.5,0.2-0.9,0.5v-0.5c0.3-0.2,0.6-0.3,0.9-0.4c0.4-0.1,0.8-0.2,1.1-0.2
		c0.7,0,1.3,0.2,1.8,0.6C-146.7-15.7-146.5-15-146.5-13.9 M-140.7-16.1c-0.1,0-0.2-0.1-0.3-0.1c-0.1,0-0.3,0-0.5,0
		c-0.6,0-1.1,0.2-1.5,0.7c-0.3,0.4-0.5,1-0.5,1.9v3.2h-0.5v-6h0.5v1.1c0.2-0.3,0.4-0.6,0.7-0.8c0.4-0.3,0.9-0.5,1.4-0.5
		c0.1,0,0.3,0,0.4,0c0.1,0,0.2,0,0.3,0V-16.1"/>
</g>
<g transform="matrix(2,0,0,2,1592.89,1144)">
</g>
<g transform="matrix(2,0,0,2,1592.89,1144)">
</g>
<g transform="matrix(2,0,0,2,0.0044,1194)">
</g>
<g transform="matrix(2,0,0,2,0.0044,1194)">
</g>
<g transform="matrix(2,0,0,2,0.0044,1194)">
</g>
<g transform="matrix(2,0,0,2,0.0044,1194)">
	<ellipse class="st2" cx="664.1" cy="-125.3" rx="58.6" ry="17.5"/>
</g>
<g transform="matrix(2,0,0,2,0.0044,1194)">
</g>
<g transform="matrix(2,0,0,2,1622.47,890)">
</g>
<g transform="matrix(2,0,0,2,1622.47,890)">
</g>
<g transform="matrix(2,0,0,2,1622.47,890)">
	<path vector-effect="none" class="st1" d="M-183.3,24.7h0.5l2,5.5l2-5.5h0.5l-2.2,6h-0.6L-183.3,24.7 M-171.6,27.5v0.3h-4.6
		c0,1,0.2,1.6,0.6,2c0.4,0.4,1,0.6,1.8,0.6c0.2,0,0.5,0,0.9-0.1c0.4-0.1,0.7-0.2,1.1-0.4v0.5c-0.4,0.2-0.7,0.3-1.1,0.4
		c-0.4,0.1-0.7,0.1-0.9,0.1c-0.9,0-1.6-0.3-2.1-0.8c-0.5-0.5-0.8-1.3-0.8-2.3c0-1.1,0.2-1.9,0.7-2.4c0.5-0.5,1.1-0.8,2-0.8
		c0.8,0,1.4,0.3,1.8,0.8C-171.8,25.9-171.6,26.6-171.6,27.5 M-172.1,27.4c0-0.8-0.2-1.5-0.6-1.8c-0.3-0.3-0.7-0.5-1.3-0.5
		c-0.6,0-1.1,0.2-1.5,0.5c-0.4,0.3-0.6,0.9-0.7,1.8H-172.1 M-169.5,22.4h0.5v8.4h-0.5V22.4 M-162.9,25.8c-0.4-0.5-0.8-0.7-1.5-0.7
		c-0.6,0-1.1,0.2-1.5,0.7c-0.4,0.5-0.5,1.1-0.5,2c0,0.9,0.2,1.5,0.5,2c0.4,0.5,0.8,0.7,1.5,0.7c0.6,0,1.1-0.2,1.5-0.7
		c0.4-0.5,0.5-1.2,0.5-2C-162.3,26.9-162.5,26.3-162.9,25.8 M-164.3,24.6c0.8,0,1.4,0.3,1.8,0.9c0.4,0.6,0.7,1.3,0.7,2.3
		c0,1-0.2,1.8-0.7,2.3c-0.4,0.6-1.1,0.9-1.8,0.9c-0.8,0-1.4-0.3-1.8-0.9c-0.4-0.6-0.7-1.4-0.7-2.3c0-1,0.2-1.7,0.7-2.3
		C-165.7,24.9-165.1,24.6-164.3,24.6 M-155.7,26.1v-3.7h0.5v8.4h-0.5v-1.4c-0.2,0.5-0.5,0.9-0.8,1.1c-0.4,0.3-0.8,0.5-1.1,0.5
		c-0.7,0-1.3-0.3-1.8-0.9c-0.5-0.6-0.7-1.3-0.7-2.3s0.2-1.7,0.7-2.3c0.5-0.6,1.1-0.9,1.8-0.9c0.4,0,0.7,0.1,1.1,0.4
		C-156.2,25.2-156,25.6-155.7,26.1 M-159,25.7c-0.4,0.4-0.6,1.1-0.6,2.1s0.2,1.7,0.6,2.1c0.4,0.4,0.9,0.6,1.3,0.6
		c0.4,0,0.9-0.2,1.3-0.6c0.4-0.4,0.6-1.1,0.6-2.1s-0.2-1.7-0.6-2.1c-0.4-0.4-0.8-0.6-1.3-0.6C-158.1,25-158.5,25.2-159,25.7
		 M-150.7,31.3c-0.2,0.5-0.5,0.9-0.7,1.1c-0.3,0.3-0.7,0.4-1,0.4h-0.7v-0.4h0.6c0.3,0,0.5-0.1,0.7-0.3c0.3-0.2,0.5-0.5,0.6-1
		l0.2-0.5l-2.4-6h0.5l2.1,5.4l2.1-5.4h0.5L-150.7,31.3 M-141.7,27.1v3.6h-0.5v-3.6c0-0.8-0.1-1.3-0.4-1.6c-0.3-0.3-0.6-0.5-1.1-0.5
		c-0.6,0-1.1,0.2-1.5,0.5c-0.4,0.3-0.6,0.9-0.6,1.8v3.4h-0.5v-6h0.5v1.1c0.2-0.4,0.4-0.6,0.7-0.8c0.4-0.3,0.9-0.4,1.4-0.4
		c0.6,0,1.1,0.2,1.4,0.6C-141.9,25.6-141.7,26.2-141.7,27.1 M-134.6,27.5v0.3h-4.6c0,1,0.2,1.6,0.6,2c0.4,0.4,1,0.6,1.8,0.6
		c0.2,0,0.5,0,0.9-0.1c0.4-0.1,0.7-0.2,1.1-0.4v0.5c-0.4,0.2-0.7,0.3-1.1,0.4c-0.4,0.1-0.7,0.1-0.9,0.1c-0.9,0-1.6-0.3-2.1-0.8
		c-0.5-0.5-0.8-1.3-0.8-2.3c0-1.1,0.2-1.9,0.7-2.4c0.5-0.5,1.1-0.8,2-0.8c0.8,0,1.4,0.3,1.8,0.8C-134.8,25.9-134.6,26.6-134.6,27.5
		 M-135.1,27.4c0-0.8-0.2-1.5-0.6-1.8c-0.3-0.3-0.7-0.5-1.3-0.5c-0.6,0-1.1,0.2-1.5,0.5c-0.4,0.3-0.6,0.9-0.7,1.8H-135.1
		 M-128.2,32.9v0.4h-5.7v-0.4H-128.2 M-127,22.4h0.5v8.4h-0.5V22.4 M-119.3,27.5v0.3h-4.6c0,1,0.2,1.6,0.6,2c0.4,0.4,1,0.6,1.8,0.6
		c0.2,0,0.5,0,0.9-0.1c0.4-0.1,0.7-0.2,1.1-0.4v0.5c-0.4,0.2-0.7,0.3-1.1,0.4c-0.4,0.1-0.7,0.1-0.9,0.1c-0.9,0-1.6-0.3-2.1-0.8
		c-0.5-0.5-0.8-1.3-0.8-2.3c0-1.1,0.2-1.9,0.7-2.4c0.5-0.5,1.1-0.8,2-0.8c0.8,0,1.4,0.3,1.8,0.8C-119.5,25.9-119.3,26.6-119.3,27.5
		 M-119.8,27.4c0-0.8-0.2-1.5-0.6-1.8c-0.3-0.3-0.7-0.5-1.3-0.5c-0.6,0-1.1,0.2-1.5,0.5c-0.4,0.3-0.6,0.9-0.7,1.8H-119.8
		 M-114.6,22.4v0.4h-0.7c-0.4,0-0.6,0.1-0.8,0.3c-0.2,0.2-0.4,0.6-0.4,1.1v0.5h1.6v0.4h-1.6v5.6h-0.5v-5.6h-0.9v-0.4h0.9v-0.4
		c0-0.7,0.2-1.2,0.5-1.5c0.3-0.3,0.7-0.5,1.2-0.5H-114.6 M-112.8,23v1.7h2v0.4h-2v3.6c0,0.5,0.1,0.8,0.2,1c0.3,0.4,0.6,0.6,1.1,0.6
		h0.8v0.4h-0.8c-0.5,0-0.9-0.1-1.3-0.4c-0.3-0.3-0.5-0.8-0.5-1.6v-3.6h-0.7v-0.4h0.7V23H-112.8"/>
</g>
<g transform="matrix(2,0,0,2,1622.47,890)">
</g>
<g transform="matrix(2,0,0,2,1622.47,890)">
</g>
<g transform="matrix(2,0,0,2,0.0044,1194)">
</g>
<g transform="matrix(2,0,0,2,0.0044,1194)">
</g>
<g transform="matrix(2,0,0,2,0.0044,1194)">
</g>
<g transform="matrix(2,0,0,2,0.0044,1194)">
	<ellipse class="st2" cx="718.1" cy="-159" rx="26.8" ry="17.5"/>
</g>
<g transform="matrix(2,0,0,2,0.0044,1194)">
</g>
<g transform="matrix(2,0,0,2,2185.42,890)">
</g>
<g transform="matrix(2,0,0,2,2185.42,890)">
</g>
<g transform="matrix(2,0,0,2,2185.42,890)">
	<path vector-effect="none" class="st1" d="M-386.8-11.4h0.5V-3h-0.5V-11.4 M-381.3-6.4c-0.8,0-1.4,0.1-1.7,0.4s-0.5,0.7-0.5,1.2
		c0,0.5,0.1,0.9,0.4,1.1c0.3,0.2,0.6,0.3,1,0.3c0.8,0,1.3-0.3,1.6-1c0.3-0.6,0.5-1.3,0.5-1.8v-0.4H-381.3 M-379.5-6.4V-3h-0.5v-1.6
		c-0.3,0.8-0.6,1.3-1.1,1.5c-0.4,0.2-0.7,0.3-1.1,0.3c-0.6,0-1.1-0.2-1.4-0.5s-0.5-0.8-0.5-1.4s0.2-1.1,0.7-1.5s1.2-0.6,2.2-0.6h1.2
		v-0.1c0-0.5-0.2-1-0.5-1.3c-0.3-0.3-0.8-0.5-1.5-0.5c-0.3,0-0.7,0.1-1,0.2c-0.2,0.1-0.5,0.3-0.9,0.5v-0.5c0.3-0.2,0.6-0.3,0.9-0.4
		c0.4-0.1,0.8-0.2,1.1-0.2c0.7,0,1.3,0.2,1.8,0.6C-379.7-8.2-379.5-7.5-379.5-6.4 M-373.6-8.8v0.5c-0.4-0.2-0.6-0.3-0.7-0.3
		c-0.3-0.1-0.6-0.1-0.9-0.1c-0.6,0-1,0.1-1.3,0.3c-0.3,0.2-0.4,0.5-0.4,1c0,0.3,0.1,0.6,0.4,0.7c0.2,0.2,0.6,0.3,1,0.4l0.3,0.1
		c0.6,0.1,1,0.3,1.3,0.5c0.3,0.3,0.5,0.6,0.5,1c0,0.6-0.2,1-0.5,1.3c-0.4,0.3-0.9,0.5-1.7,0.5c-0.4,0-0.8,0-1-0.1
		c-0.3-0.1-0.6-0.2-0.9-0.3v-0.6c0.4,0.3,0.7,0.4,0.8,0.4c0.4,0.1,0.7,0.1,1.1,0.1c0.6,0,1-0.1,1.3-0.4c0.3-0.3,0.4-0.6,0.4-1
		c0-0.3-0.1-0.6-0.3-0.7c-0.3-0.2-0.7-0.4-1.3-0.5l-0.3-0.1c-0.5-0.1-0.9-0.3-1.2-0.5c-0.3-0.3-0.5-0.6-0.5-1c0-0.6,0.2-1.1,0.6-1.4
		c0.4-0.3,0.9-0.4,1.5-0.4c0.5,0,0.8,0,1,0.1C-374-9-373.8-8.9-373.6-8.8 M-366.6-6.3v0.3h-4.6c0,1,0.2,1.6,0.6,2
		c0.4,0.4,1,0.6,1.8,0.6c0.2,0,0.5,0,0.9-0.1c0.4-0.1,0.7-0.2,1.1-0.4v0.5c-0.4,0.2-0.7,0.3-1.1,0.4c-0.4,0.1-0.7,0.1-0.9,0.1
		c-0.9,0-1.6-0.3-2.1-0.8c-0.5-0.5-0.8-1.3-0.8-2.3c0-1.1,0.2-1.9,0.7-2.4c0.5-0.5,1.1-0.8,2-0.8c0.8,0,1.4,0.3,1.8,0.8
		C-366.8-7.8-366.6-7.1-366.6-6.3 M-367.1-6.4c0-0.8-0.2-1.5-0.6-1.8c-0.3-0.3-0.7-0.5-1.3-0.5c-0.6,0-1.1,0.2-1.5,0.5
		c-0.4,0.3-0.6,0.9-0.7,1.8H-367.1 M-361.2-8.6c-0.1,0-0.2-0.1-0.3-0.1c-0.1,0-0.3,0-0.5,0c-0.6,0-1.1,0.2-1.5,0.7
		c-0.3,0.4-0.5,1-0.5,1.9V-3h-0.5v-6h0.5v1.1c0.2-0.3,0.4-0.6,0.7-0.8c0.4-0.3,0.9-0.5,1.4-0.5c0.1,0,0.3,0,0.4,0c0.1,0,0.2,0,0.3,0
		V-8.6"/>
</g>
<g transform="matrix(2,0,0,2,2185.42,890)">
</g>
<g transform="matrix(2,0,0,2,2185.42,890)">
</g>
<g transform="matrix(2,0,0,2,0.0044,1194)">
</g>
<g transform="matrix(2,0,0,2,0.0044,1194)">
</g>
<g transform="matrix(2,0,0,2,0.0044,1194)">
</g>
<g transform="matrix(2,0,0,2,0.0044,1194)">
</g>
<g transform="matrix(2,0,0,2,98.2373,890)">
</g>
<g transform="matrix(2,0,0,2,98.2373,890)">
</g>
<g transform="matrix(2,0,0,2,98.2373,890)">
</g>
<g transform="matrix(2,0,0,2,98.2373,890)">
</g>
<g transform="matrix(2,0,0,2,0.0044,1194)">
</g>
<g transform="matrix(2,0,0,2,0.0044,1194)">
</g>
<g transform="matrix(2,0,0,2,0.0044,1194)">
</g>
<g transform="matrix(2,0,0,2,0.0044,1194)">
	<ellipse class="st2" cx="256.5" cy="-38" rx="71.6" ry="17.5"/>
</g>
<g transform="matrix(2,0,0,2,0.0044,1194)">
</g>
<g transform="matrix(2,0,0,2,571.934,1144)">
</g>
<g transform="matrix(2,0,0,2,571.934,1144)">
</g>
<g transform="matrix(2,0,0,2,571.934,1144)">
	<path vector-effect="none" class="st1" d="M-74.3-17.4h0.5V-9h-0.5V-17.4 M-66.6-12.3v0.3h-4.6c0,1,0.2,1.6,0.6,2
		c0.4,0.4,1,0.6,1.8,0.6c0.2,0,0.5,0,0.9-0.1c0.4-0.1,0.7-0.2,1.1-0.4v0.5C-67.2-9.2-67.6-9-67.9-9c-0.4,0.1-0.7,0.1-0.9,0.1
		c-0.9,0-1.6-0.3-2.1-0.8c-0.5-0.5-0.8-1.3-0.8-2.3c0-1.1,0.2-1.9,0.7-2.4c0.5-0.5,1.1-0.8,2-0.8c0.8,0,1.4,0.3,1.8,0.8
		C-66.8-13.8-66.6-13.1-66.6-12.3 M-67.1-12.4c0-0.8-0.2-1.5-0.6-1.8c-0.3-0.3-0.7-0.5-1.3-0.5c-0.6,0-1.1,0.2-1.5,0.5
		c-0.4,0.3-0.6,0.9-0.7,1.8H-67.1 M-62-17.4v0.4h-0.7c-0.4,0-0.6,0.1-0.8,0.3c-0.2,0.2-0.4,0.6-0.4,1.1v0.5h1.6v0.4h-1.6V-9h-0.5
		v-5.6h-0.9V-15h0.9v-0.4c0-0.7,0.2-1.2,0.5-1.5c0.3-0.3,0.7-0.5,1.2-0.5H-62 M-60.2-16.7v1.7h2v0.4h-2v3.6c0,0.5,0.1,0.8,0.2,1
		c0.3,0.4,0.6,0.6,1.1,0.6h0.8V-9h-0.8c-0.5,0-0.9-0.1-1.3-0.4c-0.3-0.3-0.5-0.8-0.5-1.6v-3.6h-0.7V-15h0.7v-1.7H-60.2 M-52-6.8v0.4
		h-5.7v-0.4H-52 M-47.3-14c-0.4-0.5-0.8-0.7-1.5-0.7s-1.1,0.2-1.5,0.7c-0.4,0.5-0.5,1.1-0.5,2c0,0.9,0.2,1.5,0.5,2
		c0.4,0.5,0.8,0.7,1.5,0.7s1.1-0.2,1.5-0.7c0.4-0.5,0.5-1.2,0.5-2C-46.7-12.8-46.9-13.5-47.3-14 M-48.7-15.2c0.8,0,1.4,0.3,1.8,0.9
		c0.4,0.6,0.7,1.3,0.7,2.3c0,1-0.2,1.8-0.7,2.3c-0.4,0.6-1.1,0.9-1.8,0.9c-0.8,0-1.4-0.3-1.8-0.9c-0.4-0.6-0.7-1.4-0.7-2.3
		c0-1,0.2-1.7,0.7-2.3C-50.1-14.9-49.5-15.2-48.7-15.2 M-40.7-14.8v0.5c-0.4-0.2-0.6-0.3-0.7-0.3c-0.3-0.1-0.6-0.1-0.9-0.1
		c-0.6,0-1,0.1-1.3,0.3c-0.3,0.2-0.4,0.5-0.4,1c0,0.3,0.1,0.6,0.4,0.7c0.2,0.2,0.6,0.3,1,0.4l0.3,0.1c0.6,0.1,1,0.3,1.3,0.5
		c0.3,0.3,0.5,0.6,0.5,1c0,0.6-0.2,1-0.5,1.3c-0.4,0.3-0.9,0.5-1.7,0.5c-0.4,0-0.8,0-1-0.1C-44-9-44.3-9.1-44.6-9.2v-0.6
		c0.4,0.3,0.7,0.4,0.8,0.4c0.4,0.1,0.7,0.1,1.1,0.1c0.6,0,1-0.1,1.3-0.4c0.3-0.3,0.4-0.6,0.4-1c0-0.3-0.1-0.6-0.3-0.7
		c-0.3-0.2-0.7-0.4-1.3-0.5l-0.3-0.1c-0.5-0.1-0.9-0.3-1.2-0.5c-0.3-0.3-0.5-0.6-0.5-1c0-0.6,0.2-1.1,0.6-1.4
		c0.4-0.3,0.9-0.4,1.5-0.4c0.5,0,0.8,0,1,0.1C-41.2-15-41-14.9-40.7-14.8 M-38-9.4h1.8v-7.1l-2.2,0.9v-0.5l2.2-0.9h0.5v7.6h1.8V-9
		H-38V-9.4 M-29.7-17h0.6L-32-8h-0.6L-29.7-17 M-24.2-14c-0.4-0.5-0.8-0.7-1.5-0.7c-0.6,0-1.1,0.2-1.5,0.7c-0.4,0.5-0.5,1.1-0.5,2
		c0,0.9,0.2,1.5,0.5,2c0.4,0.5,0.8,0.7,1.5,0.7c0.6,0,1.1-0.2,1.5-0.7c0.4-0.5,0.5-1.2,0.5-2C-23.6-12.8-23.8-13.5-24.2-14
		 M-25.6-15.2c0.8,0,1.4,0.3,1.8,0.9c0.4,0.6,0.7,1.3,0.7,2.3c0,1-0.2,1.8-0.7,2.3c-0.4,0.6-1.1,0.9-1.8,0.9c-0.8,0-1.4-0.3-1.8-0.9
		c-0.4-0.6-0.7-1.4-0.7-2.3c0-1,0.2-1.7,0.7-2.3C-27-14.9-26.4-15.2-25.6-15.2 M-17.6-14.8v0.5c-0.4-0.2-0.6-0.3-0.7-0.3
		c-0.3-0.1-0.6-0.1-0.9-0.1c-0.6,0-1,0.1-1.3,0.3c-0.3,0.2-0.4,0.5-0.4,1c0,0.3,0.1,0.6,0.4,0.7c0.2,0.2,0.6,0.3,1,0.4l0.3,0.1
		c0.6,0.1,1,0.3,1.3,0.5c0.3,0.3,0.5,0.6,0.5,1c0,0.6-0.2,1-0.5,1.3c-0.4,0.3-0.9,0.5-1.7,0.5c-0.4,0-0.8,0-1-0.1
		c-0.3-0.1-0.6-0.2-0.9-0.3v-0.6c0.4,0.3,0.7,0.4,0.8,0.4c0.4,0.1,0.7,0.1,1.1,0.1c0.6,0,1-0.1,1.3-0.4c0.3-0.3,0.4-0.6,0.4-1
		c0-0.3-0.1-0.6-0.3-0.7c-0.3-0.2-0.7-0.4-1.3-0.5l-0.3-0.1c-0.5-0.1-0.9-0.3-1.2-0.5c-0.3-0.3-0.5-0.6-0.5-1c0-0.6,0.2-1.1,0.6-1.4
		c0.4-0.3,0.9-0.4,1.5-0.4c0.5,0,0.8,0,1,0.1C-18.1-15-17.8-14.9-17.6-14.8 M-14.9-9.4h1.8v-7.1l-2.2,0.9v-0.5l2.2-0.9h0.5v7.6h1.8
		V-9h-4.1V-9.4 M-4-6.8v0.4h-5.7v-0.4H-4 M-2.8-15h0.5v6h-0.5V-15 M-2.8-17.4h0.5v0.7h-0.5V-17.4 M4.6-13.7c0.2-0.5,0.5-0.9,0.9-1.1
		c0.4-0.2,0.8-0.4,1.4-0.4c0.5,0,0.9,0.2,1.3,0.5c0.3,0.4,0.5,1,0.5,2V-9H8v-3.6c0-0.8-0.1-1.4-0.3-1.7c-0.2-0.3-0.5-0.4-0.9-0.4
		c-0.6,0-1,0.2-1.5,0.5c-0.5,0.4-0.7,1-0.7,1.8V-9H4.1v-3.6c0-0.8-0.1-1.4-0.3-1.7c-0.2-0.3-0.5-0.5-0.9-0.5c-0.6,0-1,0.2-1.5,0.5
		c-0.5,0.4-0.7,1-0.7,1.8V-9H0.2v-6h0.5v1.1c0.2-0.4,0.5-0.7,0.8-0.9c0.4-0.2,0.8-0.3,1.4-0.3c0.4,0,0.7,0.1,1,0.3
		C4.2-14.6,4.4-14.3,4.6-13.7 M10.9-11.4V-15h0.5v3.6c0,0.8,0.1,1.3,0.4,1.6c0.3,0.3,0.6,0.5,1.1,0.5c0.6,0,1.1-0.2,1.5-0.5
		c0.4-0.3,0.6-0.9,0.6-1.8V-15h0.5v6h-0.5v-1.1c-0.2,0.4-0.4,0.6-0.7,0.8c-0.4,0.3-0.9,0.4-1.4,0.4c-0.6,0-1.1-0.2-1.4-0.6
		C11.1-9.9,10.9-10.5,10.9-11.4"/>
</g>
<g transform="matrix(2,0,0,2,571.934,1144)">
</g>
<g transform="matrix(2,0,0,2,571.934,1144)">
</g>
<g transform="matrix(2,0,0,2,0.0044,1194)">
</g>
<g transform="matrix(2,0,0,2,0.0044,1194)">
</g>
<g transform="matrix(2,0,0,2,0.0044,1194)">
</g>
<g transform="matrix(2,0,0,2,0.0044,1194)">
</g>
<g transform="matrix(2,0,0,2,4242.36,890)">
</g>
<g transform="matrix(2,0,0,2,4242.36,890)">
</g>
<g transform="matrix(2,0,0,2,4242.36,890)">
</g>
<g transform="matrix(2,0,0,2,4242.36,890)">
</g>
<g transform="matrix(2,0,0,2,0.0044,1194)">
</g>
<g transform="matrix(2,0,0,2,0.0044,1194)">
</g>
<g transform="matrix(2,0,0,2,0.0044,1194)">
</g>
<g transform="matrix(2,0,0,2,0.0044,1194)">
	<ellipse class="st0" cx="718.1" cy="-286" rx="43.7" ry="17.5"/>
</g>
<g transform="matrix(2,0,0,2,0.0044,1194)">
</g>
<g transform="matrix(2,0,0,2,2160.1,636)">
</g>
<g transform="matrix(2,0,0,2,2160.1,636)">
</g>
<g transform="matrix(2,0,0,2,2160.1,636)">
	<path vector-effect="none" class="st1" d="M-383-3.9c0.4-0.4,0.6-1.1,0.6-2.1s-0.2-1.7-0.6-2.1s-0.9-0.6-1.3-0.6
		c-0.4,0-0.9,0.2-1.3,0.6c-0.4,0.4-0.6,1.1-0.6,2.1s0.2,1.7,0.6,2.1c0.4,0.4,0.8,0.6,1.3,0.6C-383.9-3.3-383.4-3.5-383-3.9
		 M-386.3-7.6c0.2-0.5,0.5-0.9,0.7-1.1c0.4-0.3,0.8-0.4,1.2-0.4c0.7,0,1.3,0.3,1.8,0.9c0.5,0.6,0.7,1.3,0.7,2.3s-0.2,1.7-0.7,2.3
		c-0.5,0.6-1.1,0.9-1.8,0.9c-0.4,0-0.8-0.2-1.2-0.5c-0.3-0.2-0.5-0.5-0.7-1.1V-3h-0.5v-8.4h0.5V-7.6 M-377.4-6.4
		c-0.8,0-1.4,0.1-1.7,0.4s-0.5,0.7-0.5,1.2c0,0.5,0.1,0.9,0.4,1.1c0.3,0.2,0.6,0.3,1,0.3c0.8,0,1.3-0.3,1.6-1
		c0.3-0.6,0.5-1.3,0.5-1.8v-0.4H-377.4 M-375.5-6.4V-3h-0.5v-1.6c-0.3,0.8-0.6,1.3-1.1,1.5c-0.4,0.2-0.7,0.3-1.1,0.3
		c-0.6,0-1.1-0.2-1.4-0.5s-0.5-0.8-0.5-1.4s0.2-1.1,0.7-1.5s1.2-0.6,2.2-0.6h1.2v-0.1c0-0.5-0.2-1-0.5-1.3c-0.3-0.3-0.8-0.5-1.5-0.5
		c-0.3,0-0.7,0.1-1,0.2c-0.2,0.1-0.5,0.3-0.9,0.5v-0.5c0.3-0.2,0.6-0.3,0.9-0.4c0.4-0.1,0.8-0.2,1.1-0.2c0.7,0,1.3,0.2,1.8,0.6
		C-375.7-8.2-375.5-7.5-375.5-6.4 M-369.6-8.8v0.5c-0.4-0.2-0.6-0.3-0.7-0.3c-0.3-0.1-0.6-0.1-0.9-0.1c-0.6,0-1,0.1-1.3,0.3
		c-0.3,0.2-0.4,0.5-0.4,1c0,0.3,0.1,0.6,0.4,0.7c0.2,0.2,0.6,0.3,1,0.4l0.3,0.1c0.6,0.1,1,0.3,1.3,0.5c0.3,0.3,0.5,0.6,0.5,1
		c0,0.6-0.2,1-0.5,1.3c-0.4,0.3-0.9,0.5-1.7,0.5c-0.4,0-0.8,0-1-0.1c-0.3-0.1-0.6-0.2-0.9-0.3v-0.6c0.4,0.3,0.7,0.4,0.8,0.4
		c0.4,0.1,0.7,0.1,1.1,0.1c0.6,0,1-0.1,1.3-0.4c0.3-0.3,0.4-0.6,0.4-1c0-0.3-0.1-0.6-0.3-0.7c-0.3-0.2-0.7-0.4-1.3-0.5l-0.3-0.1
		c-0.5-0.1-0.9-0.3-1.2-0.5c-0.3-0.3-0.5-0.6-0.5-1c0-0.6,0.2-1.1,0.6-1.4c0.4-0.3,0.9-0.4,1.5-0.4c0.5,0,0.8,0,1,0.1
		C-370.1-9-369.9-8.9-369.6-8.8 M-362.6-6.3v0.3h-4.6c0,1,0.2,1.6,0.6,2c0.4,0.4,1,0.6,1.8,0.6c0.2,0,0.5,0,0.9-0.1
		c0.4-0.1,0.7-0.2,1.1-0.4v0.5c-0.4,0.2-0.7,0.3-1.1,0.4c-0.4,0.1-0.7,0.1-0.9,0.1c-0.9,0-1.6-0.3-2.1-0.8c-0.5-0.5-0.8-1.3-0.8-2.3
		c0-1.1,0.2-1.9,0.7-2.4c0.5-0.5,1.1-0.8,2-0.8c0.8,0,1.4,0.3,1.8,0.8C-362.8-7.8-362.6-7.1-362.6-6.3 M-363.1-6.4
		c0-0.8-0.2-1.5-0.6-1.8c-0.3-0.3-0.7-0.5-1.3-0.5c-0.6,0-1.1,0.2-1.5,0.5c-0.4,0.3-0.6,0.9-0.7,1.8H-363.1 M-356.2-0.8v0.4h-5.7
		v-0.4H-356.2 M-355.1-11.4h0.5V-3h-0.5V-11.4 M-352-9h0.5v6h-0.5V-9 M-352-11.4h0.5v0.7h-0.5V-11.4 M-344.4-6.6V-3h-0.5v-3.6
		c0-0.8-0.1-1.3-0.4-1.6c-0.3-0.3-0.6-0.5-1.1-0.5c-0.6,0-1.1,0.2-1.5,0.5c-0.4,0.3-0.6,0.9-0.6,1.8V-3h-0.5v-6h0.5v1.1
		c0.2-0.4,0.4-0.6,0.7-0.8c0.4-0.3,0.9-0.4,1.4-0.4c0.6,0,1.1,0.2,1.4,0.6C-344.6-8.2-344.4-7.5-344.4-6.6 M-341.5-11.4h0.5v5.1
		l3-2.7h0.7l-3.1,2.8l3.2,3.2h-0.6l-3.1-3.1V-3h-0.5V-11.4"/>
</g>
<g transform="matrix(2,0,0,2,2160.1,636)">
</g>
<g transform="matrix(2,0,0,2,2160.1,636)">
</g>
<g transform="matrix(2,0,0,2,0.0044,1194)">
</g>
<g transform="matrix(2,0,0,2,0.0044,1194)">
</g>
<g transform="matrix(2,0,0,2,0.0044,1194)">
</g>
<g transform="matrix(2,0,0,2,0.0044,1194)">
	<ellipse class="st3" cx="837.6" cy="-417.3" rx="53.4" ry="17.5"/>
</g>
<g transform="matrix(2,0,0,2,0.0044,1194)">
</g>
<g transform="matrix(2,0,0,2,2663.53,382)">
</g>
<g transform="matrix(2,0,0,2,2663.53,382)">
</g>
<g transform="matrix(2,0,0,2,2663.53,382)">
	<path vector-effect="none" class="st1" d="M-520.9-12c0.2-0.5,0.5-0.9,0.9-1.1c0.4-0.2,0.8-0.4,1.4-0.4s0.9,0.2,1.3,0.5
		c0.3,0.4,0.5,1,0.5,2v3.6h-0.5v-3.6c0-0.8-0.1-1.4-0.3-1.7s-0.5-0.4-0.9-0.4c-0.6,0-1,0.2-1.5,0.5c-0.5,0.4-0.7,1-0.7,1.8v3.4h-0.5
		v-3.6c0-0.8-0.1-1.4-0.3-1.7c-0.2-0.3-0.5-0.5-0.9-0.5c-0.6,0-1,0.2-1.5,0.5c-0.5,0.4-0.7,1-0.7,1.8v3.4h-0.5v-6h0.5v1.1
		c0.2-0.4,0.5-0.7,0.8-0.9c0.4-0.2,0.8-0.3,1.4-0.3c0.4,0,0.7,0.1,1,0.3C-521.3-13-521.1-12.6-520.9-12 M-512.1-10.7
		c-0.8,0-1.4,0.1-1.7,0.4c-0.3,0.3-0.5,0.7-0.5,1.2c0,0.5,0.1,0.9,0.4,1.1c0.3,0.2,0.6,0.3,1,0.3c0.8,0,1.3-0.3,1.6-1
		c0.3-0.6,0.5-1.3,0.5-1.8v-0.4H-512.1 M-510.3-10.8v3.4h-0.5V-9c-0.3,0.8-0.6,1.3-1.1,1.5c-0.4,0.2-0.7,0.3-1.1,0.3
		c-0.6,0-1.1-0.2-1.4-0.5c-0.3-0.3-0.5-0.8-0.5-1.4s0.2-1.1,0.7-1.5c0.4-0.4,1.2-0.6,2.2-0.6h1.2v-0.1c0-0.5-0.2-1-0.5-1.3
		c-0.3-0.3-0.8-0.5-1.5-0.5c-0.3,0-0.7,0.1-1,0.2c-0.2,0.1-0.5,0.3-0.9,0.5v-0.5c0.3-0.2,0.6-0.3,0.9-0.4c0.4-0.1,0.8-0.2,1.1-0.2
		c0.7,0,1.3,0.2,1.8,0.6C-510.5-12.5-510.3-11.8-510.3-10.8 M-507.3-8.7v3.6h-0.5v-8.3h0.5v1.4c0.2-0.5,0.5-0.9,0.7-1.1
		c0.4-0.3,0.8-0.4,1.2-0.4c0.7,0,1.3,0.3,1.8,0.9c0.5,0.6,0.7,1.3,0.7,2.3s-0.2,1.7-0.7,2.3c-0.5,0.6-1.1,0.9-1.8,0.9
		c-0.4,0-0.8-0.2-1.2-0.5C-506.9-7.8-507.1-8.2-507.3-8.7 M-504.1-8.2c0.4-0.4,0.6-1.1,0.6-2.1s-0.2-1.7-0.6-2.1
		c-0.4-0.4-0.9-0.6-1.3-0.6c-0.4,0-0.9,0.2-1.3,0.6c-0.4,0.4-0.6,1.1-0.6,2.1s0.2,1.7,0.6,2.1c0.4,0.4,0.8,0.6,1.3,0.6
		C-505-7.6-504.5-7.8-504.1-8.2 M-496.5-5.2v0.4h-5.7v-0.4H-496.5 M-496-13.4h4.7v0.6l-4.3,5h4.3v0.4h-4.8v-0.5l4.3-5h-4.2V-13.4
		 M-487.2-10.7c-0.8,0-1.4,0.1-1.7,0.4c-0.3,0.3-0.5,0.7-0.5,1.2c0,0.5,0.1,0.9,0.4,1.1c0.3,0.2,0.6,0.3,1,0.3c0.8,0,1.3-0.3,1.6-1
		c0.3-0.6,0.5-1.3,0.5-1.8v-0.4H-487.2 M-485.3-10.8v3.4h-0.5V-9c-0.3,0.8-0.6,1.3-1.1,1.5c-0.4,0.2-0.7,0.3-1.1,0.3
		c-0.6,0-1.1-0.2-1.4-0.5c-0.3-0.3-0.5-0.8-0.5-1.4s0.2-1.1,0.7-1.5s1.2-0.6,2.2-0.6h1.2v-0.1c0-0.5-0.2-1-0.5-1.3
		c-0.3-0.3-0.8-0.5-1.5-0.5c-0.3,0-0.7,0.1-1,0.2c-0.2,0.1-0.5,0.3-0.9,0.5v-0.5c0.3-0.2,0.6-0.3,0.9-0.4c0.4-0.1,0.8-0.2,1.1-0.2
		c0.7,0,1.3,0.2,1.8,0.6C-485.5-12.5-485.3-11.8-485.3-10.8 M-482.8-15.7h0.5v8.4h-0.5V-15.7 M-477.4-10.7c-0.8,0-1.4,0.1-1.7,0.4
		c-0.3,0.3-0.5,0.7-0.5,1.2c0,0.5,0.1,0.9,0.4,1.1c0.3,0.2,0.6,0.3,1,0.3c0.8,0,1.3-0.3,1.6-1c0.3-0.6,0.5-1.3,0.5-1.8v-0.4H-477.4
		 M-475.5-10.8v3.4h-0.5V-9c-0.3,0.8-0.6,1.3-1.1,1.5c-0.4,0.2-0.7,0.3-1.1,0.3c-0.6,0-1.1-0.2-1.4-0.5c-0.3-0.3-0.5-0.8-0.5-1.4
		s0.2-1.1,0.7-1.5c0.4-0.4,1.2-0.6,2.2-0.6h1.2v-0.1c0-0.5-0.2-1-0.5-1.3c-0.3-0.3-0.8-0.5-1.5-0.5c-0.3,0-0.7,0.1-1,0.2
		c-0.2,0.1-0.5,0.3-0.9,0.5v-0.5c0.3-0.2,0.6-0.3,0.9-0.4c0.4-0.1,0.8-0.2,1.1-0.2c0.7,0,1.3,0.2,1.8,0.6
		C-475.7-12.5-475.5-11.8-475.5-10.8 M-468.7-5.2v0.4h-5.7v-0.4H-468.7 M-465.3-15.1c-0.7,0-1.1,0.3-1.5,1c-0.3,0.6-0.5,1.6-0.5,2.8
		c0,1.2,0.2,2.1,0.5,2.8c0.3,0.6,0.8,1,1.5,1c0.7,0,1.2-0.3,1.5-1c0.3-0.6,0.5-1.6,0.5-2.8c0-1.2-0.2-2.1-0.5-2.8
		C-464.2-14.7-464.7-15.1-465.3-15.1 M-465.3-15.5c0.8,0,1.4,0.3,1.8,1c0.5,0.6,0.7,1.7,0.7,3.2s-0.2,2.6-0.7,3.2
		c-0.4,0.6-1.1,0.9-1.8,0.9c-0.8,0-1.4-0.3-1.8-0.9c-0.4-0.6-0.7-1.7-0.7-3.2s0.2-2.6,0.7-3.2C-466.7-15.2-466.1-15.5-465.3-15.5"/>
</g>
<g transform="matrix(2,0,0,2,2663.53,382)">
</g>
<g transform="matrix(2,0,0,2,2663.53,382)">
</g>
<g transform="matrix(2,0,0,2,0.0044,1194)">
</g>
<g transform="matrix(2,0,0,2,0.0044,1194)">
</g>
<g transform="matrix(2,0,0,2,0.0044,1194)">
</g>
<g transform="matrix(2,0,0,2,0.0044,1194)">
	<ellipse class="st2" cx="954.9" cy="-121.8" rx="61.2" ry="17.5"/>
</g>
<g transform="matrix(2,0,0,2,0.0044,1194)">
</g>
<g transform="matrix(2,0,0,2,3168.03,890)">
</g>
<g transform="matrix(2,0,0,2,3168.03,890)">
</g>
<g transform="matrix(2,0,0,2,3168.03,890)">
	<path vector-effect="none" class="st1" d="M-662,29.5v-3.7h0.5v8.4h-0.5v-1.4c-0.2,0.5-0.5,0.9-0.8,1.1c-0.4,0.3-0.8,0.5-1.1,0.5
		c-0.7,0-1.3-0.3-1.8-0.9c-0.5-0.6-0.7-1.3-0.7-2.3c0-0.9,0.2-1.7,0.7-2.3c0.5-0.6,1.1-0.9,1.8-0.9c0.4,0,0.7,0.1,1.1,0.4
		C-662.4,28.7-662.2,29-662,29.5 M-665.2,29.1c-0.4,0.4-0.6,1.1-0.6,2.1c0,1,0.2,1.7,0.6,2.1c0.4,0.4,0.9,0.6,1.3,0.6
		c0.4,0,0.9-0.2,1.3-0.6c0.4-0.4,0.6-1.1,0.6-2.1c0-1-0.2-1.7-0.6-2.1c-0.4-0.4-0.8-0.6-1.3-0.6C-664.3,28.5-664.8,28.7-665.2,29.1
		 M-659,31.8v-3.6h0.5v3.6c0,0.8,0.1,1.3,0.4,1.6c0.3,0.3,0.6,0.5,1.1,0.5c0.6,0,1.1-0.2,1.5-0.5c0.4-0.3,0.6-0.9,0.6-1.8v-3.4h0.5
		v6h-0.5v-1.1c-0.2,0.4-0.4,0.6-0.7,0.8c-0.4,0.3-0.9,0.4-1.4,0.4c-0.6,0-1.1-0.2-1.4-0.6C-658.9,33.3-659,32.7-659,31.8
		 M-648.7,28.6c-0.1,0-0.2-0.1-0.3-0.1c-0.1,0-0.3,0-0.5,0c-0.6,0-1.1,0.2-1.5,0.7c-0.3,0.4-0.5,1-0.5,1.9v3.2h-0.5v-6h0.5v1.1
		c0.2-0.3,0.4-0.6,0.7-0.8c0.4-0.3,0.9-0.5,1.4-0.5c0.1,0,0.3,0,0.4,0c0.1,0,0.2,0,0.3,0V28.6 M-643.9,29.2
		c-0.4-0.5-0.8-0.7-1.5-0.7c-0.6,0-1.1,0.2-1.5,0.7c-0.4,0.5-0.5,1.1-0.5,2c0,0.9,0.2,1.5,0.5,2c0.4,0.5,0.8,0.7,1.5,0.7
		c0.6,0,1.1-0.2,1.5-0.7c0.4-0.5,0.5-1.2,0.5-2C-643.4,30.3-643.6,29.7-643.9,29.2 M-645.4,28c0.8,0,1.4,0.3,1.8,0.9
		c0.4,0.6,0.7,1.3,0.7,2.3c0,1-0.2,1.8-0.7,2.3c-0.4,0.6-1.1,0.9-1.8,0.9c-0.8,0-1.4-0.3-1.8-0.9c-0.4-0.6-0.7-1.4-0.7-2.3
		c0-1,0.2-1.7,0.7-2.3C-646.8,28.3-646.1,28-645.4,28 M-636.4,36.4v0.4h-5.7v-0.4H-636.4 M-631.3,31.1c0-0.8-0.2-1.5-0.5-1.9
		c-0.3-0.5-0.8-0.7-1.4-0.7c-0.6,0-1.1,0.2-1.4,0.7c-0.3,0.5-0.5,1.1-0.5,1.9c0,0.8,0.2,1.5,0.5,1.9c0.3,0.5,0.8,0.7,1.4,0.7
		c0.6,0,1.1-0.2,1.4-0.7C-631.4,32.6-631.3,31.9-631.3,31.1 M-630.8,33.4c0,1.3-0.2,2.1-0.7,2.5c-0.5,0.4-1.1,0.6-1.8,0.6
		c-0.4,0-0.7,0-1-0.1c-0.3-0.1-0.6-0.1-0.9-0.3v-0.6c0.3,0.2,0.6,0.3,0.9,0.4c0.3,0.1,0.6,0.1,0.9,0.1c0.6,0,1.1-0.1,1.5-0.4
		c0.4-0.3,0.6-0.9,0.6-2.1v-1c-0.2,0.4-0.4,0.7-0.6,1c-0.4,0.4-0.8,0.5-1.3,0.5c-0.8,0-1.4-0.3-1.8-0.8c-0.4-0.5-0.6-1.3-0.6-2.3
		c0-1,0.2-1.7,0.6-2.3c0.4-0.5,1-0.8,1.8-0.8c0.5,0,0.9,0.2,1.3,0.5c0.3,0.2,0.5,0.6,0.7,1v-1.3h0.5V33.4 M-628.2,32.8v3.6h-0.5
		v-8.3h0.5v1.4c0.2-0.5,0.5-0.9,0.7-1.1c0.4-0.3,0.8-0.4,1.2-0.4c0.7,0,1.3,0.3,1.8,0.9c0.5,0.6,0.7,1.3,0.7,2.3
		c0,0.9-0.2,1.7-0.7,2.3c-0.5,0.6-1.1,0.9-1.8,0.9c-0.4,0-0.8-0.2-1.2-0.5C-627.7,33.7-628,33.3-628.2,32.8 M-625,33.3
		c0.4-0.4,0.6-1.1,0.6-2.1c0-1-0.2-1.7-0.6-2.1c-0.4-0.4-0.9-0.6-1.3-0.6c-0.4,0-0.9,0.2-1.3,0.6c-0.4,0.4-0.6,1.1-0.6,2.1
		c0,1,0.2,1.7,0.6,2.1c0.4,0.4,0.8,0.6,1.3,0.6C-625.8,33.9-625.4,33.7-625,33.3 M-618.3,28.3v0.5c-0.4-0.2-0.6-0.3-0.7-0.3
		c-0.3-0.1-0.6-0.1-0.9-0.1c-0.6,0-1,0.1-1.3,0.3c-0.3,0.2-0.4,0.5-0.4,1c0,0.3,0.1,0.6,0.4,0.7c0.2,0.2,0.6,0.3,1,0.4l0.3,0.1
		c0.6,0.1,1,0.3,1.3,0.5c0.3,0.3,0.5,0.6,0.5,1c0,0.6-0.2,1-0.5,1.3c-0.4,0.3-0.9,0.5-1.7,0.5c-0.4,0-0.8,0-1-0.1
		c-0.3-0.1-0.6-0.2-0.9-0.3v-0.6c0.4,0.3,0.7,0.4,0.8,0.4c0.4,0.1,0.7,0.1,1.1,0.1c0.6,0,1-0.1,1.3-0.4c0.3-0.3,0.4-0.6,0.4-1
		c0-0.3-0.1-0.6-0.3-0.7c-0.3-0.2-0.7-0.4-1.3-0.5l-0.3-0.1c-0.5-0.1-0.9-0.3-1.2-0.5c-0.3-0.3-0.5-0.6-0.5-1c0-0.6,0.2-1.1,0.6-1.4
		c0.4-0.3,0.9-0.4,1.5-0.4c0.5,0,0.8,0,1,0.1C-618.8,28.2-618.5,28.3-618.3,28.3 M-611.6,36.4v0.4h-5.7v-0.4H-611.6 M-610.5,28.2
		h0.5v6h-0.5V28.2 M-610.5,25.8h0.5v0.7h-0.5V25.8 M-603.1,29.5c0.2-0.5,0.5-0.9,0.9-1.1c0.4-0.2,0.8-0.4,1.4-0.4s0.9,0.2,1.3,0.5
		c0.3,0.4,0.5,1,0.5,2v3.6h-0.5v-3.6c0-0.8-0.1-1.4-0.3-1.7c-0.2-0.3-0.5-0.4-0.9-0.4c-0.6,0-1,0.2-1.5,0.5c-0.5,0.4-0.7,1-0.7,1.8
		v3.4h-0.5v-3.6c0-0.8-0.1-1.4-0.3-1.7c-0.2-0.3-0.5-0.5-0.9-0.5c-0.6,0-1,0.2-1.5,0.5c-0.5,0.4-0.7,1-0.7,1.8v3.4h-0.5v-6h0.5v1.1
		c0.2-0.4,0.5-0.7,0.8-0.9c0.4-0.2,0.8-0.3,1.4-0.3c0.4,0,0.7,0.1,1,0.3C-603.5,28.6-603.3,28.9-603.1,29.5 M-596.8,31.8v-3.6h0.5
		v3.6c0,0.8,0.1,1.3,0.4,1.6c0.3,0.3,0.6,0.5,1.1,0.5c0.6,0,1.1-0.2,1.5-0.5c0.4-0.3,0.6-0.9,0.6-1.8v-3.4h0.5v6h-0.5v-1.1
		c-0.2,0.4-0.4,0.6-0.7,0.8c-0.4,0.3-0.9,0.4-1.4,0.4c-0.6,0-1.1-0.2-1.4-0.6C-596.6,33.3-596.8,32.7-596.8,31.8"/>
</g>
<g transform="matrix(2,0,0,2,3168.03,890)">
</g>
<g transform="matrix(2,0,0,2,3168.03,890)">
</g>
<g transform="matrix(2,0,0,2,0.0044,1194)">
</g>
<g transform="matrix(2,0,0,2,0.0044,1194)">
</g>
<g transform="matrix(2,0,0,2,0.0044,1194)">
</g>
<g transform="matrix(2,0,0,2,0.0044,1194)">
	<ellipse class="st2" cx="439.8" cy="-36.5" rx="76.8" ry="17.5"/>
</g>
<g transform="matrix(2,0,0,2,0.0044,1194)">
</g>
<g transform="matrix(2,0,0,2,1080.48,1144)">
</g>
<g transform="matrix(2,0,0,2,1080.48,1144)">
</g>
<g transform="matrix(2,0,0,2,1080.48,1144)">
	<path vector-effect="none" class="st1" d="M-145.7-13.1c-0.1,0-0.2-0.1-0.3-0.1c-0.1,0-0.3,0-0.5,0c-0.6,0-1.1,0.2-1.5,0.7
		c-0.3,0.4-0.5,1-0.5,1.9v3.2h-0.5v-6h0.5v1.1c0.2-0.3,0.4-0.6,0.7-0.8c0.4-0.3,0.9-0.5,1.4-0.5c0.1,0,0.3,0,0.4,0
		c0.1,0,0.2,0,0.3,0V-13.1 M-144.5-13.5h0.5v6h-0.5V-13.5 M-144.5-15.9h0.5v0.7h-0.5V-15.9 M-137.4-10.6c0-0.8-0.2-1.5-0.5-1.9
		c-0.3-0.5-0.8-0.7-1.4-0.7c-0.6,0-1.1,0.2-1.4,0.7c-0.3,0.5-0.5,1.1-0.5,1.9c0,0.8,0.2,1.5,0.5,1.9c0.3,0.5,0.8,0.7,1.4,0.7
		c0.6,0,1.1-0.2,1.4-0.7C-137.6-9.1-137.4-9.7-137.4-10.6 M-137-8.2c0,1.3-0.2,2.1-0.7,2.5c-0.5,0.4-1.1,0.6-1.8,0.6
		c-0.4,0-0.7,0-1-0.1c-0.3-0.1-0.6-0.1-0.9-0.3v-0.6c0.3,0.2,0.6,0.3,0.9,0.4c0.3,0.1,0.6,0.1,0.9,0.1c0.6,0,1.1-0.1,1.5-0.4
		c0.4-0.3,0.6-0.9,0.6-2.1v-1c-0.2,0.4-0.4,0.7-0.6,1c-0.4,0.4-0.8,0.5-1.3,0.5c-0.8,0-1.4-0.3-1.8-0.8c-0.4-0.5-0.6-1.3-0.6-2.3
		c0-1,0.2-1.7,0.6-2.3s1-0.8,1.8-0.8c0.5,0,0.9,0.2,1.3,0.5c0.3,0.2,0.5,0.6,0.7,1v-1.3h0.5V-8.2 M-130.3-11.1v3.6h-0.5v-3.6
		c0-0.8-0.1-1.3-0.4-1.6s-0.7-0.5-1.2-0.5c-0.6,0-1.1,0.2-1.5,0.5c-0.4,0.4-0.5,0.9-0.5,1.8v3.4h-0.5v-8.4h0.5v3.5
		c0.1-0.3,0.3-0.6,0.6-0.8c0.3-0.3,0.8-0.4,1.5-0.4c0.6,0,1.1,0.2,1.4,0.6C-130.5-12.6-130.3-12-130.3-11.1 M-127.4-15.2v1.7h2v0.4
		h-2v3.6c0,0.5,0.1,0.8,0.2,1c0.3,0.4,0.6,0.6,1.1,0.6h0.8v0.4h-0.8c-0.5,0-0.9-0.1-1.3-0.4c-0.3-0.3-0.5-0.8-0.5-1.6v-3.6h-0.7
		v-0.4h0.7v-1.7H-127.4 M-119.2-5.3v0.4h-5.7v-0.4H-119.2 M-114.5-12.5c-0.4-0.5-0.8-0.7-1.5-0.7s-1.1,0.2-1.5,0.7
		c-0.4,0.5-0.5,1.1-0.5,2c0,0.9,0.2,1.5,0.5,2c0.4,0.5,0.8,0.7,1.5,0.7s1.1-0.2,1.5-0.7c0.4-0.5,0.5-1.2,0.5-2
		C-114-11.3-114.1-12-114.5-12.5 M-115.9-13.7c0.8,0,1.4,0.3,1.8,0.9c0.4,0.6,0.7,1.3,0.7,2.3c0,1-0.2,1.8-0.7,2.3
		c-0.4,0.6-1.1,0.9-1.8,0.9c-0.8,0-1.4-0.3-1.8-0.9c-0.4-0.6-0.7-1.4-0.7-2.3c0-1,0.2-1.7,0.7-2.3S-116.7-13.7-115.9-13.7
		 M-107.9-13.3v0.5c-0.4-0.2-0.6-0.3-0.7-0.3c-0.3-0.1-0.6-0.1-0.9-0.1c-0.6,0-1,0.1-1.3,0.3c-0.3,0.2-0.4,0.5-0.4,1
		c0,0.3,0.1,0.6,0.4,0.7c0.2,0.2,0.6,0.3,1,0.4l0.3,0.1c0.6,0.1,1,0.3,1.3,0.5c0.3,0.3,0.5,0.6,0.5,1c0,0.6-0.2,1-0.5,1.3
		c-0.4,0.3-0.9,0.5-1.7,0.5c-0.4,0-0.8,0-1-0.1c-0.3-0.1-0.6-0.2-0.9-0.3v-0.6c0.4,0.3,0.7,0.4,0.8,0.4c0.4,0.1,0.7,0.1,1.1,0.1
		c0.6,0,1-0.1,1.3-0.4c0.3-0.3,0.4-0.6,0.4-1c0-0.3-0.1-0.6-0.3-0.7c-0.3-0.2-0.7-0.4-1.3-0.5l-0.3-0.1c-0.5-0.1-0.9-0.3-1.2-0.5
		c-0.3-0.3-0.5-0.6-0.5-1c0-0.6,0.2-1.1,0.6-1.4c0.4-0.3,0.9-0.4,1.5-0.4c0.5,0,0.8,0,1,0.1C-108.4-13.5-108.2-13.4-107.9-13.3
		 M-105.2-7.9h1.8V-15l-2.2,0.9v-0.5l2.2-0.9h0.5v7.6h1.8v0.4h-4.1V-7.9 M-96.9-15.5h0.6l-2.8,9h-0.6L-96.9-15.5 M-91.4-12.5
		c-0.4-0.5-0.8-0.7-1.5-0.7s-1.1,0.2-1.5,0.7c-0.4,0.5-0.5,1.1-0.5,2c0,0.9,0.2,1.5,0.5,2c0.4,0.5,0.8,0.7,1.5,0.7s1.1-0.2,1.5-0.7
		c0.4-0.5,0.5-1.2,0.5-2C-90.8-11.3-91-12-91.4-12.5 M-92.8-13.7c0.8,0,1.4,0.3,1.8,0.9c0.4,0.6,0.7,1.3,0.7,2.3
		c0,1-0.2,1.8-0.7,2.3c-0.4,0.6-1.1,0.9-1.8,0.9c-0.8,0-1.4-0.3-1.8-0.9c-0.4-0.6-0.7-1.4-0.7-2.3c0-1,0.2-1.7,0.7-2.3
		S-93.6-13.7-92.8-13.7 M-84.8-13.3v0.5c-0.4-0.2-0.6-0.3-0.7-0.3c-0.3-0.1-0.6-0.1-0.9-0.1c-0.6,0-1,0.1-1.3,0.3
		c-0.3,0.2-0.4,0.5-0.4,1c0,0.3,0.1,0.6,0.4,0.7c0.2,0.2,0.6,0.3,1,0.4l0.3,0.1c0.6,0.1,1,0.3,1.3,0.5c0.3,0.3,0.5,0.6,0.5,1
		c0,0.6-0.2,1-0.5,1.3c-0.4,0.3-0.9,0.5-1.7,0.5c-0.4,0-0.8,0-1-0.1c-0.3-0.1-0.6-0.2-0.9-0.3v-0.6c0.4,0.3,0.7,0.4,0.8,0.4
		c0.4,0.1,0.7,0.1,1.1,0.1c0.6,0,1-0.1,1.3-0.4c0.3-0.3,0.4-0.6,0.4-1c0-0.3-0.1-0.6-0.3-0.7c-0.3-0.2-0.7-0.4-1.3-0.5l-0.3-0.1
		c-0.5-0.1-0.9-0.3-1.2-0.5c-0.3-0.3-0.5-0.6-0.5-1c0-0.6,0.2-1.1,0.6-1.4c0.4-0.3,0.9-0.4,1.5-0.4c0.5,0,0.8,0,1,0.1
		C-85.3-13.5-85-13.4-84.8-13.3 M-82.1-7.9h1.8V-15l-2.2,0.9v-0.5l2.2-0.9h0.5v7.6h1.8v0.4h-4.1V-7.9 M-71.2-5.3v0.4h-5.7v-0.4
		H-71.2 M-70-13.5h0.5v6H-70V-13.5 M-70-15.9h0.5v0.7H-70V-15.9 M-62.7-12.2c0.2-0.5,0.5-0.9,0.9-1.1c0.4-0.2,0.8-0.4,1.4-0.4
		c0.5,0,0.9,0.2,1.3,0.5c0.3,0.4,0.5,1,0.5,2v3.6h-0.5v-3.6c0-0.8-0.1-1.4-0.3-1.7s-0.5-0.4-0.9-0.4c-0.6,0-1,0.2-1.5,0.5
		c-0.5,0.4-0.7,1-0.7,1.8v3.4h-0.5v-3.6c0-0.8-0.1-1.4-0.3-1.7c-0.2-0.3-0.5-0.5-0.9-0.5c-0.6,0-1,0.2-1.5,0.5
		c-0.5,0.4-0.7,1-0.7,1.8v3.4H-67v-6h0.5v1.1c0.2-0.4,0.5-0.7,0.8-0.9c0.4-0.2,0.8-0.3,1.4-0.3c0.4,0,0.7,0.1,1,0.3
		C-63-13.1-62.8-12.8-62.7-12.2 M-56.3-9.9v-3.6h0.5v3.6c0,0.8,0.1,1.3,0.4,1.6c0.3,0.3,0.6,0.5,1.1,0.5c0.6,0,1.1-0.2,1.5-0.5
		c0.4-0.3,0.6-0.9,0.6-1.8v-3.4h0.5v6h-0.5v-1.1C-52.5-8.3-52.7-8-53-7.8c-0.4,0.3-0.9,0.4-1.4,0.4c-0.6,0-1.1-0.2-1.4-0.6
		C-56.2-8.4-56.3-9-56.3-9.9"/>
</g>
<g transform="matrix(2,0,0,2,1080.48,1144)">
</g>
<g transform="matrix(2,0,0,2,1080.48,1144)">
</g>
<g transform="matrix(2,0,0,2,0.0044,1194)">
</g>
<g transform="matrix(2,0,0,2,0.0044,1194)">
</g>
<g transform="matrix(2,0,0,2,0.0044,1194)">
</g>
<g transform="matrix(2,0,0,2,0.0044,1194)">
	<ellipse class="st2" cx="439.8" cy="-163.5" rx="84.6" ry="17.5"/>
</g>
<g transform="matrix(2,0,0,2,0.0044,1194)">
</g>
<g transform="matrix(2,0,0,2,1064.79,890)">
</g>
<g transform="matrix(2,0,0,2,1064.79,890)">
</g>
<g transform="matrix(2,0,0,2,1064.79,890)">
	<path vector-effect="none" class="st1" d="M-145.7-13.1c-0.1,0-0.2-0.1-0.3-0.1c-0.1,0-0.3,0-0.5,0c-0.6,0-1.1,0.2-1.5,0.7
		c-0.3,0.4-0.5,1-0.5,1.9v3.2h-0.5v-6h0.5v1.1c0.2-0.3,0.4-0.6,0.7-0.8c0.4-0.3,0.9-0.5,1.4-0.5c0.1,0,0.3,0,0.4,0
		c0.1,0,0.2,0,0.3,0V-13.1 M-144.5-13.5h0.5v6h-0.5V-13.5 M-144.5-15.9h0.5v0.7h-0.5V-15.9 M-137.4-10.6c0-0.8-0.2-1.5-0.5-1.9
		c-0.3-0.5-0.8-0.7-1.4-0.7c-0.6,0-1.1,0.2-1.4,0.7c-0.3,0.5-0.5,1.1-0.5,1.9c0,0.8,0.2,1.5,0.5,1.9c0.3,0.5,0.8,0.7,1.4,0.7
		c0.6,0,1.1-0.2,1.4-0.7C-137.6-9.1-137.4-9.7-137.4-10.6 M-137-8.2c0,1.3-0.2,2.1-0.7,2.5c-0.5,0.4-1.1,0.6-1.8,0.6
		c-0.4,0-0.7,0-1-0.1c-0.3-0.1-0.6-0.1-0.9-0.3v-0.6c0.3,0.2,0.6,0.3,0.9,0.4c0.3,0.1,0.6,0.1,0.9,0.1c0.6,0,1.1-0.1,1.5-0.4
		c0.4-0.3,0.6-0.9,0.6-2.1v-1c-0.2,0.4-0.4,0.7-0.6,1c-0.4,0.4-0.8,0.5-1.3,0.5c-0.8,0-1.4-0.3-1.8-0.8c-0.4-0.5-0.6-1.3-0.6-2.3
		c0-1,0.2-1.7,0.6-2.3s1-0.8,1.8-0.8c0.5,0,0.9,0.2,1.3,0.5c0.3,0.2,0.5,0.6,0.7,1v-1.3h0.5V-8.2 M-130.3-11.1v3.6h-0.5v-3.6
		c0-0.8-0.1-1.3-0.4-1.6s-0.7-0.5-1.2-0.5c-0.6,0-1.1,0.2-1.5,0.5c-0.4,0.4-0.5,0.9-0.5,1.8v3.4h-0.5v-8.4h0.5v3.5
		c0.1-0.3,0.3-0.6,0.6-0.8c0.3-0.3,0.8-0.4,1.5-0.4c0.6,0,1.1,0.2,1.4,0.6C-130.5-12.6-130.3-12-130.3-11.1 M-127.4-15.2v1.7h2v0.4
		h-2v3.6c0,0.5,0.1,0.8,0.2,1c0.3,0.4,0.6,0.6,1.1,0.6h0.8v0.4h-0.8c-0.5,0-0.9-0.1-1.3-0.4c-0.3-0.3-0.5-0.8-0.5-1.6v-3.6h-0.7
		v-0.4h0.7v-1.7H-127.4 M-119.2-5.3v0.4h-5.7v-0.4H-119.2 M-114.5-12.5c-0.4-0.5-0.8-0.7-1.5-0.7s-1.1,0.2-1.5,0.7
		c-0.4,0.5-0.5,1.1-0.5,2c0,0.9,0.2,1.5,0.5,2c0.4,0.5,0.8,0.7,1.5,0.7s1.1-0.2,1.5-0.7c0.4-0.5,0.5-1.2,0.5-2
		C-114-11.3-114.1-12-114.5-12.5 M-115.9-13.7c0.8,0,1.4,0.3,1.8,0.9c0.4,0.6,0.7,1.3,0.7,2.3c0,1-0.2,1.8-0.7,2.3
		c-0.4,0.6-1.1,0.9-1.8,0.9c-0.8,0-1.4-0.3-1.8-0.9c-0.4-0.6-0.7-1.4-0.7-2.3c0-1,0.2-1.7,0.7-2.3S-116.7-13.7-115.9-13.7
		 M-107.9-13.3v0.5c-0.4-0.2-0.6-0.3-0.7-0.3c-0.3-0.1-0.6-0.1-0.9-0.1c-0.6,0-1,0.1-1.3,0.3c-0.3,0.2-0.4,0.5-0.4,1
		c0,0.3,0.1,0.6,0.4,0.7c0.2,0.2,0.6,0.3,1,0.4l0.3,0.1c0.6,0.1,1,0.3,1.3,0.5c0.3,0.3,0.5,0.6,0.5,1c0,0.6-0.2,1-0.5,1.3
		c-0.4,0.3-0.9,0.5-1.7,0.5c-0.4,0-0.8,0-1-0.1c-0.3-0.1-0.6-0.2-0.9-0.3v-0.6c0.4,0.3,0.7,0.4,0.8,0.4c0.4,0.1,0.7,0.1,1.1,0.1
		c0.6,0,1-0.1,1.3-0.4c0.3-0.3,0.4-0.6,0.4-1c0-0.3-0.1-0.6-0.3-0.7c-0.3-0.2-0.7-0.4-1.3-0.5l-0.3-0.1c-0.5-0.1-0.9-0.3-1.2-0.5
		c-0.3-0.3-0.5-0.6-0.5-1c0-0.6,0.2-1.1,0.6-1.4c0.4-0.3,0.9-0.4,1.5-0.4c0.5,0,0.8,0,1,0.1C-108.4-13.5-108.2-13.4-107.9-13.3
		 M-105.2-7.9h1.8V-15l-2.2,0.9v-0.5l2.2-0.9h0.5v7.6h1.8v0.4h-4.1V-7.9 M-96.9-15.5h0.6l-2.8,9h-0.6L-96.9-15.5 M-91.4-12.5
		c-0.4-0.5-0.8-0.7-1.5-0.7s-1.1,0.2-1.5,0.7c-0.4,0.5-0.5,1.1-0.5,2c0,0.9,0.2,1.5,0.5,2c0.4,0.5,0.8,0.7,1.5,0.7s1.1-0.2,1.5-0.7
		c0.4-0.5,0.5-1.2,0.5-2C-90.8-11.3-91-12-91.4-12.5 M-92.8-13.7c0.8,0,1.4,0.3,1.8,0.9c0.4,0.6,0.7,1.3,0.7,2.3
		c0,1-0.2,1.8-0.7,2.3c-0.4,0.6-1.1,0.9-1.8,0.9c-0.8,0-1.4-0.3-1.8-0.9c-0.4-0.6-0.7-1.4-0.7-2.3c0-1,0.2-1.7,0.7-2.3
		S-93.6-13.7-92.8-13.7 M-84.8-13.3v0.5c-0.4-0.2-0.6-0.3-0.7-0.3c-0.3-0.1-0.6-0.1-0.9-0.1c-0.6,0-1,0.1-1.3,0.3
		c-0.3,0.2-0.4,0.5-0.4,1c0,0.3,0.1,0.6,0.4,0.7c0.2,0.2,0.6,0.3,1,0.4l0.3,0.1c0.6,0.1,1,0.3,1.3,0.5c0.3,0.3,0.5,0.6,0.5,1
		c0,0.6-0.2,1-0.5,1.3c-0.4,0.3-0.9,0.5-1.7,0.5c-0.4,0-0.8,0-1-0.1c-0.3-0.1-0.6-0.2-0.9-0.3v-0.6c0.4,0.3,0.7,0.4,0.8,0.4
		c0.4,0.1,0.7,0.1,1.1,0.1c0.6,0,1-0.1,1.3-0.4c0.3-0.3,0.4-0.6,0.4-1c0-0.3-0.1-0.6-0.3-0.7c-0.3-0.2-0.7-0.4-1.3-0.5l-0.3-0.1
		c-0.5-0.1-0.9-0.3-1.2-0.5c-0.3-0.3-0.5-0.6-0.5-1c0-0.6,0.2-1.1,0.6-1.4c0.4-0.3,0.9-0.4,1.5-0.4c0.5,0,0.8,0,1,0.1
		C-85.3-13.5-85-13.4-84.8-13.3 M-82.1-7.9h1.8V-15l-2.2,0.9v-0.5l2.2-0.9h0.5v7.6h1.8v0.4h-4.1V-7.9 M-71.2-5.3v0.4h-5.7v-0.4
		H-71.2 M-66.6-13.3v0.5c-0.4-0.2-0.6-0.3-0.7-0.3c-0.3-0.1-0.6-0.1-0.9-0.1c-0.6,0-1,0.1-1.3,0.3c-0.3,0.2-0.4,0.5-0.4,1
		c0,0.3,0.1,0.6,0.4,0.7c0.2,0.2,0.6,0.3,1,0.4l0.3,0.1c0.6,0.1,1,0.3,1.3,0.5c0.3,0.3,0.5,0.6,0.5,1c0,0.6-0.2,1-0.5,1.3
		c-0.4,0.3-0.9,0.5-1.7,0.5c-0.4,0-0.8,0-1-0.1c-0.3-0.1-0.6-0.2-0.9-0.3v-0.6c0.4,0.3,0.7,0.4,0.8,0.4c0.4,0.1,0.7,0.1,1.1,0.1
		c0.6,0,1-0.1,1.3-0.4c0.3-0.3,0.4-0.6,0.4-1c0-0.3-0.1-0.6-0.3-0.7c-0.3-0.2-0.7-0.4-1.3-0.5l-0.3-0.1c-0.5-0.1-0.9-0.3-1.2-0.5
		c-0.3-0.3-0.5-0.6-0.5-1c0-0.6,0.2-1.1,0.6-1.4c0.4-0.3,0.9-0.4,1.5-0.4c0.5,0,0.8,0,1,0.1C-67.1-13.5-66.8-13.4-66.6-13.3
		 M-59.6-10.7v0.3h-4.6c0,1,0.2,1.6,0.6,2c0.4,0.4,1,0.6,1.8,0.6c0.2,0,0.5,0,0.9-0.1c0.4-0.1,0.7-0.2,1.1-0.4v0.5
		c-0.4,0.2-0.7,0.3-1.1,0.4c-0.4,0.1-0.7,0.1-0.9,0.1c-0.9,0-1.6-0.3-2.1-0.8c-0.5-0.5-0.8-1.3-0.8-2.3c0-1.1,0.2-1.9,0.7-2.4
		c0.5-0.5,1.1-0.8,2-0.8c0.8,0,1.4,0.3,1.8,0.8C-59.8-12.3-59.6-11.6-59.6-10.7 M-60.1-10.9c0-0.8-0.2-1.5-0.6-1.8
		c-0.3-0.3-0.7-0.5-1.3-0.5c-0.6,0-1.1,0.2-1.5,0.5c-0.4,0.3-0.6,0.9-0.7,1.8H-60.1 M-53-11.1v3.6h-0.5v-3.6c0-0.8-0.1-1.3-0.4-1.6
		s-0.6-0.5-1.1-0.5c-0.6,0-1.1,0.2-1.5,0.5c-0.4,0.3-0.6,0.9-0.6,1.8v3.4h-0.5v-6h0.5v1.1c0.2-0.4,0.4-0.6,0.7-0.8
		c0.4-0.3,0.9-0.4,1.4-0.4c0.6,0,1.1,0.2,1.4,0.6C-53.2-12.7-53-12-53-11.1 M-47.2-13.3v0.5c-0.4-0.2-0.6-0.3-0.7-0.3
		c-0.3-0.1-0.6-0.1-0.9-0.1c-0.6,0-1,0.1-1.3,0.3c-0.3,0.2-0.4,0.5-0.4,1c0,0.3,0.1,0.6,0.4,0.7c0.2,0.2,0.6,0.3,1,0.4l0.3,0.1
		c0.6,0.1,1,0.3,1.3,0.5c0.3,0.3,0.5,0.6,0.5,1c0,0.6-0.2,1-0.5,1.3c-0.4,0.3-0.9,0.5-1.7,0.5c-0.4,0-0.8,0-1-0.1
		c-0.3-0.1-0.6-0.2-0.9-0.3v-0.6c0.4,0.3,0.7,0.4,0.8,0.4c0.4,0.1,0.7,0.1,1.1,0.1c0.6,0,1-0.1,1.3-0.4c0.3-0.3,0.4-0.6,0.4-1
		c0-0.3-0.1-0.6-0.3-0.7c-0.3-0.2-0.7-0.4-1.3-0.5l-0.3-0.1c-0.5-0.1-0.9-0.3-1.2-0.5c-0.3-0.3-0.5-0.6-0.5-1c0-0.6,0.2-1.1,0.6-1.4
		c0.4-0.3,0.9-0.4,1.5-0.4c0.5,0,0.8,0,1,0.1C-47.6-13.5-47.4-13.4-47.2-13.3 M-41.3-12.5c-0.4-0.5-0.8-0.7-1.5-0.7
		c-0.6,0-1.1,0.2-1.5,0.7c-0.4,0.5-0.5,1.1-0.5,2c0,0.9,0.2,1.5,0.5,2c0.4,0.5,0.8,0.7,1.5,0.7c0.6,0,1.1-0.2,1.5-0.7
		c0.4-0.5,0.5-1.2,0.5-2C-40.7-11.3-40.9-12-41.3-12.5 M-42.7-13.7c0.8,0,1.4,0.3,1.8,0.9c0.4,0.6,0.7,1.3,0.7,2.3
		c0,1-0.2,1.8-0.7,2.3c-0.4,0.6-1.1,0.9-1.8,0.9c-0.8,0-1.4-0.3-1.8-0.9c-0.4-0.6-0.7-1.4-0.7-2.3c0-1,0.2-1.7,0.7-2.3
		C-44.1-13.4-43.5-13.7-42.7-13.7 M-34.9-13.1c-0.1,0-0.2-0.1-0.3-0.1c-0.1,0-0.3,0-0.5,0c-0.6,0-1.1,0.2-1.5,0.7
		c-0.3,0.4-0.5,1-0.5,1.9v3.2h-0.5v-6h0.5v1.1c0.2-0.3,0.4-0.6,0.7-0.8c0.4-0.3,0.9-0.5,1.4-0.5c0.1,0,0.3,0,0.4,0
		c0.1,0,0.2,0,0.3,0V-13.1"/>
</g>
<g transform="matrix(2,0,0,2,1064.79,890)">
</g>
<g transform="matrix(2,0,0,2,1064.79,890)">
</g>
<g transform="matrix(2,0,0,2,0.0044,1194)">
</g>
<g transform="matrix(2,0,0,2,0.0044,1194)">
</g>
<g transform="matrix(2,0,0,2,0.0044,1194)">
</g>
<g transform="matrix(2,0,0,2,0.0044,1194)">
</g>
<g transform="matrix(2,0,0,2,1764.47,22)">
</g>
<g transform="matrix(2,0,0,2,1764.47,22)">
</g>
<g transform="matrix(2,0,0,2,1764.47,22)">
</g>
<g transform="matrix(2,0,0,2,1764.47,22)">
</g>
<g transform="matrix(2,0,0,2,0.0044,1194)">
</g>
<g transform="matrix(2,0,0,2,0.0044,1194)">
</g>
<g transform="matrix(2,0,0,2,0.0044,1194)">
</g>
<g transform="matrix(2,0,0,2,0.0044,1194)">
	<ellipse class="st2" cx="102.5" cy="-40" rx="73.6" ry="17.5"/>
</g>
<g transform="matrix(2,0,0,2,0.0044,1194)">
</g>
<g transform="matrix(2,0,0,2,52.3466,1144)">
</g>
<g transform="matrix(2,0,0,2,52.3466,1144)">
</g>
<g transform="matrix(2,0,0,2,52.3466,1144)">
	<path vector-effect="none" class="st1" d="M29.7-19.4h0.5v8.4h-0.5V-19.4 M37.4-14.3v0.3h-4.6c0,1,0.2,1.6,0.6,2
		c0.4,0.4,1,0.6,1.8,0.6c0.2,0,0.5,0,0.9-0.1c0.4-0.1,0.7-0.2,1.1-0.4v0.5c-0.4,0.2-0.7,0.3-1.1,0.4c-0.4,0.1-0.7,0.1-0.9,0.1
		c-0.9,0-1.6-0.3-2.1-0.8c-0.5-0.5-0.8-1.3-0.8-2.3c0-1.1,0.2-1.9,0.7-2.4c0.5-0.5,1.1-0.8,2-0.8c0.8,0,1.4,0.3,1.8,0.8
		C37.2-15.8,37.4-15.1,37.4-14.3 M36.9-14.4c0-0.8-0.2-1.5-0.6-1.8c-0.3-0.3-0.7-0.5-1.3-0.5c-0.6,0-1.1,0.2-1.5,0.5
		c-0.4,0.3-0.6,0.9-0.7,1.8H36.9 M42-19.4v0.4h-0.7c-0.4,0-0.6,0.1-0.8,0.3c-0.2,0.2-0.4,0.6-0.4,1.1v0.5h1.6v0.4h-1.6v5.6h-0.5
		v-5.6h-0.9V-17h0.9v-0.4c0-0.7,0.2-1.2,0.5-1.5c0.3-0.3,0.7-0.5,1.2-0.5H42 M43.8-18.7v1.7h2v0.4h-2v3.6c0,0.5,0.1,0.8,0.2,1
		c0.3,0.4,0.6,0.6,1.1,0.6h0.8v0.4h-0.8c-0.5,0-0.9-0.1-1.3-0.4c-0.3-0.3-0.5-0.8-0.5-1.6v-3.6h-0.7V-17h0.7v-1.7H43.8 M52-8.8v0.4
		h-5.7v-0.4H52 M56.7-16c-0.4-0.5-0.8-0.7-1.5-0.7s-1.1,0.2-1.5,0.7c-0.4,0.5-0.5,1.1-0.5,2c0,0.9,0.2,1.5,0.5,2
		c0.4,0.5,0.8,0.7,1.5,0.7s1.1-0.2,1.5-0.7c0.4-0.5,0.5-1.2,0.5-2C57.3-14.8,57.1-15.5,56.7-16 M55.3-17.2c0.8,0,1.4,0.3,1.8,0.9
		c0.4,0.6,0.7,1.3,0.7,2.3c0,1-0.2,1.8-0.7,2.3c-0.4,0.6-1.1,0.9-1.8,0.9c-0.8,0-1.4-0.3-1.8-0.9C53-12.2,52.8-13,52.8-14
		c0-1,0.2-1.7,0.7-2.3C53.9-16.9,54.5-17.2,55.3-17.2 M63.3-16.8v0.5c-0.4-0.2-0.6-0.3-0.7-0.3c-0.3-0.1-0.6-0.1-0.9-0.1
		c-0.6,0-1,0.1-1.3,0.3c-0.3,0.2-0.4,0.5-0.4,1c0,0.3,0.1,0.6,0.4,0.7c0.2,0.2,0.6,0.3,1,0.4l0.3,0.1c0.6,0.1,1,0.3,1.3,0.5
		c0.3,0.3,0.5,0.6,0.5,1c0,0.6-0.2,1-0.5,1.3c-0.4,0.3-0.9,0.5-1.7,0.5c-0.4,0-0.8,0-1-0.1c-0.3-0.1-0.6-0.2-0.9-0.3v-0.6
		c0.4,0.3,0.7,0.4,0.8,0.4c0.4,0.1,0.7,0.1,1.1,0.1c0.6,0,1-0.1,1.3-0.4c0.3-0.3,0.4-0.6,0.4-1c0-0.3-0.1-0.6-0.3-0.7
		c-0.3-0.2-0.7-0.4-1.3-0.5l-0.3-0.1c-0.5-0.1-0.9-0.3-1.2-0.5c-0.3-0.3-0.5-0.6-0.5-1c0-0.6,0.2-1.1,0.6-1.4
		c0.4-0.3,0.9-0.4,1.5-0.4c0.5,0,0.8,0,1,0.1C62.8-17,63-16.9,63.3-16.8 M66-11.4h1.8v-7.1l-2.2,0.9v-0.5l2.2-0.9h0.5v7.6H70v0.4H66
		V-11.4 M74.3-19h0.6L72-10h-0.6L74.3-19 M79.8-16c-0.4-0.5-0.8-0.7-1.5-0.7s-1.1,0.2-1.5,0.7c-0.4,0.5-0.5,1.1-0.5,2
		c0,0.9,0.2,1.5,0.5,2c0.4,0.5,0.8,0.7,1.5,0.7s1.1-0.2,1.5-0.7c0.4-0.5,0.5-1.2,0.5-2C80.4-14.8,80.2-15.5,79.8-16 M78.4-17.2
		c0.8,0,1.4,0.3,1.8,0.9c0.4,0.6,0.7,1.3,0.7,2.3c0,1-0.2,1.8-0.7,2.3c-0.4,0.6-1.1,0.9-1.8,0.9c-0.8,0-1.4-0.3-1.8-0.9
		c-0.4-0.6-0.7-1.4-0.7-2.3c0-1,0.2-1.7,0.7-2.3C77-16.9,77.6-17.2,78.4-17.2 M86.4-16.8v0.5c-0.4-0.2-0.6-0.3-0.7-0.3
		c-0.3-0.1-0.6-0.1-0.9-0.1c-0.6,0-1,0.1-1.3,0.3c-0.3,0.2-0.4,0.5-0.4,1c0,0.3,0.1,0.6,0.4,0.7c0.2,0.2,0.6,0.3,1,0.4l0.3,0.1
		c0.6,0.1,1,0.3,1.3,0.5c0.3,0.3,0.5,0.6,0.5,1c0,0.6-0.2,1-0.5,1.3c-0.4,0.3-0.9,0.5-1.7,0.5c-0.4,0-0.8,0-1-0.1
		c-0.3-0.1-0.6-0.2-0.9-0.3v-0.6c0.4,0.3,0.7,0.4,0.8,0.4c0.4,0.1,0.7,0.1,1.1,0.1c0.6,0,1-0.1,1.3-0.4c0.3-0.3,0.4-0.6,0.4-1
		c0-0.3-0.1-0.6-0.3-0.7c-0.3-0.2-0.7-0.4-1.3-0.5l-0.3-0.1c-0.5-0.1-0.9-0.3-1.2-0.5c-0.3-0.3-0.5-0.6-0.5-1c0-0.6,0.2-1.1,0.6-1.4
		c0.4-0.3,0.9-0.4,1.5-0.4c0.5,0,0.8,0,1,0.1C85.9-17,86.2-16.9,86.4-16.8 M89.1-11.4h1.8v-7.1l-2.2,0.9v-0.5l2.2-0.9h0.5v7.6h1.8
		v0.4h-4.1V-11.4 M100-8.8v0.4h-5.7v-0.4H100 M101.2-19.4h0.5v8.4h-0.5V-19.4 M104.2-17h0.5v6h-0.5V-17 M104.2-19.4h0.5v0.7h-0.5
		V-19.4 M111.3-15.6v-3.7h0.5v8.4h-0.5v-1.4c-0.2,0.5-0.5,0.9-0.8,1.1c-0.4,0.3-0.8,0.5-1.1,0.5c-0.7,0-1.3-0.3-1.8-0.9
		c-0.5-0.6-0.7-1.3-0.7-2.3s0.2-1.7,0.7-2.3c0.5-0.6,1.1-0.9,1.8-0.9c0.4,0,0.7,0.1,1.1,0.4C110.8-16.5,111.1-16.2,111.3-15.6
		 M108-16.1c-0.4,0.4-0.6,1.1-0.6,2.1s0.2,1.7,0.6,2.1c0.4,0.4,0.9,0.6,1.3,0.6c0.4,0,0.9-0.2,1.3-0.6c0.4-0.4,0.6-1.1,0.6-2.1
		s-0.2-1.7-0.6-2.1c-0.4-0.4-0.8-0.6-1.3-0.6C108.9-16.7,108.5-16.5,108-16.1 M116.7-14.4c-0.8,0-1.4,0.1-1.7,0.4
		c-0.3,0.3-0.5,0.7-0.5,1.2c0,0.5,0.1,0.9,0.4,1.1c0.3,0.2,0.6,0.3,1,0.3c0.8,0,1.3-0.3,1.6-1c0.3-0.6,0.5-1.3,0.5-1.8v-0.4H116.7
		 M118.5-14.4v3.4H118v-1.6c-0.3,0.8-0.6,1.3-1.1,1.5c-0.4,0.2-0.7,0.3-1.1,0.3c-0.6,0-1.1-0.2-1.4-0.5c-0.3-0.3-0.5-0.8-0.5-1.4
		s0.2-1.1,0.7-1.5s1.2-0.6,2.2-0.6h1.2v-0.1c0-0.5-0.2-1-0.5-1.3c-0.3-0.3-0.8-0.5-1.5-0.5c-0.3,0-0.7,0.1-1,0.2
		c-0.2,0.1-0.5,0.3-0.9,0.5v-0.5c0.3-0.2,0.6-0.3,0.9-0.4c0.4-0.1,0.8-0.2,1.1-0.2c0.7,0,1.3,0.2,1.8,0.6
		C118.3-16.2,118.5-15.5,118.5-14.4 M124.3-16.6c-0.1,0-0.2-0.1-0.3-0.1c-0.1,0-0.3,0-0.5,0c-0.6,0-1.1,0.2-1.5,0.7
		c-0.3,0.4-0.5,1-0.5,1.9v3.2H121v-6h0.5v1.1c0.2-0.3,0.4-0.6,0.7-0.8c0.4-0.3,0.9-0.5,1.4-0.5c0.1,0,0.3,0,0.4,0c0.1,0,0.2,0,0.3,0
		V-16.6"/>
</g>
<g transform="matrix(2,0,0,2,52.3466,1144)">
</g>
<g transform="matrix(2,0,0,2,52.3466,1144)">
</g>
<g transform="matrix(2,0,0,2,0.0044,1194)">
</g>
<g transform="matrix(2,0,0,2,0.0044,1194)">
</g>
<g transform="matrix(2,0,0,2,0.0044,1194)">
</g>
<g transform="matrix(2,0,0,2,0.0044,1194)">
	<ellipse class="st4" cx="478.6" cy="-415.3" rx="55.4" ry="17.5"/>
</g>
<g transform="matrix(2,0,0,2,0.0044,1194)">
</g>
<g transform="matrix(2,0,0,2,1629.47,382)">
</g>
<g transform="matrix(2,0,0,2,1629.47,382)">
</g>
<g transform="matrix(2,0,0,2,1629.47,382)">
	<path vector-effect="none" class="st1" d="M-363.9-10c0.2-0.5,0.5-0.9,0.9-1.1c0.4-0.2,0.8-0.4,1.4-0.4c0.5,0,0.9,0.2,1.3,0.5
		c0.3,0.4,0.5,1,0.5,2v3.6h-0.5v-3.6c0-0.8-0.1-1.4-0.3-1.7c-0.2-0.3-0.5-0.4-0.9-0.4c-0.6,0-1,0.2-1.5,0.5c-0.5,0.4-0.7,1-0.7,1.8
		v3.4h-0.5v-3.6c0-0.8-0.1-1.4-0.3-1.7c-0.2-0.3-0.5-0.5-0.9-0.5c-0.6,0-1,0.2-1.5,0.5c-0.5,0.4-0.7,1-0.7,1.8v3.4h-0.5v-6h0.5v1.1
		c0.2-0.4,0.5-0.7,0.8-0.9c0.4-0.2,0.8-0.3,1.4-0.3c0.4,0,0.7,0.1,1,0.3C-364.3-11-364.1-10.6-363.9-10 M-355.1-8.7
		c-0.8,0-1.4,0.1-1.7,0.4c-0.3,0.3-0.5,0.7-0.5,1.2c0,0.5,0.1,0.9,0.4,1.1c0.3,0.2,0.6,0.3,1,0.3c0.8,0,1.3-0.3,1.6-1
		c0.3-0.6,0.5-1.3,0.5-1.8v-0.4H-355.1 M-353.3-8.8v3.4h-0.5V-7c-0.3,0.8-0.6,1.3-1.1,1.5c-0.4,0.2-0.7,0.3-1.1,0.3
		c-0.6,0-1.1-0.2-1.4-0.5c-0.3-0.3-0.5-0.8-0.5-1.4s0.2-1.1,0.7-1.5c0.4-0.4,1.2-0.6,2.2-0.6h1.2v-0.1c0-0.5-0.2-1-0.5-1.3
		c-0.3-0.3-0.8-0.5-1.5-0.5c-0.3,0-0.7,0.1-1,0.2c-0.2,0.1-0.5,0.3-0.9,0.5v-0.5c0.3-0.2,0.6-0.3,0.9-0.4c0.4-0.1,0.8-0.2,1.1-0.2
		c0.7,0,1.3,0.2,1.8,0.6C-353.4-10.5-353.3-9.8-353.3-8.8 M-350.3-6.7v3.6h-0.5v-8.3h0.5v1.4c0.2-0.5,0.5-0.9,0.7-1.1
		c0.4-0.3,0.8-0.4,1.2-0.4c0.7,0,1.3,0.3,1.8,0.9c0.5,0.6,0.7,1.3,0.7,2.3s-0.2,1.7-0.7,2.3c-0.5,0.6-1.1,0.9-1.8,0.9
		c-0.4,0-0.8-0.2-1.2-0.5C-349.8-5.8-350.1-6.2-350.3-6.7 M-347-6.2c0.4-0.4,0.6-1.1,0.6-2.1s-0.2-1.7-0.6-2.1
		c-0.4-0.4-0.9-0.6-1.3-0.6c-0.4,0-0.9,0.2-1.3,0.6c-0.4,0.4-0.6,1.1-0.6,2.1s0.2,1.7,0.6,2.1c0.4,0.4,0.8,0.6,1.3,0.6
		C-347.9-5.6-347.5-5.8-347-6.2 M-339.4-3.2v0.4h-5.7v-0.4H-339.4 M-334.3-8.4c0-0.8-0.2-1.5-0.5-1.9c-0.3-0.5-0.8-0.7-1.4-0.7
		c-0.6,0-1.1,0.2-1.4,0.7c-0.3,0.5-0.5,1.1-0.5,1.9c0,0.8,0.2,1.5,0.5,1.9c0.3,0.5,0.8,0.7,1.4,0.7c0.6,0,1.1-0.2,1.4-0.7
		C-334.5-6.9-334.3-7.6-334.3-8.4 M-333.8-6.1c0,1.3-0.2,2.1-0.7,2.5c-0.5,0.4-1.1,0.6-1.8,0.6c-0.4,0-0.7,0-1-0.1
		c-0.3-0.1-0.6-0.1-0.9-0.3v-0.6c0.3,0.2,0.6,0.3,0.9,0.4c0.3,0.1,0.6,0.1,0.9,0.1c0.6,0,1.1-0.1,1.5-0.4c0.4-0.3,0.6-0.9,0.6-2.1
		v-1c-0.2,0.4-0.4,0.7-0.6,1c-0.4,0.4-0.8,0.5-1.3,0.5c-0.8,0-1.4-0.3-1.8-0.8c-0.4-0.5-0.6-1.3-0.6-2.3c0-1,0.2-1.7,0.6-2.3
		c0.4-0.5,1-0.8,1.8-0.8c0.5,0,0.9,0.2,1.3,0.5c0.3,0.2,0.5,0.6,0.7,1v-1.3h0.5V-6.1 M-329.7-4.8c-0.2,0.5-0.5,0.9-0.7,1.1
		c-0.3,0.3-0.7,0.4-1,0.4h-0.7v-0.4h0.6c0.3,0,0.5-0.1,0.7-0.3c0.3-0.2,0.5-0.5,0.6-1l0.2-0.5l-2.4-6h0.5l2.1,5.4l2.1-5.4h0.5
		L-329.7-4.8 M-321.6-10.3c-0.4-0.5-0.8-0.7-1.5-0.7c-0.6,0-1.1,0.2-1.5,0.7c-0.4,0.5-0.5,1.1-0.5,2c0,0.9,0.2,1.5,0.5,2
		c0.4,0.5,0.8,0.7,1.5,0.7c0.6,0,1.1-0.2,1.5-0.7c0.4-0.5,0.5-1.2,0.5-2C-321.1-9.2-321.3-9.8-321.6-10.3 M-323.1-11.5
		c0.8,0,1.4,0.3,1.8,0.9c0.4,0.6,0.7,1.3,0.7,2.3c0,1-0.2,1.8-0.7,2.3c-0.4,0.6-1.1,0.9-1.8,0.9c-0.8,0-1.4-0.3-1.8-0.9
		c-0.4-0.6-0.7-1.4-0.7-2.3c0-1,0.2-1.7,0.7-2.3C-324.5-11.2-323.8-11.5-323.1-11.5 M-315.2-10.9c-0.1,0-0.2-0.1-0.3-0.1
		c-0.1,0-0.3,0-0.5,0c-0.6,0-1.1,0.2-1.5,0.7c-0.3,0.4-0.5,1-0.5,1.9v3.2h-0.5v-6h0.5v1.1c0.2-0.3,0.4-0.6,0.7-0.8
		c0.4-0.3,0.9-0.5,1.4-0.5c0.1,0,0.3,0,0.4,0c0.1,0,0.2,0,0.3,0V-10.9 M-309.6-3.2v0.4h-5.7v-0.4H-309.6 M-306.3-13.1
		c-0.7,0-1.1,0.3-1.5,1c-0.3,0.6-0.5,1.6-0.5,2.8c0,1.2,0.2,2.1,0.5,2.8c0.3,0.6,0.8,1,1.5,1c0.7,0,1.2-0.3,1.5-1
		c0.3-0.6,0.5-1.6,0.5-2.8c0-1.2-0.2-2.1-0.5-2.8C-305.1-12.7-305.6-13.1-306.3-13.1 M-306.3-13.5c0.8,0,1.4,0.3,1.8,1
		c0.5,0.6,0.7,1.7,0.7,3.2s-0.2,2.6-0.7,3.2c-0.4,0.6-1.1,0.9-1.8,0.9c-0.8,0-1.4-0.3-1.8-0.9c-0.4-0.6-0.7-1.7-0.7-3.2
		s0.2-2.6,0.7-3.2C-307.6-13.2-307-13.5-306.3-13.5"/>
</g>
<g transform="matrix(2,0,0,2,1629.47,382)">
</g>
<g transform="matrix(2,0,0,2,1629.47,382)">
</g>
<g transform="matrix(2,0,0,2,0.0044,1194)">
</g>
<g transform="matrix(2,0,0,2,0.0044,1194)">
</g>
<g transform="matrix(2,0,0,2,0.0044,1194)">
</g>
<g transform="matrix(2,0,0,2,0.0044,1194)">
	<ellipse class="st2" cx="256.5" cy="-165" rx="80.1" ry="17.5"/>
</g>
<g transform="matrix(2,0,0,2,0.0044,1194)">
</g>
<g transform="matrix(2,0,0,2,556.247,890)">
</g>
<g transform="matrix(2,0,0,2,556.247,890)">
</g>
<g transform="matrix(2,0,0,2,556.247,890)">
	<path vector-effect="none" class="st1" d="M-74.3-17.4h0.5V-9h-0.5V-17.4 M-66.6-12.3v0.3h-4.6c0,1,0.2,1.6,0.6,2
		c0.4,0.4,1,0.6,1.8,0.6c0.2,0,0.5,0,0.9-0.1c0.4-0.1,0.7-0.2,1.1-0.4v0.5C-67.2-9.2-67.6-9-67.9-9c-0.4,0.1-0.7,0.1-0.9,0.1
		c-0.9,0-1.6-0.3-2.1-0.8c-0.5-0.5-0.8-1.3-0.8-2.3c0-1.1,0.2-1.9,0.7-2.4c0.5-0.5,1.1-0.8,2-0.8c0.8,0,1.4,0.3,1.8,0.8
		C-66.8-13.8-66.6-13.1-66.6-12.3 M-67.1-12.4c0-0.8-0.2-1.5-0.6-1.8c-0.3-0.3-0.7-0.5-1.3-0.5c-0.6,0-1.1,0.2-1.5,0.5
		c-0.4,0.3-0.6,0.9-0.7,1.8H-67.1 M-62-17.4v0.4h-0.7c-0.4,0-0.6,0.1-0.8,0.3c-0.2,0.2-0.4,0.6-0.4,1.1v0.5h1.6v0.4h-1.6V-9h-0.5
		v-5.6h-0.9V-15h0.9v-0.4c0-0.7,0.2-1.2,0.5-1.5c0.3-0.3,0.7-0.5,1.2-0.5H-62 M-60.2-16.7v1.7h2v0.4h-2v3.6c0,0.5,0.1,0.8,0.2,1
		c0.3,0.4,0.6,0.6,1.1,0.6h0.8V-9h-0.8c-0.5,0-0.9-0.1-1.3-0.4c-0.3-0.3-0.5-0.8-0.5-1.6v-3.6h-0.7V-15h0.7v-1.7H-60.2 M-52-6.8v0.4
		h-5.7v-0.4H-52 M-47.3-14c-0.4-0.5-0.8-0.7-1.5-0.7s-1.1,0.2-1.5,0.7c-0.4,0.5-0.5,1.1-0.5,2c0,0.9,0.2,1.5,0.5,2
		c0.4,0.5,0.8,0.7,1.5,0.7s1.1-0.2,1.5-0.7c0.4-0.5,0.5-1.2,0.5-2C-46.7-12.8-46.9-13.5-47.3-14 M-48.7-15.2c0.8,0,1.4,0.3,1.8,0.9
		c0.4,0.6,0.7,1.3,0.7,2.3c0,1-0.2,1.8-0.7,2.3c-0.4,0.6-1.1,0.9-1.8,0.9c-0.8,0-1.4-0.3-1.8-0.9c-0.4-0.6-0.7-1.4-0.7-2.3
		c0-1,0.2-1.7,0.7-2.3C-50.1-14.9-49.5-15.2-48.7-15.2 M-40.7-14.8v0.5c-0.4-0.2-0.6-0.3-0.7-0.3c-0.3-0.1-0.6-0.1-0.9-0.1
		c-0.6,0-1,0.1-1.3,0.3c-0.3,0.2-0.4,0.5-0.4,1c0,0.3,0.1,0.6,0.4,0.7c0.2,0.2,0.6,0.3,1,0.4l0.3,0.1c0.6,0.1,1,0.3,1.3,0.5
		c0.3,0.3,0.5,0.6,0.5,1c0,0.6-0.2,1-0.5,1.3c-0.4,0.3-0.9,0.5-1.7,0.5c-0.4,0-0.8,0-1-0.1C-44-9-44.3-9.1-44.6-9.2v-0.6
		c0.4,0.3,0.7,0.4,0.8,0.4c0.4,0.1,0.7,0.1,1.1,0.1c0.6,0,1-0.1,1.3-0.4c0.3-0.3,0.4-0.6,0.4-1c0-0.3-0.1-0.6-0.3-0.7
		c-0.3-0.2-0.7-0.4-1.3-0.5l-0.3-0.1c-0.5-0.1-0.9-0.3-1.2-0.5c-0.3-0.3-0.5-0.6-0.5-1c0-0.6,0.2-1.1,0.6-1.4
		c0.4-0.3,0.9-0.4,1.5-0.4c0.5,0,0.8,0,1,0.1C-41.2-15-41-14.9-40.7-14.8 M-38-9.4h1.8v-7.1l-2.2,0.9v-0.5l2.2-0.9h0.5v7.6h1.8V-9
		H-38V-9.4 M-29.7-17h0.6L-32-8h-0.6L-29.7-17 M-24.2-14c-0.4-0.5-0.8-0.7-1.5-0.7c-0.6,0-1.1,0.2-1.5,0.7c-0.4,0.5-0.5,1.1-0.5,2
		c0,0.9,0.2,1.5,0.5,2c0.4,0.5,0.8,0.7,1.5,0.7c0.6,0,1.1-0.2,1.5-0.7c0.4-0.5,0.5-1.2,0.5-2C-23.6-12.8-23.8-13.5-24.2-14
		 M-25.6-15.2c0.8,0,1.4,0.3,1.8,0.9c0.4,0.6,0.7,1.3,0.7,2.3c0,1-0.2,1.8-0.7,2.3c-0.4,0.6-1.1,0.9-1.8,0.9c-0.8,0-1.4-0.3-1.8-0.9
		c-0.4-0.6-0.7-1.4-0.7-2.3c0-1,0.2-1.7,0.7-2.3C-27-14.9-26.4-15.2-25.6-15.2 M-17.6-14.8v0.5c-0.4-0.2-0.6-0.3-0.7-0.3
		c-0.3-0.1-0.6-0.1-0.9-0.1c-0.6,0-1,0.1-1.3,0.3c-0.3,0.2-0.4,0.5-0.4,1c0,0.3,0.1,0.6,0.4,0.7c0.2,0.2,0.6,0.3,1,0.4l0.3,0.1
		c0.6,0.1,1,0.3,1.3,0.5c0.3,0.3,0.5,0.6,0.5,1c0,0.6-0.2,1-0.5,1.3c-0.4,0.3-0.9,0.5-1.7,0.5c-0.4,0-0.8,0-1-0.1
		c-0.3-0.1-0.6-0.2-0.9-0.3v-0.6c0.4,0.3,0.7,0.4,0.8,0.4c0.4,0.1,0.7,0.1,1.1,0.1c0.6,0,1-0.1,1.3-0.4c0.3-0.3,0.4-0.6,0.4-1
		c0-0.3-0.1-0.6-0.3-0.7c-0.3-0.2-0.7-0.4-1.3-0.5l-0.3-0.1c-0.5-0.1-0.9-0.3-1.2-0.5c-0.3-0.3-0.5-0.6-0.5-1c0-0.6,0.2-1.1,0.6-1.4
		c0.4-0.3,0.9-0.4,1.5-0.4c0.5,0,0.8,0,1,0.1C-18.1-15-17.8-14.9-17.6-14.8 M-14.9-9.4h1.8v-7.1l-2.2,0.9v-0.5l2.2-0.9h0.5v7.6h1.8
		V-9h-4.1V-9.4 M-4-6.8v0.4h-5.7v-0.4H-4 M0.6-14.8v0.5c-0.4-0.2-0.6-0.3-0.7-0.3c-0.3-0.1-0.6-0.1-0.9-0.1c-0.6,0-1,0.1-1.3,0.3
		c-0.3,0.2-0.4,0.5-0.4,1c0,0.3,0.1,0.6,0.4,0.7c0.2,0.2,0.6,0.3,1,0.4l0.3,0.1c0.6,0.1,1,0.3,1.3,0.5c0.3,0.3,0.5,0.6,0.5,1
		c0,0.6-0.2,1-0.5,1.3C0-9-0.6-8.8-1.4-8.8c-0.4,0-0.8,0-1-0.1C-2.6-9-2.9-9.1-3.2-9.2v-0.6c0.4,0.3,0.7,0.4,0.8,0.4
		C-2-9.3-1.7-9.3-1.3-9.3c0.6,0,1-0.1,1.3-0.4c0.3-0.3,0.4-0.6,0.4-1c0-0.3-0.1-0.6-0.3-0.7c-0.3-0.2-0.7-0.4-1.3-0.5l-0.3-0.1
		C-2-12-2.4-12.2-2.7-12.4c-0.3-0.3-0.5-0.6-0.5-1c0-0.6,0.2-1.1,0.6-1.4c0.4-0.3,0.9-0.4,1.5-0.4c0.5,0,0.8,0,1,0.1
		C0.2-15,0.4-14.9,0.6-14.8 M7.6-12.3v0.3H3c0,1,0.2,1.6,0.6,2c0.4,0.4,1,0.6,1.8,0.6c0.2,0,0.5,0,0.9-0.1C6.7-9.5,7-9.6,7.4-9.8
		v0.5C7-9.2,6.6-9,6.3-9C5.9-8.9,5.6-8.8,5.4-8.8c-0.9,0-1.6-0.3-2.1-0.8c-0.5-0.5-0.8-1.3-0.8-2.3c0-1.1,0.2-1.9,0.7-2.4
		c0.5-0.5,1.1-0.8,2-0.8c0.8,0,1.4,0.3,1.8,0.8C7.4-13.8,7.6-13.1,7.6-12.3 M7.1-12.4c0-0.8-0.2-1.5-0.6-1.8
		c-0.3-0.3-0.7-0.5-1.3-0.5c-0.6,0-1.1,0.2-1.5,0.5c-0.4,0.3-0.6,0.9-0.7,1.8H7.1 M14.2-12.6V-9h-0.5v-3.6c0-0.8-0.1-1.3-0.4-1.6
		c-0.3-0.3-0.6-0.5-1.1-0.5c-0.6,0-1.1,0.2-1.5,0.5c-0.4,0.3-0.6,0.9-0.6,1.8V-9H9.7v-6h0.5v1.1c0.2-0.4,0.4-0.6,0.7-0.8
		c0.4-0.3,0.9-0.4,1.4-0.4c0.6,0,1.1,0.2,1.4,0.6C14-14.2,14.2-13.5,14.2-12.6 M20-14.8v0.5c-0.4-0.2-0.6-0.3-0.7-0.3
		c-0.3-0.1-0.6-0.1-0.9-0.1c-0.6,0-1,0.1-1.3,0.3c-0.3,0.2-0.4,0.5-0.4,1c0,0.3,0.1,0.6,0.4,0.7c0.2,0.2,0.6,0.3,1,0.4l0.3,0.1
		c0.6,0.1,1,0.3,1.3,0.5c0.3,0.3,0.5,0.6,0.5,1c0,0.6-0.2,1-0.5,1.3c-0.4,0.3-0.9,0.5-1.7,0.5c-0.4,0-0.8,0-1-0.1
		c-0.3-0.1-0.6-0.2-0.9-0.3v-0.6c0.4,0.3,0.7,0.4,0.8,0.4c0.4,0.1,0.7,0.1,1.1,0.1c0.6,0,1-0.1,1.3-0.4c0.3-0.3,0.4-0.6,0.4-1
		c0-0.3-0.1-0.6-0.3-0.7c-0.3-0.2-0.7-0.4-1.3-0.5l-0.3-0.1c-0.5-0.1-0.9-0.3-1.2-0.5c-0.3-0.3-0.5-0.6-0.5-1c0-0.6,0.2-1.1,0.6-1.4
		c0.4-0.3,0.9-0.4,1.5-0.4c0.5,0,0.8,0,1,0.1C19.6-15,19.8-14.9,20-14.8 M25.9-14c-0.4-0.5-0.8-0.7-1.5-0.7c-0.6,0-1.1,0.2-1.5,0.7
		c-0.4,0.5-0.5,1.1-0.5,2c0,0.9,0.2,1.5,0.5,2c0.4,0.5,0.8,0.7,1.5,0.7c0.6,0,1.1-0.2,1.5-0.7c0.4-0.5,0.5-1.2,0.5-2
		C26.5-12.8,26.3-13.5,25.9-14 M24.5-15.2c0.8,0,1.4,0.3,1.8,0.9C26.7-13.7,27-13,27-12c0,1-0.2,1.8-0.7,2.3
		c-0.4,0.6-1.1,0.9-1.8,0.9c-0.8,0-1.4-0.3-1.8-0.9C22.2-10.2,22-11,22-12c0-1,0.2-1.7,0.7-2.3C23.1-14.9,23.7-15.2,24.5-15.2
		 M32.3-14.6c-0.1,0-0.2-0.1-0.3-0.1c-0.1,0-0.3,0-0.5,0c-0.6,0-1.1,0.2-1.5,0.7c-0.3,0.4-0.5,1-0.5,1.9V-9h-0.5v-6h0.5v1.1
		c0.2-0.3,0.4-0.6,0.7-0.8c0.4-0.3,0.9-0.5,1.4-0.5c0.1,0,0.3,0,0.4,0c0.1,0,0.2,0,0.3,0V-14.6"/>
</g>
<g transform="matrix(2,0,0,2,556.247,890)">
</g>
<g transform="matrix(2,0,0,2,556.247,890)">
</g>
<g transform="matrix(2,0,0,2,0.0044,1194)">
</g>
<g transform="matrix(2,0,0,2,0.0044,1194)">
</g>
<g transform="matrix(2,0,0,2,0.0044,1194)">
</g>
<g transform="matrix(2,0,0,2,0.0044,1194)">
	<ellipse class="st2" cx="1037.6" cy="-159" rx="63.2" ry="17.5"/>
</g>
<g transform="matrix(2,0,0,2,0.0044,1194)">
</g>
<g transform="matrix(2,0,0,2,3679.03,890)">
</g>
<g transform="matrix(2,0,0,2,3679.03,890)">
</g>
<g transform="matrix(2,0,0,2,3679.03,890)">
	<path vector-effect="none" class="st1" d="M-841.8-9h0.5l2,5.5l2-5.5h0.5l-2.2,6h-0.6L-841.8-9 M-830-6.3v0.3h-4.6
		c0,1,0.2,1.6,0.6,2c0.4,0.4,1,0.6,1.8,0.6c0.2,0,0.5,0,0.9-0.1c0.4-0.1,0.7-0.2,1.1-0.4v0.5c-0.4,0.2-0.7,0.3-1.1,0.4
		c-0.4,0.1-0.7,0.1-0.9,0.1c-0.9,0-1.6-0.3-2.1-0.8c-0.5-0.5-0.8-1.3-0.8-2.3c0-1.1,0.2-1.9,0.7-2.4c0.5-0.5,1.1-0.8,2-0.8
		c0.8,0,1.4,0.3,1.8,0.8C-830.2-7.8-830-7.1-830-6.3 M-830.5-6.4c0-0.8-0.2-1.5-0.6-1.8c-0.3-0.3-0.7-0.5-1.3-0.5
		c-0.6,0-1.1,0.2-1.5,0.5c-0.4,0.3-0.6,0.9-0.7,1.8H-830.5 M-828-11.4h0.5V-3h-0.5V-11.4 M-821.3-8c-0.4-0.5-0.8-0.7-1.5-0.7
		c-0.6,0-1.1,0.2-1.5,0.7c-0.4,0.5-0.5,1.1-0.5,2c0,0.9,0.2,1.5,0.5,2c0.4,0.5,0.8,0.7,1.5,0.7c0.6,0,1.1-0.2,1.5-0.7
		c0.4-0.5,0.5-1.2,0.5-2C-820.8-6.8-821-7.5-821.3-8 M-822.8-9.2c0.8,0,1.4,0.3,1.8,0.9c0.4,0.6,0.7,1.3,0.7,2.3
		c0,1-0.2,1.8-0.7,2.3c-0.4,0.6-1.1,0.9-1.8,0.9c-0.8,0-1.4-0.3-1.8-0.9c-0.4-0.6-0.7-1.4-0.7-2.3c0-1,0.2-1.7,0.7-2.3
		C-824.2-8.9-823.6-9.2-822.8-9.2 M-814.2-7.6v-3.7h0.5V-3h-0.5v-1.4c-0.2,0.5-0.5,0.9-0.8,1.1c-0.4,0.3-0.8,0.5-1.1,0.5
		c-0.7,0-1.3-0.3-1.8-0.9c-0.5-0.6-0.7-1.3-0.7-2.3s0.2-1.7,0.7-2.3c0.5-0.6,1.1-0.9,1.8-0.9c0.4,0,0.7,0.1,1.1,0.4
		C-814.7-8.5-814.4-8.2-814.2-7.6 M-817.4-8.1c-0.4,0.4-0.6,1.1-0.6,2.1s0.2,1.7,0.6,2.1c0.4,0.4,0.9,0.6,1.3,0.6
		c0.4,0,0.9-0.2,1.3-0.6c0.4-0.4,0.6-1.1,0.6-2.1s-0.2-1.7-0.6-2.1c-0.4-0.4-0.8-0.6-1.3-0.6C-816.6-8.7-817-8.5-817.4-8.1
		 M-809.2-2.4c-0.2,0.5-0.5,0.9-0.7,1.1c-0.3,0.3-0.7,0.4-1,0.4h-0.7v-0.4h0.6c0.3,0,0.5-0.1,0.7-0.3c0.3-0.2,0.5-0.5,0.6-1l0.2-0.5
		l-2.4-6h0.5l2.1,5.4l2.1-5.4h0.5L-809.2-2.4 M-800.2-6.6V-3h-0.5v-3.6c0-0.8-0.1-1.3-0.4-1.6c-0.3-0.3-0.6-0.5-1.1-0.5
		c-0.6,0-1.1,0.2-1.5,0.5c-0.4,0.3-0.6,0.9-0.6,1.8V-3h-0.5v-6h0.5v1.1c0.2-0.4,0.4-0.6,0.7-0.8c0.4-0.3,0.9-0.4,1.4-0.4
		c0.6,0,1.1,0.2,1.4,0.6C-800.4-8.2-800.2-7.5-800.2-6.6 M-793.1-6.3v0.3h-4.6c0,1,0.2,1.6,0.6,2c0.4,0.4,1,0.6,1.8,0.6
		c0.2,0,0.5,0,0.9-0.1c0.4-0.1,0.7-0.2,1.1-0.4v0.5c-0.4,0.2-0.7,0.3-1.1,0.4c-0.4,0.1-0.7,0.1-0.9,0.1c-0.9,0-1.6-0.3-2.1-0.8
		c-0.5-0.5-0.8-1.3-0.8-2.3c0-1.1,0.2-1.9,0.7-2.4c0.5-0.5,1.1-0.8,2-0.8c0.8,0,1.4,0.3,1.8,0.8C-793.3-7.8-793.1-7.1-793.1-6.3
		 M-793.6-6.4c0-0.8-0.2-1.5-0.6-1.8c-0.3-0.3-0.7-0.5-1.3-0.5c-0.6,0-1.1,0.2-1.5,0.5c-0.4,0.3-0.6,0.9-0.7,1.8H-793.6 M-786.6-0.8
		v0.4h-5.7v-0.4H-786.6 M-782.2-8.6c-0.1,0-0.2-0.1-0.3-0.1c-0.1,0-0.3,0-0.5,0c-0.6,0-1.1,0.2-1.5,0.7c-0.3,0.4-0.5,1-0.5,1.9V-3
		h-0.5v-6h0.5v1.1c0.2-0.3,0.4-0.6,0.7-0.8c0.4-0.3,0.9-0.5,1.4-0.5c0.1,0,0.3,0,0.4,0c0.1,0,0.2,0,0.3,0V-8.6 M-781-9h0.5v6h-0.5
		V-9 M-781-11.4h0.5v0.7h-0.5V-11.4 M-773.9-6.1c0-0.8-0.2-1.5-0.5-1.9c-0.3-0.5-0.8-0.7-1.4-0.7c-0.6,0-1.1,0.2-1.4,0.7
		c-0.3,0.5-0.5,1.1-0.5,1.9c0,0.8,0.2,1.5,0.5,1.9c0.3,0.5,0.8,0.7,1.4,0.7c0.6,0,1.1-0.2,1.4-0.7C-774.1-4.6-773.9-5.2-773.9-6.1
		 M-773.4-3.8c0,1.3-0.2,2.1-0.7,2.5c-0.5,0.4-1.1,0.6-1.8,0.6c-0.4,0-0.7,0-1-0.1c-0.3-0.1-0.6-0.1-0.9-0.3v-0.6
		c0.3,0.2,0.6,0.3,0.9,0.4c0.3,0.1,0.6,0.1,0.9,0.1c0.6,0,1.1-0.1,1.5-0.4c0.4-0.3,0.6-0.9,0.6-2.1v-1c-0.2,0.4-0.4,0.7-0.6,1
		c-0.4,0.4-0.8,0.5-1.3,0.5c-0.8,0-1.4-0.3-1.8-0.8c-0.4-0.5-0.6-1.3-0.6-2.3c0-1,0.2-1.7,0.6-2.3c0.4-0.5,1-0.8,1.8-0.8
		c0.5,0,0.9,0.2,1.3,0.5c0.3,0.2,0.5,0.6,0.7,1V-9h0.5V-3.8 M-766.8-6.6V-3h-0.5v-3.6c0-0.8-0.1-1.3-0.4-1.6
		c-0.3-0.3-0.7-0.5-1.2-0.5c-0.6,0-1.1,0.2-1.5,0.5c-0.4,0.4-0.5,0.9-0.5,1.8V-3h-0.5v-8.4h0.5v3.5c0.1-0.3,0.3-0.6,0.6-0.8
		c0.3-0.3,0.8-0.4,1.5-0.4c0.6,0,1.1,0.2,1.4,0.6C-767-8.1-766.8-7.5-766.8-6.6 M-763.9-10.7V-9h2v0.4h-2V-5c0,0.5,0.1,0.8,0.2,1
		c0.3,0.4,0.6,0.6,1.1,0.6h0.8V-3h-0.8c-0.5,0-0.9-0.1-1.3-0.4c-0.3-0.3-0.5-0.8-0.5-1.6v-3.6h-0.7V-9h0.7v-1.7H-763.9"/>
</g>
<g transform="matrix(2,0,0,2,3679.03,890)">
</g>
<g transform="matrix(2,0,0,2,3679.03,890)">
</g>
<g transform="matrix(2,0,0,2,0.0044,1194)">
</g>
<g transform="matrix(2,0,0,2,0.0044,1194)">
</g>
<g transform="matrix(2,0,0,2,0.0044,1194)">
</g>
<g transform="matrix(2,0,0,2,0.0044,1194)">
	<ellipse class="st2" cx="836.6" cy="-156.5" rx="74.2" ry="17.5"/>
</g>
<g transform="matrix(2,0,0,2,0.0044,1194)">
</g>
<g transform="matrix(2,0,0,2,2629.83,890)">
</g>
<g transform="matrix(2,0,0,2,2629.83,890)">
</g>
<g transform="matrix(2,0,0,2,2629.83,890)">
	<path vector-effect="none" class="st1" d="M-526.9-6.5h4.7V-6l-4.3,5h4.3v0.4h-4.8V-1l4.3-5h-4.2V-6.5 M-515.8-3.8v0.3h-4.6
		c0,1,0.2,1.6,0.6,2c0.4,0.4,1,0.6,1.8,0.6c0.2,0,0.5,0,0.9-0.1c0.4-0.1,0.7-0.2,1.1-0.4v0.5c-0.4,0.2-0.7,0.3-1.1,0.4
		c-0.4,0.1-0.7,0.1-0.9,0.1c-0.9,0-1.6-0.3-2.1-0.8c-0.5-0.5-0.8-1.3-0.8-2.3c0-1.1,0.2-1.9,0.7-2.4c0.5-0.5,1.1-0.8,2-0.8
		c0.8,0,1.4,0.3,1.8,0.8C-516-5.3-515.8-4.6-515.8-3.8 M-516.3-3.9c0-0.8-0.2-1.5-0.6-1.8c-0.3-0.3-0.7-0.5-1.3-0.5
		c-0.6,0-1.1,0.2-1.5,0.5c-0.4,0.3-0.6,0.9-0.7,1.8H-516.3 M-509.7-5.1v-3.7h0.5v8.4h-0.5v-1.4c-0.2,0.5-0.5,0.9-0.8,1.1
		c-0.4,0.3-0.8,0.5-1.1,0.5c-0.7,0-1.3-0.3-1.8-0.9c-0.5-0.6-0.7-1.3-0.7-2.3s0.2-1.7,0.7-2.3c0.5-0.6,1.1-0.9,1.8-0.9
		c0.4,0,0.7,0.1,1.1,0.4C-510.2-6-509.9-5.7-509.7-5.1 M-513-5.6c-0.4,0.4-0.6,1.1-0.6,2.1s0.2,1.7,0.6,2.1c0.4,0.4,0.9,0.6,1.3,0.6
		c0.4,0,0.9-0.2,1.3-0.6c0.4-0.4,0.6-1.1,0.6-2.1s-0.2-1.7-0.6-2.1c-0.4-0.4-0.8-0.6-1.3-0.6C-512.1-6.2-512.5-6-513-5.6
		 M-502.4,1.7v0.4h-5.7V1.7H-502.4 M-497.1-6.2v0.5c-0.3-0.2-0.5-0.3-0.7-0.4c-0.3-0.1-0.7-0.2-1-0.2c-0.9,0-1.5,0.2-1.9,0.7
		s-0.6,1.1-0.6,2.1c0,0.9,0.2,1.6,0.6,2.1c0.4,0.4,1,0.7,1.9,0.7c0.3,0,0.6,0,0.8-0.1c0.3-0.1,0.6-0.2,0.8-0.3v0.5
		c-0.3,0.1-0.6,0.2-0.8,0.3c-0.3,0.1-0.6,0.1-0.9,0.1c-0.9,0-1.6-0.2-2.1-0.7c-0.5-0.5-0.8-1.3-0.8-2.4s0.3-2,0.8-2.4
		c0.5-0.5,1.2-0.7,2.1-0.7c0.3,0,0.6,0,0.9,0.1C-497.6-6.5-497.4-6.4-497.1-6.2 M-492.8-3.9c-0.8,0-1.4,0.1-1.7,0.4
		c-0.3,0.3-0.5,0.7-0.5,1.2c0,0.5,0.1,0.9,0.4,1.1c0.3,0.2,0.6,0.3,1,0.3c0.8,0,1.3-0.3,1.6-1c0.3-0.6,0.5-1.3,0.5-1.8v-0.4H-492.8
		 M-491-3.9v3.4h-0.5v-1.6c-0.3,0.8-0.6,1.3-1.1,1.5c-0.4,0.2-0.7,0.3-1.1,0.3c-0.6,0-1.1-0.2-1.4-0.5c-0.3-0.3-0.5-0.8-0.5-1.4
		s0.2-1.1,0.7-1.5s1.2-0.6,2.2-0.6h1.2v-0.1c0-0.5-0.2-1-0.5-1.3c-0.3-0.3-0.8-0.5-1.5-0.5c-0.3,0-0.7,0.1-1,0.2
		c-0.2,0.1-0.5,0.3-0.9,0.5v-0.5c0.3-0.2,0.6-0.3,0.9-0.4c0.4-0.1,0.8-0.2,1.1-0.2c0.7,0,1.3,0.2,1.8,0.6C-491.2-5.7-491-5-491-3.9
		 M-484.1-5.2c0.2-0.5,0.5-0.9,0.9-1.1c0.4-0.2,0.8-0.4,1.4-0.4c0.5,0,0.9,0.2,1.3,0.5c0.3,0.4,0.5,1,0.5,2v3.6h-0.5v-3.6
		c0-0.8-0.1-1.4-0.3-1.7s-0.5-0.4-0.9-0.4c-0.6,0-1,0.2-1.5,0.5c-0.5,0.4-0.7,1-0.7,1.8v3.4h-0.5v-3.6c0-0.8-0.1-1.4-0.3-1.7
		c-0.2-0.3-0.5-0.5-0.9-0.5c-0.6,0-1,0.2-1.5,0.5c-0.5,0.4-0.7,1-0.7,1.8v3.4h-0.5v-6h0.5v1.1c0.2-0.4,0.5-0.7,0.8-0.9
		c0.4-0.2,0.8-0.3,1.4-0.3c0.4,0,0.7,0.1,1,0.3C-484.5-6.1-484.3-5.8-484.1-5.2 M-473.1-3.8v0.3h-4.6c0,1,0.2,1.6,0.6,2
		c0.4,0.4,1,0.6,1.8,0.6c0.2,0,0.5,0,0.9-0.1c0.4-0.1,0.7-0.2,1.1-0.4v0.5c-0.4,0.2-0.7,0.3-1.1,0.4c-0.4,0.1-0.7,0.1-0.9,0.1
		c-0.9,0-1.6-0.3-2.1-0.8c-0.5-0.5-0.8-1.3-0.8-2.3c0-1.1,0.2-1.9,0.7-2.4c0.5-0.5,1.1-0.8,2-0.8c0.8,0,1.4,0.3,1.8,0.8
		C-473.3-5.3-473.1-4.6-473.1-3.8 M-473.6-3.9c0-0.8-0.2-1.5-0.6-1.8c-0.3-0.3-0.7-0.5-1.3-0.5c-0.6,0-1.1,0.2-1.5,0.5
		c-0.4,0.3-0.6,0.9-0.7,1.8H-473.6 M-467.7-6.1c-0.1,0-0.2-0.1-0.3-0.1c-0.1,0-0.3,0-0.5,0c-0.6,0-1.1,0.2-1.5,0.7
		c-0.3,0.4-0.5,1-0.5,1.9v3.2h-0.5v-6h0.5v1.1c0.2-0.3,0.4-0.6,0.7-0.8c0.4-0.3,0.9-0.5,1.4-0.5c0.1,0,0.3,0,0.4,0
		c0.1,0,0.2,0,0.3,0V-6.1 M-464.1-3.9c-0.8,0-1.4,0.1-1.7,0.4c-0.3,0.3-0.5,0.7-0.5,1.2c0,0.5,0.1,0.9,0.4,1.1
		c0.3,0.2,0.6,0.3,1,0.3c0.8,0,1.3-0.3,1.6-1c0.3-0.6,0.5-1.3,0.5-1.8v-0.4H-464.1 M-462.2-3.9v3.4h-0.5v-1.6
		c-0.3,0.8-0.6,1.3-1.1,1.5c-0.4,0.2-0.7,0.3-1.1,0.3c-0.6,0-1.1-0.2-1.4-0.5c-0.3-0.3-0.5-0.8-0.5-1.4s0.2-1.1,0.7-1.5
		c0.4-0.4,1.2-0.6,2.2-0.6h1.2v-0.1c0-0.5-0.2-1-0.5-1.3c-0.3-0.3-0.8-0.5-1.5-0.5c-0.3,0-0.7,0.1-1,0.2c-0.2,0.1-0.5,0.3-0.9,0.5
		v-0.5c0.3-0.2,0.6-0.3,0.9-0.4c0.4-0.1,0.8-0.2,1.1-0.2c0.7,0,1.3,0.2,1.8,0.6C-462.4-5.7-462.2-5-462.2-3.9 M-455.4,1.7v0.4h-5.7
		V1.7H-455.4 M-451.7-8.9v0.4h-0.7c-0.4,0-0.6,0.1-0.8,0.3c-0.2,0.2-0.4,0.6-0.4,1.1v0.5h1.6v0.4h-1.6v5.6h-0.5v-5.6h-0.9v-0.4h0.9
		v-0.4c0-0.7,0.2-1.2,0.5-1.5c0.3-0.3,0.7-0.5,1.2-0.5H-451.7 M-447.1-6.1c-0.1,0-0.2-0.1-0.3-0.1c-0.1,0-0.3,0-0.5,0
		c-0.6,0-1.1,0.2-1.5,0.7c-0.3,0.4-0.5,1-0.5,1.9v3.2h-0.5v-6h0.5v1.1c0.2-0.3,0.4-0.6,0.7-0.8c0.4-0.3,0.9-0.5,1.4-0.5
		c0.1,0,0.3,0,0.4,0c0.1,0,0.2,0,0.3,0V-6.1 M-442.3-5.5c-0.4-0.5-0.8-0.7-1.5-0.7s-1.1,0.2-1.5,0.7c-0.4,0.5-0.5,1.1-0.5,2
		c0,0.9,0.2,1.5,0.5,2c0.4,0.5,0.8,0.7,1.5,0.7s1.1-0.2,1.5-0.7c0.4-0.5,0.5-1.2,0.5-2C-441.8-4.3-441.9-5-442.3-5.5 M-443.8-6.7
		c0.8,0,1.4,0.3,1.8,0.9c0.4,0.6,0.7,1.3,0.7,2.3c0,1-0.2,1.8-0.7,2.3c-0.4,0.6-1.1,0.9-1.8,0.9c-0.8,0-1.4-0.3-1.8-0.9
		c-0.4-0.6-0.7-1.4-0.7-2.3c0-1,0.2-1.7,0.7-2.3S-444.5-6.7-443.8-6.7 M-434.6-4.1v3.6h-0.5v-3.6c0-0.8-0.1-1.3-0.4-1.6
		s-0.6-0.5-1.1-0.5c-0.6,0-1.1,0.2-1.5,0.5c-0.4,0.3-0.6,0.9-0.6,1.8v3.4h-0.5v-6h0.5v1.1c0.2-0.4,0.4-0.6,0.7-0.8
		c0.4-0.3,0.9-0.4,1.4-0.4c0.6,0,1.1,0.2,1.4,0.6C-434.8-5.7-434.6-5-434.6-4.1 M-431.7-8.2v1.7h2v0.4h-2v3.6c0,0.5,0.1,0.8,0.2,1
		c0.3,0.4,0.6,0.6,1.1,0.6h0.8v0.4h-0.8c-0.5,0-0.9-0.1-1.3-0.4c-0.3-0.3-0.5-0.8-0.5-1.6v-3.6h-0.7v-0.4h0.7v-1.7H-431.7"/>
</g>
<g transform="matrix(2,0,0,2,2629.83,890)">
</g>
<g transform="matrix(2,0,0,2,2629.83,890)">
</g>
<g transform="matrix(2,0,0,2,0.0044,1194)">
</g>
<g transform="matrix(2,0,0,2,0.0044,1194)">
</g>
<g transform="matrix(2,0,0,2,0.0044,1194)">
</g>
<g transform="matrix(2,0,0,2,0.0044,1194)">
	<ellipse class="st2" cx="718.1" cy="-413" rx="26.5" ry="17.5"/>
</g>
<g transform="matrix(2,0,0,2,0.0044,1194)">
</g>
<g transform="matrix(2,0,0,2,2192.92,382)">
</g>
<g transform="matrix(2,0,0,2,2192.92,382)">
</g>
<g transform="matrix(2,0,0,2,2192.92,382)">
	<path vector-effect="none" class="st1" d="M-382.8-6.1c0-0.8-0.2-1.5-0.5-1.9c-0.3-0.5-0.8-0.7-1.4-0.7c-0.6,0-1.1,0.2-1.4,0.7
		c-0.3,0.5-0.5,1.1-0.5,1.9c0,0.8,0.2,1.5,0.5,1.9c0.3,0.5,0.8,0.7,1.4,0.7c0.6,0,1.1-0.2,1.4-0.7C-382.9-4.6-382.8-5.2-382.8-6.1
		 M-382.3-3.8c0,1.3-0.2,2.1-0.7,2.5s-1.1,0.6-1.8,0.6c-0.4,0-0.7,0-1-0.1c-0.3-0.1-0.6-0.1-0.9-0.3v-0.6c0.3,0.2,0.6,0.3,0.9,0.4
		s0.6,0.1,0.9,0.1c0.6,0,1.1-0.1,1.5-0.4c0.4-0.3,0.6-0.9,0.6-2.1v-1c-0.2,0.4-0.4,0.7-0.6,1c-0.4,0.4-0.8,0.5-1.3,0.5
		c-0.8,0-1.4-0.3-1.8-0.8c-0.4-0.5-0.6-1.3-0.6-2.3c0-1,0.2-1.7,0.6-2.3c0.4-0.5,1-0.8,1.8-0.8c0.5,0,0.9,0.2,1.3,0.5
		c0.3,0.2,0.5,0.6,0.7,1V-9h0.5V-3.8 M-379.7-4.4v3.6h-0.5V-9h0.5v1.4c0.2-0.5,0.5-0.9,0.7-1.1c0.4-0.3,0.8-0.4,1.2-0.4
		c0.7,0,1.3,0.3,1.8,0.9c0.5,0.6,0.7,1.3,0.7,2.3s-0.2,1.7-0.7,2.3c-0.5,0.6-1.1,0.9-1.8,0.9c-0.4,0-0.8-0.2-1.2-0.5
		C-379.2-3.5-379.4-3.8-379.7-4.4 M-376.4-3.9c0.4-0.4,0.6-1.1,0.6-2.1s-0.2-1.7-0.6-2.1s-0.9-0.6-1.3-0.6c-0.4,0-0.9,0.2-1.3,0.6
		c-0.4,0.4-0.6,1.1-0.6,2.1s0.2,1.7,0.6,2.1c0.4,0.4,0.8,0.6,1.3,0.6C-377.3-3.3-376.9-3.5-376.4-3.9 M-369.8-8.8v0.5
		c-0.4-0.2-0.6-0.3-0.7-0.3c-0.3-0.1-0.6-0.1-0.9-0.1c-0.6,0-1,0.1-1.3,0.3c-0.3,0.2-0.4,0.5-0.4,1c0,0.3,0.1,0.6,0.4,0.7
		c0.2,0.2,0.6,0.3,1,0.4l0.3,0.1c0.6,0.1,1,0.3,1.3,0.5c0.3,0.3,0.5,0.6,0.5,1c0,0.6-0.2,1-0.5,1.3c-0.4,0.3-0.9,0.5-1.7,0.5
		c-0.4,0-0.8,0-1-0.1c-0.3-0.1-0.6-0.2-0.9-0.3v-0.6c0.4,0.3,0.7,0.4,0.8,0.4c0.4,0.1,0.7,0.1,1.1,0.1c0.6,0,1-0.1,1.3-0.4
		c0.3-0.3,0.4-0.6,0.4-1c0-0.3-0.1-0.6-0.3-0.7c-0.3-0.2-0.7-0.4-1.3-0.5l-0.3-0.1c-0.5-0.1-0.9-0.3-1.2-0.5c-0.3-0.3-0.5-0.6-0.5-1
		c0-0.6,0.2-1.1,0.6-1.4c0.4-0.3,0.9-0.4,1.5-0.4c0.5,0,0.8,0,1,0.1C-370.2-9-370-8.9-369.8-8.8"/>
</g>
<g transform="matrix(2,0,0,2,2192.92,382)">
</g>
<g transform="matrix(2,0,0,2,2192.92,382)">
</g>
<g transform="matrix(2,0,0,2,0.0044,1194)">
</g>
<g transform="matrix(2,0,0,2,0.0044,1194)">
</g>
<g transform="matrix(2,0,0,2,0.0044,1194)">
</g>
<g transform="matrix(2,0,0,2,0.0044,1194)">
	<path vector-effect="none" class="st2" d="M517.4-156c33.3,6.7,76.6,15.8,78,18.5c9.9,18,11.9,49.7,11.9,72.8"/>
</g>
<g transform="matrix(2,0,0,2,0.0044,1194)">
</g>
<g transform="matrix(2,0,0,2,1698.62,961)">
</g>
<g transform="matrix(2,0,0,2,1698.62,961)">
</g>
<g transform="matrix(2,0,0,2,1698.62,961)">
</g>
<g transform="matrix(2,0,0,2,1698.62,961)">
</g>
<g transform="matrix(2,0,0,2,1698.62,961)">
</g>
<g transform="matrix(2,0,0,2,1698.62,961)">
</g>
<g transform="matrix(2,0,0,2,1698.62,961)">
</g>
<g transform="matrix(2,0,0,2,1698.62,961)">
</g>
<g transform="matrix(2,0,0,2,0.0044,1194)">
</g>
<g transform="matrix(2,0,0,2,0.0044,1194)">
	<path vector-effect="none" class="st1" d="M606.2-67.7l-3.6-0.1l3.3,10.3l3.9-10.1L606.2-67.7"/>
</g>
<g transform="matrix(2,0,0,2,0.0044,1194)">
</g>
<g transform="matrix(2,0,0,2,0.0044,1194)">
</g>
<g transform="matrix(2,0,0,2,0.0044,1194)">
</g>
<g transform="matrix(2,0,0,2,0.0044,1194)">
</g>
<g transform="matrix(2,0,0,2,0.0044,1194)">
	<path vector-effect="none" class="st2" d="M674.5-291.2c-92.3,2.8-403.9,13.3-411.6,25.2c-11.5,17.8-12.4,49.7-11.3,72.9"/>
</g>
<g transform="matrix(2,0,0,2,0.0044,1194)">
</g>
<g transform="matrix(2,0,0,2,690.622,707)">
</g>
<g transform="matrix(2,0,0,2,690.622,707)">
</g>
<g transform="matrix(2,0,0,2,690.622,707)">
</g>
<g transform="matrix(2,0,0,2,690.622,707)">
</g>
<g transform="matrix(2,0,0,2,690.622,707)">
</g>
<g transform="matrix(2,0,0,2,690.622,707)">
</g>
<g transform="matrix(2,0,0,2,690.622,707)">
</g>
<g transform="matrix(2,0,0,2,690.622,707)">
</g>
<g transform="matrix(2,0,0,2,0.0044,1194)">
</g>
<g transform="matrix(2,0,0,2,0.0044,1194)">
	<path vector-effect="none" class="st1" d="M251.9-193.1l-3.5,0.4l4.6,9.6l2.4-10.4L251.9-193.1"/>
</g>
<g transform="matrix(2,0,0,2,0.0044,1194)">
</g>
<g transform="matrix(2,0,0,2,0.0044,1194)">
</g>
<g transform="matrix(2,0,0,2,0.0044,1194)">
</g>
<g transform="matrix(2,0,0,2,0.0044,1194)">
</g>
<g transform="matrix(2,0,0,2,0.0044,1194)">
	<path vector-effect="none" class="st2" d="M718.1-394.8c0,21,0,55.9,0,80.5"/>
</g>
<g transform="matrix(2,0,0,2,0.0044,1194)">
</g>
<g transform="matrix(2,0,0,2,2208.64,453)">
</g>
<g transform="matrix(2,0,0,2,2208.64,453)">
</g>
<g transform="matrix(2,0,0,2,2208.64,453)">
</g>
<g transform="matrix(2,0,0,2,2208.64,453)">
</g>
<g transform="matrix(2,0,0,2,2208.64,453)">
</g>
<g transform="matrix(2,0,0,2,2208.64,453)">
</g>
<g transform="matrix(2,0,0,2,2208.64,453)">
</g>
<g transform="matrix(2,0,0,2,2208.64,453)">
</g>
<g transform="matrix(2,0,0,2,0.0044,1194)">
</g>
<g transform="matrix(2,0,0,2,0.0044,1194)">
	<path vector-effect="none" class="st1" d="M718.1-314.3h-3.6l3.6,10.2l3.6-10.2H718.1"/>
</g>
<g transform="matrix(2,0,0,2,0.0044,1194)">
</g>
<g transform="matrix(2,0,0,2,0.0044,1194)">
</g>
<g transform="matrix(2,0,0,2,0.0044,1194)">
</g>
<g transform="matrix(2,0,0,2,0.0044,1194)">
</g>
<g transform="matrix(2,0,0,2,0.0044,1194)">
	<path vector-effect="none" class="st2" d="M762.3-285.2c59.9,3,261.4,13.8,266.6,25.2c4.1,9.1,6.3,45.9,7.4,72.5"/>
</g>
<g transform="matrix(2,0,0,2,0.0044,1194)">
</g>
<g transform="matrix(2,0,0,2,3750.64,707)">
</g>
<g transform="matrix(2,0,0,2,3750.64,707)">
</g>
<g transform="matrix(2,0,0,2,3750.64,707)">
</g>
<g transform="matrix(2,0,0,2,3750.64,707)">
</g>
<g transform="matrix(2,0,0,2,3750.64,707)">
</g>
<g transform="matrix(2,0,0,2,3750.64,707)">
</g>
<g transform="matrix(2,0,0,2,3750.64,707)">
</g>
<g transform="matrix(2,0,0,2,3750.64,707)">
</g>
<g transform="matrix(2,0,0,2,0.0044,1194)">
</g>
<g transform="matrix(2,0,0,2,0.0044,1194)">
	<path vector-effect="none" class="st1" d="M1035.2-187.5l-3.6,0.4l4.6,9.9l2.6-10.6L1035.2-187.5"/>
</g>
<g transform="matrix(2,0,0,2,0.0044,1194)">
</g>
<g transform="matrix(2,0,0,2,0.0044,1194)">
</g>
<g transform="matrix(2,0,0,2,0.0044,1194)">
</g>
<g transform="matrix(2,0,0,2,0.0044,1194)">
</g>
<g transform="matrix(2,0,0,2,0.0044,1194)">
	<path vector-effect="none" class="st2" d="M675.5-289.7c-60.2,2.4-221.5,10.1-230,25.2c-10,17.8-11,49.5-10.2,72.7"/>
</g>
<g transform="matrix(2,0,0,2,0.0044,1194)">
</g>
<g transform="matrix(2,0,0,2,1208.62,707)">
</g>
<g transform="matrix(2,0,0,2,1208.62,707)">
</g>
<g transform="matrix(2,0,0,2,1208.62,707)">
</g>
<g transform="matrix(2,0,0,2,1208.62,707)">
</g>
<g transform="matrix(2,0,0,2,1208.62,707)">
</g>
<g transform="matrix(2,0,0,2,1208.62,707)">
</g>
<g transform="matrix(2,0,0,2,1208.62,707)">
</g>
<g transform="matrix(2,0,0,2,1208.62,707)">
</g>
<g transform="matrix(2,0,0,2,0.0044,1194)">
</g>
<g transform="matrix(2,0,0,2,0.0044,1194)">
	<path vector-effect="none" class="st1" d="M435.6-191.8l-3.6,0.4l4.6,9.9l2.6-10.6L435.6-191.8"/>
</g>
<g transform="matrix(2,0,0,2,0.0044,1194)">
</g>
<g transform="matrix(2,0,0,2,0.0044,1194)">
</g>
<g transform="matrix(2,0,0,2,0.0044,1194)">
</g>
<g transform="matrix(2,0,0,2,0.0044,1194)">
</g>
<g transform="matrix(2,0,0,2,0.0044,1194)">
	<path vector-effect="none" class="st2" d="M180.6-158.9c-29.3,5.8-67.9,14.3-70.5,19.9c-8.5,18.1-9.8,49.5-9.5,72.4"/>
</g>
<g transform="matrix(2,0,0,2,0.0044,1194)">
</g>
<g transform="matrix(2,0,0,2,182.622,961)">
</g>
<g transform="matrix(2,0,0,2,182.622,961)">
</g>
<g transform="matrix(2,0,0,2,182.622,961)">
</g>
<g transform="matrix(2,0,0,2,182.622,961)">
</g>
<g transform="matrix(2,0,0,2,182.622,961)">
</g>
<g transform="matrix(2,0,0,2,182.622,961)">
</g>
<g transform="matrix(2,0,0,2,182.622,961)">
</g>
<g transform="matrix(2,0,0,2,182.622,961)">
</g>
<g transform="matrix(2,0,0,2,0.0044,1194)">
</g>
<g transform="matrix(2,0,0,2,0.0044,1194)">
	<path vector-effect="none" class="st1" d="M99.5-68.6l-3.6,0.2l4.2,10l3-10.4L99.5-68.6"/>
</g>
<g transform="matrix(2,0,0,2,0.0044,1194)">
</g>
<g transform="matrix(2,0,0,2,0.0044,1194)">
</g>
<g transform="matrix(2,0,0,2,0.0044,1194)">
</g>
<g transform="matrix(2,0,0,2,0.0044,1194)">
</g>
<g transform="matrix(2,0,0,2,0.0044,1194)">
	<path vector-effect="none" class="st2" d="M256.5-146.8c0,21,0,55.9,0,80.5"/>
</g>
<g transform="matrix(2,0,0,2,0.0044,1194)">
</g>
<g transform="matrix(2,0,0,2,660.622,961)">
</g>
<g transform="matrix(2,0,0,2,660.622,961)">
</g>
<g transform="matrix(2,0,0,2,660.622,961)">
</g>
<g transform="matrix(2,0,0,2,660.622,961)">
</g>
<g transform="matrix(2,0,0,2,660.622,961)">
</g>
<g transform="matrix(2,0,0,2,660.622,961)">
</g>
<g transform="matrix(2,0,0,2,660.622,961)">
</g>
<g transform="matrix(2,0,0,2,660.622,961)">
</g>
<g transform="matrix(2,0,0,2,0.0044,1194)">
</g>
<g transform="matrix(2,0,0,2,0.0044,1194)">
	<path vector-effect="none" class="st1" d="M256.5-66.3h-3.6l3.6,10.2l3.6-10.2H256.5"/>
</g>
<g transform="matrix(2,0,0,2,0.0044,1194)">
</g>
<g transform="matrix(2,0,0,2,0.0044,1194)">
</g>
<g transform="matrix(2,0,0,2,0.0044,1194)">
</g>
<g transform="matrix(2,0,0,2,0.0044,1194)">
</g>
<g transform="matrix(2,0,0,2,0.0044,1194)">
	<path vector-effect="none" class="st2" d="M616.3-539c51.1,3.3,201.3,13.9,209.2,25c12.6,17.6,15.1,49.4,15,72.5"/>
</g>
<g transform="matrix(2,0,0,2,0.0044,1194)">
</g>
<g transform="matrix(2,0,0,2,2728.64,199)">
</g>
<g transform="matrix(2,0,0,2,2728.64,199)">
</g>
<g transform="matrix(2,0,0,2,2728.64,199)">
</g>
<g transform="matrix(2,0,0,2,2728.64,199)">
</g>
<g transform="matrix(2,0,0,2,2728.64,199)">
</g>
<g transform="matrix(2,0,0,2,2728.64,199)">
</g>
<g transform="matrix(2,0,0,2,2728.64,199)">
</g>
<g transform="matrix(2,0,0,2,2728.64,199)">
</g>
<g transform="matrix(2,0,0,2,0.0044,1194)">
</g>
<g transform="matrix(2,0,0,2,0.0044,1194)">
	<path vector-effect="none" class="st1" d="M839.9-445.8l-3.6-0.1l3.2,10.4l4-10.1L839.9-445.8"/>
</g>
<g transform="matrix(2,0,0,2,0.0044,1194)">
</g>
<g transform="matrix(2,0,0,2,0.0044,1194)">
</g>
<g transform="matrix(2,0,0,2,0.0044,1194)">
</g>
<g transform="matrix(2,0,0,2,0.0044,1194)">
</g>
<g transform="matrix(2,0,0,2,0.0044,1194)">
</g>
<g transform="matrix(2,0,0,2,4276.64,707)">
</g>
<g transform="matrix(2,0,0,2,4276.64,707)">
</g>
<g transform="matrix(2,0,0,2,4276.64,707)">
</g>
<g transform="matrix(2,0,0,2,4276.64,707)">
</g>
<g transform="matrix(2,0,0,2,4276.64,707)">
</g>
<g transform="matrix(2,0,0,2,4276.64,707)">
</g>
<g transform="matrix(2,0,0,2,4276.64,707)">
</g>
<g transform="matrix(2,0,0,2,4276.64,707)">
</g>
<g transform="matrix(2,0,0,2,0.0044,1194)">
</g>
<g transform="matrix(2,0,0,2,0.0044,1194)">
</g>
<g transform="matrix(2,0,0,2,0.0044,1194)">
</g>
<g transform="matrix(2,0,0,2,0.0044,1194)">
</g>
<g transform="matrix(2,0,0,2,0.0044,1194)">
</g>
<g transform="matrix(2,0,0,2,0.0044,1194)">
	<path vector-effect="none" class="st2" d="M718.1-267.8c0,21,0,55.9,0,80.5"/>
</g>
<g transform="matrix(2,0,0,2,0.0044,1194)">
</g>
<g transform="matrix(2,0,0,2,2208.64,707)">
</g>
<g transform="matrix(2,0,0,2,2208.64,707)">
</g>
<g transform="matrix(2,0,0,2,2208.64,707)">
</g>
<g transform="matrix(2,0,0,2,2208.64,707)">
</g>
<g transform="matrix(2,0,0,2,2208.64,707)">
</g>
<g transform="matrix(2,0,0,2,2208.64,707)">
</g>
<g transform="matrix(2,0,0,2,2208.64,707)">
</g>
<g transform="matrix(2,0,0,2,2208.64,707)">
</g>
<g transform="matrix(2,0,0,2,0.0044,1194)">
</g>
<g transform="matrix(2,0,0,2,0.0044,1194)">
	<path vector-effect="none" class="st1" d="M718.1-187.3h-3.6l3.6,10.2l3.6-10.2H718.1"/>
</g>
<g transform="matrix(2,0,0,2,0.0044,1194)">
</g>
<g transform="matrix(2,0,0,2,0.0044,1194)">
</g>
<g transform="matrix(2,0,0,2,0.0044,1194)">
</g>
<g transform="matrix(2,0,0,2,0.0044,1194)">
</g>
<g transform="matrix(2,0,0,2,0.0044,1194)">
	<path vector-effect="none" class="st2" d="M762.3-285.1c48,3.7,175.9,15.4,182.8,36.3c4.4,13.3,6.8,66.4,8,104.7"/>
</g>
<g transform="matrix(2,0,0,2,0.0044,1194)">
</g>
<g transform="matrix(2,0,0,2,3234.64,707)">
</g>
<g transform="matrix(2,0,0,2,3234.64,707)">
</g>
<g transform="matrix(2,0,0,2,3234.64,707)">
</g>
<g transform="matrix(2,0,0,2,3234.64,707)">
</g>
<g transform="matrix(2,0,0,2,3234.64,707)">
</g>
<g transform="matrix(2,0,0,2,3234.64,707)">
</g>
<g transform="matrix(2,0,0,2,3234.64,707)">
</g>
<g transform="matrix(2,0,0,2,3234.64,707)">
</g>
<g transform="matrix(2,0,0,2,0.0044,1194)">
</g>
<g transform="matrix(2,0,0,2,0.0044,1194)">
	<path vector-effect="none" class="st1" d="M952.5-150.3l-3.6,0.4l4.6,9.9l2.6-10.6L952.5-150.3"/>
</g>
<g transform="matrix(2,0,0,2,0.0044,1194)">
</g>
<g transform="matrix(2,0,0,2,0.0044,1194)">
</g>
<g transform="matrix(2,0,0,2,0.0044,1194)">
</g>
<g transform="matrix(2,0,0,2,0.0044,1194)">
</g>
<g transform="matrix(2,0,0,2,0.0044,1194)">
	<path vector-effect="none" class="st2" d="M674-284c-3.6,4.6-10,15.3-10.7,33.3c-1.1,25.1-1.3,68.6-1.2,100.5"/>
</g>
<g transform="matrix(2,0,0,2,0.0044,1194)">
</g>
<g transform="matrix(2,0,0,2,1730.62,707)">
</g>
<g transform="matrix(2,0,0,2,1730.62,707)">
</g>
<g transform="matrix(2,0,0,2,1730.62,707)">
</g>
<g transform="matrix(2,0,0,2,1730.62,707)">
</g>
<g transform="matrix(2,0,0,2,1730.62,707)">
</g>
<g transform="matrix(2,0,0,2,1730.62,707)">
</g>
<g transform="matrix(2,0,0,2,1730.62,707)">
</g>
<g transform="matrix(2,0,0,2,1730.62,707)">
</g>
<g transform="matrix(2,0,0,2,0.0044,1194)">
</g>
<g transform="matrix(2,0,0,2,0.0044,1194)">
	<path vector-effect="none" class="st1" d="M661-153.8l-3.6,0.2l4.2,10l3-10.4L661-153.8"/>
</g>
<g transform="matrix(2,0,0,2,0.0044,1194)">
</g>
<g transform="matrix(2,0,0,2,0.0044,1194)">
</g>
<g transform="matrix(2,0,0,2,0.0044,1194)">
</g>
<g transform="matrix(2,0,0,2,0.0044,1194)">
</g>
<g transform="matrix(2,0,0,2,0.0044,1194)">
</g>
<g transform="matrix(2,0,0,2,172.622,707)">
</g>
<g transform="matrix(2,0,0,2,172.622,707)">
</g>
<g transform="matrix(2,0,0,2,172.622,707)">
</g>
<g transform="matrix(2,0,0,2,172.622,707)">
</g>
<g transform="matrix(2,0,0,2,172.622,707)">
</g>
<g transform="matrix(2,0,0,2,172.622,707)">
</g>
<g transform="matrix(2,0,0,2,172.622,707)">
</g>
<g transform="matrix(2,0,0,2,172.622,707)">
</g>
<g transform="matrix(2,0,0,2,0.0044,1194)">
</g>
<g transform="matrix(2,0,0,2,0.0044,1194)">
</g>
<g transform="matrix(2,0,0,2,0.0044,1194)">
</g>
<g transform="matrix(2,0,0,2,0.0044,1194)">
</g>
<g transform="matrix(2,0,0,2,0.0044,1194)">
</g>
<g transform="matrix(2,0,0,2,0.0044,1194)">
	<path vector-effect="none" class="st2" d="M615.9-536.8c27.9,3.9,69.2,11.5,80.2,22.8c9.9,10.2,16,46.3,19.2,72.5"/>
</g>
<g transform="matrix(2,0,0,2,0.0044,1194)">
</g>
<g transform="matrix(2,0,0,2,2204.64,199)">
</g>
<g transform="matrix(2,0,0,2,2204.64,199)">
</g>
<g transform="matrix(2,0,0,2,2204.64,199)">
</g>
<g transform="matrix(2,0,0,2,2204.64,199)">
</g>
<g transform="matrix(2,0,0,2,2204.64,199)">
</g>
<g transform="matrix(2,0,0,2,2204.64,199)">
</g>
<g transform="matrix(2,0,0,2,2204.64,199)">
</g>
<g transform="matrix(2,0,0,2,2204.64,199)">
</g>
<g transform="matrix(2,0,0,2,0.0044,1194)">
</g>
<g transform="matrix(2,0,0,2,0.0044,1194)">
	<path vector-effect="none" class="st1" d="M715.3-441.5l-3.6,0.4l4.7,9.8l2.4-10.5L715.3-441.5"/>
</g>
<g transform="matrix(2,0,0,2,0.0044,1194)">
</g>
<g transform="matrix(2,0,0,2,0.0044,1194)">
</g>
<g transform="matrix(2,0,0,2,0.0044,1194)">
</g>
<g transform="matrix(2,0,0,2,0.0044,1194)">
</g>
<g transform="matrix(2,0,0,2,0.0044,1194)">
</g>
<g transform="matrix(2,0,0,2,1192.62,199)">
</g>
<g transform="matrix(2,0,0,2,1192.62,199)">
</g>
<g transform="matrix(2,0,0,2,1192.62,199)">
</g>
<g transform="matrix(2,0,0,2,1192.62,199)">
</g>
<g transform="matrix(2,0,0,2,1192.62,199)">
</g>
<g transform="matrix(2,0,0,2,1192.62,199)">
</g>
<g transform="matrix(2,0,0,2,1192.62,199)">
</g>
<g transform="matrix(2,0,0,2,1192.62,199)">
</g>
<g transform="matrix(2,0,0,2,0.0044,1194)">
</g>
<g transform="matrix(2,0,0,2,0.0044,1194)">
</g>
<g transform="matrix(2,0,0,2,0.0044,1194)">
</g>
<g transform="matrix(2,0,0,2,0.0044,1194)">
</g>
<g transform="matrix(2,0,0,2,0.0044,1194)">
</g>
<g transform="matrix(2,0,0,2,0.0044,1194)">
	<path vector-effect="none" class="st2" d="M762.1-283.9c22,3.6,60.9,11.7,65.7,24.6c3.6,9.8,5.6,47.6,6.7,74.8"/>
</g>
<g transform="matrix(2,0,0,2,0.0044,1194)">
</g>
<g transform="matrix(2,0,0,2,2718.64,707)">
</g>
<g transform="matrix(2,0,0,2,2718.64,707)">
</g>
<g transform="matrix(2,0,0,2,2718.64,707)">
</g>
<g transform="matrix(2,0,0,2,2718.64,707)">
</g>
<g transform="matrix(2,0,0,2,2718.64,707)">
</g>
<g transform="matrix(2,0,0,2,2718.64,707)">
</g>
<g transform="matrix(2,0,0,2,2718.64,707)">
</g>
<g transform="matrix(2,0,0,2,2718.64,707)">
</g>
<g transform="matrix(2,0,0,2,0.0044,1194)">
</g>
<g transform="matrix(2,0,0,2,0.0044,1194)">
	<path vector-effect="none" class="st1" d="M834.1-184.9l-3.6,0.4l4.6,9.9l2.6-10.6L834.1-184.9"/>
</g>
<g transform="matrix(2,0,0,2,0.0044,1194)">
</g>
<g transform="matrix(2,0,0,2,0.0044,1194)">
</g>
<g transform="matrix(2,0,0,2,0.0044,1194)">
</g>
<g transform="matrix(2,0,0,2,0.0044,1194)">
</g>
<g transform="matrix(2,0,0,2,0.0044,1194)">
	<path vector-effect="none" class="st2" d="M562-538.4c-28,2.6-73.3,9.2-83.7,24.4c-13.8,20.1-11.8,50.8-7.8,73.1"/>
</g>
<g transform="matrix(2,0,0,2,0.0044,1194)">
</g>
<g transform="matrix(2,0,0,2,1694.62,199)">
</g>
<g transform="matrix(2,0,0,2,1694.62,199)">
</g>
<g transform="matrix(2,0,0,2,1694.62,199)">
</g>
<g transform="matrix(2,0,0,2,1694.62,199)">
</g>
<g transform="matrix(2,0,0,2,1694.62,199)">
</g>
<g transform="matrix(2,0,0,2,1694.62,199)">
</g>
<g transform="matrix(2,0,0,2,1694.62,199)">
</g>
<g transform="matrix(2,0,0,2,1694.62,199)">
</g>
<g transform="matrix(2,0,0,2,0.0044,1194)">
</g>
<g transform="matrix(2,0,0,2,0.0044,1194)">
	<path vector-effect="none" class="st1" d="M470.2-443.2l-3.5,0.9l5.9,9l1-10.7L470.2-443.2"/>
</g>
<g transform="matrix(2,0,0,2,0.0044,1194)">
</g>
<g transform="matrix(2,0,0,2,0.0044,1194)">
</g>
<g transform="matrix(2,0,0,2,0.0044,1194)">
</g>
<g transform="matrix(2,0,0,2,0.0044,1194)">
</g>
<g transform="matrix(2,0,0,2,0.0044,1194)">
	<path vector-effect="none" class="st2" d="M439.8-145.3c0,21,0,55.9,0,80.5"/>
</g>
<g transform="matrix(2,0,0,2,0.0044,1194)">
</g>
<g transform="matrix(2,0,0,2,1176.62,961)">
</g>
<g transform="matrix(2,0,0,2,1176.62,961)">
</g>
<g transform="matrix(2,0,0,2,1176.62,961)">
</g>
<g transform="matrix(2,0,0,2,1176.62,961)">
</g>
<g transform="matrix(2,0,0,2,1176.62,961)">
</g>
<g transform="matrix(2,0,0,2,1176.62,961)">
</g>
<g transform="matrix(2,0,0,2,1176.62,961)">
</g>
<g transform="matrix(2,0,0,2,1176.62,961)">
</g>
<g transform="matrix(2,0,0,2,0.0044,1194)">
</g>
<g transform="matrix(2,0,0,2,0.0044,1194)">
	<path vector-effect="none" class="st1" d="M439.8-64.8h-3.6l3.6,10.2l3.6-10.2H439.8"/>
</g>
<g transform="matrix(2,0,0,2,0.0044,1194)">
</g>
<g transform="matrix(1,0,0,1,0,0)">
</g>
</svg>
