<svg width="449" height="338" xmlns="http://www.w3.org/2000/svg" xmlns:xlink="http://www.w3.org/1999/xlink" xml:space="preserve" overflow="hidden"><defs><clipPath id="clip0"><rect x="0" y="0" width="449" height="338"/></clipPath></defs><g clip-path="url(#clip0)"><path d="M15.9847 200.869 18.9649 197.795 29.4376 192.769 32.698 192.451 44.6281 191.293 44.6375 191.293 44.9832 186.435 50.2896 187.575 54.232 190.424 60.9118 188.798 63.8079 190.592 63.8172 190.592 64.275 194.413 67.414 197.599 71.917 199.066 72.8045 193.871 72.1225 187.257 67.6195 186.136 69.2918 181.652 69.1049 177.139 68.7032 176.532 62.6214 167.302 64.2937 162.818 72.655 156.708 80.4185 154.064 80.4278 154.064 83.1464 150.645 85.183 140.602 91.2462 143.834 94.7682 140.77 95.4689 131.063 101.252 135.332 103.298 139.882 113.649 141.452 117.423 139.088 124.047 140.592 124.383 136.771 127.943 131.278 131.138 131.334 132.128 120.245 135.332 119.6 139.546 122.449 143.292 121.132 155.96 127.251 159.959 126.98 167.844 133.016 177.943 133.894 181.194 130.82 194.675 136.267 197.235 141.872 194.693 150.159 194.908 152.943 198.991 163.079 204.942 173.262 203.298 175.663 203.073 176.532 201.588 182.231 203.326 189.209 192.937 190.069 186.332 186.827 182.791 191.629 189.667 194.18 190.928 198.019 189.518 202.859 183.585 206.922 184.557 212.145 183.184 214.555 186.014 220.161 185.108 226.392 178.428 228.017 173.533 233.828 170.02 236.893 169.637 243.488 163.285 241.638 159.015 242.264 152.821 245.973 145.385 245.151 138.453 245.721 133.352 248.066 130.615 252.532 122.552 256.558 109.296 253.896 96.0388 250.542 89.1535 248.683 78.522 247.449 55.7268 241.844 52.8307 240.06 44.7963 227.765 44.9364 219.777 32.698 224.626 32.3337 224.766 24.0938 223.925 15.0318 224.813" stroke="#172744" stroke-width="1.41069" stroke-linecap="round" stroke-linejoin="round" fill="none" transform="matrix(1 0 0 1.00025 -2.65309e-14 0.0964766)"/><path d="M122.384 21.0949 127.989 19.8057 127.84 13.2007 136.575 16.1341 137.304 19.9645 139.901 23.8322 152.046 27.8681 159.165 31.8105 161.239 34.9682 169.862 32.698 174.579 36.9488 172.655 40.7324 168.32 44.843 172.524 48.0474 177.737 54.3908 181.614 61.0519 184.249 62.4906 193.712 53.9704 189.34 45.5624 192.797 45.6184 198.617 47.8045 207.287 54.559 216.909 52.3168 216.807 57.8662 213.07 59.5384 220.114 67.6476 222.739 69.7776 227.578 66.3303 236.78 72.7485 238.126 72.0758 245.263 74.9813 246.478 81.2499 253.802 89.0227 255.035 94.6281 247.561 95.5623 242.152 100.682 240.508 103.429 234.314 107.436 232.268 117.816 227.952 120.516 222.244 127.055 218.208 129.419 213.677 130.026 204.129 128.158 200.327 132.259 197.225 141.928 194.665 136.323 181.241 130.792 177.989 133.866 167.89 132.997 160.015 126.952 156.016 127.233 143.339 121.104 139.602 122.431 135.332 119.581 132.128 120.226 131.138 131.315 127.943 131.259 124.383 136.762 124.056 140.574 117.423 139.069 113.686 141.433 103.326 139.863 101.28 135.314 95.4969 131.044 93.9461 128.587 86.3602 120.815 82.9035 120.749 79.5403 115.144 73.0007 109.819 65.3961 100.673 61.9394 100.607 55.9323 93.5631 51.2985 84.0807 47.6457 78.8303 50.9435 72.982 49.4488 67.3766 43.423 62.7802 36.9768 50.8594 38.3501 48.4491 43.2829 55.4839 48.4958 46.5433 51.4574 44.516 58.4174 42.5541 64.0227 44.0396 66.2369 39.5646 71.5713 38.6304 73.2342 35.1831 77.5317 32.8288 80.4558 33.2305 82.1281 29.0919 93.8901 25.8221 103.298 20.7773 108.371 18.7687 104.475 13.4903 106.642 11.4443 112.472 12.9297 116.368 18.2081 116.312 21.3378 120.002 23.4865 122.384 21.0949Z" stroke="#172744" stroke-width="1.41069" stroke-linecap="round" stroke-linejoin="round" fill="none" transform="matrix(1 0 0 1.00025 -2.65309e-14 0.0964766)"/><path d="M15.9847 200.859 18.9649 197.786 29.4376 192.76 32.698 192.451 44.6281 191.293 44.9832 186.435 50.2896 187.575 54.232 190.424 60.9118 188.798 63.8079 190.583 64.275 194.404 67.414 197.59 71.9357 199.066 72.8699 193.871 72.1879 187.257 67.6849 186.136 69.3572 181.652 69.1703 177.139 68.7686 176.532 62.5934 167.302 64.2656 162.818 72.6737 156.708 80.4371 154.064 83.1464 150.645 85.183 140.602 91.2462 143.871 94.7682 140.807 95.4689 131.1 93.9087 128.643 86.3321 120.871 82.8661 120.805 79.5029 115.2 72.9633 109.875 65.3961 100.673 61.9301 100.607 55.9323 93.5537 51.2985 84.0807 47.6457 78.8303 50.9435 72.982 49.4394 67.3766 43.4136 62.7802 36.9675 50.8594 38.3034 48.4491 43.2455 55.4839 48.4585 46.5433 51.42 44.516 56.8759 42.9746 58.408 42.5448 64.0134 44.0396 66.2182 39.5553 71.562 38.621 73.2249 35.1737 77.5224 32.8195 80.4465 33.2212 82.1094 29.0826 93.8807 25.8128 103.288 20.7679 108.371 18.7687 108.371 18.7687 104.475 13.4996 104.475 13.4996 106.633 11.4537 112.463 12.9391 116.368 18.2175 116.312 21.3471 120.002 23.4959 122.384 21.0949 126.859 8.66965 127.242 6.1192" stroke="#172744" stroke-width="1.41069" stroke-linecap="round" stroke-linejoin="round" fill="none" transform="matrix(1 0 0 1.00025 -2.65309e-14 0.0964766)"/><path d="M277.466 336.706 275.766 327.653 280.306 326.336 286.435 326.102 286.323 325.841 284.137 320.852 276.214 317.236 273.075 313.714 274.262 306.782 270.824 305.334 270.394 299.776 266.255 290.321 268.208 285.146 260.463 286.407 257.455 291.209 250.747 294.217 237.715 293.283 228.989 290.004 227.018 287.35 225.607 285.482 218.993 283.286 215.573 280.792 209.856 273.057 202.775 266.676 200.458 262.126 196.011 257.847 188.359 253.55 181.745 251.308 179.307 254.11 179.204 260.015 179.204 260.015 173.888 259.921 171.964 263.359 160.136 269.058 158.987 273.897 161.332 277.064 161.734 284.716 160.603 288.518 154.998 290.499 149.393 293.871 151.98 297.739 150.112 300.14 152.093 308.165 148.879 309.492 144.637 308.725 139.35 306.203 135.865 307.875 131.913 305.381 125.121 297.963 121.702 305.493 120.086 306.502 110.501 306.689 107.605 304.895 103.802 309.342 95.0672 306.427 93.7686 304.316 91.9002 306.026 95.1232 319.619 96.263 325.831M167.32 325.831 167.461 323.664 170.684 321.637 175.448 323.113 177.317 325.831 179.839 329.437 184.566 332.997 189.378 325.831 191.947 322.01 200.448 323.197 204.512 319.105 211.603 324.785 218.245 325.252 219.918 325.831 225.654 327.812 227.008 327.214 230.147 325.831 230.213 325.831 230.213 325.831 234.37 330.39 240.284 327.018 245.058 328.148 249.86 327.541 256.736 330.091 262.575 330.885 265.452 333.688M116.059 323.813 116.994 317.274 120.73 314.209 126.28 316.741 129.139 320.609M117.928 324.579 118.301 325.878" stroke="#172744" stroke-width="1.41069" stroke-linecap="round" stroke-linejoin="round" fill="none" transform="matrix(1 0 0 1.00025 -2.65309e-14 0.0964766)"/><path d="M365.284 154.877 369.273 154.951 372.86 162.995 378.671 165.882 380.997 169.74 387.089 171.235 389.443 173.701 391.209 179.643 385.211 187.528 372.907 191.125 367.703 199.374 364.443 202.793 364.611 208.698 360.799 213.49 358.744 222.141 354.932 227.279 354.858 231.446 350.439 240.788 350.887 245.31 345.216 250.373 340.938 266.62 337.425 269.684 330.53 268.516 323.748 275.345 320.011 273.542 311.481 276.532 308.856 274.748 301.382 273.58 298.44 274.224 290.751 272.692 288.107 273.729 284.006 279.176 278.092 282.548 273.869 280.736 268.199 285.155 260.454 286.407 257.446 291.218 250.738 294.226 237.705 293.292 228.98 290.013 225.598 285.435 218.983 283.24 215.564 280.745 209.847 273.01 202.765 266.638 200.458 262.079 196.011 257.847 188.369 253.541 183.445 245.814 179.914 234.295 173.533 233.838 178.428 228.017 185.118 226.401 186.052 220.161 183.249 214.555 184.622 212.145 183.641 206.922 189.574 202.859 190.994 198.019 189.649 194.18 182.773 191.629 186.323 186.827 192.918 190.069 203.316 189.209 201.569 182.231 203.288 175.691 204.923 173.29 210.529 174.43 221.543 183.996 225.757 186.5 238.266 187.07 256.95 186.005 258.613 182.558 257.362 178.027 258.483 174.57 262.22 172.207 273.664 170.964 280.091 168.993 282.838 163.826 284.706 163.163 293.937 168.189 307.389 159.781 311.864 147.702 316.676 146.394 323.86 146.87 330.474 149.066 342.759 146.852 346.431 150.047 352.148 157.782 353.737 158.501 365.284 154.877Z" stroke="#172744" stroke-width="1.41069" stroke-linecap="round" stroke-linejoin="round" fill="none" transform="matrix(1 0 0 1.00025 -2.65309e-14 0.0964766)"/><path d="M54.0452 325.841 51.7003 320.235 49.6076 318.114 50.8594 307.361 53.5594 304.979 58.3239 306.446 66.9189 302.429 71.5059 298.692 75.5231 297.375 81.278 290.545 89.7421 293.815 95.1139 290.788 100.308 298.514 98.4398 300.57 102.429 300.289 101.98 295.768 98.0661 291.19 93.0773 287.276 94.2637 280.353 90.8164 279.596 90.0784 276.112 94.4599 268.899 88.3874 266.358 86.6031 261.463 95.525 253.634 96.1135 250.523 89.2283 248.655 78.5967 247.431 55.8015 241.825 52.8307 240.097 44.843 227.765 44.9832 219.777 32.698 224.626 32.3337 224.766 24.0938 223.925 15.0318 224.813" stroke="#172744" stroke-width="1.41069" stroke-linecap="round" stroke-linejoin="round" fill="none" transform="matrix(1 0 0 1.00025 -2.65309e-14 0.0964766)"/><path d="M418.843 38.4435 419.189 39.1255 419.376 43.6472 418.843 44.6468 416.068 49.8411 408.053 51.4387 395.002 67.1804 388.453 76.448 379.138 91.5638 377.475 95.0111 381.24 108.268 380.867 114.518 385.837 119.46 384.716 122.571 375.981 119.983 373.598 119.254 358.539 112.388 356.493 107.492 353.877 105.017 345.693 101.401 336.126 100.187 327.597 100.738 323.785 105.876 318.993 105.446 312.668 101.859 304.68 102.074 298.496 105.437 295.441 112.677 290.956 110.51 287.21 111.837 285.771 102.438 282.072 100.981 274.271 90.4241 268.339 94.8336 265.573 100.691 259.716 100.588 258.473 95.3568 255.026 94.6001 253.793 89.0227 246.478 81.2593 245.254 74.9813 238.116 72.0851 236.78 72.7578 227.569 66.3396 227.018 66.7227 222.72 69.7309 220.095 67.6008 213.051 59.4917 216.807 57.8195 216.9 52.2608 207.277 54.531 198.617 47.7765 192.797 45.5904 189.331 45.5343 193.712 53.9424 184.249 62.4626 181.614 61.0239 177.737 54.3535 172.524 48.0194 168.32 44.815 172.646 40.7231 174.579 36.9394 169.862 32.6887 161.304 34.9682 159.23 31.8105 152.111 27.8587 139.938 23.8322 137.341 19.9645 136.603 16.1341 127.877 13.2007 128.027 19.8057 122.412 21.0949 126.887 8.66965" stroke="#172744" stroke-width="1.41069" stroke-linecap="round" stroke-linejoin="round" fill="none" transform="matrix(1 0 0 1.00025 -2.65309e-14 0.0964766)"/><path d="M409.277 12.2104 414.163 22.0198" stroke="#172744" stroke-width="1.41069" stroke-linecap="round" stroke-linejoin="round" fill="none" transform="matrix(1 0 0 1.00025 -2.65309e-14 0.0964766)"/><path d="M353.737 326.233 356.072 330.091 351.952 336.967 356.063 330.091 353.737 326.233Z" stroke="#172744" stroke-width="1.41069" stroke-linecap="round" stroke-linejoin="round" fill="none" transform="matrix(1 0 0 1.00025 -2.65309e-14 0.0964766)"/><path d="M352.802 325.841 346.87 323.337 336.874 316.564 331.128 310.211 330.306 295.955 328.167 296.618 323.496 289.592 315.882 283.548 311.481 276.532 320.048 273.552 323.748 275.355 330.521 268.526 337.425 269.693 340.938 266.629 345.216 250.373 350.897 245.263 350.439 240.742 354.867 231.446 354.932 227.279 358.753 222.132 360.762 213.49 364.574 208.698 364.415 202.784 367.666 199.374 372.87 191.125 385.183 187.519 391.171 179.643 391.171 179.634 396.814 176.607 396.861 176.532 399.28 172.487 401.149 172.515 406.483 176.532 406.493 176.532 408.24 177.849 415.433 177.634 418.843 178.597 433.716 182.81 437.117 182.007" stroke="#172744" stroke-width="1.41069" stroke-linecap="round" stroke-linejoin="round" fill="none" transform="matrix(1 0 0 1.00025 -2.65309e-14 0.0964766)"/><path d="M286.276 325.841 284.09 320.852 276.168 317.236 273.029 313.714 274.215 306.782 270.777 305.334 270.347 299.776 266.255 290.321 268.208 285.146 273.869 280.736 278.101 282.548 284.015 279.176 288.107 273.692 290.788 272.692 298.477 274.215 301.42 273.57 308.847 274.748 311.481 276.532 315.882 283.548 323.496 289.592 328.167 296.618 330.306 295.955 331.128 310.211 336.874 316.564 346.87 323.337 352.802 325.841" stroke="#172744" stroke-width="1.41069" stroke-linecap="round" stroke-linejoin="round" fill="none" transform="matrix(1 0 0 1.00025 -2.65309e-14 0.0964766)"/><path d="M356.072 330.091 351.952 336.967 356.063 330.091 353.737 326.233 356.072 330.091Z" stroke="#172744" stroke-width="1.41069" stroke-linecap="round" stroke-linejoin="round" fill="none" transform="matrix(1 0 0 1.00025 -2.65309e-14 0.0964766)"/><path d="M375.981 119.992 371.823 130.334 369.525 140.368 365.162 146.198 365.274 154.877 353.765 158.492 352.176 157.773 346.459 150.037 342.787 146.842 330.502 149.056 323.888 146.861 316.704 146.384 311.893 147.692 307.361 159.753 293.909 168.161 284.678 163.135 282.81 163.798 280.063 168.965 273.664 170.964 262.201 172.15 258.464 174.514 257.343 177.971 258.595 182.502 256.913 185.977 238.229 187.042 225.719 186.472 221.506 183.968 210.491 174.402 204.886 173.262 198.991 163.088 194.908 152.943 194.693 150.14 197.225 141.853 200.327 132.184 204.129 128.083 213.677 129.951 218.208 129.344 222.253 127.055 227.961 120.516 232.268 117.816 234.314 107.436 240.508 103.372 242.152 100.626 247.561 95.5063 255.035 94.5721 258.483 95.3288 259.716 100.551 265.573 100.654 268.376 94.8056 274.308 90.3867 282.109 100.943 285.846 102.401 287.276 111.799 291.012 110.482 295.506 112.64 298.561 105.4 304.736 102.037 312.733 101.831 319.058 105.409 323.841 105.839 327.653 100.701 336.182 100.159 345.665 101.401 353.849 105.017 356.474 107.492 358.52 112.388 373.57 119.254 375.953 119.992Z" stroke="#172744" stroke-width="1.41069" stroke-linecap="round" stroke-linejoin="round" fill="none" transform="matrix(1 0 0 1.00025 -2.65309e-14 0.0964766)"/><path d="M188.369 253.541 181.745 251.308 179.307 254.11 179.204 260.005 173.879 259.912 171.954 263.359 160.146 269.058 158.997 273.907 161.332 277.074 161.734 284.716 160.603 288.518 154.998 290.508 149.393 293.881 151.99 297.739 150.121 300.14 152.111 308.165 148.888 309.492 144.647 308.725 139.368 306.203 135.874 307.875 131.923 305.381 125.131 297.963 121.702 305.493 120.086 306.511 110.501 306.689 107.605 304.904 103.802 309.351 95.0672 306.427 93.7686 304.316 98.365 300.579 102.364 300.299 101.906 295.777 97.9913 291.199 93.0025 287.294 94.189 280.362 90.7417 279.606 90.0037 276.121 94.3945 268.909 88.3127 266.367 86.5377 261.481 95.4596 253.643 96.0481 250.532 109.305 253.896 122.571 256.558 130.624 252.532 133.371 248.066 138.453 245.702 145.385 245.132 152.859 245.955 159.043 242.218 163.313 241.601 169.665 243.47 170.048 236.93 173.561 233.866 179.942 234.323 183.473 245.842 188.397 253.569Z" stroke="#172744" stroke-width="1.41069" stroke-linecap="round" stroke-linejoin="round" fill="none" transform="matrix(1 0 0 1.00025 -2.65309e-14 0.0964766)"/><path d="M418.843 6.1192 418.843-20.88 415.106-16.1622 409.977-12.0796 407.072-13.8733 402.036-15.0037 399.084-13.3128 399.262-8.45478 402.345-2.14873 402.27 2.3636 404.942 6.10052 409.286 12.1917 414.172 22.0011 420.31 25.8314 417.077 29.8953 418.843 38.4435 419.189 39.1255 419.376 43.6472 418.843 44.6468 416.04 49.8411 408.025 51.4387 394.945 67.1804 388.406 76.448 379.138 91.5545 377.475 95.0018 381.212 108.259 380.839 114.508 385.809 119.451 384.688 122.562 375.953 119.974 371.823 130.334 369.516 140.368 365.153 146.188 365.274 154.877 369.264 154.942 372.851 162.995 378.653 165.872 380.979 169.74 380.979 169.74 387.07 171.235 389.424 173.701 390.265 176.504 391.199 179.606 391.199 179.606 396.805 176.579 396.805 176.579 396.851 176.504 399.271 172.459 401.139 172.459 406.483 176.569 406.483 176.569 408.23 177.887 415.424 177.672 418.834 178.606 433.707 182.819 437.107 182.016" stroke="#172744" stroke-width="1.41069" stroke-linecap="round" stroke-linejoin="round" fill="none" transform="matrix(1 0 0 1.00025 -2.65309e-14 0.0964766)"/><path d="M32.698 325.841 32.698 224.626 32.698 192.451 32.698 176.532 32.698 6.1192" stroke="#42AEC5" stroke-width="1.41069" stroke-linecap="round" stroke-linejoin="round" fill="none" transform="matrix(1 0 0 1.00025 -2.65309e-14 0.0964766)"/><path d="M227.018 327.223 227.018 325.841 227.018 287.35 227.018 186.528 227.018 176.532 227.018 121.59 227.018 66.7227 227.018 6.1192" stroke="#42AEC5" stroke-width="1.41069" stroke-linecap="round" stroke-linejoin="round" fill="none" transform="matrix(1 0 0 1.00025 -2.65309e-14 0.0964766)"/><path d="M418.843 325.841 418.843 178.597 418.843 176.532 418.843 44.6468 418.843 38.4435 418.843 6.1192 418.843-20.88" stroke="#42AEC5" stroke-width="1.41069" stroke-linecap="round" stroke-linejoin="round" fill="none" transform="matrix(1 0 0 1.00025 -2.65309e-14 0.0964766)"/><path d="M-7.71674 176.532 463.966 176.532" stroke="#42AEC5" stroke-width="1.54148" stroke-linecap="round" stroke-linejoin="round" fill="none" transform="matrix(1 0 0 1.00025 -2.65309e-14 0.0964766)"/><path d="M98.5425 70.8239C98.7004 68.6135 99.7047 66.5491 101.345 65.0597 103.042 63.6333 105.213 62.8993 107.427 63.0044 109.422 62.9369 111.372 63.6015 112.911 64.8729 114.368 66.1562 115.16 68.0347 115.06 69.9738 115.062 70.965 114.846 71.9446 114.424 72.8419 114.036 73.7034 113.381 74.4174 112.556 74.8785 113.779 75.2084 114.81 76.0303 115.405 77.1487 116.689 79.3297 116.798 82.0082 115.695 84.2862 115.204 85.2681 114.494 86.1246 113.621 86.7899 112.731 87.4776 111.72 87.9939 110.641 88.3127 109.517 88.6519 108.349 88.822 107.175 88.8172 105.834 88.8358 104.5 88.6208 103.232 88.1819 102.025 87.7538 100.934 87.05 100.047 86.1266 99.2572 85.3009 98.6042 84.3549 98.1128 83.3239 97.6139 82.3316 97.3458 81.2394 97.328 80.1289L103.662 80.1289C103.633 81.0286 103.97 81.9017 104.596 82.5485 105.227 83.1826 106.095 83.5218 106.988 83.4827 107.877 83.5009 108.738 83.1648 109.38 82.5485 110.004 81.9427 110.344 81.1011 110.314 80.2316 110.311 79.3776 109.944 78.5654 109.305 77.9988 108.692 77.3909 107.861 77.0544 106.997 77.0646 106.633 77.084 106.272 77.1467 105.923 77.2514L105.923 73.1035 106.558 73.1035C107.279 73.1281 107.982 72.8738 108.52 72.3934 109.021 71.9029 109.296 71.2259 109.277 70.525 109.302 69.8695 109.047 69.2342 108.576 68.778 108.109 68.3333 107.483 68.0944 106.838 68.1147 106.131 68.0814 105.446 68.3658 104.97 68.8901 104.498 69.4398 104.252 70.147 104.279 70.8706Z" fill="#42AEC5" transform="matrix(1 0 0 1.00025 -2.65309e-14 0.0964766)"/><path d="M120.263 70.8239C120.427 68.615 121.43 66.5525 123.066 65.0597 124.763 63.6333 126.934 62.8993 129.148 63.0044 131.14 62.9348 133.088 63.5998 134.622 64.8729 136.086 66.1519 136.882 68.0324 136.781 69.9738 136.783 70.965 136.567 71.9446 136.145 72.8419 135.757 73.7034 135.102 74.4174 134.277 74.8785 135.498 75.2114 136.529 76.0324 137.126 77.1487 139.09 80.3467 138.315 84.5121 135.332 86.7899 134.445 87.4775 133.438 87.9939 132.362 88.3127 131.243 88.6258 130.085 88.7737 128.924 88.7518 127.582 88.7711 126.248 88.5562 124.981 88.1165 123.773 87.6905 122.682 86.9865 121.795 86.0612 121 85.2404 120.347 84.2933 119.862 83.2585 119.355 82.2684 119.084 81.1753 119.068 80.0635L125.402 80.0635C125.377 80.9625 125.714 81.8339 126.336 82.4831 126.966 83.1162 127.834 83.4552 128.727 83.4174 129.618 83.4376 130.478 83.1012 131.119 82.4831 131.748 81.88 132.088 81.0366 132.053 80.1662 132.066 79.3066 131.71 78.4829 131.072 77.9054 130.46 77.2975 129.628 76.961 128.765 76.9712 128.398 76.9906 128.033 77.0533 127.681 77.158L127.681 73.1035 128.316 73.1035C129.039 73.135 129.744 72.8798 130.278 72.3934 130.786 71.9064 131.064 71.2279 131.044 70.525 131.07 69.8695 130.815 69.2342 130.344 68.778 129.875 68.3368 129.25 68.0985 128.606 68.1147 127.899 68.0801 127.213 68.3647 126.738 68.8901 126.256 69.4345 126.005 70.1446 126.037 70.8706Z" fill="#42AEC5" transform="matrix(1 0 0 1.00025 -2.65309e-14 0.0964766)"/><path d="M162.425 63.948 162.425 77.3822C162.452 79.0227 162.298 80.6613 161.967 82.2682 161.645 83.6198 160.933 84.8474 159.921 85.7996 158.94 86.7573 157.731 87.4514 156.409 87.8176 153.536 88.6626 150.481 88.6626 147.608 87.8176 146.284 87.4511 145.076 86.7534 144.096 85.7903 143.068 84.8467 142.34 83.6219 142.003 82.2682 141.667 80.6619 141.514 79.0229 141.545 77.3822L141.545 63.948 147.758 63.948 147.758 76.5227C147.749 77.3585 147.783 78.1943 147.86 79.0265 147.931 79.7039 148.107 80.366 148.384 80.9883 148.656 81.5984 149.105 82.1126 149.673 82.4644 151.113 83.1998 152.819 83.1998 154.26 82.4644 154.82 82.1121 155.268 81.6063 155.549 81.007 155.827 80.3857 156 79.7228 156.063 79.0452 156.143 78.2069 156.181 77.3649 156.175 76.5227L156.175 63.948Z" fill="#42AEC5" transform="matrix(1 0 0 1.00025 -2.65309e-14 0.0964766)"/><path d="M286.117 70.8239C286.275 68.6135 287.279 66.5491 288.92 65.0597 290.616 63.6333 292.788 62.8993 295.002 63.0044 296.994 62.9348 298.942 63.5998 300.476 64.8729 301.94 66.1519 302.736 68.0324 302.634 69.9738 302.637 70.965 302.42 71.9446 301.999 72.8419 301.61 73.7034 300.955 74.4174 300.131 74.8785 301.353 75.2084 302.385 76.0303 302.98 77.1487 304.264 79.3297 304.373 82.0082 303.27 84.2862 302.773 85.2642 302.064 86.1194 301.196 86.7899 300.305 87.4776 299.294 87.9939 298.215 88.3127 297.091 88.6506 295.924 88.8206 294.749 88.8172 293.408 88.8365 292.074 88.6216 290.807 88.1819 289.599 87.7559 288.508 87.0519 287.621 86.1266 286.832 85.3009 286.179 84.3549 285.687 83.3239 285.186 82.3321 284.915 81.24 284.893 80.1289L291.227 80.1289C291.203 81.0279 291.539 81.8993 292.162 82.5485 292.792 83.1816 293.66 83.5206 294.553 83.4827 295.444 83.503 296.304 83.1666 296.945 82.5485 297.574 81.9454 297.914 81.102 297.879 80.2316 297.892 79.372 297.535 78.5483 296.898 77.9708 296.285 77.3629 295.454 77.0264 294.591 77.0366 294.223 77.0565 293.86 77.1192 293.507 77.2234L293.507 73.1035 294.142 73.1035C294.864 73.135 295.57 72.8798 296.104 72.3934 296.611 71.9064 296.89 71.2279 296.87 70.525 296.895 69.8695 296.64 69.2342 296.169 68.778 295.701 68.3351 295.076 68.0965 294.432 68.1147 293.725 68.0801 293.039 68.3647 292.563 68.8901 292.085 69.4359 291.837 70.1459 291.872 70.8706Z" fill="#42AEC5" transform="matrix(1 0 0 1.00025 -2.65309e-14 0.0964766)"/><path d="M326.27 78.1389 326.27 82.8942 323.393 82.8942 323.393 87.8176 317.638 87.8176 317.638 82.8942 306.035 82.8942 306.035 78.933 315.246 63.9854 323.393 63.9854 323.393 78.1389ZM317.638 68.9555 317.573 68.9555 311.967 78.1389 317.573 78.1389Z" fill="#42AEC5" transform="matrix(1 0 0 1.00025 -2.65309e-14 0.0964766)"/><path d="M350 63.948 350 77.3822C350.029 79.0233 349.872 80.6623 349.533 82.2682 349.227 83.6162 348.532 84.8445 347.533 85.7996 346.538 86.7648 345.313 87.4595 343.974 87.8176 341.101 88.6647 338.046 88.6647 335.173 87.8176 333.847 87.4552 332.635 86.7607 331.651 85.7996 330.64 84.8474 329.928 83.6198 329.605 82.2682 329.27 80.6619 329.117 79.0229 329.148 77.3822L329.148 63.948 335.388 63.948 335.388 76.5227C335.382 77.3587 335.419 78.1944 335.5 79.0265 335.571 79.7039 335.747 80.366 336.024 80.9883 336.28 81.5914 336.709 82.105 337.257 82.4644 337.957 82.8584 338.753 83.0493 339.555 83.0156 340.358 83.0518 341.154 82.8607 341.853 82.4644 342.414 82.1145 342.858 81.6077 343.133 81.007 343.414 80.3862 343.591 79.7234 343.656 79.0452 343.737 78.2069 343.774 77.3649 343.768 76.5227L343.768 63.948Z" fill="#42AEC5" transform="matrix(1 0 0 1.00025 -2.65309e-14 0.0964766)"/><path d="M97.627 218.535C97.7839 216.325 98.7882 214.26 100.43 212.771 102.124 211.341 104.296 210.603 106.511 210.706 108.503 210.639 110.451 211.304 111.986 212.575 113.45 213.854 114.246 215.734 114.144 217.675 114.147 218.667 113.93 219.647 113.509 220.544 113.12 221.405 112.465 222.119 111.64 222.58 112.861 222.913 113.893 223.734 114.49 224.85 116.438 228.053 115.66 232.209 112.687 234.492 111.797 235.175 110.79 235.691 109.716 236.014 107.288 236.729 104.699 236.683 102.298 235.884 101.096 235.452 100.008 234.748 99.1217 233.828 98.3267 233.007 97.6728 232.061 97.1879 231.026 96.6834 230.035 96.4115 228.942 96.3938 227.831L102.765 227.831C102.736 228.73 103.074 229.604 103.699 230.25 104.33 230.884 105.198 231.223 106.091 231.184 106.975 231.22 107.836 230.9 108.483 230.297 109.744 229.055 109.761 227.027 108.519 225.765 108.507 225.753 108.495 225.741 108.483 225.729 107.869 225.121 107.038 224.785 106.175 224.794 105.807 224.809 105.443 224.872 105.091 224.981L105.091 220.833 105.727 220.833C106.448 220.857 107.151 220.603 107.689 220.123 108.207 219.621 108.486 218.92 108.455 218.199 108.48 217.546 108.225 216.914 107.754 216.461 107.285 216.02 106.66 215.782 106.016 215.798 105.308 215.759 104.621 216.044 104.148 216.573 103.667 217.118 103.415 217.828 103.447 218.554Z" fill="#42AEC5" transform="matrix(1 0 0 1.00025 -2.65309e-14 0.0964766)"/><path d="M119.357 218.535C119.517 216.325 120.52 214.261 122.16 212.771 123.855 211.341 126.027 210.603 128.242 210.706 130.237 210.637 132.188 211.301 133.726 212.575 135.183 213.858 135.974 215.736 135.874 217.675 135.883 218.668 135.666 219.648 135.239 220.544 134.854 221.408 134.198 222.122 133.371 222.58 134.595 222.912 135.629 223.733 136.229 224.85 138.175 228.056 137.394 232.212 134.417 234.492 133.524 235.175 132.514 235.692 131.437 236.014 129.011 236.729 126.426 236.683 124.028 235.884 122.823 235.452 121.733 234.748 120.843 233.828 120.053 233.002 119.4 232.057 118.909 231.026 118.411 230.033 118.143 228.941 118.124 227.831L124.458 227.831C124.429 228.73 124.766 229.604 125.392 230.25 126.022 230.885 126.891 231.225 127.784 231.184 128.668 231.22 129.529 230.9 130.176 230.297 130.801 229.696 131.142 228.856 131.11 227.989 131.123 227.13 130.766 226.306 130.129 225.729 129.512 225.12 128.678 224.784 127.812 224.794 127.448 224.81 127.086 224.873 126.738 224.981L126.738 220.833 127.373 220.833C128.094 220.857 128.797 220.603 129.335 220.123 129.85 219.62 130.126 218.919 130.091 218.199 130.116 217.548 129.864 216.917 129.4 216.461 128.928 216.017 128.301 215.779 127.653 215.798 126.944 215.757 126.256 216.042 125.785 216.573 125.304 217.118 125.052 217.828 125.084 218.554Z" fill="#42AEC5" transform="matrix(1 0 0 1.00025 -2.65309e-14 0.0964766)"/><path d="M150.299 235.538 144.096 235.538 144.096 216.919 138.967 216.919 138.967 211.659 155.428 211.659 155.428 216.919 150.299 216.919Z" fill="#42AEC5" transform="matrix(1 0 0 1.00025 -2.65309e-14 0.0964766)"/><path d="M285.202 218.535C285.361 216.325 286.365 214.261 288.004 212.771 289.699 211.341 291.871 210.603 294.086 210.706 296.082 210.637 298.032 211.301 299.57 212.575 301.03 213.855 301.822 215.736 301.719 217.675 301.725 218.666 301.511 219.646 301.093 220.544 300.701 221.403 300.047 222.117 299.224 222.58 300.443 222.92 301.47 223.74 302.074 224.85 304.02 228.056 303.239 232.212 300.261 234.492 299.37 235.174 298.364 235.689 297.29 236.014 294.862 236.729 292.274 236.683 289.873 235.884 288.668 235.452 287.577 234.748 286.687 233.828 285.898 233.004 285.247 232.058 284.762 231.026 284.258 230.035 283.986 228.942 283.968 227.831L290.302 227.831C290.273 228.73 290.611 229.604 291.237 230.25 291.867 230.884 292.735 231.223 293.628 231.184 294.512 231.22 295.373 230.9 296.02 230.297 296.646 229.696 296.986 228.856 296.954 227.989 296.967 227.13 296.61 226.306 295.973 225.729 295.357 225.12 294.522 224.784 293.656 224.794 293.292 224.81 292.93 224.873 292.582 224.981L292.582 220.833 293.217 220.833C293.938 220.857 294.641 220.603 295.179 220.123 295.695 219.62 295.97 218.919 295.936 218.199 295.96 217.548 295.709 216.917 295.245 216.461 294.773 216.017 294.145 215.779 293.498 215.798 292.788 215.757 292.1 216.042 291.629 216.573 291.148 217.118 290.897 217.828 290.928 218.554Z" fill="#42AEC5" transform="matrix(1 0 0 1.00025 -2.65309e-14 0.0964766)"/><path d="M325.364 225.85 325.364 230.596 322.477 230.596 322.477 235.538 316.704 235.538 316.704 230.596 305.119 230.596 305.119 226.644 314.34 211.696 322.477 211.696 322.477 225.887ZM316.704 216.666 316.704 216.666 311.098 225.85 316.704 225.85Z" fill="#42AEC5" transform="matrix(1 0 0 1.00025 -2.65309e-14 0.0964766)"/><path d="M337.873 235.538 331.651 235.538 331.651 216.919 326.523 216.919 326.523 211.659 342.993 211.659 342.993 216.919 337.864 216.919Z" fill="#42AEC5" transform="matrix(1 0 0 1.00025 -2.65309e-14 0.0964766)"/></g></svg>