<svg xmlns="http://www.w3.org/2000/svg" xmlns:xlink="http://www.w3.org/1999/xlink" viewBox="0 0 499.88 395.13"><defs><style>.a{isolation:isolate;}.b{fill:#0777be;}.c{fill:red;}.d,.e,.g{fill:none;stroke-linecap:round;stroke-linejoin:round;stroke-width:9px;}.d{stroke:#0777be;}.e{stroke:#05897b;}.f{fill:#fff;}.g{stroke:#ef4438;}.h{fill:#606060;}.i{fill:#1a7568;}.j{fill:#c42a26;}.k{fill:#ef4438;}.l{fill:#05897b;}.m{fill:#9ed8e3;opacity:0.3;mix-blend-mode:multiply;}.n{fill:#48b6cb;}.o{fill:#52bace;}.p{fill:#5dbed1;}.q{fill:#64f933;}.r{fill:#3eb2c8;}.s{fill:#fcb628;}.t{fill:#bbe8f4;}.u{fill:#77c9d8;}.v{fill:#85cedc;}.w{fill:#65c1d3;}.x{fill:#34aec5;}.y{fill:#c2241e;}.z{fill:#a1dff0;}.aa{opacity:0.6;mix-blend-mode:screen;fill:url(#a);}</style><linearGradient id="a" x1="435.96" y1="137.32" x2="509.04" y2="245.98" gradientTransform="matrix(-1, 0, 0, 1, 647.64, 0)" gradientUnits="userSpaceOnUse"><stop offset="0" stop-color="#fff"/><stop offset="1"/></linearGradient></defs><g class="a"><path class="b" d="M349.89,48.3h2.35l1.53,3,1.5-3h2.31L353,56.9h-2.28l2-3.64Z"/><path class="b" d="M364.32,54h-2V53.4h0a1.59,1.59,0,0,1-.73.62,2.42,2.42,0,0,1-1,.21,2.75,2.75,0,0,1-1.15-.24,2.7,2.7,0,0,1-.93-.67,3.22,3.22,0,0,1-.61-1,3.36,3.36,0,0,1,0-2.34,2.68,2.68,0,0,1,.6-1,2.84,2.84,0,0,1,.91-.66,2.61,2.61,0,0,1,1.15-.25,2.72,2.72,0,0,1,1,.19,2.07,2.07,0,0,1,.79.56V48.3h2Zm-4.24-3.78a1.3,1.3,0,0,0-.35.92,1.28,1.28,0,0,0,.35.92,1.46,1.46,0,0,0,1.92,0,1.28,1.28,0,0,0,.35-.92,1.3,1.3,0,0,0-.35-.92,1.4,1.4,0,0,0-1.92,0Z"/><path class="b" d="M368.52,51.41,370,48.3h1.21l1.44,3.11,1.45-3.11h2.24l-3,5.74H372l-1.42-3.14L369.15,54h-1.32l-3-5.74h2.26Z"/><g class="a"><path class="c" d="M432.27,114.44h-5.54v-2.33h5.54Z"/><path class="c" d="M443.57,118.77h-3.43l-1.79-2.7-1.83,2.7h-3.36l3.45-4.69-3.4-4.7h3.43L438.4,112l1.76-2.65h3.37l-3.4,4.62Z"/></g><line class="d" x1="312.85" y1="20.66" x2="312.85" y2="262.94"/><line class="e" x1="398.61" y1="229.27" x2="431.54" y2="248.27"/><line class="e" x1="204.79" y1="103.36" x2="237.71" y2="122.37"/><circle class="f" cx="312.85" cy="185.22" r="1.44"/><line class="g" x1="29.62" y1="343.41" x2="420.22" y2="117.89"/><path class="h" d="M320.52,60.6A33.76,33.76,0,0,0,312.9,57h0a36.53,36.53,0,0,1,9-1.39c-.49.34-.93.72-1.42,1.11.4.08.8.19,1.21.31.2,0,.4.1.6.17l.64.22a11.09,11.09,0,0,1,1.37.59,4.72,4.72,0,0,1,2.3,2.09,2.08,2.08,0,0,1,.11,1.49,3.17,3.17,0,0,1-.75,1.31,5.68,5.68,0,0,1-1.2,1c-.23.14-.47.27-.72.4a7.06,7.06,0,0,1-.67.35A33.91,33.91,0,0,1,314,66.83a67.65,67.65,0,0,1-9.44.3,67.11,67.11,0,0,1-9.39-.93,38.84,38.84,0,0,1-4.66-1.07,19,19,0,0,1-4.57-1.93,8.55,8.55,0,0,1-1.09-.81,4.7,4.7,0,0,1-1-1.31,3,3,0,0,1,.15-3.15,5.4,5.4,0,0,1,1-1.24,9.34,9.34,0,0,1,1.05-.83,15.83,15.83,0,0,1,2.2-1.23A40.38,40.38,0,0,1,297.37,52a94.8,94.8,0,0,1,18.73-1.3,106.13,106.13,0,0,1,18.64,2,46,46,0,0,1,9.1,2.79,15.21,15.21,0,0,1,4.24,2.7,5.82,5.82,0,0,1,1.59,2.41,4.23,4.23,0,0,1-.3,3.14l-2.12-1.08a1.66,1.66,0,0,0,.14-1.36,3.51,3.51,0,0,0-.93-1.41,13.48,13.48,0,0,0-3.57-2.23A43.07,43.07,0,0,0,334.28,55a102.21,102.21,0,0,0-18.2-2,91.32,91.32,0,0,0-18.24,1.27,37.93,37.93,0,0,0-8.56,2.45,14.78,14.78,0,0,0-1.87,1,4.65,4.65,0,0,0-1.24,1.14,1.09,1.09,0,0,0-.07,1.2,1.87,1.87,0,0,0,.38.46,6,6,0,0,0,.76.57,16.8,16.8,0,0,0,3.9,1.67,41.09,41.09,0,0,0,4.39,1,68.68,68.68,0,0,0,9.06.93,67.3,67.3,0,0,0,9.09-.29,31.86,31.86,0,0,0,8.66-2,3.92,3.92,0,0,0,1.18-.7,1.51,1.51,0,0,0,.38-.49.72.72,0,0,0,0-.61,2.19,2.19,0,0,0-1-.76l-.28-.13a3.26,3.26,0,0,1-.46-.18l-.59-.19a4.1,4.1,0,0,0-.53-.16c-.35-.1-.71-.2-1.08-.27A15.18,15.18,0,0,1,320.52,60.6Z"/><path class="i" d="M407.09,249.38a19.34,19.34,0,0,0,3.84-6.4l.27-.71h0l.16.75a26.84,26.84,0,0,1,.64,4.08,18.32,18.32,0,0,1-.17,4.44,11.34,11.34,0,0,0-.88-1.6,11,11,0,0,1-.49,1.19,4.48,4.48,0,0,1-.29.58l-.33.59a7.08,7.08,0,0,1-.77,1,4.27,4.27,0,0,1-2.56,1.55,5.21,5.21,0,0,1-.79,0l-.78-.17a5.09,5.09,0,0,1-1.33-.74,8,8,0,0,1-1.74-1.92,17.06,17.06,0,0,1-1.94-4.31,32.2,32.2,0,0,1-1-4.45,42.71,42.71,0,0,1-.38-9,44.94,44.94,0,0,1,1.43-8.93,25.77,25.77,0,0,1,1.6-4.32,12.12,12.12,0,0,1,2.87-3.93l.51-.41.61-.35a4.63,4.63,0,0,1,1.35-.48,3.81,3.81,0,0,1,.75-.07,2.61,2.61,0,0,1,.74.05l.72.16a3.52,3.52,0,0,1,.63.27,9.18,9.18,0,0,1,3.73,3.31,21.62,21.62,0,0,1,2.19,4.11c.29.7.57,1.42.79,2.14s.47,1.44.65,2.18a60.33,60.33,0,0,1,1.79,17.81,65.28,65.28,0,0,1-3,17.64,28.3,28.3,0,0,1-4.08,8.19,11.17,11.17,0,0,1-3.68,3.22,6.52,6.52,0,0,1-5.19.38l.79-2.23a4.12,4.12,0,0,0,3.33-.26,8.88,8.88,0,0,0,2.86-2.56,25.93,25.93,0,0,0,3.73-7.5,63.12,63.12,0,0,0,2.87-17,57.87,57.87,0,0,0-1.71-17.09,25.24,25.24,0,0,0-3.3-7.65,7,7,0,0,0-2.73-2.52,2.19,2.19,0,0,0-1.42-.25,2.52,2.52,0,0,0-.71.26l-.36.18-.33.28a10,10,0,0,0-2.26,3.14,24.56,24.56,0,0,0-1.45,3.92,41.71,41.71,0,0,0-1.34,8.38,39.8,39.8,0,0,0,.34,8.52,21,21,0,0,0,2.58,7.83A5.8,5.8,0,0,0,405,252a1.91,1.91,0,0,0,.58.35,1.26,1.26,0,0,0,.58.08,1.48,1.48,0,0,0,.55-.22,2.47,2.47,0,0,0,.53-.49,3.76,3.76,0,0,0,.54-.72l.27-.47q.14-.24.24-.48c.16-.32.29-.66.42-1A10.37,10.37,0,0,1,407.09,249.38Z"/><path class="j" d="M72.12,326.52A8.53,8.53,0,0,0,74.46,324a20.31,20.31,0,0,0,1.8-3.54l.22-.54h0l.13.58a22.88,22.88,0,0,1,.54,4.21,13,13,0,0,1-.68,4.66,8.74,8.74,0,0,0-.62-1.78,11.37,11.37,0,0,1-.67,1.17l-.43.56h0a3.32,3.32,0,0,1-.41.43,2.55,2.55,0,0,1-.47.4,2.52,2.52,0,0,1-.59.39,3.53,3.53,0,0,1-2.7.26,4.78,4.78,0,0,1-1.19-.61,4.56,4.56,0,0,1-.94-.75,9.62,9.62,0,0,1-1.34-1.76,17,17,0,0,1-1.63-3.74,26.44,26.44,0,0,1-.84-3.93,34.11,34.11,0,0,1-.15-7.95,32.1,32.1,0,0,1,1.61-7.81,17.56,17.56,0,0,1,1.73-3.73A8.52,8.52,0,0,1,71,297.39l.55-.27.62-.18a4.16,4.16,0,0,1,1.27-.13,6,6,0,0,1,1.27.22l1.07.47a10.28,10.28,0,0,1,3.19,3,24.49,24.49,0,0,1,3.31,7.35,49.41,49.41,0,0,1,1.58,15.64,51.87,51.87,0,0,1-3,15.39,22.21,22.21,0,0,1-4,7,10,10,0,0,1-3.5,2.57,7.05,7.05,0,0,1-2.27.5,7.24,7.24,0,0,1-2.31-.31l.73-2.27c2,.69,4-.33,5.59-2.09a20.42,20.42,0,0,0,3.6-6.25,49.73,49.73,0,0,0,2.87-14.68A46.53,46.53,0,0,0,80,308.46a22.37,22.37,0,0,0-3-6.62,8.34,8.34,0,0,0-2.39-2.27,2.42,2.42,0,0,0-2.55-.11,6.27,6.27,0,0,0-2.21,2.28A15.93,15.93,0,0,0,68.34,305a29.69,29.69,0,0,0-1.48,7.23,32.23,32.23,0,0,0,.13,7.41,19.06,19.06,0,0,0,2.13,6.85,7.07,7.07,0,0,0,.93,1.31,2.5,2.5,0,0,0,.56.46,2.16,2.16,0,0,0,.51.29,1.31,1.31,0,0,0,1-.08,1,1,0,0,0,.21-.15,1.28,1.28,0,0,0,.26-.2c.08-.1.17-.17.25-.27v0l.29-.38a7.73,7.73,0,0,0,.51-.88A6.53,6.53,0,0,1,72.12,326.52Z"/><path class="k" d="M4.94,356.35H6.62v2h2v1.68h-2v2H4.94v-2h-2v-1.68h2Z"/><path class="k" d="M10.13,353.65h2.7l1.28,2.18,1.29-2.18h2.69l-2.69,3.93,3.12,4.51H15.88l-1.77-2.76-1.93,2.76H9.53l3.3-4.51Z"/><path class="k" d="M46.41,307.66h0a1.84,1.84,0,0,1,.77-.77,2.25,2.25,0,0,1,1.09-.25h.39v1.95a1.8,1.8,0,0,0-.4-.15,3,3,0,0,0-.46,0,1.25,1.25,0,0,0-1.1.46,2.22,2.22,0,0,0-.31,1.28v2.31h-2v-5.73h2Z"/><path class="k" d="M53.59,306.73a3.55,3.55,0,0,1,1.1.6,2.81,2.81,0,0,1,.76,1,3.19,3.19,0,0,1,0,2.57,2.88,2.88,0,0,1-.75,1,3.49,3.49,0,0,1-1.11.6,4.44,4.44,0,0,1-1.32.2,4.06,4.06,0,0,1-1.32-.2,3.14,3.14,0,0,1-1.11-.6,2.87,2.87,0,0,1-.76-1,3.22,3.22,0,0,1,0-2.58,2.81,2.81,0,0,1,.76-1,3.49,3.49,0,0,1,1.11-.6,4.06,4.06,0,0,1,1.32-.2A4.14,4.14,0,0,1,53.59,306.73Zm-2.28,1.94a1.3,1.3,0,0,0-.35.92,1.24,1.24,0,0,0,1.31,1.29,1.26,1.26,0,0,0,.95-.37,1.24,1.24,0,0,0,.35-.92,1.26,1.26,0,0,0-.35-.92,1.39,1.39,0,0,0-1.91,0Z"/><path class="k" d="M58.67,312.45h-2v-9.28h2Z"/><path class="k" d="M62.05,312.45H60v-9.28h2Z"/><path class="l" d="M375.82,255.87h0a1.63,1.63,0,0,1,.74-.63,2.38,2.38,0,0,1,1-.21,2.85,2.85,0,0,1,1.17.24,2.76,2.76,0,0,1,.92.67,2.92,2.92,0,0,1,.6,1,3.36,3.36,0,0,1,0,2.34,3,3,0,0,1-.59,1,2.73,2.73,0,0,1-2.07.89,2.53,2.53,0,0,1-1-.19,2,2,0,0,1-.79-.54v3.41h-2v-8.6h2Zm.28,1.3a1.32,1.32,0,0,0-.35.92,1.28,1.28,0,0,0,.35.92,1.3,1.3,0,0,0,1,.37A1.26,1.26,0,0,0,378,259a1.25,1.25,0,0,0,.36-.92,1.28,1.28,0,0,0-.36-.92,1.23,1.23,0,0,0-.95-.38A1.27,1.27,0,0,0,376.1,257.17Z"/><path class="l" d="M383.3,252.21a1.15,1.15,0,0,1,0,1.61,1.12,1.12,0,0,1-.81.33,1.09,1.09,0,0,1-.8-.33,1.12,1.12,0,0,1,0-1.61,1.1,1.1,0,0,1,.8-.34A1.13,1.13,0,0,1,383.3,252.21Zm.21,8.74h-2v-5.73h2Z"/><path class="l" d="M387.08,261h-2v-4.06h-.66v-1.67H385V253.5h2v1.72h1.15v1.67h-1.15Z"/><path class="l" d="M393,257.08a2.65,2.65,0,0,0-.51-.29,1.5,1.5,0,0,0-.55-.11,1.38,1.38,0,0,0-1,.4,1.46,1.46,0,0,0,0,2,1.39,1.39,0,0,0,1,.4,1.49,1.49,0,0,0,.54-.11,1.64,1.64,0,0,0,.48-.28v1.72a3.14,3.14,0,0,1-1.44.32,3.22,3.22,0,0,1-1.19-.22,3,3,0,0,1-1-.63,2.71,2.71,0,0,1-.68-1,3,3,0,0,1-.25-1.19,3.22,3.22,0,0,1,.25-1.26,2.91,2.91,0,0,1,.68-1,2.94,2.94,0,0,1,1-.64,3.46,3.46,0,0,1,1.25-.22,2.78,2.78,0,0,1,1.35.33Z"/><path class="l" d="M396.31,251.67v4.27h0a2.26,2.26,0,0,1,.8-.69,2.2,2.2,0,0,1,1-.22,2,2,0,0,1,1.61.64,2.66,2.66,0,0,1,.55,1.77V261h-2V258a4.11,4.11,0,0,0,0-.53,1.47,1.47,0,0,0-.13-.42.73.73,0,0,0-.28-.3.93.93,0,0,0-.47-.11.86.86,0,0,0-.81.4,1.72,1.72,0,0,0-.26,1V261h-2v-9.28Z"/><path class="l" d="M439.71,252.64h2V255h2.41v1.92H441.7v2.32h-2v-2.32H437.3V255h2.41Z"/><path class="l" d="M445,249.56h3.12l1.87,2.62,1.88-2.62H455l-3.69,5v4.62H448.7v-4.62Z"/><path class="l" d="M186.64,98.81v1.67h-3.2V98.81Z"/><path class="l" d="M187,94.8h2.63l1.57,2.3,1.58-2.3h2.63l-3.11,4.39v4h-2.19v-4Z"/><polygon class="m" points="412.66 209.33 170.36 349.59 55.86 283.48 298.15 143.22 412.66 209.33"/><polygon points="385.43 194.1 380.92 195.62 367.51 185.54 366.39 179.82 375.91 179.37 381.17 180.68 385.98 189.14 385.43 194.1"/><polygon points="217.49 303.93 211.36 300.79 194.26 284.82 201.16 273.9 220.12 279.46 228.87 288.63 228.56 293.58 217.49 303.93"/><path class="n" d="M115.56,169.56a15,15,0,0,0,0,2.22,8.88,8.88,0,0,0,2.88,6.14l.12.12,7.19,6.47.24.15a1.76,1.76,0,0,0,.45-.07l.11,0h0l.2-.22a2.2,2.2,0,0,0,.41-1.65,2.5,2.5,0,0,0,0-.35c0-.46,0-.92-.08-1.38-.08-.12-5.7-7.83-6-8.23,0,0-4.58-6.38-5.3-4.95a4.16,4.16,0,0,0-.17,1.1c0,.2,0,.47-.07.67Z"/><path class="o" d="M115.81,167.77c.72-1.43,5.3,4.95,5.3,4.95.3.4,5.92,8.11,6,8.23a8.35,8.35,0,0,0-.15-1.11,9.78,9.78,0,0,0-.48-1.5,2.06,2.06,0,0,1-.15-.66c-1-1.8-3.47-5.28-4.32-6.43,0,0-4.23-5.55-5.08-4.95A3.15,3.15,0,0,0,115.81,167.77Z"/><path class="p" d="M122,171.25c.85,1.15,3.3,4.63,4.32,6.43a1.5,1.5,0,0,1,.12-.74,1,1,0,0,1,.62-.52l2.54-.74.44.22a32.14,32.14,0,0,0-6.09-10c-1.6-1.69-2.38-1.56-2.38-1.56-.3.09-3.89,1.47-3.89,1.47a4.52,4.52,0,0,0-.76.5C117.78,165.7,122,171.25,122,171.25Z"/><path class="o" d="M127.07,176.42a1,1,0,0,0-.62.52,1.5,1.5,0,0,0-.12.74,2.06,2.06,0,0,0,.15.66l4,2a3.29,3.29,0,0,1,1.31-1.56Z"/><path class="p" d="M130.05,175.9l-.44-.22-2.54.74,4.77,2.34,1.84-1.08Z"/><path class="n" d="M126.59,184.55h0l2.06,1.85a.62.62,0,0,1,0-.42l1.89-5.67-4-2a9.78,9.78,0,0,1,.48,1.5,8.35,8.35,0,0,1,.15,1.11c0,.46.06.92.08,1.38a2.5,2.5,0,0,1,0,.35,2.2,2.2,0,0,1-.41,1.65l-.2.22Z"/><path class="q" d="M75,265.62a2.16,2.16,0,0,0,0,.36Z"/><path class="q" d="M75,274.43a1.2,1.2,0,0,0,0,.27Z"/><path class="n" d="M75,269.91V270a2.82,2.82,0,0,0,.09.71,3.5,3.5,0,0,0,1.87,2.21L133.2,305.4c2.34,1.34,6.24,1.6,8.92,1.57,3,0,5.32-.32,6.16.59a3.22,3.22,0,0,1,.6,1.89c.2,2,.2,5.53.2,7.54,0,1.09,0,1.9-.76,2.57a13.1,13.1,0,0,1-4.52,1.65,18.9,18.9,0,0,1-10.92-.55c-1.16-.39,2.83,1.82-55.47-31.85a4.4,4.4,0,0,1-1.24-1A4.55,4.55,0,0,1,75,284.86v4A4.42,4.42,0,0,0,76.54,292l55.79,32.22.14.08a20.24,20.24,0,0,0,5.4,2,26.55,26.55,0,0,0,8.76.07c.43,0,4.55-.58,5-.64l11.5-2V319.1c0-7.62,3.72-14.88,9-20.75h0a138.41,138.41,0,0,0-15.57,1.77c-12.18,1.94-13.82,2.57-17.12,2.54a13,13,0,0,1-5-.84,4.1,4.1,0,0,1-.65-.35c-2-1.13-11.31-6.51-56.88-32.83h0A3.28,3.28,0,0,1,75,266Z"/><path class="r" d="M75,281.44h0a4.22,4.22,0,0,0,1,2.75c.63.84,1.2,1.05,5.13,3.32.35.21.71.16.86-.24.07-.2,0,.12.18-5.38a1.88,1.88,0,0,0-.85-1.55L77,277.9a4.2,4.2,0,0,1-1.52-1.42,4.35,4.35,0,0,1-.48-1.24c0-.46,0-.78,0-.81,0-.23-.07-.21-.08,0V270a2.82,2.82,0,0,0,.09.71,3.5,3.5,0,0,0,1.87,2.21L133.2,305.4c2.34,1.34,6.24,1.6,8.92,1.57,3,0,5.32-.32,6.16.59a3.22,3.22,0,0,1,.6,1.89c.2,2,.2,5.53.2,7.54,0,1.09,0,1.9-.76,2.57a13.1,13.1,0,0,1-4.52,1.65,18.9,18.9,0,0,1-10.92-.55c-1.16-.39,2.83,1.82-55.47-31.85a4.4,4.4,0,0,1-1.24-1A4.55,4.55,0,0,1,75,284.86Zm47.57,30.3c.47.27.89.07.91-.53.17-6.56.25-6.38.18-6.74a1.87,1.87,0,0,0-.81-1.22c-37.75-21.8-35.28-20.4-35.49-20.44-.4-.08-.63.22-.65.64,0,1.14-.18,5.51-.21,6.41a2,2,0,0,0,.54,1.3C87.23,291.4,84.94,290,122.52,311.74Zm5.36,2.79c4.19,2.42,4.38,2.6,5.49,3a22.61,22.61,0,0,0,4,.86,1.7,1.7,0,0,0,.55,0c.47-.08,1-.37,1-.8,0-.09,0-.32,0-5.12,0-.63-.91-1-1.58-1.12a21,21,0,0,1-2.87-.54c-1.42-.37-1.58-.58-6.43-3.38-.46-.27-.89-.07-.91.53-.16,5.28-.16,5.2-.11,5.43A2,2,0,0,0,127.88,314.53Z"/><path class="s" d="M75,274.7v6.74h0c0-.45,0-.9.07-1.41,0-.06,0-3.25,0-4.79A3.35,3.35,0,0,1,75,274.7Z"/><path class="s" d="M75,274.43v.27a3.35,3.35,0,0,0,.09.54c0-.46,0-.78,0-.81,0-.23-.07-.21-.08,0Z"/><path class="s" d="M75,275.24c0,1.54,0,4.73,0,4.79,0,.51-.07,1-.07,1.41a4.22,4.22,0,0,0,1,2.75c.63.84,1.2,1.05,5.13,3.32.35.21.71.16.86-.24.07-.2,0,.12.18-5.38a1.88,1.88,0,0,0-.85-1.55L77,277.9a4.2,4.2,0,0,1-1.52-1.42A4.35,4.35,0,0,1,75,275.24Z"/><path class="t" d="M76.86,268.63,77,258a3.56,3.56,0,0,1-1.81-3.49h0c-.16,1.94-.2,4.34-.2,7.61V266a3.28,3.28,0,0,0,1.88,2.64Z"/><path class="u" d="M77,258l-.12,10.68c45.57,26.32,54.88,31.7,56.88,32.83l0,0c.1-.66.21-1.32.32-2a64.58,64.58,0,0,1,1.72-7.54C134.14,291,125.41,285.91,77,258Z"/><path class="f" d="M87.31,282.81c-.4-.08-.63.22-.65.64,0,1.14-.18,5.51-.21,6.41a2,2,0,0,0,.54,1.3c.24.24-2-1.12,35.53,20.58.47.27.89.07.91-.53.17-6.56.25-6.38.18-6.74a1.87,1.87,0,0,0-.81-1.22C85.05,281.45,87.52,282.85,87.31,282.81Z"/><path class="s" d="M127.17,307.87c-.16,5.28-.16,5.2-.11,5.43a1.84,1.84,0,0,0,.83,1.21c4.19,2.42,4.37,2.61,5.48,2.95a21.76,21.76,0,0,0,4,.86,2,2,0,0,0,.55,0c.47-.09,1-.38,1-.81,0-.08,0-.32,0-5.11,0-.64-.9-1.05-1.58-1.12a22.68,22.68,0,0,1-2.86-.55c-1.42-.37-1.58-.58-6.43-3.38C127.61,307.07,127.18,307.27,127.17,307.87Z"/><path class="u" d="M400.94,130.83a6.08,6.08,0,0,1-1.52,2.17c-.34.35-.67.66-1,1a63,63,0,0,1-12,7.79c-3.6,1.86-5.15,2.23-9.77,2.68-1.66-.42-3.58-1-5.21-1.6a12,12,0,0,0-2.25-.8c-15-1.41-22.48-1.26-31.18-.69l-.52,0a57.06,57.06,0,0,0-17.07,4.06c-15.94,6.46-52.46,22.74-67.69,41.76-2,2.56-4.52,6.74-9.48,15.54-1.09,1.91-17,31.64-18,33.59a45.85,45.85,0,0,1-5.76,11.52c-4.91,5.67-6.66,7-9.66,9.14-14.59,10.26-18.57,13.59-25.76,16.53-40.43,16.57-38.13,15.58-39.56,16.38a5.49,5.49,0,0,0-1.67,1.31,11,11,0,0,0-.69.87c4.64-1.46,19.34-8.3,24.27-9.75,2.3-.68,4.56-1,3.74,1.27s-5.93,8.72-7.41,10.4a7.36,7.36,0,0,1-1.88,1.64,20.75,20.75,0,0,1-4.71,1.66c-.94.24-9.7,2.25-10.63,2.43a27.22,27.22,0,0,1-8.1.7,8.26,8.26,0,0,1-3.31-1h0c-.11.65-.22,1.31-.32,2l0,0a4.1,4.1,0,0,0,.65.35,13,13,0,0,0,5,.84c3.3,0,4.94-.6,17.12-2.54A138.41,138.41,0,0,1,172,298.34h0a47,47,0,0,1,7-6.42c1.88-1.41,3.73-2.58,5.72-3.84,5.21-3.29,10.7-7.08,16.58-8.79,10.68-3.09,17.81,2.09,19.52,11.93a28.43,28.43,0,0,1,.4,4.8v0l7.22-4.19c0-2,.12-27.76.13-29.37,0-5.39.21-7.78,2-14.83.16-.62.32-1.2.46-1.75l-7.7,4.79a9.46,9.46,0,0,1-2.26.94c-3.65.73,4.33-7.08,10.17-17,.19-.32,1-1.82,2.16-3.95,3.39-6.26,9.7-18,11.79-21.66,8.27-14.49,13.84-21.79,38.15-36.59l3.31-2c11.1-6.58,23.46-13,29.94-16a84.86,84.86,0,0,1,15.33-5.5c1.83-.44,3.59-.78,5.32-1.06,3.85,1.09,18.54,5.18,21.34,8a1.78,1.78,0,0,1,.47,2.15,17.49,17.49,0,0,1-2.46,3.59,63.57,63.57,0,0,1-7.27,6.72c1.31,3.45,1,6,.07,9.69-.7,2.86-1.82,6.21-2.8,9-3.46,9.89-13.19,34.52-15.35,40,3.64-2.55,7.26-5.12,10.82-7.68.13-.85.29-1.75.5-2.74,2.92-13.9,12-27.68,21.84-34.45,8.59-5.93,16.27-5.61,20,1.06,7.59-6.41,13-13.76,15.55-19.12a14.21,14.21,0,0,0,1.53-5.3v-5h0a6,6,0,0,1-.3,1.85c-1.21,3.8-7.66,11.58-8.94,11.88-.38.08-.46-.3-.44-.69a37.67,37.67,0,0,1,1.48-6.32c4.23-14.4,6.47-15.24,8.2-19.63h0v-.17c0-2.13-.11-4.48-.29-6.65-.07-.91-.18-2.06-.36-3.16Z"/><path class="t" d="M142.13,292.1h0a8.71,8.71,0,0,1-5.83,0c-.11,0,0,0-.48-.24a64.58,64.58,0,0,0-1.72,7.54h0a8.26,8.26,0,0,0,3.31,1,27.22,27.22,0,0,0,8.1-.7c.93-.18,9.69-2.19,10.63-2.43a20.75,20.75,0,0,0,4.71-1.66,7.36,7.36,0,0,0,1.88-1.64c1.48-1.68,6.55-8,7.41-10.4s-1.44-1.95-3.74-1.27C161.47,283.8,146.77,290.64,142.13,292.1Z"/><path class="r" d="M384.52,183.16c-3.75-6.67-11.43-7-20-1.06-9.82,6.77-18.92,20.55-21.84,34.45-.21,1-.37,1.89-.5,2.74-3.56,2.56-7.18,5.13-10.82,7.68-10.69,7.47-21.58,14.78-31.53,21.29-1.71,1.12-5,3.19-9,5.74-13.46,8.48-35.58,22.25-38.18,23.81-2.33,1.4-15.58,9.1-24.11,14.05l-7.22,4.19v0a28.43,28.43,0,0,0-.4-4.8c-1.71-9.84-8.84-15-19.52-11.93-5.88,1.71-11.37,5.5-16.58,8.79-2,1.26-3.84,2.43-5.72,3.84a47,47,0,0,0-7,6.42c-5.23,5.87-9,13.13-9,20.75v4.69l5.37-.92h0v-4.95h0c0-8.08,5-15.73,11.17-21.13,1-.91,2.1-1.74,3.19-2.55.27-.2,2.58-1.86,4.9-3.47,1.12-.77,2.23-1.52,3.13-2.1A37.77,37.77,0,0,1,200.5,284h0a16.84,16.84,0,0,1,3.86-.73,12.71,12.71,0,0,1,3.64.21c6.72,1.36,9.45,7.84,9.45,14.74h0v5.75L344,229.38l1.32-.78v-5.83c0-11.39,6.53-24.72,14.88-32.79,4.21-4.06,8.42-6.41,12.1-7,5.7-.93,10.1,2.37,11.18,10.08a20.65,20.65,0,0,1,1,6.23h0a45.42,45.42,0,0,0,7.47-6.74,80.4,80.4,0,0,0,6.11-8.17c1.77-2.79,3.49-5.87,3.5-9.17V158.74a14.21,14.21,0,0,1-1.53,5.3C397.54,169.4,392.11,176.75,384.52,183.16Z"/><path class="v" d="M180.19,142.61c-3.48,2.16-7.59,5.23-11.22,8,3.58-1.76,9.42-.64,13.27.39,10.55,2.81,22.8,9.26,32.16,14.79,7.65,4.51,19.08,11.84,24.53,18.85,1.7,2.19,3.52,5.24,2.65,7.87h0c4.58-7,7.38-9.54,9-11.9a8.43,8.43,0,0,0,1.46-6.9c-1.29-5.18-9.41-11.88-13.71-15.08-15-11.16-34.45-18.25-43.78-19.2a23.51,23.51,0,0,0-10.52,1.16A21.55,21.55,0,0,0,180.19,142.61Z"/><path class="r" d="M197.88,288.15a12.16,12.16,0,0,1,7.6-1,10.18,10.18,0,0,1,6,4.76c1.73,3,1.8,6.67,1.39,10.14a37,37,0,0,1-3.7,12.32C205.85,321,200,328,193.24,330.84a12.23,12.23,0,0,1-7.6,1,10.18,10.18,0,0,1-6-4.76,14.15,14.15,0,0,1-1.59-7.49C178.44,306.13,188.05,292.31,197.88,288.15Zm-9.58,37.7a8.85,8.85,0,0,0,5.56-.73c7.21-3.05,14.24-13.17,14.5-23a10.33,10.33,0,0,0-1.17-5.49,7.42,7.42,0,0,0-4.37-3.49,8.94,8.94,0,0,0-5.56.74c-6.44,2.72-13.21,11.42-14.35,21.07-.3,2.55-.25,5.23,1,7.43A7.42,7.42,0,0,0,188.3,325.85Z"/><path class="t" d="M187.93,302.91c-2.75,4.13-4.53,9-4.52,13.35h0c1.16-.86,4.2-2.15,6.9-4.77a9.22,9.22,0,0,1,1.64-4.87C190.6,305.16,188.78,303.72,187.93,302.91Z"/><path class="r" d="M202.82,293.13a7.42,7.42,0,0,1,4.37,3.49,10.33,10.33,0,0,1,1.17,5.49c-.26,9.84-7.29,20-14.5,23a8.85,8.85,0,0,1-5.56.73,7.42,7.42,0,0,1-4.38-3.48c-1.26-2.2-1.31-4.88-1-7.43,1.14-9.65,7.91-18.35,14.35-21.07A8.94,8.94,0,0,1,202.82,293.13Zm4.46,9.36a11.08,11.08,0,0,0-1.19-5.29,6.06,6.06,0,0,0-6.84-3.1,12,12,0,0,0-1.25.31c-3.77,1.17-7.39,4.45-10.07,8.5s-4.53,9-4.52,13.35A12.28,12.28,0,0,0,184,320a6.38,6.38,0,0,0,4,4.45c2.09.71,4.69.26,7.27-1.2a18.33,18.33,0,0,0,2.82-2,28.1,28.1,0,0,0,8.09-12.13A21.32,21.32,0,0,0,207.28,302.49Z"/><path class="t" d="M198,294.41c-3.77,1.17-7.39,4.45-10.07,8.5.85.81,2.67,2.25,4,3.71a9,9,0,0,1,1.87-2.09,5.6,5.6,0,0,1,1.8-1C197.35,299.52,197.52,296.05,198,294.41Z"/><path class="t" d="M192,314.47c-1.33,5-3.42,8.26-4,10,2.09.71,4.69.26,7.27-1.2a18.33,18.33,0,0,0,2.82-2h0a49.52,49.52,0,0,0-2.27-7.72h0a4.45,4.45,0,0,1-3.64,1Z"/><path class="t" d="M190.32,311.49c-2.7,2.62-5.74,3.91-6.9,4.77h0A12.28,12.28,0,0,0,184,320a6.38,6.38,0,0,0,4,4.45c.62-1.71,2.71-4.93,4-10C190.44,314,190.32,311.49,190.32,311.49Z"/><path class="w" d="M191.85,311.4a2.81,2.81,0,0,0,.32,1.49,2,2,0,0,0,1.2,1c1.08.28,2.4-.59,3.19-1.39a7.92,7.92,0,0,0,2.25-4.57,3.31,3.31,0,0,0-.28-2,2,2,0,0,0-1.19-1c-1.09-.28-2.41.59-3.2,1.39A7.85,7.85,0,0,0,191.85,311.4Z"/><path class="t" d="M195.73,313.55h0a49.52,49.52,0,0,1,2.27,7.72h0a28.1,28.1,0,0,0,8.09-12.13,60.54,60.54,0,0,1-7.21-.23h0a9.62,9.62,0,0,1-2.57,4.15C196.13,313.24,195.93,313.4,195.73,313.55Z"/><path class="t" d="M195.63,303.52a2.43,2.43,0,0,1,2.52.44l0,0a2.49,2.49,0,0,1,.43.54c4.14-3.14,6.07-6,7.49-7.33a6.06,6.06,0,0,0-6.84-3.1,12,12,0,0,0-1.25.31C197.52,296.05,197.35,299.52,195.63,303.52Z"/><path class="u" d="M198.53,305.85a2,2,0,0,0-1.19-1c-1.09-.28-2.41.59-3.2,1.39a7.85,7.85,0,0,0-2.29,5.11,2.81,2.81,0,0,0,.32,1.49,2,2,0,0,0,1.2,1c1.08.28,2.4-.59,3.19-1.39a7.92,7.92,0,0,0,2.25-4.57A3.31,3.31,0,0,0,198.53,305.85Zm.36,3.07a9.62,9.62,0,0,1-2.57,4.15c-.19.17-.39.33-.59.48a4.45,4.45,0,0,1-3.64,1l-.13,0c-1.52-.51-1.64-3-1.64-3a9.22,9.22,0,0,1,1.64-4.87,9,9,0,0,1,1.87-2.09,5.6,5.6,0,0,1,1.8-1,2.43,2.43,0,0,1,2.52.44l0,0a2.49,2.49,0,0,1,.43.54,4.74,4.74,0,0,1,.57,3.07A9.67,9.67,0,0,1,198.89,308.92Z"/><path class="t" d="M198.89,308.92h0a60.54,60.54,0,0,0,7.21.23,21.32,21.32,0,0,0,1.18-6.66,11.08,11.08,0,0,0-1.19-5.29c-1.42,1.31-3.35,4.19-7.49,7.33a4.74,4.74,0,0,1,.57,3.07A9.67,9.67,0,0,1,198.89,308.92Z"/><path class="x" d="M180.23,332l-7.18-4.16a11.44,11.44,0,0,1-4.58-5h0v-4.95h0c0-8.08,5-15.73,11.17-21.13,1-.91,2.1-1.74,3.19-2.55.27-.2,2.58-1.86,4.9-3.47,1.12-.77,2.23-1.52,3.13-2.1A37.77,37.77,0,0,1,200.5,284h0a16.84,16.84,0,0,1,3.86-.73l3,1.73,0,0c5.6,3.27,6.89,10.41,6.09,16.92q-.06.56-.15,1.08a42.77,42.77,0,0,1-15.16,25.69C193,332.71,186,335.33,180.23,332Zm32.61-30c.41-3.47.34-7.14-1.39-10.14a10.18,10.18,0,0,0-6-4.76,12.16,12.16,0,0,0-7.6,1c-9.83,4.16-19.44,18-19.8,31.44a14.15,14.15,0,0,0,1.59,7.49,10.18,10.18,0,0,0,6,4.76,12.23,12.23,0,0,0,7.6-1c6.75-2.86,12.61-9.89,15.9-16.47A37,37,0,0,0,212.84,302.05Z"/><path class="w" d="M231.34,234.6c-5.84,10-13.82,17.77-10.17,17a9.46,9.46,0,0,0,2.26-.94l7.7-4.79c1.89-6.92,2.75-8.54,2.37-15.26C232.35,232.78,231.53,234.28,231.34,234.6Z"/><path class="w" d="M220.08,251.66c-.48-.76.78-2.52,3.68-6.43a121.63,121.63,0,0,0,7.35-10.76h0c.18-.32,1-1.79,2.08-3.82l.53-1,.05.95c.33,5.75-.27,7.88-1.59,12.53-.24.84-.5,1.77-.79,2.82l0,.1-.09.06c-4.3,2.68-7.55,4.7-7.73,4.8a9.76,9.76,0,0,1-2.33,1,2.27,2.27,0,0,1-.46.05A.76.76,0,0,1,220.08,251.66ZM231.66,243c1.26-4.45,1.82-6.45,1.62-11.39-.93,1.72-1.54,2.84-1.71,3.12a123.55,123.55,0,0,1-7.37,10.81c-1.95,2.63-4,5.35-3.67,5.82,0,0,.18.09.58,0a9.48,9.48,0,0,0,2.19-.92c.15-.09,3-1.87,7.6-4.72Z"/><path class="u" d="M230.67,247.66c.16-.62.32-1.2.46-1.75,13.68-8.53,42.47-26.56,60.89-38.21-.16,1.58-.36,3.78-.58,7.21-.71,11.27-.65,23.5-.65,39.09-13.46,8.48-35.58,22.25-38.18,23.81-2.33,1.4-15.58,9.1-24.11,14.05,0-2,.12-27.76.13-29.37C228.66,257.1,228.84,254.71,230.67,247.66Zm46.65-19.5c2.9-1.85,5.76-3.68,8.64-5.54a2.88,2.88,0,0,0,1.22-2.25l-.06-2.23c-3.69,2.38-7.47,4.81-11.19,7.18l.06,2.18C276,228.33,276.62,228.62,277.32,228.16Z"/><path class="v" d="M255.25,99.85c-1.72,2.46-.44,5.14,1.41,7.5a54.41,54.41,0,0,0,8,7.76c11.07,9,25.83,16.06,38.93,20.24a52.6,52.6,0,0,0,13.81,2.83c8.06.41,11.65-1.9,23.24-2.61-17.63-.49-80.61-37.36-72.75-42h0c-1.64.56-3.25,1.16-4.86,1.81s-3.3,1.4-4.73,2.16A7.91,7.91,0,0,0,255.25,99.85Z"/><path class="n" d="M275.93,225.32l.06,2.18c0,.83.63,1.12,1.33.66,2.9-1.85,5.76-3.68,8.64-5.54a2.88,2.88,0,0,0,1.22-2.25l-.06-2.23C283.43,220.52,279.65,223,275.93,225.32Z"/><path class="u" d="M292,207.7c7.2-4.55,12.81-8.13,15.33-9.79,3.26-2.15,26.37-17.87,28.46-19.37,3.41-2.43,8.89-6.38,13.61-10.24,1.31,3.45,1,6,.07,9.69-.7,2.86-1.82,6.21-2.8,9-3.46,9.89-13.19,34.52-15.35,40-10.69,7.47-21.58,14.78-31.53,21.29-1.71,1.12-5,3.19-9,5.74,0-15.59-.06-27.82.65-39.09C291.66,211.48,291.86,209.28,292,207.7ZM334.35,191c2.71-1.82,5.73-3.85,8.41-5.68a3,3,0,0,0,1.14-1.76,13.81,13.81,0,0,0,0-2.74c-3.75,2.56-7.12,4.82-10.9,7.36,0,.72,0,1.44.05,2.18S333.63,191.44,334.35,191Z"/><path class="v" d="M213.08,241.93h0a48.17,48.17,0,0,0,6.07-8.82c1-2,17.1-31.77,18.22-33.71,1.55-2.67,2.94-4.92,4.21-6.84,4.58-7,7.38-9.54,9-11.9a8.43,8.43,0,0,0,1.46-6.9c-1.29-5.18-9.41-11.88-13.71-15.08-15-11.16-34.45-18.25-43.78-19.2a23.51,23.51,0,0,0-10.52,1.16,21.55,21.55,0,0,0-3.86,2c-3.48,2.16-7.59,5.23-11.22,8h0c-1.21.94-2.37,1.85-3.44,2.7-1.91,1.52-33.58,27.47-34.49,28.22a42.77,42.77,0,0,0-6.69,6.63c-.65,3.5,5.42,8.86,8.12,11.16,13.11,11.11,42.26,28.35,56.35,35.44,5.09,2.54,19.19,9.52,24.27,7.11ZM267.89,93.52c-1.64.56-3.25,1.16-4.86,1.81s-3.3,1.4-4.73,2.16a7.91,7.91,0,0,0-3.05,2.36c-1.72,2.46-.44,5.14,1.41,7.5a54.41,54.41,0,0,0,8,7.76c11.07,9,25.83,16.06,38.93,20.24a52.6,52.6,0,0,0,13.81,2.83c8.06.41,11.65-1.9,23.24-2.61a174.71,174.71,0,0,1,26.52.8l.92.08a35.7,35.7,0,0,0,5.66,0,24.38,24.38,0,0,0,5-.77,21.44,21.44,0,0,0,3.56-1.57,60.25,60.25,0,0,0,11.21-7.22c.29-.25.64-.59.91-.84a5,5,0,0,1,1.64-.85,2.83,2.83,0,0,1,1.22-.29,1.24,1.24,0,0,1,.57.18,6.16,6.16,0,0,1,2.66,3.57,14.22,14.22,0,0,1,.47,2.14h0a6.08,6.08,0,0,1-1.52,2.17c-.34.35-.67.66-1,1a63,63,0,0,1-12,7.79c-3.6,1.86-5.15,2.23-9.77,2.68-1.66-.42-3.58-1-5.21-1.6a12,12,0,0,0-2.25-.8c-15-1.41-22.48-1.26-31.18-.69l-.52,0a57.06,57.06,0,0,0-17.07,4.06c-15.94,6.46-52.46,22.74-67.69,41.76-2,2.56-4.52,6.74-9.48,15.54-1.09,1.91-17,31.64-18,33.59a45.85,45.85,0,0,1-5.76,11.52c-4.91,5.67-6.66,7-9.66,9.14-14.59,10.26-18.57,13.59-25.76,16.53-40.43,16.57-38.13,15.58-39.56,16.38a5.49,5.49,0,0,0-1.67,1.31,11,11,0,0,0-.69.87h0a8.71,8.71,0,0,1-5.83,0c-.11,0,0,0-.48-.24-1.67-1-10.4-6-58.83-34a3.56,3.56,0,0,1-1.81-3.49h0c.37-4.62,1.36-6.78,3.89-12.32,1.26-2.78,10.42-21.47,10.78-22.16a29.86,29.86,0,0,1,2.62-4.24c3.93-5.28,12.75-12.73,17.89-16.79,4.25-3.33,4.79-3.51,10.41-10.37a61,61,0,0,1,8.44-8.57c5.87-4.85,32.47-26.55,35.46-28.87a146.73,146.73,0,0,1,14-9.9l.09-.05,75-43.29h0c8.47-4.81,21.43-8,31-10a0,0,0,0,0,0,0,36.76,36.76,0,0,1,7-.53h0c3.19,0,4.9-.57,10.3-1.83,4.25-1,8.43-1.94,12.74-2.71,3.18-.55,6.44-1.83,8.95-.48a.09.09,0,0,1,.06,0,2.59,2.59,0,0,0-1.5-.21c-3.28.46-3.63,1-5.75,1.38-6.83,1.2-15.14,3.32-17.73,3.84a24.14,24.14,0,0,1-2.48.39,26.72,26.72,0,0,1-2.77.14,29.19,29.19,0,0,0-5.67.4l-3.41.72A151.71,151.71,0,0,0,267.89,93.52Z"/><path class="q" d="M323.93,82.46l.09.05Z"/><path class="n" d="M333,188.14c0,.72,0,1.44.05,2.18s.58,1.12,1.3.64c2.71-1.82,5.73-3.85,8.41-5.68a3,3,0,0,0,1.14-1.76,13.81,13.81,0,0,0,0-2.74C340.15,183.34,336.78,185.6,333,188.14Z"/><path class="r" d="M354.18,217.67a12.44,12.44,0,0,0,.53,3.72,6.42,6.42,0,0,0,4,4.45c1.95.68,4.44.39,7.27-1.19a18.91,18.91,0,0,0,2.82-2,27.8,27.8,0,0,0,8.09-12.11A21.23,21.23,0,0,0,378,203.9a11,11,0,0,0-1.19-5.29,6,6,0,0,0-6.83-3.1,10.86,10.86,0,0,0-1.25.31c-3.76,1.15-7.38,4.44-10.08,8.5S354.17,213.38,354.18,217.67Zm14.47-28.11a12.12,12.12,0,0,1,7.59-1,10.09,10.09,0,0,1,6,4.76c1.73,3,1.8,6.67,1.39,10.14a37,37,0,0,1-3.7,12.32c-3.27,6.57-9.13,13.6-15.9,16.47a12.21,12.21,0,0,1-7.59,1,10.23,10.23,0,0,1-6-4.76,14.14,14.14,0,0,1-1.58-7.49C349.21,207.49,358.85,193.7,368.65,189.56Z"/><path class="t" d="M358.69,204.32c-2.74,4.13-4.52,9.06-4.51,13.35h0c1.22-.9,4.17-2.15,6.89-4.77a9.24,9.24,0,0,1,1.64-4.88h0C361.35,206.55,359.59,205.17,358.69,204.32Z"/><path class="t" d="M354.19,217.67h0a12.44,12.44,0,0,0,.53,3.72,6.42,6.42,0,0,0,4,4.45c.7-1.86,2.69-4.83,4-10a3.16,3.16,0,0,1-1.64-3C358.36,215.52,355.41,216.77,354.19,217.67Z"/><path class="t" d="M362.72,215.87c-1.35,5.14-3.34,8.11-4,10,1.95.68,4.44.39,7.27-1.19a18.91,18.91,0,0,0,2.82-2A51.84,51.84,0,0,0,366.5,215h0a4.22,4.22,0,0,1-3.64.94Z"/><path class="t" d="M358.69,204.32c.9.85,2.66,2.23,4,3.7h0a9.53,9.53,0,0,1,1.88-2.08,5.37,5.37,0,0,1,1.8-1c1.73-4,1.87-7.45,2.37-9.12h0C365,197,361.39,200.26,358.69,204.32Z"/><path class="w" d="M362.62,212.8a2.92,2.92,0,0,0,.31,1.5,2.07,2.07,0,0,0,1.2,1c1.08.28,2.41-.59,3.2-1.39a7.9,7.9,0,0,0,2.24-4.57,3.3,3.3,0,0,0-.27-2C367.6,204.31,362.73,208.4,362.62,212.8Z"/><path class="t" d="M366.5,215a51.84,51.84,0,0,1,2.27,7.69,27.8,27.8,0,0,0,8.09-12.11,63.42,63.42,0,0,1-7.22-.23,9.62,9.62,0,0,1-3.1,4.62l0,0Z"/><path class="t" d="M368.93,205.4a2.49,2.49,0,0,1,.43.54h0c4.14-3.15,6.12-6.06,7.48-7.32a6,6,0,0,0-6.83-3.1,10.86,10.86,0,0,0-1.25.31h0c-.5,1.67-.64,5.09-2.37,9.12A2.37,2.37,0,0,1,368.93,205.4Z"/><path class="t" d="M369.37,205.93h0a5.25,5.25,0,0,1,.28,4.39,63.42,63.42,0,0,0,7.22.23A21.23,21.23,0,0,0,378,203.9a11,11,0,0,0-1.19-5.29C375.49,199.87,373.51,202.78,369.37,205.93Z"/><path class="u" d="M366.5,215a4.22,4.22,0,0,1-3.64.94l-.14,0a3.16,3.16,0,0,1-1.64-3,9.24,9.24,0,0,1,1.64-4.88,9.53,9.53,0,0,1,1.88-2.08,5.37,5.37,0,0,1,1.8-1,2.37,2.37,0,0,1,2.53.46,2.49,2.49,0,0,1,.43.54,5.25,5.25,0,0,1,.28,4.39,9.62,9.62,0,0,1-3.1,4.62Zm-3.88-2.18a2.92,2.92,0,0,0,.31,1.5,2.07,2.07,0,0,0,1.2,1c1.08.28,2.41-.59,3.2-1.39a7.9,7.9,0,0,0,2.24-4.57,3.3,3.3,0,0,0-.27-2C367.6,204.31,362.73,208.4,362.62,212.8Z"/><path class="v" d="M378.7,135.68,296.39,88.17l0-.37a26.72,26.72,0,0,1-2.77.14,29.19,29.19,0,0,0-5.67.4l-3.41.72c3.27.63,9.13,3.35,12.14,4.8.75.35,8.16,4.07,9.23,4.63s26.85,14.74,27.85,15.31c4,2.3,18.37,10.59,25.23,15,1.45.93,10.44,6.61,9.12,7.64h0a35.7,35.7,0,0,0,5.66,0,24.38,24.38,0,0,0,5-.77Z"/><path class="x" d="M351,233.44c-2.33-1.36-4.68-2.7-7-4.06l1.32-.78v-5.83c0-11.39,6.53-24.72,14.88-32.79,4.21-4.06,8.42-6.41,12.1-7h0l5.88,3.38a12,12,0,0,1,5.3,6.69,20.65,20.65,0,0,1,1,6.23,29,29,0,0,1-.37,5.11A42.75,42.75,0,0,1,369,230.08C363.74,234.11,356.73,236.75,351,233.44Zm32.6-30c.41-3.47.34-7.14-1.39-10.14a10.09,10.09,0,0,0-6-4.76,12.12,12.12,0,0,0-7.59,1c-9.8,4.14-19.44,17.93-19.8,31.44a14.14,14.14,0,0,0,1.58,7.49,10.23,10.23,0,0,0,6,4.76,12.21,12.21,0,0,0,7.59-1c6.77-2.87,12.63-9.9,15.9-16.47A37,37,0,0,0,383.6,203.46Z"/><path class="v" d="M397.77,125.09,324.14,82.58l-.12-.07-.09-.05-.11-.06a2.59,2.59,0,0,0-1.5-.21c-3.28.46-3.63,1-5.75,1.38-6.83,1.2-15.14,3.32-17.73,3.84a24.14,24.14,0,0,1-2.48.39l0,.37,82.31,47.51v0a21.44,21.44,0,0,0,3.56-1.57,60.25,60.25,0,0,0,11.21-7.22c.29-.25.64-.59.91-.84a5,5,0,0,1,1.64-.85,2.83,2.83,0,0,1,1.22-.29,1.24,1.24,0,0,1,.57.18Z"/><path class="y" d="M401.59,153.72h0V140.81h0c-1.73,4.39-4,5.23-8.2,19.63a37.67,37.67,0,0,0-1.48,6.32c0,.39.06.77.44.69,1.28-.3,7.73-8.08,8.94-11.88A6,6,0,0,0,401.59,153.72Z"/><path class="r" d="M233.5,230.65c.38,6.72-.48,8.34-2.37,15.26,13.68-8.53,42.47-26.56,60.89-38.21.21-2.08.35-3.12.37-4.51a29.35,29.35,0,0,0-.61-6c-.62-3-4.91-26.18-5-26.77l-3.31,2c-24.31,14.8-29.88,22.1-38.15,36.59C243.2,212.67,236.89,224.39,233.5,230.65Z"/><path class="w" d="M230.87,245.84c.29-1.05.55-2,.79-2.83,1.34-4.73,1.89-6.69,1.57-12.35v-.08l1.93-3.57c3.44-6.37,8.15-15.09,9.9-18.15,8.32-14.6,14.11-22,38.24-36.7l3.31-2,.33-.19.07.37c0,.16.37,2,.86,4.57,1.3,7,3.72,20,4.17,22.2a29.3,29.3,0,0,1,.62,6.07c0,1.11-.11,2-.25,3.34l-.13,1.33-.11.07c-18.11,11.45-46.51,29.24-60.89,38.21l-.59.36Zm61-39.36c.13-1.33.22-2.21.23-3.29a28.17,28.17,0,0,0-.6-6c-.45-2.18-2.87-15.21-4.18-22.21-.37-2-.65-3.51-.77-4.18-1,.59-2,1.19-3,1.79-24,14.63-29.78,22-38,36.5-1.74,3.06-6.46,11.77-9.89,18.14l-1.86,3.44c.31,5.69-.29,7.82-1.6,12.45-.19.66-.39,1.37-.6,2.15,14.52-9.06,42.32-26.47,60.19-37.77Z"/><path class="r" d="M286.75,170.4c.12.59,4.41,23.8,5,26.77a29.35,29.35,0,0,1,.61,6c0,1.39-.16,2.43-.37,4.51,7.2-4.55,12.81-8.13,15.33-9.79,3.26-2.15,26.37-17.87,28.46-19.37,3.41-2.43,8.89-6.38,13.61-10.24-.05-.14-.1-.28-.16-.41-1.38-3.35-4.17-6.12-8.1-10.09-1.23-1.24-8.3-8.09-9.14-8.89a84.86,84.86,0,0,0-15.33,5.5C310.21,157.36,297.85,163.82,286.75,170.4Z"/><path class="w" d="M291.88,206.48c.13-1.33.22-2.21.23-3.29a28.17,28.17,0,0,0-.6-6c-.45-2.18-2.87-15.21-4.18-22.21-.48-2.61-.81-4.4-.85-4.56l0-.19.16-.1c11.28-6.69,23.61-13.12,30-16A84.9,84.9,0,0,1,332,148.65l.15,0,.1.1c.88.83,7.94,7.67,9.16,8.89l.27.28c3.78,3.82,6.51,6.57,7.89,9.91l.15.4.07.18-.15.12c-4.67,3.82-10,7.69-13.62,10.27-2,1.44-25.16,17.19-28.47,19.37-2.4,1.58-7.7,5-15.33,9.79l-.47.29ZM349,168c-1.33-3.22-4-6-7.76-9.72L341,158c-1.17-1.17-7.8-7.61-9-8.78a84.16,84.16,0,0,0-15.13,5.44c-6.32,2.88-18.54,9.25-29.76,15.89.1.55.41,2.18.82,4.38,1.3,7,3.72,20,4.17,22.2a29.3,29.3,0,0,1,.62,6.07c0,1.11-.11,2-.25,3.34l-.06.64c7.38-4.66,12.51-7.94,14.85-9.49,3.31-2.17,26.44-17.91,28.45-19.36,3.57-2.54,8.83-6.34,13.45-10.11Z"/><path class="r" d="M332,148.91c.84.8,7.91,7.65,9.14,8.89,3.93,4,6.72,6.74,8.1,10.09.06.13.11.27.16.41a63.57,63.57,0,0,0,7.27-6.72,17.49,17.49,0,0,0,2.46-3.59,1.78,1.78,0,0,0-.47-2.15c-2.8-2.81-17.49-6.9-21.34-8C335.61,148.13,333.85,148.47,332,148.91Z"/><path class="w" d="M349.16,168.39a4,4,0,0,0-.15-.4c-1.33-3.22-4-6-7.76-9.72L341,158c-1.21-1.21-8.26-8.05-9.14-8.88l-.36-.34.48-.12c1.72-.42,3.47-.77,5.35-1.07h.06l.37.11c4.54,1.28,18.36,5.18,21.14,8a2,2,0,0,1,.53,2.44,18,18,0,0,1-2.5,3.66,62.66,62.66,0,0,1-7.31,6.75l-.3.25Zm-16.6-19.33c1.7,1.63,7.69,7.44,8.8,8.55l.27.28c3.78,3.82,6.51,6.57,7.89,9.91,0,0,0,0,0,0a61.78,61.78,0,0,0,6.95-6.45,17.26,17.26,0,0,0,2.41-3.51,1.51,1.51,0,0,0-.41-1.86c-1.78-1.79-8.81-4.42-20.91-7.83l-.26-.07C335.66,148.39,334.1,148.7,332.56,149.06Z"/><path class="n" d="M132.46,199.38c13.11,11.11,42.26,28.36,56.35,35.44,1.78.89,4.67,2.32,7.89,3.71,6,2.57,13.08,5,16.38,3.41h0a47.68,47.68,0,0,0,6.07-8.82c1-2,17.1-31.76,18.22-33.7,1.55-2.68,2.94-4.93,4.21-6.85h0c.87-2.63-1-5.68-2.65-7.87-5.45-7-16.88-14.34-24.53-18.85-9.36-5.53-21.6-12-32.16-14.79-.72-.19-1.51-.39-2.33-.56-3.62-.78-8-1.26-10.94.17h0c-1.21,1-2.37,1.85-3.44,2.7-1.91,1.52-33.58,27.47-34.48,28.22a42.83,42.83,0,0,0-6.7,6.63C123.7,191.72,129.76,197.08,132.46,199.38Z"/><path class="w" d="M196.59,238.78c-3-1.31-5.82-2.68-7.9-3.72-14.93-7.51-43.62-24.63-56.4-35.48h0c-6-5.11-8.69-8.84-8.21-11.41v-.06l0-.06a43.17,43.17,0,0,1,6.73-6.67c.26-.21,32.53-26.66,34.5-28.22,1.06-.85,2.22-1.76,3.43-2.7l.07-.07h0c2.43-1.17,6.15-1.22,11.05-.17.75.16,1.52.35,2.35.57,8.64,2.3,19.49,7.29,32.23,14.82,12.14,7.16,20.42,13.53,24.6,18.92,2.44,3.14,3.37,5.81,2.75,7.95l.05.05-.12.19c-1.36,2.05-2.77,4.35-4.2,6.83-1.16,2-17.28,31.92-18.22,33.7a48.35,48.35,0,0,1-6.11,8.87l-.19.21-.08-.07a7,7,0,0,1-2.63.44C207.27,242.7,202.65,241.39,196.59,238.78ZM218.93,233c.93-1.77,17.06-31.7,18.22-33.71,1.43-2.47,2.83-4.76,4.18-6.81.65-2-.23-4.55-2.61-7.61-4.15-5.34-12.38-11.66-24.45-18.79-12.71-7.5-23.5-12.47-32.1-14.76-.82-.22-1.58-.4-2.32-.56-4.8-1-8.41-1-10.73.14l-.05.05h0c-1.18.92-2.32,1.81-3.36,2.64-2,1.57-34.23,28-34.48,28.22a42,42,0,0,0-6.61,6.54c-.37,2.33,2.33,6,8,10.83,12.75,10.82,41.38,27.91,56.3,35.41,2.07,1,4.83,2.39,7.87,3.7,8,3.44,13.55,4.62,16.13,3.42A47.54,47.54,0,0,0,218.93,233Z"/><path class="r" d="M267.89,93.53c-7.86,4.68,55.12,41.55,72.75,42a174.71,174.71,0,0,1,26.52.8l.92.08h0c1.32-1-7.67-6.71-9.12-7.64-6.86-4.41-21.19-12.7-25.23-15-1-.57-26.79-14.75-27.85-15.31s-8.48-4.28-9.23-4.63c-3-1.45-8.87-4.17-12.14-4.8a151.71,151.71,0,0,0-16.62,4.46Z"/><path class="w" d="M368.06,136.72l-.93-.08a177.23,177.23,0,0,0-26.5-.8c-8.81-.25-28.17-9.42-42.07-17.21-14.82-8.3-30.33-18.76-31.53-23.4a1.59,1.59,0,0,1,.52-1.79l0-.08.29-.09a151.52,151.52,0,0,1,16.65-4.47h.11c2.4.45,6.5,2.07,12.2,4.81.77.37,8.2,4.1,9.24,4.64.84.44,26.62,14.61,27.87,15.31,3.53,2,18.17,10.47,25.24,15l.27.18c8.09,5.19,9.07,6.7,9.1,7.39a.59.59,0,0,1-.13.41v.19Zm-100-43h0a1.07,1.07,0,0,0-.48,1.34c1,3.82,13.86,13.3,31.28,23.06,18.23,10.21,34.64,16.94,41.79,17.14a178.1,178.1,0,0,1,26.56.8l.76.07h0c0-.39-.92-1.86-8.85-7l-.28-.17c-7.05-4.53-21.68-13-25.21-15-1.25-.71-27-14.87-27.85-15.31-1-.54-8.45-4.27-9.22-4.63-5.61-2.7-9.66-4.3-12-4.76A152.11,152.11,0,0,0,268.06,93.75Z"/><path class="u" d="M378.75,135.84a20.66,20.66,0,0,0,3.58-1.58c1.73-.89,7.64-4,11.25-7.24l-.18-.21c-3.58,3.19-9.47,6.32-11.19,7.21a21.29,21.29,0,0,1-3.54,1.56Z"/><path class="u" d="M293.59,88.07a25.58,25.58,0,0,0,2.78-.13c.78-.08,1.58-.21,2.5-.39s2.15-.48,3.85-.88c3.65-.85,9.17-2.14,13.88-3l-.05-.27c-4.71.83-10.23,2.12-13.89,3-1.7.4-3,.71-3.84.87a24.14,24.14,0,0,1-2.48.39,25.12,25.12,0,0,1-2.75.13Z"/><path class="u" d="M316.6,83.71a13.9,13.9,0,0,0,2.08-.55,18.1,18.1,0,0,1,3.66-.83,2.47,2.47,0,0,1,1.42.19l.12-.24a2.67,2.67,0,0,0-1.57-.22,18.12,18.12,0,0,0-3.71.85,14.31,14.31,0,0,1-2.05.53Z"/><path class="u" d="M394.48,126.18a4.68,4.68,0,0,1,1.52-.79l.08,0a2.6,2.6,0,0,1,1.16-.28,1.33,1.33,0,0,1,.51.15l.14-.23a1.41,1.41,0,0,0-.63-.19,3,3,0,0,0-1.28.29l-.07,0a4.79,4.79,0,0,0-1.61.85Z"/><path class="u" d="M393.57,127l.79-.72.13-.12-.19-.2-.13.12c-.25.24-.54.51-.77.71Z"/><path class="w" d="M135.93,292c1.2-4,2.69-6.72,4.56-8.44a16.94,16.94,0,0,1,4-2.59c1-.47,22.77-9.49,32.08-13.34l4-1.65c4.64-2,8.38-4.72,15.85-10.07,2.43-1.74,5.18-3.71,8.5-6.05,2.76-1.94,3.94-2.86,8.21-7.79l-.21-.18c-4.46,5.15-5.62,6-8.15,7.75-3.32,2.34-6.08,4.31-8.51,6-7.45,5.34-11.19,8-15.8,10l-4,1.65c-9.31,3.86-31.12,12.87-32.09,13.35a16.77,16.77,0,0,0-4.11,2.64c-1.91,1.75-3.42,4.55-4.63,8.55Z"/><path class="w" d="M291.06,254v-3.35c0-14.13,0-25.29.65-35.73.23-3.64.44-5.85.58-7.2l.12-1.2c.14-1.34.23-2.23.25-3.34a29.3,29.3,0,0,0-.62-6.07c-.45-2.17-2.87-15.2-4.17-22.2-.49-2.61-.82-4.41-.86-4.57l-.53.11c0,.16.37,1.95.85,4.56,1.31,7,3.73,20,4.18,22.21a28.17,28.17,0,0,1,.6,6c0,1.08-.1,2-.23,3.29l-.13,1.19c-.13,1.36-.35,3.58-.58,7.22-.66,10.47-.66,21.64-.65,35.77V254Z"/><path class="w" d="M228.23,292h.55v-.09c0-2.08.12-27.88.12-29.37,0-5.38.2-7.71,2-14.76.14-.55.28-1.07.41-1.55l.06-.2c.28-1,.54-2,.78-2.82,1.32-4.65,1.92-6.78,1.59-12.53h-.54c.32,5.68-.23,7.64-1.57,12.37-.24.85-.5,1.78-.79,2.83l-.05.2c-.13.49-.27,1-.41,1.55-1.85,7.12-2,9.47-2,14.9,0,1.49-.12,27.29-.13,29.37Z"/><path class="w" d="M135.74,292l.13-.23c-1-.56-4.45-2.56-17.34-10L77.05,257.83a3.4,3.4,0,0,1-1.75-3.36l-.27,0a3.71,3.71,0,0,0,1.89,3.63L118.4,282C131.28,289.46,134.75,291.46,135.74,292Z"/><path class="w" d="M331.59,227.07c1.19-3,11.74-29.65,15.36-40,.85-2.43,2.06-6,2.8-9,1-4,1.21-6.45-.08-9.86l-.15-.4c-1.38-3.34-4.11-6.09-7.89-9.91l-.27-.28c-1.22-1.22-8.28-8.06-9.16-8.89l-.37.39c.88.83,7.93,7.67,9.14,8.88l.28.28c3.74,3.77,6.43,6.5,7.76,9.72a4,4,0,0,1,.15.4c1.24,3.27,1,5.69.07,9.54-.74,3-2,6.56-2.79,9-3.62,10.33-14.17,37-15.36,40Z"/><path class="z" d="M354.19,217.67c.31-.16.63-.31.95-.45l.91-.53c.61-.35,1.21-.71,1.8-1.09s1.17-.79,1.73-1.23c.27-.22.55-.43.82-.67a10.41,10.41,0,0,0,.68-.81c-.29.2-.56.42-.86.61s-.54.44-.81.66c-.55.43-1.12.83-1.7,1.21s-1.19.74-1.8,1.09L355,217A8.93,8.93,0,0,0,354.19,217.67Z"/><path class="z" d="M358.68,225.85h0c.22-.4.44-.79.67-1.17l.59-1.21c.4-.81.79-1.62,1.14-2.45s.69-1.67,1-2.52q.22-.65.42-1.29c.09-.44.17-.89.24-1.33h0c-.18.42-.32.84-.5,1.25s-.27.86-.41,1.28c-.3.85-.62,1.68-1,2.5s-.74,1.64-1.14,2.44l-.6,1.21c-.15.43-.31.85-.42,1.29h0Z"/><path class="z" d="M368.77,222.68h0c0-.33-.09-.66-.13-1l-.22-1q-.21-1-.48-1.95t-.6-1.92c-.11-.32-.22-.64-.34-.95s-.32-.6-.5-.89l.24,1c.12.31.23.63.34.94.22.63.42,1.27.6,1.91s.33,1.29.48,1.94l.22,1a7.75,7.75,0,0,0,.39.94h0Z"/><path class="z" d="M376.86,210.56a7,7,0,0,0-.9-.15l-.91,0h-1.8c-.6,0-1.2,0-1.8-.08l-.9-.07-.91.05h0c.3.09.59.15.89.22l.9.07c.61,0,1.21.07,1.82.08s1.2,0,1.81,0h.9Z"/><path class="z" d="M376.86,198.6a11.76,11.76,0,0,0-1,.86l-.87,1q-.86,1-1.77,1.92c-.61.63-1.25,1.23-1.9,1.81-.33.28-.66.57-1,.84s-.63.61-.94.92c.38-.23.75-.46,1.12-.71l1-.85c.66-.59,1.29-1.19,1.91-1.82s1.21-1.27,1.79-1.93l.87-1C376.32,199.29,376.58,198.94,376.86,198.6Z"/><path class="z" d="M368.77,195.82a8.87,8.87,0,0,0-.39,1.13l-.21,1.16c-.14.77-.29,1.54-.46,2.31s-.38,1.52-.62,2.26c-.12.37-.24.75-.38,1.11s-.22.76-.31,1.15c.19-.35.38-.7.56-1.05s.26-.75.39-1.12c.24-.76.44-1.52.62-2.29s.33-1.55.46-2.32l.21-1.16C368.67,196.6,368.72,196.21,368.77,195.82Z"/><path class="z" d="M358.68,204.31a5.75,5.75,0,0,0,.41.56l.52.46,1,.9,1,.92.49.48c.19.12.37.27.57.39-.12-.2-.25-.39-.38-.58l-.5-.49-1-.93-1-.9-.51-.45Z"/><path class="z" d="M183.42,316.26c.32-.16.63-.31,1-.45l.91-.52c.6-.35,1.21-.71,1.8-1.1a20.58,20.58,0,0,0,1.72-1.22c.28-.22.56-.44.82-.67s.47-.53.69-.81c-.3.2-.57.41-.87.6s-.53.45-.8.67c-.55.43-1.12.82-1.71,1.21s-1.18.73-1.79,1.08l-.91.53A9,9,0,0,0,183.42,316.26Z"/><path class="z" d="M187.92,324.44q.32-.6.66-1.17l.6-1.21c.39-.81.78-1.62,1.13-2.45s.69-1.67,1-2.52c.15-.42.29-.85.42-1.28s.18-.89.25-1.34h0c-.17.42-.32.85-.5,1.26s-.27.85-.41,1.27c-.3.85-.62,1.68-1,2.5s-.73,1.63-1.13,2.44l-.59,1.21A11.43,11.43,0,0,0,187.92,324.44Z"/><path class="z" d="M198,321.27c0-.34-.09-.67-.12-1l-.23-1c-.14-.65-.3-1.31-.48-2s-.38-1.29-.6-1.93c-.11-.32-.22-.63-.34-.95s-.33-.59-.5-.89l.24,1c.12.31.24.63.35.94.21.63.41,1.27.59,1.91s.34,1.3.48,1.95l.22,1C197.73,320.64,197.85,321,198,321.27Z"/><path class="z" d="M206.1,309.15a7,7,0,0,0-.9-.15l-.91,0h-1.8c-.59,0-1.19,0-1.79-.08l-.9-.07c-.3,0-.6,0-.91.05.29.09.59.15.89.22l.9.07c.6,0,1.21.07,1.81.08h1.81l.9,0Z"/><path class="z" d="M206.1,297.19a11.9,11.9,0,0,0-1,.86l-.87,1c-.58.66-1.16,1.3-1.77,1.93s-1.25,1.22-1.9,1.8l-1,.85c-.3.31-.63.6-.94.92.38-.23.75-.47,1.11-.71s.68-.57,1-.86c.66-.58,1.29-1.19,1.91-1.81s1.21-1.28,1.79-1.94l.87-1C205.55,297.88,205.81,297.53,206.1,297.19Z"/><path class="z" d="M198,294.41a10.75,10.75,0,0,0-.39,1.13l-.21,1.16c-.13.77-.28,1.54-.46,2.31s-.37,1.51-.61,2.26c-.13.37-.25.74-.39,1.11s-.21.75-.31,1.14q.3-.51.57-1c.14-.37.26-.74.39-1.12.24-.75.44-1.52.62-2.28s.32-1.55.46-2.32l.21-1.16C197.91,295.19,198,294.81,198,294.41Z"/><path class="z" d="M187.92,302.9a5.75,5.75,0,0,0,.41.56l.52.45,1,.91c.34.3.67.61,1,.92l.49.48.58.4c-.12-.2-.25-.39-.38-.59l-.5-.48c-.33-.32-.67-.63-1-.93l-1-.91-.52-.45C188.31,303.14,188.12,303,187.92,302.9Z"/><path class="n" d="M230.05,235.17a1.83,1.83,0,0,0-.67,2l1.89,7.84a1.06,1.06,0,0,0,.56.75l.12,0,1.53.39a2.9,2.9,0,0,1-.67-1.33,6.09,6.09,0,0,1-.11-1.24l0-.59.09-1.28a.55.55,0,0,0,0-.12,3.12,3.12,0,0,1,.62-1.76l.34-.38a13.88,13.88,0,0,0,1.06-1.08C234.55,238.17,230.18,235.27,230.05,235.17Z"/><path class="p" d="M231.9,234.11l-1.85,1.06c.13.1,4.5,3,4.79,3.19.39-.51.77-1,1.16-1.52Z"/><path class="o" d="M233.48,246.14a3.25,3.25,0,0,0,1,.77l0,0a2.37,2.37,0,0,0,.36.17l10.69,4.23h0c1.78.68,3.62.74,4.78-.8v0a6,6,0,0,0,.9-3.2,11.6,11.6,0,0,0-.15-2.26l-.16-.79a6.54,6.54,0,0,1-.36-1.9c0-.12,0-.3,0-.36l1.29-1.7a6.25,6.25,0,0,0-3.26-3.1,2.26,2.26,0,0,1-.05,1.18c-.11.37-.44,1.15-.8,2.16a75.32,75.32,0,0,0-8.81-2c-1.5-.14-4.05,0-5.21.93l-.34.38a3.12,3.12,0,0,0-.62,1.76.55.55,0,0,1,0,.12l-.09,1.28,0,.59a6.09,6.09,0,0,0,.11,1.24A2.9,2.9,0,0,0,233.48,246.14Z"/><path class="p" d="M234.84,238.36a13.88,13.88,0,0,1-1.06,1.08c1.16-1,3.71-1.07,5.21-.93a75.32,75.32,0,0,1,8.81,2c.36-1,.69-1.79.8-2.16a2.26,2.26,0,0,0,.05-1.18l-2.1-.82a19.54,19.54,0,0,0-4.69-.85,10.37,10.37,0,0,0-5.86,1.3C235.61,237.34,235.23,237.85,234.84,238.36Z"/><path class="n" d="M252,248.38c1.34-2.25,1-5.71,0-8.07l-1.29,1.7c0,.06,0,.24,0,.36a6.54,6.54,0,0,0,.36,1.9l.16.79a11.6,11.6,0,0,1,.15,2.26,6,6,0,0,1-.9,3.2h0l1.35-1.77Z"/><path class="f" d="M266,94.05l-3.22,1.21c-1.06.43-2.12.88-3.16,1.37a18.9,18.9,0,0,0-3,1.66,5.22,5.22,0,0,0-2,2.8,5.3,5.3,0,0,0,.41,3.44,13.37,13.37,0,0,0,1.85,2.94,44.91,44.91,0,0,0,4.77,5,83.8,83.8,0,0,0,10.94,8.37,118.57,118.57,0,0,0,12,6.82,137.35,137.35,0,0,0,12.64,5.48c2.14.82,4.32,1.55,6.5,2.26s4.4,1.33,6.65,1.81a39.33,39.33,0,0,0,13.72.67c2.28-.32,4.52-.82,6.77-1.23s4.52-.76,6.8-1c-2.28.19-4.56.5-6.82.87s-4.51.82-6.78,1.09a38.67,38.67,0,0,1-13.6-.81,105.37,105.37,0,0,1-13.07-4.12c-4.28-1.62-8.47-3.47-12.57-5.51a115.65,115.65,0,0,1-11.93-6.75,88.77,88.77,0,0,1-10.94-8.25,45,45,0,0,1-4.77-4.9,12.79,12.79,0,0,1-1.84-2.84,4.57,4.57,0,0,1,1.44-6,19.65,19.65,0,0,1,3-1.71c1-.5,2.07-1,3.13-1.42Z"/><path class="f" d="M241.75,192.37c1.39-2.07,2.85-4.11,4.41-6.06.77-1,1.57-1.94,2.38-2.89s1.63-1.89,2.36-2.93a9.66,9.66,0,0,0,1.53-3.45,7.57,7.57,0,0,0-.13-3.78c-.11-.3-.18-.62-.31-.91l-.39-.86a16.75,16.75,0,0,0-1-1.63,26.62,26.62,0,0,0-2.32-3,53.32,53.32,0,0,0-5.41-5.22c-1.91-1.62-3.89-3.17-5.94-4.6a111.06,111.06,0,0,0-12.83-7.8,121.66,121.66,0,0,0-13.73-6.08,72.6,72.6,0,0,0-14.49-3.95,26,26,0,0,0-7.52,0,19.29,19.29,0,0,0-7.09,2.47c-2.15,1.29-4.19,2.73-6.21,4.21s-4,3-6,4.55c2-1.51,4-3,6-4.45s4.11-2.84,6.27-4.08a18.92,18.92,0,0,1,7-2.36,25.63,25.63,0,0,1,7.42.08,74.47,74.47,0,0,1,14.37,4,119.7,119.7,0,0,1,13.65,6.08,110.57,110.57,0,0,1,12.79,7.73c2.05,1.42,4,2.95,5.92,4.56a57.15,57.15,0,0,1,5.41,5.14,25.86,25.86,0,0,1,2.32,2.9,17.16,17.16,0,0,1,1,1.58l.39.84a7.93,7.93,0,0,1,.3.86,7.32,7.32,0,0,1,.17,3.63,9.69,9.69,0,0,1-1.46,3.36c-.69,1-1.5,2-2.29,3s-1.58,1.94-2.34,2.93C244.53,188.21,243.11,190.27,241.75,192.37Z"/><path class="f" d="M81.92,249.16c4.84,2.93,9.72,5.8,14.6,8.67l14.67,8.54,14.74,8.44,7.39,4.18,7.42,4.13-7.29-4.36-7.31-4.31-14.68-8.54-14.74-8.44C91.8,254.68,86.87,251.89,81.92,249.16Z"/><path class="aa" d="M132.46,199.38c13.11,11.11,42.26,28.36,56.35,35.44,1.78.89,4.67,2.32,7.89,3.71-6.16-27.24-12.27-61.19-16.79-88-3.62-.78-8-1.26-10.94.17h0c-1.21,1-2.37,1.85-3.44,2.7-1.91,1.52-33.58,27.47-34.48,28.22a42.83,42.83,0,0,0-6.7,6.63C123.7,191.72,129.76,197.08,132.46,199.38Z"/><line class="e" x1="366.73" y1="210.84" x2="402.56" y2="231.53"/><line class="d" x1="312.99" y1="64.1" x2="312.99" y2="113.8"/><line class="g" x1="74.11" y1="317.67" x2="105.6" y2="298.93"/><path class="b" d="M306.26,5.77h1.67v2h2V9.47h-2v2h-1.67v-2h-2V7.79h2Z"/><path class="b" d="M318.28,9.65v1.86h-7.23l4-6.58h-3.31V3.07h7l-4,6.58Z"/><path class="b" d="M309.26,284.84v1.67h-3.2v-1.67Z"/><path class="b" d="M317.2,287.41v1.85H310l4-6.57h-3.31v-1.86h7l-4,6.58Z"/><path class="k" d="M6.21,367.61h-2a.53.53,0,0,0,.6.6.47.47,0,0,0,.45-.25h.92a1.06,1.06,0,0,1-.49.69,1.64,1.64,0,0,1-.88.24,1.65,1.65,0,0,1-1.12-.38,1.34,1.34,0,0,1-.44-1.06,1.64,1.64,0,0,1,.11-.6,1.29,1.29,0,0,1,.31-.45,1.33,1.33,0,0,1,.47-.29,2,2,0,0,1,.61-.1,1.43,1.43,0,0,1,1.08.41,1.48,1.48,0,0,1,.39,1.09Zm-.89-.55a.45.45,0,0,0-.19-.31.53.53,0,0,0-.35-.12.67.67,0,0,0-.37.11.48.48,0,0,0-.19.32Z"/><path class="k" d="M9.6,368.53a1.64,1.64,0,0,1-.39,1.22,1.62,1.62,0,0,1-1.17.39,2.12,2.12,0,0,1-.49-.06,2,2,0,0,1-.48-.19,1.35,1.35,0,0,1-.38-.33.9.9,0,0,1-.18-.45H7.58a.31.31,0,0,0,.18.21.6.6,0,0,0,.27.06.68.68,0,0,0,.31-.06.49.49,0,0,0,.19-.16.85.85,0,0,0,.09-.24,1.42,1.42,0,0,0,0-.31v-.13a1.36,1.36,0,0,1-.39.28,1.16,1.16,0,0,1-.47.09,1.32,1.32,0,0,1-.53-.11,1.17,1.17,0,0,1-.43-.29,1.3,1.3,0,0,1-.27-.44,1.33,1.33,0,0,1-.1-.54,1.78,1.78,0,0,1,.1-.56,1.38,1.38,0,0,1,.29-.46,1.24,1.24,0,0,1,.43-.32,1.31,1.31,0,0,1,.56-.12,1.14,1.14,0,0,1,.46.09.93.93,0,0,1,.34.29h0v-.29H9.6Zm-2-1.53a.6.6,0,0,0-.16.43.61.61,0,0,0,.16.44.63.63,0,0,0,.45.17.61.61,0,0,0,.45-.17.62.62,0,0,0,.17-.44.61.61,0,0,0-.17-.43.58.58,0,0,0-.45-.18A.6.6,0,0,0,7.61,367Z"/><path class="k" d="M11.22,367.85a.6.6,0,0,1,.18.44.58.58,0,0,1-.18.43.57.57,0,0,1-.43.18.6.6,0,0,1-.44-.18.58.58,0,0,1-.18-.43.61.61,0,0,1,.62-.62A.57.57,0,0,1,11.22,367.85Z"/><path class="k" d="M16.76,368.53a1.6,1.6,0,0,1-.4,1.22,1.58,1.58,0,0,1-1.16.39,2.2,2.2,0,0,1-.5-.06,2,2,0,0,1-.48-.19,1.31,1.31,0,0,1-.37-.33.9.9,0,0,1-.18-.45h1.07a.31.31,0,0,0,.18.21.6.6,0,0,0,.27.06.71.71,0,0,0,.31-.06.49.49,0,0,0,.19-.16.85.85,0,0,0,.09-.24,2.69,2.69,0,0,0,0-.31v-.13a1.13,1.13,0,0,1-.39.28,1.11,1.11,0,0,1-.46.09,1.37,1.37,0,0,1-.54-.11,1.22,1.22,0,0,1-.42-.29,1.16,1.16,0,0,1-.27-.44,1.33,1.33,0,0,1-.1-.54,1.5,1.5,0,0,1,.38-1,1.28,1.28,0,0,1,.44-.32A1.31,1.31,0,0,1,15,366a1.06,1.06,0,0,1,.45.09.79.79,0,0,1,.34.29h0v-.29h1Zm-2-1.53a.6.6,0,0,0-.16.43.61.61,0,1,0,1.22,0,.6.6,0,0,0-.16-.43.65.65,0,0,0-.9,0Z"/><path class="k" d="M20.12,367.61h-2a.53.53,0,0,0,.6.6.49.49,0,0,0,.46-.25h.92a1.1,1.1,0,0,1-.5.69,1.58,1.58,0,0,1-.87.24,1.68,1.68,0,0,1-1.13-.38,1.33,1.33,0,0,1-.43-1.06,1.46,1.46,0,0,1,.11-.6,1.27,1.27,0,0,1,.3-.45,1.37,1.37,0,0,1,.48-.29,1.89,1.89,0,0,1,.6-.1,1.46,1.46,0,0,1,1.09.41,1.48,1.48,0,0,1,.38,1.09Zm-.88-.55a.53.53,0,0,0-.19-.31.55.55,0,0,0-.35-.12.62.62,0,0,0-.37.11.49.49,0,0,0-.2.32Z"/><path class="k" d="M22.6,366.11a1.73,1.73,0,0,1,.52.28,1.37,1.37,0,0,1,.36.46,1.45,1.45,0,0,1,0,1.2,1.37,1.37,0,0,1-.36.46,1.67,1.67,0,0,1-.51.28,2,2,0,0,1-1.25,0,1.63,1.63,0,0,1-.52-.28,1.3,1.3,0,0,1-.35-.45,1.33,1.33,0,0,1-.13-.61,1.32,1.32,0,0,1,.13-.6,1.34,1.34,0,0,1,.35-.46,1.86,1.86,0,0,1,.52-.28A2.17,2.17,0,0,1,22,366,2.06,2.06,0,0,1,22.6,366.11Zm-1.07.91a.6.6,0,0,0-.16.43.63.63,0,0,0,1.06.44.62.62,0,0,0,.17-.44.61.61,0,0,0-.17-.43.65.65,0,0,0-.9,0Z"/><path class="k" d="M25,366.44h0a1,1,0,0,1,.85-.43,1.13,1.13,0,0,1,.54.13.85.85,0,0,1,.38.39.89.89,0,0,1,.39-.38,1.08,1.08,0,0,1,.53-.14.82.82,0,0,1,.7.29,1.29,1.29,0,0,1,.21.78v1.72h-1v-1.29a2.35,2.35,0,0,0,0-.28.87.87,0,0,0-.05-.22.3.3,0,0,0-.12-.17.34.34,0,0,0-.22-.06.49.49,0,0,0-.25.06.31.31,0,0,0-.13.17.9.9,0,0,0-.06.22,2.44,2.44,0,0,0,0,.28v1.29h-1v-1.29a2.44,2.44,0,0,0,0-.28.85.85,0,0,0,0-.22.35.35,0,0,0-.13-.18.38.38,0,0,0-.24-.08.36.36,0,0,0-.24.08.3.3,0,0,0-.13.18.87.87,0,0,0-.05.22c0,.08,0,.18,0,.28v1.29H24v-2.7H25Z"/><path class="k" d="M32,367.61H30a.52.52,0,0,0,.59.6A.49.49,0,0,0,31,368H32a1.09,1.09,0,0,1-.49.69,1.64,1.64,0,0,1-.88.24,1.68,1.68,0,0,1-1.13-.38,1.33,1.33,0,0,1-.43-1.06,1.64,1.64,0,0,1,.11-.6,1.27,1.27,0,0,1,.3-.45,1.47,1.47,0,0,1,.48-.29,1.89,1.89,0,0,1,.6-.1,1.44,1.44,0,0,1,1.09.41,1.48,1.48,0,0,1,.39,1.09Zm-.89-.55a.53.53,0,0,0-.19-.31.55.55,0,0,0-.35-.12.62.62,0,0,0-.37.11.49.49,0,0,0-.2.32Z"/><path class="k" d="M33.48,368.8h-1v-1.91h-.31v-.79h.31v-.8h1v.8H34v.79h-.54Z"/><path class="k" d="M35.28,366.54h0a.89.89,0,0,1,.36-.36,1.19,1.19,0,0,1,.51-.11h.18V367a.71.71,0,0,0-.18-.08h-.22a.59.59,0,0,0-.52.21,1.11,1.11,0,0,0-.14.6v1.09h-1v-2.7h1Z"/><path class="k" d="M36.4,366.1h1.1l.72,1.38.71-1.38H40l-2.15,4H36.78l.92-1.71Z"/><path class="k" d="M39.91,369.45v-.26h2.63v.26Z"/><path class="k" d="M43.81,366.44h0a1,1,0,0,1,.85-.43,1.2,1.2,0,0,1,.54.13.85.85,0,0,1,.38.39.93.93,0,0,1,.38-.38,1.1,1.1,0,0,1,.53-.14.84.84,0,0,1,.71.29,1.29,1.29,0,0,1,.21.78v1.72h-1v-1.29c0-.11,0-.2,0-.28a1.74,1.74,0,0,0-.05-.22.43.43,0,0,0-.12-.17.36.36,0,0,0-.22-.06.46.46,0,0,0-.25.06.39.39,0,0,0-.14.17,1.74,1.74,0,0,0,0,.22,2.44,2.44,0,0,0,0,.28v1.29h-1v-1.29a2.44,2.44,0,0,0,0-.28.59.59,0,0,0,0-.22.27.27,0,0,0-.13-.18.36.36,0,0,0-.24-.08.36.36,0,0,0-.23.08.3.3,0,0,0-.13.18.87.87,0,0,0,0,.22,2.44,2.44,0,0,0,0,.28v1.29h-1v-2.7h1Z"/><path class="k" d="M49.83,366.8l-.26-.1-.26,0a.45.45,0,0,0-.2,0,.16.16,0,0,0-.1.14.16.16,0,0,0,.11.15,1.31,1.31,0,0,0,.27.07l0,0a1.15,1.15,0,0,1,.58.25.7.7,0,0,1,.21.54.94.94,0,0,1-.11.45.78.78,0,0,1-.29.31,1.14,1.14,0,0,1-.4.19,1.89,1.89,0,0,1-.47.06,2.12,2.12,0,0,1-.57-.08,2.42,2.42,0,0,1-.52-.23l.34-.67a1.68,1.68,0,0,0,.38.19,1,1,0,0,0,.38.08.41.41,0,0,0,.21-.05.18.18,0,0,0,.09-.15.15.15,0,0,0-.1-.16,1.12,1.12,0,0,0-.31-.1l-.19,0a1.23,1.23,0,0,1-.23-.09.76.76,0,0,1-.19-.12.77.77,0,0,1-.13-.2.9.9,0,0,1,0-.3.93.93,0,0,1,.1-.42.77.77,0,0,1,.27-.3,1.21,1.21,0,0,1,.38-.18,1.61,1.61,0,0,1,.44-.06,2.08,2.08,0,0,1,.89.18Z"/><path class="k" d="M53.7,368.53a1.64,1.64,0,0,1-.4,1.22,1.58,1.58,0,0,1-1.16.39,2.2,2.2,0,0,1-.5-.06,2,2,0,0,1-.48-.19,1.19,1.19,0,0,1-.37-.33.91.91,0,0,1-.19-.45h1.07a.37.37,0,0,0,.18.21.67.67,0,0,0,.28.06.71.71,0,0,0,.31-.06.4.4,0,0,0,.18-.16.5.5,0,0,0,.09-.24,1.42,1.42,0,0,0,0-.31v-.13a1.36,1.36,0,0,1-.39.28,1.16,1.16,0,0,1-.47.09,1.32,1.32,0,0,1-.53-.11,1.13,1.13,0,0,1-.42-.29,1.33,1.33,0,0,1-.28-.44,1.64,1.64,0,0,1,0-1.1,1.36,1.36,0,0,1,.28-.46,1.35,1.35,0,0,1,1-.44,1.06,1.06,0,0,1,.45.09.79.79,0,0,1,.34.29h0v-.29h1Zm-2-1.53a.61.61,0,0,0-.17.43.62.62,0,0,0,.17.44.61.61,0,0,0,1.06-.44.6.6,0,0,0-.16-.43.65.65,0,0,0-.9,0Z"/><path class="k" d="M56.08,366.8l-.26-.1-.26,0a.45.45,0,0,0-.2,0,.15.15,0,0,0-.1.14.16.16,0,0,0,.11.15,1.31,1.31,0,0,0,.27.07l0,0a1.15,1.15,0,0,1,.58.25.73.73,0,0,1,.2.54.93.93,0,0,1-.1.45.86.86,0,0,1-.29.31,1.11,1.11,0,0,1-.41.19,1.84,1.84,0,0,1-.47.06,2.1,2.1,0,0,1-.56-.08,2.42,2.42,0,0,1-.52-.23l.34-.67a1.68,1.68,0,0,0,.38.19,1,1,0,0,0,.38.08.35.35,0,0,0,.2-.05.17.17,0,0,0,.1-.15.15.15,0,0,0-.1-.16,1.1,1.1,0,0,0-.32-.1l-.18,0a1,1,0,0,1-.23-.09.76.76,0,0,1-.19-.12.58.58,0,0,1-.13-.2.9.9,0,0,1,0-.3.82.82,0,0,1,.1-.42.77.77,0,0,1,.27-.3,1.21,1.21,0,0,1,.38-.18,1.61,1.61,0,0,1,.44-.06,2.11,2.11,0,0,1,.89.18Z"/><path class="k" d="M59.57,364.44l-2,4.85h-.76l2-4.85Z"/><path class="k" d="M61.62,368.8h-1v-3.09h-.85v-.87h2.73v.87h-.86Z"/><path class="k" d="M63.75,367.56l.67-1.46H65l.68,1.46.68-1.46H67.4L66,368.8h-.62l-.66-1.48L64,368.8h-.62L62,366.1h1.06Z"/><path class="k" d="M68.49,364.69a.53.53,0,0,1,0,.76.52.52,0,0,1-.38.15.51.51,0,0,1-.37-.15.53.53,0,0,1,0-.76.52.52,0,0,1,.37-.16A.53.53,0,0,1,68.49,364.69Zm.1,4.11h-1v-2.7h1Z"/><path class="k" d="M71,366.8a1.45,1.45,0,0,0-.25-.1l-.26,0a.45.45,0,0,0-.2,0,.15.15,0,0,0-.1.14.15.15,0,0,0,.1.15,1.26,1.26,0,0,0,.28.07l.05,0a1.11,1.11,0,0,1,.57.25.7.7,0,0,1,.21.54.93.93,0,0,1-.1.45.86.86,0,0,1-.29.31,1.18,1.18,0,0,1-.41.19,1.84,1.84,0,0,1-.47.06,2.1,2.1,0,0,1-.56-.08,2.5,2.5,0,0,1-.53-.23l.35-.67a1.84,1.84,0,0,0,.37.19,1,1,0,0,0,.39.08.35.35,0,0,0,.2-.05.19.19,0,0,0,.1-.15.17.17,0,0,0-.1-.16,1.21,1.21,0,0,0-.32-.1l-.18,0a1.34,1.34,0,0,1-.24-.09.71.71,0,0,1-.18-.12.58.58,0,0,1-.13-.2.9.9,0,0,1,0-.3.82.82,0,0,1,.1-.42.83.83,0,0,1,.26-.3,1.27,1.27,0,0,1,.39-.18,1.56,1.56,0,0,1,.44-.06,2,2,0,0,1,.88.18Z"/><path class="k" d="M73,368.8H72v-1.91H71.7v-.79H72v-.8H73v.8h.54v.79H73Z"/><path class="k" d="M74.83,367.85a.6.6,0,0,1,.18.44.58.58,0,0,1-.18.43.59.59,0,0,1-.44.18.61.61,0,0,1-.61-.61.6.6,0,0,1,.18-.44.58.58,0,0,1,.43-.18A.59.59,0,0,1,74.83,367.85Z"/><path class="k" d="M76.56,368.8h-1v-4.36h1Z"/><path class="k" d="M78.05,364.69a.53.53,0,0,1,0,.76.56.56,0,0,1-.76,0,.54.54,0,1,1,.76-.76Zm.1,4.11h-1v-2.7h1Z"/><path class="k" d="M79.73,366.45h0a1.06,1.06,0,0,1,.37-.34,1.24,1.24,0,0,1,.5-.1.92.92,0,0,1,.76.3,1.22,1.22,0,0,1,.25.82v1.67h-1v-1.32a2.35,2.35,0,0,0,0-.28,1.19,1.19,0,0,0-.05-.22.47.47,0,0,0-.13-.15.43.43,0,0,0-.24-.05.41.41,0,0,0-.38.17.75.75,0,0,0-.12.45v1.4h-1v-2.7h1Z"/><path class="k" d="M85,367.61H83a.52.52,0,0,0,.59.6.49.49,0,0,0,.46-.25H85a1.09,1.09,0,0,1-.49.69,1.64,1.64,0,0,1-.88.24,1.68,1.68,0,0,1-1.13-.38,1.33,1.33,0,0,1-.43-1.06,1.64,1.64,0,0,1,.11-.6,1.27,1.27,0,0,1,.3-.45,1.47,1.47,0,0,1,.48-.29,1.89,1.89,0,0,1,.6-.1,1.44,1.44,0,0,1,1.09.41,1.48,1.48,0,0,1,.39,1.09Zm-.89-.55a.53.53,0,0,0-.19-.31.55.55,0,0,0-.35-.12.62.62,0,0,0-.37.11.49.49,0,0,0-.2.32Z"/><path class="k" d="M88.4,368.8h-1v-.3h0a.81.81,0,0,1-.34.29,1.24,1.24,0,0,1-.47.1,1.19,1.19,0,0,1-.54-.12,1.25,1.25,0,0,1-.44-.31,1.46,1.46,0,0,1-.28-.46,1.49,1.49,0,0,1-.1-.55,1.63,1.63,0,0,1,.09-.55,1.38,1.38,0,0,1,.29-.46,1.22,1.22,0,0,1,.43-.31,1.19,1.19,0,0,1,.54-.12,1.22,1.22,0,0,1,.46.09.91.91,0,0,1,.37.27v-.27h1Zm-2-1.78a.61.61,0,0,0-.17.43.62.62,0,0,0,.17.44.61.61,0,0,0,1.06-.44.6.6,0,0,0-.16-.43.65.65,0,0,0-.9,0Z"/><path class="k" d="M90,366.54h0a.89.89,0,0,1,.36-.36,1.19,1.19,0,0,1,.51-.11h.18V367a.71.71,0,0,0-.18-.08h-.22a.56.56,0,0,0-.51.21,1,1,0,0,0-.15.6v1.09H89v-2.7h1Z"/><path class="k" d="M92,367.85a.6.6,0,0,1,.18.44.61.61,0,0,1-.61.61.59.59,0,0,1-.44-.18.58.58,0,0,1-.18-.43.6.6,0,0,1,.18-.44.59.59,0,0,1,.44-.18A.58.58,0,0,1,92,367.85Z"/><path class="k" d="M92.59,366.1H93.8l.48.56.49-.56H96l-1.11,1.24,1.34,1.46H95l-.7-.8-.69.8H92.34l1.34-1.46Z"/><path class="b" d="M360.72,61.45h-2.06a.55.55,0,0,0,.62.62.5.5,0,0,0,.46-.26h.94a1.09,1.09,0,0,1-.5.71,1.85,1.85,0,0,1-2.05-.15,1.35,1.35,0,0,1-.45-1.08,1.7,1.7,0,0,1,.11-.61,1.4,1.4,0,0,1,.32-.47,1.32,1.32,0,0,1,.48-.29,1.79,1.79,0,0,1,.62-.1,1.47,1.47,0,0,1,1.11.41,1.52,1.52,0,0,1,.4,1.12Zm-.91-.56a.51.51,0,0,0-.19-.32.56.56,0,0,0-.36-.12.62.62,0,0,0-.38.12.47.47,0,0,0-.2.32Z"/><path class="b" d="M364.19,62.4a1.68,1.68,0,0,1-.4,1.25,1.66,1.66,0,0,1-1.19.39,2.22,2.22,0,0,1-.51-.06,1.74,1.74,0,0,1-.49-.2,1.25,1.25,0,0,1-.39-.33A.93.93,0,0,1,361,63h1.09a.35.35,0,0,0,.19.21.64.64,0,0,0,.28.06.87.87,0,0,0,.31,0,.4.4,0,0,0,.19-.17.64.64,0,0,0,.1-.24,1.61,1.61,0,0,0,0-.33v-.13a1.44,1.44,0,0,1-.4.29,1.21,1.21,0,0,1-.48.09,1.26,1.26,0,0,1-.55-.11,1.26,1.26,0,0,1-.71-.74,1.5,1.5,0,0,1-.1-.56,1.56,1.56,0,0,1,.1-.57,1.66,1.66,0,0,1,.29-.48,1.42,1.42,0,0,1,.45-.32,1.35,1.35,0,0,1,.57-.12,1.16,1.16,0,0,1,.47.09.88.88,0,0,1,.35.29h0v-.29h1Zm-2-1.57a.62.62,0,0,0-.17.44.63.63,0,1,0,1.26,0,.62.62,0,0,0-.17-.44.68.68,0,0,0-.92,0Z"/><path class="b" d="M365.86,61.7a.61.61,0,0,1,.18.45.6.6,0,0,1-.18.44.63.63,0,0,1-.9,0,.6.6,0,0,1-.18-.44.61.61,0,0,1,.18-.45.65.65,0,0,1,.9,0Z"/><path class="b" d="M371.52,62.4a1.68,1.68,0,0,1-.4,1.25,1.66,1.66,0,0,1-1.19.39,2.22,2.22,0,0,1-.51-.06,1.63,1.63,0,0,1-.49-.2,1.14,1.14,0,0,1-.39-.33.93.93,0,0,1-.18-.46h1.09a.35.35,0,0,0,.19.21.61.61,0,0,0,.28.06.91.91,0,0,0,.31,0,.45.45,0,0,0,.19-.17.64.64,0,0,0,.1-.24,1.67,1.67,0,0,0,0-.33v-.13a1.2,1.2,0,0,1-.4.29,1.16,1.16,0,0,1-.47.09,1.26,1.26,0,0,1-.55-.11,1.26,1.26,0,0,1-.71-.74,1.5,1.5,0,0,1-.1-.56,1.56,1.56,0,0,1,.1-.57,1.47,1.47,0,0,1,.29-.48,1.39,1.39,0,0,1,1-.44,1.19,1.19,0,0,1,.47.09.85.85,0,0,1,.34.29h0v-.29h1Zm-2-1.57a.58.58,0,0,0-.17.44.57.57,0,0,0,.17.44.59.59,0,0,0,.46.18.62.62,0,0,0,.46-.18.6.6,0,0,0,.17-.44.6.6,0,0,0-.63-.62A.59.59,0,0,0,369.49,60.83Z"/><path class="b" d="M375,61.45h-2.06a.54.54,0,0,0,.61.62.51.51,0,0,0,.47-.26h.94a1.09,1.09,0,0,1-.5.71,1.73,1.73,0,0,1-.9.24,1.7,1.7,0,0,1-1.16-.39,1.38,1.38,0,0,1-.44-1.08,1.7,1.7,0,0,1,.11-.61,1.27,1.27,0,0,1,.32-.47,1.17,1.17,0,0,1,.48-.29,1.79,1.79,0,0,1,.62-.1,1.49,1.49,0,0,1,1.11.41,1.52,1.52,0,0,1,.4,1.12Zm-.91-.56a.51.51,0,0,0-.19-.32.63.63,0,0,0-.74,0,.44.44,0,0,0-.2.32Z"/><path class="b" d="M377.51,59.92a1.52,1.52,0,0,1,.53.29,1.37,1.37,0,0,1,.36.46,1.54,1.54,0,0,1,0,1.24,1.37,1.37,0,0,1-.36.46,1.6,1.6,0,0,1-.53.29,2,2,0,0,1-.64.1,1.89,1.89,0,0,1-.63-.1,1.44,1.44,0,0,1-.53-.29,1.28,1.28,0,0,1-.37-.46,1.38,1.38,0,0,1-.13-.62,1.41,1.41,0,0,1,.13-.62,1.28,1.28,0,0,1,.37-.46,1.44,1.44,0,0,1,.53-.29,1.89,1.89,0,0,1,.63-.1A2,2,0,0,1,377.51,59.92Zm-1.1.93a.64.64,0,0,0-.17.44.6.6,0,0,0,.17.44.62.62,0,0,0,.46.18.59.59,0,0,0,.46-.18.57.57,0,0,0,.17-.44.6.6,0,0,0-.17-.44.59.59,0,0,0-.46-.18A.62.62,0,0,0,376.41,60.85Z"/><path class="b" d="M380,60.25h0a1,1,0,0,1,.87-.43,1.13,1.13,0,0,1,.56.13,1,1,0,0,1,.39.39,1,1,0,0,1,.39-.38,1,1,0,0,1,.54-.14.84.84,0,0,1,.72.29,1.27,1.27,0,0,1,.22.8v1.76h-1V61.35a2.27,2.27,0,0,0,0-.28.59.59,0,0,0-.05-.23.32.32,0,0,0-.34-.24.5.5,0,0,0-.26.06.49.49,0,0,0-.14.18.59.59,0,0,0-.05.23,2.16,2.16,0,0,0,0,.28v1.32h-1v-1.6a2,2,0,0,0-.05-.24.4.4,0,0,0-.14-.18.36.36,0,0,0-.24-.07.41.41,0,0,0-.25.07.46.46,0,0,0-.13.18,2,2,0,0,0-.05.24c0,.08,0,.17,0,.28v1.32h-1V59.91h1Z"/><path class="b" d="M387.12,61.45h-2.05a.54.54,0,0,0,.61.62.51.51,0,0,0,.47-.26h.94a1.13,1.13,0,0,1-.51.71,1.85,1.85,0,0,1-2.05-.15,1.38,1.38,0,0,1-.44-1.08,1.51,1.51,0,0,1,.11-.61,1.38,1.38,0,0,1,.31-.47,1.28,1.28,0,0,1,.49-.29,1.74,1.74,0,0,1,.61-.1,1.51,1.51,0,0,1,1.12.41,1.56,1.56,0,0,1,.39,1.12Zm-.9-.56a.52.52,0,0,0-.2-.32.56.56,0,0,0-.36-.12.64.64,0,0,0-.38.12.51.51,0,0,0-.2.32Z"/><path class="b" d="M388.64,62.67h-1v-2h-.31v-.81h.31v-.83h1v.83h.56v.81h-.56Z"/><path class="b" d="M390.49,60.36h0a.92.92,0,0,1,.36-.37,1.15,1.15,0,0,1,.53-.12h.19v.94a.89.89,0,0,0-.19-.07l-.23,0a.57.57,0,0,0-.52.22,1.06,1.06,0,0,0-.15.61v1.12h-1V59.91h1Z"/><path class="b" d="M391.64,59.91h1.13l.73,1.41.72-1.41h1.11L393.12,64H392l.94-1.75Z"/><path class="b" d="M395.23,63.34v-.27h2.69v.27Z"/><path class="b" d="M399.22,60.25h0a1,1,0,0,1,.87-.43,1.13,1.13,0,0,1,.56.13.9.9,0,0,1,.38.39,1.11,1.11,0,0,1,.94-.52.84.84,0,0,1,.72.29,1.27,1.27,0,0,1,.22.8v1.76h-1V61.35a2.27,2.27,0,0,0,0-.28.86.86,0,0,0-.05-.23.32.32,0,0,0-.34-.24.5.5,0,0,0-.26.06.49.49,0,0,0-.14.18.86.86,0,0,0-.06.23c0,.08,0,.17,0,.28v1.32h-1V61.35a2.35,2.35,0,0,0,0-.28,1,1,0,0,0,0-.24.49.49,0,0,0-.14-.18.36.36,0,0,0-.24-.07.41.41,0,0,0-.25.07.46.46,0,0,0-.13.18,2,2,0,0,0,0,.24c0,.08,0,.17,0,.28v1.32h-1V59.91h1Z"/><path class="b" d="M405.38,60.62a1.28,1.28,0,0,0-.26-.1,1.27,1.27,0,0,0-.26,0,.54.54,0,0,0-.21.05c-.07,0-.1.08-.1.14a.17.17,0,0,0,.11.16,1.26,1.26,0,0,0,.28.07H405a1.2,1.2,0,0,1,.59.27.71.71,0,0,1,.21.55.85.85,0,0,1-.11.46.81.81,0,0,1-.29.32,1.35,1.35,0,0,1-.42.19,1.86,1.86,0,0,1-.48.06,2.25,2.25,0,0,1-.58-.08,2.11,2.11,0,0,1-.53-.24l.35-.68a2.69,2.69,0,0,0,.38.2,1.29,1.29,0,0,0,.4.08.42.42,0,0,0,.21-.06.16.16,0,0,0,.09-.15.18.18,0,0,0-.1-.17,1.65,1.65,0,0,0-.32-.09l-.19,0-.24-.08-.19-.13a.74.74,0,0,1-.13-.21.7.7,0,0,1-.05-.3.85.85,0,0,1,.1-.43.74.74,0,0,1,.27-.31,1.38,1.38,0,0,1,.39-.18,1.74,1.74,0,0,1,.45-.06,2.14,2.14,0,0,1,.91.18Z"/><path class="b" d="M409.35,62.4a1.68,1.68,0,0,1-.41,1.25,1.66,1.66,0,0,1-1.19.39,2.29,2.29,0,0,1-.51-.06,1.74,1.74,0,0,1-.49-.2,1.25,1.25,0,0,1-.39-.33.93.93,0,0,1-.18-.46h1.1a.31.31,0,0,0,.18.21.64.64,0,0,0,.28.06,1,1,0,0,0,.32,0,.52.52,0,0,0,.19-.17.85.85,0,0,0,.09-.24,1.61,1.61,0,0,0,0-.33v-.13a1.44,1.44,0,0,1-.4.29,1.21,1.21,0,0,1-.48.09,1.26,1.26,0,0,1-.55-.11,1.3,1.3,0,0,1-.43-.29,1.48,1.48,0,0,1-.28-.45,1.5,1.5,0,0,1-.1-.56,1.56,1.56,0,0,1,.1-.57,1.66,1.66,0,0,1,.29-.48,1.42,1.42,0,0,1,.45-.32,1.39,1.39,0,0,1,.57-.12,1.16,1.16,0,0,1,.47.09.88.88,0,0,1,.35.29h0v-.29h1Zm-2-1.57a.62.62,0,0,0-.17.44.63.63,0,1,0,1.26,0,.62.62,0,0,0-.17-.44.68.68,0,0,0-.92,0Z"/><path class="b" d="M411.78,60.62a1.28,1.28,0,0,0-.26-.1,1.26,1.26,0,0,0-.27,0,.46.46,0,0,0-.2.05c-.07,0-.1.08-.1.14a.16.16,0,0,0,.11.16,1.26,1.26,0,0,0,.28.07h.05a1.2,1.2,0,0,1,.59.27.71.71,0,0,1,.21.55,1,1,0,0,1-.11.46.89.89,0,0,1-.29.32,1.35,1.35,0,0,1-.42.19,2,2,0,0,1-.48.06,2.25,2.25,0,0,1-.58-.08,2.11,2.11,0,0,1-.53-.24l.35-.68a2.69,2.69,0,0,0,.38.2,1.29,1.29,0,0,0,.4.08.42.42,0,0,0,.21-.06.16.16,0,0,0,.09-.15.18.18,0,0,0-.1-.17,1.9,1.9,0,0,0-.32-.09l-.19,0a1.35,1.35,0,0,1-.24-.08l-.19-.13a.74.74,0,0,1-.13-.21.7.7,0,0,1-.05-.3.85.85,0,0,1,.1-.43.74.74,0,0,1,.27-.31,1.38,1.38,0,0,1,.39-.18,1.74,1.74,0,0,1,.45-.06,2.17,2.17,0,0,1,.91.18Z"/><path class="b" d="M415.36,58.21l-2.05,5h-.77l2-5Z"/><path class="b" d="M417.46,62.67h-1V59.51h-.87v-.9h2.8v.9h-.88Z"/><path class="b" d="M419.64,61.4l.69-1.49h.58l.69,1.49.7-1.49h1.08l-1.44,2.76h-.64l-.68-1.51-.68,1.51h-.64l-1.44-2.76H419Z"/><path class="b" d="M424.5,58.46a.56.56,0,1,1-.39-.16A.57.57,0,0,1,424.5,58.46Zm.1,4.21h-1V59.91h1Z"/><path class="b" d="M427.07,60.62l-.26-.1a1.47,1.47,0,0,0-.27,0,.54.54,0,0,0-.21.05c-.06,0-.1.08-.1.14a.17.17,0,0,0,.11.16,1.42,1.42,0,0,0,.28.07h.05a1.16,1.16,0,0,1,.59.27.68.68,0,0,1,.22.55,1,1,0,0,1-.11.46.89.89,0,0,1-.29.32,1.59,1.59,0,0,1-.42.19,2,2,0,0,1-.49.06,2.24,2.24,0,0,1-.57-.08,2.17,2.17,0,0,1-.54-.24l.36-.68a1.91,1.91,0,0,0,.38.2,1.29,1.29,0,0,0,.39.08.37.37,0,0,0,.21-.06.16.16,0,0,0,.1-.15.19.19,0,0,0-.1-.17,1.8,1.8,0,0,0-.33-.09l-.19,0a1,1,0,0,1-.23-.08.91.91,0,0,1-.19-.13.77.77,0,0,1-.14-.21.9.9,0,0,1-.05-.3.85.85,0,0,1,.1-.43.84.84,0,0,1,.28-.31,1.17,1.17,0,0,1,.39-.18,1.63,1.63,0,0,1,.45-.06,2.21,2.21,0,0,1,.91.18Z"/><path class="b" d="M429.07,62.67h-1v-2h-.31v-.81h.31v-.83h1v.83h.56v.81h-.56Z"/><path class="b" d="M431,61.7a.61.61,0,0,1,.18.45.6.6,0,0,1-.18.44.63.63,0,0,1-.9,0,.6.6,0,0,1-.18-.44.61.61,0,0,1,.18-.45.65.65,0,0,1,.9,0Z"/><path class="b" d="M434.8,62.67h-1v-.31h0a.79.79,0,0,1-.35.3,1.29,1.29,0,0,1-.48.1,1.31,1.31,0,0,1-.56-.12,1.16,1.16,0,0,1-.44-.32,1.45,1.45,0,0,1-.3-.47,1.65,1.65,0,0,1,0-1.13,1.53,1.53,0,0,1,.29-.47,1.29,1.29,0,0,1,1-.43,1.28,1.28,0,0,1,.48.09.94.94,0,0,1,.38.27v-.27h1Zm-2-1.82a.64.64,0,0,0-.17.44.6.6,0,0,0,.17.44.62.62,0,0,0,.46.18.59.59,0,0,0,.46-.18.6.6,0,0,0,.17-.44.64.64,0,0,0-.17-.44.59.59,0,0,0-.46-.18A.62.62,0,0,0,432.76,60.85Z"/><path class="b" d="M436.43,60.26h0a1,1,0,0,1,.37-.34,1.13,1.13,0,0,1,.51-.1,1,1,0,0,1,.78.3,1.26,1.26,0,0,1,.26.84v1.71h-1V61.32c0-.11,0-.21,0-.29a.71.71,0,0,0-.06-.22.34.34,0,0,0-.13-.16.54.54,0,0,0-.24,0,.46.46,0,0,0-.4.17.91.91,0,0,0-.11.47v1.43h-1V59.91h1Z"/><path class="b" d="M442,62.4a1.68,1.68,0,0,1-.41,1.25,1.64,1.64,0,0,1-1.19.39,2.35,2.35,0,0,1-.51-.06,1.87,1.87,0,0,1-.49-.2,1.21,1.21,0,0,1-.38-.33.94.94,0,0,1-.19-.46H440a.31.31,0,0,0,.18.21.67.67,0,0,0,.28.06.93.93,0,0,0,.32,0,.52.52,0,0,0,.19-.17.63.63,0,0,0,.09-.24,1.61,1.61,0,0,0,0-.33v-.13a1.31,1.31,0,0,1-.4.29,1.35,1.35,0,0,1-1,0,1.35,1.35,0,0,1-.44-.29,1.48,1.48,0,0,1-.28-.45,1.74,1.74,0,0,1-.1-.56,1.56,1.56,0,0,1,.11-.57,1.32,1.32,0,0,1,.29-.48,1.23,1.23,0,0,1,.45-.32,1.32,1.32,0,0,1,.57-.12,1.11,1.11,0,0,1,.46.09.82.82,0,0,1,.35.29h0v-.29h1Zm-2-1.57a.61.61,0,0,0-.16.44.6.6,0,0,0,.16.44.62.62,0,0,0,.46.18.59.59,0,0,0,.46-.18.57.57,0,0,0,.17-.44.58.58,0,0,0-.17-.44.59.59,0,0,0-.46-.18A.62.62,0,0,0,440,60.83Z"/><path class="b" d="M443.6,59.91v1.47a.81.81,0,0,0,.11.45.44.44,0,0,0,.38.15.45.45,0,0,0,.39-.15.81.81,0,0,0,.1-.45V59.91h1v1.66a1.41,1.41,0,0,1-.11.57.83.83,0,0,1-.31.36,1.29,1.29,0,0,1-.46.2,2.68,2.68,0,0,1-.59.06,2.74,2.74,0,0,1-.59-.06,1.37,1.37,0,0,1-.46-.2.91.91,0,0,1-.3-.37,1.19,1.19,0,0,1-.11-.56V59.91Z"/><path class="b" d="M447.16,62.67h-1V58.21h1Z"/><path class="b" d="M450.83,62.67h-1v-.31h0a.85.85,0,0,1-.35.3,1.34,1.34,0,0,1-.49.1,1.3,1.3,0,0,1-.55-.12,1.28,1.28,0,0,1-.45-.32,1.61,1.61,0,0,1-.29-.47,1.54,1.54,0,0,1-.1-.56,1.56,1.56,0,0,1,.1-.57,1.53,1.53,0,0,1,.29-.47,1.29,1.29,0,0,1,1-.43,1.28,1.28,0,0,1,.48.09.94.94,0,0,1,.38.27v-.27h1Zm-2-1.82a.64.64,0,0,0-.17.44.63.63,0,1,0,1.26,0,.64.64,0,0,0-.17-.44.68.68,0,0,0-.92,0Z"/><path class="b" d="M452.45,60.36h0a1,1,0,0,1,.37-.37,1.15,1.15,0,0,1,.53-.12h.19v.94a.89.89,0,0,0-.19-.07l-.23,0a.57.57,0,0,0-.52.22,1,1,0,0,0-.16.61v1.12h-1V59.91h1Z"/><path class="b" d="M454.46,61.7a.58.58,0,0,1,.19.45.58.58,0,0,1-.19.44.62.62,0,0,1-.89,0,.6.6,0,0,1-.18-.44.62.62,0,0,1,.63-.63A.6.6,0,0,1,454.46,61.7Z"/><path class="b" d="M457.78,61.86v.81H455l1.3-2h-1.13v-.81h2.76l-1.29,2Z"/><circle class="f" cx="316.56" cy="175.11" r="3.78"/><path class="f" d="M326.51,171.91h1.24v2.48a1.17,1.17,0,0,1,.47-.34,1.81,1.81,0,0,1,.6-.11,1.73,1.73,0,0,1,1.26.55,1.71,1.71,0,0,1,.36.59,2.08,2.08,0,0,1,.12.71,2.12,2.12,0,0,1-.12.71,2,2,0,0,1-.37.6,1.73,1.73,0,0,1-1.26.55,1.54,1.54,0,0,1-.6-.13,1,1,0,0,1-.45-.38h0v.39h-1.24Zm1.41,3.33a.78.78,0,0,0-.21.56.75.75,0,0,0,.21.55.75.75,0,0,0,.58.22.78.78,0,0,0,.58-.22.75.75,0,0,0,.21-.55.75.75,0,0,0-.79-.79A.75.75,0,0,0,327.92,175.24Z"/><path class="f" d="M335,177.53h-1.23v-.39h0a1,1,0,0,1-.44.38,1.59,1.59,0,0,1-.61.13,1.66,1.66,0,0,1-.7-.15,1.62,1.62,0,0,1-.56-.41,1.9,1.9,0,0,1-.37-.59,2.13,2.13,0,0,1-.13-.71,1.87,1.87,0,0,1,.13-.71,1.71,1.71,0,0,1,.36-.59,1.73,1.73,0,0,1,1.25-.55,1.73,1.73,0,0,1,.6.11,1.13,1.13,0,0,1,.48.34v-.34H335Zm-2.56-2.29a.78.78,0,0,0-.21.56.79.79,0,1,0,1.58,0,.78.78,0,0,0-.21-.56.85.85,0,0,0-1.16,0Z"/><path class="f" d="M338.09,175a1.27,1.27,0,0,0-.33-.12,1.39,1.39,0,0,0-.33-.05.55.55,0,0,0-.26.06.19.19,0,0,0-.13.18.19.19,0,0,0,.13.19,2,2,0,0,0,.36.1h.06a1.54,1.54,0,0,1,.75.34.87.87,0,0,1,.26.69,1.18,1.18,0,0,1-.13.58,1,1,0,0,1-.37.4,1.6,1.6,0,0,1-.53.24,2.43,2.43,0,0,1-.61.08,2.93,2.93,0,0,1-1.4-.4l.45-.87a2.17,2.17,0,0,0,.48.25,1.46,1.46,0,0,0,.5.11.59.59,0,0,0,.26-.07.22.22,0,0,0,.12-.2.2.2,0,0,0-.13-.2,1.43,1.43,0,0,0-.4-.13l-.24,0a2.09,2.09,0,0,1-.3-.11,1,1,0,0,1-.24-.16.78.78,0,0,1-.17-.26,1.14,1.14,0,0,1-.06-.39,1.19,1.19,0,0,1,.12-.54,1.1,1.1,0,0,1,.35-.39,1.58,1.58,0,0,1,.49-.23,2.17,2.17,0,0,1,.57-.07,2.73,2.73,0,0,1,1.14.22Z"/><path class="f" d="M342.84,176h-2.6a.69.69,0,0,0,.78.77.64.64,0,0,0,.59-.32h1.18a1.37,1.37,0,0,1-.64.89,2.1,2.1,0,0,1-1.13.31,2.15,2.15,0,0,1-1.45-.49,1.73,1.73,0,0,1-.56-1.36,2.13,2.13,0,0,1,.14-.78,1.71,1.71,0,0,1,.4-.59,1.62,1.62,0,0,1,.61-.36,2.2,2.2,0,0,1,.78-.13,1.85,1.85,0,0,1,1.4.52,1.94,1.94,0,0,1,.5,1.41Zm-1.15-.71a.64.64,0,0,0-.24-.4.72.72,0,0,0-.45-.15.83.83,0,0,0-.48.14.68.68,0,0,0-.26.41Z"/><path class="f" d="M343,178.38V178h3.39v.34Z"/><path class="f" d="M348,177.53h-1.23v-5.62H348Z"/><path class="f" d="M349.94,172.23a.7.7,0,1,1-.49-.2A.7.7,0,0,1,349.94,172.23Zm.13,5.3h-1.24v-3.48h1.24Z"/><path class="f" d="M352.11,174.5h0a1.19,1.19,0,0,1,.47-.43,1.41,1.41,0,0,1,.64-.13,1.25,1.25,0,0,1,1,.38,1.63,1.63,0,0,1,.31,1.06v2.15h-1.23v-1.69a2.18,2.18,0,0,0,0-.38.77.77,0,0,0-.07-.27.4.4,0,0,0-.16-.2.66.66,0,0,0-.3-.07.58.58,0,0,0-.5.22,1,1,0,0,0-.15.59v1.8h-1.23v-3.48h1.23Z"/><path class="f" d="M356.59,175.31l1.28-1.26h1.69l-1.74,1.61,1.85,1.87h-1.73l-1.35-1.42v1.42h-1.23v-5.62h1.23Z"/></g></svg>